M48
; DRILL file {KiCad (5.1.5)-3} date 2021/11/03 13:02:25
; FORMAT={-:-/ absolute / metric / decimal}
; #@! TF.CreationDate,2021-11-03T13:02:25+09:00
; #@! TF.GenerationSoftware,Kicad,Pcbnew,(5.1.5)-3
; #@! TF.FileFunction,Plated,1,2,PTH
FMAT,2
METRIC
T1C0.400
T2C0.500
T3C0.600
T4C0.950
T5C1.000
T6C2.200
T7C3.200
%
G90
G05
T1
X68.58Y-133.35
X69.85Y-64.135
X73.025Y-90.17
X73.025Y-93.345
X74.295Y-69.85
X76.2Y-86.995
X76.2Y-116.84
X76.835Y-133.35
X77.47Y-98.425
X78.105Y-64.135
X81.28Y-59.69
X81.28Y-69.85
X81.28Y-76.835
X81.28Y-123.825
X81.915Y-90.17
X81.915Y-93.345
X81.915Y-102.235
X81.915Y-140.97
X85.725Y-84.455
X86.36Y-107.95
X86.995Y-64.135
X86.995Y-72.39
X87.63Y-133.35
X88.265Y-93.98
X90.805Y-125.73
X90.805Y-142.24
X91.44Y-89.535
X91.44Y-112.395
X92.075Y-78.74
X92.075Y-97.79
X92.075Y-104.775
X93.345Y-73.66
X96.52Y-78.74
X97.155Y-76.2
X97.79Y-80.01
X98.425Y-87.63
X99.06Y-73.66
X99.06Y-91.44
X99.06Y-108.585
X99.695Y-80.01
X100.965Y-77.47
X100.965Y-126.365
X102.235Y-87.63
X104.14Y-65.405
X104.14Y-69.85
X104.14Y-92.075
X104.14Y-106.045
X104.14Y-113.03
X104.14Y-129.54
X106.045Y-83.82
X106.68Y-90.805
X106.68Y-133.35
X107.315Y-73.66
X108.585Y-78.105
X108.585Y-100.33
X109.855Y-78.74
X109.855Y-98.425
X111.125Y-86.36
X111.125Y-97.79
X111.76Y-63.5
X111.76Y-81.915
X112.395Y-68.58
X112.395Y-96.52
X112.395Y-137.795
X113.665Y-109.855
X114.3Y-67.945
X114.935Y-56.515
X114.935Y-62.865
X114.935Y-109.22
X116.84Y-59.69
X116.84Y-71.12
X118.745Y-140.335
X119.38Y-60.96
X119.38Y-71.12
X119.38Y-99.695
X120.015Y-133.35
X120.65Y-109.855
X120.65Y-120.65
X121.285Y-62.865
X121.92Y-72.39
X121.92Y-85.09
X121.92Y-86.36
X121.92Y-87.63
X122.555Y-92.71
X123.19Y-104.14
X125.095Y-131.445
X125.73Y-60.325
X125.73Y-135.89
X126.365Y-101.6
X126.365Y-137.16
X126.365Y-140.335
X127.0Y-72.39
X127.0Y-82.55
X127.0Y-87.63
X127.0Y-96.52
X127.0Y-117.475
X127.635Y-127.0
X127.635Y-130.81
X128.905Y-64.77
X128.905Y-103.505
X129.54Y-135.89
X130.175Y-77.47
X130.175Y-110.49
X130.81Y-118.11
X130.81Y-125.095
X131.445Y-132.08
X132.08Y-58.42
X133.985Y-100.33
X134.62Y-95.25
X134.62Y-114.3
X134.62Y-127.0
X135.255Y-107.95
X135.255Y-132.08
X135.255Y-137.795
X137.16Y-67.945
X137.16Y-75.565
X137.16Y-84.455
X139.7Y-102.87
X139.7Y-121.92
X140.335Y-127.0
X141.605Y-134.62
X144.145Y-61.595
X144.145Y-69.215
X145.415Y-90.17
X145.415Y-97.155
X145.415Y-104.775
X145.415Y-112.395
X145.415Y-120.65
X152.4Y-76.835
X153.035Y-62.23
X153.035Y-112.395
X153.67Y-71.12
X153.67Y-85.09
X153.67Y-99.695
X155.575Y-90.805
X155.575Y-106.045
X158.115Y-62.23
X158.115Y-112.395
X159.385Y-72.39
X159.385Y-79.375
X159.385Y-93.345
X159.385Y-109.22
T2
X66.815Y-57.785
X67.518Y-56.088
X67.518Y-59.482
X69.215Y-55.385
X69.215Y-60.185
X70.912Y-56.088
X70.912Y-59.482
X71.615Y-57.785
X135.395Y-142.875
X136.098Y-141.178
X136.098Y-144.572
X137.795Y-140.475
X137.795Y-145.275
X139.492Y-141.178
X139.492Y-144.572
X140.195Y-142.875
X66.815Y-142.875
X67.518Y-141.178
X67.518Y-144.572
X69.215Y-140.475
X69.215Y-145.275
X70.912Y-141.178
X70.912Y-144.572
X71.615Y-142.875
X135.395Y-57.785
X136.098Y-56.088
X136.098Y-59.482
X137.795Y-55.385
X137.795Y-60.185
X139.492Y-56.088
X139.492Y-59.482
X140.195Y-57.785
T4
X153.075Y-67.31
X155.575Y-67.31
X158.075Y-67.31
T5
X95.25Y-88.9
X95.25Y-91.44
X95.25Y-93.98
X95.25Y-96.52
X95.25Y-99.06
X95.25Y-101.6
X95.25Y-104.14
X95.25Y-106.68
X95.25Y-109.22
X95.25Y-111.76
X69.85Y-88.9
X69.85Y-91.44
X69.85Y-93.98
X69.85Y-96.52
X69.85Y-99.06
X69.85Y-101.6
X69.85Y-104.14
X69.85Y-106.68
X69.85Y-109.22
X69.85Y-111.76
X117.475Y-85.725
X117.475Y-88.265
X117.475Y-90.805
X117.475Y-93.345
X117.475Y-95.885
X117.475Y-98.425
X117.475Y-100.965
X117.475Y-103.505
X117.475Y-106.045
X117.475Y-108.585
X117.475Y-111.125
X117.475Y-113.665
X117.475Y-116.205
X117.475Y-118.745
X117.475Y-121.285
X117.475Y-123.825
X117.475Y-126.365
X117.475Y-128.905
X117.475Y-131.445
X142.875Y-85.725
X142.875Y-88.265
X142.875Y-90.805
X142.875Y-93.345
X142.875Y-95.885
X142.875Y-98.425
X142.875Y-100.965
X142.875Y-103.505
X142.875Y-106.045
X142.875Y-108.585
X142.875Y-111.125
X142.875Y-113.665
X142.875Y-116.205
X142.875Y-118.745
X142.875Y-121.285
X142.875Y-123.825
X142.875Y-126.365
X142.875Y-128.905
X142.875Y-131.445
T6
X118.81Y-78.755
X144.21Y-78.255
T7
X137.795Y-142.875
X69.215Y-142.875
X137.795Y-57.785
X95.885Y-63.5
X155.575Y-118.11
X155.575Y-57.785
X69.215Y-57.785
X95.885Y-137.16
X69.215Y-124.46
X69.215Y-76.2
T3
G00X104.4Y-56.9
M15
G01X104.4Y-57.4
M16
G05
G00X111.5Y-56.9
M15
G01X111.5Y-57.4
M16
G05
G00X104.4Y-143.76
M15
G01X104.4Y-143.26
M16
G05
G00X111.5Y-143.76
M15
G01X111.5Y-143.26
M16
G05
T0
M30
