G04 #@! TF.GenerationSoftware,KiCad,Pcbnew,7.0.7*
G04 #@! TF.CreationDate,2023-10-02T17:25:41+09:00*
G04 #@! TF.ProjectId,control_boad_2021-2,636f6e74-726f-46c5-9f62-6f61645f3230,rev?*
G04 #@! TF.SameCoordinates,Original*
G04 #@! TF.FileFunction,Legend,Bot*
G04 #@! TF.FilePolarity,Positive*
%FSLAX46Y46*%
G04 Gerber Fmt 4.6, Leading zero omitted, Abs format (unit mm)*
G04 Created by KiCad (PCBNEW 7.0.7) date 2023-10-02 17:25:41*
%MOMM*%
%LPD*%
G01*
G04 APERTURE LIST*
%ADD10C,0.150000*%
%ADD11C,0.120000*%
G04 APERTURE END LIST*
D10*
X159529819Y-75461905D02*
X158529819Y-75461905D01*
X158529819Y-75461905D02*
X158529819Y-75700000D01*
X158529819Y-75700000D02*
X158577438Y-75842857D01*
X158577438Y-75842857D02*
X158672676Y-75938095D01*
X158672676Y-75938095D02*
X158767914Y-75985714D01*
X158767914Y-75985714D02*
X158958390Y-76033333D01*
X158958390Y-76033333D02*
X159101247Y-76033333D01*
X159101247Y-76033333D02*
X159291723Y-75985714D01*
X159291723Y-75985714D02*
X159386961Y-75938095D01*
X159386961Y-75938095D02*
X159482200Y-75842857D01*
X159482200Y-75842857D02*
X159529819Y-75700000D01*
X159529819Y-75700000D02*
X159529819Y-75461905D01*
X158529819Y-76366667D02*
X158529819Y-76985714D01*
X158529819Y-76985714D02*
X158910771Y-76652381D01*
X158910771Y-76652381D02*
X158910771Y-76795238D01*
X158910771Y-76795238D02*
X158958390Y-76890476D01*
X158958390Y-76890476D02*
X159006009Y-76938095D01*
X159006009Y-76938095D02*
X159101247Y-76985714D01*
X159101247Y-76985714D02*
X159339342Y-76985714D01*
X159339342Y-76985714D02*
X159434580Y-76938095D01*
X159434580Y-76938095D02*
X159482200Y-76890476D01*
X159482200Y-76890476D02*
X159529819Y-76795238D01*
X159529819Y-76795238D02*
X159529819Y-76509524D01*
X159529819Y-76509524D02*
X159482200Y-76414286D01*
X159482200Y-76414286D02*
X159434580Y-76366667D01*
X157629819Y-80635714D02*
X157629819Y-80064286D01*
X157629819Y-80350000D02*
X156629819Y-80350000D01*
X156629819Y-80350000D02*
X156772676Y-80254762D01*
X156772676Y-80254762D02*
X156867914Y-80159524D01*
X156867914Y-80159524D02*
X156915533Y-80064286D01*
X159529819Y-90701905D02*
X158529819Y-90701905D01*
X158529819Y-90701905D02*
X158529819Y-90940000D01*
X158529819Y-90940000D02*
X158577438Y-91082857D01*
X158577438Y-91082857D02*
X158672676Y-91178095D01*
X158672676Y-91178095D02*
X158767914Y-91225714D01*
X158767914Y-91225714D02*
X158958390Y-91273333D01*
X158958390Y-91273333D02*
X159101247Y-91273333D01*
X159101247Y-91273333D02*
X159291723Y-91225714D01*
X159291723Y-91225714D02*
X159386961Y-91178095D01*
X159386961Y-91178095D02*
X159482200Y-91082857D01*
X159482200Y-91082857D02*
X159529819Y-90940000D01*
X159529819Y-90940000D02*
X159529819Y-90701905D01*
X158863152Y-92130476D02*
X159529819Y-92130476D01*
X158482200Y-91892381D02*
X159196485Y-91654286D01*
X159196485Y-91654286D02*
X159196485Y-92273333D01*
X157629819Y-95875714D02*
X157629819Y-95304286D01*
X157629819Y-95590000D02*
X156629819Y-95590000D01*
X156629819Y-95590000D02*
X156772676Y-95494762D01*
X156772676Y-95494762D02*
X156867914Y-95399524D01*
X156867914Y-95399524D02*
X156915533Y-95304286D01*
X159529819Y-105941905D02*
X158529819Y-105941905D01*
X158529819Y-105941905D02*
X158529819Y-106180000D01*
X158529819Y-106180000D02*
X158577438Y-106322857D01*
X158577438Y-106322857D02*
X158672676Y-106418095D01*
X158672676Y-106418095D02*
X158767914Y-106465714D01*
X158767914Y-106465714D02*
X158958390Y-106513333D01*
X158958390Y-106513333D02*
X159101247Y-106513333D01*
X159101247Y-106513333D02*
X159291723Y-106465714D01*
X159291723Y-106465714D02*
X159386961Y-106418095D01*
X159386961Y-106418095D02*
X159482200Y-106322857D01*
X159482200Y-106322857D02*
X159529819Y-106180000D01*
X159529819Y-106180000D02*
X159529819Y-105941905D01*
X158529819Y-107418095D02*
X158529819Y-106941905D01*
X158529819Y-106941905D02*
X159006009Y-106894286D01*
X159006009Y-106894286D02*
X158958390Y-106941905D01*
X158958390Y-106941905D02*
X158910771Y-107037143D01*
X158910771Y-107037143D02*
X158910771Y-107275238D01*
X158910771Y-107275238D02*
X158958390Y-107370476D01*
X158958390Y-107370476D02*
X159006009Y-107418095D01*
X159006009Y-107418095D02*
X159101247Y-107465714D01*
X159101247Y-107465714D02*
X159339342Y-107465714D01*
X159339342Y-107465714D02*
X159434580Y-107418095D01*
X159434580Y-107418095D02*
X159482200Y-107370476D01*
X159482200Y-107370476D02*
X159529819Y-107275238D01*
X159529819Y-107275238D02*
X159529819Y-107037143D01*
X159529819Y-107037143D02*
X159482200Y-106941905D01*
X159482200Y-106941905D02*
X159434580Y-106894286D01*
X157629819Y-111115714D02*
X157629819Y-110544286D01*
X157629819Y-110830000D02*
X156629819Y-110830000D01*
X156629819Y-110830000D02*
X156772676Y-110734762D01*
X156772676Y-110734762D02*
X156867914Y-110639524D01*
X156867914Y-110639524D02*
X156915533Y-110544286D01*
D11*
X152825000Y-79850000D02*
X152825000Y-72550000D01*
X158325000Y-79850000D02*
X158325000Y-72550000D01*
X152825000Y-72550000D02*
X153975000Y-72550000D01*
X152825000Y-95090000D02*
X152825000Y-87790000D01*
X158325000Y-95090000D02*
X158325000Y-87790000D01*
X152825000Y-87790000D02*
X153975000Y-87790000D01*
X152825000Y-110330000D02*
X152825000Y-103030000D01*
X158325000Y-110330000D02*
X158325000Y-103030000D01*
X152825000Y-103030000D02*
X153975000Y-103030000D01*
M02*
