M48
; DRILL file {KiCad 7.0.7} date Mon Oct  2 17:25:46 2023
; FORMAT={-:-/ absolute / inch / decimal}
; #@! TF.CreationDate,2023-10-02T17:25:46+09:00
; #@! TF.GenerationSoftware,Kicad,Pcbnew,7.0.7
; #@! TF.FileFunction,Plated,1,2,PTH
FMAT,2
INCH
; #@! TA.AperFunction,Plated,PTH,ViaDrill
T1C0.0157
; #@! TA.AperFunction,Plated,PTH,ComponentDrill
T2C0.0197
; #@! TA.AperFunction,Plated,PTH,ComponentDrill
T3C0.0374
; #@! TA.AperFunction,Plated,PTH,ComponentDrill
T4C0.0394
; #@! TA.AperFunction,Plated,PTH,ComponentDrill
T5C0.0866
; #@! TA.AperFunction,Plated,PTH,ComponentDrill
T6C0.1260
%
G90
G05
T1
X2.7Y-5.25
X2.75Y-2.525
X2.875Y-3.55
X2.875Y-3.675
X2.925Y-2.75
X3.0Y-3.425
X3.0Y-4.6
X3.025Y-5.25
X3.05Y-3.875
X3.075Y-2.525
X3.1Y-4.9
X3.2Y-2.35
X3.2Y-2.75
X3.2Y-3.025
X3.225Y-3.55
X3.225Y-3.675
X3.225Y-4.025
X3.3Y-5.6
X3.375Y-3.325
X3.4Y-4.25
X3.425Y-2.525
X3.425Y-2.85
X3.45Y-5.25
X3.475Y-3.7
X3.575Y-4.95
X3.575Y-5.6
X3.6Y-3.525
X3.6Y-4.425
X3.625Y-3.1
X3.625Y-3.85
X3.625Y-4.125
X3.675Y-2.9
X3.8Y-3.1
X3.825Y-3.0
X3.85Y-3.15
X3.875Y-3.45
X3.9Y-2.775
X3.9Y-2.9
X3.9Y-3.6
X3.9Y-4.275
X3.925Y-3.15
X3.975Y-3.05
X3.975Y-4.975
X4.0Y-2.55
X4.025Y-3.45
X4.075Y-2.475
X4.075Y-5.425
X4.1Y-2.75
X4.1Y-3.625
X4.1Y-4.175
X4.1Y-4.45
X4.1Y-5.1
X4.1Y-5.35
X4.15Y-2.45
X4.15Y-5.45
X4.175Y-3.3
X4.2Y-3.575
X4.225Y-2.9
X4.275Y-3.075
X4.275Y-3.95
X4.3Y-2.45
X4.3Y-5.45
X4.325Y-2.55
X4.325Y-3.1
X4.325Y-3.875
X4.35Y-5.4
X4.375Y-3.4
X4.375Y-3.85
X4.4Y-2.5
X4.4Y-3.225
X4.425Y-2.7
X4.425Y-3.8
X4.425Y-5.425
X4.475Y-4.325
X4.5Y-2.675
X4.525Y-2.225
X4.525Y-2.475
X4.525Y-4.3
X4.6Y-2.35
X4.6Y-2.8
X4.675Y-5.525
X4.7Y-2.4
X4.7Y-2.8
X4.7Y-3.925
X4.725Y-5.25
X4.75Y-4.325
X4.75Y-4.75
X4.775Y-2.475
X4.8Y-2.85
X4.8Y-3.35
X4.8Y-3.4
X4.8Y-3.45
X4.825Y-3.65
X4.85Y-4.1
X4.925Y-5.175
X4.95Y-2.375
X4.95Y-5.35
X4.975Y-4.0
X4.975Y-5.4
X4.975Y-5.525
X5.0Y-2.85
X5.0Y-3.25
X5.0Y-3.45
X5.0Y-3.8
X5.0Y-4.625
X5.025Y-5.0
X5.025Y-5.15
X5.075Y-2.55
X5.075Y-4.075
X5.1Y-5.35
X5.125Y-3.05
X5.125Y-4.35
X5.15Y-4.65
X5.15Y-4.925
X5.175Y-5.2
X5.2Y-2.3
X5.275Y-3.95
X5.3Y-3.75
X5.3Y-4.5
X5.3Y-5.0
X5.325Y-4.25
X5.325Y-5.2
X5.325Y-5.425
X5.4Y-2.675
X5.4Y-2.975
X5.4Y-3.325
X5.5Y-4.05
X5.5Y-4.8
X5.525Y-5.0
X5.55Y-5.125
X5.575Y-5.3
X5.675Y-2.425
X5.675Y-2.725
X5.675Y-3.3
X5.725Y-4.425
X5.725Y-4.75
X5.725Y-5.15
X5.75Y-3.3
X5.775Y-3.55
X5.775Y-3.95
X5.925Y-3.0
X5.95Y-3.55
X6.025Y-2.45
X6.025Y-3.225
X6.025Y-4.425
X6.05Y-2.8
X6.05Y-3.35
X6.05Y-3.925
X6.075Y-3.25
X6.125Y-3.575
X6.125Y-4.175
X6.188Y-2.85
X6.225Y-2.45
X6.225Y-4.425
X6.275Y-2.85
X6.275Y-3.125
X6.275Y-3.675
X6.275Y-4.3
T2
X2.6305Y-2.275
X2.6305Y-5.625
X2.6582Y-2.2082
X2.6582Y-2.3418
X2.6582Y-5.5582
X2.6582Y-5.6918
X2.725Y-2.1805
X2.725Y-2.3695
X2.725Y-5.5305
X2.725Y-5.7195
X2.7918Y-2.2082
X2.7918Y-2.3418
X2.7918Y-5.5582
X2.7918Y-5.6918
X2.8195Y-2.275
X2.8195Y-5.625
X5.3305Y-2.275
X5.3305Y-5.625
X5.3582Y-2.2082
X5.3582Y-2.3418
X5.3582Y-5.5582
X5.3582Y-5.6918
X5.425Y-2.1805
X5.425Y-2.3695
X5.425Y-5.5305
X5.425Y-5.7195
X5.4918Y-2.2082
X5.4918Y-2.3418
X5.4918Y-5.5582
X5.4918Y-5.6918
X5.5195Y-2.275
X5.5195Y-5.625
T3
X6.0266Y-2.65
X6.125Y-2.65
X6.2234Y-2.65
T4
X2.75Y-3.5
X2.75Y-3.6
X2.75Y-3.7
X2.75Y-3.8
X2.75Y-3.9
X2.75Y-4.0
X2.75Y-4.1
X2.75Y-4.2
X2.75Y-4.3
X2.75Y-4.4
X3.75Y-3.5
X3.75Y-3.6
X3.75Y-3.7
X3.75Y-3.8
X3.75Y-3.9
X3.75Y-4.0
X3.75Y-4.1
X3.75Y-4.2
X3.75Y-4.3
X3.75Y-4.4
X4.625Y-3.375
X4.625Y-3.475
X4.625Y-3.575
X4.625Y-3.675
X4.625Y-3.775
X4.625Y-3.875
X4.625Y-3.975
X4.625Y-4.075
X4.625Y-4.175
X4.625Y-4.275
X4.625Y-4.375
X4.625Y-4.475
X4.625Y-4.575
X4.625Y-4.675
X4.625Y-4.775
X4.625Y-4.875
X4.625Y-4.975
X4.625Y-5.075
X4.625Y-5.175
X5.625Y-3.375
X5.625Y-3.475
X5.625Y-3.575
X5.625Y-3.675
X5.625Y-3.775
X5.625Y-3.875
X5.625Y-3.975
X5.625Y-4.075
X5.625Y-4.175
X5.625Y-4.275
X5.625Y-4.375
X5.625Y-4.475
X5.625Y-4.575
X5.625Y-4.675
X5.625Y-4.775
X5.625Y-4.875
X5.625Y-4.975
X5.625Y-5.075
X5.625Y-5.175
T5
X4.6776Y-3.1006
X5.6776Y-3.0809
T6
X2.725Y-2.275
X2.725Y-3.0
X2.725Y-4.9
X2.725Y-5.625
X3.775Y-2.5
X3.775Y-5.4
X5.425Y-2.275
X5.425Y-5.625
X6.125Y-2.275
X6.125Y-4.65
T2
G00X4.0549Y-2.2411
M15
G01X4.0549Y-2.2136
M16
G05
G00X4.0549Y-2.3907
M15
G01X4.0549Y-2.3632
M16
G05
G00X4.0549Y-5.5093
M15
G01X4.0549Y-5.5368
M16
G05
G00X4.0549Y-5.6589
M15
G01X4.0549Y-5.6864
M16
G05
G00X4.3951Y-2.2411
M15
G01X4.3951Y-2.2136
M16
G05
G00X4.3951Y-2.3907
M15
G01X4.3951Y-2.3632
M16
G05
G00X4.3951Y-5.5093
M15
G01X4.3951Y-5.5368
M16
G05
G00X4.3951Y-5.6589
M15
G01X4.3951Y-5.6864
M16
G05
T0
M30
