G04 #@! TF.GenerationSoftware,KiCad,Pcbnew,(5.1.5)-3*
G04 #@! TF.CreationDate,2021-11-03T13:02:22+09:00*
G04 #@! TF.ProjectId,control_boad_2021-2,636f6e74-726f-46c5-9f62-6f61645f3230,rev?*
G04 #@! TF.SameCoordinates,Original*
G04 #@! TF.FileFunction,Profile,NP*
%FSLAX46Y46*%
G04 Gerber Fmt 4.6, Leading zero omitted, Abs format (unit mm)*
G04 Created by KiCad (PCBNEW (5.1.5)-3) date 2021-11-03 13:02:22*
%MOMM*%
%LPD*%
G04 APERTURE LIST*
%ADD10C,0.050000*%
G04 APERTURE END LIST*
D10*
X147320000Y-107315000D02*
X147320000Y-142875000D01*
X149860000Y-118110000D02*
X149860000Y-107315000D01*
X147320000Y-107315000D02*
G75*
G02X149860000Y-107315000I1270000J0D01*
G01*
X149860000Y-69850000D02*
G75*
G02X147320000Y-69850000I-1270000J0D01*
G01*
X153670000Y-53975000D02*
X157480000Y-53975000D01*
X153670000Y-121920000D02*
X157480000Y-121920000D01*
X161290000Y-118110000D02*
G75*
G02X157480000Y-121920000I-3810000J0D01*
G01*
X153670000Y-121920000D02*
G75*
G02X149860000Y-118110000I0J3810000D01*
G01*
X157480000Y-53975000D02*
G75*
G02X161290000Y-57785000I0J-3810000D01*
G01*
X149860000Y-57785000D02*
G75*
G02X153670000Y-53975000I3810000J0D01*
G01*
X161290000Y-57785000D02*
X161290000Y-118110000D01*
X149860000Y-57785000D02*
X149860000Y-69850000D01*
X147320000Y-57785000D02*
X147320000Y-69850000D01*
X143510000Y-53975000D02*
G75*
G02X147320000Y-57785000I0J-3810000D01*
G01*
X147320000Y-142875000D02*
G75*
G02X143510000Y-146685000I-3810000J0D01*
G01*
X143510000Y-146685000D02*
X69215000Y-146685000D01*
X69215000Y-53975000D02*
X143510000Y-53975000D01*
X69215000Y-146685000D02*
G75*
G02X65405000Y-142875000I0J3810000D01*
G01*
X65405000Y-57785000D02*
G75*
G02X69215000Y-53975000I3810000J0D01*
G01*
X65405000Y-57785000D02*
X65405000Y-142875000D01*
M02*
