G04 #@! TF.GenerationSoftware,KiCad,Pcbnew,(5.1.5)-3*
G04 #@! TF.CreationDate,2021-11-03T13:02:22+09:00*
G04 #@! TF.ProjectId,control_boad_2021-2,636f6e74-726f-46c5-9f62-6f61645f3230,rev?*
G04 #@! TF.SameCoordinates,Original*
G04 #@! TF.FileFunction,Paste,Top*
G04 #@! TF.FilePolarity,Positive*
%FSLAX46Y46*%
G04 Gerber Fmt 4.6, Leading zero omitted, Abs format (unit mm)*
G04 Created by KiCad (PCBNEW (5.1.5)-3) date 2021-11-03 13:02:22*
%MOMM*%
%LPD*%
G04 APERTURE LIST*
%ADD10R,0.900000X4.500000*%
%ADD11C,0.100000*%
G04 APERTURE END LIST*
D10*
X109250000Y-63050000D03*
X106650000Y-63050000D03*
D11*
G36*
X111419603Y-70910963D02*
G01*
X111439018Y-70913843D01*
X111458057Y-70918612D01*
X111476537Y-70925224D01*
X111494279Y-70933616D01*
X111511114Y-70943706D01*
X111526879Y-70955398D01*
X111541421Y-70968579D01*
X111554602Y-70983121D01*
X111566294Y-70998886D01*
X111576384Y-71015721D01*
X111584776Y-71033463D01*
X111591388Y-71051943D01*
X111596157Y-71070982D01*
X111599037Y-71090397D01*
X111600000Y-71110000D01*
X111600000Y-71510000D01*
X111599037Y-71529603D01*
X111596157Y-71549018D01*
X111591388Y-71568057D01*
X111584776Y-71586537D01*
X111576384Y-71604279D01*
X111566294Y-71621114D01*
X111554602Y-71636879D01*
X111541421Y-71651421D01*
X111526879Y-71664602D01*
X111511114Y-71676294D01*
X111494279Y-71686384D01*
X111476537Y-71694776D01*
X111458057Y-71701388D01*
X111439018Y-71706157D01*
X111419603Y-71709037D01*
X111400000Y-71710000D01*
X110850000Y-71710000D01*
X110830397Y-71709037D01*
X110810982Y-71706157D01*
X110791943Y-71701388D01*
X110773463Y-71694776D01*
X110755721Y-71686384D01*
X110738886Y-71676294D01*
X110723121Y-71664602D01*
X110708579Y-71651421D01*
X110695398Y-71636879D01*
X110683706Y-71621114D01*
X110673616Y-71604279D01*
X110665224Y-71586537D01*
X110658612Y-71568057D01*
X110653843Y-71549018D01*
X110650963Y-71529603D01*
X110650000Y-71510000D01*
X110650000Y-71110000D01*
X110650963Y-71090397D01*
X110653843Y-71070982D01*
X110658612Y-71051943D01*
X110665224Y-71033463D01*
X110673616Y-71015721D01*
X110683706Y-70998886D01*
X110695398Y-70983121D01*
X110708579Y-70968579D01*
X110723121Y-70955398D01*
X110738886Y-70943706D01*
X110755721Y-70933616D01*
X110773463Y-70925224D01*
X110791943Y-70918612D01*
X110810982Y-70913843D01*
X110830397Y-70910963D01*
X110850000Y-70910000D01*
X111400000Y-70910000D01*
X111419603Y-70910963D01*
G37*
G36*
X111419603Y-69260963D02*
G01*
X111439018Y-69263843D01*
X111458057Y-69268612D01*
X111476537Y-69275224D01*
X111494279Y-69283616D01*
X111511114Y-69293706D01*
X111526879Y-69305398D01*
X111541421Y-69318579D01*
X111554602Y-69333121D01*
X111566294Y-69348886D01*
X111576384Y-69365721D01*
X111584776Y-69383463D01*
X111591388Y-69401943D01*
X111596157Y-69420982D01*
X111599037Y-69440397D01*
X111600000Y-69460000D01*
X111600000Y-69860000D01*
X111599037Y-69879603D01*
X111596157Y-69899018D01*
X111591388Y-69918057D01*
X111584776Y-69936537D01*
X111576384Y-69954279D01*
X111566294Y-69971114D01*
X111554602Y-69986879D01*
X111541421Y-70001421D01*
X111526879Y-70014602D01*
X111511114Y-70026294D01*
X111494279Y-70036384D01*
X111476537Y-70044776D01*
X111458057Y-70051388D01*
X111439018Y-70056157D01*
X111419603Y-70059037D01*
X111400000Y-70060000D01*
X110850000Y-70060000D01*
X110830397Y-70059037D01*
X110810982Y-70056157D01*
X110791943Y-70051388D01*
X110773463Y-70044776D01*
X110755721Y-70036384D01*
X110738886Y-70026294D01*
X110723121Y-70014602D01*
X110708579Y-70001421D01*
X110695398Y-69986879D01*
X110683706Y-69971114D01*
X110673616Y-69954279D01*
X110665224Y-69936537D01*
X110658612Y-69918057D01*
X110653843Y-69899018D01*
X110650963Y-69879603D01*
X110650000Y-69860000D01*
X110650000Y-69460000D01*
X110650963Y-69440397D01*
X110653843Y-69420982D01*
X110658612Y-69401943D01*
X110665224Y-69383463D01*
X110673616Y-69365721D01*
X110683706Y-69348886D01*
X110695398Y-69333121D01*
X110708579Y-69318579D01*
X110723121Y-69305398D01*
X110738886Y-69293706D01*
X110755721Y-69283616D01*
X110773463Y-69275224D01*
X110791943Y-69268612D01*
X110810982Y-69263843D01*
X110830397Y-69260963D01*
X110850000Y-69260000D01*
X111400000Y-69260000D01*
X111419603Y-69260963D01*
G37*
G36*
X108244603Y-70910963D02*
G01*
X108264018Y-70913843D01*
X108283057Y-70918612D01*
X108301537Y-70925224D01*
X108319279Y-70933616D01*
X108336114Y-70943706D01*
X108351879Y-70955398D01*
X108366421Y-70968579D01*
X108379602Y-70983121D01*
X108391294Y-70998886D01*
X108401384Y-71015721D01*
X108409776Y-71033463D01*
X108416388Y-71051943D01*
X108421157Y-71070982D01*
X108424037Y-71090397D01*
X108425000Y-71110000D01*
X108425000Y-71510000D01*
X108424037Y-71529603D01*
X108421157Y-71549018D01*
X108416388Y-71568057D01*
X108409776Y-71586537D01*
X108401384Y-71604279D01*
X108391294Y-71621114D01*
X108379602Y-71636879D01*
X108366421Y-71651421D01*
X108351879Y-71664602D01*
X108336114Y-71676294D01*
X108319279Y-71686384D01*
X108301537Y-71694776D01*
X108283057Y-71701388D01*
X108264018Y-71706157D01*
X108244603Y-71709037D01*
X108225000Y-71710000D01*
X107675000Y-71710000D01*
X107655397Y-71709037D01*
X107635982Y-71706157D01*
X107616943Y-71701388D01*
X107598463Y-71694776D01*
X107580721Y-71686384D01*
X107563886Y-71676294D01*
X107548121Y-71664602D01*
X107533579Y-71651421D01*
X107520398Y-71636879D01*
X107508706Y-71621114D01*
X107498616Y-71604279D01*
X107490224Y-71586537D01*
X107483612Y-71568057D01*
X107478843Y-71549018D01*
X107475963Y-71529603D01*
X107475000Y-71510000D01*
X107475000Y-71110000D01*
X107475963Y-71090397D01*
X107478843Y-71070982D01*
X107483612Y-71051943D01*
X107490224Y-71033463D01*
X107498616Y-71015721D01*
X107508706Y-70998886D01*
X107520398Y-70983121D01*
X107533579Y-70968579D01*
X107548121Y-70955398D01*
X107563886Y-70943706D01*
X107580721Y-70933616D01*
X107598463Y-70925224D01*
X107616943Y-70918612D01*
X107635982Y-70913843D01*
X107655397Y-70910963D01*
X107675000Y-70910000D01*
X108225000Y-70910000D01*
X108244603Y-70910963D01*
G37*
G36*
X108244603Y-69260963D02*
G01*
X108264018Y-69263843D01*
X108283057Y-69268612D01*
X108301537Y-69275224D01*
X108319279Y-69283616D01*
X108336114Y-69293706D01*
X108351879Y-69305398D01*
X108366421Y-69318579D01*
X108379602Y-69333121D01*
X108391294Y-69348886D01*
X108401384Y-69365721D01*
X108409776Y-69383463D01*
X108416388Y-69401943D01*
X108421157Y-69420982D01*
X108424037Y-69440397D01*
X108425000Y-69460000D01*
X108425000Y-69860000D01*
X108424037Y-69879603D01*
X108421157Y-69899018D01*
X108416388Y-69918057D01*
X108409776Y-69936537D01*
X108401384Y-69954279D01*
X108391294Y-69971114D01*
X108379602Y-69986879D01*
X108366421Y-70001421D01*
X108351879Y-70014602D01*
X108336114Y-70026294D01*
X108319279Y-70036384D01*
X108301537Y-70044776D01*
X108283057Y-70051388D01*
X108264018Y-70056157D01*
X108244603Y-70059037D01*
X108225000Y-70060000D01*
X107675000Y-70060000D01*
X107655397Y-70059037D01*
X107635982Y-70056157D01*
X107616943Y-70051388D01*
X107598463Y-70044776D01*
X107580721Y-70036384D01*
X107563886Y-70026294D01*
X107548121Y-70014602D01*
X107533579Y-70001421D01*
X107520398Y-69986879D01*
X107508706Y-69971114D01*
X107498616Y-69954279D01*
X107490224Y-69936537D01*
X107483612Y-69918057D01*
X107478843Y-69899018D01*
X107475963Y-69879603D01*
X107475000Y-69860000D01*
X107475000Y-69460000D01*
X107475963Y-69440397D01*
X107478843Y-69420982D01*
X107483612Y-69401943D01*
X107490224Y-69383463D01*
X107498616Y-69365721D01*
X107508706Y-69348886D01*
X107520398Y-69333121D01*
X107533579Y-69318579D01*
X107548121Y-69305398D01*
X107563886Y-69293706D01*
X107580721Y-69283616D01*
X107598463Y-69275224D01*
X107616943Y-69268612D01*
X107635982Y-69263843D01*
X107655397Y-69260963D01*
X107675000Y-69260000D01*
X108225000Y-69260000D01*
X108244603Y-69260963D01*
G37*
G36*
X127087691Y-57311053D02*
G01*
X127108926Y-57314203D01*
X127129750Y-57319419D01*
X127149962Y-57326651D01*
X127169368Y-57335830D01*
X127187781Y-57346866D01*
X127205024Y-57359654D01*
X127220930Y-57374070D01*
X127235346Y-57389976D01*
X127248134Y-57407219D01*
X127259170Y-57425632D01*
X127268349Y-57445038D01*
X127275581Y-57465250D01*
X127280797Y-57486074D01*
X127283947Y-57507309D01*
X127285000Y-57528750D01*
X127285000Y-58041250D01*
X127283947Y-58062691D01*
X127280797Y-58083926D01*
X127275581Y-58104750D01*
X127268349Y-58124962D01*
X127259170Y-58144368D01*
X127248134Y-58162781D01*
X127235346Y-58180024D01*
X127220930Y-58195930D01*
X127205024Y-58210346D01*
X127187781Y-58223134D01*
X127169368Y-58234170D01*
X127149962Y-58243349D01*
X127129750Y-58250581D01*
X127108926Y-58255797D01*
X127087691Y-58258947D01*
X127066250Y-58260000D01*
X126628750Y-58260000D01*
X126607309Y-58258947D01*
X126586074Y-58255797D01*
X126565250Y-58250581D01*
X126545038Y-58243349D01*
X126525632Y-58234170D01*
X126507219Y-58223134D01*
X126489976Y-58210346D01*
X126474070Y-58195930D01*
X126459654Y-58180024D01*
X126446866Y-58162781D01*
X126435830Y-58144368D01*
X126426651Y-58124962D01*
X126419419Y-58104750D01*
X126414203Y-58083926D01*
X126411053Y-58062691D01*
X126410000Y-58041250D01*
X126410000Y-57528750D01*
X126411053Y-57507309D01*
X126414203Y-57486074D01*
X126419419Y-57465250D01*
X126426651Y-57445038D01*
X126435830Y-57425632D01*
X126446866Y-57407219D01*
X126459654Y-57389976D01*
X126474070Y-57374070D01*
X126489976Y-57359654D01*
X126507219Y-57346866D01*
X126525632Y-57335830D01*
X126545038Y-57326651D01*
X126565250Y-57319419D01*
X126586074Y-57314203D01*
X126607309Y-57311053D01*
X126628750Y-57310000D01*
X127066250Y-57310000D01*
X127087691Y-57311053D01*
G37*
G36*
X128662691Y-57311053D02*
G01*
X128683926Y-57314203D01*
X128704750Y-57319419D01*
X128724962Y-57326651D01*
X128744368Y-57335830D01*
X128762781Y-57346866D01*
X128780024Y-57359654D01*
X128795930Y-57374070D01*
X128810346Y-57389976D01*
X128823134Y-57407219D01*
X128834170Y-57425632D01*
X128843349Y-57445038D01*
X128850581Y-57465250D01*
X128855797Y-57486074D01*
X128858947Y-57507309D01*
X128860000Y-57528750D01*
X128860000Y-58041250D01*
X128858947Y-58062691D01*
X128855797Y-58083926D01*
X128850581Y-58104750D01*
X128843349Y-58124962D01*
X128834170Y-58144368D01*
X128823134Y-58162781D01*
X128810346Y-58180024D01*
X128795930Y-58195930D01*
X128780024Y-58210346D01*
X128762781Y-58223134D01*
X128744368Y-58234170D01*
X128724962Y-58243349D01*
X128704750Y-58250581D01*
X128683926Y-58255797D01*
X128662691Y-58258947D01*
X128641250Y-58260000D01*
X128203750Y-58260000D01*
X128182309Y-58258947D01*
X128161074Y-58255797D01*
X128140250Y-58250581D01*
X128120038Y-58243349D01*
X128100632Y-58234170D01*
X128082219Y-58223134D01*
X128064976Y-58210346D01*
X128049070Y-58195930D01*
X128034654Y-58180024D01*
X128021866Y-58162781D01*
X128010830Y-58144368D01*
X128001651Y-58124962D01*
X127994419Y-58104750D01*
X127989203Y-58083926D01*
X127986053Y-58062691D01*
X127985000Y-58041250D01*
X127985000Y-57528750D01*
X127986053Y-57507309D01*
X127989203Y-57486074D01*
X127994419Y-57465250D01*
X128001651Y-57445038D01*
X128010830Y-57425632D01*
X128021866Y-57407219D01*
X128034654Y-57389976D01*
X128049070Y-57374070D01*
X128064976Y-57359654D01*
X128082219Y-57346866D01*
X128100632Y-57335830D01*
X128120038Y-57326651D01*
X128140250Y-57319419D01*
X128161074Y-57314203D01*
X128182309Y-57311053D01*
X128203750Y-57310000D01*
X128641250Y-57310000D01*
X128662691Y-57311053D01*
G37*
G36*
X118197691Y-57311053D02*
G01*
X118218926Y-57314203D01*
X118239750Y-57319419D01*
X118259962Y-57326651D01*
X118279368Y-57335830D01*
X118297781Y-57346866D01*
X118315024Y-57359654D01*
X118330930Y-57374070D01*
X118345346Y-57389976D01*
X118358134Y-57407219D01*
X118369170Y-57425632D01*
X118378349Y-57445038D01*
X118385581Y-57465250D01*
X118390797Y-57486074D01*
X118393947Y-57507309D01*
X118395000Y-57528750D01*
X118395000Y-58041250D01*
X118393947Y-58062691D01*
X118390797Y-58083926D01*
X118385581Y-58104750D01*
X118378349Y-58124962D01*
X118369170Y-58144368D01*
X118358134Y-58162781D01*
X118345346Y-58180024D01*
X118330930Y-58195930D01*
X118315024Y-58210346D01*
X118297781Y-58223134D01*
X118279368Y-58234170D01*
X118259962Y-58243349D01*
X118239750Y-58250581D01*
X118218926Y-58255797D01*
X118197691Y-58258947D01*
X118176250Y-58260000D01*
X117738750Y-58260000D01*
X117717309Y-58258947D01*
X117696074Y-58255797D01*
X117675250Y-58250581D01*
X117655038Y-58243349D01*
X117635632Y-58234170D01*
X117617219Y-58223134D01*
X117599976Y-58210346D01*
X117584070Y-58195930D01*
X117569654Y-58180024D01*
X117556866Y-58162781D01*
X117545830Y-58144368D01*
X117536651Y-58124962D01*
X117529419Y-58104750D01*
X117524203Y-58083926D01*
X117521053Y-58062691D01*
X117520000Y-58041250D01*
X117520000Y-57528750D01*
X117521053Y-57507309D01*
X117524203Y-57486074D01*
X117529419Y-57465250D01*
X117536651Y-57445038D01*
X117545830Y-57425632D01*
X117556866Y-57407219D01*
X117569654Y-57389976D01*
X117584070Y-57374070D01*
X117599976Y-57359654D01*
X117617219Y-57346866D01*
X117635632Y-57335830D01*
X117655038Y-57326651D01*
X117675250Y-57319419D01*
X117696074Y-57314203D01*
X117717309Y-57311053D01*
X117738750Y-57310000D01*
X118176250Y-57310000D01*
X118197691Y-57311053D01*
G37*
G36*
X119772691Y-57311053D02*
G01*
X119793926Y-57314203D01*
X119814750Y-57319419D01*
X119834962Y-57326651D01*
X119854368Y-57335830D01*
X119872781Y-57346866D01*
X119890024Y-57359654D01*
X119905930Y-57374070D01*
X119920346Y-57389976D01*
X119933134Y-57407219D01*
X119944170Y-57425632D01*
X119953349Y-57445038D01*
X119960581Y-57465250D01*
X119965797Y-57486074D01*
X119968947Y-57507309D01*
X119970000Y-57528750D01*
X119970000Y-58041250D01*
X119968947Y-58062691D01*
X119965797Y-58083926D01*
X119960581Y-58104750D01*
X119953349Y-58124962D01*
X119944170Y-58144368D01*
X119933134Y-58162781D01*
X119920346Y-58180024D01*
X119905930Y-58195930D01*
X119890024Y-58210346D01*
X119872781Y-58223134D01*
X119854368Y-58234170D01*
X119834962Y-58243349D01*
X119814750Y-58250581D01*
X119793926Y-58255797D01*
X119772691Y-58258947D01*
X119751250Y-58260000D01*
X119313750Y-58260000D01*
X119292309Y-58258947D01*
X119271074Y-58255797D01*
X119250250Y-58250581D01*
X119230038Y-58243349D01*
X119210632Y-58234170D01*
X119192219Y-58223134D01*
X119174976Y-58210346D01*
X119159070Y-58195930D01*
X119144654Y-58180024D01*
X119131866Y-58162781D01*
X119120830Y-58144368D01*
X119111651Y-58124962D01*
X119104419Y-58104750D01*
X119099203Y-58083926D01*
X119096053Y-58062691D01*
X119095000Y-58041250D01*
X119095000Y-57528750D01*
X119096053Y-57507309D01*
X119099203Y-57486074D01*
X119104419Y-57465250D01*
X119111651Y-57445038D01*
X119120830Y-57425632D01*
X119131866Y-57407219D01*
X119144654Y-57389976D01*
X119159070Y-57374070D01*
X119174976Y-57359654D01*
X119192219Y-57346866D01*
X119210632Y-57335830D01*
X119230038Y-57326651D01*
X119250250Y-57319419D01*
X119271074Y-57314203D01*
X119292309Y-57311053D01*
X119313750Y-57310000D01*
X119751250Y-57310000D01*
X119772691Y-57311053D01*
G37*
G36*
X117900980Y-69855048D02*
G01*
X117901951Y-69855192D01*
X117902903Y-69855431D01*
X117903827Y-69855761D01*
X117904714Y-69856181D01*
X117905556Y-69856685D01*
X117906344Y-69857270D01*
X117907071Y-69857929D01*
X117907730Y-69858656D01*
X117908315Y-69859444D01*
X117908819Y-69860286D01*
X117909239Y-69861173D01*
X117909569Y-69862097D01*
X117909808Y-69863049D01*
X117909952Y-69864020D01*
X117910000Y-69865000D01*
X117910000Y-70245000D01*
X117909952Y-70245980D01*
X117909808Y-70246951D01*
X117909569Y-70247903D01*
X117909239Y-70248827D01*
X117908819Y-70249714D01*
X117908315Y-70250556D01*
X117907730Y-70251344D01*
X117907071Y-70252071D01*
X117906344Y-70252730D01*
X117905556Y-70253315D01*
X117904714Y-70253819D01*
X117903827Y-70254239D01*
X117902903Y-70254569D01*
X117901951Y-70254808D01*
X117900980Y-70254952D01*
X117900000Y-70255000D01*
X116820000Y-70255000D01*
X116819020Y-70254952D01*
X116818049Y-70254808D01*
X116817097Y-70254569D01*
X116816173Y-70254239D01*
X116815286Y-70253819D01*
X116814444Y-70253315D01*
X116813656Y-70252730D01*
X116812929Y-70252071D01*
X116812270Y-70251344D01*
X116811685Y-70250556D01*
X116811181Y-70249714D01*
X116810761Y-70248827D01*
X116810431Y-70247903D01*
X116810192Y-70246951D01*
X116810048Y-70245980D01*
X116810000Y-70245000D01*
X116810000Y-69865000D01*
X116810048Y-69864020D01*
X116810192Y-69863049D01*
X116810431Y-69862097D01*
X116810761Y-69861173D01*
X116811181Y-69860286D01*
X116811685Y-69859444D01*
X116812270Y-69858656D01*
X116812929Y-69857929D01*
X116813656Y-69857270D01*
X116814444Y-69856685D01*
X116815286Y-69856181D01*
X116816173Y-69855761D01*
X116817097Y-69855431D01*
X116818049Y-69855192D01*
X116819020Y-69855048D01*
X116820000Y-69855000D01*
X117900000Y-69855000D01*
X117900980Y-69855048D01*
G37*
G36*
X117903235Y-69355036D02*
G01*
X117903963Y-69355144D01*
X117904677Y-69355323D01*
X117905370Y-69355571D01*
X117906035Y-69355886D01*
X117906667Y-69356264D01*
X117907258Y-69356702D01*
X117907803Y-69357197D01*
X117908298Y-69357742D01*
X117908736Y-69358333D01*
X117909114Y-69358965D01*
X117909429Y-69359630D01*
X117909677Y-69360323D01*
X117909856Y-69361037D01*
X117909964Y-69361765D01*
X117910000Y-69362500D01*
X117910000Y-69647500D01*
X117909964Y-69648235D01*
X117909856Y-69648963D01*
X117909677Y-69649677D01*
X117909429Y-69650370D01*
X117909114Y-69651035D01*
X117908736Y-69651667D01*
X117908298Y-69652258D01*
X117907803Y-69652803D01*
X117907258Y-69653298D01*
X117906667Y-69653736D01*
X117906035Y-69654114D01*
X117905370Y-69654429D01*
X117904677Y-69654677D01*
X117903963Y-69654856D01*
X117903235Y-69654964D01*
X117902500Y-69655000D01*
X116817500Y-69655000D01*
X116816765Y-69654964D01*
X116816037Y-69654856D01*
X116815323Y-69654677D01*
X116814630Y-69654429D01*
X116813965Y-69654114D01*
X116813333Y-69653736D01*
X116812742Y-69653298D01*
X116812197Y-69652803D01*
X116811702Y-69652258D01*
X116811264Y-69651667D01*
X116810886Y-69651035D01*
X116810571Y-69650370D01*
X116810323Y-69649677D01*
X116810144Y-69648963D01*
X116810036Y-69648235D01*
X116810000Y-69647500D01*
X116810000Y-69362500D01*
X116810036Y-69361765D01*
X116810144Y-69361037D01*
X116810323Y-69360323D01*
X116810571Y-69359630D01*
X116810886Y-69358965D01*
X116811264Y-69358333D01*
X116811702Y-69357742D01*
X116812197Y-69357197D01*
X116812742Y-69356702D01*
X116813333Y-69356264D01*
X116813965Y-69355886D01*
X116814630Y-69355571D01*
X116815323Y-69355323D01*
X116816037Y-69355144D01*
X116816765Y-69355036D01*
X116817500Y-69355000D01*
X117902500Y-69355000D01*
X117903235Y-69355036D01*
G37*
G36*
X117903235Y-68855036D02*
G01*
X117903963Y-68855144D01*
X117904677Y-68855323D01*
X117905370Y-68855571D01*
X117906035Y-68855886D01*
X117906667Y-68856264D01*
X117907258Y-68856702D01*
X117907803Y-68857197D01*
X117908298Y-68857742D01*
X117908736Y-68858333D01*
X117909114Y-68858965D01*
X117909429Y-68859630D01*
X117909677Y-68860323D01*
X117909856Y-68861037D01*
X117909964Y-68861765D01*
X117910000Y-68862500D01*
X117910000Y-69147500D01*
X117909964Y-69148235D01*
X117909856Y-69148963D01*
X117909677Y-69149677D01*
X117909429Y-69150370D01*
X117909114Y-69151035D01*
X117908736Y-69151667D01*
X117908298Y-69152258D01*
X117907803Y-69152803D01*
X117907258Y-69153298D01*
X117906667Y-69153736D01*
X117906035Y-69154114D01*
X117905370Y-69154429D01*
X117904677Y-69154677D01*
X117903963Y-69154856D01*
X117903235Y-69154964D01*
X117902500Y-69155000D01*
X116817500Y-69155000D01*
X116816765Y-69154964D01*
X116816037Y-69154856D01*
X116815323Y-69154677D01*
X116814630Y-69154429D01*
X116813965Y-69154114D01*
X116813333Y-69153736D01*
X116812742Y-69153298D01*
X116812197Y-69152803D01*
X116811702Y-69152258D01*
X116811264Y-69151667D01*
X116810886Y-69151035D01*
X116810571Y-69150370D01*
X116810323Y-69149677D01*
X116810144Y-69148963D01*
X116810036Y-69148235D01*
X116810000Y-69147500D01*
X116810000Y-68862500D01*
X116810036Y-68861765D01*
X116810144Y-68861037D01*
X116810323Y-68860323D01*
X116810571Y-68859630D01*
X116810886Y-68858965D01*
X116811264Y-68858333D01*
X116811702Y-68857742D01*
X116812197Y-68857197D01*
X116812742Y-68856702D01*
X116813333Y-68856264D01*
X116813965Y-68855886D01*
X116814630Y-68855571D01*
X116815323Y-68855323D01*
X116816037Y-68855144D01*
X116816765Y-68855036D01*
X116817500Y-68855000D01*
X117902500Y-68855000D01*
X117903235Y-68855036D01*
G37*
G36*
X117903235Y-68355036D02*
G01*
X117903963Y-68355144D01*
X117904677Y-68355323D01*
X117905370Y-68355571D01*
X117906035Y-68355886D01*
X117906667Y-68356264D01*
X117907258Y-68356702D01*
X117907803Y-68357197D01*
X117908298Y-68357742D01*
X117908736Y-68358333D01*
X117909114Y-68358965D01*
X117909429Y-68359630D01*
X117909677Y-68360323D01*
X117909856Y-68361037D01*
X117909964Y-68361765D01*
X117910000Y-68362500D01*
X117910000Y-68647500D01*
X117909964Y-68648235D01*
X117909856Y-68648963D01*
X117909677Y-68649677D01*
X117909429Y-68650370D01*
X117909114Y-68651035D01*
X117908736Y-68651667D01*
X117908298Y-68652258D01*
X117907803Y-68652803D01*
X117907258Y-68653298D01*
X117906667Y-68653736D01*
X117906035Y-68654114D01*
X117905370Y-68654429D01*
X117904677Y-68654677D01*
X117903963Y-68654856D01*
X117903235Y-68654964D01*
X117902500Y-68655000D01*
X116817500Y-68655000D01*
X116816765Y-68654964D01*
X116816037Y-68654856D01*
X116815323Y-68654677D01*
X116814630Y-68654429D01*
X116813965Y-68654114D01*
X116813333Y-68653736D01*
X116812742Y-68653298D01*
X116812197Y-68652803D01*
X116811702Y-68652258D01*
X116811264Y-68651667D01*
X116810886Y-68651035D01*
X116810571Y-68650370D01*
X116810323Y-68649677D01*
X116810144Y-68648963D01*
X116810036Y-68648235D01*
X116810000Y-68647500D01*
X116810000Y-68362500D01*
X116810036Y-68361765D01*
X116810144Y-68361037D01*
X116810323Y-68360323D01*
X116810571Y-68359630D01*
X116810886Y-68358965D01*
X116811264Y-68358333D01*
X116811702Y-68357742D01*
X116812197Y-68357197D01*
X116812742Y-68356702D01*
X116813333Y-68356264D01*
X116813965Y-68355886D01*
X116814630Y-68355571D01*
X116815323Y-68355323D01*
X116816037Y-68355144D01*
X116816765Y-68355036D01*
X116817500Y-68355000D01*
X117902500Y-68355000D01*
X117903235Y-68355036D01*
G37*
G36*
X117903235Y-67855036D02*
G01*
X117903963Y-67855144D01*
X117904677Y-67855323D01*
X117905370Y-67855571D01*
X117906035Y-67855886D01*
X117906667Y-67856264D01*
X117907258Y-67856702D01*
X117907803Y-67857197D01*
X117908298Y-67857742D01*
X117908736Y-67858333D01*
X117909114Y-67858965D01*
X117909429Y-67859630D01*
X117909677Y-67860323D01*
X117909856Y-67861037D01*
X117909964Y-67861765D01*
X117910000Y-67862500D01*
X117910000Y-68147500D01*
X117909964Y-68148235D01*
X117909856Y-68148963D01*
X117909677Y-68149677D01*
X117909429Y-68150370D01*
X117909114Y-68151035D01*
X117908736Y-68151667D01*
X117908298Y-68152258D01*
X117907803Y-68152803D01*
X117907258Y-68153298D01*
X117906667Y-68153736D01*
X117906035Y-68154114D01*
X117905370Y-68154429D01*
X117904677Y-68154677D01*
X117903963Y-68154856D01*
X117903235Y-68154964D01*
X117902500Y-68155000D01*
X116817500Y-68155000D01*
X116816765Y-68154964D01*
X116816037Y-68154856D01*
X116815323Y-68154677D01*
X116814630Y-68154429D01*
X116813965Y-68154114D01*
X116813333Y-68153736D01*
X116812742Y-68153298D01*
X116812197Y-68152803D01*
X116811702Y-68152258D01*
X116811264Y-68151667D01*
X116810886Y-68151035D01*
X116810571Y-68150370D01*
X116810323Y-68149677D01*
X116810144Y-68148963D01*
X116810036Y-68148235D01*
X116810000Y-68147500D01*
X116810000Y-67862500D01*
X116810036Y-67861765D01*
X116810144Y-67861037D01*
X116810323Y-67860323D01*
X116810571Y-67859630D01*
X116810886Y-67858965D01*
X116811264Y-67858333D01*
X116811702Y-67857742D01*
X116812197Y-67857197D01*
X116812742Y-67856702D01*
X116813333Y-67856264D01*
X116813965Y-67855886D01*
X116814630Y-67855571D01*
X116815323Y-67855323D01*
X116816037Y-67855144D01*
X116816765Y-67855036D01*
X116817500Y-67855000D01*
X117902500Y-67855000D01*
X117903235Y-67855036D01*
G37*
G36*
X117903235Y-65855036D02*
G01*
X117903963Y-65855144D01*
X117904677Y-65855323D01*
X117905370Y-65855571D01*
X117906035Y-65855886D01*
X117906667Y-65856264D01*
X117907258Y-65856702D01*
X117907803Y-65857197D01*
X117908298Y-65857742D01*
X117908736Y-65858333D01*
X117909114Y-65858965D01*
X117909429Y-65859630D01*
X117909677Y-65860323D01*
X117909856Y-65861037D01*
X117909964Y-65861765D01*
X117910000Y-65862500D01*
X117910000Y-66147500D01*
X117909964Y-66148235D01*
X117909856Y-66148963D01*
X117909677Y-66149677D01*
X117909429Y-66150370D01*
X117909114Y-66151035D01*
X117908736Y-66151667D01*
X117908298Y-66152258D01*
X117907803Y-66152803D01*
X117907258Y-66153298D01*
X117906667Y-66153736D01*
X117906035Y-66154114D01*
X117905370Y-66154429D01*
X117904677Y-66154677D01*
X117903963Y-66154856D01*
X117903235Y-66154964D01*
X117902500Y-66155000D01*
X116817500Y-66155000D01*
X116816765Y-66154964D01*
X116816037Y-66154856D01*
X116815323Y-66154677D01*
X116814630Y-66154429D01*
X116813965Y-66154114D01*
X116813333Y-66153736D01*
X116812742Y-66153298D01*
X116812197Y-66152803D01*
X116811702Y-66152258D01*
X116811264Y-66151667D01*
X116810886Y-66151035D01*
X116810571Y-66150370D01*
X116810323Y-66149677D01*
X116810144Y-66148963D01*
X116810036Y-66148235D01*
X116810000Y-66147500D01*
X116810000Y-65862500D01*
X116810036Y-65861765D01*
X116810144Y-65861037D01*
X116810323Y-65860323D01*
X116810571Y-65859630D01*
X116810886Y-65858965D01*
X116811264Y-65858333D01*
X116811702Y-65857742D01*
X116812197Y-65857197D01*
X116812742Y-65856702D01*
X116813333Y-65856264D01*
X116813965Y-65855886D01*
X116814630Y-65855571D01*
X116815323Y-65855323D01*
X116816037Y-65855144D01*
X116816765Y-65855036D01*
X116817500Y-65855000D01*
X117902500Y-65855000D01*
X117903235Y-65855036D01*
G37*
G36*
X117903235Y-66355036D02*
G01*
X117903963Y-66355144D01*
X117904677Y-66355323D01*
X117905370Y-66355571D01*
X117906035Y-66355886D01*
X117906667Y-66356264D01*
X117907258Y-66356702D01*
X117907803Y-66357197D01*
X117908298Y-66357742D01*
X117908736Y-66358333D01*
X117909114Y-66358965D01*
X117909429Y-66359630D01*
X117909677Y-66360323D01*
X117909856Y-66361037D01*
X117909964Y-66361765D01*
X117910000Y-66362500D01*
X117910000Y-66647500D01*
X117909964Y-66648235D01*
X117909856Y-66648963D01*
X117909677Y-66649677D01*
X117909429Y-66650370D01*
X117909114Y-66651035D01*
X117908736Y-66651667D01*
X117908298Y-66652258D01*
X117907803Y-66652803D01*
X117907258Y-66653298D01*
X117906667Y-66653736D01*
X117906035Y-66654114D01*
X117905370Y-66654429D01*
X117904677Y-66654677D01*
X117903963Y-66654856D01*
X117903235Y-66654964D01*
X117902500Y-66655000D01*
X116817500Y-66655000D01*
X116816765Y-66654964D01*
X116816037Y-66654856D01*
X116815323Y-66654677D01*
X116814630Y-66654429D01*
X116813965Y-66654114D01*
X116813333Y-66653736D01*
X116812742Y-66653298D01*
X116812197Y-66652803D01*
X116811702Y-66652258D01*
X116811264Y-66651667D01*
X116810886Y-66651035D01*
X116810571Y-66650370D01*
X116810323Y-66649677D01*
X116810144Y-66648963D01*
X116810036Y-66648235D01*
X116810000Y-66647500D01*
X116810000Y-66362500D01*
X116810036Y-66361765D01*
X116810144Y-66361037D01*
X116810323Y-66360323D01*
X116810571Y-66359630D01*
X116810886Y-66358965D01*
X116811264Y-66358333D01*
X116811702Y-66357742D01*
X116812197Y-66357197D01*
X116812742Y-66356702D01*
X116813333Y-66356264D01*
X116813965Y-66355886D01*
X116814630Y-66355571D01*
X116815323Y-66355323D01*
X116816037Y-66355144D01*
X116816765Y-66355036D01*
X116817500Y-66355000D01*
X117902500Y-66355000D01*
X117903235Y-66355036D01*
G37*
G36*
X121803235Y-69355036D02*
G01*
X121803963Y-69355144D01*
X121804677Y-69355323D01*
X121805370Y-69355571D01*
X121806035Y-69355886D01*
X121806667Y-69356264D01*
X121807258Y-69356702D01*
X121807803Y-69357197D01*
X121808298Y-69357742D01*
X121808736Y-69358333D01*
X121809114Y-69358965D01*
X121809429Y-69359630D01*
X121809677Y-69360323D01*
X121809856Y-69361037D01*
X121809964Y-69361765D01*
X121810000Y-69362500D01*
X121810000Y-69647500D01*
X121809964Y-69648235D01*
X121809856Y-69648963D01*
X121809677Y-69649677D01*
X121809429Y-69650370D01*
X121809114Y-69651035D01*
X121808736Y-69651667D01*
X121808298Y-69652258D01*
X121807803Y-69652803D01*
X121807258Y-69653298D01*
X121806667Y-69653736D01*
X121806035Y-69654114D01*
X121805370Y-69654429D01*
X121804677Y-69654677D01*
X121803963Y-69654856D01*
X121803235Y-69654964D01*
X121802500Y-69655000D01*
X120717500Y-69655000D01*
X120716765Y-69654964D01*
X120716037Y-69654856D01*
X120715323Y-69654677D01*
X120714630Y-69654429D01*
X120713965Y-69654114D01*
X120713333Y-69653736D01*
X120712742Y-69653298D01*
X120712197Y-69652803D01*
X120711702Y-69652258D01*
X120711264Y-69651667D01*
X120710886Y-69651035D01*
X120710571Y-69650370D01*
X120710323Y-69649677D01*
X120710144Y-69648963D01*
X120710036Y-69648235D01*
X120710000Y-69647500D01*
X120710000Y-69362500D01*
X120710036Y-69361765D01*
X120710144Y-69361037D01*
X120710323Y-69360323D01*
X120710571Y-69359630D01*
X120710886Y-69358965D01*
X120711264Y-69358333D01*
X120711702Y-69357742D01*
X120712197Y-69357197D01*
X120712742Y-69356702D01*
X120713333Y-69356264D01*
X120713965Y-69355886D01*
X120714630Y-69355571D01*
X120715323Y-69355323D01*
X120716037Y-69355144D01*
X120716765Y-69355036D01*
X120717500Y-69355000D01*
X121802500Y-69355000D01*
X121803235Y-69355036D01*
G37*
G36*
X121803235Y-66355036D02*
G01*
X121803963Y-66355144D01*
X121804677Y-66355323D01*
X121805370Y-66355571D01*
X121806035Y-66355886D01*
X121806667Y-66356264D01*
X121807258Y-66356702D01*
X121807803Y-66357197D01*
X121808298Y-66357742D01*
X121808736Y-66358333D01*
X121809114Y-66358965D01*
X121809429Y-66359630D01*
X121809677Y-66360323D01*
X121809856Y-66361037D01*
X121809964Y-66361765D01*
X121810000Y-66362500D01*
X121810000Y-66647500D01*
X121809964Y-66648235D01*
X121809856Y-66648963D01*
X121809677Y-66649677D01*
X121809429Y-66650370D01*
X121809114Y-66651035D01*
X121808736Y-66651667D01*
X121808298Y-66652258D01*
X121807803Y-66652803D01*
X121807258Y-66653298D01*
X121806667Y-66653736D01*
X121806035Y-66654114D01*
X121805370Y-66654429D01*
X121804677Y-66654677D01*
X121803963Y-66654856D01*
X121803235Y-66654964D01*
X121802500Y-66655000D01*
X120717500Y-66655000D01*
X120716765Y-66654964D01*
X120716037Y-66654856D01*
X120715323Y-66654677D01*
X120714630Y-66654429D01*
X120713965Y-66654114D01*
X120713333Y-66653736D01*
X120712742Y-66653298D01*
X120712197Y-66652803D01*
X120711702Y-66652258D01*
X120711264Y-66651667D01*
X120710886Y-66651035D01*
X120710571Y-66650370D01*
X120710323Y-66649677D01*
X120710144Y-66648963D01*
X120710036Y-66648235D01*
X120710000Y-66647500D01*
X120710000Y-66362500D01*
X120710036Y-66361765D01*
X120710144Y-66361037D01*
X120710323Y-66360323D01*
X120710571Y-66359630D01*
X120710886Y-66358965D01*
X120711264Y-66358333D01*
X120711702Y-66357742D01*
X120712197Y-66357197D01*
X120712742Y-66356702D01*
X120713333Y-66356264D01*
X120713965Y-66355886D01*
X120714630Y-66355571D01*
X120715323Y-66355323D01*
X120716037Y-66355144D01*
X120716765Y-66355036D01*
X120717500Y-66355000D01*
X121802500Y-66355000D01*
X121803235Y-66355036D01*
G37*
G36*
X121803235Y-67355036D02*
G01*
X121803963Y-67355144D01*
X121804677Y-67355323D01*
X121805370Y-67355571D01*
X121806035Y-67355886D01*
X121806667Y-67356264D01*
X121807258Y-67356702D01*
X121807803Y-67357197D01*
X121808298Y-67357742D01*
X121808736Y-67358333D01*
X121809114Y-67358965D01*
X121809429Y-67359630D01*
X121809677Y-67360323D01*
X121809856Y-67361037D01*
X121809964Y-67361765D01*
X121810000Y-67362500D01*
X121810000Y-67647500D01*
X121809964Y-67648235D01*
X121809856Y-67648963D01*
X121809677Y-67649677D01*
X121809429Y-67650370D01*
X121809114Y-67651035D01*
X121808736Y-67651667D01*
X121808298Y-67652258D01*
X121807803Y-67652803D01*
X121807258Y-67653298D01*
X121806667Y-67653736D01*
X121806035Y-67654114D01*
X121805370Y-67654429D01*
X121804677Y-67654677D01*
X121803963Y-67654856D01*
X121803235Y-67654964D01*
X121802500Y-67655000D01*
X120717500Y-67655000D01*
X120716765Y-67654964D01*
X120716037Y-67654856D01*
X120715323Y-67654677D01*
X120714630Y-67654429D01*
X120713965Y-67654114D01*
X120713333Y-67653736D01*
X120712742Y-67653298D01*
X120712197Y-67652803D01*
X120711702Y-67652258D01*
X120711264Y-67651667D01*
X120710886Y-67651035D01*
X120710571Y-67650370D01*
X120710323Y-67649677D01*
X120710144Y-67648963D01*
X120710036Y-67648235D01*
X120710000Y-67647500D01*
X120710000Y-67362500D01*
X120710036Y-67361765D01*
X120710144Y-67361037D01*
X120710323Y-67360323D01*
X120710571Y-67359630D01*
X120710886Y-67358965D01*
X120711264Y-67358333D01*
X120711702Y-67357742D01*
X120712197Y-67357197D01*
X120712742Y-67356702D01*
X120713333Y-67356264D01*
X120713965Y-67355886D01*
X120714630Y-67355571D01*
X120715323Y-67355323D01*
X120716037Y-67355144D01*
X120716765Y-67355036D01*
X120717500Y-67355000D01*
X121802500Y-67355000D01*
X121803235Y-67355036D01*
G37*
G36*
X121803235Y-68355036D02*
G01*
X121803963Y-68355144D01*
X121804677Y-68355323D01*
X121805370Y-68355571D01*
X121806035Y-68355886D01*
X121806667Y-68356264D01*
X121807258Y-68356702D01*
X121807803Y-68357197D01*
X121808298Y-68357742D01*
X121808736Y-68358333D01*
X121809114Y-68358965D01*
X121809429Y-68359630D01*
X121809677Y-68360323D01*
X121809856Y-68361037D01*
X121809964Y-68361765D01*
X121810000Y-68362500D01*
X121810000Y-68647500D01*
X121809964Y-68648235D01*
X121809856Y-68648963D01*
X121809677Y-68649677D01*
X121809429Y-68650370D01*
X121809114Y-68651035D01*
X121808736Y-68651667D01*
X121808298Y-68652258D01*
X121807803Y-68652803D01*
X121807258Y-68653298D01*
X121806667Y-68653736D01*
X121806035Y-68654114D01*
X121805370Y-68654429D01*
X121804677Y-68654677D01*
X121803963Y-68654856D01*
X121803235Y-68654964D01*
X121802500Y-68655000D01*
X120717500Y-68655000D01*
X120716765Y-68654964D01*
X120716037Y-68654856D01*
X120715323Y-68654677D01*
X120714630Y-68654429D01*
X120713965Y-68654114D01*
X120713333Y-68653736D01*
X120712742Y-68653298D01*
X120712197Y-68652803D01*
X120711702Y-68652258D01*
X120711264Y-68651667D01*
X120710886Y-68651035D01*
X120710571Y-68650370D01*
X120710323Y-68649677D01*
X120710144Y-68648963D01*
X120710036Y-68648235D01*
X120710000Y-68647500D01*
X120710000Y-68362500D01*
X120710036Y-68361765D01*
X120710144Y-68361037D01*
X120710323Y-68360323D01*
X120710571Y-68359630D01*
X120710886Y-68358965D01*
X120711264Y-68358333D01*
X120711702Y-68357742D01*
X120712197Y-68357197D01*
X120712742Y-68356702D01*
X120713333Y-68356264D01*
X120713965Y-68355886D01*
X120714630Y-68355571D01*
X120715323Y-68355323D01*
X120716037Y-68355144D01*
X120716765Y-68355036D01*
X120717500Y-68355000D01*
X121802500Y-68355000D01*
X121803235Y-68355036D01*
G37*
G36*
X117903235Y-67355036D02*
G01*
X117903963Y-67355144D01*
X117904677Y-67355323D01*
X117905370Y-67355571D01*
X117906035Y-67355886D01*
X117906667Y-67356264D01*
X117907258Y-67356702D01*
X117907803Y-67357197D01*
X117908298Y-67357742D01*
X117908736Y-67358333D01*
X117909114Y-67358965D01*
X117909429Y-67359630D01*
X117909677Y-67360323D01*
X117909856Y-67361037D01*
X117909964Y-67361765D01*
X117910000Y-67362500D01*
X117910000Y-67647500D01*
X117909964Y-67648235D01*
X117909856Y-67648963D01*
X117909677Y-67649677D01*
X117909429Y-67650370D01*
X117909114Y-67651035D01*
X117908736Y-67651667D01*
X117908298Y-67652258D01*
X117907803Y-67652803D01*
X117907258Y-67653298D01*
X117906667Y-67653736D01*
X117906035Y-67654114D01*
X117905370Y-67654429D01*
X117904677Y-67654677D01*
X117903963Y-67654856D01*
X117903235Y-67654964D01*
X117902500Y-67655000D01*
X116817500Y-67655000D01*
X116816765Y-67654964D01*
X116816037Y-67654856D01*
X116815323Y-67654677D01*
X116814630Y-67654429D01*
X116813965Y-67654114D01*
X116813333Y-67653736D01*
X116812742Y-67653298D01*
X116812197Y-67652803D01*
X116811702Y-67652258D01*
X116811264Y-67651667D01*
X116810886Y-67651035D01*
X116810571Y-67650370D01*
X116810323Y-67649677D01*
X116810144Y-67648963D01*
X116810036Y-67648235D01*
X116810000Y-67647500D01*
X116810000Y-67362500D01*
X116810036Y-67361765D01*
X116810144Y-67361037D01*
X116810323Y-67360323D01*
X116810571Y-67359630D01*
X116810886Y-67358965D01*
X116811264Y-67358333D01*
X116811702Y-67357742D01*
X116812197Y-67357197D01*
X116812742Y-67356702D01*
X116813333Y-67356264D01*
X116813965Y-67355886D01*
X116814630Y-67355571D01*
X116815323Y-67355323D01*
X116816037Y-67355144D01*
X116816765Y-67355036D01*
X116817500Y-67355000D01*
X117902500Y-67355000D01*
X117903235Y-67355036D01*
G37*
G36*
X117900980Y-65255048D02*
G01*
X117901951Y-65255192D01*
X117902903Y-65255431D01*
X117903827Y-65255761D01*
X117904714Y-65256181D01*
X117905556Y-65256685D01*
X117906344Y-65257270D01*
X117907071Y-65257929D01*
X117907730Y-65258656D01*
X117908315Y-65259444D01*
X117908819Y-65260286D01*
X117909239Y-65261173D01*
X117909569Y-65262097D01*
X117909808Y-65263049D01*
X117909952Y-65264020D01*
X117910000Y-65265000D01*
X117910000Y-65645000D01*
X117909952Y-65645980D01*
X117909808Y-65646951D01*
X117909569Y-65647903D01*
X117909239Y-65648827D01*
X117908819Y-65649714D01*
X117908315Y-65650556D01*
X117907730Y-65651344D01*
X117907071Y-65652071D01*
X117906344Y-65652730D01*
X117905556Y-65653315D01*
X117904714Y-65653819D01*
X117903827Y-65654239D01*
X117902903Y-65654569D01*
X117901951Y-65654808D01*
X117900980Y-65654952D01*
X117900000Y-65655000D01*
X116820000Y-65655000D01*
X116819020Y-65654952D01*
X116818049Y-65654808D01*
X116817097Y-65654569D01*
X116816173Y-65654239D01*
X116815286Y-65653819D01*
X116814444Y-65653315D01*
X116813656Y-65652730D01*
X116812929Y-65652071D01*
X116812270Y-65651344D01*
X116811685Y-65650556D01*
X116811181Y-65649714D01*
X116810761Y-65648827D01*
X116810431Y-65647903D01*
X116810192Y-65646951D01*
X116810048Y-65645980D01*
X116810000Y-65645000D01*
X116810000Y-65265000D01*
X116810048Y-65264020D01*
X116810192Y-65263049D01*
X116810431Y-65262097D01*
X116810761Y-65261173D01*
X116811181Y-65260286D01*
X116811685Y-65259444D01*
X116812270Y-65258656D01*
X116812929Y-65257929D01*
X116813656Y-65257270D01*
X116814444Y-65256685D01*
X116815286Y-65256181D01*
X116816173Y-65255761D01*
X116817097Y-65255431D01*
X116818049Y-65255192D01*
X116819020Y-65255048D01*
X116820000Y-65255000D01*
X117900000Y-65255000D01*
X117900980Y-65255048D01*
G37*
G36*
X121800980Y-69855048D02*
G01*
X121801951Y-69855192D01*
X121802903Y-69855431D01*
X121803827Y-69855761D01*
X121804714Y-69856181D01*
X121805556Y-69856685D01*
X121806344Y-69857270D01*
X121807071Y-69857929D01*
X121807730Y-69858656D01*
X121808315Y-69859444D01*
X121808819Y-69860286D01*
X121809239Y-69861173D01*
X121809569Y-69862097D01*
X121809808Y-69863049D01*
X121809952Y-69864020D01*
X121810000Y-69865000D01*
X121810000Y-70245000D01*
X121809952Y-70245980D01*
X121809808Y-70246951D01*
X121809569Y-70247903D01*
X121809239Y-70248827D01*
X121808819Y-70249714D01*
X121808315Y-70250556D01*
X121807730Y-70251344D01*
X121807071Y-70252071D01*
X121806344Y-70252730D01*
X121805556Y-70253315D01*
X121804714Y-70253819D01*
X121803827Y-70254239D01*
X121802903Y-70254569D01*
X121801951Y-70254808D01*
X121800980Y-70254952D01*
X121800000Y-70255000D01*
X120720000Y-70255000D01*
X120719020Y-70254952D01*
X120718049Y-70254808D01*
X120717097Y-70254569D01*
X120716173Y-70254239D01*
X120715286Y-70253819D01*
X120714444Y-70253315D01*
X120713656Y-70252730D01*
X120712929Y-70252071D01*
X120712270Y-70251344D01*
X120711685Y-70250556D01*
X120711181Y-70249714D01*
X120710761Y-70248827D01*
X120710431Y-70247903D01*
X120710192Y-70246951D01*
X120710048Y-70245980D01*
X120710000Y-70245000D01*
X120710000Y-69865000D01*
X120710048Y-69864020D01*
X120710192Y-69863049D01*
X120710431Y-69862097D01*
X120710761Y-69861173D01*
X120711181Y-69860286D01*
X120711685Y-69859444D01*
X120712270Y-69858656D01*
X120712929Y-69857929D01*
X120713656Y-69857270D01*
X120714444Y-69856685D01*
X120715286Y-69856181D01*
X120716173Y-69855761D01*
X120717097Y-69855431D01*
X120718049Y-69855192D01*
X120719020Y-69855048D01*
X120720000Y-69855000D01*
X121800000Y-69855000D01*
X121800980Y-69855048D01*
G37*
G36*
X121803235Y-66855036D02*
G01*
X121803963Y-66855144D01*
X121804677Y-66855323D01*
X121805370Y-66855571D01*
X121806035Y-66855886D01*
X121806667Y-66856264D01*
X121807258Y-66856702D01*
X121807803Y-66857197D01*
X121808298Y-66857742D01*
X121808736Y-66858333D01*
X121809114Y-66858965D01*
X121809429Y-66859630D01*
X121809677Y-66860323D01*
X121809856Y-66861037D01*
X121809964Y-66861765D01*
X121810000Y-66862500D01*
X121810000Y-67147500D01*
X121809964Y-67148235D01*
X121809856Y-67148963D01*
X121809677Y-67149677D01*
X121809429Y-67150370D01*
X121809114Y-67151035D01*
X121808736Y-67151667D01*
X121808298Y-67152258D01*
X121807803Y-67152803D01*
X121807258Y-67153298D01*
X121806667Y-67153736D01*
X121806035Y-67154114D01*
X121805370Y-67154429D01*
X121804677Y-67154677D01*
X121803963Y-67154856D01*
X121803235Y-67154964D01*
X121802500Y-67155000D01*
X120717500Y-67155000D01*
X120716765Y-67154964D01*
X120716037Y-67154856D01*
X120715323Y-67154677D01*
X120714630Y-67154429D01*
X120713965Y-67154114D01*
X120713333Y-67153736D01*
X120712742Y-67153298D01*
X120712197Y-67152803D01*
X120711702Y-67152258D01*
X120711264Y-67151667D01*
X120710886Y-67151035D01*
X120710571Y-67150370D01*
X120710323Y-67149677D01*
X120710144Y-67148963D01*
X120710036Y-67148235D01*
X120710000Y-67147500D01*
X120710000Y-66862500D01*
X120710036Y-66861765D01*
X120710144Y-66861037D01*
X120710323Y-66860323D01*
X120710571Y-66859630D01*
X120710886Y-66858965D01*
X120711264Y-66858333D01*
X120711702Y-66857742D01*
X120712197Y-66857197D01*
X120712742Y-66856702D01*
X120713333Y-66856264D01*
X120713965Y-66855886D01*
X120714630Y-66855571D01*
X120715323Y-66855323D01*
X120716037Y-66855144D01*
X120716765Y-66855036D01*
X120717500Y-66855000D01*
X121802500Y-66855000D01*
X121803235Y-66855036D01*
G37*
G36*
X117903235Y-66855036D02*
G01*
X117903963Y-66855144D01*
X117904677Y-66855323D01*
X117905370Y-66855571D01*
X117906035Y-66855886D01*
X117906667Y-66856264D01*
X117907258Y-66856702D01*
X117907803Y-66857197D01*
X117908298Y-66857742D01*
X117908736Y-66858333D01*
X117909114Y-66858965D01*
X117909429Y-66859630D01*
X117909677Y-66860323D01*
X117909856Y-66861037D01*
X117909964Y-66861765D01*
X117910000Y-66862500D01*
X117910000Y-67147500D01*
X117909964Y-67148235D01*
X117909856Y-67148963D01*
X117909677Y-67149677D01*
X117909429Y-67150370D01*
X117909114Y-67151035D01*
X117908736Y-67151667D01*
X117908298Y-67152258D01*
X117907803Y-67152803D01*
X117907258Y-67153298D01*
X117906667Y-67153736D01*
X117906035Y-67154114D01*
X117905370Y-67154429D01*
X117904677Y-67154677D01*
X117903963Y-67154856D01*
X117903235Y-67154964D01*
X117902500Y-67155000D01*
X116817500Y-67155000D01*
X116816765Y-67154964D01*
X116816037Y-67154856D01*
X116815323Y-67154677D01*
X116814630Y-67154429D01*
X116813965Y-67154114D01*
X116813333Y-67153736D01*
X116812742Y-67153298D01*
X116812197Y-67152803D01*
X116811702Y-67152258D01*
X116811264Y-67151667D01*
X116810886Y-67151035D01*
X116810571Y-67150370D01*
X116810323Y-67149677D01*
X116810144Y-67148963D01*
X116810036Y-67148235D01*
X116810000Y-67147500D01*
X116810000Y-66862500D01*
X116810036Y-66861765D01*
X116810144Y-66861037D01*
X116810323Y-66860323D01*
X116810571Y-66859630D01*
X116810886Y-66858965D01*
X116811264Y-66858333D01*
X116811702Y-66857742D01*
X116812197Y-66857197D01*
X116812742Y-66856702D01*
X116813333Y-66856264D01*
X116813965Y-66855886D01*
X116814630Y-66855571D01*
X116815323Y-66855323D01*
X116816037Y-66855144D01*
X116816765Y-66855036D01*
X116817500Y-66855000D01*
X117902500Y-66855000D01*
X117903235Y-66855036D01*
G37*
G36*
X121803235Y-68855036D02*
G01*
X121803963Y-68855144D01*
X121804677Y-68855323D01*
X121805370Y-68855571D01*
X121806035Y-68855886D01*
X121806667Y-68856264D01*
X121807258Y-68856702D01*
X121807803Y-68857197D01*
X121808298Y-68857742D01*
X121808736Y-68858333D01*
X121809114Y-68858965D01*
X121809429Y-68859630D01*
X121809677Y-68860323D01*
X121809856Y-68861037D01*
X121809964Y-68861765D01*
X121810000Y-68862500D01*
X121810000Y-69147500D01*
X121809964Y-69148235D01*
X121809856Y-69148963D01*
X121809677Y-69149677D01*
X121809429Y-69150370D01*
X121809114Y-69151035D01*
X121808736Y-69151667D01*
X121808298Y-69152258D01*
X121807803Y-69152803D01*
X121807258Y-69153298D01*
X121806667Y-69153736D01*
X121806035Y-69154114D01*
X121805370Y-69154429D01*
X121804677Y-69154677D01*
X121803963Y-69154856D01*
X121803235Y-69154964D01*
X121802500Y-69155000D01*
X120717500Y-69155000D01*
X120716765Y-69154964D01*
X120716037Y-69154856D01*
X120715323Y-69154677D01*
X120714630Y-69154429D01*
X120713965Y-69154114D01*
X120713333Y-69153736D01*
X120712742Y-69153298D01*
X120712197Y-69152803D01*
X120711702Y-69152258D01*
X120711264Y-69151667D01*
X120710886Y-69151035D01*
X120710571Y-69150370D01*
X120710323Y-69149677D01*
X120710144Y-69148963D01*
X120710036Y-69148235D01*
X120710000Y-69147500D01*
X120710000Y-68862500D01*
X120710036Y-68861765D01*
X120710144Y-68861037D01*
X120710323Y-68860323D01*
X120710571Y-68859630D01*
X120710886Y-68858965D01*
X120711264Y-68858333D01*
X120711702Y-68857742D01*
X120712197Y-68857197D01*
X120712742Y-68856702D01*
X120713333Y-68856264D01*
X120713965Y-68855886D01*
X120714630Y-68855571D01*
X120715323Y-68855323D01*
X120716037Y-68855144D01*
X120716765Y-68855036D01*
X120717500Y-68855000D01*
X121802500Y-68855000D01*
X121803235Y-68855036D01*
G37*
G36*
X121803235Y-65855036D02*
G01*
X121803963Y-65855144D01*
X121804677Y-65855323D01*
X121805370Y-65855571D01*
X121806035Y-65855886D01*
X121806667Y-65856264D01*
X121807258Y-65856702D01*
X121807803Y-65857197D01*
X121808298Y-65857742D01*
X121808736Y-65858333D01*
X121809114Y-65858965D01*
X121809429Y-65859630D01*
X121809677Y-65860323D01*
X121809856Y-65861037D01*
X121809964Y-65861765D01*
X121810000Y-65862500D01*
X121810000Y-66147500D01*
X121809964Y-66148235D01*
X121809856Y-66148963D01*
X121809677Y-66149677D01*
X121809429Y-66150370D01*
X121809114Y-66151035D01*
X121808736Y-66151667D01*
X121808298Y-66152258D01*
X121807803Y-66152803D01*
X121807258Y-66153298D01*
X121806667Y-66153736D01*
X121806035Y-66154114D01*
X121805370Y-66154429D01*
X121804677Y-66154677D01*
X121803963Y-66154856D01*
X121803235Y-66154964D01*
X121802500Y-66155000D01*
X120717500Y-66155000D01*
X120716765Y-66154964D01*
X120716037Y-66154856D01*
X120715323Y-66154677D01*
X120714630Y-66154429D01*
X120713965Y-66154114D01*
X120713333Y-66153736D01*
X120712742Y-66153298D01*
X120712197Y-66152803D01*
X120711702Y-66152258D01*
X120711264Y-66151667D01*
X120710886Y-66151035D01*
X120710571Y-66150370D01*
X120710323Y-66149677D01*
X120710144Y-66148963D01*
X120710036Y-66148235D01*
X120710000Y-66147500D01*
X120710000Y-65862500D01*
X120710036Y-65861765D01*
X120710144Y-65861037D01*
X120710323Y-65860323D01*
X120710571Y-65859630D01*
X120710886Y-65858965D01*
X120711264Y-65858333D01*
X120711702Y-65857742D01*
X120712197Y-65857197D01*
X120712742Y-65856702D01*
X120713333Y-65856264D01*
X120713965Y-65855886D01*
X120714630Y-65855571D01*
X120715323Y-65855323D01*
X120716037Y-65855144D01*
X120716765Y-65855036D01*
X120717500Y-65855000D01*
X121802500Y-65855000D01*
X121803235Y-65855036D01*
G37*
G36*
X121803235Y-67855036D02*
G01*
X121803963Y-67855144D01*
X121804677Y-67855323D01*
X121805370Y-67855571D01*
X121806035Y-67855886D01*
X121806667Y-67856264D01*
X121807258Y-67856702D01*
X121807803Y-67857197D01*
X121808298Y-67857742D01*
X121808736Y-67858333D01*
X121809114Y-67858965D01*
X121809429Y-67859630D01*
X121809677Y-67860323D01*
X121809856Y-67861037D01*
X121809964Y-67861765D01*
X121810000Y-67862500D01*
X121810000Y-68147500D01*
X121809964Y-68148235D01*
X121809856Y-68148963D01*
X121809677Y-68149677D01*
X121809429Y-68150370D01*
X121809114Y-68151035D01*
X121808736Y-68151667D01*
X121808298Y-68152258D01*
X121807803Y-68152803D01*
X121807258Y-68153298D01*
X121806667Y-68153736D01*
X121806035Y-68154114D01*
X121805370Y-68154429D01*
X121804677Y-68154677D01*
X121803963Y-68154856D01*
X121803235Y-68154964D01*
X121802500Y-68155000D01*
X120717500Y-68155000D01*
X120716765Y-68154964D01*
X120716037Y-68154856D01*
X120715323Y-68154677D01*
X120714630Y-68154429D01*
X120713965Y-68154114D01*
X120713333Y-68153736D01*
X120712742Y-68153298D01*
X120712197Y-68152803D01*
X120711702Y-68152258D01*
X120711264Y-68151667D01*
X120710886Y-68151035D01*
X120710571Y-68150370D01*
X120710323Y-68149677D01*
X120710144Y-68148963D01*
X120710036Y-68148235D01*
X120710000Y-68147500D01*
X120710000Y-67862500D01*
X120710036Y-67861765D01*
X120710144Y-67861037D01*
X120710323Y-67860323D01*
X120710571Y-67859630D01*
X120710886Y-67858965D01*
X120711264Y-67858333D01*
X120711702Y-67857742D01*
X120712197Y-67857197D01*
X120712742Y-67856702D01*
X120713333Y-67856264D01*
X120713965Y-67855886D01*
X120714630Y-67855571D01*
X120715323Y-67855323D01*
X120716037Y-67855144D01*
X120716765Y-67855036D01*
X120717500Y-67855000D01*
X121802500Y-67855000D01*
X121803235Y-67855036D01*
G37*
G36*
X121800980Y-65255048D02*
G01*
X121801951Y-65255192D01*
X121802903Y-65255431D01*
X121803827Y-65255761D01*
X121804714Y-65256181D01*
X121805556Y-65256685D01*
X121806344Y-65257270D01*
X121807071Y-65257929D01*
X121807730Y-65258656D01*
X121808315Y-65259444D01*
X121808819Y-65260286D01*
X121809239Y-65261173D01*
X121809569Y-65262097D01*
X121809808Y-65263049D01*
X121809952Y-65264020D01*
X121810000Y-65265000D01*
X121810000Y-65645000D01*
X121809952Y-65645980D01*
X121809808Y-65646951D01*
X121809569Y-65647903D01*
X121809239Y-65648827D01*
X121808819Y-65649714D01*
X121808315Y-65650556D01*
X121807730Y-65651344D01*
X121807071Y-65652071D01*
X121806344Y-65652730D01*
X121805556Y-65653315D01*
X121804714Y-65653819D01*
X121803827Y-65654239D01*
X121802903Y-65654569D01*
X121801951Y-65654808D01*
X121800980Y-65654952D01*
X121800000Y-65655000D01*
X120720000Y-65655000D01*
X120719020Y-65654952D01*
X120718049Y-65654808D01*
X120717097Y-65654569D01*
X120716173Y-65654239D01*
X120715286Y-65653819D01*
X120714444Y-65653315D01*
X120713656Y-65652730D01*
X120712929Y-65652071D01*
X120712270Y-65651344D01*
X120711685Y-65650556D01*
X120711181Y-65649714D01*
X120710761Y-65648827D01*
X120710431Y-65647903D01*
X120710192Y-65646951D01*
X120710048Y-65645980D01*
X120710000Y-65645000D01*
X120710000Y-65265000D01*
X120710048Y-65264020D01*
X120710192Y-65263049D01*
X120710431Y-65262097D01*
X120710761Y-65261173D01*
X120711181Y-65260286D01*
X120711685Y-65259444D01*
X120712270Y-65258656D01*
X120712929Y-65257929D01*
X120713656Y-65257270D01*
X120714444Y-65256685D01*
X120715286Y-65256181D01*
X120716173Y-65255761D01*
X120717097Y-65255431D01*
X120718049Y-65255192D01*
X120719020Y-65255048D01*
X120720000Y-65255000D01*
X121800000Y-65255000D01*
X121800980Y-65255048D01*
G37*
D10*
X106650000Y-137610000D03*
X109250000Y-137610000D03*
M02*
