G04 #@! TF.GenerationSoftware,KiCad,Pcbnew,(5.1.5)-3*
G04 #@! TF.CreationDate,2021-11-03T13:02:22+09:00*
G04 #@! TF.ProjectId,control_boad_2021-2,636f6e74-726f-46c5-9f62-6f61645f3230,rev?*
G04 #@! TF.SameCoordinates,Original*
G04 #@! TF.FileFunction,Soldermask,Bot*
G04 #@! TF.FilePolarity,Negative*
%FSLAX46Y46*%
G04 Gerber Fmt 4.6, Leading zero omitted, Abs format (unit mm)*
G04 Created by KiCad (PCBNEW (5.1.5)-3) date 2021-11-03 13:02:22*
%MOMM*%
%LPD*%
G04 APERTURE LIST*
%ADD10C,0.100000*%
G04 APERTURE END LIST*
D10*
G36*
X69842950Y-139685216D02*
G01*
X70163282Y-139748934D01*
X70754926Y-139994001D01*
X71287392Y-140349784D01*
X71740216Y-140802608D01*
X72095999Y-141335074D01*
X72341066Y-141926718D01*
X72341066Y-141926719D01*
X72466000Y-142554803D01*
X72466000Y-143195197D01*
X72403533Y-143509239D01*
X72341066Y-143823282D01*
X72095999Y-144414926D01*
X71740216Y-144947392D01*
X71287392Y-145400216D01*
X70754926Y-145755999D01*
X70163282Y-146001066D01*
X69849239Y-146063533D01*
X69535197Y-146126000D01*
X68894803Y-146126000D01*
X68580761Y-146063533D01*
X68266718Y-146001066D01*
X67675074Y-145755999D01*
X67142608Y-145400216D01*
X66689784Y-144947392D01*
X66334001Y-144414926D01*
X66088934Y-143823282D01*
X66026467Y-143509239D01*
X65964000Y-143195197D01*
X65964000Y-142554803D01*
X66088934Y-141926719D01*
X66088934Y-141926718D01*
X66334001Y-141335074D01*
X66689784Y-140802608D01*
X67142608Y-140349784D01*
X67675074Y-139994001D01*
X68266718Y-139748934D01*
X68587050Y-139685216D01*
X68894803Y-139624000D01*
X69535197Y-139624000D01*
X69842950Y-139685216D01*
G37*
G36*
X138422950Y-139685216D02*
G01*
X138743282Y-139748934D01*
X139334926Y-139994001D01*
X139867392Y-140349784D01*
X140320216Y-140802608D01*
X140675999Y-141335074D01*
X140921066Y-141926718D01*
X140921066Y-141926719D01*
X141046000Y-142554803D01*
X141046000Y-143195197D01*
X140983533Y-143509239D01*
X140921066Y-143823282D01*
X140675999Y-144414926D01*
X140320216Y-144947392D01*
X139867392Y-145400216D01*
X139334926Y-145755999D01*
X138743282Y-146001066D01*
X138429239Y-146063533D01*
X138115197Y-146126000D01*
X137474803Y-146126000D01*
X137160761Y-146063533D01*
X136846718Y-146001066D01*
X136255074Y-145755999D01*
X135722608Y-145400216D01*
X135269784Y-144947392D01*
X134914001Y-144414926D01*
X134668934Y-143823282D01*
X134606467Y-143509239D01*
X134544000Y-143195197D01*
X134544000Y-142554803D01*
X134668934Y-141926719D01*
X134668934Y-141926718D01*
X134914001Y-141335074D01*
X135269784Y-140802608D01*
X135722608Y-140349784D01*
X136255074Y-139994001D01*
X136846718Y-139748934D01*
X137167050Y-139685216D01*
X137474803Y-139624000D01*
X138115197Y-139624000D01*
X138422950Y-139685216D01*
G37*
G36*
X111617818Y-142667696D02*
G01*
X111731105Y-142702062D01*
X111835512Y-142757869D01*
X111927027Y-142832973D01*
X112002131Y-142924488D01*
X112057938Y-143028895D01*
X112092304Y-143142182D01*
X112101000Y-143230481D01*
X112101000Y-143789519D01*
X112092304Y-143877818D01*
X112057938Y-143991105D01*
X112002131Y-144095512D01*
X112002130Y-144095513D01*
X111927027Y-144187027D01*
X111851923Y-144248662D01*
X111835511Y-144262131D01*
X111731104Y-144317938D01*
X111617817Y-144352304D01*
X111500000Y-144363907D01*
X111382182Y-144352304D01*
X111268895Y-144317938D01*
X111164488Y-144262131D01*
X111115274Y-144221742D01*
X111072973Y-144187027D01*
X110997870Y-144095512D01*
X110997869Y-144095511D01*
X110942062Y-143991104D01*
X110907696Y-143877817D01*
X110899000Y-143789518D01*
X110899000Y-143230481D01*
X110907696Y-143142182D01*
X110942062Y-143028895D01*
X110997869Y-142924488D01*
X111072974Y-142832973D01*
X111164489Y-142757869D01*
X111268896Y-142702062D01*
X111382183Y-142667696D01*
X111500000Y-142656093D01*
X111617818Y-142667696D01*
G37*
G36*
X104517818Y-142667696D02*
G01*
X104631105Y-142702062D01*
X104735512Y-142757869D01*
X104827027Y-142832973D01*
X104902131Y-142924488D01*
X104957938Y-143028895D01*
X104992304Y-143142182D01*
X105001000Y-143230481D01*
X105001000Y-143789519D01*
X104992304Y-143877818D01*
X104957938Y-143991105D01*
X104902131Y-144095512D01*
X104902130Y-144095513D01*
X104827027Y-144187027D01*
X104751923Y-144248662D01*
X104735511Y-144262131D01*
X104631104Y-144317938D01*
X104517817Y-144352304D01*
X104400000Y-144363907D01*
X104282182Y-144352304D01*
X104168895Y-144317938D01*
X104064488Y-144262131D01*
X104015274Y-144221742D01*
X103972973Y-144187027D01*
X103897870Y-144095512D01*
X103897869Y-144095511D01*
X103842062Y-143991104D01*
X103807696Y-143877817D01*
X103799000Y-143789518D01*
X103799000Y-143230481D01*
X103807696Y-143142182D01*
X103842062Y-143028895D01*
X103897869Y-142924488D01*
X103972974Y-142832973D01*
X104064489Y-142757869D01*
X104168896Y-142702062D01*
X104282183Y-142667696D01*
X104400000Y-142656093D01*
X104517818Y-142667696D01*
G37*
G36*
X96519239Y-133971467D02*
G01*
X96833282Y-134033934D01*
X97424926Y-134279001D01*
X97957392Y-134634784D01*
X98410216Y-135087608D01*
X98765999Y-135620074D01*
X99011066Y-136211718D01*
X99136000Y-136839804D01*
X99136000Y-137480196D01*
X99011066Y-138108282D01*
X98765999Y-138699926D01*
X98410216Y-139232392D01*
X97957392Y-139685216D01*
X97424926Y-140040999D01*
X96833282Y-140286066D01*
X96544803Y-140343448D01*
X96205197Y-140411000D01*
X95564803Y-140411000D01*
X95225197Y-140343448D01*
X94936718Y-140286066D01*
X94345074Y-140040999D01*
X93812608Y-139685216D01*
X93359784Y-139232392D01*
X93004001Y-138699926D01*
X92758934Y-138108282D01*
X92634000Y-137480196D01*
X92634000Y-136839804D01*
X92758934Y-136211718D01*
X93004001Y-135620074D01*
X93359784Y-135087608D01*
X93812608Y-134634784D01*
X94345074Y-134279001D01*
X94936718Y-134033934D01*
X95250761Y-133971467D01*
X95564803Y-133909000D01*
X96205197Y-133909000D01*
X96519239Y-133971467D01*
G37*
G36*
X118376000Y-132346000D02*
G01*
X116574000Y-132346000D01*
X116574000Y-130544000D01*
X118376000Y-130544000D01*
X118376000Y-132346000D01*
G37*
G36*
X143776000Y-132346000D02*
G01*
X141974000Y-132346000D01*
X141974000Y-130544000D01*
X143776000Y-130544000D01*
X143776000Y-132346000D01*
G37*
G36*
X117588512Y-128008927D02*
G01*
X117737812Y-128038624D01*
X117901784Y-128106544D01*
X118049354Y-128205147D01*
X118174853Y-128330646D01*
X118273456Y-128478216D01*
X118341376Y-128642188D01*
X118376000Y-128816259D01*
X118376000Y-128993741D01*
X118341376Y-129167812D01*
X118273456Y-129331784D01*
X118174853Y-129479354D01*
X118049354Y-129604853D01*
X117901784Y-129703456D01*
X117737812Y-129771376D01*
X117588512Y-129801073D01*
X117563742Y-129806000D01*
X117386258Y-129806000D01*
X117361488Y-129801073D01*
X117212188Y-129771376D01*
X117048216Y-129703456D01*
X116900646Y-129604853D01*
X116775147Y-129479354D01*
X116676544Y-129331784D01*
X116608624Y-129167812D01*
X116574000Y-128993741D01*
X116574000Y-128816259D01*
X116608624Y-128642188D01*
X116676544Y-128478216D01*
X116775147Y-128330646D01*
X116900646Y-128205147D01*
X117048216Y-128106544D01*
X117212188Y-128038624D01*
X117361488Y-128008927D01*
X117386258Y-128004000D01*
X117563742Y-128004000D01*
X117588512Y-128008927D01*
G37*
G36*
X142988512Y-128008927D02*
G01*
X143137812Y-128038624D01*
X143301784Y-128106544D01*
X143449354Y-128205147D01*
X143574853Y-128330646D01*
X143673456Y-128478216D01*
X143741376Y-128642188D01*
X143776000Y-128816259D01*
X143776000Y-128993741D01*
X143741376Y-129167812D01*
X143673456Y-129331784D01*
X143574853Y-129479354D01*
X143449354Y-129604853D01*
X143301784Y-129703456D01*
X143137812Y-129771376D01*
X142988512Y-129801073D01*
X142963742Y-129806000D01*
X142786258Y-129806000D01*
X142761488Y-129801073D01*
X142612188Y-129771376D01*
X142448216Y-129703456D01*
X142300646Y-129604853D01*
X142175147Y-129479354D01*
X142076544Y-129331784D01*
X142008624Y-129167812D01*
X141974000Y-128993741D01*
X141974000Y-128816259D01*
X142008624Y-128642188D01*
X142076544Y-128478216D01*
X142175147Y-128330646D01*
X142300646Y-128205147D01*
X142448216Y-128106544D01*
X142612188Y-128038624D01*
X142761488Y-128008927D01*
X142786258Y-128004000D01*
X142963742Y-128004000D01*
X142988512Y-128008927D01*
G37*
G36*
X69849239Y-121271467D02*
G01*
X70163282Y-121333934D01*
X70754926Y-121579001D01*
X71287392Y-121934784D01*
X71740216Y-122387608D01*
X72095999Y-122920074D01*
X72341066Y-123511718D01*
X72341066Y-123511719D01*
X72421034Y-123913742D01*
X72466000Y-124139804D01*
X72466000Y-124780196D01*
X72341066Y-125408282D01*
X72095999Y-125999926D01*
X71740216Y-126532392D01*
X71287392Y-126985216D01*
X70754926Y-127340999D01*
X70163282Y-127586066D01*
X69849239Y-127648533D01*
X69535197Y-127711000D01*
X68894803Y-127711000D01*
X68580761Y-127648533D01*
X68266718Y-127586066D01*
X67675074Y-127340999D01*
X67142608Y-126985216D01*
X66689784Y-126532392D01*
X66334001Y-125999926D01*
X66088934Y-125408282D01*
X65964000Y-124780196D01*
X65964000Y-124139804D01*
X66008967Y-123913742D01*
X66088934Y-123511719D01*
X66088934Y-123511718D01*
X66334001Y-122920074D01*
X66689784Y-122387608D01*
X67142608Y-121934784D01*
X67675074Y-121579001D01*
X68266718Y-121333934D01*
X68580761Y-121271467D01*
X68894803Y-121209000D01*
X69535197Y-121209000D01*
X69849239Y-121271467D01*
G37*
G36*
X142988512Y-125468927D02*
G01*
X143137812Y-125498624D01*
X143301784Y-125566544D01*
X143449354Y-125665147D01*
X143574853Y-125790646D01*
X143673456Y-125938216D01*
X143741376Y-126102188D01*
X143776000Y-126276259D01*
X143776000Y-126453741D01*
X143741376Y-126627812D01*
X143673456Y-126791784D01*
X143574853Y-126939354D01*
X143449354Y-127064853D01*
X143301784Y-127163456D01*
X143137812Y-127231376D01*
X142988512Y-127261073D01*
X142963742Y-127266000D01*
X142786258Y-127266000D01*
X142761488Y-127261073D01*
X142612188Y-127231376D01*
X142448216Y-127163456D01*
X142300646Y-127064853D01*
X142175147Y-126939354D01*
X142076544Y-126791784D01*
X142008624Y-126627812D01*
X141974000Y-126453741D01*
X141974000Y-126276259D01*
X142008624Y-126102188D01*
X142076544Y-125938216D01*
X142175147Y-125790646D01*
X142300646Y-125665147D01*
X142448216Y-125566544D01*
X142612188Y-125498624D01*
X142761488Y-125468927D01*
X142786258Y-125464000D01*
X142963742Y-125464000D01*
X142988512Y-125468927D01*
G37*
G36*
X117588512Y-125468927D02*
G01*
X117737812Y-125498624D01*
X117901784Y-125566544D01*
X118049354Y-125665147D01*
X118174853Y-125790646D01*
X118273456Y-125938216D01*
X118341376Y-126102188D01*
X118376000Y-126276259D01*
X118376000Y-126453741D01*
X118341376Y-126627812D01*
X118273456Y-126791784D01*
X118174853Y-126939354D01*
X118049354Y-127064853D01*
X117901784Y-127163456D01*
X117737812Y-127231376D01*
X117588512Y-127261073D01*
X117563742Y-127266000D01*
X117386258Y-127266000D01*
X117361488Y-127261073D01*
X117212188Y-127231376D01*
X117048216Y-127163456D01*
X116900646Y-127064853D01*
X116775147Y-126939354D01*
X116676544Y-126791784D01*
X116608624Y-126627812D01*
X116574000Y-126453741D01*
X116574000Y-126276259D01*
X116608624Y-126102188D01*
X116676544Y-125938216D01*
X116775147Y-125790646D01*
X116900646Y-125665147D01*
X117048216Y-125566544D01*
X117212188Y-125498624D01*
X117361488Y-125468927D01*
X117386258Y-125464000D01*
X117563742Y-125464000D01*
X117588512Y-125468927D01*
G37*
G36*
X117588512Y-122928927D02*
G01*
X117737812Y-122958624D01*
X117901784Y-123026544D01*
X118049354Y-123125147D01*
X118174853Y-123250646D01*
X118273456Y-123398216D01*
X118341376Y-123562188D01*
X118376000Y-123736259D01*
X118376000Y-123913741D01*
X118341376Y-124087812D01*
X118273456Y-124251784D01*
X118174853Y-124399354D01*
X118049354Y-124524853D01*
X117901784Y-124623456D01*
X117737812Y-124691376D01*
X117588512Y-124721073D01*
X117563742Y-124726000D01*
X117386258Y-124726000D01*
X117361488Y-124721073D01*
X117212188Y-124691376D01*
X117048216Y-124623456D01*
X116900646Y-124524853D01*
X116775147Y-124399354D01*
X116676544Y-124251784D01*
X116608624Y-124087812D01*
X116574000Y-123913741D01*
X116574000Y-123736259D01*
X116608624Y-123562188D01*
X116676544Y-123398216D01*
X116775147Y-123250646D01*
X116900646Y-123125147D01*
X117048216Y-123026544D01*
X117212188Y-122958624D01*
X117361488Y-122928927D01*
X117386258Y-122924000D01*
X117563742Y-122924000D01*
X117588512Y-122928927D01*
G37*
G36*
X142988512Y-122928927D02*
G01*
X143137812Y-122958624D01*
X143301784Y-123026544D01*
X143449354Y-123125147D01*
X143574853Y-123250646D01*
X143673456Y-123398216D01*
X143741376Y-123562188D01*
X143776000Y-123736259D01*
X143776000Y-123913741D01*
X143741376Y-124087812D01*
X143673456Y-124251784D01*
X143574853Y-124399354D01*
X143449354Y-124524853D01*
X143301784Y-124623456D01*
X143137812Y-124691376D01*
X142988512Y-124721073D01*
X142963742Y-124726000D01*
X142786258Y-124726000D01*
X142761488Y-124721073D01*
X142612188Y-124691376D01*
X142448216Y-124623456D01*
X142300646Y-124524853D01*
X142175147Y-124399354D01*
X142076544Y-124251784D01*
X142008624Y-124087812D01*
X141974000Y-123913741D01*
X141974000Y-123736259D01*
X142008624Y-123562188D01*
X142076544Y-123398216D01*
X142175147Y-123250646D01*
X142300646Y-123125147D01*
X142448216Y-123026544D01*
X142612188Y-122958624D01*
X142761488Y-122928927D01*
X142786258Y-122924000D01*
X142963742Y-122924000D01*
X142988512Y-122928927D01*
G37*
G36*
X142988512Y-120388927D02*
G01*
X143137812Y-120418624D01*
X143301784Y-120486544D01*
X143449354Y-120585147D01*
X143574853Y-120710646D01*
X143673456Y-120858216D01*
X143741376Y-121022188D01*
X143776000Y-121196259D01*
X143776000Y-121373741D01*
X143741376Y-121547812D01*
X143673456Y-121711784D01*
X143574853Y-121859354D01*
X143449354Y-121984853D01*
X143301784Y-122083456D01*
X143137812Y-122151376D01*
X142988512Y-122181073D01*
X142963742Y-122186000D01*
X142786258Y-122186000D01*
X142761488Y-122181073D01*
X142612188Y-122151376D01*
X142448216Y-122083456D01*
X142300646Y-121984853D01*
X142175147Y-121859354D01*
X142076544Y-121711784D01*
X142008624Y-121547812D01*
X141974000Y-121373741D01*
X141974000Y-121196259D01*
X142008624Y-121022188D01*
X142076544Y-120858216D01*
X142175147Y-120710646D01*
X142300646Y-120585147D01*
X142448216Y-120486544D01*
X142612188Y-120418624D01*
X142761488Y-120388927D01*
X142786258Y-120384000D01*
X142963742Y-120384000D01*
X142988512Y-120388927D01*
G37*
G36*
X117588512Y-120388927D02*
G01*
X117737812Y-120418624D01*
X117901784Y-120486544D01*
X118049354Y-120585147D01*
X118174853Y-120710646D01*
X118273456Y-120858216D01*
X118341376Y-121022188D01*
X118376000Y-121196259D01*
X118376000Y-121373741D01*
X118341376Y-121547812D01*
X118273456Y-121711784D01*
X118174853Y-121859354D01*
X118049354Y-121984853D01*
X117901784Y-122083456D01*
X117737812Y-122151376D01*
X117588512Y-122181073D01*
X117563742Y-122186000D01*
X117386258Y-122186000D01*
X117361488Y-122181073D01*
X117212188Y-122151376D01*
X117048216Y-122083456D01*
X116900646Y-121984853D01*
X116775147Y-121859354D01*
X116676544Y-121711784D01*
X116608624Y-121547812D01*
X116574000Y-121373741D01*
X116574000Y-121196259D01*
X116608624Y-121022188D01*
X116676544Y-120858216D01*
X116775147Y-120710646D01*
X116900646Y-120585147D01*
X117048216Y-120486544D01*
X117212188Y-120418624D01*
X117361488Y-120388927D01*
X117386258Y-120384000D01*
X117563742Y-120384000D01*
X117588512Y-120388927D01*
G37*
G36*
X156209239Y-114921467D02*
G01*
X156523282Y-114983934D01*
X157114926Y-115229001D01*
X157647392Y-115584784D01*
X158100216Y-116037608D01*
X158455999Y-116570074D01*
X158701066Y-117161718D01*
X158701066Y-117161719D01*
X158826000Y-117789803D01*
X158826000Y-118430197D01*
X158781033Y-118656259D01*
X158701066Y-119058282D01*
X158455999Y-119649926D01*
X158100216Y-120182392D01*
X157647392Y-120635216D01*
X157114926Y-120990999D01*
X156523282Y-121236066D01*
X156209239Y-121298533D01*
X155895197Y-121361000D01*
X155254803Y-121361000D01*
X154940761Y-121298533D01*
X154626718Y-121236066D01*
X154035074Y-120990999D01*
X153502608Y-120635216D01*
X153049784Y-120182392D01*
X152694001Y-119649926D01*
X152448934Y-119058282D01*
X152368967Y-118656259D01*
X152324000Y-118430197D01*
X152324000Y-117789803D01*
X152448934Y-117161719D01*
X152448934Y-117161718D01*
X152694001Y-116570074D01*
X153049784Y-116037608D01*
X153502608Y-115584784D01*
X154035074Y-115229001D01*
X154626718Y-114983934D01*
X154940761Y-114921467D01*
X155254803Y-114859000D01*
X155895197Y-114859000D01*
X156209239Y-114921467D01*
G37*
G36*
X142988512Y-117848927D02*
G01*
X143137812Y-117878624D01*
X143301784Y-117946544D01*
X143449354Y-118045147D01*
X143574853Y-118170646D01*
X143673456Y-118318216D01*
X143741376Y-118482188D01*
X143776000Y-118656259D01*
X143776000Y-118833741D01*
X143741376Y-119007812D01*
X143673456Y-119171784D01*
X143574853Y-119319354D01*
X143449354Y-119444853D01*
X143301784Y-119543456D01*
X143137812Y-119611376D01*
X142988512Y-119641073D01*
X142963742Y-119646000D01*
X142786258Y-119646000D01*
X142761488Y-119641073D01*
X142612188Y-119611376D01*
X142448216Y-119543456D01*
X142300646Y-119444853D01*
X142175147Y-119319354D01*
X142076544Y-119171784D01*
X142008624Y-119007812D01*
X141974000Y-118833741D01*
X141974000Y-118656259D01*
X142008624Y-118482188D01*
X142076544Y-118318216D01*
X142175147Y-118170646D01*
X142300646Y-118045147D01*
X142448216Y-117946544D01*
X142612188Y-117878624D01*
X142761488Y-117848927D01*
X142786258Y-117844000D01*
X142963742Y-117844000D01*
X142988512Y-117848927D01*
G37*
G36*
X117588512Y-117848927D02*
G01*
X117737812Y-117878624D01*
X117901784Y-117946544D01*
X118049354Y-118045147D01*
X118174853Y-118170646D01*
X118273456Y-118318216D01*
X118341376Y-118482188D01*
X118376000Y-118656259D01*
X118376000Y-118833741D01*
X118341376Y-119007812D01*
X118273456Y-119171784D01*
X118174853Y-119319354D01*
X118049354Y-119444853D01*
X117901784Y-119543456D01*
X117737812Y-119611376D01*
X117588512Y-119641073D01*
X117563742Y-119646000D01*
X117386258Y-119646000D01*
X117361488Y-119641073D01*
X117212188Y-119611376D01*
X117048216Y-119543456D01*
X116900646Y-119444853D01*
X116775147Y-119319354D01*
X116676544Y-119171784D01*
X116608624Y-119007812D01*
X116574000Y-118833741D01*
X116574000Y-118656259D01*
X116608624Y-118482188D01*
X116676544Y-118318216D01*
X116775147Y-118170646D01*
X116900646Y-118045147D01*
X117048216Y-117946544D01*
X117212188Y-117878624D01*
X117361488Y-117848927D01*
X117386258Y-117844000D01*
X117563742Y-117844000D01*
X117588512Y-117848927D01*
G37*
G36*
X117588512Y-115308927D02*
G01*
X117737812Y-115338624D01*
X117901784Y-115406544D01*
X118049354Y-115505147D01*
X118174853Y-115630646D01*
X118273456Y-115778216D01*
X118341376Y-115942188D01*
X118376000Y-116116259D01*
X118376000Y-116293741D01*
X118341376Y-116467812D01*
X118273456Y-116631784D01*
X118174853Y-116779354D01*
X118049354Y-116904853D01*
X117901784Y-117003456D01*
X117737812Y-117071376D01*
X117588512Y-117101073D01*
X117563742Y-117106000D01*
X117386258Y-117106000D01*
X117361488Y-117101073D01*
X117212188Y-117071376D01*
X117048216Y-117003456D01*
X116900646Y-116904853D01*
X116775147Y-116779354D01*
X116676544Y-116631784D01*
X116608624Y-116467812D01*
X116574000Y-116293741D01*
X116574000Y-116116259D01*
X116608624Y-115942188D01*
X116676544Y-115778216D01*
X116775147Y-115630646D01*
X116900646Y-115505147D01*
X117048216Y-115406544D01*
X117212188Y-115338624D01*
X117361488Y-115308927D01*
X117386258Y-115304000D01*
X117563742Y-115304000D01*
X117588512Y-115308927D01*
G37*
G36*
X142988512Y-115308927D02*
G01*
X143137812Y-115338624D01*
X143301784Y-115406544D01*
X143449354Y-115505147D01*
X143574853Y-115630646D01*
X143673456Y-115778216D01*
X143741376Y-115942188D01*
X143776000Y-116116259D01*
X143776000Y-116293741D01*
X143741376Y-116467812D01*
X143673456Y-116631784D01*
X143574853Y-116779354D01*
X143449354Y-116904853D01*
X143301784Y-117003456D01*
X143137812Y-117071376D01*
X142988512Y-117101073D01*
X142963742Y-117106000D01*
X142786258Y-117106000D01*
X142761488Y-117101073D01*
X142612188Y-117071376D01*
X142448216Y-117003456D01*
X142300646Y-116904853D01*
X142175147Y-116779354D01*
X142076544Y-116631784D01*
X142008624Y-116467812D01*
X141974000Y-116293741D01*
X141974000Y-116116259D01*
X142008624Y-115942188D01*
X142076544Y-115778216D01*
X142175147Y-115630646D01*
X142300646Y-115505147D01*
X142448216Y-115406544D01*
X142612188Y-115338624D01*
X142761488Y-115308927D01*
X142786258Y-115304000D01*
X142963742Y-115304000D01*
X142988512Y-115308927D01*
G37*
G36*
X142988512Y-112768927D02*
G01*
X143137812Y-112798624D01*
X143301784Y-112866544D01*
X143449354Y-112965147D01*
X143574853Y-113090646D01*
X143673456Y-113238216D01*
X143741376Y-113402188D01*
X143776000Y-113576259D01*
X143776000Y-113753741D01*
X143741376Y-113927812D01*
X143673456Y-114091784D01*
X143574853Y-114239354D01*
X143449354Y-114364853D01*
X143301784Y-114463456D01*
X143137812Y-114531376D01*
X142988512Y-114561073D01*
X142963742Y-114566000D01*
X142786258Y-114566000D01*
X142761488Y-114561073D01*
X142612188Y-114531376D01*
X142448216Y-114463456D01*
X142300646Y-114364853D01*
X142175147Y-114239354D01*
X142076544Y-114091784D01*
X142008624Y-113927812D01*
X141974000Y-113753741D01*
X141974000Y-113576259D01*
X142008624Y-113402188D01*
X142076544Y-113238216D01*
X142175147Y-113090646D01*
X142300646Y-112965147D01*
X142448216Y-112866544D01*
X142612188Y-112798624D01*
X142761488Y-112768927D01*
X142786258Y-112764000D01*
X142963742Y-112764000D01*
X142988512Y-112768927D01*
G37*
G36*
X117588512Y-112768927D02*
G01*
X117737812Y-112798624D01*
X117901784Y-112866544D01*
X118049354Y-112965147D01*
X118174853Y-113090646D01*
X118273456Y-113238216D01*
X118341376Y-113402188D01*
X118376000Y-113576259D01*
X118376000Y-113753741D01*
X118341376Y-113927812D01*
X118273456Y-114091784D01*
X118174853Y-114239354D01*
X118049354Y-114364853D01*
X117901784Y-114463456D01*
X117737812Y-114531376D01*
X117588512Y-114561073D01*
X117563742Y-114566000D01*
X117386258Y-114566000D01*
X117361488Y-114561073D01*
X117212188Y-114531376D01*
X117048216Y-114463456D01*
X116900646Y-114364853D01*
X116775147Y-114239354D01*
X116676544Y-114091784D01*
X116608624Y-113927812D01*
X116574000Y-113753741D01*
X116574000Y-113576259D01*
X116608624Y-113402188D01*
X116676544Y-113238216D01*
X116775147Y-113090646D01*
X116900646Y-112965147D01*
X117048216Y-112866544D01*
X117212188Y-112798624D01*
X117361488Y-112768927D01*
X117386258Y-112764000D01*
X117563742Y-112764000D01*
X117588512Y-112768927D01*
G37*
G36*
X95354769Y-110862188D02*
G01*
X95512812Y-110893624D01*
X95676784Y-110961544D01*
X95824354Y-111060147D01*
X95949853Y-111185646D01*
X96048456Y-111333216D01*
X96116376Y-111497188D01*
X96151000Y-111671259D01*
X96151000Y-111848741D01*
X96116376Y-112022812D01*
X96048456Y-112186784D01*
X95949853Y-112334354D01*
X95824354Y-112459853D01*
X95676784Y-112558456D01*
X95512812Y-112626376D01*
X95363512Y-112656073D01*
X95338742Y-112661000D01*
X95161258Y-112661000D01*
X95136488Y-112656073D01*
X94987188Y-112626376D01*
X94823216Y-112558456D01*
X94675646Y-112459853D01*
X94550147Y-112334354D01*
X94451544Y-112186784D01*
X94383624Y-112022812D01*
X94349000Y-111848741D01*
X94349000Y-111671259D01*
X94383624Y-111497188D01*
X94451544Y-111333216D01*
X94550147Y-111185646D01*
X94675646Y-111060147D01*
X94823216Y-110961544D01*
X94987188Y-110893624D01*
X95145231Y-110862188D01*
X95161258Y-110859000D01*
X95338742Y-110859000D01*
X95354769Y-110862188D01*
G37*
G36*
X69954769Y-110862188D02*
G01*
X70112812Y-110893624D01*
X70276784Y-110961544D01*
X70424354Y-111060147D01*
X70549853Y-111185646D01*
X70648456Y-111333216D01*
X70716376Y-111497188D01*
X70751000Y-111671259D01*
X70751000Y-111848741D01*
X70716376Y-112022812D01*
X70648456Y-112186784D01*
X70549853Y-112334354D01*
X70424354Y-112459853D01*
X70276784Y-112558456D01*
X70112812Y-112626376D01*
X69963512Y-112656073D01*
X69938742Y-112661000D01*
X69761258Y-112661000D01*
X69736488Y-112656073D01*
X69587188Y-112626376D01*
X69423216Y-112558456D01*
X69275646Y-112459853D01*
X69150147Y-112334354D01*
X69051544Y-112186784D01*
X68983624Y-112022812D01*
X68949000Y-111848741D01*
X68949000Y-111671259D01*
X68983624Y-111497188D01*
X69051544Y-111333216D01*
X69150147Y-111185646D01*
X69275646Y-111060147D01*
X69423216Y-110961544D01*
X69587188Y-110893624D01*
X69745231Y-110862188D01*
X69761258Y-110859000D01*
X69938742Y-110859000D01*
X69954769Y-110862188D01*
G37*
G36*
X117588512Y-110228927D02*
G01*
X117737812Y-110258624D01*
X117901784Y-110326544D01*
X118049354Y-110425147D01*
X118174853Y-110550646D01*
X118273456Y-110698216D01*
X118341376Y-110862188D01*
X118376000Y-111036259D01*
X118376000Y-111213741D01*
X118341376Y-111387812D01*
X118273456Y-111551784D01*
X118174853Y-111699354D01*
X118049354Y-111824853D01*
X117901784Y-111923456D01*
X117737812Y-111991376D01*
X117588512Y-112021073D01*
X117563742Y-112026000D01*
X117386258Y-112026000D01*
X117361488Y-112021073D01*
X117212188Y-111991376D01*
X117048216Y-111923456D01*
X116900646Y-111824853D01*
X116775147Y-111699354D01*
X116676544Y-111551784D01*
X116608624Y-111387812D01*
X116574000Y-111213741D01*
X116574000Y-111036259D01*
X116608624Y-110862188D01*
X116676544Y-110698216D01*
X116775147Y-110550646D01*
X116900646Y-110425147D01*
X117048216Y-110326544D01*
X117212188Y-110258624D01*
X117361488Y-110228927D01*
X117386258Y-110224000D01*
X117563742Y-110224000D01*
X117588512Y-110228927D01*
G37*
G36*
X142988512Y-110228927D02*
G01*
X143137812Y-110258624D01*
X143301784Y-110326544D01*
X143449354Y-110425147D01*
X143574853Y-110550646D01*
X143673456Y-110698216D01*
X143741376Y-110862188D01*
X143776000Y-111036259D01*
X143776000Y-111213741D01*
X143741376Y-111387812D01*
X143673456Y-111551784D01*
X143574853Y-111699354D01*
X143449354Y-111824853D01*
X143301784Y-111923456D01*
X143137812Y-111991376D01*
X142988512Y-112021073D01*
X142963742Y-112026000D01*
X142786258Y-112026000D01*
X142761488Y-112021073D01*
X142612188Y-111991376D01*
X142448216Y-111923456D01*
X142300646Y-111824853D01*
X142175147Y-111699354D01*
X142076544Y-111551784D01*
X142008624Y-111387812D01*
X141974000Y-111213741D01*
X141974000Y-111036259D01*
X142008624Y-110862188D01*
X142076544Y-110698216D01*
X142175147Y-110550646D01*
X142300646Y-110425147D01*
X142448216Y-110326544D01*
X142612188Y-110258624D01*
X142761488Y-110228927D01*
X142786258Y-110224000D01*
X142963742Y-110224000D01*
X142988512Y-110228927D01*
G37*
G36*
X69954769Y-108322188D02*
G01*
X70112812Y-108353624D01*
X70276784Y-108421544D01*
X70424354Y-108520147D01*
X70549853Y-108645646D01*
X70648456Y-108793216D01*
X70716376Y-108957188D01*
X70751000Y-109131259D01*
X70751000Y-109308741D01*
X70716376Y-109482812D01*
X70648456Y-109646784D01*
X70549853Y-109794354D01*
X70424354Y-109919853D01*
X70276784Y-110018456D01*
X70112812Y-110086376D01*
X69963512Y-110116073D01*
X69938742Y-110121000D01*
X69761258Y-110121000D01*
X69736488Y-110116073D01*
X69587188Y-110086376D01*
X69423216Y-110018456D01*
X69275646Y-109919853D01*
X69150147Y-109794354D01*
X69051544Y-109646784D01*
X68983624Y-109482812D01*
X68949000Y-109308741D01*
X68949000Y-109131259D01*
X68983624Y-108957188D01*
X69051544Y-108793216D01*
X69150147Y-108645646D01*
X69275646Y-108520147D01*
X69423216Y-108421544D01*
X69587188Y-108353624D01*
X69745231Y-108322188D01*
X69761258Y-108319000D01*
X69938742Y-108319000D01*
X69954769Y-108322188D01*
G37*
G36*
X95354769Y-108322188D02*
G01*
X95512812Y-108353624D01*
X95676784Y-108421544D01*
X95824354Y-108520147D01*
X95949853Y-108645646D01*
X96048456Y-108793216D01*
X96116376Y-108957188D01*
X96151000Y-109131259D01*
X96151000Y-109308741D01*
X96116376Y-109482812D01*
X96048456Y-109646784D01*
X95949853Y-109794354D01*
X95824354Y-109919853D01*
X95676784Y-110018456D01*
X95512812Y-110086376D01*
X95363512Y-110116073D01*
X95338742Y-110121000D01*
X95161258Y-110121000D01*
X95136488Y-110116073D01*
X94987188Y-110086376D01*
X94823216Y-110018456D01*
X94675646Y-109919853D01*
X94550147Y-109794354D01*
X94451544Y-109646784D01*
X94383624Y-109482812D01*
X94349000Y-109308741D01*
X94349000Y-109131259D01*
X94383624Y-108957188D01*
X94451544Y-108793216D01*
X94550147Y-108645646D01*
X94675646Y-108520147D01*
X94823216Y-108421544D01*
X94987188Y-108353624D01*
X95145231Y-108322188D01*
X95161258Y-108319000D01*
X95338742Y-108319000D01*
X95354769Y-108322188D01*
G37*
G36*
X157726000Y-109931000D02*
G01*
X156624000Y-109931000D01*
X156624000Y-108329000D01*
X157726000Y-108329000D01*
X157726000Y-109931000D01*
G37*
G36*
X154526000Y-109931000D02*
G01*
X153424000Y-109931000D01*
X153424000Y-108329000D01*
X154526000Y-108329000D01*
X154526000Y-109931000D01*
G37*
G36*
X117588512Y-107688927D02*
G01*
X117737812Y-107718624D01*
X117901784Y-107786544D01*
X118049354Y-107885147D01*
X118174853Y-108010646D01*
X118273456Y-108158216D01*
X118341376Y-108322188D01*
X118376000Y-108496259D01*
X118376000Y-108673741D01*
X118341376Y-108847812D01*
X118273456Y-109011784D01*
X118174853Y-109159354D01*
X118049354Y-109284853D01*
X117901784Y-109383456D01*
X117737812Y-109451376D01*
X117588512Y-109481073D01*
X117563742Y-109486000D01*
X117386258Y-109486000D01*
X117361488Y-109481073D01*
X117212188Y-109451376D01*
X117048216Y-109383456D01*
X116900646Y-109284853D01*
X116775147Y-109159354D01*
X116676544Y-109011784D01*
X116608624Y-108847812D01*
X116574000Y-108673741D01*
X116574000Y-108496259D01*
X116608624Y-108322188D01*
X116676544Y-108158216D01*
X116775147Y-108010646D01*
X116900646Y-107885147D01*
X117048216Y-107786544D01*
X117212188Y-107718624D01*
X117361488Y-107688927D01*
X117386258Y-107684000D01*
X117563742Y-107684000D01*
X117588512Y-107688927D01*
G37*
G36*
X142988512Y-107688927D02*
G01*
X143137812Y-107718624D01*
X143301784Y-107786544D01*
X143449354Y-107885147D01*
X143574853Y-108010646D01*
X143673456Y-108158216D01*
X143741376Y-108322188D01*
X143776000Y-108496259D01*
X143776000Y-108673741D01*
X143741376Y-108847812D01*
X143673456Y-109011784D01*
X143574853Y-109159354D01*
X143449354Y-109284853D01*
X143301784Y-109383456D01*
X143137812Y-109451376D01*
X142988512Y-109481073D01*
X142963742Y-109486000D01*
X142786258Y-109486000D01*
X142761488Y-109481073D01*
X142612188Y-109451376D01*
X142448216Y-109383456D01*
X142300646Y-109284853D01*
X142175147Y-109159354D01*
X142076544Y-109011784D01*
X142008624Y-108847812D01*
X141974000Y-108673741D01*
X141974000Y-108496259D01*
X142008624Y-108322188D01*
X142076544Y-108158216D01*
X142175147Y-108010646D01*
X142300646Y-107885147D01*
X142448216Y-107786544D01*
X142612188Y-107718624D01*
X142761488Y-107688927D01*
X142786258Y-107684000D01*
X142963742Y-107684000D01*
X142988512Y-107688927D01*
G37*
G36*
X69954769Y-105782188D02*
G01*
X70112812Y-105813624D01*
X70276784Y-105881544D01*
X70424354Y-105980147D01*
X70549853Y-106105646D01*
X70648456Y-106253216D01*
X70716376Y-106417188D01*
X70751000Y-106591259D01*
X70751000Y-106768741D01*
X70716376Y-106942812D01*
X70648456Y-107106784D01*
X70549853Y-107254354D01*
X70424354Y-107379853D01*
X70276784Y-107478456D01*
X70112812Y-107546376D01*
X69963512Y-107576073D01*
X69938742Y-107581000D01*
X69761258Y-107581000D01*
X69736488Y-107576073D01*
X69587188Y-107546376D01*
X69423216Y-107478456D01*
X69275646Y-107379853D01*
X69150147Y-107254354D01*
X69051544Y-107106784D01*
X68983624Y-106942812D01*
X68949000Y-106768741D01*
X68949000Y-106591259D01*
X68983624Y-106417188D01*
X69051544Y-106253216D01*
X69150147Y-106105646D01*
X69275646Y-105980147D01*
X69423216Y-105881544D01*
X69587188Y-105813624D01*
X69745231Y-105782188D01*
X69761258Y-105779000D01*
X69938742Y-105779000D01*
X69954769Y-105782188D01*
G37*
G36*
X95354769Y-105782188D02*
G01*
X95512812Y-105813624D01*
X95676784Y-105881544D01*
X95824354Y-105980147D01*
X95949853Y-106105646D01*
X96048456Y-106253216D01*
X96116376Y-106417188D01*
X96151000Y-106591259D01*
X96151000Y-106768741D01*
X96116376Y-106942812D01*
X96048456Y-107106784D01*
X95949853Y-107254354D01*
X95824354Y-107379853D01*
X95676784Y-107478456D01*
X95512812Y-107546376D01*
X95363512Y-107576073D01*
X95338742Y-107581000D01*
X95161258Y-107581000D01*
X95136488Y-107576073D01*
X94987188Y-107546376D01*
X94823216Y-107478456D01*
X94675646Y-107379853D01*
X94550147Y-107254354D01*
X94451544Y-107106784D01*
X94383624Y-106942812D01*
X94349000Y-106768741D01*
X94349000Y-106591259D01*
X94383624Y-106417188D01*
X94451544Y-106253216D01*
X94550147Y-106105646D01*
X94675646Y-105980147D01*
X94823216Y-105881544D01*
X94987188Y-105813624D01*
X95145231Y-105782188D01*
X95161258Y-105779000D01*
X95338742Y-105779000D01*
X95354769Y-105782188D01*
G37*
G36*
X142988512Y-105148927D02*
G01*
X143137812Y-105178624D01*
X143301784Y-105246544D01*
X143449354Y-105345147D01*
X143574853Y-105470646D01*
X143673456Y-105618216D01*
X143741376Y-105782188D01*
X143776000Y-105956259D01*
X143776000Y-106133741D01*
X143741376Y-106307812D01*
X143673456Y-106471784D01*
X143574853Y-106619354D01*
X143449354Y-106744853D01*
X143301784Y-106843456D01*
X143137812Y-106911376D01*
X142988512Y-106941073D01*
X142963742Y-106946000D01*
X142786258Y-106946000D01*
X142761488Y-106941073D01*
X142612188Y-106911376D01*
X142448216Y-106843456D01*
X142300646Y-106744853D01*
X142175147Y-106619354D01*
X142076544Y-106471784D01*
X142008624Y-106307812D01*
X141974000Y-106133741D01*
X141974000Y-105956259D01*
X142008624Y-105782188D01*
X142076544Y-105618216D01*
X142175147Y-105470646D01*
X142300646Y-105345147D01*
X142448216Y-105246544D01*
X142612188Y-105178624D01*
X142761488Y-105148927D01*
X142786258Y-105144000D01*
X142963742Y-105144000D01*
X142988512Y-105148927D01*
G37*
G36*
X117588512Y-105148927D02*
G01*
X117737812Y-105178624D01*
X117901784Y-105246544D01*
X118049354Y-105345147D01*
X118174853Y-105470646D01*
X118273456Y-105618216D01*
X118341376Y-105782188D01*
X118376000Y-105956259D01*
X118376000Y-106133741D01*
X118341376Y-106307812D01*
X118273456Y-106471784D01*
X118174853Y-106619354D01*
X118049354Y-106744853D01*
X117901784Y-106843456D01*
X117737812Y-106911376D01*
X117588512Y-106941073D01*
X117563742Y-106946000D01*
X117386258Y-106946000D01*
X117361488Y-106941073D01*
X117212188Y-106911376D01*
X117048216Y-106843456D01*
X116900646Y-106744853D01*
X116775147Y-106619354D01*
X116676544Y-106471784D01*
X116608624Y-106307812D01*
X116574000Y-106133741D01*
X116574000Y-105956259D01*
X116608624Y-105782188D01*
X116676544Y-105618216D01*
X116775147Y-105470646D01*
X116900646Y-105345147D01*
X117048216Y-105246544D01*
X117212188Y-105178624D01*
X117361488Y-105148927D01*
X117386258Y-105144000D01*
X117563742Y-105144000D01*
X117588512Y-105148927D01*
G37*
G36*
X69954769Y-103242188D02*
G01*
X70112812Y-103273624D01*
X70276784Y-103341544D01*
X70424354Y-103440147D01*
X70549853Y-103565646D01*
X70648456Y-103713216D01*
X70716376Y-103877188D01*
X70751000Y-104051259D01*
X70751000Y-104228741D01*
X70716376Y-104402812D01*
X70648456Y-104566784D01*
X70549853Y-104714354D01*
X70424354Y-104839853D01*
X70276784Y-104938456D01*
X70112812Y-105006376D01*
X69963512Y-105036073D01*
X69938742Y-105041000D01*
X69761258Y-105041000D01*
X69736488Y-105036073D01*
X69587188Y-105006376D01*
X69423216Y-104938456D01*
X69275646Y-104839853D01*
X69150147Y-104714354D01*
X69051544Y-104566784D01*
X68983624Y-104402812D01*
X68949000Y-104228741D01*
X68949000Y-104051259D01*
X68983624Y-103877188D01*
X69051544Y-103713216D01*
X69150147Y-103565646D01*
X69275646Y-103440147D01*
X69423216Y-103341544D01*
X69587188Y-103273624D01*
X69745231Y-103242188D01*
X69761258Y-103239000D01*
X69938742Y-103239000D01*
X69954769Y-103242188D01*
G37*
G36*
X95354769Y-103242188D02*
G01*
X95512812Y-103273624D01*
X95676784Y-103341544D01*
X95824354Y-103440147D01*
X95949853Y-103565646D01*
X96048456Y-103713216D01*
X96116376Y-103877188D01*
X96151000Y-104051259D01*
X96151000Y-104228741D01*
X96116376Y-104402812D01*
X96048456Y-104566784D01*
X95949853Y-104714354D01*
X95824354Y-104839853D01*
X95676784Y-104938456D01*
X95512812Y-105006376D01*
X95363512Y-105036073D01*
X95338742Y-105041000D01*
X95161258Y-105041000D01*
X95136488Y-105036073D01*
X94987188Y-105006376D01*
X94823216Y-104938456D01*
X94675646Y-104839853D01*
X94550147Y-104714354D01*
X94451544Y-104566784D01*
X94383624Y-104402812D01*
X94349000Y-104228741D01*
X94349000Y-104051259D01*
X94383624Y-103877188D01*
X94451544Y-103713216D01*
X94550147Y-103565646D01*
X94675646Y-103440147D01*
X94823216Y-103341544D01*
X94987188Y-103273624D01*
X95145231Y-103242188D01*
X95161258Y-103239000D01*
X95338742Y-103239000D01*
X95354769Y-103242188D01*
G37*
G36*
X157726000Y-105031000D02*
G01*
X156624000Y-105031000D01*
X156624000Y-103429000D01*
X157726000Y-103429000D01*
X157726000Y-105031000D01*
G37*
G36*
X154526000Y-105031000D02*
G01*
X153424000Y-105031000D01*
X153424000Y-103429000D01*
X154526000Y-103429000D01*
X154526000Y-105031000D01*
G37*
G36*
X117588512Y-102608927D02*
G01*
X117737812Y-102638624D01*
X117901784Y-102706544D01*
X118049354Y-102805147D01*
X118174853Y-102930646D01*
X118273456Y-103078216D01*
X118341376Y-103242188D01*
X118376000Y-103416259D01*
X118376000Y-103593741D01*
X118341376Y-103767812D01*
X118273456Y-103931784D01*
X118174853Y-104079354D01*
X118049354Y-104204853D01*
X117901784Y-104303456D01*
X117737812Y-104371376D01*
X117588512Y-104401073D01*
X117563742Y-104406000D01*
X117386258Y-104406000D01*
X117361488Y-104401073D01*
X117212188Y-104371376D01*
X117048216Y-104303456D01*
X116900646Y-104204853D01*
X116775147Y-104079354D01*
X116676544Y-103931784D01*
X116608624Y-103767812D01*
X116574000Y-103593741D01*
X116574000Y-103416259D01*
X116608624Y-103242188D01*
X116676544Y-103078216D01*
X116775147Y-102930646D01*
X116900646Y-102805147D01*
X117048216Y-102706544D01*
X117212188Y-102638624D01*
X117361488Y-102608927D01*
X117386258Y-102604000D01*
X117563742Y-102604000D01*
X117588512Y-102608927D01*
G37*
G36*
X142988512Y-102608927D02*
G01*
X143137812Y-102638624D01*
X143301784Y-102706544D01*
X143449354Y-102805147D01*
X143574853Y-102930646D01*
X143673456Y-103078216D01*
X143741376Y-103242188D01*
X143776000Y-103416259D01*
X143776000Y-103593741D01*
X143741376Y-103767812D01*
X143673456Y-103931784D01*
X143574853Y-104079354D01*
X143449354Y-104204853D01*
X143301784Y-104303456D01*
X143137812Y-104371376D01*
X142988512Y-104401073D01*
X142963742Y-104406000D01*
X142786258Y-104406000D01*
X142761488Y-104401073D01*
X142612188Y-104371376D01*
X142448216Y-104303456D01*
X142300646Y-104204853D01*
X142175147Y-104079354D01*
X142076544Y-103931784D01*
X142008624Y-103767812D01*
X141974000Y-103593741D01*
X141974000Y-103416259D01*
X142008624Y-103242188D01*
X142076544Y-103078216D01*
X142175147Y-102930646D01*
X142300646Y-102805147D01*
X142448216Y-102706544D01*
X142612188Y-102638624D01*
X142761488Y-102608927D01*
X142786258Y-102604000D01*
X142963742Y-102604000D01*
X142988512Y-102608927D01*
G37*
G36*
X95354769Y-100702188D02*
G01*
X95512812Y-100733624D01*
X95676784Y-100801544D01*
X95824354Y-100900147D01*
X95949853Y-101025646D01*
X96048456Y-101173216D01*
X96116376Y-101337188D01*
X96151000Y-101511259D01*
X96151000Y-101688741D01*
X96116376Y-101862812D01*
X96048456Y-102026784D01*
X95949853Y-102174354D01*
X95824354Y-102299853D01*
X95676784Y-102398456D01*
X95512812Y-102466376D01*
X95363512Y-102496073D01*
X95338742Y-102501000D01*
X95161258Y-102501000D01*
X95136488Y-102496073D01*
X94987188Y-102466376D01*
X94823216Y-102398456D01*
X94675646Y-102299853D01*
X94550147Y-102174354D01*
X94451544Y-102026784D01*
X94383624Y-101862812D01*
X94349000Y-101688741D01*
X94349000Y-101511259D01*
X94383624Y-101337188D01*
X94451544Y-101173216D01*
X94550147Y-101025646D01*
X94675646Y-100900147D01*
X94823216Y-100801544D01*
X94987188Y-100733624D01*
X95145231Y-100702188D01*
X95161258Y-100699000D01*
X95338742Y-100699000D01*
X95354769Y-100702188D01*
G37*
G36*
X69954769Y-100702188D02*
G01*
X70112812Y-100733624D01*
X70276784Y-100801544D01*
X70424354Y-100900147D01*
X70549853Y-101025646D01*
X70648456Y-101173216D01*
X70716376Y-101337188D01*
X70751000Y-101511259D01*
X70751000Y-101688741D01*
X70716376Y-101862812D01*
X70648456Y-102026784D01*
X70549853Y-102174354D01*
X70424354Y-102299853D01*
X70276784Y-102398456D01*
X70112812Y-102466376D01*
X69963512Y-102496073D01*
X69938742Y-102501000D01*
X69761258Y-102501000D01*
X69736488Y-102496073D01*
X69587188Y-102466376D01*
X69423216Y-102398456D01*
X69275646Y-102299853D01*
X69150147Y-102174354D01*
X69051544Y-102026784D01*
X68983624Y-101862812D01*
X68949000Y-101688741D01*
X68949000Y-101511259D01*
X68983624Y-101337188D01*
X69051544Y-101173216D01*
X69150147Y-101025646D01*
X69275646Y-100900147D01*
X69423216Y-100801544D01*
X69587188Y-100733624D01*
X69745231Y-100702188D01*
X69761258Y-100699000D01*
X69938742Y-100699000D01*
X69954769Y-100702188D01*
G37*
G36*
X142988512Y-100068927D02*
G01*
X143137812Y-100098624D01*
X143301784Y-100166544D01*
X143449354Y-100265147D01*
X143574853Y-100390646D01*
X143673456Y-100538216D01*
X143741376Y-100702188D01*
X143776000Y-100876259D01*
X143776000Y-101053741D01*
X143741376Y-101227812D01*
X143673456Y-101391784D01*
X143574853Y-101539354D01*
X143449354Y-101664853D01*
X143301784Y-101763456D01*
X143137812Y-101831376D01*
X142988512Y-101861073D01*
X142963742Y-101866000D01*
X142786258Y-101866000D01*
X142761488Y-101861073D01*
X142612188Y-101831376D01*
X142448216Y-101763456D01*
X142300646Y-101664853D01*
X142175147Y-101539354D01*
X142076544Y-101391784D01*
X142008624Y-101227812D01*
X141974000Y-101053741D01*
X141974000Y-100876259D01*
X142008624Y-100702188D01*
X142076544Y-100538216D01*
X142175147Y-100390646D01*
X142300646Y-100265147D01*
X142448216Y-100166544D01*
X142612188Y-100098624D01*
X142761488Y-100068927D01*
X142786258Y-100064000D01*
X142963742Y-100064000D01*
X142988512Y-100068927D01*
G37*
G36*
X117588512Y-100068927D02*
G01*
X117737812Y-100098624D01*
X117901784Y-100166544D01*
X118049354Y-100265147D01*
X118174853Y-100390646D01*
X118273456Y-100538216D01*
X118341376Y-100702188D01*
X118376000Y-100876259D01*
X118376000Y-101053741D01*
X118341376Y-101227812D01*
X118273456Y-101391784D01*
X118174853Y-101539354D01*
X118049354Y-101664853D01*
X117901784Y-101763456D01*
X117737812Y-101831376D01*
X117588512Y-101861073D01*
X117563742Y-101866000D01*
X117386258Y-101866000D01*
X117361488Y-101861073D01*
X117212188Y-101831376D01*
X117048216Y-101763456D01*
X116900646Y-101664853D01*
X116775147Y-101539354D01*
X116676544Y-101391784D01*
X116608624Y-101227812D01*
X116574000Y-101053741D01*
X116574000Y-100876259D01*
X116608624Y-100702188D01*
X116676544Y-100538216D01*
X116775147Y-100390646D01*
X116900646Y-100265147D01*
X117048216Y-100166544D01*
X117212188Y-100098624D01*
X117361488Y-100068927D01*
X117386258Y-100064000D01*
X117563742Y-100064000D01*
X117588512Y-100068927D01*
G37*
G36*
X95354769Y-98162188D02*
G01*
X95512812Y-98193624D01*
X95676784Y-98261544D01*
X95824354Y-98360147D01*
X95949853Y-98485646D01*
X96048456Y-98633216D01*
X96116376Y-98797188D01*
X96151000Y-98971259D01*
X96151000Y-99148741D01*
X96116376Y-99322812D01*
X96048456Y-99486784D01*
X95949853Y-99634354D01*
X95824354Y-99759853D01*
X95676784Y-99858456D01*
X95512812Y-99926376D01*
X95363512Y-99956073D01*
X95338742Y-99961000D01*
X95161258Y-99961000D01*
X95136488Y-99956073D01*
X94987188Y-99926376D01*
X94823216Y-99858456D01*
X94675646Y-99759853D01*
X94550147Y-99634354D01*
X94451544Y-99486784D01*
X94383624Y-99322812D01*
X94349000Y-99148741D01*
X94349000Y-98971259D01*
X94383624Y-98797188D01*
X94451544Y-98633216D01*
X94550147Y-98485646D01*
X94675646Y-98360147D01*
X94823216Y-98261544D01*
X94987188Y-98193624D01*
X95145231Y-98162188D01*
X95161258Y-98159000D01*
X95338742Y-98159000D01*
X95354769Y-98162188D01*
G37*
G36*
X69954769Y-98162188D02*
G01*
X70112812Y-98193624D01*
X70276784Y-98261544D01*
X70424354Y-98360147D01*
X70549853Y-98485646D01*
X70648456Y-98633216D01*
X70716376Y-98797188D01*
X70751000Y-98971259D01*
X70751000Y-99148741D01*
X70716376Y-99322812D01*
X70648456Y-99486784D01*
X70549853Y-99634354D01*
X70424354Y-99759853D01*
X70276784Y-99858456D01*
X70112812Y-99926376D01*
X69963512Y-99956073D01*
X69938742Y-99961000D01*
X69761258Y-99961000D01*
X69736488Y-99956073D01*
X69587188Y-99926376D01*
X69423216Y-99858456D01*
X69275646Y-99759853D01*
X69150147Y-99634354D01*
X69051544Y-99486784D01*
X68983624Y-99322812D01*
X68949000Y-99148741D01*
X68949000Y-98971259D01*
X68983624Y-98797188D01*
X69051544Y-98633216D01*
X69150147Y-98485646D01*
X69275646Y-98360147D01*
X69423216Y-98261544D01*
X69587188Y-98193624D01*
X69745231Y-98162188D01*
X69761258Y-98159000D01*
X69938742Y-98159000D01*
X69954769Y-98162188D01*
G37*
G36*
X142988512Y-97528927D02*
G01*
X143137812Y-97558624D01*
X143301784Y-97626544D01*
X143449354Y-97725147D01*
X143574853Y-97850646D01*
X143673456Y-97998216D01*
X143741376Y-98162188D01*
X143776000Y-98336259D01*
X143776000Y-98513741D01*
X143741376Y-98687812D01*
X143673456Y-98851784D01*
X143574853Y-98999354D01*
X143449354Y-99124853D01*
X143301784Y-99223456D01*
X143137812Y-99291376D01*
X142988512Y-99321073D01*
X142963742Y-99326000D01*
X142786258Y-99326000D01*
X142761488Y-99321073D01*
X142612188Y-99291376D01*
X142448216Y-99223456D01*
X142300646Y-99124853D01*
X142175147Y-98999354D01*
X142076544Y-98851784D01*
X142008624Y-98687812D01*
X141974000Y-98513741D01*
X141974000Y-98336259D01*
X142008624Y-98162188D01*
X142076544Y-97998216D01*
X142175147Y-97850646D01*
X142300646Y-97725147D01*
X142448216Y-97626544D01*
X142612188Y-97558624D01*
X142761488Y-97528927D01*
X142786258Y-97524000D01*
X142963742Y-97524000D01*
X142988512Y-97528927D01*
G37*
G36*
X117588512Y-97528927D02*
G01*
X117737812Y-97558624D01*
X117901784Y-97626544D01*
X118049354Y-97725147D01*
X118174853Y-97850646D01*
X118273456Y-97998216D01*
X118341376Y-98162188D01*
X118376000Y-98336259D01*
X118376000Y-98513741D01*
X118341376Y-98687812D01*
X118273456Y-98851784D01*
X118174853Y-98999354D01*
X118049354Y-99124853D01*
X117901784Y-99223456D01*
X117737812Y-99291376D01*
X117588512Y-99321073D01*
X117563742Y-99326000D01*
X117386258Y-99326000D01*
X117361488Y-99321073D01*
X117212188Y-99291376D01*
X117048216Y-99223456D01*
X116900646Y-99124853D01*
X116775147Y-98999354D01*
X116676544Y-98851784D01*
X116608624Y-98687812D01*
X116574000Y-98513741D01*
X116574000Y-98336259D01*
X116608624Y-98162188D01*
X116676544Y-97998216D01*
X116775147Y-97850646D01*
X116900646Y-97725147D01*
X117048216Y-97626544D01*
X117212188Y-97558624D01*
X117361488Y-97528927D01*
X117386258Y-97524000D01*
X117563742Y-97524000D01*
X117588512Y-97528927D01*
G37*
G36*
X95354769Y-95622188D02*
G01*
X95512812Y-95653624D01*
X95676784Y-95721544D01*
X95824354Y-95820147D01*
X95949853Y-95945646D01*
X96048456Y-96093216D01*
X96116376Y-96257188D01*
X96151000Y-96431259D01*
X96151000Y-96608741D01*
X96116376Y-96782812D01*
X96048456Y-96946784D01*
X95949853Y-97094354D01*
X95824354Y-97219853D01*
X95676784Y-97318456D01*
X95512812Y-97386376D01*
X95363512Y-97416073D01*
X95338742Y-97421000D01*
X95161258Y-97421000D01*
X95136488Y-97416073D01*
X94987188Y-97386376D01*
X94823216Y-97318456D01*
X94675646Y-97219853D01*
X94550147Y-97094354D01*
X94451544Y-96946784D01*
X94383624Y-96782812D01*
X94349000Y-96608741D01*
X94349000Y-96431259D01*
X94383624Y-96257188D01*
X94451544Y-96093216D01*
X94550147Y-95945646D01*
X94675646Y-95820147D01*
X94823216Y-95721544D01*
X94987188Y-95653624D01*
X95145231Y-95622188D01*
X95161258Y-95619000D01*
X95338742Y-95619000D01*
X95354769Y-95622188D01*
G37*
G36*
X69954769Y-95622188D02*
G01*
X70112812Y-95653624D01*
X70276784Y-95721544D01*
X70424354Y-95820147D01*
X70549853Y-95945646D01*
X70648456Y-96093216D01*
X70716376Y-96257188D01*
X70751000Y-96431259D01*
X70751000Y-96608741D01*
X70716376Y-96782812D01*
X70648456Y-96946784D01*
X70549853Y-97094354D01*
X70424354Y-97219853D01*
X70276784Y-97318456D01*
X70112812Y-97386376D01*
X69963512Y-97416073D01*
X69938742Y-97421000D01*
X69761258Y-97421000D01*
X69736488Y-97416073D01*
X69587188Y-97386376D01*
X69423216Y-97318456D01*
X69275646Y-97219853D01*
X69150147Y-97094354D01*
X69051544Y-96946784D01*
X68983624Y-96782812D01*
X68949000Y-96608741D01*
X68949000Y-96431259D01*
X68983624Y-96257188D01*
X69051544Y-96093216D01*
X69150147Y-95945646D01*
X69275646Y-95820147D01*
X69423216Y-95721544D01*
X69587188Y-95653624D01*
X69745231Y-95622188D01*
X69761258Y-95619000D01*
X69938742Y-95619000D01*
X69954769Y-95622188D01*
G37*
G36*
X142988512Y-94988927D02*
G01*
X143137812Y-95018624D01*
X143301784Y-95086544D01*
X143449354Y-95185147D01*
X143574853Y-95310646D01*
X143673456Y-95458216D01*
X143741376Y-95622188D01*
X143776000Y-95796259D01*
X143776000Y-95973741D01*
X143741376Y-96147812D01*
X143673456Y-96311784D01*
X143574853Y-96459354D01*
X143449354Y-96584853D01*
X143301784Y-96683456D01*
X143137812Y-96751376D01*
X142988512Y-96781073D01*
X142963742Y-96786000D01*
X142786258Y-96786000D01*
X142761488Y-96781073D01*
X142612188Y-96751376D01*
X142448216Y-96683456D01*
X142300646Y-96584853D01*
X142175147Y-96459354D01*
X142076544Y-96311784D01*
X142008624Y-96147812D01*
X141974000Y-95973741D01*
X141974000Y-95796259D01*
X142008624Y-95622188D01*
X142076544Y-95458216D01*
X142175147Y-95310646D01*
X142300646Y-95185147D01*
X142448216Y-95086544D01*
X142612188Y-95018624D01*
X142761488Y-94988927D01*
X142786258Y-94984000D01*
X142963742Y-94984000D01*
X142988512Y-94988927D01*
G37*
G36*
X117588512Y-94988927D02*
G01*
X117737812Y-95018624D01*
X117901784Y-95086544D01*
X118049354Y-95185147D01*
X118174853Y-95310646D01*
X118273456Y-95458216D01*
X118341376Y-95622188D01*
X118376000Y-95796259D01*
X118376000Y-95973741D01*
X118341376Y-96147812D01*
X118273456Y-96311784D01*
X118174853Y-96459354D01*
X118049354Y-96584853D01*
X117901784Y-96683456D01*
X117737812Y-96751376D01*
X117588512Y-96781073D01*
X117563742Y-96786000D01*
X117386258Y-96786000D01*
X117361488Y-96781073D01*
X117212188Y-96751376D01*
X117048216Y-96683456D01*
X116900646Y-96584853D01*
X116775147Y-96459354D01*
X116676544Y-96311784D01*
X116608624Y-96147812D01*
X116574000Y-95973741D01*
X116574000Y-95796259D01*
X116608624Y-95622188D01*
X116676544Y-95458216D01*
X116775147Y-95310646D01*
X116900646Y-95185147D01*
X117048216Y-95086544D01*
X117212188Y-95018624D01*
X117361488Y-94988927D01*
X117386258Y-94984000D01*
X117563742Y-94984000D01*
X117588512Y-94988927D01*
G37*
G36*
X95354769Y-93082188D02*
G01*
X95512812Y-93113624D01*
X95676784Y-93181544D01*
X95824354Y-93280147D01*
X95949853Y-93405646D01*
X96048456Y-93553216D01*
X96116376Y-93717188D01*
X96151000Y-93891259D01*
X96151000Y-94068741D01*
X96116376Y-94242812D01*
X96048456Y-94406784D01*
X95949853Y-94554354D01*
X95824354Y-94679853D01*
X95676784Y-94778456D01*
X95512812Y-94846376D01*
X95363512Y-94876073D01*
X95338742Y-94881000D01*
X95161258Y-94881000D01*
X95136488Y-94876073D01*
X94987188Y-94846376D01*
X94823216Y-94778456D01*
X94675646Y-94679853D01*
X94550147Y-94554354D01*
X94451544Y-94406784D01*
X94383624Y-94242812D01*
X94349000Y-94068741D01*
X94349000Y-93891259D01*
X94383624Y-93717188D01*
X94451544Y-93553216D01*
X94550147Y-93405646D01*
X94675646Y-93280147D01*
X94823216Y-93181544D01*
X94987188Y-93113624D01*
X95145231Y-93082188D01*
X95161258Y-93079000D01*
X95338742Y-93079000D01*
X95354769Y-93082188D01*
G37*
G36*
X69954769Y-93082188D02*
G01*
X70112812Y-93113624D01*
X70276784Y-93181544D01*
X70424354Y-93280147D01*
X70549853Y-93405646D01*
X70648456Y-93553216D01*
X70716376Y-93717188D01*
X70751000Y-93891259D01*
X70751000Y-94068741D01*
X70716376Y-94242812D01*
X70648456Y-94406784D01*
X70549853Y-94554354D01*
X70424354Y-94679853D01*
X70276784Y-94778456D01*
X70112812Y-94846376D01*
X69963512Y-94876073D01*
X69938742Y-94881000D01*
X69761258Y-94881000D01*
X69736488Y-94876073D01*
X69587188Y-94846376D01*
X69423216Y-94778456D01*
X69275646Y-94679853D01*
X69150147Y-94554354D01*
X69051544Y-94406784D01*
X68983624Y-94242812D01*
X68949000Y-94068741D01*
X68949000Y-93891259D01*
X68983624Y-93717188D01*
X69051544Y-93553216D01*
X69150147Y-93405646D01*
X69275646Y-93280147D01*
X69423216Y-93181544D01*
X69587188Y-93113624D01*
X69745231Y-93082188D01*
X69761258Y-93079000D01*
X69938742Y-93079000D01*
X69954769Y-93082188D01*
G37*
G36*
X157726000Y-94691000D02*
G01*
X156624000Y-94691000D01*
X156624000Y-93089000D01*
X157726000Y-93089000D01*
X157726000Y-94691000D01*
G37*
G36*
X154526000Y-94691000D02*
G01*
X153424000Y-94691000D01*
X153424000Y-93089000D01*
X154526000Y-93089000D01*
X154526000Y-94691000D01*
G37*
G36*
X117588512Y-92448927D02*
G01*
X117737812Y-92478624D01*
X117901784Y-92546544D01*
X118049354Y-92645147D01*
X118174853Y-92770646D01*
X118273456Y-92918216D01*
X118341376Y-93082188D01*
X118376000Y-93256259D01*
X118376000Y-93433741D01*
X118341376Y-93607812D01*
X118273456Y-93771784D01*
X118174853Y-93919354D01*
X118049354Y-94044853D01*
X117901784Y-94143456D01*
X117737812Y-94211376D01*
X117588512Y-94241073D01*
X117563742Y-94246000D01*
X117386258Y-94246000D01*
X117361488Y-94241073D01*
X117212188Y-94211376D01*
X117048216Y-94143456D01*
X116900646Y-94044853D01*
X116775147Y-93919354D01*
X116676544Y-93771784D01*
X116608624Y-93607812D01*
X116574000Y-93433741D01*
X116574000Y-93256259D01*
X116608624Y-93082188D01*
X116676544Y-92918216D01*
X116775147Y-92770646D01*
X116900646Y-92645147D01*
X117048216Y-92546544D01*
X117212188Y-92478624D01*
X117361488Y-92448927D01*
X117386258Y-92444000D01*
X117563742Y-92444000D01*
X117588512Y-92448927D01*
G37*
G36*
X142988512Y-92448927D02*
G01*
X143137812Y-92478624D01*
X143301784Y-92546544D01*
X143449354Y-92645147D01*
X143574853Y-92770646D01*
X143673456Y-92918216D01*
X143741376Y-93082188D01*
X143776000Y-93256259D01*
X143776000Y-93433741D01*
X143741376Y-93607812D01*
X143673456Y-93771784D01*
X143574853Y-93919354D01*
X143449354Y-94044853D01*
X143301784Y-94143456D01*
X143137812Y-94211376D01*
X142988512Y-94241073D01*
X142963742Y-94246000D01*
X142786258Y-94246000D01*
X142761488Y-94241073D01*
X142612188Y-94211376D01*
X142448216Y-94143456D01*
X142300646Y-94044853D01*
X142175147Y-93919354D01*
X142076544Y-93771784D01*
X142008624Y-93607812D01*
X141974000Y-93433741D01*
X141974000Y-93256259D01*
X142008624Y-93082188D01*
X142076544Y-92918216D01*
X142175147Y-92770646D01*
X142300646Y-92645147D01*
X142448216Y-92546544D01*
X142612188Y-92478624D01*
X142761488Y-92448927D01*
X142786258Y-92444000D01*
X142963742Y-92444000D01*
X142988512Y-92448927D01*
G37*
G36*
X95354769Y-90542188D02*
G01*
X95512812Y-90573624D01*
X95676784Y-90641544D01*
X95824354Y-90740147D01*
X95949853Y-90865646D01*
X96048456Y-91013216D01*
X96116376Y-91177188D01*
X96151000Y-91351259D01*
X96151000Y-91528741D01*
X96116376Y-91702812D01*
X96048456Y-91866784D01*
X95949853Y-92014354D01*
X95824354Y-92139853D01*
X95676784Y-92238456D01*
X95512812Y-92306376D01*
X95363512Y-92336073D01*
X95338742Y-92341000D01*
X95161258Y-92341000D01*
X95136488Y-92336073D01*
X94987188Y-92306376D01*
X94823216Y-92238456D01*
X94675646Y-92139853D01*
X94550147Y-92014354D01*
X94451544Y-91866784D01*
X94383624Y-91702812D01*
X94349000Y-91528741D01*
X94349000Y-91351259D01*
X94383624Y-91177188D01*
X94451544Y-91013216D01*
X94550147Y-90865646D01*
X94675646Y-90740147D01*
X94823216Y-90641544D01*
X94987188Y-90573624D01*
X95145231Y-90542188D01*
X95161258Y-90539000D01*
X95338742Y-90539000D01*
X95354769Y-90542188D01*
G37*
G36*
X69954769Y-90542188D02*
G01*
X70112812Y-90573624D01*
X70276784Y-90641544D01*
X70424354Y-90740147D01*
X70549853Y-90865646D01*
X70648456Y-91013216D01*
X70716376Y-91177188D01*
X70751000Y-91351259D01*
X70751000Y-91528741D01*
X70716376Y-91702812D01*
X70648456Y-91866784D01*
X70549853Y-92014354D01*
X70424354Y-92139853D01*
X70276784Y-92238456D01*
X70112812Y-92306376D01*
X69963512Y-92336073D01*
X69938742Y-92341000D01*
X69761258Y-92341000D01*
X69736488Y-92336073D01*
X69587188Y-92306376D01*
X69423216Y-92238456D01*
X69275646Y-92139853D01*
X69150147Y-92014354D01*
X69051544Y-91866784D01*
X68983624Y-91702812D01*
X68949000Y-91528741D01*
X68949000Y-91351259D01*
X68983624Y-91177188D01*
X69051544Y-91013216D01*
X69150147Y-90865646D01*
X69275646Y-90740147D01*
X69423216Y-90641544D01*
X69587188Y-90573624D01*
X69745231Y-90542188D01*
X69761258Y-90539000D01*
X69938742Y-90539000D01*
X69954769Y-90542188D01*
G37*
G36*
X142988512Y-89908927D02*
G01*
X143137812Y-89938624D01*
X143301784Y-90006544D01*
X143449354Y-90105147D01*
X143574853Y-90230646D01*
X143673456Y-90378216D01*
X143741376Y-90542188D01*
X143776000Y-90716259D01*
X143776000Y-90893741D01*
X143741376Y-91067812D01*
X143673456Y-91231784D01*
X143574853Y-91379354D01*
X143449354Y-91504853D01*
X143301784Y-91603456D01*
X143137812Y-91671376D01*
X142988512Y-91701073D01*
X142963742Y-91706000D01*
X142786258Y-91706000D01*
X142761488Y-91701073D01*
X142612188Y-91671376D01*
X142448216Y-91603456D01*
X142300646Y-91504853D01*
X142175147Y-91379354D01*
X142076544Y-91231784D01*
X142008624Y-91067812D01*
X141974000Y-90893741D01*
X141974000Y-90716259D01*
X142008624Y-90542188D01*
X142076544Y-90378216D01*
X142175147Y-90230646D01*
X142300646Y-90105147D01*
X142448216Y-90006544D01*
X142612188Y-89938624D01*
X142761488Y-89908927D01*
X142786258Y-89904000D01*
X142963742Y-89904000D01*
X142988512Y-89908927D01*
G37*
G36*
X117588512Y-89908927D02*
G01*
X117737812Y-89938624D01*
X117901784Y-90006544D01*
X118049354Y-90105147D01*
X118174853Y-90230646D01*
X118273456Y-90378216D01*
X118341376Y-90542188D01*
X118376000Y-90716259D01*
X118376000Y-90893741D01*
X118341376Y-91067812D01*
X118273456Y-91231784D01*
X118174853Y-91379354D01*
X118049354Y-91504853D01*
X117901784Y-91603456D01*
X117737812Y-91671376D01*
X117588512Y-91701073D01*
X117563742Y-91706000D01*
X117386258Y-91706000D01*
X117361488Y-91701073D01*
X117212188Y-91671376D01*
X117048216Y-91603456D01*
X116900646Y-91504853D01*
X116775147Y-91379354D01*
X116676544Y-91231784D01*
X116608624Y-91067812D01*
X116574000Y-90893741D01*
X116574000Y-90716259D01*
X116608624Y-90542188D01*
X116676544Y-90378216D01*
X116775147Y-90230646D01*
X116900646Y-90105147D01*
X117048216Y-90006544D01*
X117212188Y-89938624D01*
X117361488Y-89908927D01*
X117386258Y-89904000D01*
X117563742Y-89904000D01*
X117588512Y-89908927D01*
G37*
G36*
X70751000Y-89801000D02*
G01*
X68949000Y-89801000D01*
X68949000Y-87999000D01*
X70751000Y-87999000D01*
X70751000Y-89801000D01*
G37*
G36*
X96151000Y-89801000D02*
G01*
X94349000Y-89801000D01*
X94349000Y-87999000D01*
X96151000Y-87999000D01*
X96151000Y-89801000D01*
G37*
G36*
X154526000Y-89791000D02*
G01*
X153424000Y-89791000D01*
X153424000Y-88189000D01*
X154526000Y-88189000D01*
X154526000Y-89791000D01*
G37*
G36*
X157726000Y-89791000D02*
G01*
X156624000Y-89791000D01*
X156624000Y-88189000D01*
X157726000Y-88189000D01*
X157726000Y-89791000D01*
G37*
G36*
X117588512Y-87368927D02*
G01*
X117737812Y-87398624D01*
X117901784Y-87466544D01*
X118049354Y-87565147D01*
X118174853Y-87690646D01*
X118273456Y-87838216D01*
X118341376Y-88002188D01*
X118376000Y-88176259D01*
X118376000Y-88353741D01*
X118341376Y-88527812D01*
X118273456Y-88691784D01*
X118174853Y-88839354D01*
X118049354Y-88964853D01*
X117901784Y-89063456D01*
X117737812Y-89131376D01*
X117588512Y-89161073D01*
X117563742Y-89166000D01*
X117386258Y-89166000D01*
X117361488Y-89161073D01*
X117212188Y-89131376D01*
X117048216Y-89063456D01*
X116900646Y-88964853D01*
X116775147Y-88839354D01*
X116676544Y-88691784D01*
X116608624Y-88527812D01*
X116574000Y-88353741D01*
X116574000Y-88176259D01*
X116608624Y-88002188D01*
X116676544Y-87838216D01*
X116775147Y-87690646D01*
X116900646Y-87565147D01*
X117048216Y-87466544D01*
X117212188Y-87398624D01*
X117361488Y-87368927D01*
X117386258Y-87364000D01*
X117563742Y-87364000D01*
X117588512Y-87368927D01*
G37*
G36*
X142988512Y-87368927D02*
G01*
X143137812Y-87398624D01*
X143301784Y-87466544D01*
X143449354Y-87565147D01*
X143574853Y-87690646D01*
X143673456Y-87838216D01*
X143741376Y-88002188D01*
X143776000Y-88176259D01*
X143776000Y-88353741D01*
X143741376Y-88527812D01*
X143673456Y-88691784D01*
X143574853Y-88839354D01*
X143449354Y-88964853D01*
X143301784Y-89063456D01*
X143137812Y-89131376D01*
X142988512Y-89161073D01*
X142963742Y-89166000D01*
X142786258Y-89166000D01*
X142761488Y-89161073D01*
X142612188Y-89131376D01*
X142448216Y-89063456D01*
X142300646Y-88964853D01*
X142175147Y-88839354D01*
X142076544Y-88691784D01*
X142008624Y-88527812D01*
X141974000Y-88353741D01*
X141974000Y-88176259D01*
X142008624Y-88002188D01*
X142076544Y-87838216D01*
X142175147Y-87690646D01*
X142300646Y-87565147D01*
X142448216Y-87466544D01*
X142612188Y-87398624D01*
X142761488Y-87368927D01*
X142786258Y-87364000D01*
X142963742Y-87364000D01*
X142988512Y-87368927D01*
G37*
G36*
X142988512Y-84828927D02*
G01*
X143137812Y-84858624D01*
X143301784Y-84926544D01*
X143449354Y-85025147D01*
X143574853Y-85150646D01*
X143673456Y-85298216D01*
X143741376Y-85462188D01*
X143776000Y-85636259D01*
X143776000Y-85813741D01*
X143741376Y-85987812D01*
X143673456Y-86151784D01*
X143574853Y-86299354D01*
X143449354Y-86424853D01*
X143301784Y-86523456D01*
X143137812Y-86591376D01*
X142988512Y-86621073D01*
X142963742Y-86626000D01*
X142786258Y-86626000D01*
X142761488Y-86621073D01*
X142612188Y-86591376D01*
X142448216Y-86523456D01*
X142300646Y-86424853D01*
X142175147Y-86299354D01*
X142076544Y-86151784D01*
X142008624Y-85987812D01*
X141974000Y-85813741D01*
X141974000Y-85636259D01*
X142008624Y-85462188D01*
X142076544Y-85298216D01*
X142175147Y-85150646D01*
X142300646Y-85025147D01*
X142448216Y-84926544D01*
X142612188Y-84858624D01*
X142761488Y-84828927D01*
X142786258Y-84824000D01*
X142963742Y-84824000D01*
X142988512Y-84828927D01*
G37*
G36*
X117588512Y-84828927D02*
G01*
X117737812Y-84858624D01*
X117901784Y-84926544D01*
X118049354Y-85025147D01*
X118174853Y-85150646D01*
X118273456Y-85298216D01*
X118341376Y-85462188D01*
X118376000Y-85636259D01*
X118376000Y-85813741D01*
X118341376Y-85987812D01*
X118273456Y-86151784D01*
X118174853Y-86299354D01*
X118049354Y-86424853D01*
X117901784Y-86523456D01*
X117737812Y-86591376D01*
X117588512Y-86621073D01*
X117563742Y-86626000D01*
X117386258Y-86626000D01*
X117361488Y-86621073D01*
X117212188Y-86591376D01*
X117048216Y-86523456D01*
X116900646Y-86424853D01*
X116775147Y-86299354D01*
X116676544Y-86151784D01*
X116608624Y-85987812D01*
X116574000Y-85813741D01*
X116574000Y-85636259D01*
X116608624Y-85462188D01*
X116676544Y-85298216D01*
X116775147Y-85150646D01*
X116900646Y-85025147D01*
X117048216Y-84926544D01*
X117212188Y-84858624D01*
X117361488Y-84828927D01*
X117386258Y-84824000D01*
X117563742Y-84824000D01*
X117588512Y-84828927D01*
G37*
G36*
X119085880Y-76514776D02*
G01*
X119466593Y-76590504D01*
X119876249Y-76760189D01*
X120244929Y-77006534D01*
X120558466Y-77320071D01*
X120804811Y-77688751D01*
X120974496Y-78098407D01*
X121061000Y-78533296D01*
X121061000Y-78976704D01*
X120974496Y-79411593D01*
X120804811Y-79821249D01*
X120558466Y-80189929D01*
X120244929Y-80503466D01*
X119876249Y-80749811D01*
X119466593Y-80919496D01*
X119085880Y-80995224D01*
X119031705Y-81006000D01*
X118588295Y-81006000D01*
X118534120Y-80995224D01*
X118153407Y-80919496D01*
X117743751Y-80749811D01*
X117375071Y-80503466D01*
X117061534Y-80189929D01*
X116815189Y-79821249D01*
X116645504Y-79411593D01*
X116559000Y-78976704D01*
X116559000Y-78533296D01*
X116645504Y-78098407D01*
X116815189Y-77688751D01*
X117061534Y-77320071D01*
X117375071Y-77006534D01*
X117743751Y-76760189D01*
X118153407Y-76590504D01*
X118534120Y-76514776D01*
X118588295Y-76504000D01*
X119031705Y-76504000D01*
X119085880Y-76514776D01*
G37*
G36*
X144485880Y-76014776D02*
G01*
X144866593Y-76090504D01*
X145276249Y-76260189D01*
X145644929Y-76506534D01*
X145958466Y-76820071D01*
X146204811Y-77188751D01*
X146374496Y-77598407D01*
X146461000Y-78033296D01*
X146461000Y-78476704D01*
X146374496Y-78911593D01*
X146204811Y-79321249D01*
X145958466Y-79689929D01*
X145644929Y-80003466D01*
X145276249Y-80249811D01*
X144866593Y-80419496D01*
X144485880Y-80495224D01*
X144431705Y-80506000D01*
X143988295Y-80506000D01*
X143934120Y-80495224D01*
X143553407Y-80419496D01*
X143143751Y-80249811D01*
X142775071Y-80003466D01*
X142461534Y-79689929D01*
X142215189Y-79321249D01*
X142045504Y-78911593D01*
X141959000Y-78476704D01*
X141959000Y-78033296D01*
X142045504Y-77598407D01*
X142215189Y-77188751D01*
X142461534Y-76820071D01*
X142775071Y-76506534D01*
X143143751Y-76260189D01*
X143553407Y-76090504D01*
X143934120Y-76014776D01*
X143988295Y-76004000D01*
X144431705Y-76004000D01*
X144485880Y-76014776D01*
G37*
G36*
X69849239Y-73011467D02*
G01*
X70163282Y-73073934D01*
X70754926Y-73319001D01*
X71287392Y-73674784D01*
X71740216Y-74127608D01*
X72095999Y-74660074D01*
X72341066Y-75251718D01*
X72466000Y-75879804D01*
X72466000Y-76520196D01*
X72341066Y-77148282D01*
X72095999Y-77739926D01*
X71740216Y-78272392D01*
X71287392Y-78725216D01*
X70754926Y-79080999D01*
X70163282Y-79326066D01*
X69849239Y-79388533D01*
X69535197Y-79451000D01*
X68894803Y-79451000D01*
X68580761Y-79388533D01*
X68266718Y-79326066D01*
X67675074Y-79080999D01*
X67142608Y-78725216D01*
X66689784Y-78272392D01*
X66334001Y-77739926D01*
X66088934Y-77148282D01*
X65964000Y-76520196D01*
X65964000Y-75879804D01*
X66088934Y-75251718D01*
X66334001Y-74660074D01*
X66689784Y-74127608D01*
X67142608Y-73674784D01*
X67675074Y-73319001D01*
X68266718Y-73073934D01*
X68580761Y-73011467D01*
X68894803Y-72949000D01*
X69535197Y-72949000D01*
X69849239Y-73011467D01*
G37*
G36*
X154526000Y-79451000D02*
G01*
X153424000Y-79451000D01*
X153424000Y-77849000D01*
X154526000Y-77849000D01*
X154526000Y-79451000D01*
G37*
G36*
X157726000Y-79451000D02*
G01*
X156624000Y-79451000D01*
X156624000Y-77849000D01*
X157726000Y-77849000D01*
X157726000Y-79451000D01*
G37*
G36*
X157726000Y-74551000D02*
G01*
X156624000Y-74551000D01*
X156624000Y-72949000D01*
X157726000Y-72949000D01*
X157726000Y-74551000D01*
G37*
G36*
X154526000Y-74551000D02*
G01*
X153424000Y-74551000D01*
X153424000Y-72949000D01*
X154526000Y-72949000D01*
X154526000Y-74551000D01*
G37*
G36*
X158251626Y-66297037D02*
G01*
X158421465Y-66348557D01*
X158421467Y-66348558D01*
X158577989Y-66432221D01*
X158715186Y-66544814D01*
X158798448Y-66646271D01*
X158827778Y-66682009D01*
X158911443Y-66838534D01*
X158962963Y-67008373D01*
X158976000Y-67140742D01*
X158976000Y-67479257D01*
X158962963Y-67611626D01*
X158911443Y-67781466D01*
X158827778Y-67937991D01*
X158798448Y-67973729D01*
X158715186Y-68075186D01*
X158620250Y-68153097D01*
X158577991Y-68187778D01*
X158421466Y-68271443D01*
X158251627Y-68322963D01*
X158075000Y-68340359D01*
X157898374Y-68322963D01*
X157728535Y-68271443D01*
X157572010Y-68187778D01*
X157434815Y-68075185D01*
X157322222Y-67937991D01*
X157238557Y-67781466D01*
X157187037Y-67611627D01*
X157174000Y-67479258D01*
X157174000Y-67140743D01*
X157187037Y-67008374D01*
X157238557Y-66838535D01*
X157322222Y-66682010D01*
X157322223Y-66682009D01*
X157434814Y-66544814D01*
X157536271Y-66461552D01*
X157572009Y-66432222D01*
X157728534Y-66348557D01*
X157898373Y-66297037D01*
X158075000Y-66279641D01*
X158251626Y-66297037D01*
G37*
G36*
X155751626Y-66297037D02*
G01*
X155921465Y-66348557D01*
X155921467Y-66348558D01*
X156077989Y-66432221D01*
X156215186Y-66544814D01*
X156298448Y-66646271D01*
X156327778Y-66682009D01*
X156411443Y-66838534D01*
X156462963Y-67008373D01*
X156476000Y-67140742D01*
X156476000Y-67479257D01*
X156462963Y-67611626D01*
X156411443Y-67781466D01*
X156327778Y-67937991D01*
X156298448Y-67973729D01*
X156215186Y-68075186D01*
X156120250Y-68153097D01*
X156077991Y-68187778D01*
X155921466Y-68271443D01*
X155751627Y-68322963D01*
X155575000Y-68340359D01*
X155398374Y-68322963D01*
X155228535Y-68271443D01*
X155072010Y-68187778D01*
X154934815Y-68075185D01*
X154822222Y-67937991D01*
X154738557Y-67781466D01*
X154687037Y-67611627D01*
X154674000Y-67479258D01*
X154674000Y-67140743D01*
X154687037Y-67008374D01*
X154738557Y-66838535D01*
X154822222Y-66682010D01*
X154822223Y-66682009D01*
X154934814Y-66544814D01*
X155036271Y-66461552D01*
X155072009Y-66432222D01*
X155228534Y-66348557D01*
X155398373Y-66297037D01*
X155575000Y-66279641D01*
X155751626Y-66297037D01*
G37*
G36*
X153833600Y-66287989D02*
G01*
X153866652Y-66298015D01*
X153897103Y-66314292D01*
X153923799Y-66336201D01*
X153945708Y-66362897D01*
X153961985Y-66393348D01*
X153972011Y-66426400D01*
X153976000Y-66466903D01*
X153976000Y-68153097D01*
X153972011Y-68193600D01*
X153961985Y-68226652D01*
X153945708Y-68257103D01*
X153923799Y-68283799D01*
X153897103Y-68305708D01*
X153866652Y-68321985D01*
X153833600Y-68332011D01*
X153793097Y-68336000D01*
X152356903Y-68336000D01*
X152316400Y-68332011D01*
X152283348Y-68321985D01*
X152252897Y-68305708D01*
X152226201Y-68283799D01*
X152204292Y-68257103D01*
X152188015Y-68226652D01*
X152177989Y-68193600D01*
X152174000Y-68153097D01*
X152174000Y-66466903D01*
X152177989Y-66426400D01*
X152188015Y-66393348D01*
X152204292Y-66362897D01*
X152226201Y-66336201D01*
X152252897Y-66314292D01*
X152283348Y-66298015D01*
X152316400Y-66287989D01*
X152356903Y-66284000D01*
X153793097Y-66284000D01*
X153833600Y-66287989D01*
G37*
G36*
X96512950Y-60310216D02*
G01*
X96833282Y-60373934D01*
X97424926Y-60619001D01*
X97957392Y-60974784D01*
X98410216Y-61427608D01*
X98765999Y-61960074D01*
X99011066Y-62551718D01*
X99136000Y-63179804D01*
X99136000Y-63820196D01*
X99011066Y-64448282D01*
X98765999Y-65039926D01*
X98410216Y-65572392D01*
X97957392Y-66025216D01*
X97424926Y-66380999D01*
X96833282Y-66626066D01*
X96552037Y-66682009D01*
X96205197Y-66751000D01*
X95564803Y-66751000D01*
X95217963Y-66682009D01*
X94936718Y-66626066D01*
X94345074Y-66380999D01*
X93812608Y-66025216D01*
X93359784Y-65572392D01*
X93004001Y-65039926D01*
X92758934Y-64448282D01*
X92634000Y-63820196D01*
X92634000Y-63179804D01*
X92758934Y-62551718D01*
X93004001Y-61960074D01*
X93359784Y-61427608D01*
X93812608Y-60974784D01*
X94345074Y-60619001D01*
X94936718Y-60373934D01*
X95257050Y-60310216D01*
X95564803Y-60249000D01*
X96205197Y-60249000D01*
X96512950Y-60310216D01*
G37*
G36*
X156209239Y-54596467D02*
G01*
X156523282Y-54658934D01*
X157114926Y-54904001D01*
X157647392Y-55259784D01*
X158100216Y-55712608D01*
X158455999Y-56245074D01*
X158701066Y-56836718D01*
X158707783Y-56870486D01*
X158826000Y-57464803D01*
X158826000Y-58105197D01*
X158763533Y-58419239D01*
X158701066Y-58733282D01*
X158455999Y-59324926D01*
X158100216Y-59857392D01*
X157647392Y-60310216D01*
X157114926Y-60665999D01*
X156523282Y-60911066D01*
X156209239Y-60973533D01*
X155895197Y-61036000D01*
X155254803Y-61036000D01*
X154940761Y-60973533D01*
X154626718Y-60911066D01*
X154035074Y-60665999D01*
X153502608Y-60310216D01*
X153049784Y-59857392D01*
X152694001Y-59324926D01*
X152448934Y-58733282D01*
X152386467Y-58419239D01*
X152324000Y-58105197D01*
X152324000Y-57464803D01*
X152442217Y-56870486D01*
X152448934Y-56836718D01*
X152694001Y-56245074D01*
X153049784Y-55712608D01*
X153502608Y-55259784D01*
X154035074Y-54904001D01*
X154626718Y-54658934D01*
X154940761Y-54596467D01*
X155254803Y-54534000D01*
X155895197Y-54534000D01*
X156209239Y-54596467D01*
G37*
G36*
X69849239Y-54596467D02*
G01*
X70163282Y-54658934D01*
X70754926Y-54904001D01*
X71287392Y-55259784D01*
X71740216Y-55712608D01*
X72095999Y-56245074D01*
X72341066Y-56836718D01*
X72347783Y-56870486D01*
X72466000Y-57464803D01*
X72466000Y-58105197D01*
X72403533Y-58419239D01*
X72341066Y-58733282D01*
X72095999Y-59324926D01*
X71740216Y-59857392D01*
X71287392Y-60310216D01*
X70754926Y-60665999D01*
X70163282Y-60911066D01*
X69849239Y-60973533D01*
X69535197Y-61036000D01*
X68894803Y-61036000D01*
X68580761Y-60973533D01*
X68266718Y-60911066D01*
X67675074Y-60665999D01*
X67142608Y-60310216D01*
X66689784Y-59857392D01*
X66334001Y-59324926D01*
X66088934Y-58733282D01*
X66026467Y-58419239D01*
X65964000Y-58105197D01*
X65964000Y-57464803D01*
X66082217Y-56870486D01*
X66088934Y-56836718D01*
X66334001Y-56245074D01*
X66689784Y-55712608D01*
X67142608Y-55259784D01*
X67675074Y-54904001D01*
X68266718Y-54658934D01*
X68580761Y-54596467D01*
X68894803Y-54534000D01*
X69535197Y-54534000D01*
X69849239Y-54596467D01*
G37*
G36*
X138429239Y-54596467D02*
G01*
X138743282Y-54658934D01*
X139334926Y-54904001D01*
X139867392Y-55259784D01*
X140320216Y-55712608D01*
X140675999Y-56245074D01*
X140921066Y-56836718D01*
X140927783Y-56870486D01*
X141046000Y-57464803D01*
X141046000Y-58105197D01*
X140983533Y-58419239D01*
X140921066Y-58733282D01*
X140675999Y-59324926D01*
X140320216Y-59857392D01*
X139867392Y-60310216D01*
X139334926Y-60665999D01*
X138743282Y-60911066D01*
X138429239Y-60973533D01*
X138115197Y-61036000D01*
X137474803Y-61036000D01*
X137160761Y-60973533D01*
X136846718Y-60911066D01*
X136255074Y-60665999D01*
X135722608Y-60310216D01*
X135269784Y-59857392D01*
X134914001Y-59324926D01*
X134668934Y-58733282D01*
X134606467Y-58419239D01*
X134544000Y-58105197D01*
X134544000Y-57464803D01*
X134662217Y-56870486D01*
X134668934Y-56836718D01*
X134914001Y-56245074D01*
X135269784Y-55712608D01*
X135722608Y-55259784D01*
X136255074Y-54904001D01*
X136846718Y-54658934D01*
X137160761Y-54596467D01*
X137474803Y-54534000D01*
X138115197Y-54534000D01*
X138429239Y-54596467D01*
G37*
G36*
X104517817Y-56307696D02*
G01*
X104631104Y-56342062D01*
X104735511Y-56397869D01*
X104735513Y-56397870D01*
X104735512Y-56397870D01*
X104827027Y-56472973D01*
X104890711Y-56550572D01*
X104902131Y-56564488D01*
X104957938Y-56668895D01*
X104992304Y-56782182D01*
X105001000Y-56870481D01*
X105001000Y-57429519D01*
X104992304Y-57517818D01*
X104957938Y-57631105D01*
X104902131Y-57735512D01*
X104827027Y-57827027D01*
X104735512Y-57902131D01*
X104631105Y-57957938D01*
X104517818Y-57992304D01*
X104400000Y-58003907D01*
X104282183Y-57992304D01*
X104168896Y-57957938D01*
X104064489Y-57902131D01*
X103972974Y-57827027D01*
X103897869Y-57735512D01*
X103842062Y-57631105D01*
X103807696Y-57517818D01*
X103799000Y-57429519D01*
X103799000Y-56870482D01*
X103807696Y-56782183D01*
X103842062Y-56668896D01*
X103897869Y-56564489D01*
X103933057Y-56521612D01*
X103972973Y-56472973D01*
X104064487Y-56397870D01*
X104064486Y-56397870D01*
X104064488Y-56397869D01*
X104168895Y-56342062D01*
X104282182Y-56307696D01*
X104400000Y-56296093D01*
X104517817Y-56307696D01*
G37*
G36*
X111617817Y-56307696D02*
G01*
X111731104Y-56342062D01*
X111835511Y-56397869D01*
X111835513Y-56397870D01*
X111835512Y-56397870D01*
X111927027Y-56472973D01*
X111990711Y-56550572D01*
X112002131Y-56564488D01*
X112057938Y-56668895D01*
X112092304Y-56782182D01*
X112101000Y-56870481D01*
X112101000Y-57429519D01*
X112092304Y-57517818D01*
X112057938Y-57631105D01*
X112002131Y-57735512D01*
X111927027Y-57827027D01*
X111835512Y-57902131D01*
X111731105Y-57957938D01*
X111617818Y-57992304D01*
X111500000Y-58003907D01*
X111382183Y-57992304D01*
X111268896Y-57957938D01*
X111164489Y-57902131D01*
X111072974Y-57827027D01*
X110997869Y-57735512D01*
X110942062Y-57631105D01*
X110907696Y-57517818D01*
X110899000Y-57429519D01*
X110899000Y-56870482D01*
X110907696Y-56782183D01*
X110942062Y-56668896D01*
X110997869Y-56564489D01*
X111033057Y-56521612D01*
X111072973Y-56472973D01*
X111164487Y-56397870D01*
X111164486Y-56397870D01*
X111164488Y-56397869D01*
X111268895Y-56342062D01*
X111382182Y-56307696D01*
X111500000Y-56296093D01*
X111617817Y-56307696D01*
G37*
M02*
