G04 #@! TF.GenerationSoftware,KiCad,Pcbnew,(5.1.5)-3*
G04 #@! TF.CreationDate,2021-11-03T13:02:22+09:00*
G04 #@! TF.ProjectId,control_boad_2021-2,636f6e74-726f-46c5-9f62-6f61645f3230,rev?*
G04 #@! TF.SameCoordinates,Original*
G04 #@! TF.FileFunction,Legend,Top*
G04 #@! TF.FilePolarity,Positive*
%FSLAX46Y46*%
G04 Gerber Fmt 4.6, Leading zero omitted, Abs format (unit mm)*
G04 Created by KiCad (PCBNEW (5.1.5)-3) date 2021-11-03 13:02:22*
%MOMM*%
%LPD*%
G04 APERTURE LIST*
%ADD10C,0.150000*%
%ADD11C,0.200000*%
%ADD12C,0.120000*%
G04 APERTURE END LIST*
D10*
X84272380Y-140207142D02*
X83272380Y-140207142D01*
X84224761Y-140207142D02*
X84272380Y-140302380D01*
X84272380Y-140492857D01*
X84224761Y-140588095D01*
X84177142Y-140635714D01*
X84081904Y-140683333D01*
X83796190Y-140683333D01*
X83700952Y-140635714D01*
X83653333Y-140588095D01*
X83605714Y-140492857D01*
X83605714Y-140302380D01*
X83653333Y-140207142D01*
X84224761Y-139350000D02*
X84272380Y-139445238D01*
X84272380Y-139635714D01*
X84224761Y-139730952D01*
X84129523Y-139778571D01*
X83748571Y-139778571D01*
X83653333Y-139730952D01*
X83605714Y-139635714D01*
X83605714Y-139445238D01*
X83653333Y-139350000D01*
X83748571Y-139302380D01*
X83843809Y-139302380D01*
X83939047Y-139778571D01*
X84224761Y-138921428D02*
X84272380Y-138826190D01*
X84272380Y-138635714D01*
X84224761Y-138540476D01*
X84129523Y-138492857D01*
X84081904Y-138492857D01*
X83986666Y-138540476D01*
X83939047Y-138635714D01*
X83939047Y-138778571D01*
X83891428Y-138873809D01*
X83796190Y-138921428D01*
X83748571Y-138921428D01*
X83653333Y-138873809D01*
X83605714Y-138778571D01*
X83605714Y-138635714D01*
X83653333Y-138540476D01*
X84272380Y-138064285D02*
X83605714Y-138064285D01*
X83272380Y-138064285D02*
X83320000Y-138111904D01*
X83367619Y-138064285D01*
X83320000Y-138016666D01*
X83272380Y-138064285D01*
X83367619Y-138064285D01*
X83605714Y-137159523D02*
X84415238Y-137159523D01*
X84510476Y-137207142D01*
X84558095Y-137254761D01*
X84605714Y-137350000D01*
X84605714Y-137492857D01*
X84558095Y-137588095D01*
X84224761Y-137159523D02*
X84272380Y-137254761D01*
X84272380Y-137445238D01*
X84224761Y-137540476D01*
X84177142Y-137588095D01*
X84081904Y-137635714D01*
X83796190Y-137635714D01*
X83700952Y-137588095D01*
X83653333Y-137540476D01*
X83605714Y-137445238D01*
X83605714Y-137254761D01*
X83653333Y-137159523D01*
X83605714Y-136683333D02*
X84272380Y-136683333D01*
X83700952Y-136683333D02*
X83653333Y-136635714D01*
X83605714Y-136540476D01*
X83605714Y-136397619D01*
X83653333Y-136302380D01*
X83748571Y-136254761D01*
X84272380Y-136254761D01*
X84224761Y-135397619D02*
X84272380Y-135492857D01*
X84272380Y-135683333D01*
X84224761Y-135778571D01*
X84129523Y-135826190D01*
X83748571Y-135826190D01*
X83653333Y-135778571D01*
X83605714Y-135683333D01*
X83605714Y-135492857D01*
X83653333Y-135397619D01*
X83748571Y-135350000D01*
X83843809Y-135350000D01*
X83939047Y-135826190D01*
X84272380Y-134492857D02*
X83272380Y-134492857D01*
X84224761Y-134492857D02*
X84272380Y-134588095D01*
X84272380Y-134778571D01*
X84224761Y-134873809D01*
X84177142Y-134921428D01*
X84081904Y-134969047D01*
X83796190Y-134969047D01*
X83700952Y-134921428D01*
X83653333Y-134873809D01*
X83605714Y-134778571D01*
X83605714Y-134588095D01*
X83653333Y-134492857D01*
X84272380Y-133254761D02*
X83272380Y-133254761D01*
X83653333Y-133254761D02*
X83605714Y-133159523D01*
X83605714Y-132969047D01*
X83653333Y-132873809D01*
X83700952Y-132826190D01*
X83796190Y-132778571D01*
X84081904Y-132778571D01*
X84177142Y-132826190D01*
X84224761Y-132873809D01*
X84272380Y-132969047D01*
X84272380Y-133159523D01*
X84224761Y-133254761D01*
X83605714Y-132445238D02*
X84272380Y-132207142D01*
X83605714Y-131969047D02*
X84272380Y-132207142D01*
X84510476Y-132302380D01*
X84558095Y-132350000D01*
X84605714Y-132445238D01*
X83605714Y-130826190D02*
X84605714Y-130826190D01*
X83653333Y-130826190D02*
X83605714Y-130730952D01*
X83605714Y-130540476D01*
X83653333Y-130445238D01*
X83700952Y-130397619D01*
X83796190Y-130350000D01*
X84081904Y-130350000D01*
X84177142Y-130397619D01*
X84224761Y-130445238D01*
X84272380Y-130540476D01*
X84272380Y-130730952D01*
X84224761Y-130826190D01*
X84272380Y-129492857D02*
X83748571Y-129492857D01*
X83653333Y-129540476D01*
X83605714Y-129635714D01*
X83605714Y-129826190D01*
X83653333Y-129921428D01*
X84224761Y-129492857D02*
X84272380Y-129588095D01*
X84272380Y-129826190D01*
X84224761Y-129921428D01*
X84129523Y-129969047D01*
X84034285Y-129969047D01*
X83939047Y-129921428D01*
X83891428Y-129826190D01*
X83891428Y-129588095D01*
X83843809Y-129492857D01*
X84272380Y-129016666D02*
X83605714Y-129016666D01*
X83796190Y-129016666D02*
X83700952Y-128969047D01*
X83653333Y-128921428D01*
X83605714Y-128826190D01*
X83605714Y-128730952D01*
X84272380Y-128397619D02*
X83605714Y-128397619D01*
X83272380Y-128397619D02*
X83320000Y-128445238D01*
X83367619Y-128397619D01*
X83320000Y-128350000D01*
X83272380Y-128397619D01*
X83367619Y-128397619D01*
X83605714Y-127921428D02*
X84605714Y-127921428D01*
X83653333Y-127921428D02*
X83605714Y-127826190D01*
X83605714Y-127635714D01*
X83653333Y-127540476D01*
X83700952Y-127492857D01*
X83796190Y-127445238D01*
X84081904Y-127445238D01*
X84177142Y-127492857D01*
X84224761Y-127540476D01*
X84272380Y-127635714D01*
X84272380Y-127826190D01*
X84224761Y-127921428D01*
X84272380Y-126588095D02*
X83748571Y-126588095D01*
X83653333Y-126635714D01*
X83605714Y-126730952D01*
X83605714Y-126921428D01*
X83653333Y-127016666D01*
X84224761Y-126588095D02*
X84272380Y-126683333D01*
X84272380Y-126921428D01*
X84224761Y-127016666D01*
X84129523Y-127064285D01*
X84034285Y-127064285D01*
X83939047Y-127016666D01*
X83891428Y-126921428D01*
X83891428Y-126683333D01*
X83843809Y-126588095D01*
X84272380Y-125969047D02*
X84224761Y-126064285D01*
X84129523Y-126111904D01*
X83272380Y-126111904D01*
D11*
X81815714Y-139064285D02*
X81887142Y-139135714D01*
X81958571Y-139350000D01*
X81958571Y-139492857D01*
X81887142Y-139707142D01*
X81744285Y-139850000D01*
X81601428Y-139921428D01*
X81315714Y-139992857D01*
X81101428Y-139992857D01*
X80815714Y-139921428D01*
X80672857Y-139850000D01*
X80530000Y-139707142D01*
X80458571Y-139492857D01*
X80458571Y-139350000D01*
X80530000Y-139135714D01*
X80601428Y-139064285D01*
X81172857Y-137921428D02*
X81244285Y-137707142D01*
X81315714Y-137635714D01*
X81458571Y-137564285D01*
X81672857Y-137564285D01*
X81815714Y-137635714D01*
X81887142Y-137707142D01*
X81958571Y-137850000D01*
X81958571Y-138421428D01*
X80458571Y-138421428D01*
X80458571Y-137921428D01*
X80530000Y-137778571D01*
X80601428Y-137707142D01*
X80744285Y-137635714D01*
X80887142Y-137635714D01*
X81030000Y-137707142D01*
X81101428Y-137778571D01*
X81172857Y-137921428D01*
X81172857Y-138421428D01*
X81387142Y-136921428D02*
X81387142Y-135778571D01*
X80601428Y-135135714D02*
X80530000Y-135064285D01*
X80458571Y-134921428D01*
X80458571Y-134564285D01*
X80530000Y-134421428D01*
X80601428Y-134350000D01*
X80744285Y-134278571D01*
X80887142Y-134278571D01*
X81101428Y-134350000D01*
X81958571Y-135207142D01*
X81958571Y-134278571D01*
X80458571Y-133350000D02*
X80458571Y-133207142D01*
X80530000Y-133064285D01*
X80601428Y-132992857D01*
X80744285Y-132921428D01*
X81030000Y-132850000D01*
X81387142Y-132850000D01*
X81672857Y-132921428D01*
X81815714Y-132992857D01*
X81887142Y-133064285D01*
X81958571Y-133207142D01*
X81958571Y-133350000D01*
X81887142Y-133492857D01*
X81815714Y-133564285D01*
X81672857Y-133635714D01*
X81387142Y-133707142D01*
X81030000Y-133707142D01*
X80744285Y-133635714D01*
X80601428Y-133564285D01*
X80530000Y-133492857D01*
X80458571Y-133350000D01*
X80601428Y-132278571D02*
X80530000Y-132207142D01*
X80458571Y-132064285D01*
X80458571Y-131707142D01*
X80530000Y-131564285D01*
X80601428Y-131492857D01*
X80744285Y-131421428D01*
X80887142Y-131421428D01*
X81101428Y-131492857D01*
X81958571Y-132350000D01*
X81958571Y-131421428D01*
X81958571Y-129992857D02*
X81958571Y-130850000D01*
X81958571Y-130421428D02*
X80458571Y-130421428D01*
X80672857Y-130564285D01*
X80815714Y-130707142D01*
X80887142Y-130850000D01*
X81387142Y-129350000D02*
X81387142Y-128207142D01*
X80601428Y-127564285D02*
X80530000Y-127492857D01*
X80458571Y-127350000D01*
X80458571Y-126992857D01*
X80530000Y-126850000D01*
X80601428Y-126778571D01*
X80744285Y-126707142D01*
X80887142Y-126707142D01*
X81101428Y-126778571D01*
X81958571Y-127635714D01*
X81958571Y-126707142D01*
D10*
X129087380Y-55427619D02*
X128563571Y-56094285D01*
X129087380Y-56094285D02*
X128563571Y-55427619D01*
X128182619Y-55427619D02*
X128182619Y-56094285D01*
X128182619Y-55999047D02*
X128135000Y-56046666D01*
X128039761Y-56094285D01*
X127896904Y-56094285D01*
X127801666Y-56046666D01*
X127754047Y-55951428D01*
X127754047Y-55427619D01*
X127754047Y-55951428D02*
X127706428Y-56046666D01*
X127611190Y-56094285D01*
X127468333Y-56094285D01*
X127373095Y-56046666D01*
X127325476Y-55951428D01*
X127325476Y-55427619D01*
X126849285Y-55427619D02*
X126849285Y-56094285D01*
X126849285Y-56427619D02*
X126896904Y-56380000D01*
X126849285Y-56332380D01*
X126801666Y-56380000D01*
X126849285Y-56427619D01*
X126849285Y-56332380D01*
X126515952Y-56094285D02*
X126135000Y-56094285D01*
X126373095Y-56427619D02*
X126373095Y-55570476D01*
X126325476Y-55475238D01*
X126230238Y-55427619D01*
X126135000Y-55427619D01*
X120840238Y-55475238D02*
X120745000Y-55427619D01*
X120554523Y-55427619D01*
X120459285Y-55475238D01*
X120411666Y-55570476D01*
X120411666Y-55618095D01*
X120459285Y-55713333D01*
X120554523Y-55760952D01*
X120697380Y-55760952D01*
X120792619Y-55808571D01*
X120840238Y-55903809D01*
X120840238Y-55951428D01*
X120792619Y-56046666D01*
X120697380Y-56094285D01*
X120554523Y-56094285D01*
X120459285Y-56046666D01*
X120125952Y-56094285D02*
X119745000Y-56094285D01*
X119983095Y-56427619D02*
X119983095Y-55570476D01*
X119935476Y-55475238D01*
X119840238Y-55427619D01*
X119745000Y-55427619D01*
X118983095Y-55427619D02*
X118983095Y-55951428D01*
X119030714Y-56046666D01*
X119125952Y-56094285D01*
X119316428Y-56094285D01*
X119411666Y-56046666D01*
X118983095Y-55475238D02*
X119078333Y-55427619D01*
X119316428Y-55427619D01*
X119411666Y-55475238D01*
X119459285Y-55570476D01*
X119459285Y-55665714D01*
X119411666Y-55760952D01*
X119316428Y-55808571D01*
X119078333Y-55808571D01*
X118983095Y-55856190D01*
X118649761Y-56094285D02*
X118268809Y-56094285D01*
X118506904Y-56427619D02*
X118506904Y-55570476D01*
X118459285Y-55475238D01*
X118364047Y-55427619D01*
X118268809Y-55427619D01*
X117506904Y-56094285D02*
X117506904Y-55427619D01*
X117935476Y-56094285D02*
X117935476Y-55570476D01*
X117887857Y-55475238D01*
X117792619Y-55427619D01*
X117649761Y-55427619D01*
X117554523Y-55475238D01*
X117506904Y-55522857D01*
X117078333Y-55475238D02*
X116983095Y-55427619D01*
X116792619Y-55427619D01*
X116697380Y-55475238D01*
X116649761Y-55570476D01*
X116649761Y-55618095D01*
X116697380Y-55713333D01*
X116792619Y-55760952D01*
X116935476Y-55760952D01*
X117030714Y-55808571D01*
X117078333Y-55903809D01*
X117078333Y-55951428D01*
X117030714Y-56046666D01*
X116935476Y-56094285D01*
X116792619Y-56094285D01*
X116697380Y-56046666D01*
D12*
X114935000Y-145415000D02*
X114935000Y-55880000D01*
X150165000Y-63700000D02*
X150165000Y-64950000D01*
X151415000Y-63700000D02*
X150165000Y-63700000D01*
X160685000Y-67310000D02*
X159675000Y-67310000D01*
X150465000Y-67310000D02*
X151475000Y-67310000D01*
X159675000Y-65610000D02*
X151475000Y-65610000D01*
X159675000Y-69910000D02*
X159675000Y-65610000D01*
X151475000Y-69910000D02*
X159675000Y-69910000D01*
X151475000Y-65610000D02*
X151475000Y-69910000D01*
X153175000Y-64000000D02*
X150465000Y-64000000D01*
X153175000Y-65000000D02*
X153175000Y-64000000D01*
X154775000Y-65000000D02*
X153175000Y-65000000D01*
X154775000Y-64400000D02*
X154775000Y-65000000D01*
X156375000Y-64400000D02*
X154775000Y-64400000D01*
X156375000Y-65000000D02*
X156375000Y-64400000D01*
X157975000Y-65000000D02*
X156375000Y-65000000D01*
X157975000Y-64000000D02*
X157975000Y-65000000D01*
X160685000Y-64000000D02*
X157975000Y-64000000D01*
X160685000Y-70620000D02*
X160685000Y-64000000D01*
X150465000Y-70620000D02*
X160685000Y-70620000D01*
X150465000Y-64000000D02*
X150465000Y-70620000D01*
X110602500Y-70247742D02*
X110602500Y-70722258D01*
X111647500Y-70247742D02*
X111647500Y-70722258D01*
X107427500Y-70247742D02*
X107427500Y-70722258D01*
X108472500Y-70247742D02*
X108472500Y-70722258D01*
X129120000Y-57050000D02*
X126835000Y-57050000D01*
X129120000Y-58520000D02*
X129120000Y-57050000D01*
X126835000Y-58520000D02*
X129120000Y-58520000D01*
X120230000Y-57050000D02*
X117945000Y-57050000D01*
X120230000Y-58520000D02*
X120230000Y-57050000D01*
X117945000Y-58520000D02*
X120230000Y-58520000D01*
X121010000Y-64305000D02*
X117610000Y-64305000D01*
X117610000Y-70505000D02*
X117610000Y-71205000D01*
X117610000Y-64305000D02*
X117610000Y-65005000D01*
X121010000Y-71205000D02*
X121010000Y-70505000D01*
X121010000Y-65005000D02*
X121010000Y-64305000D01*
X117610000Y-71205000D02*
X121010000Y-71205000D01*
X115810000Y-81755000D02*
X115810000Y-61755000D01*
X145810000Y-81755000D02*
X115810000Y-81755000D01*
X145810000Y-61755000D02*
X145810000Y-81755000D01*
X115810000Y-61755000D02*
X145810000Y-61755000D01*
X121175000Y-138585000D02*
X121175000Y-132715000D01*
X139175000Y-138585000D02*
X121175000Y-138585000D01*
X139175000Y-132715000D02*
X139175000Y-138585000D01*
X144125000Y-84485000D02*
X144125000Y-132685000D01*
X116225000Y-132685000D02*
X116225000Y-84485000D01*
X144125000Y-84485000D02*
X116225000Y-84485000D01*
X144125000Y-132685000D02*
X116225000Y-132685000D01*
X118805000Y-130175000D02*
X118805000Y-84395000D01*
X118805000Y-131445000D02*
X118805000Y-132775000D01*
X118805000Y-84395000D02*
X116145000Y-84395000D01*
X116145000Y-130175000D02*
X116145000Y-84395000D01*
X118805000Y-130175000D02*
X116145000Y-130175000D01*
X118805000Y-132775000D02*
X117475000Y-132775000D01*
X144205000Y-130175000D02*
X144205000Y-84395000D01*
X144205000Y-131445000D02*
X144205000Y-132775000D01*
X144205000Y-84395000D02*
X141545000Y-84395000D01*
X141545000Y-130175000D02*
X141545000Y-84395000D01*
X144205000Y-130175000D02*
X141545000Y-130175000D01*
X144205000Y-132775000D02*
X142875000Y-132775000D01*
X105280000Y-77740000D02*
X108080000Y-77740000D01*
X108080000Y-77740000D02*
X108080000Y-79740000D01*
X108080000Y-79740000D02*
X105280000Y-79740000D01*
X105280000Y-79740000D02*
X105280000Y-77740000D01*
X95250000Y-87570000D02*
X96580000Y-87570000D01*
X96580000Y-87570000D02*
X96580000Y-88900000D01*
X96580000Y-90170000D02*
X96580000Y-113090000D01*
X93920000Y-113090000D02*
X96580000Y-113090000D01*
X93920000Y-90170000D02*
X93920000Y-113090000D01*
X93920000Y-90170000D02*
X96580000Y-90170000D01*
X69850000Y-87570000D02*
X71180000Y-87570000D01*
X71180000Y-87570000D02*
X71180000Y-88900000D01*
X71180000Y-90170000D02*
X71180000Y-113090000D01*
X68520000Y-113090000D02*
X71180000Y-113090000D01*
X68520000Y-90170000D02*
X68520000Y-113090000D01*
X68520000Y-90170000D02*
X71180000Y-90170000D01*
D10*
X155241666Y-62362380D02*
X155241666Y-63076666D01*
X155194047Y-63219523D01*
X155098809Y-63314761D01*
X154955952Y-63362380D01*
X154860714Y-63362380D01*
X156194047Y-62362380D02*
X155717857Y-62362380D01*
X155670238Y-62838571D01*
X155717857Y-62790952D01*
X155813095Y-62743333D01*
X156051190Y-62743333D01*
X156146428Y-62790952D01*
X156194047Y-62838571D01*
X156241666Y-62933809D01*
X156241666Y-63171904D01*
X156194047Y-63267142D01*
X156146428Y-63314761D01*
X156051190Y-63362380D01*
X155813095Y-63362380D01*
X155717857Y-63314761D01*
X155670238Y-63267142D01*
X154336904Y-114362380D02*
X154336904Y-113362380D01*
X154336904Y-113838571D02*
X154908333Y-113838571D01*
X154908333Y-114362380D02*
X154908333Y-113362380D01*
X155908333Y-114362380D02*
X155336904Y-114362380D01*
X155622619Y-114362380D02*
X155622619Y-113362380D01*
X155527380Y-113505238D01*
X155432142Y-113600476D01*
X155336904Y-113648095D01*
X156527380Y-113362380D02*
X156622619Y-113362380D01*
X156717857Y-113410000D01*
X156765476Y-113457619D01*
X156813095Y-113552857D01*
X156860714Y-113743333D01*
X156860714Y-113981428D01*
X156813095Y-114171904D01*
X156765476Y-114267142D01*
X156717857Y-114314761D01*
X156622619Y-114362380D01*
X156527380Y-114362380D01*
X156432142Y-114314761D01*
X156384523Y-114267142D01*
X156336904Y-114171904D01*
X156289285Y-113981428D01*
X156289285Y-113743333D01*
X156336904Y-113552857D01*
X156384523Y-113457619D01*
X156432142Y-113410000D01*
X156527380Y-113362380D01*
X154813095Y-54037380D02*
X154813095Y-53037380D01*
X154813095Y-53513571D02*
X155384523Y-53513571D01*
X155384523Y-54037380D02*
X155384523Y-53037380D01*
X155908333Y-54037380D02*
X156098809Y-54037380D01*
X156194047Y-53989761D01*
X156241666Y-53942142D01*
X156336904Y-53799285D01*
X156384523Y-53608809D01*
X156384523Y-53227857D01*
X156336904Y-53132619D01*
X156289285Y-53085000D01*
X156194047Y-53037380D01*
X156003571Y-53037380D01*
X155908333Y-53085000D01*
X155860714Y-53132619D01*
X155813095Y-53227857D01*
X155813095Y-53465952D01*
X155860714Y-53561190D01*
X155908333Y-53608809D01*
X156003571Y-53656428D01*
X156194047Y-53656428D01*
X156289285Y-53608809D01*
X156336904Y-53561190D01*
X156384523Y-53465952D01*
X107616666Y-57102380D02*
X107616666Y-57816666D01*
X107569047Y-57959523D01*
X107473809Y-58054761D01*
X107330952Y-58102380D01*
X107235714Y-58102380D01*
X108521428Y-57435714D02*
X108521428Y-58102380D01*
X108283333Y-57054761D02*
X108045238Y-57769047D01*
X108664285Y-57769047D01*
X95123095Y-133412380D02*
X95123095Y-132412380D01*
X95123095Y-132888571D02*
X95694523Y-132888571D01*
X95694523Y-133412380D02*
X95694523Y-132412380D01*
X96313571Y-132840952D02*
X96218333Y-132793333D01*
X96170714Y-132745714D01*
X96123095Y-132650476D01*
X96123095Y-132602857D01*
X96170714Y-132507619D01*
X96218333Y-132460000D01*
X96313571Y-132412380D01*
X96504047Y-132412380D01*
X96599285Y-132460000D01*
X96646904Y-132507619D01*
X96694523Y-132602857D01*
X96694523Y-132650476D01*
X96646904Y-132745714D01*
X96599285Y-132793333D01*
X96504047Y-132840952D01*
X96313571Y-132840952D01*
X96218333Y-132888571D01*
X96170714Y-132936190D01*
X96123095Y-133031428D01*
X96123095Y-133221904D01*
X96170714Y-133317142D01*
X96218333Y-133364761D01*
X96313571Y-133412380D01*
X96504047Y-133412380D01*
X96599285Y-133364761D01*
X96646904Y-133317142D01*
X96694523Y-133221904D01*
X96694523Y-133031428D01*
X96646904Y-132936190D01*
X96599285Y-132888571D01*
X96504047Y-132840952D01*
X95123095Y-59752380D02*
X95123095Y-58752380D01*
X95123095Y-59228571D02*
X95694523Y-59228571D01*
X95694523Y-59752380D02*
X95694523Y-58752380D01*
X96075476Y-58752380D02*
X96742142Y-58752380D01*
X96313571Y-59752380D01*
X68453095Y-120712380D02*
X68453095Y-119712380D01*
X68453095Y-120188571D02*
X69024523Y-120188571D01*
X69024523Y-120712380D02*
X69024523Y-119712380D01*
X69929285Y-119712380D02*
X69738809Y-119712380D01*
X69643571Y-119760000D01*
X69595952Y-119807619D01*
X69500714Y-119950476D01*
X69453095Y-120140952D01*
X69453095Y-120521904D01*
X69500714Y-120617142D01*
X69548333Y-120664761D01*
X69643571Y-120712380D01*
X69834047Y-120712380D01*
X69929285Y-120664761D01*
X69976904Y-120617142D01*
X70024523Y-120521904D01*
X70024523Y-120283809D01*
X69976904Y-120188571D01*
X69929285Y-120140952D01*
X69834047Y-120093333D01*
X69643571Y-120093333D01*
X69548333Y-120140952D01*
X69500714Y-120188571D01*
X69453095Y-120283809D01*
X68453095Y-72452380D02*
X68453095Y-71452380D01*
X68453095Y-71928571D02*
X69024523Y-71928571D01*
X69024523Y-72452380D02*
X69024523Y-71452380D01*
X69976904Y-71452380D02*
X69500714Y-71452380D01*
X69453095Y-71928571D01*
X69500714Y-71880952D01*
X69595952Y-71833333D01*
X69834047Y-71833333D01*
X69929285Y-71880952D01*
X69976904Y-71928571D01*
X70024523Y-72023809D01*
X70024523Y-72261904D01*
X69976904Y-72357142D01*
X69929285Y-72404761D01*
X69834047Y-72452380D01*
X69595952Y-72452380D01*
X69500714Y-72404761D01*
X69453095Y-72357142D01*
X137033095Y-54037380D02*
X137033095Y-53037380D01*
X137033095Y-53513571D02*
X137604523Y-53513571D01*
X137604523Y-54037380D02*
X137604523Y-53037380D01*
X138509285Y-53370714D02*
X138509285Y-54037380D01*
X138271190Y-52989761D02*
X138033095Y-53704047D01*
X138652142Y-53704047D01*
X137033095Y-139127380D02*
X137033095Y-138127380D01*
X137033095Y-138603571D02*
X137604523Y-138603571D01*
X137604523Y-139127380D02*
X137604523Y-138127380D01*
X137985476Y-138127380D02*
X138604523Y-138127380D01*
X138271190Y-138508333D01*
X138414047Y-138508333D01*
X138509285Y-138555952D01*
X138556904Y-138603571D01*
X138604523Y-138698809D01*
X138604523Y-138936904D01*
X138556904Y-139032142D01*
X138509285Y-139079761D01*
X138414047Y-139127380D01*
X138128333Y-139127380D01*
X138033095Y-139079761D01*
X137985476Y-139032142D01*
X68453095Y-139127380D02*
X68453095Y-138127380D01*
X68453095Y-138603571D02*
X69024523Y-138603571D01*
X69024523Y-139127380D02*
X69024523Y-138127380D01*
X69453095Y-138222619D02*
X69500714Y-138175000D01*
X69595952Y-138127380D01*
X69834047Y-138127380D01*
X69929285Y-138175000D01*
X69976904Y-138222619D01*
X70024523Y-138317857D01*
X70024523Y-138413095D01*
X69976904Y-138555952D01*
X69405476Y-139127380D01*
X70024523Y-139127380D01*
X68453095Y-54037380D02*
X68453095Y-53037380D01*
X68453095Y-53513571D02*
X69024523Y-53513571D01*
X69024523Y-54037380D02*
X69024523Y-53037380D01*
X70024523Y-54037380D02*
X69453095Y-54037380D01*
X69738809Y-54037380D02*
X69738809Y-53037380D01*
X69643571Y-53180238D01*
X69548333Y-53275476D01*
X69453095Y-53323095D01*
X113007380Y-70651666D02*
X112531190Y-70985000D01*
X113007380Y-71223095D02*
X112007380Y-71223095D01*
X112007380Y-70842142D01*
X112055000Y-70746904D01*
X112102619Y-70699285D01*
X112197857Y-70651666D01*
X112340714Y-70651666D01*
X112435952Y-70699285D01*
X112483571Y-70746904D01*
X112531190Y-70842142D01*
X112531190Y-71223095D01*
X112102619Y-70270714D02*
X112055000Y-70223095D01*
X112007380Y-70127857D01*
X112007380Y-69889761D01*
X112055000Y-69794523D01*
X112102619Y-69746904D01*
X112197857Y-69699285D01*
X112293095Y-69699285D01*
X112435952Y-69746904D01*
X113007380Y-70318333D01*
X113007380Y-69699285D01*
X109832380Y-70651666D02*
X109356190Y-70985000D01*
X109832380Y-71223095D02*
X108832380Y-71223095D01*
X108832380Y-70842142D01*
X108880000Y-70746904D01*
X108927619Y-70699285D01*
X109022857Y-70651666D01*
X109165714Y-70651666D01*
X109260952Y-70699285D01*
X109308571Y-70746904D01*
X109356190Y-70842142D01*
X109356190Y-71223095D01*
X109832380Y-69699285D02*
X109832380Y-70270714D01*
X109832380Y-69985000D02*
X108832380Y-69985000D01*
X108975238Y-70080238D01*
X109070476Y-70175476D01*
X109118095Y-70270714D01*
X126896904Y-59667380D02*
X126896904Y-58667380D01*
X127135000Y-58667380D01*
X127277857Y-58715000D01*
X127373095Y-58810238D01*
X127420714Y-58905476D01*
X127468333Y-59095952D01*
X127468333Y-59238809D01*
X127420714Y-59429285D01*
X127373095Y-59524523D01*
X127277857Y-59619761D01*
X127135000Y-59667380D01*
X126896904Y-59667380D01*
X127849285Y-58762619D02*
X127896904Y-58715000D01*
X127992142Y-58667380D01*
X128230238Y-58667380D01*
X128325476Y-58715000D01*
X128373095Y-58762619D01*
X128420714Y-58857857D01*
X128420714Y-58953095D01*
X128373095Y-59095952D01*
X127801666Y-59667380D01*
X128420714Y-59667380D01*
X118006904Y-59667380D02*
X118006904Y-58667380D01*
X118245000Y-58667380D01*
X118387857Y-58715000D01*
X118483095Y-58810238D01*
X118530714Y-58905476D01*
X118578333Y-59095952D01*
X118578333Y-59238809D01*
X118530714Y-59429285D01*
X118483095Y-59524523D01*
X118387857Y-59619761D01*
X118245000Y-59667380D01*
X118006904Y-59667380D01*
X119530714Y-59667380D02*
X118959285Y-59667380D01*
X119245000Y-59667380D02*
X119245000Y-58667380D01*
X119149761Y-58810238D01*
X119054523Y-58905476D01*
X118959285Y-58953095D01*
X129762380Y-72516904D02*
X130571904Y-72516904D01*
X130667142Y-72469285D01*
X130714761Y-72421666D01*
X130762380Y-72326428D01*
X130762380Y-72135952D01*
X130714761Y-72040714D01*
X130667142Y-71993095D01*
X130571904Y-71945476D01*
X129762380Y-71945476D01*
X129857619Y-71516904D02*
X129810000Y-71469285D01*
X129762380Y-71374047D01*
X129762380Y-71135952D01*
X129810000Y-71040714D01*
X129857619Y-70993095D01*
X129952857Y-70945476D01*
X130048095Y-70945476D01*
X130190952Y-70993095D01*
X130762380Y-71564523D01*
X130762380Y-70945476D01*
X129413095Y-107537380D02*
X129413095Y-108346904D01*
X129460714Y-108442142D01*
X129508333Y-108489761D01*
X129603571Y-108537380D01*
X129794047Y-108537380D01*
X129889285Y-108489761D01*
X129936904Y-108442142D01*
X129984523Y-108346904D01*
X129984523Y-107537380D01*
X130984523Y-108537380D02*
X130413095Y-108537380D01*
X130698809Y-108537380D02*
X130698809Y-107537380D01*
X130603571Y-107680238D01*
X130508333Y-107775476D01*
X130413095Y-107823095D01*
X105846666Y-76392380D02*
X105846666Y-77106666D01*
X105799047Y-77249523D01*
X105703809Y-77344761D01*
X105560952Y-77392380D01*
X105465714Y-77392380D01*
X106322857Y-77392380D02*
X106322857Y-76392380D01*
X106703809Y-76392380D01*
X106799047Y-76440000D01*
X106846666Y-76487619D01*
X106894285Y-76582857D01*
X106894285Y-76725714D01*
X106846666Y-76820952D01*
X106799047Y-76868571D01*
X106703809Y-76916190D01*
X106322857Y-76916190D01*
X107846666Y-77392380D02*
X107275238Y-77392380D01*
X107560952Y-77392380D02*
X107560952Y-76392380D01*
X107465714Y-76535238D01*
X107370476Y-76630476D01*
X107275238Y-76678095D01*
X107616666Y-142462380D02*
X107616666Y-143176666D01*
X107569047Y-143319523D01*
X107473809Y-143414761D01*
X107330952Y-143462380D01*
X107235714Y-143462380D01*
X107997619Y-142462380D02*
X108616666Y-142462380D01*
X108283333Y-142843333D01*
X108426190Y-142843333D01*
X108521428Y-142890952D01*
X108569047Y-142938571D01*
X108616666Y-143033809D01*
X108616666Y-143271904D01*
X108569047Y-143367142D01*
X108521428Y-143414761D01*
X108426190Y-143462380D01*
X108140476Y-143462380D01*
X108045238Y-143414761D01*
X107997619Y-143367142D01*
X94916666Y-85582380D02*
X94916666Y-86296666D01*
X94869047Y-86439523D01*
X94773809Y-86534761D01*
X94630952Y-86582380D01*
X94535714Y-86582380D01*
X95345238Y-85677619D02*
X95392857Y-85630000D01*
X95488095Y-85582380D01*
X95726190Y-85582380D01*
X95821428Y-85630000D01*
X95869047Y-85677619D01*
X95916666Y-85772857D01*
X95916666Y-85868095D01*
X95869047Y-86010952D01*
X95297619Y-86582380D01*
X95916666Y-86582380D01*
X69516666Y-85582380D02*
X69516666Y-86296666D01*
X69469047Y-86439523D01*
X69373809Y-86534761D01*
X69230952Y-86582380D01*
X69135714Y-86582380D01*
X70516666Y-86582380D02*
X69945238Y-86582380D01*
X70230952Y-86582380D02*
X70230952Y-85582380D01*
X70135714Y-85725238D01*
X70040476Y-85820476D01*
X69945238Y-85868095D01*
M02*
