G04 #@! TF.GenerationSoftware,KiCad,Pcbnew,7.0.7*
G04 #@! TF.CreationDate,2023-10-02T17:25:41+09:00*
G04 #@! TF.ProjectId,control_boad_2021-2,636f6e74-726f-46c5-9f62-6f61645f3230,rev?*
G04 #@! TF.SameCoordinates,Original*
G04 #@! TF.FileFunction,Legend,Top*
G04 #@! TF.FilePolarity,Positive*
%FSLAX46Y46*%
G04 Gerber Fmt 4.6, Leading zero omitted, Abs format (unit mm)*
G04 Created by KiCad (PCBNEW 7.0.7) date 2023-10-02 17:25:41*
%MOMM*%
%LPD*%
G01*
G04 APERTURE LIST*
%ADD10C,0.120000*%
%ADD11C,0.150000*%
%ADD12C,0.200000*%
G04 APERTURE END LIST*
D10*
X114935000Y-145415000D02*
X114935000Y-55880000D01*
D11*
X84274819Y-140207143D02*
X83274819Y-140207143D01*
X84227200Y-140207143D02*
X84274819Y-140302381D01*
X84274819Y-140302381D02*
X84274819Y-140492857D01*
X84274819Y-140492857D02*
X84227200Y-140588095D01*
X84227200Y-140588095D02*
X84179580Y-140635714D01*
X84179580Y-140635714D02*
X84084342Y-140683333D01*
X84084342Y-140683333D02*
X83798628Y-140683333D01*
X83798628Y-140683333D02*
X83703390Y-140635714D01*
X83703390Y-140635714D02*
X83655771Y-140588095D01*
X83655771Y-140588095D02*
X83608152Y-140492857D01*
X83608152Y-140492857D02*
X83608152Y-140302381D01*
X83608152Y-140302381D02*
X83655771Y-140207143D01*
X84227200Y-139350000D02*
X84274819Y-139445238D01*
X84274819Y-139445238D02*
X84274819Y-139635714D01*
X84274819Y-139635714D02*
X84227200Y-139730952D01*
X84227200Y-139730952D02*
X84131961Y-139778571D01*
X84131961Y-139778571D02*
X83751009Y-139778571D01*
X83751009Y-139778571D02*
X83655771Y-139730952D01*
X83655771Y-139730952D02*
X83608152Y-139635714D01*
X83608152Y-139635714D02*
X83608152Y-139445238D01*
X83608152Y-139445238D02*
X83655771Y-139350000D01*
X83655771Y-139350000D02*
X83751009Y-139302381D01*
X83751009Y-139302381D02*
X83846247Y-139302381D01*
X83846247Y-139302381D02*
X83941485Y-139778571D01*
X84227200Y-138921428D02*
X84274819Y-138826190D01*
X84274819Y-138826190D02*
X84274819Y-138635714D01*
X84274819Y-138635714D02*
X84227200Y-138540476D01*
X84227200Y-138540476D02*
X84131961Y-138492857D01*
X84131961Y-138492857D02*
X84084342Y-138492857D01*
X84084342Y-138492857D02*
X83989104Y-138540476D01*
X83989104Y-138540476D02*
X83941485Y-138635714D01*
X83941485Y-138635714D02*
X83941485Y-138778571D01*
X83941485Y-138778571D02*
X83893866Y-138873809D01*
X83893866Y-138873809D02*
X83798628Y-138921428D01*
X83798628Y-138921428D02*
X83751009Y-138921428D01*
X83751009Y-138921428D02*
X83655771Y-138873809D01*
X83655771Y-138873809D02*
X83608152Y-138778571D01*
X83608152Y-138778571D02*
X83608152Y-138635714D01*
X83608152Y-138635714D02*
X83655771Y-138540476D01*
X84274819Y-138064285D02*
X83608152Y-138064285D01*
X83274819Y-138064285D02*
X83322438Y-138111904D01*
X83322438Y-138111904D02*
X83370057Y-138064285D01*
X83370057Y-138064285D02*
X83322438Y-138016666D01*
X83322438Y-138016666D02*
X83274819Y-138064285D01*
X83274819Y-138064285D02*
X83370057Y-138064285D01*
X83608152Y-137159524D02*
X84417676Y-137159524D01*
X84417676Y-137159524D02*
X84512914Y-137207143D01*
X84512914Y-137207143D02*
X84560533Y-137254762D01*
X84560533Y-137254762D02*
X84608152Y-137350000D01*
X84608152Y-137350000D02*
X84608152Y-137492857D01*
X84608152Y-137492857D02*
X84560533Y-137588095D01*
X84227200Y-137159524D02*
X84274819Y-137254762D01*
X84274819Y-137254762D02*
X84274819Y-137445238D01*
X84274819Y-137445238D02*
X84227200Y-137540476D01*
X84227200Y-137540476D02*
X84179580Y-137588095D01*
X84179580Y-137588095D02*
X84084342Y-137635714D01*
X84084342Y-137635714D02*
X83798628Y-137635714D01*
X83798628Y-137635714D02*
X83703390Y-137588095D01*
X83703390Y-137588095D02*
X83655771Y-137540476D01*
X83655771Y-137540476D02*
X83608152Y-137445238D01*
X83608152Y-137445238D02*
X83608152Y-137254762D01*
X83608152Y-137254762D02*
X83655771Y-137159524D01*
X83608152Y-136683333D02*
X84274819Y-136683333D01*
X83703390Y-136683333D02*
X83655771Y-136635714D01*
X83655771Y-136635714D02*
X83608152Y-136540476D01*
X83608152Y-136540476D02*
X83608152Y-136397619D01*
X83608152Y-136397619D02*
X83655771Y-136302381D01*
X83655771Y-136302381D02*
X83751009Y-136254762D01*
X83751009Y-136254762D02*
X84274819Y-136254762D01*
X84227200Y-135397619D02*
X84274819Y-135492857D01*
X84274819Y-135492857D02*
X84274819Y-135683333D01*
X84274819Y-135683333D02*
X84227200Y-135778571D01*
X84227200Y-135778571D02*
X84131961Y-135826190D01*
X84131961Y-135826190D02*
X83751009Y-135826190D01*
X83751009Y-135826190D02*
X83655771Y-135778571D01*
X83655771Y-135778571D02*
X83608152Y-135683333D01*
X83608152Y-135683333D02*
X83608152Y-135492857D01*
X83608152Y-135492857D02*
X83655771Y-135397619D01*
X83655771Y-135397619D02*
X83751009Y-135350000D01*
X83751009Y-135350000D02*
X83846247Y-135350000D01*
X83846247Y-135350000D02*
X83941485Y-135826190D01*
X84274819Y-134492857D02*
X83274819Y-134492857D01*
X84227200Y-134492857D02*
X84274819Y-134588095D01*
X84274819Y-134588095D02*
X84274819Y-134778571D01*
X84274819Y-134778571D02*
X84227200Y-134873809D01*
X84227200Y-134873809D02*
X84179580Y-134921428D01*
X84179580Y-134921428D02*
X84084342Y-134969047D01*
X84084342Y-134969047D02*
X83798628Y-134969047D01*
X83798628Y-134969047D02*
X83703390Y-134921428D01*
X83703390Y-134921428D02*
X83655771Y-134873809D01*
X83655771Y-134873809D02*
X83608152Y-134778571D01*
X83608152Y-134778571D02*
X83608152Y-134588095D01*
X83608152Y-134588095D02*
X83655771Y-134492857D01*
X84274819Y-133254761D02*
X83274819Y-133254761D01*
X83655771Y-133254761D02*
X83608152Y-133159523D01*
X83608152Y-133159523D02*
X83608152Y-132969047D01*
X83608152Y-132969047D02*
X83655771Y-132873809D01*
X83655771Y-132873809D02*
X83703390Y-132826190D01*
X83703390Y-132826190D02*
X83798628Y-132778571D01*
X83798628Y-132778571D02*
X84084342Y-132778571D01*
X84084342Y-132778571D02*
X84179580Y-132826190D01*
X84179580Y-132826190D02*
X84227200Y-132873809D01*
X84227200Y-132873809D02*
X84274819Y-132969047D01*
X84274819Y-132969047D02*
X84274819Y-133159523D01*
X84274819Y-133159523D02*
X84227200Y-133254761D01*
X83608152Y-132445237D02*
X84274819Y-132207142D01*
X83608152Y-131969047D02*
X84274819Y-132207142D01*
X84274819Y-132207142D02*
X84512914Y-132302380D01*
X84512914Y-132302380D02*
X84560533Y-132349999D01*
X84560533Y-132349999D02*
X84608152Y-132445237D01*
X83608152Y-130826189D02*
X84608152Y-130826189D01*
X83655771Y-130826189D02*
X83608152Y-130730951D01*
X83608152Y-130730951D02*
X83608152Y-130540475D01*
X83608152Y-130540475D02*
X83655771Y-130445237D01*
X83655771Y-130445237D02*
X83703390Y-130397618D01*
X83703390Y-130397618D02*
X83798628Y-130349999D01*
X83798628Y-130349999D02*
X84084342Y-130349999D01*
X84084342Y-130349999D02*
X84179580Y-130397618D01*
X84179580Y-130397618D02*
X84227200Y-130445237D01*
X84227200Y-130445237D02*
X84274819Y-130540475D01*
X84274819Y-130540475D02*
X84274819Y-130730951D01*
X84274819Y-130730951D02*
X84227200Y-130826189D01*
X84274819Y-129492856D02*
X83751009Y-129492856D01*
X83751009Y-129492856D02*
X83655771Y-129540475D01*
X83655771Y-129540475D02*
X83608152Y-129635713D01*
X83608152Y-129635713D02*
X83608152Y-129826189D01*
X83608152Y-129826189D02*
X83655771Y-129921427D01*
X84227200Y-129492856D02*
X84274819Y-129588094D01*
X84274819Y-129588094D02*
X84274819Y-129826189D01*
X84274819Y-129826189D02*
X84227200Y-129921427D01*
X84227200Y-129921427D02*
X84131961Y-129969046D01*
X84131961Y-129969046D02*
X84036723Y-129969046D01*
X84036723Y-129969046D02*
X83941485Y-129921427D01*
X83941485Y-129921427D02*
X83893866Y-129826189D01*
X83893866Y-129826189D02*
X83893866Y-129588094D01*
X83893866Y-129588094D02*
X83846247Y-129492856D01*
X84274819Y-129016665D02*
X83608152Y-129016665D01*
X83798628Y-129016665D02*
X83703390Y-128969046D01*
X83703390Y-128969046D02*
X83655771Y-128921427D01*
X83655771Y-128921427D02*
X83608152Y-128826189D01*
X83608152Y-128826189D02*
X83608152Y-128730951D01*
X84274819Y-128397617D02*
X83608152Y-128397617D01*
X83274819Y-128397617D02*
X83322438Y-128445236D01*
X83322438Y-128445236D02*
X83370057Y-128397617D01*
X83370057Y-128397617D02*
X83322438Y-128349998D01*
X83322438Y-128349998D02*
X83274819Y-128397617D01*
X83274819Y-128397617D02*
X83370057Y-128397617D01*
X83608152Y-127921427D02*
X84608152Y-127921427D01*
X83655771Y-127921427D02*
X83608152Y-127826189D01*
X83608152Y-127826189D02*
X83608152Y-127635713D01*
X83608152Y-127635713D02*
X83655771Y-127540475D01*
X83655771Y-127540475D02*
X83703390Y-127492856D01*
X83703390Y-127492856D02*
X83798628Y-127445237D01*
X83798628Y-127445237D02*
X84084342Y-127445237D01*
X84084342Y-127445237D02*
X84179580Y-127492856D01*
X84179580Y-127492856D02*
X84227200Y-127540475D01*
X84227200Y-127540475D02*
X84274819Y-127635713D01*
X84274819Y-127635713D02*
X84274819Y-127826189D01*
X84274819Y-127826189D02*
X84227200Y-127921427D01*
X84274819Y-126588094D02*
X83751009Y-126588094D01*
X83751009Y-126588094D02*
X83655771Y-126635713D01*
X83655771Y-126635713D02*
X83608152Y-126730951D01*
X83608152Y-126730951D02*
X83608152Y-126921427D01*
X83608152Y-126921427D02*
X83655771Y-127016665D01*
X84227200Y-126588094D02*
X84274819Y-126683332D01*
X84274819Y-126683332D02*
X84274819Y-126921427D01*
X84274819Y-126921427D02*
X84227200Y-127016665D01*
X84227200Y-127016665D02*
X84131961Y-127064284D01*
X84131961Y-127064284D02*
X84036723Y-127064284D01*
X84036723Y-127064284D02*
X83941485Y-127016665D01*
X83941485Y-127016665D02*
X83893866Y-126921427D01*
X83893866Y-126921427D02*
X83893866Y-126683332D01*
X83893866Y-126683332D02*
X83846247Y-126588094D01*
X84274819Y-125969046D02*
X84227200Y-126064284D01*
X84227200Y-126064284D02*
X84131961Y-126111903D01*
X84131961Y-126111903D02*
X83274819Y-126111903D01*
X120840238Y-55472800D02*
X120745000Y-55425180D01*
X120745000Y-55425180D02*
X120554524Y-55425180D01*
X120554524Y-55425180D02*
X120459286Y-55472800D01*
X120459286Y-55472800D02*
X120411667Y-55568038D01*
X120411667Y-55568038D02*
X120411667Y-55615657D01*
X120411667Y-55615657D02*
X120459286Y-55710895D01*
X120459286Y-55710895D02*
X120554524Y-55758514D01*
X120554524Y-55758514D02*
X120697381Y-55758514D01*
X120697381Y-55758514D02*
X120792619Y-55806133D01*
X120792619Y-55806133D02*
X120840238Y-55901371D01*
X120840238Y-55901371D02*
X120840238Y-55948990D01*
X120840238Y-55948990D02*
X120792619Y-56044228D01*
X120792619Y-56044228D02*
X120697381Y-56091847D01*
X120697381Y-56091847D02*
X120554524Y-56091847D01*
X120554524Y-56091847D02*
X120459286Y-56044228D01*
X120125952Y-56091847D02*
X119745000Y-56091847D01*
X119983095Y-56425180D02*
X119983095Y-55568038D01*
X119983095Y-55568038D02*
X119935476Y-55472800D01*
X119935476Y-55472800D02*
X119840238Y-55425180D01*
X119840238Y-55425180D02*
X119745000Y-55425180D01*
X118983095Y-55425180D02*
X118983095Y-55948990D01*
X118983095Y-55948990D02*
X119030714Y-56044228D01*
X119030714Y-56044228D02*
X119125952Y-56091847D01*
X119125952Y-56091847D02*
X119316428Y-56091847D01*
X119316428Y-56091847D02*
X119411666Y-56044228D01*
X118983095Y-55472800D02*
X119078333Y-55425180D01*
X119078333Y-55425180D02*
X119316428Y-55425180D01*
X119316428Y-55425180D02*
X119411666Y-55472800D01*
X119411666Y-55472800D02*
X119459285Y-55568038D01*
X119459285Y-55568038D02*
X119459285Y-55663276D01*
X119459285Y-55663276D02*
X119411666Y-55758514D01*
X119411666Y-55758514D02*
X119316428Y-55806133D01*
X119316428Y-55806133D02*
X119078333Y-55806133D01*
X119078333Y-55806133D02*
X118983095Y-55853752D01*
X118649761Y-56091847D02*
X118268809Y-56091847D01*
X118506904Y-56425180D02*
X118506904Y-55568038D01*
X118506904Y-55568038D02*
X118459285Y-55472800D01*
X118459285Y-55472800D02*
X118364047Y-55425180D01*
X118364047Y-55425180D02*
X118268809Y-55425180D01*
X117506904Y-56091847D02*
X117506904Y-55425180D01*
X117935475Y-56091847D02*
X117935475Y-55568038D01*
X117935475Y-55568038D02*
X117887856Y-55472800D01*
X117887856Y-55472800D02*
X117792618Y-55425180D01*
X117792618Y-55425180D02*
X117649761Y-55425180D01*
X117649761Y-55425180D02*
X117554523Y-55472800D01*
X117554523Y-55472800D02*
X117506904Y-55520419D01*
X117078332Y-55472800D02*
X116983094Y-55425180D01*
X116983094Y-55425180D02*
X116792618Y-55425180D01*
X116792618Y-55425180D02*
X116697380Y-55472800D01*
X116697380Y-55472800D02*
X116649761Y-55568038D01*
X116649761Y-55568038D02*
X116649761Y-55615657D01*
X116649761Y-55615657D02*
X116697380Y-55710895D01*
X116697380Y-55710895D02*
X116792618Y-55758514D01*
X116792618Y-55758514D02*
X116935475Y-55758514D01*
X116935475Y-55758514D02*
X117030713Y-55806133D01*
X117030713Y-55806133D02*
X117078332Y-55901371D01*
X117078332Y-55901371D02*
X117078332Y-55948990D01*
X117078332Y-55948990D02*
X117030713Y-56044228D01*
X117030713Y-56044228D02*
X116935475Y-56091847D01*
X116935475Y-56091847D02*
X116792618Y-56091847D01*
X116792618Y-56091847D02*
X116697380Y-56044228D01*
D12*
X81820671Y-140921427D02*
X81892100Y-140992855D01*
X81892100Y-140992855D02*
X81963528Y-141207141D01*
X81963528Y-141207141D02*
X81963528Y-141349998D01*
X81963528Y-141349998D02*
X81892100Y-141564284D01*
X81892100Y-141564284D02*
X81749242Y-141707141D01*
X81749242Y-141707141D02*
X81606385Y-141778570D01*
X81606385Y-141778570D02*
X81320671Y-141849998D01*
X81320671Y-141849998D02*
X81106385Y-141849998D01*
X81106385Y-141849998D02*
X80820671Y-141778570D01*
X80820671Y-141778570D02*
X80677814Y-141707141D01*
X80677814Y-141707141D02*
X80534957Y-141564284D01*
X80534957Y-141564284D02*
X80463528Y-141349998D01*
X80463528Y-141349998D02*
X80463528Y-141207141D01*
X80463528Y-141207141D02*
X80534957Y-140992855D01*
X80534957Y-140992855D02*
X80606385Y-140921427D01*
X81177814Y-139778570D02*
X81249242Y-139564284D01*
X81249242Y-139564284D02*
X81320671Y-139492855D01*
X81320671Y-139492855D02*
X81463528Y-139421427D01*
X81463528Y-139421427D02*
X81677814Y-139421427D01*
X81677814Y-139421427D02*
X81820671Y-139492855D01*
X81820671Y-139492855D02*
X81892100Y-139564284D01*
X81892100Y-139564284D02*
X81963528Y-139707141D01*
X81963528Y-139707141D02*
X81963528Y-140278570D01*
X81963528Y-140278570D02*
X80463528Y-140278570D01*
X80463528Y-140278570D02*
X80463528Y-139778570D01*
X80463528Y-139778570D02*
X80534957Y-139635713D01*
X80534957Y-139635713D02*
X80606385Y-139564284D01*
X80606385Y-139564284D02*
X80749242Y-139492855D01*
X80749242Y-139492855D02*
X80892100Y-139492855D01*
X80892100Y-139492855D02*
X81034957Y-139564284D01*
X81034957Y-139564284D02*
X81106385Y-139635713D01*
X81106385Y-139635713D02*
X81177814Y-139778570D01*
X81177814Y-139778570D02*
X81177814Y-140278570D01*
X81392100Y-138778570D02*
X81392100Y-137635713D01*
X80606385Y-136992855D02*
X80534957Y-136921427D01*
X80534957Y-136921427D02*
X80463528Y-136778570D01*
X80463528Y-136778570D02*
X80463528Y-136421427D01*
X80463528Y-136421427D02*
X80534957Y-136278570D01*
X80534957Y-136278570D02*
X80606385Y-136207141D01*
X80606385Y-136207141D02*
X80749242Y-136135712D01*
X80749242Y-136135712D02*
X80892100Y-136135712D01*
X80892100Y-136135712D02*
X81106385Y-136207141D01*
X81106385Y-136207141D02*
X81963528Y-137064284D01*
X81963528Y-137064284D02*
X81963528Y-136135712D01*
X80463528Y-135207141D02*
X80463528Y-135064284D01*
X80463528Y-135064284D02*
X80534957Y-134921427D01*
X80534957Y-134921427D02*
X80606385Y-134849999D01*
X80606385Y-134849999D02*
X80749242Y-134778570D01*
X80749242Y-134778570D02*
X81034957Y-134707141D01*
X81034957Y-134707141D02*
X81392100Y-134707141D01*
X81392100Y-134707141D02*
X81677814Y-134778570D01*
X81677814Y-134778570D02*
X81820671Y-134849999D01*
X81820671Y-134849999D02*
X81892100Y-134921427D01*
X81892100Y-134921427D02*
X81963528Y-135064284D01*
X81963528Y-135064284D02*
X81963528Y-135207141D01*
X81963528Y-135207141D02*
X81892100Y-135349999D01*
X81892100Y-135349999D02*
X81820671Y-135421427D01*
X81820671Y-135421427D02*
X81677814Y-135492856D01*
X81677814Y-135492856D02*
X81392100Y-135564284D01*
X81392100Y-135564284D02*
X81034957Y-135564284D01*
X81034957Y-135564284D02*
X80749242Y-135492856D01*
X80749242Y-135492856D02*
X80606385Y-135421427D01*
X80606385Y-135421427D02*
X80534957Y-135349999D01*
X80534957Y-135349999D02*
X80463528Y-135207141D01*
X80606385Y-134135713D02*
X80534957Y-134064285D01*
X80534957Y-134064285D02*
X80463528Y-133921428D01*
X80463528Y-133921428D02*
X80463528Y-133564285D01*
X80463528Y-133564285D02*
X80534957Y-133421428D01*
X80534957Y-133421428D02*
X80606385Y-133349999D01*
X80606385Y-133349999D02*
X80749242Y-133278570D01*
X80749242Y-133278570D02*
X80892100Y-133278570D01*
X80892100Y-133278570D02*
X81106385Y-133349999D01*
X81106385Y-133349999D02*
X81963528Y-134207142D01*
X81963528Y-134207142D02*
X81963528Y-133278570D01*
X81963528Y-131849999D02*
X81963528Y-132707142D01*
X81963528Y-132278571D02*
X80463528Y-132278571D01*
X80463528Y-132278571D02*
X80677814Y-132421428D01*
X80677814Y-132421428D02*
X80820671Y-132564285D01*
X80820671Y-132564285D02*
X80892100Y-132707142D01*
X81392100Y-131207143D02*
X81392100Y-130064286D01*
X80606385Y-129421428D02*
X80534957Y-129350000D01*
X80534957Y-129350000D02*
X80463528Y-129207143D01*
X80463528Y-129207143D02*
X80463528Y-128850000D01*
X80463528Y-128850000D02*
X80534957Y-128707143D01*
X80534957Y-128707143D02*
X80606385Y-128635714D01*
X80606385Y-128635714D02*
X80749242Y-128564285D01*
X80749242Y-128564285D02*
X80892100Y-128564285D01*
X80892100Y-128564285D02*
X81106385Y-128635714D01*
X81106385Y-128635714D02*
X81963528Y-129492857D01*
X81963528Y-129492857D02*
X81963528Y-128564285D01*
X82106385Y-128278572D02*
X82106385Y-127135714D01*
X80963528Y-126921429D02*
X81963528Y-126564286D01*
X81963528Y-126564286D02*
X80963528Y-126207143D01*
X80606385Y-125707143D02*
X80534957Y-125635715D01*
X80534957Y-125635715D02*
X80463528Y-125492858D01*
X80463528Y-125492858D02*
X80463528Y-125135715D01*
X80463528Y-125135715D02*
X80534957Y-124992858D01*
X80534957Y-124992858D02*
X80606385Y-124921429D01*
X80606385Y-124921429D02*
X80749242Y-124850000D01*
X80749242Y-124850000D02*
X80892100Y-124850000D01*
X80892100Y-124850000D02*
X81106385Y-124921429D01*
X81106385Y-124921429D02*
X81963528Y-125778572D01*
X81963528Y-125778572D02*
X81963528Y-124850000D01*
D11*
X129087380Y-55425180D02*
X128563571Y-56091847D01*
X129087380Y-56091847D02*
X128563571Y-55425180D01*
X128182618Y-55425180D02*
X128182618Y-56091847D01*
X128182618Y-55996609D02*
X128134999Y-56044228D01*
X128134999Y-56044228D02*
X128039761Y-56091847D01*
X128039761Y-56091847D02*
X127896904Y-56091847D01*
X127896904Y-56091847D02*
X127801666Y-56044228D01*
X127801666Y-56044228D02*
X127754047Y-55948990D01*
X127754047Y-55948990D02*
X127754047Y-55425180D01*
X127754047Y-55948990D02*
X127706428Y-56044228D01*
X127706428Y-56044228D02*
X127611190Y-56091847D01*
X127611190Y-56091847D02*
X127468333Y-56091847D01*
X127468333Y-56091847D02*
X127373094Y-56044228D01*
X127373094Y-56044228D02*
X127325475Y-55948990D01*
X127325475Y-55948990D02*
X127325475Y-55425180D01*
X126849285Y-55425180D02*
X126849285Y-56091847D01*
X126849285Y-56425180D02*
X126896904Y-56377561D01*
X126896904Y-56377561D02*
X126849285Y-56329942D01*
X126849285Y-56329942D02*
X126801666Y-56377561D01*
X126801666Y-56377561D02*
X126849285Y-56425180D01*
X126849285Y-56425180D02*
X126849285Y-56329942D01*
X126515952Y-56091847D02*
X126135000Y-56091847D01*
X126373095Y-56425180D02*
X126373095Y-55568038D01*
X126373095Y-55568038D02*
X126325476Y-55472800D01*
X126325476Y-55472800D02*
X126230238Y-55425180D01*
X126230238Y-55425180D02*
X126135000Y-55425180D01*
X118006905Y-59669819D02*
X118006905Y-58669819D01*
X118006905Y-58669819D02*
X118245000Y-58669819D01*
X118245000Y-58669819D02*
X118387857Y-58717438D01*
X118387857Y-58717438D02*
X118483095Y-58812676D01*
X118483095Y-58812676D02*
X118530714Y-58907914D01*
X118530714Y-58907914D02*
X118578333Y-59098390D01*
X118578333Y-59098390D02*
X118578333Y-59241247D01*
X118578333Y-59241247D02*
X118530714Y-59431723D01*
X118530714Y-59431723D02*
X118483095Y-59526961D01*
X118483095Y-59526961D02*
X118387857Y-59622200D01*
X118387857Y-59622200D02*
X118245000Y-59669819D01*
X118245000Y-59669819D02*
X118006905Y-59669819D01*
X119530714Y-59669819D02*
X118959286Y-59669819D01*
X119245000Y-59669819D02*
X119245000Y-58669819D01*
X119245000Y-58669819D02*
X119149762Y-58812676D01*
X119149762Y-58812676D02*
X119054524Y-58907914D01*
X119054524Y-58907914D02*
X118959286Y-58955533D01*
X126896905Y-59669819D02*
X126896905Y-58669819D01*
X126896905Y-58669819D02*
X127135000Y-58669819D01*
X127135000Y-58669819D02*
X127277857Y-58717438D01*
X127277857Y-58717438D02*
X127373095Y-58812676D01*
X127373095Y-58812676D02*
X127420714Y-58907914D01*
X127420714Y-58907914D02*
X127468333Y-59098390D01*
X127468333Y-59098390D02*
X127468333Y-59241247D01*
X127468333Y-59241247D02*
X127420714Y-59431723D01*
X127420714Y-59431723D02*
X127373095Y-59526961D01*
X127373095Y-59526961D02*
X127277857Y-59622200D01*
X127277857Y-59622200D02*
X127135000Y-59669819D01*
X127135000Y-59669819D02*
X126896905Y-59669819D01*
X127849286Y-58765057D02*
X127896905Y-58717438D01*
X127896905Y-58717438D02*
X127992143Y-58669819D01*
X127992143Y-58669819D02*
X128230238Y-58669819D01*
X128230238Y-58669819D02*
X128325476Y-58717438D01*
X128325476Y-58717438D02*
X128373095Y-58765057D01*
X128373095Y-58765057D02*
X128420714Y-58860295D01*
X128420714Y-58860295D02*
X128420714Y-58955533D01*
X128420714Y-58955533D02*
X128373095Y-59098390D01*
X128373095Y-59098390D02*
X127801667Y-59669819D01*
X127801667Y-59669819D02*
X128420714Y-59669819D01*
X68453095Y-54039819D02*
X68453095Y-53039819D01*
X68453095Y-53516009D02*
X69024523Y-53516009D01*
X69024523Y-54039819D02*
X69024523Y-53039819D01*
X70024523Y-54039819D02*
X69453095Y-54039819D01*
X69738809Y-54039819D02*
X69738809Y-53039819D01*
X69738809Y-53039819D02*
X69643571Y-53182676D01*
X69643571Y-53182676D02*
X69548333Y-53277914D01*
X69548333Y-53277914D02*
X69453095Y-53325533D01*
X68453095Y-139129819D02*
X68453095Y-138129819D01*
X68453095Y-138606009D02*
X69024523Y-138606009D01*
X69024523Y-139129819D02*
X69024523Y-138129819D01*
X69453095Y-138225057D02*
X69500714Y-138177438D01*
X69500714Y-138177438D02*
X69595952Y-138129819D01*
X69595952Y-138129819D02*
X69834047Y-138129819D01*
X69834047Y-138129819D02*
X69929285Y-138177438D01*
X69929285Y-138177438D02*
X69976904Y-138225057D01*
X69976904Y-138225057D02*
X70024523Y-138320295D01*
X70024523Y-138320295D02*
X70024523Y-138415533D01*
X70024523Y-138415533D02*
X69976904Y-138558390D01*
X69976904Y-138558390D02*
X69405476Y-139129819D01*
X69405476Y-139129819D02*
X70024523Y-139129819D01*
X137033095Y-139129819D02*
X137033095Y-138129819D01*
X137033095Y-138606009D02*
X137604523Y-138606009D01*
X137604523Y-139129819D02*
X137604523Y-138129819D01*
X137985476Y-138129819D02*
X138604523Y-138129819D01*
X138604523Y-138129819D02*
X138271190Y-138510771D01*
X138271190Y-138510771D02*
X138414047Y-138510771D01*
X138414047Y-138510771D02*
X138509285Y-138558390D01*
X138509285Y-138558390D02*
X138556904Y-138606009D01*
X138556904Y-138606009D02*
X138604523Y-138701247D01*
X138604523Y-138701247D02*
X138604523Y-138939342D01*
X138604523Y-138939342D02*
X138556904Y-139034580D01*
X138556904Y-139034580D02*
X138509285Y-139082200D01*
X138509285Y-139082200D02*
X138414047Y-139129819D01*
X138414047Y-139129819D02*
X138128333Y-139129819D01*
X138128333Y-139129819D02*
X138033095Y-139082200D01*
X138033095Y-139082200D02*
X137985476Y-139034580D01*
X137033095Y-54039819D02*
X137033095Y-53039819D01*
X137033095Y-53516009D02*
X137604523Y-53516009D01*
X137604523Y-54039819D02*
X137604523Y-53039819D01*
X138509285Y-53373152D02*
X138509285Y-54039819D01*
X138271190Y-52992200D02*
X138033095Y-53706485D01*
X138033095Y-53706485D02*
X138652142Y-53706485D01*
X68453095Y-72454819D02*
X68453095Y-71454819D01*
X68453095Y-71931009D02*
X69024523Y-71931009D01*
X69024523Y-72454819D02*
X69024523Y-71454819D01*
X69976904Y-71454819D02*
X69500714Y-71454819D01*
X69500714Y-71454819D02*
X69453095Y-71931009D01*
X69453095Y-71931009D02*
X69500714Y-71883390D01*
X69500714Y-71883390D02*
X69595952Y-71835771D01*
X69595952Y-71835771D02*
X69834047Y-71835771D01*
X69834047Y-71835771D02*
X69929285Y-71883390D01*
X69929285Y-71883390D02*
X69976904Y-71931009D01*
X69976904Y-71931009D02*
X70024523Y-72026247D01*
X70024523Y-72026247D02*
X70024523Y-72264342D01*
X70024523Y-72264342D02*
X69976904Y-72359580D01*
X69976904Y-72359580D02*
X69929285Y-72407200D01*
X69929285Y-72407200D02*
X69834047Y-72454819D01*
X69834047Y-72454819D02*
X69595952Y-72454819D01*
X69595952Y-72454819D02*
X69500714Y-72407200D01*
X69500714Y-72407200D02*
X69453095Y-72359580D01*
X68453095Y-120714819D02*
X68453095Y-119714819D01*
X68453095Y-120191009D02*
X69024523Y-120191009D01*
X69024523Y-120714819D02*
X69024523Y-119714819D01*
X69929285Y-119714819D02*
X69738809Y-119714819D01*
X69738809Y-119714819D02*
X69643571Y-119762438D01*
X69643571Y-119762438D02*
X69595952Y-119810057D01*
X69595952Y-119810057D02*
X69500714Y-119952914D01*
X69500714Y-119952914D02*
X69453095Y-120143390D01*
X69453095Y-120143390D02*
X69453095Y-120524342D01*
X69453095Y-120524342D02*
X69500714Y-120619580D01*
X69500714Y-120619580D02*
X69548333Y-120667200D01*
X69548333Y-120667200D02*
X69643571Y-120714819D01*
X69643571Y-120714819D02*
X69834047Y-120714819D01*
X69834047Y-120714819D02*
X69929285Y-120667200D01*
X69929285Y-120667200D02*
X69976904Y-120619580D01*
X69976904Y-120619580D02*
X70024523Y-120524342D01*
X70024523Y-120524342D02*
X70024523Y-120286247D01*
X70024523Y-120286247D02*
X69976904Y-120191009D01*
X69976904Y-120191009D02*
X69929285Y-120143390D01*
X69929285Y-120143390D02*
X69834047Y-120095771D01*
X69834047Y-120095771D02*
X69643571Y-120095771D01*
X69643571Y-120095771D02*
X69548333Y-120143390D01*
X69548333Y-120143390D02*
X69500714Y-120191009D01*
X69500714Y-120191009D02*
X69453095Y-120286247D01*
X95123095Y-59754819D02*
X95123095Y-58754819D01*
X95123095Y-59231009D02*
X95694523Y-59231009D01*
X95694523Y-59754819D02*
X95694523Y-58754819D01*
X96075476Y-58754819D02*
X96742142Y-58754819D01*
X96742142Y-58754819D02*
X96313571Y-59754819D01*
X95123095Y-133414819D02*
X95123095Y-132414819D01*
X95123095Y-132891009D02*
X95694523Y-132891009D01*
X95694523Y-133414819D02*
X95694523Y-132414819D01*
X96313571Y-132843390D02*
X96218333Y-132795771D01*
X96218333Y-132795771D02*
X96170714Y-132748152D01*
X96170714Y-132748152D02*
X96123095Y-132652914D01*
X96123095Y-132652914D02*
X96123095Y-132605295D01*
X96123095Y-132605295D02*
X96170714Y-132510057D01*
X96170714Y-132510057D02*
X96218333Y-132462438D01*
X96218333Y-132462438D02*
X96313571Y-132414819D01*
X96313571Y-132414819D02*
X96504047Y-132414819D01*
X96504047Y-132414819D02*
X96599285Y-132462438D01*
X96599285Y-132462438D02*
X96646904Y-132510057D01*
X96646904Y-132510057D02*
X96694523Y-132605295D01*
X96694523Y-132605295D02*
X96694523Y-132652914D01*
X96694523Y-132652914D02*
X96646904Y-132748152D01*
X96646904Y-132748152D02*
X96599285Y-132795771D01*
X96599285Y-132795771D02*
X96504047Y-132843390D01*
X96504047Y-132843390D02*
X96313571Y-132843390D01*
X96313571Y-132843390D02*
X96218333Y-132891009D01*
X96218333Y-132891009D02*
X96170714Y-132938628D01*
X96170714Y-132938628D02*
X96123095Y-133033866D01*
X96123095Y-133033866D02*
X96123095Y-133224342D01*
X96123095Y-133224342D02*
X96170714Y-133319580D01*
X96170714Y-133319580D02*
X96218333Y-133367200D01*
X96218333Y-133367200D02*
X96313571Y-133414819D01*
X96313571Y-133414819D02*
X96504047Y-133414819D01*
X96504047Y-133414819D02*
X96599285Y-133367200D01*
X96599285Y-133367200D02*
X96646904Y-133319580D01*
X96646904Y-133319580D02*
X96694523Y-133224342D01*
X96694523Y-133224342D02*
X96694523Y-133033866D01*
X96694523Y-133033866D02*
X96646904Y-132938628D01*
X96646904Y-132938628D02*
X96599285Y-132891009D01*
X96599285Y-132891009D02*
X96504047Y-132843390D01*
X109834819Y-70651666D02*
X109358628Y-70984999D01*
X109834819Y-71223094D02*
X108834819Y-71223094D01*
X108834819Y-71223094D02*
X108834819Y-70842142D01*
X108834819Y-70842142D02*
X108882438Y-70746904D01*
X108882438Y-70746904D02*
X108930057Y-70699285D01*
X108930057Y-70699285D02*
X109025295Y-70651666D01*
X109025295Y-70651666D02*
X109168152Y-70651666D01*
X109168152Y-70651666D02*
X109263390Y-70699285D01*
X109263390Y-70699285D02*
X109311009Y-70746904D01*
X109311009Y-70746904D02*
X109358628Y-70842142D01*
X109358628Y-70842142D02*
X109358628Y-71223094D01*
X109834819Y-69699285D02*
X109834819Y-70270713D01*
X109834819Y-69984999D02*
X108834819Y-69984999D01*
X108834819Y-69984999D02*
X108977676Y-70080237D01*
X108977676Y-70080237D02*
X109072914Y-70175475D01*
X109072914Y-70175475D02*
X109120533Y-70270713D01*
X113009819Y-70651666D02*
X112533628Y-70984999D01*
X113009819Y-71223094D02*
X112009819Y-71223094D01*
X112009819Y-71223094D02*
X112009819Y-70842142D01*
X112009819Y-70842142D02*
X112057438Y-70746904D01*
X112057438Y-70746904D02*
X112105057Y-70699285D01*
X112105057Y-70699285D02*
X112200295Y-70651666D01*
X112200295Y-70651666D02*
X112343152Y-70651666D01*
X112343152Y-70651666D02*
X112438390Y-70699285D01*
X112438390Y-70699285D02*
X112486009Y-70746904D01*
X112486009Y-70746904D02*
X112533628Y-70842142D01*
X112533628Y-70842142D02*
X112533628Y-71223094D01*
X112105057Y-70270713D02*
X112057438Y-70223094D01*
X112057438Y-70223094D02*
X112009819Y-70127856D01*
X112009819Y-70127856D02*
X112009819Y-69889761D01*
X112009819Y-69889761D02*
X112057438Y-69794523D01*
X112057438Y-69794523D02*
X112105057Y-69746904D01*
X112105057Y-69746904D02*
X112200295Y-69699285D01*
X112200295Y-69699285D02*
X112295533Y-69699285D01*
X112295533Y-69699285D02*
X112438390Y-69746904D01*
X112438390Y-69746904D02*
X113009819Y-70318332D01*
X113009819Y-70318332D02*
X113009819Y-69699285D01*
X154813095Y-54039819D02*
X154813095Y-53039819D01*
X154813095Y-53516009D02*
X155384523Y-53516009D01*
X155384523Y-54039819D02*
X155384523Y-53039819D01*
X155908333Y-54039819D02*
X156098809Y-54039819D01*
X156098809Y-54039819D02*
X156194047Y-53992200D01*
X156194047Y-53992200D02*
X156241666Y-53944580D01*
X156241666Y-53944580D02*
X156336904Y-53801723D01*
X156336904Y-53801723D02*
X156384523Y-53611247D01*
X156384523Y-53611247D02*
X156384523Y-53230295D01*
X156384523Y-53230295D02*
X156336904Y-53135057D01*
X156336904Y-53135057D02*
X156289285Y-53087438D01*
X156289285Y-53087438D02*
X156194047Y-53039819D01*
X156194047Y-53039819D02*
X156003571Y-53039819D01*
X156003571Y-53039819D02*
X155908333Y-53087438D01*
X155908333Y-53087438D02*
X155860714Y-53135057D01*
X155860714Y-53135057D02*
X155813095Y-53230295D01*
X155813095Y-53230295D02*
X155813095Y-53468390D01*
X155813095Y-53468390D02*
X155860714Y-53563628D01*
X155860714Y-53563628D02*
X155908333Y-53611247D01*
X155908333Y-53611247D02*
X156003571Y-53658866D01*
X156003571Y-53658866D02*
X156194047Y-53658866D01*
X156194047Y-53658866D02*
X156289285Y-53611247D01*
X156289285Y-53611247D02*
X156336904Y-53563628D01*
X156336904Y-53563628D02*
X156384523Y-53468390D01*
X154336905Y-114364819D02*
X154336905Y-113364819D01*
X154336905Y-113841009D02*
X154908333Y-113841009D01*
X154908333Y-114364819D02*
X154908333Y-113364819D01*
X155908333Y-114364819D02*
X155336905Y-114364819D01*
X155622619Y-114364819D02*
X155622619Y-113364819D01*
X155622619Y-113364819D02*
X155527381Y-113507676D01*
X155527381Y-113507676D02*
X155432143Y-113602914D01*
X155432143Y-113602914D02*
X155336905Y-113650533D01*
X156527381Y-113364819D02*
X156622619Y-113364819D01*
X156622619Y-113364819D02*
X156717857Y-113412438D01*
X156717857Y-113412438D02*
X156765476Y-113460057D01*
X156765476Y-113460057D02*
X156813095Y-113555295D01*
X156813095Y-113555295D02*
X156860714Y-113745771D01*
X156860714Y-113745771D02*
X156860714Y-113983866D01*
X156860714Y-113983866D02*
X156813095Y-114174342D01*
X156813095Y-114174342D02*
X156765476Y-114269580D01*
X156765476Y-114269580D02*
X156717857Y-114317200D01*
X156717857Y-114317200D02*
X156622619Y-114364819D01*
X156622619Y-114364819D02*
X156527381Y-114364819D01*
X156527381Y-114364819D02*
X156432143Y-114317200D01*
X156432143Y-114317200D02*
X156384524Y-114269580D01*
X156384524Y-114269580D02*
X156336905Y-114174342D01*
X156336905Y-114174342D02*
X156289286Y-113983866D01*
X156289286Y-113983866D02*
X156289286Y-113745771D01*
X156289286Y-113745771D02*
X156336905Y-113555295D01*
X156336905Y-113555295D02*
X156384524Y-113460057D01*
X156384524Y-113460057D02*
X156432143Y-113412438D01*
X156432143Y-113412438D02*
X156527381Y-113364819D01*
X155241666Y-62364819D02*
X155241666Y-63079104D01*
X155241666Y-63079104D02*
X155194047Y-63221961D01*
X155194047Y-63221961D02*
X155098809Y-63317200D01*
X155098809Y-63317200D02*
X154955952Y-63364819D01*
X154955952Y-63364819D02*
X154860714Y-63364819D01*
X156194047Y-62364819D02*
X155717857Y-62364819D01*
X155717857Y-62364819D02*
X155670238Y-62841009D01*
X155670238Y-62841009D02*
X155717857Y-62793390D01*
X155717857Y-62793390D02*
X155813095Y-62745771D01*
X155813095Y-62745771D02*
X156051190Y-62745771D01*
X156051190Y-62745771D02*
X156146428Y-62793390D01*
X156146428Y-62793390D02*
X156194047Y-62841009D01*
X156194047Y-62841009D02*
X156241666Y-62936247D01*
X156241666Y-62936247D02*
X156241666Y-63174342D01*
X156241666Y-63174342D02*
X156194047Y-63269580D01*
X156194047Y-63269580D02*
X156146428Y-63317200D01*
X156146428Y-63317200D02*
X156051190Y-63364819D01*
X156051190Y-63364819D02*
X155813095Y-63364819D01*
X155813095Y-63364819D02*
X155717857Y-63317200D01*
X155717857Y-63317200D02*
X155670238Y-63269580D01*
X69516666Y-85584819D02*
X69516666Y-86299104D01*
X69516666Y-86299104D02*
X69469047Y-86441961D01*
X69469047Y-86441961D02*
X69373809Y-86537200D01*
X69373809Y-86537200D02*
X69230952Y-86584819D01*
X69230952Y-86584819D02*
X69135714Y-86584819D01*
X70516666Y-86584819D02*
X69945238Y-86584819D01*
X70230952Y-86584819D02*
X70230952Y-85584819D01*
X70230952Y-85584819D02*
X70135714Y-85727676D01*
X70135714Y-85727676D02*
X70040476Y-85822914D01*
X70040476Y-85822914D02*
X69945238Y-85870533D01*
X94916666Y-85584819D02*
X94916666Y-86299104D01*
X94916666Y-86299104D02*
X94869047Y-86441961D01*
X94869047Y-86441961D02*
X94773809Y-86537200D01*
X94773809Y-86537200D02*
X94630952Y-86584819D01*
X94630952Y-86584819D02*
X94535714Y-86584819D01*
X95345238Y-85680057D02*
X95392857Y-85632438D01*
X95392857Y-85632438D02*
X95488095Y-85584819D01*
X95488095Y-85584819D02*
X95726190Y-85584819D01*
X95726190Y-85584819D02*
X95821428Y-85632438D01*
X95821428Y-85632438D02*
X95869047Y-85680057D01*
X95869047Y-85680057D02*
X95916666Y-85775295D01*
X95916666Y-85775295D02*
X95916666Y-85870533D01*
X95916666Y-85870533D02*
X95869047Y-86013390D01*
X95869047Y-86013390D02*
X95297619Y-86584819D01*
X95297619Y-86584819D02*
X95916666Y-86584819D01*
X105846666Y-76394819D02*
X105846666Y-77109104D01*
X105846666Y-77109104D02*
X105799047Y-77251961D01*
X105799047Y-77251961D02*
X105703809Y-77347200D01*
X105703809Y-77347200D02*
X105560952Y-77394819D01*
X105560952Y-77394819D02*
X105465714Y-77394819D01*
X106322857Y-77394819D02*
X106322857Y-76394819D01*
X106322857Y-76394819D02*
X106703809Y-76394819D01*
X106703809Y-76394819D02*
X106799047Y-76442438D01*
X106799047Y-76442438D02*
X106846666Y-76490057D01*
X106846666Y-76490057D02*
X106894285Y-76585295D01*
X106894285Y-76585295D02*
X106894285Y-76728152D01*
X106894285Y-76728152D02*
X106846666Y-76823390D01*
X106846666Y-76823390D02*
X106799047Y-76871009D01*
X106799047Y-76871009D02*
X106703809Y-76918628D01*
X106703809Y-76918628D02*
X106322857Y-76918628D01*
X107846666Y-77394819D02*
X107275238Y-77394819D01*
X107560952Y-77394819D02*
X107560952Y-76394819D01*
X107560952Y-76394819D02*
X107465714Y-76537676D01*
X107465714Y-76537676D02*
X107370476Y-76632914D01*
X107370476Y-76632914D02*
X107275238Y-76680533D01*
X129413095Y-107539819D02*
X129413095Y-108349342D01*
X129413095Y-108349342D02*
X129460714Y-108444580D01*
X129460714Y-108444580D02*
X129508333Y-108492200D01*
X129508333Y-108492200D02*
X129603571Y-108539819D01*
X129603571Y-108539819D02*
X129794047Y-108539819D01*
X129794047Y-108539819D02*
X129889285Y-108492200D01*
X129889285Y-108492200D02*
X129936904Y-108444580D01*
X129936904Y-108444580D02*
X129984523Y-108349342D01*
X129984523Y-108349342D02*
X129984523Y-107539819D01*
X130984523Y-108539819D02*
X130413095Y-108539819D01*
X130698809Y-108539819D02*
X130698809Y-107539819D01*
X130698809Y-107539819D02*
X130603571Y-107682676D01*
X130603571Y-107682676D02*
X130508333Y-107777914D01*
X130508333Y-107777914D02*
X130413095Y-107825533D01*
X129764819Y-72516904D02*
X130574342Y-72516904D01*
X130574342Y-72516904D02*
X130669580Y-72469285D01*
X130669580Y-72469285D02*
X130717200Y-72421666D01*
X130717200Y-72421666D02*
X130764819Y-72326428D01*
X130764819Y-72326428D02*
X130764819Y-72135952D01*
X130764819Y-72135952D02*
X130717200Y-72040714D01*
X130717200Y-72040714D02*
X130669580Y-71993095D01*
X130669580Y-71993095D02*
X130574342Y-71945476D01*
X130574342Y-71945476D02*
X129764819Y-71945476D01*
X129860057Y-71516904D02*
X129812438Y-71469285D01*
X129812438Y-71469285D02*
X129764819Y-71374047D01*
X129764819Y-71374047D02*
X129764819Y-71135952D01*
X129764819Y-71135952D02*
X129812438Y-71040714D01*
X129812438Y-71040714D02*
X129860057Y-70993095D01*
X129860057Y-70993095D02*
X129955295Y-70945476D01*
X129955295Y-70945476D02*
X130050533Y-70945476D01*
X130050533Y-70945476D02*
X130193390Y-70993095D01*
X130193390Y-70993095D02*
X130764819Y-71564523D01*
X130764819Y-71564523D02*
X130764819Y-70945476D01*
X105069819Y-134786666D02*
X104593628Y-135119999D01*
X105069819Y-135358094D02*
X104069819Y-135358094D01*
X104069819Y-135358094D02*
X104069819Y-134977142D01*
X104069819Y-134977142D02*
X104117438Y-134881904D01*
X104117438Y-134881904D02*
X104165057Y-134834285D01*
X104165057Y-134834285D02*
X104260295Y-134786666D01*
X104260295Y-134786666D02*
X104403152Y-134786666D01*
X104403152Y-134786666D02*
X104498390Y-134834285D01*
X104498390Y-134834285D02*
X104546009Y-134881904D01*
X104546009Y-134881904D02*
X104593628Y-134977142D01*
X104593628Y-134977142D02*
X104593628Y-135358094D01*
X104069819Y-134453332D02*
X104069819Y-133834285D01*
X104069819Y-133834285D02*
X104450771Y-134167618D01*
X104450771Y-134167618D02*
X104450771Y-134024761D01*
X104450771Y-134024761D02*
X104498390Y-133929523D01*
X104498390Y-133929523D02*
X104546009Y-133881904D01*
X104546009Y-133881904D02*
X104641247Y-133834285D01*
X104641247Y-133834285D02*
X104879342Y-133834285D01*
X104879342Y-133834285D02*
X104974580Y-133881904D01*
X104974580Y-133881904D02*
X105022200Y-133929523D01*
X105022200Y-133929523D02*
X105069819Y-134024761D01*
X105069819Y-134024761D02*
X105069819Y-134310475D01*
X105069819Y-134310475D02*
X105022200Y-134405713D01*
X105022200Y-134405713D02*
X104974580Y-134453332D01*
X107648333Y-62472680D02*
X107648333Y-61758395D01*
X107648333Y-61758395D02*
X107695952Y-61615538D01*
X107695952Y-61615538D02*
X107791190Y-61520300D01*
X107791190Y-61520300D02*
X107934047Y-61472680D01*
X107934047Y-61472680D02*
X108029285Y-61472680D01*
X106743571Y-62139347D02*
X106743571Y-61472680D01*
X106981666Y-62520300D02*
X107219761Y-61806014D01*
X107219761Y-61806014D02*
X106600714Y-61806014D01*
X105069819Y-66206666D02*
X104593628Y-66539999D01*
X105069819Y-66778094D02*
X104069819Y-66778094D01*
X104069819Y-66778094D02*
X104069819Y-66397142D01*
X104069819Y-66397142D02*
X104117438Y-66301904D01*
X104117438Y-66301904D02*
X104165057Y-66254285D01*
X104165057Y-66254285D02*
X104260295Y-66206666D01*
X104260295Y-66206666D02*
X104403152Y-66206666D01*
X104403152Y-66206666D02*
X104498390Y-66254285D01*
X104498390Y-66254285D02*
X104546009Y-66301904D01*
X104546009Y-66301904D02*
X104593628Y-66397142D01*
X104593628Y-66397142D02*
X104593628Y-66778094D01*
X104069819Y-65349523D02*
X104069819Y-65539999D01*
X104069819Y-65539999D02*
X104117438Y-65635237D01*
X104117438Y-65635237D02*
X104165057Y-65682856D01*
X104165057Y-65682856D02*
X104307914Y-65778094D01*
X104307914Y-65778094D02*
X104498390Y-65825713D01*
X104498390Y-65825713D02*
X104879342Y-65825713D01*
X104879342Y-65825713D02*
X104974580Y-65778094D01*
X104974580Y-65778094D02*
X105022200Y-65730475D01*
X105022200Y-65730475D02*
X105069819Y-65635237D01*
X105069819Y-65635237D02*
X105069819Y-65444761D01*
X105069819Y-65444761D02*
X105022200Y-65349523D01*
X105022200Y-65349523D02*
X104974580Y-65301904D01*
X104974580Y-65301904D02*
X104879342Y-65254285D01*
X104879342Y-65254285D02*
X104641247Y-65254285D01*
X104641247Y-65254285D02*
X104546009Y-65301904D01*
X104546009Y-65301904D02*
X104498390Y-65349523D01*
X104498390Y-65349523D02*
X104450771Y-65444761D01*
X104450771Y-65444761D02*
X104450771Y-65635237D01*
X104450771Y-65635237D02*
X104498390Y-65730475D01*
X104498390Y-65730475D02*
X104546009Y-65778094D01*
X104546009Y-65778094D02*
X104641247Y-65825713D01*
X106981666Y-138187319D02*
X106981666Y-138901604D01*
X106981666Y-138901604D02*
X106934047Y-139044461D01*
X106934047Y-139044461D02*
X106838809Y-139139700D01*
X106838809Y-139139700D02*
X106695952Y-139187319D01*
X106695952Y-139187319D02*
X106600714Y-139187319D01*
X107362619Y-138187319D02*
X107981666Y-138187319D01*
X107981666Y-138187319D02*
X107648333Y-138568271D01*
X107648333Y-138568271D02*
X107791190Y-138568271D01*
X107791190Y-138568271D02*
X107886428Y-138615890D01*
X107886428Y-138615890D02*
X107934047Y-138663509D01*
X107934047Y-138663509D02*
X107981666Y-138758747D01*
X107981666Y-138758747D02*
X107981666Y-138996842D01*
X107981666Y-138996842D02*
X107934047Y-139092080D01*
X107934047Y-139092080D02*
X107886428Y-139139700D01*
X107886428Y-139139700D02*
X107791190Y-139187319D01*
X107791190Y-139187319D02*
X107505476Y-139187319D01*
X107505476Y-139187319D02*
X107410238Y-139139700D01*
X107410238Y-139139700D02*
X107362619Y-139092080D01*
X109834819Y-66206666D02*
X109358628Y-66539999D01*
X109834819Y-66778094D02*
X108834819Y-66778094D01*
X108834819Y-66778094D02*
X108834819Y-66397142D01*
X108834819Y-66397142D02*
X108882438Y-66301904D01*
X108882438Y-66301904D02*
X108930057Y-66254285D01*
X108930057Y-66254285D02*
X109025295Y-66206666D01*
X109025295Y-66206666D02*
X109168152Y-66206666D01*
X109168152Y-66206666D02*
X109263390Y-66254285D01*
X109263390Y-66254285D02*
X109311009Y-66301904D01*
X109311009Y-66301904D02*
X109358628Y-66397142D01*
X109358628Y-66397142D02*
X109358628Y-66778094D01*
X108834819Y-65301904D02*
X108834819Y-65778094D01*
X108834819Y-65778094D02*
X109311009Y-65825713D01*
X109311009Y-65825713D02*
X109263390Y-65778094D01*
X109263390Y-65778094D02*
X109215771Y-65682856D01*
X109215771Y-65682856D02*
X109215771Y-65444761D01*
X109215771Y-65444761D02*
X109263390Y-65349523D01*
X109263390Y-65349523D02*
X109311009Y-65301904D01*
X109311009Y-65301904D02*
X109406247Y-65254285D01*
X109406247Y-65254285D02*
X109644342Y-65254285D01*
X109644342Y-65254285D02*
X109739580Y-65301904D01*
X109739580Y-65301904D02*
X109787200Y-65349523D01*
X109787200Y-65349523D02*
X109834819Y-65444761D01*
X109834819Y-65444761D02*
X109834819Y-65682856D01*
X109834819Y-65682856D02*
X109787200Y-65778094D01*
X109787200Y-65778094D02*
X109739580Y-65825713D01*
X109834819Y-134786666D02*
X109358628Y-135119999D01*
X109834819Y-135358094D02*
X108834819Y-135358094D01*
X108834819Y-135358094D02*
X108834819Y-134977142D01*
X108834819Y-134977142D02*
X108882438Y-134881904D01*
X108882438Y-134881904D02*
X108930057Y-134834285D01*
X108930057Y-134834285D02*
X109025295Y-134786666D01*
X109025295Y-134786666D02*
X109168152Y-134786666D01*
X109168152Y-134786666D02*
X109263390Y-134834285D01*
X109263390Y-134834285D02*
X109311009Y-134881904D01*
X109311009Y-134881904D02*
X109358628Y-134977142D01*
X109358628Y-134977142D02*
X109358628Y-135358094D01*
X109168152Y-133929523D02*
X109834819Y-133929523D01*
X108787200Y-134167618D02*
X109501485Y-134405713D01*
X109501485Y-134405713D02*
X109501485Y-133786666D01*
D10*
X120230000Y-58520000D02*
X120230000Y-57050000D01*
X120230000Y-57050000D02*
X117945000Y-57050000D01*
X117945000Y-58520000D02*
X120230000Y-58520000D01*
X129120000Y-58520000D02*
X129120000Y-57050000D01*
X129120000Y-57050000D02*
X126835000Y-57050000D01*
X126835000Y-58520000D02*
X129120000Y-58520000D01*
X108472500Y-70247742D02*
X108472500Y-70722258D01*
X107427500Y-70247742D02*
X107427500Y-70722258D01*
X111647500Y-70247742D02*
X111647500Y-70722258D01*
X110602500Y-70247742D02*
X110602500Y-70722258D01*
X150165000Y-63700000D02*
X150165000Y-64950000D01*
X150465000Y-64000000D02*
X150465000Y-70620000D01*
X150465000Y-67310000D02*
X151475000Y-67310000D01*
X150465000Y-70620000D02*
X160685000Y-70620000D01*
X151415000Y-63700000D02*
X150165000Y-63700000D01*
X151475000Y-65610000D02*
X151475000Y-69910000D01*
X151475000Y-69910000D02*
X159675000Y-69910000D01*
X153175000Y-64000000D02*
X150465000Y-64000000D01*
X153175000Y-65000000D02*
X153175000Y-64000000D01*
X154775000Y-64400000D02*
X154775000Y-65000000D01*
X154775000Y-65000000D02*
X153175000Y-65000000D01*
X156375000Y-64400000D02*
X154775000Y-64400000D01*
X156375000Y-65000000D02*
X156375000Y-64400000D01*
X157975000Y-64000000D02*
X157975000Y-65000000D01*
X157975000Y-65000000D02*
X156375000Y-65000000D01*
X159675000Y-65610000D02*
X151475000Y-65610000D01*
X159675000Y-69910000D02*
X159675000Y-65610000D01*
X160685000Y-64000000D02*
X157975000Y-64000000D01*
X160685000Y-67310000D02*
X159675000Y-67310000D01*
X160685000Y-70620000D02*
X160685000Y-64000000D01*
X68520000Y-90170000D02*
X68520000Y-113090000D01*
X68520000Y-90170000D02*
X71180000Y-90170000D01*
X68520000Y-113090000D02*
X71180000Y-113090000D01*
X69850000Y-87570000D02*
X71180000Y-87570000D01*
X71180000Y-87570000D02*
X71180000Y-88900000D01*
X71180000Y-90170000D02*
X71180000Y-113090000D01*
X93920000Y-90170000D02*
X93920000Y-113090000D01*
X93920000Y-90170000D02*
X96580000Y-90170000D01*
X93920000Y-113090000D02*
X96580000Y-113090000D01*
X95250000Y-87570000D02*
X96580000Y-87570000D01*
X96580000Y-87570000D02*
X96580000Y-88900000D01*
X96580000Y-90170000D02*
X96580000Y-113090000D01*
X105280000Y-77740000D02*
X108080000Y-77740000D01*
X105280000Y-79740000D02*
X105280000Y-77740000D01*
X108080000Y-77740000D02*
X108080000Y-79740000D01*
X108080000Y-79740000D02*
X105280000Y-79740000D01*
X144205000Y-132775000D02*
X142875000Y-132775000D01*
X144205000Y-131445000D02*
X144205000Y-132775000D01*
X144205000Y-130175000D02*
X144205000Y-84395000D01*
X144205000Y-130175000D02*
X141545000Y-130175000D01*
X144205000Y-84395000D02*
X141545000Y-84395000D01*
X144125000Y-132685000D02*
X116225000Y-132685000D01*
X144125000Y-84485000D02*
X144125000Y-132685000D01*
X144125000Y-84485000D02*
X116225000Y-84485000D01*
X141545000Y-130175000D02*
X141545000Y-84395000D01*
X139175000Y-138585000D02*
X121175000Y-138585000D01*
X139175000Y-132715000D02*
X139175000Y-138585000D01*
X121175000Y-138585000D02*
X121175000Y-132715000D01*
X118805000Y-132775000D02*
X117475000Y-132775000D01*
X118805000Y-131445000D02*
X118805000Y-132775000D01*
X118805000Y-130175000D02*
X118805000Y-84395000D01*
X118805000Y-130175000D02*
X116145000Y-130175000D01*
X118805000Y-84395000D02*
X116145000Y-84395000D01*
X116225000Y-132685000D02*
X116225000Y-84485000D01*
X116145000Y-130175000D02*
X116145000Y-84395000D01*
X145810000Y-61755000D02*
X145810000Y-81755000D01*
X115810000Y-61755000D02*
X145810000Y-61755000D01*
X121010000Y-64305000D02*
X117610000Y-64305000D01*
X117610000Y-64305000D02*
X117610000Y-65005000D01*
X121010000Y-65005000D02*
X121010000Y-64305000D01*
X117610000Y-70505000D02*
X117610000Y-71205000D01*
X121010000Y-71205000D02*
X121010000Y-70505000D01*
X117610000Y-71205000D02*
X121010000Y-71205000D01*
X145810000Y-81755000D02*
X115810000Y-81755000D01*
X115810000Y-81755000D02*
X115810000Y-61755000D01*
X105522500Y-134857258D02*
X105522500Y-134382742D01*
X106567500Y-134857258D02*
X106567500Y-134382742D01*
X111915000Y-59375000D02*
X111915000Y-57575000D01*
X111915000Y-55575000D02*
X111915000Y-54375000D01*
X102715000Y-59375000D02*
X102715000Y-57575000D01*
X102715000Y-55575000D02*
X102715000Y-54375000D01*
X105522500Y-66277258D02*
X105522500Y-65802742D01*
X106567500Y-66277258D02*
X106567500Y-65802742D01*
X102715000Y-141285000D02*
X102715000Y-143085000D01*
X102715000Y-145085000D02*
X102715000Y-146285000D01*
X111915000Y-141285000D02*
X111915000Y-143085000D01*
X111915000Y-145085000D02*
X111915000Y-146285000D01*
X108472500Y-65802742D02*
X108472500Y-66277258D01*
X107427500Y-65802742D02*
X107427500Y-66277258D01*
X108472500Y-134382742D02*
X108472500Y-134857258D01*
X107427500Y-134382742D02*
X107427500Y-134857258D01*
M02*
