G04 #@! TF.GenerationSoftware,KiCad,Pcbnew,7.0.7*
G04 #@! TF.CreationDate,2023-10-02T17:25:41+09:00*
G04 #@! TF.ProjectId,control_boad_2021-2,636f6e74-726f-46c5-9f62-6f61645f3230,rev?*
G04 #@! TF.SameCoordinates,Original*
G04 #@! TF.FileFunction,Profile,NP*
%FSLAX46Y46*%
G04 Gerber Fmt 4.6, Leading zero omitted, Abs format (unit mm)*
G04 Created by KiCad (PCBNEW 7.0.7) date 2023-10-02 17:25:41*
%MOMM*%
%LPD*%
G01*
G04 APERTURE LIST*
G04 #@! TA.AperFunction,Profile*
%ADD10C,0.050000*%
G04 #@! TD*
G04 APERTURE END LIST*
D10*
X143510000Y-146685000D02*
X69215000Y-146685000D01*
X147320000Y-57785000D02*
X147320000Y-69850000D01*
X153670000Y-121920000D02*
X157480000Y-121920000D01*
X153670000Y-53975000D02*
X157480000Y-53975000D01*
X149860000Y-118110000D02*
X149860000Y-107315000D01*
X147320000Y-107315000D02*
X147320000Y-142875000D01*
X149860000Y-107315000D02*
G75*
G03*
X147320000Y-107315000I-1270000J0D01*
G01*
X65405000Y-57785000D02*
X65405000Y-142875000D01*
X147320000Y-69850000D02*
G75*
G03*
X149860000Y-69850000I1270000J0D01*
G01*
X69215000Y-53975000D02*
G75*
G03*
X65405000Y-57785000I0J-3810000D01*
G01*
X69215000Y-53975000D02*
X143510000Y-53975000D01*
X149860000Y-57785000D02*
X149860000Y-69850000D01*
X149860000Y-118110000D02*
G75*
G03*
X153670000Y-121920000I3810000J0D01*
G01*
X161290000Y-57785000D02*
X161290000Y-118110000D01*
X153670000Y-53975000D02*
G75*
G03*
X149860000Y-57785000I0J-3810000D01*
G01*
X147320000Y-57785000D02*
G75*
G03*
X143510000Y-53975000I-3810000J0D01*
G01*
X143510000Y-146685000D02*
G75*
G03*
X147320000Y-142875000I0J3810000D01*
G01*
X157480000Y-121920000D02*
G75*
G03*
X161290000Y-118110000I0J3810000D01*
G01*
X161290000Y-57785000D02*
G75*
G03*
X157480000Y-53975000I-3810000J0D01*
G01*
X65405000Y-142875000D02*
G75*
G03*
X69215000Y-146685000I3810000J0D01*
G01*
M02*
