G04 #@! TF.GenerationSoftware,KiCad,Pcbnew,(5.1.5)-3*
G04 #@! TF.CreationDate,2021-11-03T13:02:22+09:00*
G04 #@! TF.ProjectId,control_boad_2021-2,636f6e74-726f-46c5-9f62-6f61645f3230,rev?*
G04 #@! TF.SameCoordinates,Original*
G04 #@! TF.FileFunction,Copper,L2,Bot*
G04 #@! TF.FilePolarity,Positive*
%FSLAX46Y46*%
G04 Gerber Fmt 4.6, Leading zero omitted, Abs format (unit mm)*
G04 Created by KiCad (PCBNEW (5.1.5)-3) date 2021-11-03 13:02:22*
%MOMM*%
%LPD*%
G04 APERTURE LIST*
%ADD10O,1.700000X1.950000*%
%ADD11C,0.100000*%
%ADD12C,6.400000*%
%ADD13R,1.000000X1.500000*%
%ADD14O,1.100000X1.600000*%
%ADD15C,0.800000*%
%ADD16C,4.400000*%
%ADD17R,1.700000X1.700000*%
%ADD18O,1.700000X1.700000*%
%ADD19C,0.500000*%
%ADD20C,0.750000*%
%ADD21C,1.000000*%
%ADD22C,0.250000*%
%ADD23C,0.254000*%
G04 APERTURE END LIST*
D10*
X158075000Y-67310000D03*
X155575000Y-67310000D03*
G04 #@! TA.AperFunction,ComponentPad*
D11*
G36*
X153699504Y-66336204D02*
G01*
X153723773Y-66339804D01*
X153747571Y-66345765D01*
X153770671Y-66354030D01*
X153792849Y-66364520D01*
X153813893Y-66377133D01*
X153833598Y-66391747D01*
X153851777Y-66408223D01*
X153868253Y-66426402D01*
X153882867Y-66446107D01*
X153895480Y-66467151D01*
X153905970Y-66489329D01*
X153914235Y-66512429D01*
X153920196Y-66536227D01*
X153923796Y-66560496D01*
X153925000Y-66585000D01*
X153925000Y-68035000D01*
X153923796Y-68059504D01*
X153920196Y-68083773D01*
X153914235Y-68107571D01*
X153905970Y-68130671D01*
X153895480Y-68152849D01*
X153882867Y-68173893D01*
X153868253Y-68193598D01*
X153851777Y-68211777D01*
X153833598Y-68228253D01*
X153813893Y-68242867D01*
X153792849Y-68255480D01*
X153770671Y-68265970D01*
X153747571Y-68274235D01*
X153723773Y-68280196D01*
X153699504Y-68283796D01*
X153675000Y-68285000D01*
X152475000Y-68285000D01*
X152450496Y-68283796D01*
X152426227Y-68280196D01*
X152402429Y-68274235D01*
X152379329Y-68265970D01*
X152357151Y-68255480D01*
X152336107Y-68242867D01*
X152316402Y-68228253D01*
X152298223Y-68211777D01*
X152281747Y-68193598D01*
X152267133Y-68173893D01*
X152254520Y-68152849D01*
X152244030Y-68130671D01*
X152235765Y-68107571D01*
X152229804Y-68083773D01*
X152226204Y-68059504D01*
X152225000Y-68035000D01*
X152225000Y-66585000D01*
X152226204Y-66560496D01*
X152229804Y-66536227D01*
X152235765Y-66512429D01*
X152244030Y-66489329D01*
X152254520Y-66467151D01*
X152267133Y-66446107D01*
X152281747Y-66426402D01*
X152298223Y-66408223D01*
X152316402Y-66391747D01*
X152336107Y-66377133D01*
X152357151Y-66364520D01*
X152379329Y-66354030D01*
X152402429Y-66345765D01*
X152426227Y-66339804D01*
X152450496Y-66336204D01*
X152475000Y-66335000D01*
X153675000Y-66335000D01*
X153699504Y-66336204D01*
G37*
G04 #@! TD.AperFunction*
D12*
X155575000Y-118110000D03*
X155575000Y-57785000D03*
D13*
X157175000Y-109130000D03*
X153975000Y-109130000D03*
X157175000Y-104230000D03*
X153975000Y-104230000D03*
X157175000Y-93890000D03*
X153975000Y-93890000D03*
X157175000Y-88990000D03*
X153975000Y-88990000D03*
X157175000Y-78650000D03*
X153975000Y-78650000D03*
X157175000Y-73750000D03*
X153975000Y-73750000D03*
D14*
X111500000Y-57150000D03*
X104400000Y-57150000D03*
D12*
X95885000Y-137160000D03*
X95885000Y-63500000D03*
X69215000Y-124460000D03*
X69215000Y-76200000D03*
D15*
X139492056Y-56087944D03*
X137795000Y-55385000D03*
X136097944Y-56087944D03*
X135395000Y-57785000D03*
X136097944Y-59482056D03*
X137795000Y-60185000D03*
X139492056Y-59482056D03*
X140195000Y-57785000D03*
D12*
X137795000Y-57785000D03*
D15*
X139492056Y-141177944D03*
X137795000Y-140475000D03*
X136097944Y-141177944D03*
X135395000Y-142875000D03*
X136097944Y-144572056D03*
X137795000Y-145275000D03*
X139492056Y-144572056D03*
X140195000Y-142875000D03*
D12*
X137795000Y-142875000D03*
D15*
X70912056Y-141177944D03*
X69215000Y-140475000D03*
X67517944Y-141177944D03*
X66815000Y-142875000D03*
X67517944Y-144572056D03*
X69215000Y-145275000D03*
X70912056Y-144572056D03*
X71615000Y-142875000D03*
D12*
X69215000Y-142875000D03*
D15*
X70912056Y-56087944D03*
X69215000Y-55385000D03*
X67517944Y-56087944D03*
X66815000Y-57785000D03*
X67517944Y-59482056D03*
X69215000Y-60185000D03*
X70912056Y-59482056D03*
X71615000Y-57785000D03*
D12*
X69215000Y-57785000D03*
D16*
X144210000Y-78255000D03*
X118810000Y-78755000D03*
D17*
X117475000Y-131445000D03*
D18*
X117475000Y-88265000D03*
X117475000Y-126365000D03*
X117475000Y-116205000D03*
X117475000Y-128905000D03*
X117475000Y-108585000D03*
X117475000Y-123825000D03*
X117475000Y-111125000D03*
X117475000Y-93345000D03*
X117475000Y-106045000D03*
X117475000Y-118745000D03*
X117475000Y-103505000D03*
X117475000Y-98425000D03*
X117475000Y-121285000D03*
X117475000Y-90805000D03*
X117475000Y-100965000D03*
X117475000Y-85725000D03*
X117475000Y-95885000D03*
X117475000Y-113665000D03*
D17*
X142875000Y-131445000D03*
D18*
X142875000Y-88265000D03*
X142875000Y-126365000D03*
X142875000Y-116205000D03*
X142875000Y-128905000D03*
X142875000Y-108585000D03*
X142875000Y-123825000D03*
X142875000Y-111125000D03*
X142875000Y-93345000D03*
X142875000Y-106045000D03*
X142875000Y-118745000D03*
X142875000Y-103505000D03*
X142875000Y-98425000D03*
X142875000Y-121285000D03*
X142875000Y-90805000D03*
X142875000Y-100965000D03*
X142875000Y-85725000D03*
X142875000Y-95885000D03*
X142875000Y-113665000D03*
D14*
X104400000Y-143510000D03*
X111500000Y-143510000D03*
D18*
X95250000Y-111760000D03*
X95250000Y-109220000D03*
X95250000Y-106680000D03*
X95250000Y-104140000D03*
X95250000Y-101600000D03*
X95250000Y-99060000D03*
X95250000Y-96520000D03*
X95250000Y-93980000D03*
X95250000Y-91440000D03*
D17*
X95250000Y-88900000D03*
D18*
X69850000Y-111760000D03*
X69850000Y-109220000D03*
X69850000Y-106680000D03*
X69850000Y-104140000D03*
X69850000Y-101600000D03*
X69850000Y-99060000D03*
X69850000Y-96520000D03*
X69850000Y-93980000D03*
X69850000Y-91440000D03*
D17*
X69850000Y-88900000D03*
D15*
X100965000Y-126365000D03*
X90805000Y-125730000D03*
X81280000Y-123825000D03*
X76200000Y-116840000D03*
X91440000Y-112395000D03*
X86360000Y-107950000D03*
X81915000Y-102235000D03*
X77470000Y-98425000D03*
X73025000Y-93345000D03*
X81915000Y-93345000D03*
X81915000Y-90170000D03*
X73025000Y-90170000D03*
X88265000Y-93980000D03*
X91440000Y-89535000D03*
X102235000Y-87630000D03*
X106045000Y-83820000D03*
X99695000Y-80010000D03*
X100965000Y-77470000D03*
X99060000Y-73660000D03*
X107315000Y-73660000D03*
X104140000Y-69850000D03*
X111760000Y-63500000D03*
X104140000Y-65405000D03*
X93345000Y-73660000D03*
X85725000Y-84455000D03*
X76200000Y-86995000D03*
X92075000Y-78740000D03*
X81280000Y-76835000D03*
X81280000Y-69850000D03*
X74295000Y-69850000D03*
X86995000Y-64135000D03*
X81280000Y-59690000D03*
X78105000Y-64135000D03*
X69850000Y-64135000D03*
X86995000Y-72390000D03*
X76835000Y-133350000D03*
X81915000Y-140970000D03*
X87630000Y-133350000D03*
X68580000Y-133350000D03*
X90805000Y-142240000D03*
X104140000Y-129540000D03*
X112395000Y-137795000D03*
X118745000Y-140335000D03*
X126365000Y-140335000D03*
X120015000Y-133350000D03*
X125095000Y-131445000D03*
X127635000Y-127000000D03*
X130810000Y-125095000D03*
X130810000Y-118110000D03*
X134620000Y-114300000D03*
X131445000Y-132080000D03*
X134620000Y-127000000D03*
X139700000Y-121920000D03*
X141605000Y-134620000D03*
X135255000Y-137795000D03*
X135255000Y-132080000D03*
X140335000Y-127000000D03*
X145415000Y-120650000D03*
X145415000Y-112395000D03*
X145415000Y-104775000D03*
X145415000Y-97155000D03*
X145415000Y-90170000D03*
X133985000Y-100330000D03*
X139700000Y-102870000D03*
X127000000Y-96520000D03*
X127000000Y-87630000D03*
X134620000Y-95250000D03*
X127000000Y-82550000D03*
X111760000Y-81915000D03*
X109855000Y-78740000D03*
X111125000Y-86360000D03*
X106680000Y-90805000D03*
X104140000Y-106045000D03*
X104140000Y-113030000D03*
X99060000Y-108585000D03*
X99060000Y-91440000D03*
X92075000Y-104775000D03*
X92075000Y-97790000D03*
X137160000Y-84455000D03*
X130175000Y-77470000D03*
X127000000Y-72390000D03*
X137160000Y-75565000D03*
X137160000Y-67945000D03*
X128905000Y-64770000D03*
X121285000Y-62865000D03*
X119380000Y-71120000D03*
X121920000Y-72390000D03*
X125730000Y-60325000D03*
X132080000Y-58420000D03*
X144145000Y-61595000D03*
X144145000Y-69215000D03*
X114935000Y-56515000D03*
X116840000Y-59690000D03*
X114935000Y-62865000D03*
X122555000Y-92710000D03*
X119380000Y-99695000D03*
X123190000Y-104140000D03*
X120650000Y-109855000D03*
X135255000Y-107950000D03*
X130175000Y-110490000D03*
X127000000Y-117475000D03*
X120650000Y-120650000D03*
X127635000Y-130810000D03*
X96520000Y-78740000D03*
X121920000Y-86360000D03*
X97155000Y-76200000D03*
X121920000Y-85090000D03*
X128905000Y-103505000D03*
X126365000Y-101600000D03*
X113665000Y-109855000D03*
X114935000Y-109220000D03*
X108585000Y-100330000D03*
X129540000Y-135890000D03*
X109855000Y-98425000D03*
X126365000Y-137160000D03*
X111125000Y-97790000D03*
X125730000Y-135890000D03*
X112395000Y-96520000D03*
X114300000Y-67945000D03*
X104140000Y-92075000D03*
X106680000Y-133350000D03*
X98425000Y-87630000D03*
X97790000Y-80010000D03*
X121920000Y-87630000D03*
X116840000Y-71120000D03*
X108585000Y-78105000D03*
X119380000Y-60960000D03*
X112395000Y-68580000D03*
X153035000Y-112395000D03*
X158115000Y-112395000D03*
X153670000Y-99695000D03*
X153670000Y-85090000D03*
X159385000Y-79375000D03*
X159385000Y-93345000D03*
X153670000Y-71120000D03*
X152400000Y-76835000D03*
X155575000Y-90805000D03*
X155575000Y-106045000D03*
X159385000Y-72390000D03*
X159385000Y-109220000D03*
X153035000Y-62230000D03*
X158115000Y-62230000D03*
D19*
X140970000Y-116205000D02*
X142875000Y-116205000D01*
X135255000Y-121920000D02*
X140970000Y-116205000D01*
X132715000Y-125730000D02*
X132715000Y-124460000D01*
X127635000Y-130810000D02*
X132715000Y-125730000D01*
X132715000Y-124460000D02*
X135255000Y-121920000D01*
X69850000Y-91440000D02*
X83820000Y-91440000D01*
X83820000Y-91440000D02*
X96520000Y-78740000D01*
X121920000Y-86360000D02*
X133350000Y-97790000D01*
X137160000Y-97790000D02*
X142875000Y-103505000D01*
X133350000Y-97790000D02*
X137160000Y-97790000D01*
X69850000Y-88900000D02*
X84455000Y-88900000D01*
X84455000Y-88900000D02*
X97155000Y-76200000D01*
X121920000Y-85090000D02*
X128270000Y-85090000D01*
X139065000Y-95885000D02*
X142875000Y-95885000D01*
X128270000Y-85090000D02*
X139065000Y-95885000D01*
X118079999Y-84424999D02*
X120015000Y-86360000D01*
X110446485Y-84424999D02*
X118079999Y-84424999D01*
X103189991Y-91681493D02*
X110446485Y-84424999D01*
X95250000Y-109220000D02*
X103189991Y-101280009D01*
X103189991Y-101280009D02*
X103189991Y-91681493D01*
X120015000Y-86360000D02*
X120015000Y-97790000D01*
X120015000Y-97790000D02*
X125730000Y-103505000D01*
X125730000Y-103505000D02*
X128905000Y-103505000D01*
X95250000Y-106680000D02*
X101600000Y-100330000D01*
X101600000Y-100330000D02*
X101600000Y-91440000D01*
X101600000Y-91440000D02*
X109855000Y-83185000D01*
X109855000Y-83185000D02*
X118745000Y-83185000D01*
X121069999Y-96304999D02*
X126365000Y-101600000D01*
X118745000Y-83185000D02*
X121069999Y-85509999D01*
X121069999Y-85509999D02*
X121069999Y-96304999D01*
X113665000Y-120015000D02*
X117475000Y-123825000D01*
X113665000Y-109855000D02*
X113665000Y-120015000D01*
X114935000Y-118745000D02*
X117475000Y-121285000D01*
X114935000Y-109220000D02*
X114935000Y-118745000D01*
X108585000Y-100330000D02*
X108585000Y-131445000D01*
X108585000Y-131445000D02*
X108585000Y-132080000D01*
X108585000Y-132080000D02*
X114935000Y-138430000D01*
X114935000Y-138430000D02*
X127000000Y-138430000D01*
X127000000Y-138430000D02*
X129540000Y-135890000D01*
X109855000Y-98425000D02*
X109855000Y-131445000D01*
X109855000Y-131445000D02*
X115570000Y-137160000D01*
X115570000Y-137160000D02*
X126365000Y-137160000D01*
X116308260Y-135890000D02*
X125730000Y-135890000D01*
X111125000Y-97790000D02*
X111125000Y-130706740D01*
X111125000Y-130706740D02*
X116308260Y-135890000D01*
D20*
X142875000Y-131445000D02*
X141525000Y-131445000D01*
X141525000Y-131445000D02*
X138350000Y-134620000D01*
X138350000Y-134620000D02*
X116205000Y-134620000D01*
X116205000Y-134620000D02*
X112395000Y-130810000D01*
X112395000Y-130810000D02*
X112395000Y-96520000D01*
D19*
X93949999Y-87689999D02*
X105439998Y-76200000D01*
X95250000Y-91440000D02*
X93949999Y-90139999D01*
X93949999Y-90139999D02*
X93949999Y-87689999D01*
X105439998Y-76200000D02*
X108585000Y-76200000D01*
X108585000Y-76200000D02*
X111760000Y-73025000D01*
X111760000Y-73025000D02*
X113665000Y-71120000D01*
X113665000Y-71120000D02*
X114300000Y-70485000D01*
X114300000Y-70485000D02*
X114300000Y-67945000D01*
D21*
X104140000Y-92075000D02*
X106680000Y-94615000D01*
X106680000Y-94615000D02*
X106680000Y-133350000D01*
X98425000Y-87630000D02*
X105410000Y-80645000D01*
X105410000Y-80645000D02*
X110490000Y-80645000D01*
X110490000Y-80645000D02*
X116205000Y-74930000D01*
X132080000Y-74930000D02*
X142875000Y-85725000D01*
X116205000Y-74930000D02*
X132080000Y-74930000D01*
D19*
X69850000Y-109220000D02*
X88265000Y-90805000D01*
X88265000Y-90805000D02*
X88265000Y-89535000D01*
X88265000Y-89535000D02*
X97790000Y-80010000D01*
X121920000Y-87630000D02*
X130175000Y-95885000D01*
X130175000Y-95885000D02*
X130175000Y-106680000D01*
X137160000Y-113665000D02*
X142875000Y-113665000D01*
X130175000Y-106680000D02*
X137160000Y-113665000D01*
D22*
X116840000Y-71120000D02*
X113030000Y-74930000D01*
X113030000Y-74930000D02*
X111760000Y-74930000D01*
X111760000Y-74930000D02*
X108585000Y-78105000D01*
X119380000Y-60960000D02*
X112395000Y-67945000D01*
X112395000Y-67945000D02*
X112395000Y-68580000D01*
D20*
X157175000Y-77150000D02*
X157175000Y-78650000D01*
X156099999Y-76074999D02*
X157175000Y-77150000D01*
X156099999Y-70334999D02*
X156099999Y-76074999D01*
X153075000Y-67310000D02*
X156099999Y-70334999D01*
X157175000Y-92390000D02*
X157175000Y-93890000D01*
X158250001Y-91314999D02*
X157175000Y-92390000D01*
X158250001Y-81225001D02*
X158250001Y-91314999D01*
X157175000Y-80150000D02*
X158250001Y-81225001D01*
X157175000Y-78650000D02*
X157175000Y-80150000D01*
X157175000Y-107630000D02*
X157175000Y-109130000D01*
X158250001Y-106554999D02*
X157175000Y-107630000D01*
X158250001Y-96465001D02*
X158250001Y-106554999D01*
X157175000Y-95390000D02*
X158250001Y-96465001D01*
X157175000Y-93890000D02*
X157175000Y-95390000D01*
X157175000Y-83350000D02*
X157175000Y-88990000D01*
X153975000Y-78650000D02*
X153975000Y-80150000D01*
X153975000Y-80150000D02*
X157175000Y-83350000D01*
X157175000Y-68910000D02*
X157175000Y-73750000D01*
X155575000Y-67310000D02*
X157175000Y-68910000D01*
X153975000Y-93890000D02*
X153975000Y-95555000D01*
X157175000Y-98755000D02*
X157175000Y-104230000D01*
X153975000Y-95555000D02*
X157175000Y-98755000D01*
D23*
G36*
X135350330Y-54806161D02*
G01*
X134816161Y-55340330D01*
X134396467Y-55968446D01*
X134107377Y-56666372D01*
X133960000Y-57407285D01*
X133960000Y-58162715D01*
X134107377Y-58903628D01*
X134396467Y-59601554D01*
X134816161Y-60229670D01*
X135350330Y-60763839D01*
X135978446Y-61183533D01*
X136676372Y-61472623D01*
X137417285Y-61620000D01*
X138172715Y-61620000D01*
X138913628Y-61472623D01*
X139611554Y-61183533D01*
X140239670Y-60763839D01*
X140773839Y-60229670D01*
X141193533Y-59601554D01*
X141482623Y-58903628D01*
X141630000Y-58162715D01*
X141630000Y-57407285D01*
X141482623Y-56666372D01*
X141193533Y-55968446D01*
X140773839Y-55340330D01*
X140239670Y-54806161D01*
X139983510Y-54635000D01*
X143477721Y-54635000D01*
X144121222Y-54698096D01*
X144709164Y-54875606D01*
X145251436Y-55163937D01*
X145727364Y-55552094D01*
X146118845Y-56025314D01*
X146410951Y-56565552D01*
X146592563Y-57152244D01*
X146660000Y-57793879D01*
X146660001Y-69882419D01*
X146663274Y-69915651D01*
X146663274Y-69932137D01*
X146664237Y-69941302D01*
X146691866Y-70187618D01*
X146704297Y-70246098D01*
X146715921Y-70304808D01*
X146718647Y-70313611D01*
X146793592Y-70549869D01*
X146817146Y-70604824D01*
X146839953Y-70660158D01*
X146844336Y-70668264D01*
X146963744Y-70885466D01*
X146997518Y-70934791D01*
X147030643Y-70984648D01*
X147036517Y-70991749D01*
X147193000Y-71178236D01*
X147193000Y-105986332D01*
X147183255Y-105995875D01*
X147177381Y-106002976D01*
X147020727Y-106195054D01*
X146987655Y-106244831D01*
X146953826Y-106294237D01*
X146949444Y-106302343D01*
X146833081Y-106521191D01*
X146810298Y-106576468D01*
X146786721Y-106631475D01*
X146783997Y-106640278D01*
X146712357Y-106877559D01*
X146700736Y-106936246D01*
X146688300Y-106994752D01*
X146687337Y-107003917D01*
X146663158Y-107250515D01*
X146660000Y-107282582D01*
X146660001Y-142842711D01*
X146596904Y-143486221D01*
X146419394Y-144074164D01*
X146131063Y-144616436D01*
X145742906Y-145092364D01*
X145269686Y-145483845D01*
X144729449Y-145775950D01*
X144142756Y-145957563D01*
X143501130Y-146025000D01*
X139983510Y-146025000D01*
X140239670Y-145853839D01*
X140773839Y-145319670D01*
X141193533Y-144691554D01*
X141482623Y-143993628D01*
X141630000Y-143252715D01*
X141630000Y-142497285D01*
X141482623Y-141756372D01*
X141193533Y-141058446D01*
X140773839Y-140430330D01*
X140239670Y-139896161D01*
X139611554Y-139476467D01*
X138913628Y-139187377D01*
X138172715Y-139040000D01*
X137417285Y-139040000D01*
X136676372Y-139187377D01*
X135978446Y-139476467D01*
X135350330Y-139896161D01*
X134816161Y-140430330D01*
X134396467Y-141058446D01*
X134107377Y-141756372D01*
X133960000Y-142497285D01*
X133960000Y-143252715D01*
X134107377Y-143993628D01*
X134396467Y-144691554D01*
X134816161Y-145319670D01*
X135350330Y-145853839D01*
X135606490Y-146025000D01*
X71403510Y-146025000D01*
X71659670Y-145853839D01*
X72193839Y-145319670D01*
X72613533Y-144691554D01*
X72902623Y-143993628D01*
X73050000Y-143252715D01*
X73050000Y-143201793D01*
X103215000Y-143201793D01*
X103215000Y-143818206D01*
X103232147Y-143992299D01*
X103299906Y-144215673D01*
X103409942Y-144421535D01*
X103558025Y-144601975D01*
X103738464Y-144750058D01*
X103944326Y-144860094D01*
X104167700Y-144927853D01*
X104400000Y-144950733D01*
X104632299Y-144927853D01*
X104855673Y-144860094D01*
X105061535Y-144750058D01*
X105241975Y-144601975D01*
X105390058Y-144421536D01*
X105500094Y-144215674D01*
X105567853Y-143992300D01*
X105585000Y-143818207D01*
X105585000Y-143201794D01*
X105585000Y-143201793D01*
X110315000Y-143201793D01*
X110315000Y-143818206D01*
X110332147Y-143992299D01*
X110399906Y-144215673D01*
X110509942Y-144421535D01*
X110658025Y-144601975D01*
X110838464Y-144750058D01*
X111044326Y-144860094D01*
X111267700Y-144927853D01*
X111500000Y-144950733D01*
X111732299Y-144927853D01*
X111955673Y-144860094D01*
X112161535Y-144750058D01*
X112341975Y-144601975D01*
X112490058Y-144421536D01*
X112600094Y-144215674D01*
X112667853Y-143992300D01*
X112685000Y-143818207D01*
X112685000Y-143201794D01*
X112667853Y-143027701D01*
X112600094Y-142804327D01*
X112490058Y-142598464D01*
X112341975Y-142418025D01*
X112161536Y-142269942D01*
X111955674Y-142159906D01*
X111732300Y-142092147D01*
X111500000Y-142069267D01*
X111267701Y-142092147D01*
X111044327Y-142159906D01*
X110838465Y-142269942D01*
X110658026Y-142418025D01*
X110509943Y-142598464D01*
X110399906Y-142804326D01*
X110332147Y-143027700D01*
X110315000Y-143201793D01*
X105585000Y-143201793D01*
X105567853Y-143027701D01*
X105500094Y-142804327D01*
X105390058Y-142598464D01*
X105241975Y-142418025D01*
X105061536Y-142269942D01*
X104855674Y-142159906D01*
X104632300Y-142092147D01*
X104400000Y-142069267D01*
X104167701Y-142092147D01*
X103944327Y-142159906D01*
X103738465Y-142269942D01*
X103558026Y-142418025D01*
X103409943Y-142598464D01*
X103299906Y-142804326D01*
X103232147Y-143027700D01*
X103215000Y-143201793D01*
X73050000Y-143201793D01*
X73050000Y-142497285D01*
X72902623Y-141756372D01*
X72613533Y-141058446D01*
X72193839Y-140430330D01*
X71659670Y-139896161D01*
X71606870Y-139860881D01*
X93363724Y-139860881D01*
X93723912Y-140350548D01*
X94387882Y-140710849D01*
X95109385Y-140934694D01*
X95860695Y-141013480D01*
X96612938Y-140944178D01*
X97337208Y-140729452D01*
X98005670Y-140377555D01*
X98046088Y-140350548D01*
X98406276Y-139860881D01*
X95885000Y-137339605D01*
X93363724Y-139860881D01*
X71606870Y-139860881D01*
X71031554Y-139476467D01*
X70333628Y-139187377D01*
X69592715Y-139040000D01*
X68837285Y-139040000D01*
X68096372Y-139187377D01*
X67398446Y-139476467D01*
X66770330Y-139896161D01*
X66236161Y-140430330D01*
X66065000Y-140686490D01*
X66065000Y-137135695D01*
X92031520Y-137135695D01*
X92100822Y-137887938D01*
X92315548Y-138612208D01*
X92667445Y-139280670D01*
X92694452Y-139321088D01*
X93184119Y-139681276D01*
X95705395Y-137160000D01*
X96064605Y-137160000D01*
X98585881Y-139681276D01*
X99075548Y-139321088D01*
X99435849Y-138657118D01*
X99659694Y-137935615D01*
X99738480Y-137184305D01*
X99669178Y-136432062D01*
X99454452Y-135707792D01*
X99102555Y-135039330D01*
X99075548Y-134998912D01*
X98585881Y-134638724D01*
X96064605Y-137160000D01*
X95705395Y-137160000D01*
X93184119Y-134638724D01*
X92694452Y-134998912D01*
X92334151Y-135662882D01*
X92110306Y-136384385D01*
X92031520Y-137135695D01*
X66065000Y-137135695D01*
X66065000Y-134459119D01*
X93363724Y-134459119D01*
X95885000Y-136980395D01*
X98406276Y-134459119D01*
X98046088Y-133969452D01*
X97382118Y-133609151D01*
X96660615Y-133385306D01*
X95909305Y-133306520D01*
X95157062Y-133375822D01*
X94432792Y-133590548D01*
X93764330Y-133942445D01*
X93723912Y-133969452D01*
X93363724Y-134459119D01*
X66065000Y-134459119D01*
X66065000Y-127160881D01*
X66693724Y-127160881D01*
X67053912Y-127650548D01*
X67717882Y-128010849D01*
X68439385Y-128234694D01*
X69190695Y-128313480D01*
X69942938Y-128244178D01*
X70667208Y-128029452D01*
X71335670Y-127677555D01*
X71376088Y-127650548D01*
X71736276Y-127160881D01*
X69215000Y-124639605D01*
X66693724Y-127160881D01*
X66065000Y-127160881D01*
X66065000Y-126650914D01*
X66514119Y-126981276D01*
X69035395Y-124460000D01*
X69394605Y-124460000D01*
X71915881Y-126981276D01*
X72405548Y-126621088D01*
X72765849Y-125957118D01*
X72989694Y-125235615D01*
X73068480Y-124484305D01*
X72999178Y-123732062D01*
X72784452Y-123007792D01*
X72432555Y-122339330D01*
X72405548Y-122298912D01*
X71915881Y-121938724D01*
X69394605Y-124460000D01*
X69035395Y-124460000D01*
X66514119Y-121938724D01*
X66065000Y-122269086D01*
X66065000Y-121759119D01*
X66693724Y-121759119D01*
X69215000Y-124280395D01*
X71736276Y-121759119D01*
X71376088Y-121269452D01*
X70712118Y-120909151D01*
X69990615Y-120685306D01*
X69239305Y-120606520D01*
X68487062Y-120675822D01*
X67762792Y-120890548D01*
X67094330Y-121242445D01*
X67053912Y-121269452D01*
X66693724Y-121759119D01*
X66065000Y-121759119D01*
X66065000Y-112116890D01*
X68408524Y-112116890D01*
X68453175Y-112264099D01*
X68578359Y-112526920D01*
X68752412Y-112760269D01*
X68968645Y-112955178D01*
X69218748Y-113104157D01*
X69493109Y-113201481D01*
X69723000Y-113080814D01*
X69723000Y-111887000D01*
X69977000Y-111887000D01*
X69977000Y-113080814D01*
X70206891Y-113201481D01*
X70481252Y-113104157D01*
X70731355Y-112955178D01*
X70947588Y-112760269D01*
X71121641Y-112526920D01*
X71246825Y-112264099D01*
X71291476Y-112116890D01*
X93808524Y-112116890D01*
X93853175Y-112264099D01*
X93978359Y-112526920D01*
X94152412Y-112760269D01*
X94368645Y-112955178D01*
X94618748Y-113104157D01*
X94893109Y-113201481D01*
X95123000Y-113080814D01*
X95123000Y-111887000D01*
X95377000Y-111887000D01*
X95377000Y-113080814D01*
X95606891Y-113201481D01*
X95881252Y-113104157D01*
X96131355Y-112955178D01*
X96347588Y-112760269D01*
X96521641Y-112526920D01*
X96646825Y-112264099D01*
X96691476Y-112116890D01*
X96570155Y-111887000D01*
X95377000Y-111887000D01*
X95123000Y-111887000D01*
X93929845Y-111887000D01*
X93808524Y-112116890D01*
X71291476Y-112116890D01*
X71170155Y-111887000D01*
X69977000Y-111887000D01*
X69723000Y-111887000D01*
X68529845Y-111887000D01*
X68408524Y-112116890D01*
X66065000Y-112116890D01*
X66065000Y-88050000D01*
X68361928Y-88050000D01*
X68361928Y-89750000D01*
X68374188Y-89874482D01*
X68410498Y-89994180D01*
X68469463Y-90104494D01*
X68548815Y-90201185D01*
X68645506Y-90280537D01*
X68755820Y-90339502D01*
X68828380Y-90361513D01*
X68696525Y-90493368D01*
X68534010Y-90736589D01*
X68422068Y-91006842D01*
X68365000Y-91293740D01*
X68365000Y-91586260D01*
X68422068Y-91873158D01*
X68534010Y-92143411D01*
X68696525Y-92386632D01*
X68903368Y-92593475D01*
X69077760Y-92710000D01*
X68903368Y-92826525D01*
X68696525Y-93033368D01*
X68534010Y-93276589D01*
X68422068Y-93546842D01*
X68365000Y-93833740D01*
X68365000Y-94126260D01*
X68422068Y-94413158D01*
X68534010Y-94683411D01*
X68696525Y-94926632D01*
X68903368Y-95133475D01*
X69077760Y-95250000D01*
X68903368Y-95366525D01*
X68696525Y-95573368D01*
X68534010Y-95816589D01*
X68422068Y-96086842D01*
X68365000Y-96373740D01*
X68365000Y-96666260D01*
X68422068Y-96953158D01*
X68534010Y-97223411D01*
X68696525Y-97466632D01*
X68903368Y-97673475D01*
X69077760Y-97790000D01*
X68903368Y-97906525D01*
X68696525Y-98113368D01*
X68534010Y-98356589D01*
X68422068Y-98626842D01*
X68365000Y-98913740D01*
X68365000Y-99206260D01*
X68422068Y-99493158D01*
X68534010Y-99763411D01*
X68696525Y-100006632D01*
X68903368Y-100213475D01*
X69077760Y-100330000D01*
X68903368Y-100446525D01*
X68696525Y-100653368D01*
X68534010Y-100896589D01*
X68422068Y-101166842D01*
X68365000Y-101453740D01*
X68365000Y-101746260D01*
X68422068Y-102033158D01*
X68534010Y-102303411D01*
X68696525Y-102546632D01*
X68903368Y-102753475D01*
X69077760Y-102870000D01*
X68903368Y-102986525D01*
X68696525Y-103193368D01*
X68534010Y-103436589D01*
X68422068Y-103706842D01*
X68365000Y-103993740D01*
X68365000Y-104286260D01*
X68422068Y-104573158D01*
X68534010Y-104843411D01*
X68696525Y-105086632D01*
X68903368Y-105293475D01*
X69077760Y-105410000D01*
X68903368Y-105526525D01*
X68696525Y-105733368D01*
X68534010Y-105976589D01*
X68422068Y-106246842D01*
X68365000Y-106533740D01*
X68365000Y-106826260D01*
X68422068Y-107113158D01*
X68534010Y-107383411D01*
X68696525Y-107626632D01*
X68903368Y-107833475D01*
X69077760Y-107950000D01*
X68903368Y-108066525D01*
X68696525Y-108273368D01*
X68534010Y-108516589D01*
X68422068Y-108786842D01*
X68365000Y-109073740D01*
X68365000Y-109366260D01*
X68422068Y-109653158D01*
X68534010Y-109923411D01*
X68696525Y-110166632D01*
X68903368Y-110373475D01*
X69085534Y-110495195D01*
X68968645Y-110564822D01*
X68752412Y-110759731D01*
X68578359Y-110993080D01*
X68453175Y-111255901D01*
X68408524Y-111403110D01*
X68529845Y-111633000D01*
X69723000Y-111633000D01*
X69723000Y-111613000D01*
X69977000Y-111613000D01*
X69977000Y-111633000D01*
X71170155Y-111633000D01*
X71291476Y-111403110D01*
X71246825Y-111255901D01*
X71121641Y-110993080D01*
X70947588Y-110759731D01*
X70731355Y-110564822D01*
X70614466Y-110495195D01*
X70796632Y-110373475D01*
X71003475Y-110166632D01*
X71165990Y-109923411D01*
X71277932Y-109653158D01*
X71335000Y-109366260D01*
X71335000Y-109073740D01*
X71320539Y-109001039D01*
X88860051Y-91461528D01*
X88893817Y-91433817D01*
X89004411Y-91299059D01*
X89086589Y-91145313D01*
X89137195Y-90978490D01*
X89150000Y-90848477D01*
X89150000Y-90848469D01*
X89154281Y-90805000D01*
X89150000Y-90761531D01*
X89150000Y-89901578D01*
X91361579Y-87689999D01*
X93060718Y-87689999D01*
X93065000Y-87733478D01*
X93064999Y-90096530D01*
X93060718Y-90139999D01*
X93064999Y-90183468D01*
X93064999Y-90183475D01*
X93077804Y-90313488D01*
X93128410Y-90480311D01*
X93210588Y-90634057D01*
X93321182Y-90768816D01*
X93354955Y-90796533D01*
X93779461Y-91221039D01*
X93765000Y-91293740D01*
X93765000Y-91586260D01*
X93822068Y-91873158D01*
X93934010Y-92143411D01*
X94096525Y-92386632D01*
X94303368Y-92593475D01*
X94477760Y-92710000D01*
X94303368Y-92826525D01*
X94096525Y-93033368D01*
X93934010Y-93276589D01*
X93822068Y-93546842D01*
X93765000Y-93833740D01*
X93765000Y-94126260D01*
X93822068Y-94413158D01*
X93934010Y-94683411D01*
X94096525Y-94926632D01*
X94303368Y-95133475D01*
X94477760Y-95250000D01*
X94303368Y-95366525D01*
X94096525Y-95573368D01*
X93934010Y-95816589D01*
X93822068Y-96086842D01*
X93765000Y-96373740D01*
X93765000Y-96666260D01*
X93822068Y-96953158D01*
X93934010Y-97223411D01*
X94096525Y-97466632D01*
X94303368Y-97673475D01*
X94477760Y-97790000D01*
X94303368Y-97906525D01*
X94096525Y-98113368D01*
X93934010Y-98356589D01*
X93822068Y-98626842D01*
X93765000Y-98913740D01*
X93765000Y-99206260D01*
X93822068Y-99493158D01*
X93934010Y-99763411D01*
X94096525Y-100006632D01*
X94303368Y-100213475D01*
X94477760Y-100330000D01*
X94303368Y-100446525D01*
X94096525Y-100653368D01*
X93934010Y-100896589D01*
X93822068Y-101166842D01*
X93765000Y-101453740D01*
X93765000Y-101746260D01*
X93822068Y-102033158D01*
X93934010Y-102303411D01*
X94096525Y-102546632D01*
X94303368Y-102753475D01*
X94477760Y-102870000D01*
X94303368Y-102986525D01*
X94096525Y-103193368D01*
X93934010Y-103436589D01*
X93822068Y-103706842D01*
X93765000Y-103993740D01*
X93765000Y-104286260D01*
X93822068Y-104573158D01*
X93934010Y-104843411D01*
X94096525Y-105086632D01*
X94303368Y-105293475D01*
X94477760Y-105410000D01*
X94303368Y-105526525D01*
X94096525Y-105733368D01*
X93934010Y-105976589D01*
X93822068Y-106246842D01*
X93765000Y-106533740D01*
X93765000Y-106826260D01*
X93822068Y-107113158D01*
X93934010Y-107383411D01*
X94096525Y-107626632D01*
X94303368Y-107833475D01*
X94477760Y-107950000D01*
X94303368Y-108066525D01*
X94096525Y-108273368D01*
X93934010Y-108516589D01*
X93822068Y-108786842D01*
X93765000Y-109073740D01*
X93765000Y-109366260D01*
X93822068Y-109653158D01*
X93934010Y-109923411D01*
X94096525Y-110166632D01*
X94303368Y-110373475D01*
X94485534Y-110495195D01*
X94368645Y-110564822D01*
X94152412Y-110759731D01*
X93978359Y-110993080D01*
X93853175Y-111255901D01*
X93808524Y-111403110D01*
X93929845Y-111633000D01*
X95123000Y-111633000D01*
X95123000Y-111613000D01*
X95377000Y-111613000D01*
X95377000Y-111633000D01*
X96570155Y-111633000D01*
X96691476Y-111403110D01*
X96646825Y-111255901D01*
X96521641Y-110993080D01*
X96347588Y-110759731D01*
X96131355Y-110564822D01*
X96014466Y-110495195D01*
X96196632Y-110373475D01*
X96403475Y-110166632D01*
X96565990Y-109923411D01*
X96677932Y-109653158D01*
X96735000Y-109366260D01*
X96735000Y-109073740D01*
X96720539Y-109001039D01*
X103785042Y-101936537D01*
X103818808Y-101908826D01*
X103929402Y-101774068D01*
X104011580Y-101620322D01*
X104062186Y-101453499D01*
X104074991Y-101323486D01*
X104074991Y-101323478D01*
X104079272Y-101280009D01*
X104074991Y-101236540D01*
X104074991Y-93615122D01*
X105545000Y-95085132D01*
X105545001Y-133405752D01*
X105561424Y-133572499D01*
X105626325Y-133786447D01*
X105731717Y-133983623D01*
X105873552Y-134156449D01*
X106046378Y-134298284D01*
X106243554Y-134403676D01*
X106457502Y-134468577D01*
X106680000Y-134490491D01*
X106902499Y-134468577D01*
X107116447Y-134403676D01*
X107313623Y-134298284D01*
X107486449Y-134156449D01*
X107628284Y-133983623D01*
X107733676Y-133786447D01*
X107798577Y-133572499D01*
X107815000Y-133405752D01*
X107815000Y-132516828D01*
X107845590Y-132574059D01*
X107928468Y-132675046D01*
X107928471Y-132675049D01*
X107956184Y-132708817D01*
X107989952Y-132736530D01*
X114278470Y-139025049D01*
X114306183Y-139058817D01*
X114339951Y-139086530D01*
X114339953Y-139086532D01*
X114411452Y-139145210D01*
X114440941Y-139169411D01*
X114594687Y-139251589D01*
X114761510Y-139302195D01*
X114891523Y-139315000D01*
X114891533Y-139315000D01*
X114934999Y-139319281D01*
X114978465Y-139315000D01*
X126956531Y-139315000D01*
X127000000Y-139319281D01*
X127043469Y-139315000D01*
X127043477Y-139315000D01*
X127173490Y-139302195D01*
X127340313Y-139251589D01*
X127494059Y-139169411D01*
X127628817Y-139058817D01*
X127656534Y-139025044D01*
X129785044Y-136896535D01*
X129841898Y-136885226D01*
X130030256Y-136807205D01*
X130199774Y-136693937D01*
X130343937Y-136549774D01*
X130457205Y-136380256D01*
X130535226Y-136191898D01*
X130575000Y-135991939D01*
X130575000Y-135788061D01*
X130543560Y-135630000D01*
X138300392Y-135630000D01*
X138350000Y-135634886D01*
X138547994Y-135615385D01*
X138738380Y-135557632D01*
X138913840Y-135463847D01*
X139067633Y-135337633D01*
X139099261Y-135299094D01*
X141616851Y-132781504D01*
X141670506Y-132825537D01*
X141780820Y-132884502D01*
X141900518Y-132920812D01*
X142025000Y-132933072D01*
X143725000Y-132933072D01*
X143849482Y-132920812D01*
X143969180Y-132884502D01*
X144079494Y-132825537D01*
X144176185Y-132746185D01*
X144255537Y-132649494D01*
X144314502Y-132539180D01*
X144350812Y-132419482D01*
X144363072Y-132295000D01*
X144363072Y-130595000D01*
X144350812Y-130470518D01*
X144314502Y-130350820D01*
X144255537Y-130240506D01*
X144176185Y-130143815D01*
X144079494Y-130064463D01*
X143969180Y-130005498D01*
X143896620Y-129983487D01*
X144028475Y-129851632D01*
X144190990Y-129608411D01*
X144302932Y-129338158D01*
X144360000Y-129051260D01*
X144360000Y-128758740D01*
X144302932Y-128471842D01*
X144190990Y-128201589D01*
X144028475Y-127958368D01*
X143821632Y-127751525D01*
X143647240Y-127635000D01*
X143821632Y-127518475D01*
X144028475Y-127311632D01*
X144190990Y-127068411D01*
X144302932Y-126798158D01*
X144360000Y-126511260D01*
X144360000Y-126218740D01*
X144302932Y-125931842D01*
X144190990Y-125661589D01*
X144028475Y-125418368D01*
X143821632Y-125211525D01*
X143647240Y-125095000D01*
X143821632Y-124978475D01*
X144028475Y-124771632D01*
X144190990Y-124528411D01*
X144302932Y-124258158D01*
X144360000Y-123971260D01*
X144360000Y-123678740D01*
X144302932Y-123391842D01*
X144190990Y-123121589D01*
X144028475Y-122878368D01*
X143821632Y-122671525D01*
X143647240Y-122555000D01*
X143821632Y-122438475D01*
X144028475Y-122231632D01*
X144190990Y-121988411D01*
X144302932Y-121718158D01*
X144360000Y-121431260D01*
X144360000Y-121138740D01*
X144302932Y-120851842D01*
X144190990Y-120581589D01*
X144028475Y-120338368D01*
X143821632Y-120131525D01*
X143647240Y-120015000D01*
X143821632Y-119898475D01*
X144028475Y-119691632D01*
X144190990Y-119448411D01*
X144302932Y-119178158D01*
X144360000Y-118891260D01*
X144360000Y-118598740D01*
X144302932Y-118311842D01*
X144190990Y-118041589D01*
X144028475Y-117798368D01*
X143821632Y-117591525D01*
X143647240Y-117475000D01*
X143821632Y-117358475D01*
X144028475Y-117151632D01*
X144190990Y-116908411D01*
X144302932Y-116638158D01*
X144360000Y-116351260D01*
X144360000Y-116058740D01*
X144302932Y-115771842D01*
X144190990Y-115501589D01*
X144028475Y-115258368D01*
X143821632Y-115051525D01*
X143647240Y-114935000D01*
X143821632Y-114818475D01*
X144028475Y-114611632D01*
X144190990Y-114368411D01*
X144302932Y-114098158D01*
X144360000Y-113811260D01*
X144360000Y-113518740D01*
X144302932Y-113231842D01*
X144190990Y-112961589D01*
X144028475Y-112718368D01*
X143821632Y-112511525D01*
X143647240Y-112395000D01*
X143821632Y-112278475D01*
X144028475Y-112071632D01*
X144190990Y-111828411D01*
X144302932Y-111558158D01*
X144360000Y-111271260D01*
X144360000Y-110978740D01*
X144302932Y-110691842D01*
X144190990Y-110421589D01*
X144028475Y-110178368D01*
X143821632Y-109971525D01*
X143647240Y-109855000D01*
X143821632Y-109738475D01*
X144028475Y-109531632D01*
X144190990Y-109288411D01*
X144302932Y-109018158D01*
X144360000Y-108731260D01*
X144360000Y-108438740D01*
X144302932Y-108151842D01*
X144190990Y-107881589D01*
X144028475Y-107638368D01*
X143821632Y-107431525D01*
X143647240Y-107315000D01*
X143821632Y-107198475D01*
X144028475Y-106991632D01*
X144190990Y-106748411D01*
X144302932Y-106478158D01*
X144360000Y-106191260D01*
X144360000Y-105898740D01*
X144302932Y-105611842D01*
X144190990Y-105341589D01*
X144028475Y-105098368D01*
X143821632Y-104891525D01*
X143647240Y-104775000D01*
X143821632Y-104658475D01*
X144028475Y-104451632D01*
X144190990Y-104208411D01*
X144302932Y-103938158D01*
X144360000Y-103651260D01*
X144360000Y-103358740D01*
X144302932Y-103071842D01*
X144190990Y-102801589D01*
X144028475Y-102558368D01*
X143821632Y-102351525D01*
X143647240Y-102235000D01*
X143821632Y-102118475D01*
X144028475Y-101911632D01*
X144190990Y-101668411D01*
X144302932Y-101398158D01*
X144360000Y-101111260D01*
X144360000Y-100818740D01*
X144302932Y-100531842D01*
X144190990Y-100261589D01*
X144028475Y-100018368D01*
X143821632Y-99811525D01*
X143639466Y-99689805D01*
X143756355Y-99620178D01*
X143972588Y-99425269D01*
X144146641Y-99191920D01*
X144271825Y-98929099D01*
X144316476Y-98781890D01*
X144195155Y-98552000D01*
X143002000Y-98552000D01*
X143002000Y-98572000D01*
X142748000Y-98572000D01*
X142748000Y-98552000D01*
X141554845Y-98552000D01*
X141433524Y-98781890D01*
X141478175Y-98929099D01*
X141603359Y-99191920D01*
X141777412Y-99425269D01*
X141993645Y-99620178D01*
X142110534Y-99689805D01*
X141928368Y-99811525D01*
X141721525Y-100018368D01*
X141559010Y-100261589D01*
X141447068Y-100531842D01*
X141398348Y-100776770D01*
X137816534Y-97194956D01*
X137788817Y-97161183D01*
X137654059Y-97050589D01*
X137500313Y-96968411D01*
X137333490Y-96917805D01*
X137203477Y-96905000D01*
X137203469Y-96905000D01*
X137160000Y-96900719D01*
X137116531Y-96905000D01*
X133716579Y-96905000D01*
X122926535Y-86114957D01*
X122915226Y-86058102D01*
X122880804Y-85975000D01*
X127903422Y-85975000D01*
X138408470Y-96480049D01*
X138436183Y-96513817D01*
X138469951Y-96541530D01*
X138469953Y-96541532D01*
X138527075Y-96588411D01*
X138570941Y-96624411D01*
X138724687Y-96706589D01*
X138891510Y-96757195D01*
X139021523Y-96770000D01*
X139021533Y-96770000D01*
X139064999Y-96774281D01*
X139108465Y-96770000D01*
X141680344Y-96770000D01*
X141721525Y-96831632D01*
X141928368Y-97038475D01*
X142110534Y-97160195D01*
X141993645Y-97229822D01*
X141777412Y-97424731D01*
X141603359Y-97658080D01*
X141478175Y-97920901D01*
X141433524Y-98068110D01*
X141554845Y-98298000D01*
X142748000Y-98298000D01*
X142748000Y-98278000D01*
X143002000Y-98278000D01*
X143002000Y-98298000D01*
X144195155Y-98298000D01*
X144316476Y-98068110D01*
X144271825Y-97920901D01*
X144146641Y-97658080D01*
X143972588Y-97424731D01*
X143756355Y-97229822D01*
X143639466Y-97160195D01*
X143821632Y-97038475D01*
X144028475Y-96831632D01*
X144190990Y-96588411D01*
X144302932Y-96318158D01*
X144360000Y-96031260D01*
X144360000Y-95738740D01*
X144302932Y-95451842D01*
X144190990Y-95181589D01*
X144028475Y-94938368D01*
X143821632Y-94731525D01*
X143647240Y-94615000D01*
X143821632Y-94498475D01*
X144028475Y-94291632D01*
X144190990Y-94048411D01*
X144302932Y-93778158D01*
X144360000Y-93491260D01*
X144360000Y-93198740D01*
X144302932Y-92911842D01*
X144190990Y-92641589D01*
X144028475Y-92398368D01*
X143821632Y-92191525D01*
X143647240Y-92075000D01*
X143821632Y-91958475D01*
X144028475Y-91751632D01*
X144190990Y-91508411D01*
X144302932Y-91238158D01*
X144360000Y-90951260D01*
X144360000Y-90658740D01*
X144302932Y-90371842D01*
X144190990Y-90101589D01*
X144028475Y-89858368D01*
X143821632Y-89651525D01*
X143647240Y-89535000D01*
X143821632Y-89418475D01*
X144028475Y-89211632D01*
X144190990Y-88968411D01*
X144302932Y-88698158D01*
X144360000Y-88411260D01*
X144360000Y-88118740D01*
X144302932Y-87831842D01*
X144190990Y-87561589D01*
X144028475Y-87318368D01*
X143821632Y-87111525D01*
X143647240Y-86995000D01*
X143821632Y-86878475D01*
X144028475Y-86671632D01*
X144190990Y-86428411D01*
X144302932Y-86158158D01*
X144360000Y-85871260D01*
X144360000Y-85578740D01*
X144302932Y-85291842D01*
X144190990Y-85021589D01*
X144028475Y-84778368D01*
X143821632Y-84571525D01*
X143578411Y-84409010D01*
X143308158Y-84297068D01*
X143021260Y-84240000D01*
X142995132Y-84240000D01*
X138999907Y-80244775D01*
X142399830Y-80244775D01*
X142639976Y-80632018D01*
X143133877Y-80892641D01*
X143669133Y-81051901D01*
X144225174Y-81103678D01*
X144780632Y-81045981D01*
X145314161Y-80881028D01*
X145780024Y-80632018D01*
X146020170Y-80244775D01*
X144210000Y-78434605D01*
X142399830Y-80244775D01*
X138999907Y-80244775D01*
X137025306Y-78270174D01*
X141361322Y-78270174D01*
X141419019Y-78825632D01*
X141583972Y-79359161D01*
X141832982Y-79825024D01*
X142220225Y-80065170D01*
X144030395Y-78255000D01*
X144389605Y-78255000D01*
X146199775Y-80065170D01*
X146587018Y-79825024D01*
X146847641Y-79331123D01*
X147006901Y-78795867D01*
X147058678Y-78239826D01*
X147000981Y-77684368D01*
X146836028Y-77150839D01*
X146587018Y-76684976D01*
X146199775Y-76444830D01*
X144389605Y-78255000D01*
X144030395Y-78255000D01*
X142220225Y-76444830D01*
X141832982Y-76684976D01*
X141572359Y-77178877D01*
X141413099Y-77714133D01*
X141361322Y-78270174D01*
X137025306Y-78270174D01*
X135020357Y-76265225D01*
X142399830Y-76265225D01*
X144210000Y-78075395D01*
X146020170Y-76265225D01*
X145780024Y-75877982D01*
X145286123Y-75617359D01*
X144750867Y-75458099D01*
X144194826Y-75406322D01*
X143639368Y-75464019D01*
X143105839Y-75628972D01*
X142639976Y-75877982D01*
X142399830Y-76265225D01*
X135020357Y-76265225D01*
X132921996Y-74166865D01*
X132886449Y-74123551D01*
X132713623Y-73981716D01*
X132516447Y-73876324D01*
X132302499Y-73811423D01*
X132135752Y-73795000D01*
X132135751Y-73795000D01*
X132080000Y-73789509D01*
X132024249Y-73795000D01*
X116260752Y-73795000D01*
X116205000Y-73789509D01*
X115982501Y-73811423D01*
X115768553Y-73876324D01*
X115571377Y-73981716D01*
X115441856Y-74088011D01*
X115441855Y-74088012D01*
X115398551Y-74123551D01*
X115363013Y-74166854D01*
X110019869Y-79510000D01*
X105465752Y-79510000D01*
X105410000Y-79504509D01*
X105354248Y-79510000D01*
X105255315Y-79519744D01*
X105187501Y-79526423D01*
X104973553Y-79591324D01*
X104776377Y-79696716D01*
X104646856Y-79803011D01*
X104646854Y-79803013D01*
X104603551Y-79838551D01*
X104568013Y-79881854D01*
X97583012Y-86866857D01*
X97476717Y-86996378D01*
X97371324Y-87193554D01*
X97306423Y-87407502D01*
X97284509Y-87630000D01*
X97306423Y-87852498D01*
X97371324Y-88066446D01*
X97476717Y-88263622D01*
X97618552Y-88436448D01*
X97791378Y-88578283D01*
X97988554Y-88683676D01*
X98202502Y-88748577D01*
X98425000Y-88770491D01*
X98647498Y-88748577D01*
X98861446Y-88683676D01*
X99058622Y-88578283D01*
X99188143Y-88471988D01*
X105880133Y-81780000D01*
X110434249Y-81780000D01*
X110490000Y-81785491D01*
X110545751Y-81780000D01*
X110545752Y-81780000D01*
X110712499Y-81763577D01*
X110926447Y-81698676D01*
X111123623Y-81593284D01*
X111296449Y-81451449D01*
X111331996Y-81408135D01*
X111995356Y-80744775D01*
X116999830Y-80744775D01*
X117239976Y-81132018D01*
X117733877Y-81392641D01*
X118269133Y-81551901D01*
X118825174Y-81603678D01*
X119380632Y-81545981D01*
X119914161Y-81381028D01*
X120380024Y-81132018D01*
X120620170Y-80744775D01*
X118810000Y-78934605D01*
X116999830Y-80744775D01*
X111995356Y-80744775D01*
X113969957Y-78770174D01*
X115961322Y-78770174D01*
X116019019Y-79325632D01*
X116183972Y-79859161D01*
X116432982Y-80325024D01*
X116820225Y-80565170D01*
X118630395Y-78755000D01*
X118989605Y-78755000D01*
X120799775Y-80565170D01*
X121187018Y-80325024D01*
X121447641Y-79831123D01*
X121606901Y-79295867D01*
X121658678Y-78739826D01*
X121600981Y-78184368D01*
X121436028Y-77650839D01*
X121187018Y-77184976D01*
X120799775Y-76944830D01*
X118989605Y-78755000D01*
X118630395Y-78755000D01*
X116820225Y-76944830D01*
X116432982Y-77184976D01*
X116172359Y-77678877D01*
X116013099Y-78214133D01*
X115961322Y-78770174D01*
X113969957Y-78770174D01*
X116675133Y-76065000D01*
X117912752Y-76065000D01*
X117705839Y-76128972D01*
X117239976Y-76377982D01*
X116999830Y-76765225D01*
X118810000Y-78575395D01*
X120620170Y-76765225D01*
X120380024Y-76377982D01*
X119886123Y-76117359D01*
X119710150Y-76065000D01*
X131609869Y-76065000D01*
X141390000Y-85845132D01*
X141390000Y-85871260D01*
X141447068Y-86158158D01*
X141559010Y-86428411D01*
X141721525Y-86671632D01*
X141928368Y-86878475D01*
X142102760Y-86995000D01*
X141928368Y-87111525D01*
X141721525Y-87318368D01*
X141559010Y-87561589D01*
X141447068Y-87831842D01*
X141390000Y-88118740D01*
X141390000Y-88411260D01*
X141447068Y-88698158D01*
X141559010Y-88968411D01*
X141721525Y-89211632D01*
X141928368Y-89418475D01*
X142102760Y-89535000D01*
X141928368Y-89651525D01*
X141721525Y-89858368D01*
X141559010Y-90101589D01*
X141447068Y-90371842D01*
X141390000Y-90658740D01*
X141390000Y-90951260D01*
X141447068Y-91238158D01*
X141559010Y-91508411D01*
X141721525Y-91751632D01*
X141928368Y-91958475D01*
X142102760Y-92075000D01*
X141928368Y-92191525D01*
X141721525Y-92398368D01*
X141559010Y-92641589D01*
X141447068Y-92911842D01*
X141390000Y-93198740D01*
X141390000Y-93491260D01*
X141447068Y-93778158D01*
X141559010Y-94048411D01*
X141721525Y-94291632D01*
X141928368Y-94498475D01*
X142102760Y-94615000D01*
X141928368Y-94731525D01*
X141721525Y-94938368D01*
X141680344Y-95000000D01*
X139431579Y-95000000D01*
X128926534Y-84494956D01*
X128898817Y-84461183D01*
X128764059Y-84350589D01*
X128610313Y-84268411D01*
X128443490Y-84217805D01*
X128313477Y-84205000D01*
X128313469Y-84205000D01*
X128270000Y-84200719D01*
X128226531Y-84205000D01*
X122458454Y-84205000D01*
X122410256Y-84172795D01*
X122221898Y-84094774D01*
X122021939Y-84055000D01*
X121818061Y-84055000D01*
X121618102Y-84094774D01*
X121429744Y-84172795D01*
X121260226Y-84286063D01*
X121178934Y-84367355D01*
X119401534Y-82589956D01*
X119373817Y-82556183D01*
X119239059Y-82445589D01*
X119085313Y-82363411D01*
X118918490Y-82312805D01*
X118788477Y-82300000D01*
X118788469Y-82300000D01*
X118745000Y-82295719D01*
X118701531Y-82300000D01*
X109898469Y-82300000D01*
X109855000Y-82295719D01*
X109811531Y-82300000D01*
X109811523Y-82300000D01*
X109696306Y-82311348D01*
X109681509Y-82312805D01*
X109630903Y-82328157D01*
X109514687Y-82363411D01*
X109360941Y-82445589D01*
X109360939Y-82445590D01*
X109360940Y-82445590D01*
X109259953Y-82528468D01*
X109259951Y-82528470D01*
X109226183Y-82556183D01*
X109198470Y-82589951D01*
X101004952Y-90783470D01*
X100971184Y-90811183D01*
X100943471Y-90844951D01*
X100943468Y-90844954D01*
X100860590Y-90945941D01*
X100778412Y-91099687D01*
X100727805Y-91266510D01*
X100710719Y-91440000D01*
X100715001Y-91483479D01*
X100715000Y-99963421D01*
X96726652Y-103951770D01*
X96677932Y-103706842D01*
X96565990Y-103436589D01*
X96403475Y-103193368D01*
X96196632Y-102986525D01*
X96022240Y-102870000D01*
X96196632Y-102753475D01*
X96403475Y-102546632D01*
X96565990Y-102303411D01*
X96677932Y-102033158D01*
X96735000Y-101746260D01*
X96735000Y-101453740D01*
X96677932Y-101166842D01*
X96565990Y-100896589D01*
X96403475Y-100653368D01*
X96196632Y-100446525D01*
X96022240Y-100330000D01*
X96196632Y-100213475D01*
X96403475Y-100006632D01*
X96565990Y-99763411D01*
X96677932Y-99493158D01*
X96735000Y-99206260D01*
X96735000Y-98913740D01*
X96677932Y-98626842D01*
X96565990Y-98356589D01*
X96403475Y-98113368D01*
X96196632Y-97906525D01*
X96022240Y-97790000D01*
X96196632Y-97673475D01*
X96403475Y-97466632D01*
X96565990Y-97223411D01*
X96677932Y-96953158D01*
X96735000Y-96666260D01*
X96735000Y-96373740D01*
X96677932Y-96086842D01*
X96565990Y-95816589D01*
X96403475Y-95573368D01*
X96196632Y-95366525D01*
X96022240Y-95250000D01*
X96196632Y-95133475D01*
X96403475Y-94926632D01*
X96565990Y-94683411D01*
X96677932Y-94413158D01*
X96735000Y-94126260D01*
X96735000Y-93833740D01*
X96677932Y-93546842D01*
X96565990Y-93276589D01*
X96403475Y-93033368D01*
X96196632Y-92826525D01*
X96022240Y-92710000D01*
X96196632Y-92593475D01*
X96403475Y-92386632D01*
X96565990Y-92143411D01*
X96677932Y-91873158D01*
X96735000Y-91586260D01*
X96735000Y-91293740D01*
X96677932Y-91006842D01*
X96565990Y-90736589D01*
X96403475Y-90493368D01*
X96271620Y-90361513D01*
X96344180Y-90339502D01*
X96454494Y-90280537D01*
X96551185Y-90201185D01*
X96630537Y-90104494D01*
X96689502Y-89994180D01*
X96725812Y-89874482D01*
X96738072Y-89750000D01*
X96738072Y-88050000D01*
X96725812Y-87925518D01*
X96689502Y-87805820D01*
X96630537Y-87695506D01*
X96551185Y-87598815D01*
X96454494Y-87519463D01*
X96344180Y-87460498D01*
X96224482Y-87424188D01*
X96100000Y-87411928D01*
X95479648Y-87411928D01*
X105806577Y-77085000D01*
X108407650Y-77085000D01*
X108283102Y-77109774D01*
X108094744Y-77187795D01*
X107925226Y-77301063D01*
X107781063Y-77445226D01*
X107667795Y-77614744D01*
X107589774Y-77803102D01*
X107550000Y-78003061D01*
X107550000Y-78206939D01*
X107589774Y-78406898D01*
X107667795Y-78595256D01*
X107781063Y-78764774D01*
X107925226Y-78908937D01*
X108094744Y-79022205D01*
X108283102Y-79100226D01*
X108483061Y-79140000D01*
X108686939Y-79140000D01*
X108886898Y-79100226D01*
X109075256Y-79022205D01*
X109244774Y-78908937D01*
X109388937Y-78764774D01*
X109502205Y-78595256D01*
X109580226Y-78406898D01*
X109620000Y-78206939D01*
X109620000Y-78144801D01*
X112074802Y-75690000D01*
X112992678Y-75690000D01*
X113030000Y-75693676D01*
X113067322Y-75690000D01*
X113067333Y-75690000D01*
X113178986Y-75679003D01*
X113322247Y-75635546D01*
X113454276Y-75564974D01*
X113570001Y-75470001D01*
X113593804Y-75440997D01*
X116879802Y-72155000D01*
X116941939Y-72155000D01*
X117141898Y-72115226D01*
X117330256Y-72037205D01*
X117499774Y-71923937D01*
X117643937Y-71779774D01*
X117757205Y-71610256D01*
X117835226Y-71421898D01*
X117875000Y-71221939D01*
X117875000Y-71018061D01*
X117835226Y-70818102D01*
X117757205Y-70629744D01*
X117643937Y-70460226D01*
X117499774Y-70316063D01*
X117330256Y-70202795D01*
X117141898Y-70124774D01*
X116941939Y-70085000D01*
X116738061Y-70085000D01*
X116538102Y-70124774D01*
X116349744Y-70202795D01*
X116180226Y-70316063D01*
X116036063Y-70460226D01*
X115922795Y-70629744D01*
X115844774Y-70818102D01*
X115805000Y-71018061D01*
X115805000Y-71080198D01*
X112715199Y-74170000D01*
X111866579Y-74170000D01*
X112416532Y-73620047D01*
X112416536Y-73620042D01*
X114321532Y-71715047D01*
X114321536Y-71715042D01*
X114895050Y-71141529D01*
X114928817Y-71113817D01*
X114959815Y-71076047D01*
X115039411Y-70979059D01*
X115121589Y-70825314D01*
X115172195Y-70658490D01*
X115177442Y-70605217D01*
X115185000Y-70528477D01*
X115185000Y-70528469D01*
X115189281Y-70485000D01*
X115185000Y-70441531D01*
X115185000Y-68483454D01*
X115217205Y-68435256D01*
X115295226Y-68246898D01*
X115335000Y-68046939D01*
X115335000Y-67843061D01*
X115295226Y-67643102D01*
X115217205Y-67454744D01*
X115103937Y-67285226D01*
X114959774Y-67141063D01*
X114790256Y-67027795D01*
X114601898Y-66949774D01*
X114487735Y-66927066D01*
X119419802Y-61995000D01*
X119481939Y-61995000D01*
X119681898Y-61955226D01*
X119870256Y-61877205D01*
X120039774Y-61763937D01*
X120183937Y-61619774D01*
X120297205Y-61450256D01*
X120375226Y-61261898D01*
X120415000Y-61061939D01*
X120415000Y-60858061D01*
X120375226Y-60658102D01*
X120297205Y-60469744D01*
X120183937Y-60300226D01*
X120039774Y-60156063D01*
X119870256Y-60042795D01*
X119681898Y-59964774D01*
X119481939Y-59925000D01*
X119278061Y-59925000D01*
X119078102Y-59964774D01*
X118889744Y-60042795D01*
X118720226Y-60156063D01*
X118576063Y-60300226D01*
X118462795Y-60469744D01*
X118384774Y-60658102D01*
X118345000Y-60858061D01*
X118345000Y-60920198D01*
X111884003Y-67381196D01*
X111854999Y-67404999D01*
X111817296Y-67450941D01*
X111760026Y-67520724D01*
X111715147Y-67604687D01*
X111689454Y-67652754D01*
X111645997Y-67796015D01*
X111638428Y-67872861D01*
X111591063Y-67920226D01*
X111477795Y-68089744D01*
X111399774Y-68278102D01*
X111360000Y-68478061D01*
X111360000Y-68681939D01*
X111399774Y-68881898D01*
X111477795Y-69070256D01*
X111591063Y-69239774D01*
X111735226Y-69383937D01*
X111904744Y-69497205D01*
X112093102Y-69575226D01*
X112293061Y-69615000D01*
X112496939Y-69615000D01*
X112696898Y-69575226D01*
X112885256Y-69497205D01*
X113054774Y-69383937D01*
X113198937Y-69239774D01*
X113312205Y-69070256D01*
X113390226Y-68881898D01*
X113415001Y-68757346D01*
X113415000Y-70118421D01*
X113069958Y-70463464D01*
X113069953Y-70463468D01*
X111164958Y-72368464D01*
X111164953Y-72368468D01*
X108218422Y-75315000D01*
X105483463Y-75315000D01*
X105439997Y-75310719D01*
X105396531Y-75315000D01*
X105396521Y-75315000D01*
X105266508Y-75327805D01*
X105099685Y-75378411D01*
X104945939Y-75460589D01*
X104945937Y-75460590D01*
X104945938Y-75460590D01*
X104844951Y-75543468D01*
X104844949Y-75543470D01*
X104811181Y-75571183D01*
X104783468Y-75604951D01*
X93354951Y-87033469D01*
X93321183Y-87061182D01*
X93293470Y-87094950D01*
X93293467Y-87094953D01*
X93210589Y-87195940D01*
X93128411Y-87349686D01*
X93077804Y-87516509D01*
X93060718Y-87689999D01*
X91361579Y-87689999D01*
X98035044Y-81016535D01*
X98091898Y-81005226D01*
X98280256Y-80927205D01*
X98449774Y-80813937D01*
X98593937Y-80669774D01*
X98707205Y-80500256D01*
X98785226Y-80311898D01*
X98825000Y-80111939D01*
X98825000Y-79908061D01*
X98785226Y-79708102D01*
X98707205Y-79519744D01*
X98593937Y-79350226D01*
X98449774Y-79206063D01*
X98280256Y-79092795D01*
X98091898Y-79014774D01*
X97891939Y-78975000D01*
X97688061Y-78975000D01*
X97521961Y-79008039D01*
X97555000Y-78841939D01*
X97555000Y-78638061D01*
X97515226Y-78438102D01*
X97437205Y-78249744D01*
X97323937Y-78080226D01*
X97179774Y-77936063D01*
X97010256Y-77822795D01*
X96850116Y-77756463D01*
X97400044Y-77206535D01*
X97456898Y-77195226D01*
X97645256Y-77117205D01*
X97814774Y-77003937D01*
X97958937Y-76859774D01*
X98072205Y-76690256D01*
X98150226Y-76501898D01*
X98190000Y-76301939D01*
X98190000Y-76098061D01*
X98150226Y-75898102D01*
X98072205Y-75709744D01*
X97958937Y-75540226D01*
X97814774Y-75396063D01*
X97645256Y-75282795D01*
X97456898Y-75204774D01*
X97256939Y-75165000D01*
X97053061Y-75165000D01*
X96853102Y-75204774D01*
X96664744Y-75282795D01*
X96495226Y-75396063D01*
X96351063Y-75540226D01*
X96237795Y-75709744D01*
X96159774Y-75898102D01*
X96148465Y-75954956D01*
X84088422Y-88015000D01*
X71334625Y-88015000D01*
X71325812Y-87925518D01*
X71289502Y-87805820D01*
X71230537Y-87695506D01*
X71151185Y-87598815D01*
X71054494Y-87519463D01*
X70944180Y-87460498D01*
X70824482Y-87424188D01*
X70700000Y-87411928D01*
X69000000Y-87411928D01*
X68875518Y-87424188D01*
X68755820Y-87460498D01*
X68645506Y-87519463D01*
X68548815Y-87598815D01*
X68469463Y-87695506D01*
X68410498Y-87805820D01*
X68374188Y-87925518D01*
X68361928Y-88050000D01*
X66065000Y-88050000D01*
X66065000Y-78900881D01*
X66693724Y-78900881D01*
X67053912Y-79390548D01*
X67717882Y-79750849D01*
X68439385Y-79974694D01*
X69190695Y-80053480D01*
X69942938Y-79984178D01*
X70667208Y-79769452D01*
X71335670Y-79417555D01*
X71376088Y-79390548D01*
X71736276Y-78900881D01*
X69215000Y-76379605D01*
X66693724Y-78900881D01*
X66065000Y-78900881D01*
X66065000Y-78390914D01*
X66514119Y-78721276D01*
X69035395Y-76200000D01*
X69394605Y-76200000D01*
X71915881Y-78721276D01*
X72405548Y-78361088D01*
X72765849Y-77697118D01*
X72989694Y-76975615D01*
X73068480Y-76224305D01*
X72999178Y-75472062D01*
X72784452Y-74747792D01*
X72432555Y-74079330D01*
X72405548Y-74038912D01*
X71915881Y-73678724D01*
X69394605Y-76200000D01*
X69035395Y-76200000D01*
X66514119Y-73678724D01*
X66065000Y-74009086D01*
X66065000Y-73499119D01*
X66693724Y-73499119D01*
X69215000Y-76020395D01*
X71736276Y-73499119D01*
X71376088Y-73009452D01*
X70712118Y-72649151D01*
X69990615Y-72425306D01*
X69239305Y-72346520D01*
X68487062Y-72415822D01*
X67762792Y-72630548D01*
X67094330Y-72982445D01*
X67053912Y-73009452D01*
X66693724Y-73499119D01*
X66065000Y-73499119D01*
X66065000Y-66200881D01*
X93363724Y-66200881D01*
X93723912Y-66690548D01*
X94387882Y-67050849D01*
X95109385Y-67274694D01*
X95860695Y-67353480D01*
X96612938Y-67284178D01*
X97337208Y-67069452D01*
X98005670Y-66717555D01*
X98046088Y-66690548D01*
X98406276Y-66200881D01*
X95885000Y-63679605D01*
X93363724Y-66200881D01*
X66065000Y-66200881D01*
X66065000Y-63475695D01*
X92031520Y-63475695D01*
X92100822Y-64227938D01*
X92315548Y-64952208D01*
X92667445Y-65620670D01*
X92694452Y-65661088D01*
X93184119Y-66021276D01*
X95705395Y-63500000D01*
X96064605Y-63500000D01*
X98585881Y-66021276D01*
X99075548Y-65661088D01*
X99435849Y-64997118D01*
X99659694Y-64275615D01*
X99738480Y-63524305D01*
X99669178Y-62772062D01*
X99454452Y-62047792D01*
X99102555Y-61379330D01*
X99075548Y-61338912D01*
X98585881Y-60978724D01*
X96064605Y-63500000D01*
X95705395Y-63500000D01*
X93184119Y-60978724D01*
X92694452Y-61338912D01*
X92334151Y-62002882D01*
X92110306Y-62724385D01*
X92031520Y-63475695D01*
X66065000Y-63475695D01*
X66065000Y-59973510D01*
X66236161Y-60229670D01*
X66770330Y-60763839D01*
X67398446Y-61183533D01*
X68096372Y-61472623D01*
X68837285Y-61620000D01*
X69592715Y-61620000D01*
X70333628Y-61472623D01*
X71031554Y-61183533D01*
X71606869Y-60799119D01*
X93363724Y-60799119D01*
X95885000Y-63320395D01*
X98406276Y-60799119D01*
X98046088Y-60309452D01*
X97382118Y-59949151D01*
X96660615Y-59725306D01*
X95909305Y-59646520D01*
X95157062Y-59715822D01*
X94432792Y-59930548D01*
X93764330Y-60282445D01*
X93723912Y-60309452D01*
X93363724Y-60799119D01*
X71606869Y-60799119D01*
X71659670Y-60763839D01*
X72193839Y-60229670D01*
X72613533Y-59601554D01*
X72902623Y-58903628D01*
X73050000Y-58162715D01*
X73050000Y-57407285D01*
X72937517Y-56841794D01*
X103215000Y-56841794D01*
X103215000Y-57458207D01*
X103232147Y-57632300D01*
X103299906Y-57855674D01*
X103409943Y-58061536D01*
X103558026Y-58241975D01*
X103738465Y-58390058D01*
X103944327Y-58500094D01*
X104167701Y-58567853D01*
X104400000Y-58590733D01*
X104632300Y-58567853D01*
X104855674Y-58500094D01*
X105061536Y-58390058D01*
X105241975Y-58241975D01*
X105390058Y-58061536D01*
X105500094Y-57855673D01*
X105567853Y-57632299D01*
X105585000Y-57458206D01*
X105585000Y-56841794D01*
X110315000Y-56841794D01*
X110315000Y-57458207D01*
X110332147Y-57632300D01*
X110399906Y-57855674D01*
X110509943Y-58061536D01*
X110658026Y-58241975D01*
X110838465Y-58390058D01*
X111044327Y-58500094D01*
X111267701Y-58567853D01*
X111500000Y-58590733D01*
X111732300Y-58567853D01*
X111955674Y-58500094D01*
X112161536Y-58390058D01*
X112341975Y-58241975D01*
X112490058Y-58061536D01*
X112600094Y-57855673D01*
X112667853Y-57632299D01*
X112685000Y-57458206D01*
X112685000Y-56841793D01*
X112667853Y-56667700D01*
X112600094Y-56444326D01*
X112490058Y-56238464D01*
X112341975Y-56058025D01*
X112161535Y-55909942D01*
X111955673Y-55799906D01*
X111732299Y-55732147D01*
X111500000Y-55709267D01*
X111267700Y-55732147D01*
X111044326Y-55799906D01*
X110838464Y-55909942D01*
X110658025Y-56058025D01*
X110509942Y-56238465D01*
X110399906Y-56444327D01*
X110332147Y-56667701D01*
X110315000Y-56841794D01*
X105585000Y-56841794D01*
X105585000Y-56841793D01*
X105567853Y-56667700D01*
X105500094Y-56444326D01*
X105390058Y-56238464D01*
X105241975Y-56058025D01*
X105061535Y-55909942D01*
X104855673Y-55799906D01*
X104632299Y-55732147D01*
X104400000Y-55709267D01*
X104167700Y-55732147D01*
X103944326Y-55799906D01*
X103738464Y-55909942D01*
X103558025Y-56058025D01*
X103409942Y-56238465D01*
X103299906Y-56444327D01*
X103232147Y-56667701D01*
X103215000Y-56841794D01*
X72937517Y-56841794D01*
X72902623Y-56666372D01*
X72613533Y-55968446D01*
X72193839Y-55340330D01*
X71659670Y-54806161D01*
X71403510Y-54635000D01*
X135606490Y-54635000D01*
X135350330Y-54806161D01*
G37*
X135350330Y-54806161D02*
X134816161Y-55340330D01*
X134396467Y-55968446D01*
X134107377Y-56666372D01*
X133960000Y-57407285D01*
X133960000Y-58162715D01*
X134107377Y-58903628D01*
X134396467Y-59601554D01*
X134816161Y-60229670D01*
X135350330Y-60763839D01*
X135978446Y-61183533D01*
X136676372Y-61472623D01*
X137417285Y-61620000D01*
X138172715Y-61620000D01*
X138913628Y-61472623D01*
X139611554Y-61183533D01*
X140239670Y-60763839D01*
X140773839Y-60229670D01*
X141193533Y-59601554D01*
X141482623Y-58903628D01*
X141630000Y-58162715D01*
X141630000Y-57407285D01*
X141482623Y-56666372D01*
X141193533Y-55968446D01*
X140773839Y-55340330D01*
X140239670Y-54806161D01*
X139983510Y-54635000D01*
X143477721Y-54635000D01*
X144121222Y-54698096D01*
X144709164Y-54875606D01*
X145251436Y-55163937D01*
X145727364Y-55552094D01*
X146118845Y-56025314D01*
X146410951Y-56565552D01*
X146592563Y-57152244D01*
X146660000Y-57793879D01*
X146660001Y-69882419D01*
X146663274Y-69915651D01*
X146663274Y-69932137D01*
X146664237Y-69941302D01*
X146691866Y-70187618D01*
X146704297Y-70246098D01*
X146715921Y-70304808D01*
X146718647Y-70313611D01*
X146793592Y-70549869D01*
X146817146Y-70604824D01*
X146839953Y-70660158D01*
X146844336Y-70668264D01*
X146963744Y-70885466D01*
X146997518Y-70934791D01*
X147030643Y-70984648D01*
X147036517Y-70991749D01*
X147193000Y-71178236D01*
X147193000Y-105986332D01*
X147183255Y-105995875D01*
X147177381Y-106002976D01*
X147020727Y-106195054D01*
X146987655Y-106244831D01*
X146953826Y-106294237D01*
X146949444Y-106302343D01*
X146833081Y-106521191D01*
X146810298Y-106576468D01*
X146786721Y-106631475D01*
X146783997Y-106640278D01*
X146712357Y-106877559D01*
X146700736Y-106936246D01*
X146688300Y-106994752D01*
X146687337Y-107003917D01*
X146663158Y-107250515D01*
X146660000Y-107282582D01*
X146660001Y-142842711D01*
X146596904Y-143486221D01*
X146419394Y-144074164D01*
X146131063Y-144616436D01*
X145742906Y-145092364D01*
X145269686Y-145483845D01*
X144729449Y-145775950D01*
X144142756Y-145957563D01*
X143501130Y-146025000D01*
X139983510Y-146025000D01*
X140239670Y-145853839D01*
X140773839Y-145319670D01*
X141193533Y-144691554D01*
X141482623Y-143993628D01*
X141630000Y-143252715D01*
X141630000Y-142497285D01*
X141482623Y-141756372D01*
X141193533Y-141058446D01*
X140773839Y-140430330D01*
X140239670Y-139896161D01*
X139611554Y-139476467D01*
X138913628Y-139187377D01*
X138172715Y-139040000D01*
X137417285Y-139040000D01*
X136676372Y-139187377D01*
X135978446Y-139476467D01*
X135350330Y-139896161D01*
X134816161Y-140430330D01*
X134396467Y-141058446D01*
X134107377Y-141756372D01*
X133960000Y-142497285D01*
X133960000Y-143252715D01*
X134107377Y-143993628D01*
X134396467Y-144691554D01*
X134816161Y-145319670D01*
X135350330Y-145853839D01*
X135606490Y-146025000D01*
X71403510Y-146025000D01*
X71659670Y-145853839D01*
X72193839Y-145319670D01*
X72613533Y-144691554D01*
X72902623Y-143993628D01*
X73050000Y-143252715D01*
X73050000Y-143201793D01*
X103215000Y-143201793D01*
X103215000Y-143818206D01*
X103232147Y-143992299D01*
X103299906Y-144215673D01*
X103409942Y-144421535D01*
X103558025Y-144601975D01*
X103738464Y-144750058D01*
X103944326Y-144860094D01*
X104167700Y-144927853D01*
X104400000Y-144950733D01*
X104632299Y-144927853D01*
X104855673Y-144860094D01*
X105061535Y-144750058D01*
X105241975Y-144601975D01*
X105390058Y-144421536D01*
X105500094Y-144215674D01*
X105567853Y-143992300D01*
X105585000Y-143818207D01*
X105585000Y-143201794D01*
X105585000Y-143201793D01*
X110315000Y-143201793D01*
X110315000Y-143818206D01*
X110332147Y-143992299D01*
X110399906Y-144215673D01*
X110509942Y-144421535D01*
X110658025Y-144601975D01*
X110838464Y-144750058D01*
X111044326Y-144860094D01*
X111267700Y-144927853D01*
X111500000Y-144950733D01*
X111732299Y-144927853D01*
X111955673Y-144860094D01*
X112161535Y-144750058D01*
X112341975Y-144601975D01*
X112490058Y-144421536D01*
X112600094Y-144215674D01*
X112667853Y-143992300D01*
X112685000Y-143818207D01*
X112685000Y-143201794D01*
X112667853Y-143027701D01*
X112600094Y-142804327D01*
X112490058Y-142598464D01*
X112341975Y-142418025D01*
X112161536Y-142269942D01*
X111955674Y-142159906D01*
X111732300Y-142092147D01*
X111500000Y-142069267D01*
X111267701Y-142092147D01*
X111044327Y-142159906D01*
X110838465Y-142269942D01*
X110658026Y-142418025D01*
X110509943Y-142598464D01*
X110399906Y-142804326D01*
X110332147Y-143027700D01*
X110315000Y-143201793D01*
X105585000Y-143201793D01*
X105567853Y-143027701D01*
X105500094Y-142804327D01*
X105390058Y-142598464D01*
X105241975Y-142418025D01*
X105061536Y-142269942D01*
X104855674Y-142159906D01*
X104632300Y-142092147D01*
X104400000Y-142069267D01*
X104167701Y-142092147D01*
X103944327Y-142159906D01*
X103738465Y-142269942D01*
X103558026Y-142418025D01*
X103409943Y-142598464D01*
X103299906Y-142804326D01*
X103232147Y-143027700D01*
X103215000Y-143201793D01*
X73050000Y-143201793D01*
X73050000Y-142497285D01*
X72902623Y-141756372D01*
X72613533Y-141058446D01*
X72193839Y-140430330D01*
X71659670Y-139896161D01*
X71606870Y-139860881D01*
X93363724Y-139860881D01*
X93723912Y-140350548D01*
X94387882Y-140710849D01*
X95109385Y-140934694D01*
X95860695Y-141013480D01*
X96612938Y-140944178D01*
X97337208Y-140729452D01*
X98005670Y-140377555D01*
X98046088Y-140350548D01*
X98406276Y-139860881D01*
X95885000Y-137339605D01*
X93363724Y-139860881D01*
X71606870Y-139860881D01*
X71031554Y-139476467D01*
X70333628Y-139187377D01*
X69592715Y-139040000D01*
X68837285Y-139040000D01*
X68096372Y-139187377D01*
X67398446Y-139476467D01*
X66770330Y-139896161D01*
X66236161Y-140430330D01*
X66065000Y-140686490D01*
X66065000Y-137135695D01*
X92031520Y-137135695D01*
X92100822Y-137887938D01*
X92315548Y-138612208D01*
X92667445Y-139280670D01*
X92694452Y-139321088D01*
X93184119Y-139681276D01*
X95705395Y-137160000D01*
X96064605Y-137160000D01*
X98585881Y-139681276D01*
X99075548Y-139321088D01*
X99435849Y-138657118D01*
X99659694Y-137935615D01*
X99738480Y-137184305D01*
X99669178Y-136432062D01*
X99454452Y-135707792D01*
X99102555Y-135039330D01*
X99075548Y-134998912D01*
X98585881Y-134638724D01*
X96064605Y-137160000D01*
X95705395Y-137160000D01*
X93184119Y-134638724D01*
X92694452Y-134998912D01*
X92334151Y-135662882D01*
X92110306Y-136384385D01*
X92031520Y-137135695D01*
X66065000Y-137135695D01*
X66065000Y-134459119D01*
X93363724Y-134459119D01*
X95885000Y-136980395D01*
X98406276Y-134459119D01*
X98046088Y-133969452D01*
X97382118Y-133609151D01*
X96660615Y-133385306D01*
X95909305Y-133306520D01*
X95157062Y-133375822D01*
X94432792Y-133590548D01*
X93764330Y-133942445D01*
X93723912Y-133969452D01*
X93363724Y-134459119D01*
X66065000Y-134459119D01*
X66065000Y-127160881D01*
X66693724Y-127160881D01*
X67053912Y-127650548D01*
X67717882Y-128010849D01*
X68439385Y-128234694D01*
X69190695Y-128313480D01*
X69942938Y-128244178D01*
X70667208Y-128029452D01*
X71335670Y-127677555D01*
X71376088Y-127650548D01*
X71736276Y-127160881D01*
X69215000Y-124639605D01*
X66693724Y-127160881D01*
X66065000Y-127160881D01*
X66065000Y-126650914D01*
X66514119Y-126981276D01*
X69035395Y-124460000D01*
X69394605Y-124460000D01*
X71915881Y-126981276D01*
X72405548Y-126621088D01*
X72765849Y-125957118D01*
X72989694Y-125235615D01*
X73068480Y-124484305D01*
X72999178Y-123732062D01*
X72784452Y-123007792D01*
X72432555Y-122339330D01*
X72405548Y-122298912D01*
X71915881Y-121938724D01*
X69394605Y-124460000D01*
X69035395Y-124460000D01*
X66514119Y-121938724D01*
X66065000Y-122269086D01*
X66065000Y-121759119D01*
X66693724Y-121759119D01*
X69215000Y-124280395D01*
X71736276Y-121759119D01*
X71376088Y-121269452D01*
X70712118Y-120909151D01*
X69990615Y-120685306D01*
X69239305Y-120606520D01*
X68487062Y-120675822D01*
X67762792Y-120890548D01*
X67094330Y-121242445D01*
X67053912Y-121269452D01*
X66693724Y-121759119D01*
X66065000Y-121759119D01*
X66065000Y-112116890D01*
X68408524Y-112116890D01*
X68453175Y-112264099D01*
X68578359Y-112526920D01*
X68752412Y-112760269D01*
X68968645Y-112955178D01*
X69218748Y-113104157D01*
X69493109Y-113201481D01*
X69723000Y-113080814D01*
X69723000Y-111887000D01*
X69977000Y-111887000D01*
X69977000Y-113080814D01*
X70206891Y-113201481D01*
X70481252Y-113104157D01*
X70731355Y-112955178D01*
X70947588Y-112760269D01*
X71121641Y-112526920D01*
X71246825Y-112264099D01*
X71291476Y-112116890D01*
X93808524Y-112116890D01*
X93853175Y-112264099D01*
X93978359Y-112526920D01*
X94152412Y-112760269D01*
X94368645Y-112955178D01*
X94618748Y-113104157D01*
X94893109Y-113201481D01*
X95123000Y-113080814D01*
X95123000Y-111887000D01*
X95377000Y-111887000D01*
X95377000Y-113080814D01*
X95606891Y-113201481D01*
X95881252Y-113104157D01*
X96131355Y-112955178D01*
X96347588Y-112760269D01*
X96521641Y-112526920D01*
X96646825Y-112264099D01*
X96691476Y-112116890D01*
X96570155Y-111887000D01*
X95377000Y-111887000D01*
X95123000Y-111887000D01*
X93929845Y-111887000D01*
X93808524Y-112116890D01*
X71291476Y-112116890D01*
X71170155Y-111887000D01*
X69977000Y-111887000D01*
X69723000Y-111887000D01*
X68529845Y-111887000D01*
X68408524Y-112116890D01*
X66065000Y-112116890D01*
X66065000Y-88050000D01*
X68361928Y-88050000D01*
X68361928Y-89750000D01*
X68374188Y-89874482D01*
X68410498Y-89994180D01*
X68469463Y-90104494D01*
X68548815Y-90201185D01*
X68645506Y-90280537D01*
X68755820Y-90339502D01*
X68828380Y-90361513D01*
X68696525Y-90493368D01*
X68534010Y-90736589D01*
X68422068Y-91006842D01*
X68365000Y-91293740D01*
X68365000Y-91586260D01*
X68422068Y-91873158D01*
X68534010Y-92143411D01*
X68696525Y-92386632D01*
X68903368Y-92593475D01*
X69077760Y-92710000D01*
X68903368Y-92826525D01*
X68696525Y-93033368D01*
X68534010Y-93276589D01*
X68422068Y-93546842D01*
X68365000Y-93833740D01*
X68365000Y-94126260D01*
X68422068Y-94413158D01*
X68534010Y-94683411D01*
X68696525Y-94926632D01*
X68903368Y-95133475D01*
X69077760Y-95250000D01*
X68903368Y-95366525D01*
X68696525Y-95573368D01*
X68534010Y-95816589D01*
X68422068Y-96086842D01*
X68365000Y-96373740D01*
X68365000Y-96666260D01*
X68422068Y-96953158D01*
X68534010Y-97223411D01*
X68696525Y-97466632D01*
X68903368Y-97673475D01*
X69077760Y-97790000D01*
X68903368Y-97906525D01*
X68696525Y-98113368D01*
X68534010Y-98356589D01*
X68422068Y-98626842D01*
X68365000Y-98913740D01*
X68365000Y-99206260D01*
X68422068Y-99493158D01*
X68534010Y-99763411D01*
X68696525Y-100006632D01*
X68903368Y-100213475D01*
X69077760Y-100330000D01*
X68903368Y-100446525D01*
X68696525Y-100653368D01*
X68534010Y-100896589D01*
X68422068Y-101166842D01*
X68365000Y-101453740D01*
X68365000Y-101746260D01*
X68422068Y-102033158D01*
X68534010Y-102303411D01*
X68696525Y-102546632D01*
X68903368Y-102753475D01*
X69077760Y-102870000D01*
X68903368Y-102986525D01*
X68696525Y-103193368D01*
X68534010Y-103436589D01*
X68422068Y-103706842D01*
X68365000Y-103993740D01*
X68365000Y-104286260D01*
X68422068Y-104573158D01*
X68534010Y-104843411D01*
X68696525Y-105086632D01*
X68903368Y-105293475D01*
X69077760Y-105410000D01*
X68903368Y-105526525D01*
X68696525Y-105733368D01*
X68534010Y-105976589D01*
X68422068Y-106246842D01*
X68365000Y-106533740D01*
X68365000Y-106826260D01*
X68422068Y-107113158D01*
X68534010Y-107383411D01*
X68696525Y-107626632D01*
X68903368Y-107833475D01*
X69077760Y-107950000D01*
X68903368Y-108066525D01*
X68696525Y-108273368D01*
X68534010Y-108516589D01*
X68422068Y-108786842D01*
X68365000Y-109073740D01*
X68365000Y-109366260D01*
X68422068Y-109653158D01*
X68534010Y-109923411D01*
X68696525Y-110166632D01*
X68903368Y-110373475D01*
X69085534Y-110495195D01*
X68968645Y-110564822D01*
X68752412Y-110759731D01*
X68578359Y-110993080D01*
X68453175Y-111255901D01*
X68408524Y-111403110D01*
X68529845Y-111633000D01*
X69723000Y-111633000D01*
X69723000Y-111613000D01*
X69977000Y-111613000D01*
X69977000Y-111633000D01*
X71170155Y-111633000D01*
X71291476Y-111403110D01*
X71246825Y-111255901D01*
X71121641Y-110993080D01*
X70947588Y-110759731D01*
X70731355Y-110564822D01*
X70614466Y-110495195D01*
X70796632Y-110373475D01*
X71003475Y-110166632D01*
X71165990Y-109923411D01*
X71277932Y-109653158D01*
X71335000Y-109366260D01*
X71335000Y-109073740D01*
X71320539Y-109001039D01*
X88860051Y-91461528D01*
X88893817Y-91433817D01*
X89004411Y-91299059D01*
X89086589Y-91145313D01*
X89137195Y-90978490D01*
X89150000Y-90848477D01*
X89150000Y-90848469D01*
X89154281Y-90805000D01*
X89150000Y-90761531D01*
X89150000Y-89901578D01*
X91361579Y-87689999D01*
X93060718Y-87689999D01*
X93065000Y-87733478D01*
X93064999Y-90096530D01*
X93060718Y-90139999D01*
X93064999Y-90183468D01*
X93064999Y-90183475D01*
X93077804Y-90313488D01*
X93128410Y-90480311D01*
X93210588Y-90634057D01*
X93321182Y-90768816D01*
X93354955Y-90796533D01*
X93779461Y-91221039D01*
X93765000Y-91293740D01*
X93765000Y-91586260D01*
X93822068Y-91873158D01*
X93934010Y-92143411D01*
X94096525Y-92386632D01*
X94303368Y-92593475D01*
X94477760Y-92710000D01*
X94303368Y-92826525D01*
X94096525Y-93033368D01*
X93934010Y-93276589D01*
X93822068Y-93546842D01*
X93765000Y-93833740D01*
X93765000Y-94126260D01*
X93822068Y-94413158D01*
X93934010Y-94683411D01*
X94096525Y-94926632D01*
X94303368Y-95133475D01*
X94477760Y-95250000D01*
X94303368Y-95366525D01*
X94096525Y-95573368D01*
X93934010Y-95816589D01*
X93822068Y-96086842D01*
X93765000Y-96373740D01*
X93765000Y-96666260D01*
X93822068Y-96953158D01*
X93934010Y-97223411D01*
X94096525Y-97466632D01*
X94303368Y-97673475D01*
X94477760Y-97790000D01*
X94303368Y-97906525D01*
X94096525Y-98113368D01*
X93934010Y-98356589D01*
X93822068Y-98626842D01*
X93765000Y-98913740D01*
X93765000Y-99206260D01*
X93822068Y-99493158D01*
X93934010Y-99763411D01*
X94096525Y-100006632D01*
X94303368Y-100213475D01*
X94477760Y-100330000D01*
X94303368Y-100446525D01*
X94096525Y-100653368D01*
X93934010Y-100896589D01*
X93822068Y-101166842D01*
X93765000Y-101453740D01*
X93765000Y-101746260D01*
X93822068Y-102033158D01*
X93934010Y-102303411D01*
X94096525Y-102546632D01*
X94303368Y-102753475D01*
X94477760Y-102870000D01*
X94303368Y-102986525D01*
X94096525Y-103193368D01*
X93934010Y-103436589D01*
X93822068Y-103706842D01*
X93765000Y-103993740D01*
X93765000Y-104286260D01*
X93822068Y-104573158D01*
X93934010Y-104843411D01*
X94096525Y-105086632D01*
X94303368Y-105293475D01*
X94477760Y-105410000D01*
X94303368Y-105526525D01*
X94096525Y-105733368D01*
X93934010Y-105976589D01*
X93822068Y-106246842D01*
X93765000Y-106533740D01*
X93765000Y-106826260D01*
X93822068Y-107113158D01*
X93934010Y-107383411D01*
X94096525Y-107626632D01*
X94303368Y-107833475D01*
X94477760Y-107950000D01*
X94303368Y-108066525D01*
X94096525Y-108273368D01*
X93934010Y-108516589D01*
X93822068Y-108786842D01*
X93765000Y-109073740D01*
X93765000Y-109366260D01*
X93822068Y-109653158D01*
X93934010Y-109923411D01*
X94096525Y-110166632D01*
X94303368Y-110373475D01*
X94485534Y-110495195D01*
X94368645Y-110564822D01*
X94152412Y-110759731D01*
X93978359Y-110993080D01*
X93853175Y-111255901D01*
X93808524Y-111403110D01*
X93929845Y-111633000D01*
X95123000Y-111633000D01*
X95123000Y-111613000D01*
X95377000Y-111613000D01*
X95377000Y-111633000D01*
X96570155Y-111633000D01*
X96691476Y-111403110D01*
X96646825Y-111255901D01*
X96521641Y-110993080D01*
X96347588Y-110759731D01*
X96131355Y-110564822D01*
X96014466Y-110495195D01*
X96196632Y-110373475D01*
X96403475Y-110166632D01*
X96565990Y-109923411D01*
X96677932Y-109653158D01*
X96735000Y-109366260D01*
X96735000Y-109073740D01*
X96720539Y-109001039D01*
X103785042Y-101936537D01*
X103818808Y-101908826D01*
X103929402Y-101774068D01*
X104011580Y-101620322D01*
X104062186Y-101453499D01*
X104074991Y-101323486D01*
X104074991Y-101323478D01*
X104079272Y-101280009D01*
X104074991Y-101236540D01*
X104074991Y-93615122D01*
X105545000Y-95085132D01*
X105545001Y-133405752D01*
X105561424Y-133572499D01*
X105626325Y-133786447D01*
X105731717Y-133983623D01*
X105873552Y-134156449D01*
X106046378Y-134298284D01*
X106243554Y-134403676D01*
X106457502Y-134468577D01*
X106680000Y-134490491D01*
X106902499Y-134468577D01*
X107116447Y-134403676D01*
X107313623Y-134298284D01*
X107486449Y-134156449D01*
X107628284Y-133983623D01*
X107733676Y-133786447D01*
X107798577Y-133572499D01*
X107815000Y-133405752D01*
X107815000Y-132516828D01*
X107845590Y-132574059D01*
X107928468Y-132675046D01*
X107928471Y-132675049D01*
X107956184Y-132708817D01*
X107989952Y-132736530D01*
X114278470Y-139025049D01*
X114306183Y-139058817D01*
X114339951Y-139086530D01*
X114339953Y-139086532D01*
X114411452Y-139145210D01*
X114440941Y-139169411D01*
X114594687Y-139251589D01*
X114761510Y-139302195D01*
X114891523Y-139315000D01*
X114891533Y-139315000D01*
X114934999Y-139319281D01*
X114978465Y-139315000D01*
X126956531Y-139315000D01*
X127000000Y-139319281D01*
X127043469Y-139315000D01*
X127043477Y-139315000D01*
X127173490Y-139302195D01*
X127340313Y-139251589D01*
X127494059Y-139169411D01*
X127628817Y-139058817D01*
X127656534Y-139025044D01*
X129785044Y-136896535D01*
X129841898Y-136885226D01*
X130030256Y-136807205D01*
X130199774Y-136693937D01*
X130343937Y-136549774D01*
X130457205Y-136380256D01*
X130535226Y-136191898D01*
X130575000Y-135991939D01*
X130575000Y-135788061D01*
X130543560Y-135630000D01*
X138300392Y-135630000D01*
X138350000Y-135634886D01*
X138547994Y-135615385D01*
X138738380Y-135557632D01*
X138913840Y-135463847D01*
X139067633Y-135337633D01*
X139099261Y-135299094D01*
X141616851Y-132781504D01*
X141670506Y-132825537D01*
X141780820Y-132884502D01*
X141900518Y-132920812D01*
X142025000Y-132933072D01*
X143725000Y-132933072D01*
X143849482Y-132920812D01*
X143969180Y-132884502D01*
X144079494Y-132825537D01*
X144176185Y-132746185D01*
X144255537Y-132649494D01*
X144314502Y-132539180D01*
X144350812Y-132419482D01*
X144363072Y-132295000D01*
X144363072Y-130595000D01*
X144350812Y-130470518D01*
X144314502Y-130350820D01*
X144255537Y-130240506D01*
X144176185Y-130143815D01*
X144079494Y-130064463D01*
X143969180Y-130005498D01*
X143896620Y-129983487D01*
X144028475Y-129851632D01*
X144190990Y-129608411D01*
X144302932Y-129338158D01*
X144360000Y-129051260D01*
X144360000Y-128758740D01*
X144302932Y-128471842D01*
X144190990Y-128201589D01*
X144028475Y-127958368D01*
X143821632Y-127751525D01*
X143647240Y-127635000D01*
X143821632Y-127518475D01*
X144028475Y-127311632D01*
X144190990Y-127068411D01*
X144302932Y-126798158D01*
X144360000Y-126511260D01*
X144360000Y-126218740D01*
X144302932Y-125931842D01*
X144190990Y-125661589D01*
X144028475Y-125418368D01*
X143821632Y-125211525D01*
X143647240Y-125095000D01*
X143821632Y-124978475D01*
X144028475Y-124771632D01*
X144190990Y-124528411D01*
X144302932Y-124258158D01*
X144360000Y-123971260D01*
X144360000Y-123678740D01*
X144302932Y-123391842D01*
X144190990Y-123121589D01*
X144028475Y-122878368D01*
X143821632Y-122671525D01*
X143647240Y-122555000D01*
X143821632Y-122438475D01*
X144028475Y-122231632D01*
X144190990Y-121988411D01*
X144302932Y-121718158D01*
X144360000Y-121431260D01*
X144360000Y-121138740D01*
X144302932Y-120851842D01*
X144190990Y-120581589D01*
X144028475Y-120338368D01*
X143821632Y-120131525D01*
X143647240Y-120015000D01*
X143821632Y-119898475D01*
X144028475Y-119691632D01*
X144190990Y-119448411D01*
X144302932Y-119178158D01*
X144360000Y-118891260D01*
X144360000Y-118598740D01*
X144302932Y-118311842D01*
X144190990Y-118041589D01*
X144028475Y-117798368D01*
X143821632Y-117591525D01*
X143647240Y-117475000D01*
X143821632Y-117358475D01*
X144028475Y-117151632D01*
X144190990Y-116908411D01*
X144302932Y-116638158D01*
X144360000Y-116351260D01*
X144360000Y-116058740D01*
X144302932Y-115771842D01*
X144190990Y-115501589D01*
X144028475Y-115258368D01*
X143821632Y-115051525D01*
X143647240Y-114935000D01*
X143821632Y-114818475D01*
X144028475Y-114611632D01*
X144190990Y-114368411D01*
X144302932Y-114098158D01*
X144360000Y-113811260D01*
X144360000Y-113518740D01*
X144302932Y-113231842D01*
X144190990Y-112961589D01*
X144028475Y-112718368D01*
X143821632Y-112511525D01*
X143647240Y-112395000D01*
X143821632Y-112278475D01*
X144028475Y-112071632D01*
X144190990Y-111828411D01*
X144302932Y-111558158D01*
X144360000Y-111271260D01*
X144360000Y-110978740D01*
X144302932Y-110691842D01*
X144190990Y-110421589D01*
X144028475Y-110178368D01*
X143821632Y-109971525D01*
X143647240Y-109855000D01*
X143821632Y-109738475D01*
X144028475Y-109531632D01*
X144190990Y-109288411D01*
X144302932Y-109018158D01*
X144360000Y-108731260D01*
X144360000Y-108438740D01*
X144302932Y-108151842D01*
X144190990Y-107881589D01*
X144028475Y-107638368D01*
X143821632Y-107431525D01*
X143647240Y-107315000D01*
X143821632Y-107198475D01*
X144028475Y-106991632D01*
X144190990Y-106748411D01*
X144302932Y-106478158D01*
X144360000Y-106191260D01*
X144360000Y-105898740D01*
X144302932Y-105611842D01*
X144190990Y-105341589D01*
X144028475Y-105098368D01*
X143821632Y-104891525D01*
X143647240Y-104775000D01*
X143821632Y-104658475D01*
X144028475Y-104451632D01*
X144190990Y-104208411D01*
X144302932Y-103938158D01*
X144360000Y-103651260D01*
X144360000Y-103358740D01*
X144302932Y-103071842D01*
X144190990Y-102801589D01*
X144028475Y-102558368D01*
X143821632Y-102351525D01*
X143647240Y-102235000D01*
X143821632Y-102118475D01*
X144028475Y-101911632D01*
X144190990Y-101668411D01*
X144302932Y-101398158D01*
X144360000Y-101111260D01*
X144360000Y-100818740D01*
X144302932Y-100531842D01*
X144190990Y-100261589D01*
X144028475Y-100018368D01*
X143821632Y-99811525D01*
X143639466Y-99689805D01*
X143756355Y-99620178D01*
X143972588Y-99425269D01*
X144146641Y-99191920D01*
X144271825Y-98929099D01*
X144316476Y-98781890D01*
X144195155Y-98552000D01*
X143002000Y-98552000D01*
X143002000Y-98572000D01*
X142748000Y-98572000D01*
X142748000Y-98552000D01*
X141554845Y-98552000D01*
X141433524Y-98781890D01*
X141478175Y-98929099D01*
X141603359Y-99191920D01*
X141777412Y-99425269D01*
X141993645Y-99620178D01*
X142110534Y-99689805D01*
X141928368Y-99811525D01*
X141721525Y-100018368D01*
X141559010Y-100261589D01*
X141447068Y-100531842D01*
X141398348Y-100776770D01*
X137816534Y-97194956D01*
X137788817Y-97161183D01*
X137654059Y-97050589D01*
X137500313Y-96968411D01*
X137333490Y-96917805D01*
X137203477Y-96905000D01*
X137203469Y-96905000D01*
X137160000Y-96900719D01*
X137116531Y-96905000D01*
X133716579Y-96905000D01*
X122926535Y-86114957D01*
X122915226Y-86058102D01*
X122880804Y-85975000D01*
X127903422Y-85975000D01*
X138408470Y-96480049D01*
X138436183Y-96513817D01*
X138469951Y-96541530D01*
X138469953Y-96541532D01*
X138527075Y-96588411D01*
X138570941Y-96624411D01*
X138724687Y-96706589D01*
X138891510Y-96757195D01*
X139021523Y-96770000D01*
X139021533Y-96770000D01*
X139064999Y-96774281D01*
X139108465Y-96770000D01*
X141680344Y-96770000D01*
X141721525Y-96831632D01*
X141928368Y-97038475D01*
X142110534Y-97160195D01*
X141993645Y-97229822D01*
X141777412Y-97424731D01*
X141603359Y-97658080D01*
X141478175Y-97920901D01*
X141433524Y-98068110D01*
X141554845Y-98298000D01*
X142748000Y-98298000D01*
X142748000Y-98278000D01*
X143002000Y-98278000D01*
X143002000Y-98298000D01*
X144195155Y-98298000D01*
X144316476Y-98068110D01*
X144271825Y-97920901D01*
X144146641Y-97658080D01*
X143972588Y-97424731D01*
X143756355Y-97229822D01*
X143639466Y-97160195D01*
X143821632Y-97038475D01*
X144028475Y-96831632D01*
X144190990Y-96588411D01*
X144302932Y-96318158D01*
X144360000Y-96031260D01*
X144360000Y-95738740D01*
X144302932Y-95451842D01*
X144190990Y-95181589D01*
X144028475Y-94938368D01*
X143821632Y-94731525D01*
X143647240Y-94615000D01*
X143821632Y-94498475D01*
X144028475Y-94291632D01*
X144190990Y-94048411D01*
X144302932Y-93778158D01*
X144360000Y-93491260D01*
X144360000Y-93198740D01*
X144302932Y-92911842D01*
X144190990Y-92641589D01*
X144028475Y-92398368D01*
X143821632Y-92191525D01*
X143647240Y-92075000D01*
X143821632Y-91958475D01*
X144028475Y-91751632D01*
X144190990Y-91508411D01*
X144302932Y-91238158D01*
X144360000Y-90951260D01*
X144360000Y-90658740D01*
X144302932Y-90371842D01*
X144190990Y-90101589D01*
X144028475Y-89858368D01*
X143821632Y-89651525D01*
X143647240Y-89535000D01*
X143821632Y-89418475D01*
X144028475Y-89211632D01*
X144190990Y-88968411D01*
X144302932Y-88698158D01*
X144360000Y-88411260D01*
X144360000Y-88118740D01*
X144302932Y-87831842D01*
X144190990Y-87561589D01*
X144028475Y-87318368D01*
X143821632Y-87111525D01*
X143647240Y-86995000D01*
X143821632Y-86878475D01*
X144028475Y-86671632D01*
X144190990Y-86428411D01*
X144302932Y-86158158D01*
X144360000Y-85871260D01*
X144360000Y-85578740D01*
X144302932Y-85291842D01*
X144190990Y-85021589D01*
X144028475Y-84778368D01*
X143821632Y-84571525D01*
X143578411Y-84409010D01*
X143308158Y-84297068D01*
X143021260Y-84240000D01*
X142995132Y-84240000D01*
X138999907Y-80244775D01*
X142399830Y-80244775D01*
X142639976Y-80632018D01*
X143133877Y-80892641D01*
X143669133Y-81051901D01*
X144225174Y-81103678D01*
X144780632Y-81045981D01*
X145314161Y-80881028D01*
X145780024Y-80632018D01*
X146020170Y-80244775D01*
X144210000Y-78434605D01*
X142399830Y-80244775D01*
X138999907Y-80244775D01*
X137025306Y-78270174D01*
X141361322Y-78270174D01*
X141419019Y-78825632D01*
X141583972Y-79359161D01*
X141832982Y-79825024D01*
X142220225Y-80065170D01*
X144030395Y-78255000D01*
X144389605Y-78255000D01*
X146199775Y-80065170D01*
X146587018Y-79825024D01*
X146847641Y-79331123D01*
X147006901Y-78795867D01*
X147058678Y-78239826D01*
X147000981Y-77684368D01*
X146836028Y-77150839D01*
X146587018Y-76684976D01*
X146199775Y-76444830D01*
X144389605Y-78255000D01*
X144030395Y-78255000D01*
X142220225Y-76444830D01*
X141832982Y-76684976D01*
X141572359Y-77178877D01*
X141413099Y-77714133D01*
X141361322Y-78270174D01*
X137025306Y-78270174D01*
X135020357Y-76265225D01*
X142399830Y-76265225D01*
X144210000Y-78075395D01*
X146020170Y-76265225D01*
X145780024Y-75877982D01*
X145286123Y-75617359D01*
X144750867Y-75458099D01*
X144194826Y-75406322D01*
X143639368Y-75464019D01*
X143105839Y-75628972D01*
X142639976Y-75877982D01*
X142399830Y-76265225D01*
X135020357Y-76265225D01*
X132921996Y-74166865D01*
X132886449Y-74123551D01*
X132713623Y-73981716D01*
X132516447Y-73876324D01*
X132302499Y-73811423D01*
X132135752Y-73795000D01*
X132135751Y-73795000D01*
X132080000Y-73789509D01*
X132024249Y-73795000D01*
X116260752Y-73795000D01*
X116205000Y-73789509D01*
X115982501Y-73811423D01*
X115768553Y-73876324D01*
X115571377Y-73981716D01*
X115441856Y-74088011D01*
X115441855Y-74088012D01*
X115398551Y-74123551D01*
X115363013Y-74166854D01*
X110019869Y-79510000D01*
X105465752Y-79510000D01*
X105410000Y-79504509D01*
X105354248Y-79510000D01*
X105255315Y-79519744D01*
X105187501Y-79526423D01*
X104973553Y-79591324D01*
X104776377Y-79696716D01*
X104646856Y-79803011D01*
X104646854Y-79803013D01*
X104603551Y-79838551D01*
X104568013Y-79881854D01*
X97583012Y-86866857D01*
X97476717Y-86996378D01*
X97371324Y-87193554D01*
X97306423Y-87407502D01*
X97284509Y-87630000D01*
X97306423Y-87852498D01*
X97371324Y-88066446D01*
X97476717Y-88263622D01*
X97618552Y-88436448D01*
X97791378Y-88578283D01*
X97988554Y-88683676D01*
X98202502Y-88748577D01*
X98425000Y-88770491D01*
X98647498Y-88748577D01*
X98861446Y-88683676D01*
X99058622Y-88578283D01*
X99188143Y-88471988D01*
X105880133Y-81780000D01*
X110434249Y-81780000D01*
X110490000Y-81785491D01*
X110545751Y-81780000D01*
X110545752Y-81780000D01*
X110712499Y-81763577D01*
X110926447Y-81698676D01*
X111123623Y-81593284D01*
X111296449Y-81451449D01*
X111331996Y-81408135D01*
X111995356Y-80744775D01*
X116999830Y-80744775D01*
X117239976Y-81132018D01*
X117733877Y-81392641D01*
X118269133Y-81551901D01*
X118825174Y-81603678D01*
X119380632Y-81545981D01*
X119914161Y-81381028D01*
X120380024Y-81132018D01*
X120620170Y-80744775D01*
X118810000Y-78934605D01*
X116999830Y-80744775D01*
X111995356Y-80744775D01*
X113969957Y-78770174D01*
X115961322Y-78770174D01*
X116019019Y-79325632D01*
X116183972Y-79859161D01*
X116432982Y-80325024D01*
X116820225Y-80565170D01*
X118630395Y-78755000D01*
X118989605Y-78755000D01*
X120799775Y-80565170D01*
X121187018Y-80325024D01*
X121447641Y-79831123D01*
X121606901Y-79295867D01*
X121658678Y-78739826D01*
X121600981Y-78184368D01*
X121436028Y-77650839D01*
X121187018Y-77184976D01*
X120799775Y-76944830D01*
X118989605Y-78755000D01*
X118630395Y-78755000D01*
X116820225Y-76944830D01*
X116432982Y-77184976D01*
X116172359Y-77678877D01*
X116013099Y-78214133D01*
X115961322Y-78770174D01*
X113969957Y-78770174D01*
X116675133Y-76065000D01*
X117912752Y-76065000D01*
X117705839Y-76128972D01*
X117239976Y-76377982D01*
X116999830Y-76765225D01*
X118810000Y-78575395D01*
X120620170Y-76765225D01*
X120380024Y-76377982D01*
X119886123Y-76117359D01*
X119710150Y-76065000D01*
X131609869Y-76065000D01*
X141390000Y-85845132D01*
X141390000Y-85871260D01*
X141447068Y-86158158D01*
X141559010Y-86428411D01*
X141721525Y-86671632D01*
X141928368Y-86878475D01*
X142102760Y-86995000D01*
X141928368Y-87111525D01*
X141721525Y-87318368D01*
X141559010Y-87561589D01*
X141447068Y-87831842D01*
X141390000Y-88118740D01*
X141390000Y-88411260D01*
X141447068Y-88698158D01*
X141559010Y-88968411D01*
X141721525Y-89211632D01*
X141928368Y-89418475D01*
X142102760Y-89535000D01*
X141928368Y-89651525D01*
X141721525Y-89858368D01*
X141559010Y-90101589D01*
X141447068Y-90371842D01*
X141390000Y-90658740D01*
X141390000Y-90951260D01*
X141447068Y-91238158D01*
X141559010Y-91508411D01*
X141721525Y-91751632D01*
X141928368Y-91958475D01*
X142102760Y-92075000D01*
X141928368Y-92191525D01*
X141721525Y-92398368D01*
X141559010Y-92641589D01*
X141447068Y-92911842D01*
X141390000Y-93198740D01*
X141390000Y-93491260D01*
X141447068Y-93778158D01*
X141559010Y-94048411D01*
X141721525Y-94291632D01*
X141928368Y-94498475D01*
X142102760Y-94615000D01*
X141928368Y-94731525D01*
X141721525Y-94938368D01*
X141680344Y-95000000D01*
X139431579Y-95000000D01*
X128926534Y-84494956D01*
X128898817Y-84461183D01*
X128764059Y-84350589D01*
X128610313Y-84268411D01*
X128443490Y-84217805D01*
X128313477Y-84205000D01*
X128313469Y-84205000D01*
X128270000Y-84200719D01*
X128226531Y-84205000D01*
X122458454Y-84205000D01*
X122410256Y-84172795D01*
X122221898Y-84094774D01*
X122021939Y-84055000D01*
X121818061Y-84055000D01*
X121618102Y-84094774D01*
X121429744Y-84172795D01*
X121260226Y-84286063D01*
X121178934Y-84367355D01*
X119401534Y-82589956D01*
X119373817Y-82556183D01*
X119239059Y-82445589D01*
X119085313Y-82363411D01*
X118918490Y-82312805D01*
X118788477Y-82300000D01*
X118788469Y-82300000D01*
X118745000Y-82295719D01*
X118701531Y-82300000D01*
X109898469Y-82300000D01*
X109855000Y-82295719D01*
X109811531Y-82300000D01*
X109811523Y-82300000D01*
X109696306Y-82311348D01*
X109681509Y-82312805D01*
X109630903Y-82328157D01*
X109514687Y-82363411D01*
X109360941Y-82445589D01*
X109360939Y-82445590D01*
X109360940Y-82445590D01*
X109259953Y-82528468D01*
X109259951Y-82528470D01*
X109226183Y-82556183D01*
X109198470Y-82589951D01*
X101004952Y-90783470D01*
X100971184Y-90811183D01*
X100943471Y-90844951D01*
X100943468Y-90844954D01*
X100860590Y-90945941D01*
X100778412Y-91099687D01*
X100727805Y-91266510D01*
X100710719Y-91440000D01*
X100715001Y-91483479D01*
X100715000Y-99963421D01*
X96726652Y-103951770D01*
X96677932Y-103706842D01*
X96565990Y-103436589D01*
X96403475Y-103193368D01*
X96196632Y-102986525D01*
X96022240Y-102870000D01*
X96196632Y-102753475D01*
X96403475Y-102546632D01*
X96565990Y-102303411D01*
X96677932Y-102033158D01*
X96735000Y-101746260D01*
X96735000Y-101453740D01*
X96677932Y-101166842D01*
X96565990Y-100896589D01*
X96403475Y-100653368D01*
X96196632Y-100446525D01*
X96022240Y-100330000D01*
X96196632Y-100213475D01*
X96403475Y-100006632D01*
X96565990Y-99763411D01*
X96677932Y-99493158D01*
X96735000Y-99206260D01*
X96735000Y-98913740D01*
X96677932Y-98626842D01*
X96565990Y-98356589D01*
X96403475Y-98113368D01*
X96196632Y-97906525D01*
X96022240Y-97790000D01*
X96196632Y-97673475D01*
X96403475Y-97466632D01*
X96565990Y-97223411D01*
X96677932Y-96953158D01*
X96735000Y-96666260D01*
X96735000Y-96373740D01*
X96677932Y-96086842D01*
X96565990Y-95816589D01*
X96403475Y-95573368D01*
X96196632Y-95366525D01*
X96022240Y-95250000D01*
X96196632Y-95133475D01*
X96403475Y-94926632D01*
X96565990Y-94683411D01*
X96677932Y-94413158D01*
X96735000Y-94126260D01*
X96735000Y-93833740D01*
X96677932Y-93546842D01*
X96565990Y-93276589D01*
X96403475Y-93033368D01*
X96196632Y-92826525D01*
X96022240Y-92710000D01*
X96196632Y-92593475D01*
X96403475Y-92386632D01*
X96565990Y-92143411D01*
X96677932Y-91873158D01*
X96735000Y-91586260D01*
X96735000Y-91293740D01*
X96677932Y-91006842D01*
X96565990Y-90736589D01*
X96403475Y-90493368D01*
X96271620Y-90361513D01*
X96344180Y-90339502D01*
X96454494Y-90280537D01*
X96551185Y-90201185D01*
X96630537Y-90104494D01*
X96689502Y-89994180D01*
X96725812Y-89874482D01*
X96738072Y-89750000D01*
X96738072Y-88050000D01*
X96725812Y-87925518D01*
X96689502Y-87805820D01*
X96630537Y-87695506D01*
X96551185Y-87598815D01*
X96454494Y-87519463D01*
X96344180Y-87460498D01*
X96224482Y-87424188D01*
X96100000Y-87411928D01*
X95479648Y-87411928D01*
X105806577Y-77085000D01*
X108407650Y-77085000D01*
X108283102Y-77109774D01*
X108094744Y-77187795D01*
X107925226Y-77301063D01*
X107781063Y-77445226D01*
X107667795Y-77614744D01*
X107589774Y-77803102D01*
X107550000Y-78003061D01*
X107550000Y-78206939D01*
X107589774Y-78406898D01*
X107667795Y-78595256D01*
X107781063Y-78764774D01*
X107925226Y-78908937D01*
X108094744Y-79022205D01*
X108283102Y-79100226D01*
X108483061Y-79140000D01*
X108686939Y-79140000D01*
X108886898Y-79100226D01*
X109075256Y-79022205D01*
X109244774Y-78908937D01*
X109388937Y-78764774D01*
X109502205Y-78595256D01*
X109580226Y-78406898D01*
X109620000Y-78206939D01*
X109620000Y-78144801D01*
X112074802Y-75690000D01*
X112992678Y-75690000D01*
X113030000Y-75693676D01*
X113067322Y-75690000D01*
X113067333Y-75690000D01*
X113178986Y-75679003D01*
X113322247Y-75635546D01*
X113454276Y-75564974D01*
X113570001Y-75470001D01*
X113593804Y-75440997D01*
X116879802Y-72155000D01*
X116941939Y-72155000D01*
X117141898Y-72115226D01*
X117330256Y-72037205D01*
X117499774Y-71923937D01*
X117643937Y-71779774D01*
X117757205Y-71610256D01*
X117835226Y-71421898D01*
X117875000Y-71221939D01*
X117875000Y-71018061D01*
X117835226Y-70818102D01*
X117757205Y-70629744D01*
X117643937Y-70460226D01*
X117499774Y-70316063D01*
X117330256Y-70202795D01*
X117141898Y-70124774D01*
X116941939Y-70085000D01*
X116738061Y-70085000D01*
X116538102Y-70124774D01*
X116349744Y-70202795D01*
X116180226Y-70316063D01*
X116036063Y-70460226D01*
X115922795Y-70629744D01*
X115844774Y-70818102D01*
X115805000Y-71018061D01*
X115805000Y-71080198D01*
X112715199Y-74170000D01*
X111866579Y-74170000D01*
X112416532Y-73620047D01*
X112416536Y-73620042D01*
X114321532Y-71715047D01*
X114321536Y-71715042D01*
X114895050Y-71141529D01*
X114928817Y-71113817D01*
X114959815Y-71076047D01*
X115039411Y-70979059D01*
X115121589Y-70825314D01*
X115172195Y-70658490D01*
X115177442Y-70605217D01*
X115185000Y-70528477D01*
X115185000Y-70528469D01*
X115189281Y-70485000D01*
X115185000Y-70441531D01*
X115185000Y-68483454D01*
X115217205Y-68435256D01*
X115295226Y-68246898D01*
X115335000Y-68046939D01*
X115335000Y-67843061D01*
X115295226Y-67643102D01*
X115217205Y-67454744D01*
X115103937Y-67285226D01*
X114959774Y-67141063D01*
X114790256Y-67027795D01*
X114601898Y-66949774D01*
X114487735Y-66927066D01*
X119419802Y-61995000D01*
X119481939Y-61995000D01*
X119681898Y-61955226D01*
X119870256Y-61877205D01*
X120039774Y-61763937D01*
X120183937Y-61619774D01*
X120297205Y-61450256D01*
X120375226Y-61261898D01*
X120415000Y-61061939D01*
X120415000Y-60858061D01*
X120375226Y-60658102D01*
X120297205Y-60469744D01*
X120183937Y-60300226D01*
X120039774Y-60156063D01*
X119870256Y-60042795D01*
X119681898Y-59964774D01*
X119481939Y-59925000D01*
X119278061Y-59925000D01*
X119078102Y-59964774D01*
X118889744Y-60042795D01*
X118720226Y-60156063D01*
X118576063Y-60300226D01*
X118462795Y-60469744D01*
X118384774Y-60658102D01*
X118345000Y-60858061D01*
X118345000Y-60920198D01*
X111884003Y-67381196D01*
X111854999Y-67404999D01*
X111817296Y-67450941D01*
X111760026Y-67520724D01*
X111715147Y-67604687D01*
X111689454Y-67652754D01*
X111645997Y-67796015D01*
X111638428Y-67872861D01*
X111591063Y-67920226D01*
X111477795Y-68089744D01*
X111399774Y-68278102D01*
X111360000Y-68478061D01*
X111360000Y-68681939D01*
X111399774Y-68881898D01*
X111477795Y-69070256D01*
X111591063Y-69239774D01*
X111735226Y-69383937D01*
X111904744Y-69497205D01*
X112093102Y-69575226D01*
X112293061Y-69615000D01*
X112496939Y-69615000D01*
X112696898Y-69575226D01*
X112885256Y-69497205D01*
X113054774Y-69383937D01*
X113198937Y-69239774D01*
X113312205Y-69070256D01*
X113390226Y-68881898D01*
X113415001Y-68757346D01*
X113415000Y-70118421D01*
X113069958Y-70463464D01*
X113069953Y-70463468D01*
X111164958Y-72368464D01*
X111164953Y-72368468D01*
X108218422Y-75315000D01*
X105483463Y-75315000D01*
X105439997Y-75310719D01*
X105396531Y-75315000D01*
X105396521Y-75315000D01*
X105266508Y-75327805D01*
X105099685Y-75378411D01*
X104945939Y-75460589D01*
X104945937Y-75460590D01*
X104945938Y-75460590D01*
X104844951Y-75543468D01*
X104844949Y-75543470D01*
X104811181Y-75571183D01*
X104783468Y-75604951D01*
X93354951Y-87033469D01*
X93321183Y-87061182D01*
X93293470Y-87094950D01*
X93293467Y-87094953D01*
X93210589Y-87195940D01*
X93128411Y-87349686D01*
X93077804Y-87516509D01*
X93060718Y-87689999D01*
X91361579Y-87689999D01*
X98035044Y-81016535D01*
X98091898Y-81005226D01*
X98280256Y-80927205D01*
X98449774Y-80813937D01*
X98593937Y-80669774D01*
X98707205Y-80500256D01*
X98785226Y-80311898D01*
X98825000Y-80111939D01*
X98825000Y-79908061D01*
X98785226Y-79708102D01*
X98707205Y-79519744D01*
X98593937Y-79350226D01*
X98449774Y-79206063D01*
X98280256Y-79092795D01*
X98091898Y-79014774D01*
X97891939Y-78975000D01*
X97688061Y-78975000D01*
X97521961Y-79008039D01*
X97555000Y-78841939D01*
X97555000Y-78638061D01*
X97515226Y-78438102D01*
X97437205Y-78249744D01*
X97323937Y-78080226D01*
X97179774Y-77936063D01*
X97010256Y-77822795D01*
X96850116Y-77756463D01*
X97400044Y-77206535D01*
X97456898Y-77195226D01*
X97645256Y-77117205D01*
X97814774Y-77003937D01*
X97958937Y-76859774D01*
X98072205Y-76690256D01*
X98150226Y-76501898D01*
X98190000Y-76301939D01*
X98190000Y-76098061D01*
X98150226Y-75898102D01*
X98072205Y-75709744D01*
X97958937Y-75540226D01*
X97814774Y-75396063D01*
X97645256Y-75282795D01*
X97456898Y-75204774D01*
X97256939Y-75165000D01*
X97053061Y-75165000D01*
X96853102Y-75204774D01*
X96664744Y-75282795D01*
X96495226Y-75396063D01*
X96351063Y-75540226D01*
X96237795Y-75709744D01*
X96159774Y-75898102D01*
X96148465Y-75954956D01*
X84088422Y-88015000D01*
X71334625Y-88015000D01*
X71325812Y-87925518D01*
X71289502Y-87805820D01*
X71230537Y-87695506D01*
X71151185Y-87598815D01*
X71054494Y-87519463D01*
X70944180Y-87460498D01*
X70824482Y-87424188D01*
X70700000Y-87411928D01*
X69000000Y-87411928D01*
X68875518Y-87424188D01*
X68755820Y-87460498D01*
X68645506Y-87519463D01*
X68548815Y-87598815D01*
X68469463Y-87695506D01*
X68410498Y-87805820D01*
X68374188Y-87925518D01*
X68361928Y-88050000D01*
X66065000Y-88050000D01*
X66065000Y-78900881D01*
X66693724Y-78900881D01*
X67053912Y-79390548D01*
X67717882Y-79750849D01*
X68439385Y-79974694D01*
X69190695Y-80053480D01*
X69942938Y-79984178D01*
X70667208Y-79769452D01*
X71335670Y-79417555D01*
X71376088Y-79390548D01*
X71736276Y-78900881D01*
X69215000Y-76379605D01*
X66693724Y-78900881D01*
X66065000Y-78900881D01*
X66065000Y-78390914D01*
X66514119Y-78721276D01*
X69035395Y-76200000D01*
X69394605Y-76200000D01*
X71915881Y-78721276D01*
X72405548Y-78361088D01*
X72765849Y-77697118D01*
X72989694Y-76975615D01*
X73068480Y-76224305D01*
X72999178Y-75472062D01*
X72784452Y-74747792D01*
X72432555Y-74079330D01*
X72405548Y-74038912D01*
X71915881Y-73678724D01*
X69394605Y-76200000D01*
X69035395Y-76200000D01*
X66514119Y-73678724D01*
X66065000Y-74009086D01*
X66065000Y-73499119D01*
X66693724Y-73499119D01*
X69215000Y-76020395D01*
X71736276Y-73499119D01*
X71376088Y-73009452D01*
X70712118Y-72649151D01*
X69990615Y-72425306D01*
X69239305Y-72346520D01*
X68487062Y-72415822D01*
X67762792Y-72630548D01*
X67094330Y-72982445D01*
X67053912Y-73009452D01*
X66693724Y-73499119D01*
X66065000Y-73499119D01*
X66065000Y-66200881D01*
X93363724Y-66200881D01*
X93723912Y-66690548D01*
X94387882Y-67050849D01*
X95109385Y-67274694D01*
X95860695Y-67353480D01*
X96612938Y-67284178D01*
X97337208Y-67069452D01*
X98005670Y-66717555D01*
X98046088Y-66690548D01*
X98406276Y-66200881D01*
X95885000Y-63679605D01*
X93363724Y-66200881D01*
X66065000Y-66200881D01*
X66065000Y-63475695D01*
X92031520Y-63475695D01*
X92100822Y-64227938D01*
X92315548Y-64952208D01*
X92667445Y-65620670D01*
X92694452Y-65661088D01*
X93184119Y-66021276D01*
X95705395Y-63500000D01*
X96064605Y-63500000D01*
X98585881Y-66021276D01*
X99075548Y-65661088D01*
X99435849Y-64997118D01*
X99659694Y-64275615D01*
X99738480Y-63524305D01*
X99669178Y-62772062D01*
X99454452Y-62047792D01*
X99102555Y-61379330D01*
X99075548Y-61338912D01*
X98585881Y-60978724D01*
X96064605Y-63500000D01*
X95705395Y-63500000D01*
X93184119Y-60978724D01*
X92694452Y-61338912D01*
X92334151Y-62002882D01*
X92110306Y-62724385D01*
X92031520Y-63475695D01*
X66065000Y-63475695D01*
X66065000Y-59973510D01*
X66236161Y-60229670D01*
X66770330Y-60763839D01*
X67398446Y-61183533D01*
X68096372Y-61472623D01*
X68837285Y-61620000D01*
X69592715Y-61620000D01*
X70333628Y-61472623D01*
X71031554Y-61183533D01*
X71606869Y-60799119D01*
X93363724Y-60799119D01*
X95885000Y-63320395D01*
X98406276Y-60799119D01*
X98046088Y-60309452D01*
X97382118Y-59949151D01*
X96660615Y-59725306D01*
X95909305Y-59646520D01*
X95157062Y-59715822D01*
X94432792Y-59930548D01*
X93764330Y-60282445D01*
X93723912Y-60309452D01*
X93363724Y-60799119D01*
X71606869Y-60799119D01*
X71659670Y-60763839D01*
X72193839Y-60229670D01*
X72613533Y-59601554D01*
X72902623Y-58903628D01*
X73050000Y-58162715D01*
X73050000Y-57407285D01*
X72937517Y-56841794D01*
X103215000Y-56841794D01*
X103215000Y-57458207D01*
X103232147Y-57632300D01*
X103299906Y-57855674D01*
X103409943Y-58061536D01*
X103558026Y-58241975D01*
X103738465Y-58390058D01*
X103944327Y-58500094D01*
X104167701Y-58567853D01*
X104400000Y-58590733D01*
X104632300Y-58567853D01*
X104855674Y-58500094D01*
X105061536Y-58390058D01*
X105241975Y-58241975D01*
X105390058Y-58061536D01*
X105500094Y-57855673D01*
X105567853Y-57632299D01*
X105585000Y-57458206D01*
X105585000Y-56841794D01*
X110315000Y-56841794D01*
X110315000Y-57458207D01*
X110332147Y-57632300D01*
X110399906Y-57855674D01*
X110509943Y-58061536D01*
X110658026Y-58241975D01*
X110838465Y-58390058D01*
X111044327Y-58500094D01*
X111267701Y-58567853D01*
X111500000Y-58590733D01*
X111732300Y-58567853D01*
X111955674Y-58500094D01*
X112161536Y-58390058D01*
X112341975Y-58241975D01*
X112490058Y-58061536D01*
X112600094Y-57855673D01*
X112667853Y-57632299D01*
X112685000Y-57458206D01*
X112685000Y-56841793D01*
X112667853Y-56667700D01*
X112600094Y-56444326D01*
X112490058Y-56238464D01*
X112341975Y-56058025D01*
X112161535Y-55909942D01*
X111955673Y-55799906D01*
X111732299Y-55732147D01*
X111500000Y-55709267D01*
X111267700Y-55732147D01*
X111044326Y-55799906D01*
X110838464Y-55909942D01*
X110658025Y-56058025D01*
X110509942Y-56238465D01*
X110399906Y-56444327D01*
X110332147Y-56667701D01*
X110315000Y-56841794D01*
X105585000Y-56841794D01*
X105585000Y-56841793D01*
X105567853Y-56667700D01*
X105500094Y-56444326D01*
X105390058Y-56238464D01*
X105241975Y-56058025D01*
X105061535Y-55909942D01*
X104855673Y-55799906D01*
X104632299Y-55732147D01*
X104400000Y-55709267D01*
X104167700Y-55732147D01*
X103944326Y-55799906D01*
X103738464Y-55909942D01*
X103558025Y-56058025D01*
X103409942Y-56238465D01*
X103299906Y-56444327D01*
X103232147Y-56667701D01*
X103215000Y-56841794D01*
X72937517Y-56841794D01*
X72902623Y-56666372D01*
X72613533Y-55968446D01*
X72193839Y-55340330D01*
X71659670Y-54806161D01*
X71403510Y-54635000D01*
X135606490Y-54635000D01*
X135350330Y-54806161D01*
G36*
X115990000Y-85578740D02*
G01*
X115990000Y-85871260D01*
X116047068Y-86158158D01*
X116159010Y-86428411D01*
X116321525Y-86671632D01*
X116528368Y-86878475D01*
X116702760Y-86995000D01*
X116528368Y-87111525D01*
X116321525Y-87318368D01*
X116159010Y-87561589D01*
X116047068Y-87831842D01*
X115990000Y-88118740D01*
X115990000Y-88411260D01*
X116047068Y-88698158D01*
X116159010Y-88968411D01*
X116321525Y-89211632D01*
X116528368Y-89418475D01*
X116702760Y-89535000D01*
X116528368Y-89651525D01*
X116321525Y-89858368D01*
X116159010Y-90101589D01*
X116047068Y-90371842D01*
X115990000Y-90658740D01*
X115990000Y-90951260D01*
X116047068Y-91238158D01*
X116159010Y-91508411D01*
X116321525Y-91751632D01*
X116528368Y-91958475D01*
X116702760Y-92075000D01*
X116528368Y-92191525D01*
X116321525Y-92398368D01*
X116159010Y-92641589D01*
X116047068Y-92911842D01*
X115990000Y-93198740D01*
X115990000Y-93491260D01*
X116047068Y-93778158D01*
X116159010Y-94048411D01*
X116321525Y-94291632D01*
X116528368Y-94498475D01*
X116702760Y-94615000D01*
X116528368Y-94731525D01*
X116321525Y-94938368D01*
X116159010Y-95181589D01*
X116047068Y-95451842D01*
X115990000Y-95738740D01*
X115990000Y-96031260D01*
X116047068Y-96318158D01*
X116159010Y-96588411D01*
X116321525Y-96831632D01*
X116528368Y-97038475D01*
X116702760Y-97155000D01*
X116528368Y-97271525D01*
X116321525Y-97478368D01*
X116159010Y-97721589D01*
X116047068Y-97991842D01*
X115990000Y-98278740D01*
X115990000Y-98571260D01*
X116047068Y-98858158D01*
X116159010Y-99128411D01*
X116321525Y-99371632D01*
X116528368Y-99578475D01*
X116702760Y-99695000D01*
X116528368Y-99811525D01*
X116321525Y-100018368D01*
X116159010Y-100261589D01*
X116047068Y-100531842D01*
X115990000Y-100818740D01*
X115990000Y-101111260D01*
X116047068Y-101398158D01*
X116159010Y-101668411D01*
X116321525Y-101911632D01*
X116528368Y-102118475D01*
X116702760Y-102235000D01*
X116528368Y-102351525D01*
X116321525Y-102558368D01*
X116159010Y-102801589D01*
X116047068Y-103071842D01*
X115990000Y-103358740D01*
X115990000Y-103651260D01*
X116047068Y-103938158D01*
X116159010Y-104208411D01*
X116321525Y-104451632D01*
X116528368Y-104658475D01*
X116702760Y-104775000D01*
X116528368Y-104891525D01*
X116321525Y-105098368D01*
X116159010Y-105341589D01*
X116047068Y-105611842D01*
X115990000Y-105898740D01*
X115990000Y-106191260D01*
X116047068Y-106478158D01*
X116159010Y-106748411D01*
X116321525Y-106991632D01*
X116528368Y-107198475D01*
X116702760Y-107315000D01*
X116528368Y-107431525D01*
X116321525Y-107638368D01*
X116159010Y-107881589D01*
X116047068Y-108151842D01*
X115990000Y-108438740D01*
X115990000Y-108731260D01*
X116047068Y-109018158D01*
X116159010Y-109288411D01*
X116321525Y-109531632D01*
X116528368Y-109738475D01*
X116702760Y-109855000D01*
X116528368Y-109971525D01*
X116321525Y-110178368D01*
X116159010Y-110421589D01*
X116047068Y-110691842D01*
X115990000Y-110978740D01*
X115990000Y-111271260D01*
X116047068Y-111558158D01*
X116159010Y-111828411D01*
X116321525Y-112071632D01*
X116528368Y-112278475D01*
X116702760Y-112395000D01*
X116528368Y-112511525D01*
X116321525Y-112718368D01*
X116159010Y-112961589D01*
X116047068Y-113231842D01*
X115990000Y-113518740D01*
X115990000Y-113811260D01*
X116047068Y-114098158D01*
X116159010Y-114368411D01*
X116321525Y-114611632D01*
X116528368Y-114818475D01*
X116710534Y-114940195D01*
X116593645Y-115009822D01*
X116377412Y-115204731D01*
X116203359Y-115438080D01*
X116078175Y-115700901D01*
X116033524Y-115848110D01*
X116154845Y-116078000D01*
X117348000Y-116078000D01*
X117348000Y-116058000D01*
X117602000Y-116058000D01*
X117602000Y-116078000D01*
X118795155Y-116078000D01*
X118916476Y-115848110D01*
X118871825Y-115700901D01*
X118746641Y-115438080D01*
X118572588Y-115204731D01*
X118356355Y-115009822D01*
X118239466Y-114940195D01*
X118421632Y-114818475D01*
X118628475Y-114611632D01*
X118790990Y-114368411D01*
X118902932Y-114098158D01*
X118960000Y-113811260D01*
X118960000Y-113518740D01*
X118902932Y-113231842D01*
X118790990Y-112961589D01*
X118628475Y-112718368D01*
X118421632Y-112511525D01*
X118247240Y-112395000D01*
X118421632Y-112278475D01*
X118628475Y-112071632D01*
X118790990Y-111828411D01*
X118902932Y-111558158D01*
X118960000Y-111271260D01*
X118960000Y-110978740D01*
X118902932Y-110691842D01*
X118790990Y-110421589D01*
X118628475Y-110178368D01*
X118421632Y-109971525D01*
X118247240Y-109855000D01*
X118421632Y-109738475D01*
X118628475Y-109531632D01*
X118790990Y-109288411D01*
X118902932Y-109018158D01*
X118960000Y-108731260D01*
X118960000Y-108438740D01*
X118902932Y-108151842D01*
X118790990Y-107881589D01*
X118628475Y-107638368D01*
X118421632Y-107431525D01*
X118247240Y-107315000D01*
X118421632Y-107198475D01*
X118628475Y-106991632D01*
X118790990Y-106748411D01*
X118902932Y-106478158D01*
X118960000Y-106191260D01*
X118960000Y-105898740D01*
X118902932Y-105611842D01*
X118790990Y-105341589D01*
X118628475Y-105098368D01*
X118421632Y-104891525D01*
X118247240Y-104775000D01*
X118421632Y-104658475D01*
X118628475Y-104451632D01*
X118790990Y-104208411D01*
X118902932Y-103938158D01*
X118960000Y-103651260D01*
X118960000Y-103358740D01*
X118902932Y-103071842D01*
X118790990Y-102801589D01*
X118628475Y-102558368D01*
X118421632Y-102351525D01*
X118247240Y-102235000D01*
X118421632Y-102118475D01*
X118628475Y-101911632D01*
X118790990Y-101668411D01*
X118902932Y-101398158D01*
X118960000Y-101111260D01*
X118960000Y-100818740D01*
X118902932Y-100531842D01*
X118790990Y-100261589D01*
X118628475Y-100018368D01*
X118421632Y-99811525D01*
X118247240Y-99695000D01*
X118421632Y-99578475D01*
X118628475Y-99371632D01*
X118790990Y-99128411D01*
X118902932Y-98858158D01*
X118960000Y-98571260D01*
X118960000Y-98278740D01*
X118902932Y-97991842D01*
X118790990Y-97721589D01*
X118628475Y-97478368D01*
X118421632Y-97271525D01*
X118247240Y-97155000D01*
X118421632Y-97038475D01*
X118628475Y-96831632D01*
X118790990Y-96588411D01*
X118902932Y-96318158D01*
X118960000Y-96031260D01*
X118960000Y-95738740D01*
X118902932Y-95451842D01*
X118790990Y-95181589D01*
X118628475Y-94938368D01*
X118421632Y-94731525D01*
X118247240Y-94615000D01*
X118421632Y-94498475D01*
X118628475Y-94291632D01*
X118790990Y-94048411D01*
X118902932Y-93778158D01*
X118960000Y-93491260D01*
X118960000Y-93198740D01*
X118902932Y-92911842D01*
X118790990Y-92641589D01*
X118628475Y-92398368D01*
X118421632Y-92191525D01*
X118247240Y-92075000D01*
X118421632Y-91958475D01*
X118628475Y-91751632D01*
X118790990Y-91508411D01*
X118902932Y-91238158D01*
X118960000Y-90951260D01*
X118960000Y-90658740D01*
X118902932Y-90371842D01*
X118790990Y-90101589D01*
X118628475Y-89858368D01*
X118421632Y-89651525D01*
X118247240Y-89535000D01*
X118421632Y-89418475D01*
X118628475Y-89211632D01*
X118790990Y-88968411D01*
X118902932Y-88698158D01*
X118960000Y-88411260D01*
X118960000Y-88118740D01*
X118902932Y-87831842D01*
X118790990Y-87561589D01*
X118628475Y-87318368D01*
X118421632Y-87111525D01*
X118247240Y-86995000D01*
X118421632Y-86878475D01*
X118628475Y-86671632D01*
X118790990Y-86428411D01*
X118802952Y-86399531D01*
X119130000Y-86726579D01*
X119130001Y-97746521D01*
X119125719Y-97790000D01*
X119142805Y-97963490D01*
X119193412Y-98130313D01*
X119275590Y-98284059D01*
X119358468Y-98385046D01*
X119358471Y-98385049D01*
X119386184Y-98418817D01*
X119419952Y-98446530D01*
X125073470Y-104100049D01*
X125101183Y-104133817D01*
X125134951Y-104161530D01*
X125134953Y-104161532D01*
X125235941Y-104244411D01*
X125389686Y-104326589D01*
X125556510Y-104377195D01*
X125686523Y-104390000D01*
X125686531Y-104390000D01*
X125730000Y-104394281D01*
X125773469Y-104390000D01*
X128366546Y-104390000D01*
X128414744Y-104422205D01*
X128603102Y-104500226D01*
X128803061Y-104540000D01*
X129006939Y-104540000D01*
X129206898Y-104500226D01*
X129290001Y-104465803D01*
X129290001Y-106636521D01*
X129285719Y-106680000D01*
X129302805Y-106853490D01*
X129353412Y-107020313D01*
X129435590Y-107174059D01*
X129518468Y-107275046D01*
X129518471Y-107275049D01*
X129546184Y-107308817D01*
X129579952Y-107336530D01*
X136503470Y-114260049D01*
X136531183Y-114293817D01*
X136564951Y-114321530D01*
X136564953Y-114321532D01*
X136622075Y-114368411D01*
X136665941Y-114404411D01*
X136819687Y-114486589D01*
X136986510Y-114537195D01*
X137116523Y-114550000D01*
X137116531Y-114550000D01*
X137160000Y-114554281D01*
X137203469Y-114550000D01*
X141680344Y-114550000D01*
X141721525Y-114611632D01*
X141928368Y-114818475D01*
X142102760Y-114935000D01*
X141928368Y-115051525D01*
X141721525Y-115258368D01*
X141680344Y-115320000D01*
X141013469Y-115320000D01*
X140970000Y-115315719D01*
X140926531Y-115320000D01*
X140926523Y-115320000D01*
X140796510Y-115332805D01*
X140629686Y-115383411D01*
X140475941Y-115465589D01*
X140374953Y-115548468D01*
X140374951Y-115548470D01*
X140341183Y-115576183D01*
X140313470Y-115609951D01*
X134659959Y-121263463D01*
X134659953Y-121263468D01*
X132119951Y-123803471D01*
X132086184Y-123831183D01*
X132058471Y-123864951D01*
X132058468Y-123864954D01*
X131975590Y-123965941D01*
X131893412Y-124119687D01*
X131842805Y-124286510D01*
X131825719Y-124460000D01*
X131830001Y-124503478D01*
X131830000Y-125363421D01*
X127389957Y-129803465D01*
X127333102Y-129814774D01*
X127144744Y-129892795D01*
X126975226Y-130006063D01*
X126831063Y-130150226D01*
X126717795Y-130319744D01*
X126639774Y-130508102D01*
X126600000Y-130708061D01*
X126600000Y-130911939D01*
X126639774Y-131111898D01*
X126717795Y-131300256D01*
X126831063Y-131469774D01*
X126975226Y-131613937D01*
X127144744Y-131727205D01*
X127333102Y-131805226D01*
X127533061Y-131845000D01*
X127736939Y-131845000D01*
X127936898Y-131805226D01*
X128125256Y-131727205D01*
X128294774Y-131613937D01*
X128438937Y-131469774D01*
X128552205Y-131300256D01*
X128630226Y-131111898D01*
X128641535Y-131055043D01*
X133310051Y-126386528D01*
X133343817Y-126358817D01*
X133454411Y-126224059D01*
X133536589Y-126070313D01*
X133587195Y-125903490D01*
X133600000Y-125773477D01*
X133600000Y-125773469D01*
X133604281Y-125730000D01*
X133600000Y-125686531D01*
X133600000Y-124826578D01*
X135911532Y-122515047D01*
X135911537Y-122515041D01*
X141336579Y-117090000D01*
X141680344Y-117090000D01*
X141721525Y-117151632D01*
X141928368Y-117358475D01*
X142102760Y-117475000D01*
X141928368Y-117591525D01*
X141721525Y-117798368D01*
X141559010Y-118041589D01*
X141447068Y-118311842D01*
X141390000Y-118598740D01*
X141390000Y-118891260D01*
X141447068Y-119178158D01*
X141559010Y-119448411D01*
X141721525Y-119691632D01*
X141928368Y-119898475D01*
X142102760Y-120015000D01*
X141928368Y-120131525D01*
X141721525Y-120338368D01*
X141559010Y-120581589D01*
X141447068Y-120851842D01*
X141390000Y-121138740D01*
X141390000Y-121431260D01*
X141447068Y-121718158D01*
X141559010Y-121988411D01*
X141721525Y-122231632D01*
X141928368Y-122438475D01*
X142102760Y-122555000D01*
X141928368Y-122671525D01*
X141721525Y-122878368D01*
X141559010Y-123121589D01*
X141447068Y-123391842D01*
X141390000Y-123678740D01*
X141390000Y-123971260D01*
X141447068Y-124258158D01*
X141559010Y-124528411D01*
X141721525Y-124771632D01*
X141928368Y-124978475D01*
X142102760Y-125095000D01*
X141928368Y-125211525D01*
X141721525Y-125418368D01*
X141559010Y-125661589D01*
X141447068Y-125931842D01*
X141390000Y-126218740D01*
X141390000Y-126511260D01*
X141447068Y-126798158D01*
X141559010Y-127068411D01*
X141721525Y-127311632D01*
X141928368Y-127518475D01*
X142102760Y-127635000D01*
X141928368Y-127751525D01*
X141721525Y-127958368D01*
X141559010Y-128201589D01*
X141447068Y-128471842D01*
X141390000Y-128758740D01*
X141390000Y-129051260D01*
X141447068Y-129338158D01*
X141559010Y-129608411D01*
X141721525Y-129851632D01*
X141853380Y-129983487D01*
X141780820Y-130005498D01*
X141670506Y-130064463D01*
X141573815Y-130143815D01*
X141494463Y-130240506D01*
X141435498Y-130350820D01*
X141407947Y-130441643D01*
X141327006Y-130449615D01*
X141136620Y-130507368D01*
X140961160Y-130601153D01*
X140807367Y-130727367D01*
X140775739Y-130765906D01*
X137931645Y-133610000D01*
X116623356Y-133610000D01*
X115308356Y-132295000D01*
X115986928Y-132295000D01*
X115999188Y-132419482D01*
X116035498Y-132539180D01*
X116094463Y-132649494D01*
X116173815Y-132746185D01*
X116270506Y-132825537D01*
X116380820Y-132884502D01*
X116500518Y-132920812D01*
X116625000Y-132933072D01*
X117189250Y-132930000D01*
X117348000Y-132771250D01*
X117348000Y-131572000D01*
X117602000Y-131572000D01*
X117602000Y-132771250D01*
X117760750Y-132930000D01*
X118325000Y-132933072D01*
X118449482Y-132920812D01*
X118569180Y-132884502D01*
X118679494Y-132825537D01*
X118776185Y-132746185D01*
X118855537Y-132649494D01*
X118914502Y-132539180D01*
X118950812Y-132419482D01*
X118963072Y-132295000D01*
X118960000Y-131730750D01*
X118801250Y-131572000D01*
X117602000Y-131572000D01*
X117348000Y-131572000D01*
X116148750Y-131572000D01*
X115990000Y-131730750D01*
X115986928Y-132295000D01*
X115308356Y-132295000D01*
X113405000Y-130391645D01*
X113405000Y-121006578D01*
X116004461Y-123606040D01*
X115990000Y-123678740D01*
X115990000Y-123971260D01*
X116047068Y-124258158D01*
X116159010Y-124528411D01*
X116321525Y-124771632D01*
X116528368Y-124978475D01*
X116702760Y-125095000D01*
X116528368Y-125211525D01*
X116321525Y-125418368D01*
X116159010Y-125661589D01*
X116047068Y-125931842D01*
X115990000Y-126218740D01*
X115990000Y-126511260D01*
X116047068Y-126798158D01*
X116159010Y-127068411D01*
X116321525Y-127311632D01*
X116528368Y-127518475D01*
X116702760Y-127635000D01*
X116528368Y-127751525D01*
X116321525Y-127958368D01*
X116159010Y-128201589D01*
X116047068Y-128471842D01*
X115990000Y-128758740D01*
X115990000Y-129051260D01*
X116047068Y-129338158D01*
X116159010Y-129608411D01*
X116321525Y-129851632D01*
X116453380Y-129983487D01*
X116380820Y-130005498D01*
X116270506Y-130064463D01*
X116173815Y-130143815D01*
X116094463Y-130240506D01*
X116035498Y-130350820D01*
X115999188Y-130470518D01*
X115986928Y-130595000D01*
X115990000Y-131159250D01*
X116148750Y-131318000D01*
X117348000Y-131318000D01*
X117348000Y-131298000D01*
X117602000Y-131298000D01*
X117602000Y-131318000D01*
X118801250Y-131318000D01*
X118960000Y-131159250D01*
X118963072Y-130595000D01*
X118950812Y-130470518D01*
X118914502Y-130350820D01*
X118855537Y-130240506D01*
X118776185Y-130143815D01*
X118679494Y-130064463D01*
X118569180Y-130005498D01*
X118496620Y-129983487D01*
X118628475Y-129851632D01*
X118790990Y-129608411D01*
X118902932Y-129338158D01*
X118960000Y-129051260D01*
X118960000Y-128758740D01*
X118902932Y-128471842D01*
X118790990Y-128201589D01*
X118628475Y-127958368D01*
X118421632Y-127751525D01*
X118247240Y-127635000D01*
X118421632Y-127518475D01*
X118628475Y-127311632D01*
X118790990Y-127068411D01*
X118902932Y-126798158D01*
X118960000Y-126511260D01*
X118960000Y-126218740D01*
X118902932Y-125931842D01*
X118790990Y-125661589D01*
X118628475Y-125418368D01*
X118421632Y-125211525D01*
X118247240Y-125095000D01*
X118421632Y-124978475D01*
X118628475Y-124771632D01*
X118790990Y-124528411D01*
X118902932Y-124258158D01*
X118960000Y-123971260D01*
X118960000Y-123678740D01*
X118902932Y-123391842D01*
X118790990Y-123121589D01*
X118628475Y-122878368D01*
X118421632Y-122671525D01*
X118247240Y-122555000D01*
X118421632Y-122438475D01*
X118628475Y-122231632D01*
X118790990Y-121988411D01*
X118902932Y-121718158D01*
X118960000Y-121431260D01*
X118960000Y-121138740D01*
X118902932Y-120851842D01*
X118790990Y-120581589D01*
X118628475Y-120338368D01*
X118421632Y-120131525D01*
X118247240Y-120015000D01*
X118421632Y-119898475D01*
X118628475Y-119691632D01*
X118790990Y-119448411D01*
X118902932Y-119178158D01*
X118960000Y-118891260D01*
X118960000Y-118598740D01*
X118902932Y-118311842D01*
X118790990Y-118041589D01*
X118628475Y-117798368D01*
X118421632Y-117591525D01*
X118239466Y-117469805D01*
X118356355Y-117400178D01*
X118572588Y-117205269D01*
X118746641Y-116971920D01*
X118871825Y-116709099D01*
X118916476Y-116561890D01*
X118795155Y-116332000D01*
X117602000Y-116332000D01*
X117602000Y-116352000D01*
X117348000Y-116352000D01*
X117348000Y-116332000D01*
X116154845Y-116332000D01*
X116033524Y-116561890D01*
X116078175Y-116709099D01*
X116203359Y-116971920D01*
X116377412Y-117205269D01*
X116593645Y-117400178D01*
X116710534Y-117469805D01*
X116528368Y-117591525D01*
X116321525Y-117798368D01*
X116159010Y-118041589D01*
X116047068Y-118311842D01*
X115998348Y-118556770D01*
X115820000Y-118378422D01*
X115820000Y-109758454D01*
X115852205Y-109710256D01*
X115930226Y-109521898D01*
X115970000Y-109321939D01*
X115970000Y-109118061D01*
X115930226Y-108918102D01*
X115852205Y-108729744D01*
X115738937Y-108560226D01*
X115594774Y-108416063D01*
X115425256Y-108302795D01*
X115236898Y-108224774D01*
X115036939Y-108185000D01*
X114833061Y-108185000D01*
X114633102Y-108224774D01*
X114444744Y-108302795D01*
X114275226Y-108416063D01*
X114131063Y-108560226D01*
X114017795Y-108729744D01*
X113964160Y-108859229D01*
X113766939Y-108820000D01*
X113563061Y-108820000D01*
X113405000Y-108851440D01*
X113405000Y-96747623D01*
X113430000Y-96621939D01*
X113430000Y-96418061D01*
X113390226Y-96218102D01*
X113312205Y-96029744D01*
X113198937Y-95860226D01*
X113054774Y-95716063D01*
X112885256Y-95602795D01*
X112696898Y-95524774D01*
X112496939Y-95485000D01*
X112293061Y-95485000D01*
X112093102Y-95524774D01*
X111904744Y-95602795D01*
X111735226Y-95716063D01*
X111591063Y-95860226D01*
X111477795Y-96029744D01*
X111399774Y-96218102D01*
X111360000Y-96418061D01*
X111360000Y-96621939D01*
X111385001Y-96747628D01*
X111385001Y-96786440D01*
X111226939Y-96755000D01*
X111023061Y-96755000D01*
X110823102Y-96794774D01*
X110634744Y-96872795D01*
X110465226Y-96986063D01*
X110321063Y-97130226D01*
X110207795Y-97299744D01*
X110154160Y-97429229D01*
X109956939Y-97390000D01*
X109753061Y-97390000D01*
X109553102Y-97429774D01*
X109364744Y-97507795D01*
X109195226Y-97621063D01*
X109051063Y-97765226D01*
X108937795Y-97934744D01*
X108859774Y-98123102D01*
X108820000Y-98323061D01*
X108820000Y-98526939D01*
X108859774Y-98726898D01*
X108937795Y-98915256D01*
X108970000Y-98963454D01*
X108970000Y-99369196D01*
X108886898Y-99334774D01*
X108686939Y-99295000D01*
X108483061Y-99295000D01*
X108283102Y-99334774D01*
X108094744Y-99412795D01*
X107925226Y-99526063D01*
X107815000Y-99636289D01*
X107815000Y-94670741D01*
X107820490Y-94614999D01*
X107815000Y-94559257D01*
X107815000Y-94559248D01*
X107798577Y-94392501D01*
X107733676Y-94178553D01*
X107628284Y-93981377D01*
X107486449Y-93808551D01*
X107443141Y-93773009D01*
X104903143Y-91233012D01*
X104895952Y-91227110D01*
X110813064Y-85309999D01*
X116043456Y-85309999D01*
X115990000Y-85578740D01*
G37*
X115990000Y-85578740D02*
X115990000Y-85871260D01*
X116047068Y-86158158D01*
X116159010Y-86428411D01*
X116321525Y-86671632D01*
X116528368Y-86878475D01*
X116702760Y-86995000D01*
X116528368Y-87111525D01*
X116321525Y-87318368D01*
X116159010Y-87561589D01*
X116047068Y-87831842D01*
X115990000Y-88118740D01*
X115990000Y-88411260D01*
X116047068Y-88698158D01*
X116159010Y-88968411D01*
X116321525Y-89211632D01*
X116528368Y-89418475D01*
X116702760Y-89535000D01*
X116528368Y-89651525D01*
X116321525Y-89858368D01*
X116159010Y-90101589D01*
X116047068Y-90371842D01*
X115990000Y-90658740D01*
X115990000Y-90951260D01*
X116047068Y-91238158D01*
X116159010Y-91508411D01*
X116321525Y-91751632D01*
X116528368Y-91958475D01*
X116702760Y-92075000D01*
X116528368Y-92191525D01*
X116321525Y-92398368D01*
X116159010Y-92641589D01*
X116047068Y-92911842D01*
X115990000Y-93198740D01*
X115990000Y-93491260D01*
X116047068Y-93778158D01*
X116159010Y-94048411D01*
X116321525Y-94291632D01*
X116528368Y-94498475D01*
X116702760Y-94615000D01*
X116528368Y-94731525D01*
X116321525Y-94938368D01*
X116159010Y-95181589D01*
X116047068Y-95451842D01*
X115990000Y-95738740D01*
X115990000Y-96031260D01*
X116047068Y-96318158D01*
X116159010Y-96588411D01*
X116321525Y-96831632D01*
X116528368Y-97038475D01*
X116702760Y-97155000D01*
X116528368Y-97271525D01*
X116321525Y-97478368D01*
X116159010Y-97721589D01*
X116047068Y-97991842D01*
X115990000Y-98278740D01*
X115990000Y-98571260D01*
X116047068Y-98858158D01*
X116159010Y-99128411D01*
X116321525Y-99371632D01*
X116528368Y-99578475D01*
X116702760Y-99695000D01*
X116528368Y-99811525D01*
X116321525Y-100018368D01*
X116159010Y-100261589D01*
X116047068Y-100531842D01*
X115990000Y-100818740D01*
X115990000Y-101111260D01*
X116047068Y-101398158D01*
X116159010Y-101668411D01*
X116321525Y-101911632D01*
X116528368Y-102118475D01*
X116702760Y-102235000D01*
X116528368Y-102351525D01*
X116321525Y-102558368D01*
X116159010Y-102801589D01*
X116047068Y-103071842D01*
X115990000Y-103358740D01*
X115990000Y-103651260D01*
X116047068Y-103938158D01*
X116159010Y-104208411D01*
X116321525Y-104451632D01*
X116528368Y-104658475D01*
X116702760Y-104775000D01*
X116528368Y-104891525D01*
X116321525Y-105098368D01*
X116159010Y-105341589D01*
X116047068Y-105611842D01*
X115990000Y-105898740D01*
X115990000Y-106191260D01*
X116047068Y-106478158D01*
X116159010Y-106748411D01*
X116321525Y-106991632D01*
X116528368Y-107198475D01*
X116702760Y-107315000D01*
X116528368Y-107431525D01*
X116321525Y-107638368D01*
X116159010Y-107881589D01*
X116047068Y-108151842D01*
X115990000Y-108438740D01*
X115990000Y-108731260D01*
X116047068Y-109018158D01*
X116159010Y-109288411D01*
X116321525Y-109531632D01*
X116528368Y-109738475D01*
X116702760Y-109855000D01*
X116528368Y-109971525D01*
X116321525Y-110178368D01*
X116159010Y-110421589D01*
X116047068Y-110691842D01*
X115990000Y-110978740D01*
X115990000Y-111271260D01*
X116047068Y-111558158D01*
X116159010Y-111828411D01*
X116321525Y-112071632D01*
X116528368Y-112278475D01*
X116702760Y-112395000D01*
X116528368Y-112511525D01*
X116321525Y-112718368D01*
X116159010Y-112961589D01*
X116047068Y-113231842D01*
X115990000Y-113518740D01*
X115990000Y-113811260D01*
X116047068Y-114098158D01*
X116159010Y-114368411D01*
X116321525Y-114611632D01*
X116528368Y-114818475D01*
X116710534Y-114940195D01*
X116593645Y-115009822D01*
X116377412Y-115204731D01*
X116203359Y-115438080D01*
X116078175Y-115700901D01*
X116033524Y-115848110D01*
X116154845Y-116078000D01*
X117348000Y-116078000D01*
X117348000Y-116058000D01*
X117602000Y-116058000D01*
X117602000Y-116078000D01*
X118795155Y-116078000D01*
X118916476Y-115848110D01*
X118871825Y-115700901D01*
X118746641Y-115438080D01*
X118572588Y-115204731D01*
X118356355Y-115009822D01*
X118239466Y-114940195D01*
X118421632Y-114818475D01*
X118628475Y-114611632D01*
X118790990Y-114368411D01*
X118902932Y-114098158D01*
X118960000Y-113811260D01*
X118960000Y-113518740D01*
X118902932Y-113231842D01*
X118790990Y-112961589D01*
X118628475Y-112718368D01*
X118421632Y-112511525D01*
X118247240Y-112395000D01*
X118421632Y-112278475D01*
X118628475Y-112071632D01*
X118790990Y-111828411D01*
X118902932Y-111558158D01*
X118960000Y-111271260D01*
X118960000Y-110978740D01*
X118902932Y-110691842D01*
X118790990Y-110421589D01*
X118628475Y-110178368D01*
X118421632Y-109971525D01*
X118247240Y-109855000D01*
X118421632Y-109738475D01*
X118628475Y-109531632D01*
X118790990Y-109288411D01*
X118902932Y-109018158D01*
X118960000Y-108731260D01*
X118960000Y-108438740D01*
X118902932Y-108151842D01*
X118790990Y-107881589D01*
X118628475Y-107638368D01*
X118421632Y-107431525D01*
X118247240Y-107315000D01*
X118421632Y-107198475D01*
X118628475Y-106991632D01*
X118790990Y-106748411D01*
X118902932Y-106478158D01*
X118960000Y-106191260D01*
X118960000Y-105898740D01*
X118902932Y-105611842D01*
X118790990Y-105341589D01*
X118628475Y-105098368D01*
X118421632Y-104891525D01*
X118247240Y-104775000D01*
X118421632Y-104658475D01*
X118628475Y-104451632D01*
X118790990Y-104208411D01*
X118902932Y-103938158D01*
X118960000Y-103651260D01*
X118960000Y-103358740D01*
X118902932Y-103071842D01*
X118790990Y-102801589D01*
X118628475Y-102558368D01*
X118421632Y-102351525D01*
X118247240Y-102235000D01*
X118421632Y-102118475D01*
X118628475Y-101911632D01*
X118790990Y-101668411D01*
X118902932Y-101398158D01*
X118960000Y-101111260D01*
X118960000Y-100818740D01*
X118902932Y-100531842D01*
X118790990Y-100261589D01*
X118628475Y-100018368D01*
X118421632Y-99811525D01*
X118247240Y-99695000D01*
X118421632Y-99578475D01*
X118628475Y-99371632D01*
X118790990Y-99128411D01*
X118902932Y-98858158D01*
X118960000Y-98571260D01*
X118960000Y-98278740D01*
X118902932Y-97991842D01*
X118790990Y-97721589D01*
X118628475Y-97478368D01*
X118421632Y-97271525D01*
X118247240Y-97155000D01*
X118421632Y-97038475D01*
X118628475Y-96831632D01*
X118790990Y-96588411D01*
X118902932Y-96318158D01*
X118960000Y-96031260D01*
X118960000Y-95738740D01*
X118902932Y-95451842D01*
X118790990Y-95181589D01*
X118628475Y-94938368D01*
X118421632Y-94731525D01*
X118247240Y-94615000D01*
X118421632Y-94498475D01*
X118628475Y-94291632D01*
X118790990Y-94048411D01*
X118902932Y-93778158D01*
X118960000Y-93491260D01*
X118960000Y-93198740D01*
X118902932Y-92911842D01*
X118790990Y-92641589D01*
X118628475Y-92398368D01*
X118421632Y-92191525D01*
X118247240Y-92075000D01*
X118421632Y-91958475D01*
X118628475Y-91751632D01*
X118790990Y-91508411D01*
X118902932Y-91238158D01*
X118960000Y-90951260D01*
X118960000Y-90658740D01*
X118902932Y-90371842D01*
X118790990Y-90101589D01*
X118628475Y-89858368D01*
X118421632Y-89651525D01*
X118247240Y-89535000D01*
X118421632Y-89418475D01*
X118628475Y-89211632D01*
X118790990Y-88968411D01*
X118902932Y-88698158D01*
X118960000Y-88411260D01*
X118960000Y-88118740D01*
X118902932Y-87831842D01*
X118790990Y-87561589D01*
X118628475Y-87318368D01*
X118421632Y-87111525D01*
X118247240Y-86995000D01*
X118421632Y-86878475D01*
X118628475Y-86671632D01*
X118790990Y-86428411D01*
X118802952Y-86399531D01*
X119130000Y-86726579D01*
X119130001Y-97746521D01*
X119125719Y-97790000D01*
X119142805Y-97963490D01*
X119193412Y-98130313D01*
X119275590Y-98284059D01*
X119358468Y-98385046D01*
X119358471Y-98385049D01*
X119386184Y-98418817D01*
X119419952Y-98446530D01*
X125073470Y-104100049D01*
X125101183Y-104133817D01*
X125134951Y-104161530D01*
X125134953Y-104161532D01*
X125235941Y-104244411D01*
X125389686Y-104326589D01*
X125556510Y-104377195D01*
X125686523Y-104390000D01*
X125686531Y-104390000D01*
X125730000Y-104394281D01*
X125773469Y-104390000D01*
X128366546Y-104390000D01*
X128414744Y-104422205D01*
X128603102Y-104500226D01*
X128803061Y-104540000D01*
X129006939Y-104540000D01*
X129206898Y-104500226D01*
X129290001Y-104465803D01*
X129290001Y-106636521D01*
X129285719Y-106680000D01*
X129302805Y-106853490D01*
X129353412Y-107020313D01*
X129435590Y-107174059D01*
X129518468Y-107275046D01*
X129518471Y-107275049D01*
X129546184Y-107308817D01*
X129579952Y-107336530D01*
X136503470Y-114260049D01*
X136531183Y-114293817D01*
X136564951Y-114321530D01*
X136564953Y-114321532D01*
X136622075Y-114368411D01*
X136665941Y-114404411D01*
X136819687Y-114486589D01*
X136986510Y-114537195D01*
X137116523Y-114550000D01*
X137116531Y-114550000D01*
X137160000Y-114554281D01*
X137203469Y-114550000D01*
X141680344Y-114550000D01*
X141721525Y-114611632D01*
X141928368Y-114818475D01*
X142102760Y-114935000D01*
X141928368Y-115051525D01*
X141721525Y-115258368D01*
X141680344Y-115320000D01*
X141013469Y-115320000D01*
X140970000Y-115315719D01*
X140926531Y-115320000D01*
X140926523Y-115320000D01*
X140796510Y-115332805D01*
X140629686Y-115383411D01*
X140475941Y-115465589D01*
X140374953Y-115548468D01*
X140374951Y-115548470D01*
X140341183Y-115576183D01*
X140313470Y-115609951D01*
X134659959Y-121263463D01*
X134659953Y-121263468D01*
X132119951Y-123803471D01*
X132086184Y-123831183D01*
X132058471Y-123864951D01*
X132058468Y-123864954D01*
X131975590Y-123965941D01*
X131893412Y-124119687D01*
X131842805Y-124286510D01*
X131825719Y-124460000D01*
X131830001Y-124503478D01*
X131830000Y-125363421D01*
X127389957Y-129803465D01*
X127333102Y-129814774D01*
X127144744Y-129892795D01*
X126975226Y-130006063D01*
X126831063Y-130150226D01*
X126717795Y-130319744D01*
X126639774Y-130508102D01*
X126600000Y-130708061D01*
X126600000Y-130911939D01*
X126639774Y-131111898D01*
X126717795Y-131300256D01*
X126831063Y-131469774D01*
X126975226Y-131613937D01*
X127144744Y-131727205D01*
X127333102Y-131805226D01*
X127533061Y-131845000D01*
X127736939Y-131845000D01*
X127936898Y-131805226D01*
X128125256Y-131727205D01*
X128294774Y-131613937D01*
X128438937Y-131469774D01*
X128552205Y-131300256D01*
X128630226Y-131111898D01*
X128641535Y-131055043D01*
X133310051Y-126386528D01*
X133343817Y-126358817D01*
X133454411Y-126224059D01*
X133536589Y-126070313D01*
X133587195Y-125903490D01*
X133600000Y-125773477D01*
X133600000Y-125773469D01*
X133604281Y-125730000D01*
X133600000Y-125686531D01*
X133600000Y-124826578D01*
X135911532Y-122515047D01*
X135911537Y-122515041D01*
X141336579Y-117090000D01*
X141680344Y-117090000D01*
X141721525Y-117151632D01*
X141928368Y-117358475D01*
X142102760Y-117475000D01*
X141928368Y-117591525D01*
X141721525Y-117798368D01*
X141559010Y-118041589D01*
X141447068Y-118311842D01*
X141390000Y-118598740D01*
X141390000Y-118891260D01*
X141447068Y-119178158D01*
X141559010Y-119448411D01*
X141721525Y-119691632D01*
X141928368Y-119898475D01*
X142102760Y-120015000D01*
X141928368Y-120131525D01*
X141721525Y-120338368D01*
X141559010Y-120581589D01*
X141447068Y-120851842D01*
X141390000Y-121138740D01*
X141390000Y-121431260D01*
X141447068Y-121718158D01*
X141559010Y-121988411D01*
X141721525Y-122231632D01*
X141928368Y-122438475D01*
X142102760Y-122555000D01*
X141928368Y-122671525D01*
X141721525Y-122878368D01*
X141559010Y-123121589D01*
X141447068Y-123391842D01*
X141390000Y-123678740D01*
X141390000Y-123971260D01*
X141447068Y-124258158D01*
X141559010Y-124528411D01*
X141721525Y-124771632D01*
X141928368Y-124978475D01*
X142102760Y-125095000D01*
X141928368Y-125211525D01*
X141721525Y-125418368D01*
X141559010Y-125661589D01*
X141447068Y-125931842D01*
X141390000Y-126218740D01*
X141390000Y-126511260D01*
X141447068Y-126798158D01*
X141559010Y-127068411D01*
X141721525Y-127311632D01*
X141928368Y-127518475D01*
X142102760Y-127635000D01*
X141928368Y-127751525D01*
X141721525Y-127958368D01*
X141559010Y-128201589D01*
X141447068Y-128471842D01*
X141390000Y-128758740D01*
X141390000Y-129051260D01*
X141447068Y-129338158D01*
X141559010Y-129608411D01*
X141721525Y-129851632D01*
X141853380Y-129983487D01*
X141780820Y-130005498D01*
X141670506Y-130064463D01*
X141573815Y-130143815D01*
X141494463Y-130240506D01*
X141435498Y-130350820D01*
X141407947Y-130441643D01*
X141327006Y-130449615D01*
X141136620Y-130507368D01*
X140961160Y-130601153D01*
X140807367Y-130727367D01*
X140775739Y-130765906D01*
X137931645Y-133610000D01*
X116623356Y-133610000D01*
X115308356Y-132295000D01*
X115986928Y-132295000D01*
X115999188Y-132419482D01*
X116035498Y-132539180D01*
X116094463Y-132649494D01*
X116173815Y-132746185D01*
X116270506Y-132825537D01*
X116380820Y-132884502D01*
X116500518Y-132920812D01*
X116625000Y-132933072D01*
X117189250Y-132930000D01*
X117348000Y-132771250D01*
X117348000Y-131572000D01*
X117602000Y-131572000D01*
X117602000Y-132771250D01*
X117760750Y-132930000D01*
X118325000Y-132933072D01*
X118449482Y-132920812D01*
X118569180Y-132884502D01*
X118679494Y-132825537D01*
X118776185Y-132746185D01*
X118855537Y-132649494D01*
X118914502Y-132539180D01*
X118950812Y-132419482D01*
X118963072Y-132295000D01*
X118960000Y-131730750D01*
X118801250Y-131572000D01*
X117602000Y-131572000D01*
X117348000Y-131572000D01*
X116148750Y-131572000D01*
X115990000Y-131730750D01*
X115986928Y-132295000D01*
X115308356Y-132295000D01*
X113405000Y-130391645D01*
X113405000Y-121006578D01*
X116004461Y-123606040D01*
X115990000Y-123678740D01*
X115990000Y-123971260D01*
X116047068Y-124258158D01*
X116159010Y-124528411D01*
X116321525Y-124771632D01*
X116528368Y-124978475D01*
X116702760Y-125095000D01*
X116528368Y-125211525D01*
X116321525Y-125418368D01*
X116159010Y-125661589D01*
X116047068Y-125931842D01*
X115990000Y-126218740D01*
X115990000Y-126511260D01*
X116047068Y-126798158D01*
X116159010Y-127068411D01*
X116321525Y-127311632D01*
X116528368Y-127518475D01*
X116702760Y-127635000D01*
X116528368Y-127751525D01*
X116321525Y-127958368D01*
X116159010Y-128201589D01*
X116047068Y-128471842D01*
X115990000Y-128758740D01*
X115990000Y-129051260D01*
X116047068Y-129338158D01*
X116159010Y-129608411D01*
X116321525Y-129851632D01*
X116453380Y-129983487D01*
X116380820Y-130005498D01*
X116270506Y-130064463D01*
X116173815Y-130143815D01*
X116094463Y-130240506D01*
X116035498Y-130350820D01*
X115999188Y-130470518D01*
X115986928Y-130595000D01*
X115990000Y-131159250D01*
X116148750Y-131318000D01*
X117348000Y-131318000D01*
X117348000Y-131298000D01*
X117602000Y-131298000D01*
X117602000Y-131318000D01*
X118801250Y-131318000D01*
X118960000Y-131159250D01*
X118963072Y-130595000D01*
X118950812Y-130470518D01*
X118914502Y-130350820D01*
X118855537Y-130240506D01*
X118776185Y-130143815D01*
X118679494Y-130064463D01*
X118569180Y-130005498D01*
X118496620Y-129983487D01*
X118628475Y-129851632D01*
X118790990Y-129608411D01*
X118902932Y-129338158D01*
X118960000Y-129051260D01*
X118960000Y-128758740D01*
X118902932Y-128471842D01*
X118790990Y-128201589D01*
X118628475Y-127958368D01*
X118421632Y-127751525D01*
X118247240Y-127635000D01*
X118421632Y-127518475D01*
X118628475Y-127311632D01*
X118790990Y-127068411D01*
X118902932Y-126798158D01*
X118960000Y-126511260D01*
X118960000Y-126218740D01*
X118902932Y-125931842D01*
X118790990Y-125661589D01*
X118628475Y-125418368D01*
X118421632Y-125211525D01*
X118247240Y-125095000D01*
X118421632Y-124978475D01*
X118628475Y-124771632D01*
X118790990Y-124528411D01*
X118902932Y-124258158D01*
X118960000Y-123971260D01*
X118960000Y-123678740D01*
X118902932Y-123391842D01*
X118790990Y-123121589D01*
X118628475Y-122878368D01*
X118421632Y-122671525D01*
X118247240Y-122555000D01*
X118421632Y-122438475D01*
X118628475Y-122231632D01*
X118790990Y-121988411D01*
X118902932Y-121718158D01*
X118960000Y-121431260D01*
X118960000Y-121138740D01*
X118902932Y-120851842D01*
X118790990Y-120581589D01*
X118628475Y-120338368D01*
X118421632Y-120131525D01*
X118247240Y-120015000D01*
X118421632Y-119898475D01*
X118628475Y-119691632D01*
X118790990Y-119448411D01*
X118902932Y-119178158D01*
X118960000Y-118891260D01*
X118960000Y-118598740D01*
X118902932Y-118311842D01*
X118790990Y-118041589D01*
X118628475Y-117798368D01*
X118421632Y-117591525D01*
X118239466Y-117469805D01*
X118356355Y-117400178D01*
X118572588Y-117205269D01*
X118746641Y-116971920D01*
X118871825Y-116709099D01*
X118916476Y-116561890D01*
X118795155Y-116332000D01*
X117602000Y-116332000D01*
X117602000Y-116352000D01*
X117348000Y-116352000D01*
X117348000Y-116332000D01*
X116154845Y-116332000D01*
X116033524Y-116561890D01*
X116078175Y-116709099D01*
X116203359Y-116971920D01*
X116377412Y-117205269D01*
X116593645Y-117400178D01*
X116710534Y-117469805D01*
X116528368Y-117591525D01*
X116321525Y-117798368D01*
X116159010Y-118041589D01*
X116047068Y-118311842D01*
X115998348Y-118556770D01*
X115820000Y-118378422D01*
X115820000Y-109758454D01*
X115852205Y-109710256D01*
X115930226Y-109521898D01*
X115970000Y-109321939D01*
X115970000Y-109118061D01*
X115930226Y-108918102D01*
X115852205Y-108729744D01*
X115738937Y-108560226D01*
X115594774Y-108416063D01*
X115425256Y-108302795D01*
X115236898Y-108224774D01*
X115036939Y-108185000D01*
X114833061Y-108185000D01*
X114633102Y-108224774D01*
X114444744Y-108302795D01*
X114275226Y-108416063D01*
X114131063Y-108560226D01*
X114017795Y-108729744D01*
X113964160Y-108859229D01*
X113766939Y-108820000D01*
X113563061Y-108820000D01*
X113405000Y-108851440D01*
X113405000Y-96747623D01*
X113430000Y-96621939D01*
X113430000Y-96418061D01*
X113390226Y-96218102D01*
X113312205Y-96029744D01*
X113198937Y-95860226D01*
X113054774Y-95716063D01*
X112885256Y-95602795D01*
X112696898Y-95524774D01*
X112496939Y-95485000D01*
X112293061Y-95485000D01*
X112093102Y-95524774D01*
X111904744Y-95602795D01*
X111735226Y-95716063D01*
X111591063Y-95860226D01*
X111477795Y-96029744D01*
X111399774Y-96218102D01*
X111360000Y-96418061D01*
X111360000Y-96621939D01*
X111385001Y-96747628D01*
X111385001Y-96786440D01*
X111226939Y-96755000D01*
X111023061Y-96755000D01*
X110823102Y-96794774D01*
X110634744Y-96872795D01*
X110465226Y-96986063D01*
X110321063Y-97130226D01*
X110207795Y-97299744D01*
X110154160Y-97429229D01*
X109956939Y-97390000D01*
X109753061Y-97390000D01*
X109553102Y-97429774D01*
X109364744Y-97507795D01*
X109195226Y-97621063D01*
X109051063Y-97765226D01*
X108937795Y-97934744D01*
X108859774Y-98123102D01*
X108820000Y-98323061D01*
X108820000Y-98526939D01*
X108859774Y-98726898D01*
X108937795Y-98915256D01*
X108970000Y-98963454D01*
X108970000Y-99369196D01*
X108886898Y-99334774D01*
X108686939Y-99295000D01*
X108483061Y-99295000D01*
X108283102Y-99334774D01*
X108094744Y-99412795D01*
X107925226Y-99526063D01*
X107815000Y-99636289D01*
X107815000Y-94670741D01*
X107820490Y-94614999D01*
X107815000Y-94559257D01*
X107815000Y-94559248D01*
X107798577Y-94392501D01*
X107733676Y-94178553D01*
X107628284Y-93981377D01*
X107486449Y-93808551D01*
X107443141Y-93773009D01*
X104903143Y-91233012D01*
X104895952Y-91227110D01*
X110813064Y-85309999D01*
X116043456Y-85309999D01*
X115990000Y-85578740D01*
G36*
X132693470Y-98385049D02*
G01*
X132721183Y-98418817D01*
X132754951Y-98446530D01*
X132754953Y-98446532D01*
X132826452Y-98505210D01*
X132855941Y-98529411D01*
X133009687Y-98611589D01*
X133176510Y-98662195D01*
X133306523Y-98675000D01*
X133306533Y-98675000D01*
X133349999Y-98679281D01*
X133393466Y-98675000D01*
X136793422Y-98675000D01*
X141404461Y-103286040D01*
X141390000Y-103358740D01*
X141390000Y-103651260D01*
X141447068Y-103938158D01*
X141559010Y-104208411D01*
X141721525Y-104451632D01*
X141928368Y-104658475D01*
X142102760Y-104775000D01*
X141928368Y-104891525D01*
X141721525Y-105098368D01*
X141559010Y-105341589D01*
X141447068Y-105611842D01*
X141390000Y-105898740D01*
X141390000Y-106191260D01*
X141447068Y-106478158D01*
X141559010Y-106748411D01*
X141721525Y-106991632D01*
X141928368Y-107198475D01*
X142102760Y-107315000D01*
X141928368Y-107431525D01*
X141721525Y-107638368D01*
X141559010Y-107881589D01*
X141447068Y-108151842D01*
X141390000Y-108438740D01*
X141390000Y-108731260D01*
X141447068Y-109018158D01*
X141559010Y-109288411D01*
X141721525Y-109531632D01*
X141928368Y-109738475D01*
X142102760Y-109855000D01*
X141928368Y-109971525D01*
X141721525Y-110178368D01*
X141559010Y-110421589D01*
X141447068Y-110691842D01*
X141390000Y-110978740D01*
X141390000Y-111271260D01*
X141447068Y-111558158D01*
X141559010Y-111828411D01*
X141721525Y-112071632D01*
X141928368Y-112278475D01*
X142102760Y-112395000D01*
X141928368Y-112511525D01*
X141721525Y-112718368D01*
X141680344Y-112780000D01*
X137526579Y-112780000D01*
X131060000Y-106313422D01*
X131060000Y-96751579D01*
X132693470Y-98385049D01*
G37*
X132693470Y-98385049D02*
X132721183Y-98418817D01*
X132754951Y-98446530D01*
X132754953Y-98446532D01*
X132826452Y-98505210D01*
X132855941Y-98529411D01*
X133009687Y-98611589D01*
X133176510Y-98662195D01*
X133306523Y-98675000D01*
X133306533Y-98675000D01*
X133349999Y-98679281D01*
X133393466Y-98675000D01*
X136793422Y-98675000D01*
X141404461Y-103286040D01*
X141390000Y-103358740D01*
X141390000Y-103651260D01*
X141447068Y-103938158D01*
X141559010Y-104208411D01*
X141721525Y-104451632D01*
X141928368Y-104658475D01*
X142102760Y-104775000D01*
X141928368Y-104891525D01*
X141721525Y-105098368D01*
X141559010Y-105341589D01*
X141447068Y-105611842D01*
X141390000Y-105898740D01*
X141390000Y-106191260D01*
X141447068Y-106478158D01*
X141559010Y-106748411D01*
X141721525Y-106991632D01*
X141928368Y-107198475D01*
X142102760Y-107315000D01*
X141928368Y-107431525D01*
X141721525Y-107638368D01*
X141559010Y-107881589D01*
X141447068Y-108151842D01*
X141390000Y-108438740D01*
X141390000Y-108731260D01*
X141447068Y-109018158D01*
X141559010Y-109288411D01*
X141721525Y-109531632D01*
X141928368Y-109738475D01*
X142102760Y-109855000D01*
X141928368Y-109971525D01*
X141721525Y-110178368D01*
X141559010Y-110421589D01*
X141447068Y-110691842D01*
X141390000Y-110978740D01*
X141390000Y-111271260D01*
X141447068Y-111558158D01*
X141559010Y-111828411D01*
X141721525Y-112071632D01*
X141928368Y-112278475D01*
X142102760Y-112395000D01*
X141928368Y-112511525D01*
X141721525Y-112718368D01*
X141680344Y-112780000D01*
X137526579Y-112780000D01*
X131060000Y-106313422D01*
X131060000Y-96751579D01*
X132693470Y-98385049D01*
G36*
X129290000Y-96251579D02*
G01*
X129290001Y-102544196D01*
X129206898Y-102509774D01*
X129006939Y-102470000D01*
X128803061Y-102470000D01*
X128603102Y-102509774D01*
X128414744Y-102587795D01*
X128366546Y-102620000D01*
X126542350Y-102620000D01*
X126666898Y-102595226D01*
X126855256Y-102517205D01*
X127024774Y-102403937D01*
X127168937Y-102259774D01*
X127282205Y-102090256D01*
X127360226Y-101901898D01*
X127400000Y-101701939D01*
X127400000Y-101498061D01*
X127360226Y-101298102D01*
X127282205Y-101109744D01*
X127168937Y-100940226D01*
X127024774Y-100796063D01*
X126855256Y-100682795D01*
X126666898Y-100604774D01*
X126610044Y-100593465D01*
X121954999Y-95938421D01*
X121954999Y-88916577D01*
X129290000Y-96251579D01*
G37*
X129290000Y-96251579D02*
X129290001Y-102544196D01*
X129206898Y-102509774D01*
X129006939Y-102470000D01*
X128803061Y-102470000D01*
X128603102Y-102509774D01*
X128414744Y-102587795D01*
X128366546Y-102620000D01*
X126542350Y-102620000D01*
X126666898Y-102595226D01*
X126855256Y-102517205D01*
X127024774Y-102403937D01*
X127168937Y-102259774D01*
X127282205Y-102090256D01*
X127360226Y-101901898D01*
X127400000Y-101701939D01*
X127400000Y-101498061D01*
X127360226Y-101298102D01*
X127282205Y-101109744D01*
X127168937Y-100940226D01*
X127024774Y-100796063D01*
X126855256Y-100682795D01*
X126666898Y-100604774D01*
X126610044Y-100593465D01*
X121954999Y-95938421D01*
X121954999Y-88916577D01*
X129290000Y-96251579D01*
G36*
X96783465Y-79764956D02*
G01*
X87669952Y-88878470D01*
X87636184Y-88906183D01*
X87608471Y-88939951D01*
X87608468Y-88939954D01*
X87525590Y-89040941D01*
X87443412Y-89194687D01*
X87392805Y-89361510D01*
X87375719Y-89535000D01*
X87380001Y-89578478D01*
X87380000Y-90438421D01*
X71326652Y-106491770D01*
X71277932Y-106246842D01*
X71165990Y-105976589D01*
X71003475Y-105733368D01*
X70796632Y-105526525D01*
X70622240Y-105410000D01*
X70796632Y-105293475D01*
X71003475Y-105086632D01*
X71165990Y-104843411D01*
X71277932Y-104573158D01*
X71335000Y-104286260D01*
X71335000Y-103993740D01*
X71277932Y-103706842D01*
X71165990Y-103436589D01*
X71003475Y-103193368D01*
X70796632Y-102986525D01*
X70622240Y-102870000D01*
X70796632Y-102753475D01*
X71003475Y-102546632D01*
X71165990Y-102303411D01*
X71277932Y-102033158D01*
X71335000Y-101746260D01*
X71335000Y-101453740D01*
X71277932Y-101166842D01*
X71165990Y-100896589D01*
X71003475Y-100653368D01*
X70796632Y-100446525D01*
X70622240Y-100330000D01*
X70796632Y-100213475D01*
X71003475Y-100006632D01*
X71165990Y-99763411D01*
X71277932Y-99493158D01*
X71335000Y-99206260D01*
X71335000Y-98913740D01*
X71277932Y-98626842D01*
X71165990Y-98356589D01*
X71003475Y-98113368D01*
X70796632Y-97906525D01*
X70622240Y-97790000D01*
X70796632Y-97673475D01*
X71003475Y-97466632D01*
X71165990Y-97223411D01*
X71277932Y-96953158D01*
X71335000Y-96666260D01*
X71335000Y-96373740D01*
X71277932Y-96086842D01*
X71165990Y-95816589D01*
X71003475Y-95573368D01*
X70796632Y-95366525D01*
X70622240Y-95250000D01*
X70796632Y-95133475D01*
X71003475Y-94926632D01*
X71165990Y-94683411D01*
X71277932Y-94413158D01*
X71335000Y-94126260D01*
X71335000Y-93833740D01*
X71277932Y-93546842D01*
X71165990Y-93276589D01*
X71003475Y-93033368D01*
X70796632Y-92826525D01*
X70622240Y-92710000D01*
X70796632Y-92593475D01*
X71003475Y-92386632D01*
X71044656Y-92325000D01*
X83776531Y-92325000D01*
X83820000Y-92329281D01*
X83863469Y-92325000D01*
X83863477Y-92325000D01*
X83993490Y-92312195D01*
X84160313Y-92261589D01*
X84314059Y-92179411D01*
X84448817Y-92068817D01*
X84476534Y-92035044D01*
X96765044Y-79746535D01*
X96788039Y-79741961D01*
X96783465Y-79764956D01*
G37*
X96783465Y-79764956D02*
X87669952Y-88878470D01*
X87636184Y-88906183D01*
X87608471Y-88939951D01*
X87608468Y-88939954D01*
X87525590Y-89040941D01*
X87443412Y-89194687D01*
X87392805Y-89361510D01*
X87375719Y-89535000D01*
X87380001Y-89578478D01*
X87380000Y-90438421D01*
X71326652Y-106491770D01*
X71277932Y-106246842D01*
X71165990Y-105976589D01*
X71003475Y-105733368D01*
X70796632Y-105526525D01*
X70622240Y-105410000D01*
X70796632Y-105293475D01*
X71003475Y-105086632D01*
X71165990Y-104843411D01*
X71277932Y-104573158D01*
X71335000Y-104286260D01*
X71335000Y-103993740D01*
X71277932Y-103706842D01*
X71165990Y-103436589D01*
X71003475Y-103193368D01*
X70796632Y-102986525D01*
X70622240Y-102870000D01*
X70796632Y-102753475D01*
X71003475Y-102546632D01*
X71165990Y-102303411D01*
X71277932Y-102033158D01*
X71335000Y-101746260D01*
X71335000Y-101453740D01*
X71277932Y-101166842D01*
X71165990Y-100896589D01*
X71003475Y-100653368D01*
X70796632Y-100446525D01*
X70622240Y-100330000D01*
X70796632Y-100213475D01*
X71003475Y-100006632D01*
X71165990Y-99763411D01*
X71277932Y-99493158D01*
X71335000Y-99206260D01*
X71335000Y-98913740D01*
X71277932Y-98626842D01*
X71165990Y-98356589D01*
X71003475Y-98113368D01*
X70796632Y-97906525D01*
X70622240Y-97790000D01*
X70796632Y-97673475D01*
X71003475Y-97466632D01*
X71165990Y-97223411D01*
X71277932Y-96953158D01*
X71335000Y-96666260D01*
X71335000Y-96373740D01*
X71277932Y-96086842D01*
X71165990Y-95816589D01*
X71003475Y-95573368D01*
X70796632Y-95366525D01*
X70622240Y-95250000D01*
X70796632Y-95133475D01*
X71003475Y-94926632D01*
X71165990Y-94683411D01*
X71277932Y-94413158D01*
X71335000Y-94126260D01*
X71335000Y-93833740D01*
X71277932Y-93546842D01*
X71165990Y-93276589D01*
X71003475Y-93033368D01*
X70796632Y-92826525D01*
X70622240Y-92710000D01*
X70796632Y-92593475D01*
X71003475Y-92386632D01*
X71044656Y-92325000D01*
X83776531Y-92325000D01*
X83820000Y-92329281D01*
X83863469Y-92325000D01*
X83863477Y-92325000D01*
X83993490Y-92312195D01*
X84160313Y-92261589D01*
X84314059Y-92179411D01*
X84448817Y-92068817D01*
X84476534Y-92035044D01*
X96765044Y-79746535D01*
X96788039Y-79741961D01*
X96783465Y-79764956D01*
G36*
X83453422Y-90555000D02*
G01*
X71044656Y-90555000D01*
X71003475Y-90493368D01*
X70871620Y-90361513D01*
X70944180Y-90339502D01*
X71054494Y-90280537D01*
X71151185Y-90201185D01*
X71230537Y-90104494D01*
X71289502Y-89994180D01*
X71325812Y-89874482D01*
X71334625Y-89785000D01*
X84223422Y-89785000D01*
X83453422Y-90555000D01*
G37*
X83453422Y-90555000D02*
X71044656Y-90555000D01*
X71003475Y-90493368D01*
X70871620Y-90361513D01*
X70944180Y-90339502D01*
X71054494Y-90280537D01*
X71151185Y-90201185D01*
X71230537Y-90104494D01*
X71289502Y-89994180D01*
X71325812Y-89874482D01*
X71334625Y-89785000D01*
X84223422Y-89785000D01*
X83453422Y-90555000D01*
G36*
X158091222Y-54698096D02*
G01*
X158679164Y-54875606D01*
X159221436Y-55163937D01*
X159697364Y-55552094D01*
X160088845Y-56025314D01*
X160380951Y-56565552D01*
X160562563Y-57152244D01*
X160630000Y-57793879D01*
X160630001Y-118077711D01*
X160566904Y-118721221D01*
X160389394Y-119309164D01*
X160101063Y-119851436D01*
X159712906Y-120327364D01*
X159239686Y-120718845D01*
X158699449Y-121010950D01*
X158112756Y-121192563D01*
X157818085Y-121223534D01*
X158019670Y-121088839D01*
X158553839Y-120554670D01*
X158973533Y-119926554D01*
X159262623Y-119228628D01*
X159410000Y-118487715D01*
X159410000Y-117732285D01*
X159262623Y-116991372D01*
X158973533Y-116293446D01*
X158553839Y-115665330D01*
X158019670Y-115131161D01*
X157391554Y-114711467D01*
X156693628Y-114422377D01*
X155952715Y-114275000D01*
X155197285Y-114275000D01*
X154456372Y-114422377D01*
X153758446Y-114711467D01*
X153130330Y-115131161D01*
X152596161Y-115665330D01*
X152176467Y-116293446D01*
X151887377Y-116991372D01*
X151740000Y-117732285D01*
X151740000Y-118487715D01*
X151887377Y-119228628D01*
X152176467Y-119926554D01*
X152596161Y-120554670D01*
X153130330Y-121088839D01*
X153332181Y-121223712D01*
X153058779Y-121196904D01*
X152470836Y-121019394D01*
X151928564Y-120731063D01*
X151452636Y-120342906D01*
X151061155Y-119869686D01*
X150769050Y-119329449D01*
X150587437Y-118742756D01*
X150520000Y-118101130D01*
X150520000Y-108380000D01*
X152836928Y-108380000D01*
X152836928Y-109880000D01*
X152849188Y-110004482D01*
X152885498Y-110124180D01*
X152944463Y-110234494D01*
X153023815Y-110331185D01*
X153120506Y-110410537D01*
X153230820Y-110469502D01*
X153350518Y-110505812D01*
X153475000Y-110518072D01*
X154475000Y-110518072D01*
X154599482Y-110505812D01*
X154719180Y-110469502D01*
X154829494Y-110410537D01*
X154926185Y-110331185D01*
X155005537Y-110234494D01*
X155064502Y-110124180D01*
X155100812Y-110004482D01*
X155113072Y-109880000D01*
X155113072Y-108380000D01*
X155100812Y-108255518D01*
X155064502Y-108135820D01*
X155005537Y-108025506D01*
X154926185Y-107928815D01*
X154829494Y-107849463D01*
X154719180Y-107790498D01*
X154599482Y-107754188D01*
X154475000Y-107741928D01*
X153475000Y-107741928D01*
X153350518Y-107754188D01*
X153230820Y-107790498D01*
X153120506Y-107849463D01*
X153023815Y-107928815D01*
X152944463Y-108025506D01*
X152885498Y-108135820D01*
X152849188Y-108255518D01*
X152836928Y-108380000D01*
X150520000Y-108380000D01*
X150520000Y-107282581D01*
X150516726Y-107249339D01*
X150516726Y-107232863D01*
X150515763Y-107223698D01*
X150488134Y-106977382D01*
X150475695Y-106918865D01*
X150464078Y-106860192D01*
X150461353Y-106851389D01*
X150386408Y-106615131D01*
X150362868Y-106560209D01*
X150340048Y-106504842D01*
X150335664Y-106496736D01*
X150216256Y-106279534D01*
X150182457Y-106230171D01*
X150149357Y-106180352D01*
X150143483Y-106173252D01*
X149987000Y-105986762D01*
X149987000Y-104980000D01*
X152836928Y-104980000D01*
X152849188Y-105104482D01*
X152885498Y-105224180D01*
X152944463Y-105334494D01*
X153023815Y-105431185D01*
X153120506Y-105510537D01*
X153230820Y-105569502D01*
X153350518Y-105605812D01*
X153475000Y-105618072D01*
X153689250Y-105615000D01*
X153848000Y-105456250D01*
X153848000Y-104357000D01*
X154102000Y-104357000D01*
X154102000Y-105456250D01*
X154260750Y-105615000D01*
X154475000Y-105618072D01*
X154599482Y-105605812D01*
X154719180Y-105569502D01*
X154829494Y-105510537D01*
X154926185Y-105431185D01*
X155005537Y-105334494D01*
X155064502Y-105224180D01*
X155100812Y-105104482D01*
X155113072Y-104980000D01*
X155110000Y-104515750D01*
X154951250Y-104357000D01*
X154102000Y-104357000D01*
X153848000Y-104357000D01*
X152998750Y-104357000D01*
X152840000Y-104515750D01*
X152836928Y-104980000D01*
X149987000Y-104980000D01*
X149987000Y-103480000D01*
X152836928Y-103480000D01*
X152840000Y-103944250D01*
X152998750Y-104103000D01*
X153848000Y-104103000D01*
X153848000Y-103003750D01*
X154102000Y-103003750D01*
X154102000Y-104103000D01*
X154951250Y-104103000D01*
X155110000Y-103944250D01*
X155113072Y-103480000D01*
X155100812Y-103355518D01*
X155064502Y-103235820D01*
X155005537Y-103125506D01*
X154926185Y-103028815D01*
X154829494Y-102949463D01*
X154719180Y-102890498D01*
X154599482Y-102854188D01*
X154475000Y-102841928D01*
X154260750Y-102845000D01*
X154102000Y-103003750D01*
X153848000Y-103003750D01*
X153689250Y-102845000D01*
X153475000Y-102841928D01*
X153350518Y-102854188D01*
X153230820Y-102890498D01*
X153120506Y-102949463D01*
X153023815Y-103028815D01*
X152944463Y-103125506D01*
X152885498Y-103235820D01*
X152849188Y-103355518D01*
X152836928Y-103480000D01*
X149987000Y-103480000D01*
X149987000Y-89740000D01*
X152836928Y-89740000D01*
X152849188Y-89864482D01*
X152885498Y-89984180D01*
X152944463Y-90094494D01*
X153023815Y-90191185D01*
X153120506Y-90270537D01*
X153230820Y-90329502D01*
X153350518Y-90365812D01*
X153475000Y-90378072D01*
X153689250Y-90375000D01*
X153848000Y-90216250D01*
X153848000Y-89117000D01*
X154102000Y-89117000D01*
X154102000Y-90216250D01*
X154260750Y-90375000D01*
X154475000Y-90378072D01*
X154599482Y-90365812D01*
X154719180Y-90329502D01*
X154829494Y-90270537D01*
X154926185Y-90191185D01*
X155005537Y-90094494D01*
X155064502Y-89984180D01*
X155100812Y-89864482D01*
X155113072Y-89740000D01*
X155110000Y-89275750D01*
X154951250Y-89117000D01*
X154102000Y-89117000D01*
X153848000Y-89117000D01*
X152998750Y-89117000D01*
X152840000Y-89275750D01*
X152836928Y-89740000D01*
X149987000Y-89740000D01*
X149987000Y-88240000D01*
X152836928Y-88240000D01*
X152840000Y-88704250D01*
X152998750Y-88863000D01*
X153848000Y-88863000D01*
X153848000Y-87763750D01*
X154102000Y-87763750D01*
X154102000Y-88863000D01*
X154951250Y-88863000D01*
X155110000Y-88704250D01*
X155113072Y-88240000D01*
X155100812Y-88115518D01*
X155064502Y-87995820D01*
X155005537Y-87885506D01*
X154926185Y-87788815D01*
X154829494Y-87709463D01*
X154719180Y-87650498D01*
X154599482Y-87614188D01*
X154475000Y-87601928D01*
X154260750Y-87605000D01*
X154102000Y-87763750D01*
X153848000Y-87763750D01*
X153689250Y-87605000D01*
X153475000Y-87601928D01*
X153350518Y-87614188D01*
X153230820Y-87650498D01*
X153120506Y-87709463D01*
X153023815Y-87788815D01*
X152944463Y-87885506D01*
X152885498Y-87995820D01*
X152849188Y-88115518D01*
X152836928Y-88240000D01*
X149987000Y-88240000D01*
X149987000Y-74500000D01*
X152836928Y-74500000D01*
X152849188Y-74624482D01*
X152885498Y-74744180D01*
X152944463Y-74854494D01*
X153023815Y-74951185D01*
X153120506Y-75030537D01*
X153230820Y-75089502D01*
X153350518Y-75125812D01*
X153475000Y-75138072D01*
X153689250Y-75135000D01*
X153848000Y-74976250D01*
X153848000Y-73877000D01*
X152998750Y-73877000D01*
X152840000Y-74035750D01*
X152836928Y-74500000D01*
X149987000Y-74500000D01*
X149987000Y-73000000D01*
X152836928Y-73000000D01*
X152840000Y-73464250D01*
X152998750Y-73623000D01*
X153848000Y-73623000D01*
X153848000Y-72523750D01*
X153689250Y-72365000D01*
X153475000Y-72361928D01*
X153350518Y-72374188D01*
X153230820Y-72410498D01*
X153120506Y-72469463D01*
X153023815Y-72548815D01*
X152944463Y-72645506D01*
X152885498Y-72755820D01*
X152849188Y-72875518D01*
X152836928Y-73000000D01*
X149987000Y-73000000D01*
X149987000Y-71178668D01*
X149996745Y-71169125D01*
X150002618Y-71162024D01*
X150159273Y-70969947D01*
X150192374Y-70920125D01*
X150226173Y-70870763D01*
X150230556Y-70862657D01*
X150346919Y-70643809D01*
X150369707Y-70588521D01*
X150393279Y-70533525D01*
X150396003Y-70524722D01*
X150467643Y-70287441D01*
X150479264Y-70228754D01*
X150491700Y-70170248D01*
X150492663Y-70161083D01*
X150516850Y-69914405D01*
X150516850Y-69914402D01*
X150520000Y-69882419D01*
X150520000Y-66585000D01*
X151586928Y-66585000D01*
X151586928Y-68035000D01*
X151603992Y-68208254D01*
X151654528Y-68374850D01*
X151736595Y-68528386D01*
X151847038Y-68662962D01*
X151981614Y-68773405D01*
X152135150Y-68855472D01*
X152301746Y-68906008D01*
X152475000Y-68923072D01*
X153259717Y-68923072D01*
X155089999Y-70753355D01*
X155089999Y-72839874D01*
X155064502Y-72755820D01*
X155005537Y-72645506D01*
X154926185Y-72548815D01*
X154829494Y-72469463D01*
X154719180Y-72410498D01*
X154599482Y-72374188D01*
X154475000Y-72361928D01*
X154260750Y-72365000D01*
X154102000Y-72523750D01*
X154102000Y-73623000D01*
X154122000Y-73623000D01*
X154122000Y-73877000D01*
X154102000Y-73877000D01*
X154102000Y-74976250D01*
X154260750Y-75135000D01*
X154475000Y-75138072D01*
X154599482Y-75125812D01*
X154719180Y-75089502D01*
X154829494Y-75030537D01*
X154926185Y-74951185D01*
X155005537Y-74854494D01*
X155064502Y-74744180D01*
X155090000Y-74660125D01*
X155090000Y-76025381D01*
X155085113Y-76074999D01*
X155104614Y-76272993D01*
X155162367Y-76463378D01*
X155256153Y-76638839D01*
X155382367Y-76792632D01*
X155420900Y-76824255D01*
X156143657Y-77547013D01*
X156085498Y-77655820D01*
X156049188Y-77775518D01*
X156036928Y-77900000D01*
X156036928Y-79400000D01*
X156049188Y-79524482D01*
X156085498Y-79644180D01*
X156144463Y-79754494D01*
X156165001Y-79779519D01*
X156165001Y-80100383D01*
X156160114Y-80150000D01*
X156179615Y-80347994D01*
X156237368Y-80538379D01*
X156331154Y-80713840D01*
X156457368Y-80867633D01*
X156495901Y-80899256D01*
X157240001Y-81643357D01*
X157240001Y-81986646D01*
X155006342Y-79752987D01*
X155064502Y-79644180D01*
X155100812Y-79524482D01*
X155113072Y-79400000D01*
X155113072Y-77900000D01*
X155100812Y-77775518D01*
X155064502Y-77655820D01*
X155005537Y-77545506D01*
X154926185Y-77448815D01*
X154829494Y-77369463D01*
X154719180Y-77310498D01*
X154599482Y-77274188D01*
X154475000Y-77261928D01*
X153475000Y-77261928D01*
X153350518Y-77274188D01*
X153230820Y-77310498D01*
X153120506Y-77369463D01*
X153023815Y-77448815D01*
X152944463Y-77545506D01*
X152885498Y-77655820D01*
X152849188Y-77775518D01*
X152836928Y-77900000D01*
X152836928Y-79400000D01*
X152849188Y-79524482D01*
X152885498Y-79644180D01*
X152944463Y-79754494D01*
X152965001Y-79779519D01*
X152965001Y-80100383D01*
X152960114Y-80150000D01*
X152979615Y-80347994D01*
X153037368Y-80538379D01*
X153131154Y-80713840D01*
X153257368Y-80867633D01*
X153295901Y-80899256D01*
X156165000Y-83768355D01*
X156165001Y-87860481D01*
X156144463Y-87885506D01*
X156085498Y-87995820D01*
X156049188Y-88115518D01*
X156036928Y-88240000D01*
X156036928Y-89740000D01*
X156049188Y-89864482D01*
X156085498Y-89984180D01*
X156144463Y-90094494D01*
X156223815Y-90191185D01*
X156320506Y-90270537D01*
X156430820Y-90329502D01*
X156550518Y-90365812D01*
X156675000Y-90378072D01*
X157240002Y-90378072D01*
X157240002Y-90896642D01*
X156495906Y-91640739D01*
X156457367Y-91672367D01*
X156331153Y-91826160D01*
X156241389Y-91994099D01*
X156237368Y-92001621D01*
X156179615Y-92192006D01*
X156160114Y-92390000D01*
X156165000Y-92439608D01*
X156165000Y-92760481D01*
X156144463Y-92785506D01*
X156085498Y-92895820D01*
X156049188Y-93015518D01*
X156036928Y-93140000D01*
X156036928Y-94640000D01*
X156049188Y-94764482D01*
X156085498Y-94884180D01*
X156144463Y-94994494D01*
X156165001Y-95019519D01*
X156165001Y-95340383D01*
X156160114Y-95390000D01*
X156179615Y-95587994D01*
X156237368Y-95778379D01*
X156325562Y-95943379D01*
X156331154Y-95953840D01*
X156457368Y-96107633D01*
X156495901Y-96139256D01*
X157240001Y-96883357D01*
X157240001Y-97391646D01*
X154985000Y-95136645D01*
X154985000Y-95019518D01*
X155005537Y-94994494D01*
X155064502Y-94884180D01*
X155100812Y-94764482D01*
X155113072Y-94640000D01*
X155113072Y-93140000D01*
X155100812Y-93015518D01*
X155064502Y-92895820D01*
X155005537Y-92785506D01*
X154926185Y-92688815D01*
X154829494Y-92609463D01*
X154719180Y-92550498D01*
X154599482Y-92514188D01*
X154475000Y-92501928D01*
X153475000Y-92501928D01*
X153350518Y-92514188D01*
X153230820Y-92550498D01*
X153120506Y-92609463D01*
X153023815Y-92688815D01*
X152944463Y-92785506D01*
X152885498Y-92895820D01*
X152849188Y-93015518D01*
X152836928Y-93140000D01*
X152836928Y-94640000D01*
X152849188Y-94764482D01*
X152885498Y-94884180D01*
X152944463Y-94994494D01*
X152965001Y-95019519D01*
X152965001Y-95505383D01*
X152960114Y-95555000D01*
X152979615Y-95752994D01*
X153037368Y-95943379D01*
X153108588Y-96076622D01*
X153131154Y-96118840D01*
X153257368Y-96272633D01*
X153295901Y-96304256D01*
X156165000Y-99173355D01*
X156165001Y-103100481D01*
X156144463Y-103125506D01*
X156085498Y-103235820D01*
X156049188Y-103355518D01*
X156036928Y-103480000D01*
X156036928Y-104980000D01*
X156049188Y-105104482D01*
X156085498Y-105224180D01*
X156144463Y-105334494D01*
X156223815Y-105431185D01*
X156320506Y-105510537D01*
X156430820Y-105569502D01*
X156550518Y-105605812D01*
X156675000Y-105618072D01*
X157240002Y-105618072D01*
X157240002Y-106136642D01*
X156495906Y-106880739D01*
X156457367Y-106912367D01*
X156331153Y-107066160D01*
X156261172Y-107197087D01*
X156237368Y-107241621D01*
X156179615Y-107432006D01*
X156160114Y-107630000D01*
X156165000Y-107679608D01*
X156165000Y-108000481D01*
X156144463Y-108025506D01*
X156085498Y-108135820D01*
X156049188Y-108255518D01*
X156036928Y-108380000D01*
X156036928Y-109880000D01*
X156049188Y-110004482D01*
X156085498Y-110124180D01*
X156144463Y-110234494D01*
X156223815Y-110331185D01*
X156320506Y-110410537D01*
X156430820Y-110469502D01*
X156550518Y-110505812D01*
X156675000Y-110518072D01*
X157675000Y-110518072D01*
X157799482Y-110505812D01*
X157919180Y-110469502D01*
X158029494Y-110410537D01*
X158126185Y-110331185D01*
X158205537Y-110234494D01*
X158264502Y-110124180D01*
X158300812Y-110004482D01*
X158313072Y-109880000D01*
X158313072Y-108380000D01*
X158300812Y-108255518D01*
X158264502Y-108135820D01*
X158206342Y-108027013D01*
X158929100Y-107304256D01*
X158967634Y-107272632D01*
X159093848Y-107118839D01*
X159187633Y-106943379D01*
X159190333Y-106934478D01*
X159245386Y-106752994D01*
X159264887Y-106554999D01*
X159260001Y-106505391D01*
X159260001Y-96514609D01*
X159264887Y-96465001D01*
X159245386Y-96267006D01*
X159187633Y-96076621D01*
X159093847Y-95901160D01*
X158999257Y-95785901D01*
X158967634Y-95747368D01*
X158929100Y-95715744D01*
X158206342Y-94992987D01*
X158264502Y-94884180D01*
X158300812Y-94764482D01*
X158313072Y-94640000D01*
X158313072Y-93140000D01*
X158300812Y-93015518D01*
X158264502Y-92895820D01*
X158206342Y-92787013D01*
X158929100Y-92064256D01*
X158967634Y-92032632D01*
X159093848Y-91878839D01*
X159187633Y-91703379D01*
X159245386Y-91512993D01*
X159260001Y-91364607D01*
X159264887Y-91314999D01*
X159260001Y-91265391D01*
X159260001Y-81274609D01*
X159264887Y-81225001D01*
X159245386Y-81027006D01*
X159187633Y-80836621D01*
X159093847Y-80661160D01*
X158999257Y-80545901D01*
X158967634Y-80507368D01*
X158929100Y-80475744D01*
X158206342Y-79752987D01*
X158264502Y-79644180D01*
X158300812Y-79524482D01*
X158313072Y-79400000D01*
X158313072Y-77900000D01*
X158300812Y-77775518D01*
X158264502Y-77655820D01*
X158205537Y-77545506D01*
X158185000Y-77520482D01*
X158185000Y-77199608D01*
X158189886Y-77150000D01*
X158170385Y-76952005D01*
X158112632Y-76761620D01*
X158018846Y-76586159D01*
X157924256Y-76470900D01*
X157892633Y-76432367D01*
X157854099Y-76400743D01*
X157109999Y-75656644D01*
X157109999Y-75138072D01*
X157675000Y-75138072D01*
X157799482Y-75125812D01*
X157919180Y-75089502D01*
X158029494Y-75030537D01*
X158126185Y-74951185D01*
X158205537Y-74854494D01*
X158264502Y-74744180D01*
X158300812Y-74624482D01*
X158313072Y-74500000D01*
X158313072Y-73000000D01*
X158300812Y-72875518D01*
X158264502Y-72755820D01*
X158205537Y-72645506D01*
X158185000Y-72620482D01*
X158185000Y-68959608D01*
X158188901Y-68920000D01*
X158202002Y-68920000D01*
X158202002Y-68755156D01*
X158431890Y-68876476D01*
X158694858Y-68784352D01*
X158946193Y-68637496D01*
X159164049Y-68444429D01*
X159340053Y-68212570D01*
X159467442Y-67950830D01*
X159541320Y-67669267D01*
X159401165Y-67437000D01*
X158202000Y-67437000D01*
X158202000Y-67457000D01*
X157948000Y-67457000D01*
X157948000Y-67437000D01*
X157928000Y-67437000D01*
X157928000Y-67183000D01*
X157948000Y-67183000D01*
X157948000Y-65864845D01*
X158202000Y-65864845D01*
X158202000Y-67183000D01*
X159401165Y-67183000D01*
X159541320Y-66950733D01*
X159467442Y-66669170D01*
X159340053Y-66407430D01*
X159164049Y-66175571D01*
X158946193Y-65982504D01*
X158694858Y-65835648D01*
X158431890Y-65743524D01*
X158202000Y-65864845D01*
X157948000Y-65864845D01*
X157718110Y-65743524D01*
X157455142Y-65835648D01*
X157203807Y-65982504D01*
X156985951Y-66175571D01*
X156829462Y-66381722D01*
X156815706Y-66355986D01*
X156630134Y-66129866D01*
X156404013Y-65944294D01*
X156146033Y-65806401D01*
X155866110Y-65721487D01*
X155575000Y-65692815D01*
X155283889Y-65721487D01*
X155003966Y-65806401D01*
X154745986Y-65944294D01*
X154519866Y-66129866D01*
X154467777Y-66193337D01*
X154413405Y-66091614D01*
X154302962Y-65957038D01*
X154168386Y-65846595D01*
X154014850Y-65764528D01*
X153848254Y-65713992D01*
X153675000Y-65696928D01*
X152475000Y-65696928D01*
X152301746Y-65713992D01*
X152135150Y-65764528D01*
X151981614Y-65846595D01*
X151847038Y-65957038D01*
X151736595Y-66091614D01*
X151654528Y-66245150D01*
X151603992Y-66411746D01*
X151586928Y-66585000D01*
X150520000Y-66585000D01*
X150520000Y-57817279D01*
X150583096Y-57173778D01*
X150760606Y-56585836D01*
X151048937Y-56043564D01*
X151437094Y-55567636D01*
X151910314Y-55176155D01*
X152450552Y-54884049D01*
X153037244Y-54702437D01*
X153331914Y-54671467D01*
X153130330Y-54806161D01*
X152596161Y-55340330D01*
X152176467Y-55968446D01*
X151887377Y-56666372D01*
X151740000Y-57407285D01*
X151740000Y-58162715D01*
X151887377Y-58903628D01*
X152176467Y-59601554D01*
X152596161Y-60229670D01*
X153130330Y-60763839D01*
X153758446Y-61183533D01*
X154456372Y-61472623D01*
X155197285Y-61620000D01*
X155952715Y-61620000D01*
X156693628Y-61472623D01*
X157391554Y-61183533D01*
X158019670Y-60763839D01*
X158553839Y-60229670D01*
X158973533Y-59601554D01*
X159262623Y-58903628D01*
X159410000Y-58162715D01*
X159410000Y-57407285D01*
X159262623Y-56666372D01*
X158973533Y-55968446D01*
X158553839Y-55340330D01*
X158019670Y-54806161D01*
X157817819Y-54671288D01*
X158091222Y-54698096D01*
G37*
X158091222Y-54698096D02*
X158679164Y-54875606D01*
X159221436Y-55163937D01*
X159697364Y-55552094D01*
X160088845Y-56025314D01*
X160380951Y-56565552D01*
X160562563Y-57152244D01*
X160630000Y-57793879D01*
X160630001Y-118077711D01*
X160566904Y-118721221D01*
X160389394Y-119309164D01*
X160101063Y-119851436D01*
X159712906Y-120327364D01*
X159239686Y-120718845D01*
X158699449Y-121010950D01*
X158112756Y-121192563D01*
X157818085Y-121223534D01*
X158019670Y-121088839D01*
X158553839Y-120554670D01*
X158973533Y-119926554D01*
X159262623Y-119228628D01*
X159410000Y-118487715D01*
X159410000Y-117732285D01*
X159262623Y-116991372D01*
X158973533Y-116293446D01*
X158553839Y-115665330D01*
X158019670Y-115131161D01*
X157391554Y-114711467D01*
X156693628Y-114422377D01*
X155952715Y-114275000D01*
X155197285Y-114275000D01*
X154456372Y-114422377D01*
X153758446Y-114711467D01*
X153130330Y-115131161D01*
X152596161Y-115665330D01*
X152176467Y-116293446D01*
X151887377Y-116991372D01*
X151740000Y-117732285D01*
X151740000Y-118487715D01*
X151887377Y-119228628D01*
X152176467Y-119926554D01*
X152596161Y-120554670D01*
X153130330Y-121088839D01*
X153332181Y-121223712D01*
X153058779Y-121196904D01*
X152470836Y-121019394D01*
X151928564Y-120731063D01*
X151452636Y-120342906D01*
X151061155Y-119869686D01*
X150769050Y-119329449D01*
X150587437Y-118742756D01*
X150520000Y-118101130D01*
X150520000Y-108380000D01*
X152836928Y-108380000D01*
X152836928Y-109880000D01*
X152849188Y-110004482D01*
X152885498Y-110124180D01*
X152944463Y-110234494D01*
X153023815Y-110331185D01*
X153120506Y-110410537D01*
X153230820Y-110469502D01*
X153350518Y-110505812D01*
X153475000Y-110518072D01*
X154475000Y-110518072D01*
X154599482Y-110505812D01*
X154719180Y-110469502D01*
X154829494Y-110410537D01*
X154926185Y-110331185D01*
X155005537Y-110234494D01*
X155064502Y-110124180D01*
X155100812Y-110004482D01*
X155113072Y-109880000D01*
X155113072Y-108380000D01*
X155100812Y-108255518D01*
X155064502Y-108135820D01*
X155005537Y-108025506D01*
X154926185Y-107928815D01*
X154829494Y-107849463D01*
X154719180Y-107790498D01*
X154599482Y-107754188D01*
X154475000Y-107741928D01*
X153475000Y-107741928D01*
X153350518Y-107754188D01*
X153230820Y-107790498D01*
X153120506Y-107849463D01*
X153023815Y-107928815D01*
X152944463Y-108025506D01*
X152885498Y-108135820D01*
X152849188Y-108255518D01*
X152836928Y-108380000D01*
X150520000Y-108380000D01*
X150520000Y-107282581D01*
X150516726Y-107249339D01*
X150516726Y-107232863D01*
X150515763Y-107223698D01*
X150488134Y-106977382D01*
X150475695Y-106918865D01*
X150464078Y-106860192D01*
X150461353Y-106851389D01*
X150386408Y-106615131D01*
X150362868Y-106560209D01*
X150340048Y-106504842D01*
X150335664Y-106496736D01*
X150216256Y-106279534D01*
X150182457Y-106230171D01*
X150149357Y-106180352D01*
X150143483Y-106173252D01*
X149987000Y-105986762D01*
X149987000Y-104980000D01*
X152836928Y-104980000D01*
X152849188Y-105104482D01*
X152885498Y-105224180D01*
X152944463Y-105334494D01*
X153023815Y-105431185D01*
X153120506Y-105510537D01*
X153230820Y-105569502D01*
X153350518Y-105605812D01*
X153475000Y-105618072D01*
X153689250Y-105615000D01*
X153848000Y-105456250D01*
X153848000Y-104357000D01*
X154102000Y-104357000D01*
X154102000Y-105456250D01*
X154260750Y-105615000D01*
X154475000Y-105618072D01*
X154599482Y-105605812D01*
X154719180Y-105569502D01*
X154829494Y-105510537D01*
X154926185Y-105431185D01*
X155005537Y-105334494D01*
X155064502Y-105224180D01*
X155100812Y-105104482D01*
X155113072Y-104980000D01*
X155110000Y-104515750D01*
X154951250Y-104357000D01*
X154102000Y-104357000D01*
X153848000Y-104357000D01*
X152998750Y-104357000D01*
X152840000Y-104515750D01*
X152836928Y-104980000D01*
X149987000Y-104980000D01*
X149987000Y-103480000D01*
X152836928Y-103480000D01*
X152840000Y-103944250D01*
X152998750Y-104103000D01*
X153848000Y-104103000D01*
X153848000Y-103003750D01*
X154102000Y-103003750D01*
X154102000Y-104103000D01*
X154951250Y-104103000D01*
X155110000Y-103944250D01*
X155113072Y-103480000D01*
X155100812Y-103355518D01*
X155064502Y-103235820D01*
X155005537Y-103125506D01*
X154926185Y-103028815D01*
X154829494Y-102949463D01*
X154719180Y-102890498D01*
X154599482Y-102854188D01*
X154475000Y-102841928D01*
X154260750Y-102845000D01*
X154102000Y-103003750D01*
X153848000Y-103003750D01*
X153689250Y-102845000D01*
X153475000Y-102841928D01*
X153350518Y-102854188D01*
X153230820Y-102890498D01*
X153120506Y-102949463D01*
X153023815Y-103028815D01*
X152944463Y-103125506D01*
X152885498Y-103235820D01*
X152849188Y-103355518D01*
X152836928Y-103480000D01*
X149987000Y-103480000D01*
X149987000Y-89740000D01*
X152836928Y-89740000D01*
X152849188Y-89864482D01*
X152885498Y-89984180D01*
X152944463Y-90094494D01*
X153023815Y-90191185D01*
X153120506Y-90270537D01*
X153230820Y-90329502D01*
X153350518Y-90365812D01*
X153475000Y-90378072D01*
X153689250Y-90375000D01*
X153848000Y-90216250D01*
X153848000Y-89117000D01*
X154102000Y-89117000D01*
X154102000Y-90216250D01*
X154260750Y-90375000D01*
X154475000Y-90378072D01*
X154599482Y-90365812D01*
X154719180Y-90329502D01*
X154829494Y-90270537D01*
X154926185Y-90191185D01*
X155005537Y-90094494D01*
X155064502Y-89984180D01*
X155100812Y-89864482D01*
X155113072Y-89740000D01*
X155110000Y-89275750D01*
X154951250Y-89117000D01*
X154102000Y-89117000D01*
X153848000Y-89117000D01*
X152998750Y-89117000D01*
X152840000Y-89275750D01*
X152836928Y-89740000D01*
X149987000Y-89740000D01*
X149987000Y-88240000D01*
X152836928Y-88240000D01*
X152840000Y-88704250D01*
X152998750Y-88863000D01*
X153848000Y-88863000D01*
X153848000Y-87763750D01*
X154102000Y-87763750D01*
X154102000Y-88863000D01*
X154951250Y-88863000D01*
X155110000Y-88704250D01*
X155113072Y-88240000D01*
X155100812Y-88115518D01*
X155064502Y-87995820D01*
X155005537Y-87885506D01*
X154926185Y-87788815D01*
X154829494Y-87709463D01*
X154719180Y-87650498D01*
X154599482Y-87614188D01*
X154475000Y-87601928D01*
X154260750Y-87605000D01*
X154102000Y-87763750D01*
X153848000Y-87763750D01*
X153689250Y-87605000D01*
X153475000Y-87601928D01*
X153350518Y-87614188D01*
X153230820Y-87650498D01*
X153120506Y-87709463D01*
X153023815Y-87788815D01*
X152944463Y-87885506D01*
X152885498Y-87995820D01*
X152849188Y-88115518D01*
X152836928Y-88240000D01*
X149987000Y-88240000D01*
X149987000Y-74500000D01*
X152836928Y-74500000D01*
X152849188Y-74624482D01*
X152885498Y-74744180D01*
X152944463Y-74854494D01*
X153023815Y-74951185D01*
X153120506Y-75030537D01*
X153230820Y-75089502D01*
X153350518Y-75125812D01*
X153475000Y-75138072D01*
X153689250Y-75135000D01*
X153848000Y-74976250D01*
X153848000Y-73877000D01*
X152998750Y-73877000D01*
X152840000Y-74035750D01*
X152836928Y-74500000D01*
X149987000Y-74500000D01*
X149987000Y-73000000D01*
X152836928Y-73000000D01*
X152840000Y-73464250D01*
X152998750Y-73623000D01*
X153848000Y-73623000D01*
X153848000Y-72523750D01*
X153689250Y-72365000D01*
X153475000Y-72361928D01*
X153350518Y-72374188D01*
X153230820Y-72410498D01*
X153120506Y-72469463D01*
X153023815Y-72548815D01*
X152944463Y-72645506D01*
X152885498Y-72755820D01*
X152849188Y-72875518D01*
X152836928Y-73000000D01*
X149987000Y-73000000D01*
X149987000Y-71178668D01*
X149996745Y-71169125D01*
X150002618Y-71162024D01*
X150159273Y-70969947D01*
X150192374Y-70920125D01*
X150226173Y-70870763D01*
X150230556Y-70862657D01*
X150346919Y-70643809D01*
X150369707Y-70588521D01*
X150393279Y-70533525D01*
X150396003Y-70524722D01*
X150467643Y-70287441D01*
X150479264Y-70228754D01*
X150491700Y-70170248D01*
X150492663Y-70161083D01*
X150516850Y-69914405D01*
X150516850Y-69914402D01*
X150520000Y-69882419D01*
X150520000Y-66585000D01*
X151586928Y-66585000D01*
X151586928Y-68035000D01*
X151603992Y-68208254D01*
X151654528Y-68374850D01*
X151736595Y-68528386D01*
X151847038Y-68662962D01*
X151981614Y-68773405D01*
X152135150Y-68855472D01*
X152301746Y-68906008D01*
X152475000Y-68923072D01*
X153259717Y-68923072D01*
X155089999Y-70753355D01*
X155089999Y-72839874D01*
X155064502Y-72755820D01*
X155005537Y-72645506D01*
X154926185Y-72548815D01*
X154829494Y-72469463D01*
X154719180Y-72410498D01*
X154599482Y-72374188D01*
X154475000Y-72361928D01*
X154260750Y-72365000D01*
X154102000Y-72523750D01*
X154102000Y-73623000D01*
X154122000Y-73623000D01*
X154122000Y-73877000D01*
X154102000Y-73877000D01*
X154102000Y-74976250D01*
X154260750Y-75135000D01*
X154475000Y-75138072D01*
X154599482Y-75125812D01*
X154719180Y-75089502D01*
X154829494Y-75030537D01*
X154926185Y-74951185D01*
X155005537Y-74854494D01*
X155064502Y-74744180D01*
X155090000Y-74660125D01*
X155090000Y-76025381D01*
X155085113Y-76074999D01*
X155104614Y-76272993D01*
X155162367Y-76463378D01*
X155256153Y-76638839D01*
X155382367Y-76792632D01*
X155420900Y-76824255D01*
X156143657Y-77547013D01*
X156085498Y-77655820D01*
X156049188Y-77775518D01*
X156036928Y-77900000D01*
X156036928Y-79400000D01*
X156049188Y-79524482D01*
X156085498Y-79644180D01*
X156144463Y-79754494D01*
X156165001Y-79779519D01*
X156165001Y-80100383D01*
X156160114Y-80150000D01*
X156179615Y-80347994D01*
X156237368Y-80538379D01*
X156331154Y-80713840D01*
X156457368Y-80867633D01*
X156495901Y-80899256D01*
X157240001Y-81643357D01*
X157240001Y-81986646D01*
X155006342Y-79752987D01*
X155064502Y-79644180D01*
X155100812Y-79524482D01*
X155113072Y-79400000D01*
X155113072Y-77900000D01*
X155100812Y-77775518D01*
X155064502Y-77655820D01*
X155005537Y-77545506D01*
X154926185Y-77448815D01*
X154829494Y-77369463D01*
X154719180Y-77310498D01*
X154599482Y-77274188D01*
X154475000Y-77261928D01*
X153475000Y-77261928D01*
X153350518Y-77274188D01*
X153230820Y-77310498D01*
X153120506Y-77369463D01*
X153023815Y-77448815D01*
X152944463Y-77545506D01*
X152885498Y-77655820D01*
X152849188Y-77775518D01*
X152836928Y-77900000D01*
X152836928Y-79400000D01*
X152849188Y-79524482D01*
X152885498Y-79644180D01*
X152944463Y-79754494D01*
X152965001Y-79779519D01*
X152965001Y-80100383D01*
X152960114Y-80150000D01*
X152979615Y-80347994D01*
X153037368Y-80538379D01*
X153131154Y-80713840D01*
X153257368Y-80867633D01*
X153295901Y-80899256D01*
X156165000Y-83768355D01*
X156165001Y-87860481D01*
X156144463Y-87885506D01*
X156085498Y-87995820D01*
X156049188Y-88115518D01*
X156036928Y-88240000D01*
X156036928Y-89740000D01*
X156049188Y-89864482D01*
X156085498Y-89984180D01*
X156144463Y-90094494D01*
X156223815Y-90191185D01*
X156320506Y-90270537D01*
X156430820Y-90329502D01*
X156550518Y-90365812D01*
X156675000Y-90378072D01*
X157240002Y-90378072D01*
X157240002Y-90896642D01*
X156495906Y-91640739D01*
X156457367Y-91672367D01*
X156331153Y-91826160D01*
X156241389Y-91994099D01*
X156237368Y-92001621D01*
X156179615Y-92192006D01*
X156160114Y-92390000D01*
X156165000Y-92439608D01*
X156165000Y-92760481D01*
X156144463Y-92785506D01*
X156085498Y-92895820D01*
X156049188Y-93015518D01*
X156036928Y-93140000D01*
X156036928Y-94640000D01*
X156049188Y-94764482D01*
X156085498Y-94884180D01*
X156144463Y-94994494D01*
X156165001Y-95019519D01*
X156165001Y-95340383D01*
X156160114Y-95390000D01*
X156179615Y-95587994D01*
X156237368Y-95778379D01*
X156325562Y-95943379D01*
X156331154Y-95953840D01*
X156457368Y-96107633D01*
X156495901Y-96139256D01*
X157240001Y-96883357D01*
X157240001Y-97391646D01*
X154985000Y-95136645D01*
X154985000Y-95019518D01*
X155005537Y-94994494D01*
X155064502Y-94884180D01*
X155100812Y-94764482D01*
X155113072Y-94640000D01*
X155113072Y-93140000D01*
X155100812Y-93015518D01*
X155064502Y-92895820D01*
X155005537Y-92785506D01*
X154926185Y-92688815D01*
X154829494Y-92609463D01*
X154719180Y-92550498D01*
X154599482Y-92514188D01*
X154475000Y-92501928D01*
X153475000Y-92501928D01*
X153350518Y-92514188D01*
X153230820Y-92550498D01*
X153120506Y-92609463D01*
X153023815Y-92688815D01*
X152944463Y-92785506D01*
X152885498Y-92895820D01*
X152849188Y-93015518D01*
X152836928Y-93140000D01*
X152836928Y-94640000D01*
X152849188Y-94764482D01*
X152885498Y-94884180D01*
X152944463Y-94994494D01*
X152965001Y-95019519D01*
X152965001Y-95505383D01*
X152960114Y-95555000D01*
X152979615Y-95752994D01*
X153037368Y-95943379D01*
X153108588Y-96076622D01*
X153131154Y-96118840D01*
X153257368Y-96272633D01*
X153295901Y-96304256D01*
X156165000Y-99173355D01*
X156165001Y-103100481D01*
X156144463Y-103125506D01*
X156085498Y-103235820D01*
X156049188Y-103355518D01*
X156036928Y-103480000D01*
X156036928Y-104980000D01*
X156049188Y-105104482D01*
X156085498Y-105224180D01*
X156144463Y-105334494D01*
X156223815Y-105431185D01*
X156320506Y-105510537D01*
X156430820Y-105569502D01*
X156550518Y-105605812D01*
X156675000Y-105618072D01*
X157240002Y-105618072D01*
X157240002Y-106136642D01*
X156495906Y-106880739D01*
X156457367Y-106912367D01*
X156331153Y-107066160D01*
X156261172Y-107197087D01*
X156237368Y-107241621D01*
X156179615Y-107432006D01*
X156160114Y-107630000D01*
X156165000Y-107679608D01*
X156165000Y-108000481D01*
X156144463Y-108025506D01*
X156085498Y-108135820D01*
X156049188Y-108255518D01*
X156036928Y-108380000D01*
X156036928Y-109880000D01*
X156049188Y-110004482D01*
X156085498Y-110124180D01*
X156144463Y-110234494D01*
X156223815Y-110331185D01*
X156320506Y-110410537D01*
X156430820Y-110469502D01*
X156550518Y-110505812D01*
X156675000Y-110518072D01*
X157675000Y-110518072D01*
X157799482Y-110505812D01*
X157919180Y-110469502D01*
X158029494Y-110410537D01*
X158126185Y-110331185D01*
X158205537Y-110234494D01*
X158264502Y-110124180D01*
X158300812Y-110004482D01*
X158313072Y-109880000D01*
X158313072Y-108380000D01*
X158300812Y-108255518D01*
X158264502Y-108135820D01*
X158206342Y-108027013D01*
X158929100Y-107304256D01*
X158967634Y-107272632D01*
X159093848Y-107118839D01*
X159187633Y-106943379D01*
X159190333Y-106934478D01*
X159245386Y-106752994D01*
X159264887Y-106554999D01*
X159260001Y-106505391D01*
X159260001Y-96514609D01*
X159264887Y-96465001D01*
X159245386Y-96267006D01*
X159187633Y-96076621D01*
X159093847Y-95901160D01*
X158999257Y-95785901D01*
X158967634Y-95747368D01*
X158929100Y-95715744D01*
X158206342Y-94992987D01*
X158264502Y-94884180D01*
X158300812Y-94764482D01*
X158313072Y-94640000D01*
X158313072Y-93140000D01*
X158300812Y-93015518D01*
X158264502Y-92895820D01*
X158206342Y-92787013D01*
X158929100Y-92064256D01*
X158967634Y-92032632D01*
X159093848Y-91878839D01*
X159187633Y-91703379D01*
X159245386Y-91512993D01*
X159260001Y-91364607D01*
X159264887Y-91314999D01*
X159260001Y-91265391D01*
X159260001Y-81274609D01*
X159264887Y-81225001D01*
X159245386Y-81027006D01*
X159187633Y-80836621D01*
X159093847Y-80661160D01*
X158999257Y-80545901D01*
X158967634Y-80507368D01*
X158929100Y-80475744D01*
X158206342Y-79752987D01*
X158264502Y-79644180D01*
X158300812Y-79524482D01*
X158313072Y-79400000D01*
X158313072Y-77900000D01*
X158300812Y-77775518D01*
X158264502Y-77655820D01*
X158205537Y-77545506D01*
X158185000Y-77520482D01*
X158185000Y-77199608D01*
X158189886Y-77150000D01*
X158170385Y-76952005D01*
X158112632Y-76761620D01*
X158018846Y-76586159D01*
X157924256Y-76470900D01*
X157892633Y-76432367D01*
X157854099Y-76400743D01*
X157109999Y-75656644D01*
X157109999Y-75138072D01*
X157675000Y-75138072D01*
X157799482Y-75125812D01*
X157919180Y-75089502D01*
X158029494Y-75030537D01*
X158126185Y-74951185D01*
X158205537Y-74854494D01*
X158264502Y-74744180D01*
X158300812Y-74624482D01*
X158313072Y-74500000D01*
X158313072Y-73000000D01*
X158300812Y-72875518D01*
X158264502Y-72755820D01*
X158205537Y-72645506D01*
X158185000Y-72620482D01*
X158185000Y-68959608D01*
X158188901Y-68920000D01*
X158202002Y-68920000D01*
X158202002Y-68755156D01*
X158431890Y-68876476D01*
X158694858Y-68784352D01*
X158946193Y-68637496D01*
X159164049Y-68444429D01*
X159340053Y-68212570D01*
X159467442Y-67950830D01*
X159541320Y-67669267D01*
X159401165Y-67437000D01*
X158202000Y-67437000D01*
X158202000Y-67457000D01*
X157948000Y-67457000D01*
X157948000Y-67437000D01*
X157928000Y-67437000D01*
X157928000Y-67183000D01*
X157948000Y-67183000D01*
X157948000Y-65864845D01*
X158202000Y-65864845D01*
X158202000Y-67183000D01*
X159401165Y-67183000D01*
X159541320Y-66950733D01*
X159467442Y-66669170D01*
X159340053Y-66407430D01*
X159164049Y-66175571D01*
X158946193Y-65982504D01*
X158694858Y-65835648D01*
X158431890Y-65743524D01*
X158202000Y-65864845D01*
X157948000Y-65864845D01*
X157718110Y-65743524D01*
X157455142Y-65835648D01*
X157203807Y-65982504D01*
X156985951Y-66175571D01*
X156829462Y-66381722D01*
X156815706Y-66355986D01*
X156630134Y-66129866D01*
X156404013Y-65944294D01*
X156146033Y-65806401D01*
X155866110Y-65721487D01*
X155575000Y-65692815D01*
X155283889Y-65721487D01*
X155003966Y-65806401D01*
X154745986Y-65944294D01*
X154519866Y-66129866D01*
X154467777Y-66193337D01*
X154413405Y-66091614D01*
X154302962Y-65957038D01*
X154168386Y-65846595D01*
X154014850Y-65764528D01*
X153848254Y-65713992D01*
X153675000Y-65696928D01*
X152475000Y-65696928D01*
X152301746Y-65713992D01*
X152135150Y-65764528D01*
X151981614Y-65846595D01*
X151847038Y-65957038D01*
X151736595Y-66091614D01*
X151654528Y-66245150D01*
X151603992Y-66411746D01*
X151586928Y-66585000D01*
X150520000Y-66585000D01*
X150520000Y-57817279D01*
X150583096Y-57173778D01*
X150760606Y-56585836D01*
X151048937Y-56043564D01*
X151437094Y-55567636D01*
X151910314Y-55176155D01*
X152450552Y-54884049D01*
X153037244Y-54702437D01*
X153331914Y-54671467D01*
X153130330Y-54806161D01*
X152596161Y-55340330D01*
X152176467Y-55968446D01*
X151887377Y-56666372D01*
X151740000Y-57407285D01*
X151740000Y-58162715D01*
X151887377Y-58903628D01*
X152176467Y-59601554D01*
X152596161Y-60229670D01*
X153130330Y-60763839D01*
X153758446Y-61183533D01*
X154456372Y-61472623D01*
X155197285Y-61620000D01*
X155952715Y-61620000D01*
X156693628Y-61472623D01*
X157391554Y-61183533D01*
X158019670Y-60763839D01*
X158553839Y-60229670D01*
X158973533Y-59601554D01*
X159262623Y-58903628D01*
X159410000Y-58162715D01*
X159410000Y-57407285D01*
X159262623Y-56666372D01*
X158973533Y-55968446D01*
X158553839Y-55340330D01*
X158019670Y-54806161D01*
X157817819Y-54671288D01*
X158091222Y-54698096D01*
M02*
