G04 #@! TF.GenerationSoftware,KiCad,Pcbnew,(5.1.5)-3*
G04 #@! TF.CreationDate,2021-11-03T12:58:55+09:00*
G04 #@! TF.ProjectId,control_interface_boad_2021-2,636f6e74-726f-46c5-9f69-6e7465726661,rev?*
G04 #@! TF.SameCoordinates,Original*
G04 #@! TF.FileFunction,Soldermask,Top*
G04 #@! TF.FilePolarity,Negative*
%FSLAX46Y46*%
G04 Gerber Fmt 4.6, Leading zero omitted, Abs format (unit mm)*
G04 Created by KiCad (PCBNEW (5.1.5)-3) date 2021-11-03 12:58:55*
%MOMM*%
%LPD*%
G04 APERTURE LIST*
%ADD10C,0.100000*%
G04 APERTURE END LIST*
D10*
G36*
X147148097Y-119754069D02*
G01*
X147251032Y-119764207D01*
X147449146Y-119824305D01*
X147449149Y-119824306D01*
X147545975Y-119876061D01*
X147631729Y-119921897D01*
X147791765Y-120053235D01*
X147923103Y-120213271D01*
X147968939Y-120299025D01*
X148020694Y-120395851D01*
X148020695Y-120395854D01*
X148080793Y-120593968D01*
X148101085Y-120800000D01*
X148080793Y-121006032D01*
X148020695Y-121204146D01*
X148020694Y-121204149D01*
X147968939Y-121300975D01*
X147923103Y-121386729D01*
X147791765Y-121546765D01*
X147631729Y-121678103D01*
X147545975Y-121723939D01*
X147449149Y-121775694D01*
X147449146Y-121775695D01*
X147251032Y-121835793D01*
X147148097Y-121845931D01*
X147096631Y-121851000D01*
X146193369Y-121851000D01*
X146141903Y-121845931D01*
X146038968Y-121835793D01*
X145840854Y-121775695D01*
X145840851Y-121775694D01*
X145744025Y-121723939D01*
X145658271Y-121678103D01*
X145498235Y-121546765D01*
X145366897Y-121386729D01*
X145321061Y-121300975D01*
X145269306Y-121204149D01*
X145269305Y-121204146D01*
X145209207Y-121006032D01*
X145188915Y-120800000D01*
X145209207Y-120593968D01*
X145269305Y-120395854D01*
X145269306Y-120395851D01*
X145321061Y-120299025D01*
X145366897Y-120213271D01*
X145498235Y-120053235D01*
X145658271Y-119921897D01*
X145744025Y-119876061D01*
X145840851Y-119824306D01*
X145840854Y-119824305D01*
X146038968Y-119764207D01*
X146141903Y-119754069D01*
X146193369Y-119749000D01*
X147096631Y-119749000D01*
X147148097Y-119754069D01*
G37*
G36*
X127463097Y-119754069D02*
G01*
X127566032Y-119764207D01*
X127764146Y-119824305D01*
X127764149Y-119824306D01*
X127860975Y-119876061D01*
X127946729Y-119921897D01*
X128106765Y-120053235D01*
X128238103Y-120213271D01*
X128283939Y-120299025D01*
X128335694Y-120395851D01*
X128335695Y-120395854D01*
X128395793Y-120593968D01*
X128416085Y-120800000D01*
X128395793Y-121006032D01*
X128335695Y-121204146D01*
X128335694Y-121204149D01*
X128283939Y-121300975D01*
X128238103Y-121386729D01*
X128106765Y-121546765D01*
X127946729Y-121678103D01*
X127860975Y-121723939D01*
X127764149Y-121775694D01*
X127764146Y-121775695D01*
X127566032Y-121835793D01*
X127463097Y-121845931D01*
X127411631Y-121851000D01*
X126508369Y-121851000D01*
X126456903Y-121845931D01*
X126353968Y-121835793D01*
X126155854Y-121775695D01*
X126155851Y-121775694D01*
X126059025Y-121723939D01*
X125973271Y-121678103D01*
X125813235Y-121546765D01*
X125681897Y-121386729D01*
X125636061Y-121300975D01*
X125584306Y-121204149D01*
X125584305Y-121204146D01*
X125524207Y-121006032D01*
X125503915Y-120800000D01*
X125524207Y-120593968D01*
X125584305Y-120395854D01*
X125584306Y-120395851D01*
X125636061Y-120299025D01*
X125681897Y-120213271D01*
X125813235Y-120053235D01*
X125973271Y-119921897D01*
X126059025Y-119876061D01*
X126155851Y-119824306D01*
X126155854Y-119824305D01*
X126353968Y-119764207D01*
X126456903Y-119754069D01*
X126508369Y-119749000D01*
X127411631Y-119749000D01*
X127463097Y-119754069D01*
G37*
G36*
X117075442Y-115825518D02*
G01*
X117141627Y-115832037D01*
X117311466Y-115883557D01*
X117467991Y-115967222D01*
X117503729Y-115996552D01*
X117605186Y-116079814D01*
X117688448Y-116181271D01*
X117717778Y-116217009D01*
X117801443Y-116373534D01*
X117852963Y-116543373D01*
X117870359Y-116720000D01*
X117852963Y-116896627D01*
X117801443Y-117066466D01*
X117801442Y-117066468D01*
X117759611Y-117144728D01*
X117717778Y-117222991D01*
X117688448Y-117258729D01*
X117605186Y-117360186D01*
X117503729Y-117443448D01*
X117467991Y-117472778D01*
X117311466Y-117556443D01*
X117141627Y-117607963D01*
X117075443Y-117614481D01*
X117009260Y-117621000D01*
X116670740Y-117621000D01*
X116604557Y-117614481D01*
X116538373Y-117607963D01*
X116368534Y-117556443D01*
X116212009Y-117472778D01*
X116176271Y-117443448D01*
X116074814Y-117360186D01*
X115991552Y-117258729D01*
X115962222Y-117222991D01*
X115920389Y-117144728D01*
X115878558Y-117066468D01*
X115878557Y-117066466D01*
X115827037Y-116896627D01*
X115809641Y-116720000D01*
X115827037Y-116543373D01*
X115878557Y-116373534D01*
X115962222Y-116217009D01*
X115991552Y-116181271D01*
X116074814Y-116079814D01*
X116176271Y-115996552D01*
X116212009Y-115967222D01*
X116368534Y-115883557D01*
X116538373Y-115832037D01*
X116604558Y-115825518D01*
X116670740Y-115819000D01*
X117009260Y-115819000D01*
X117075442Y-115825518D01*
G37*
G36*
X76313512Y-115308927D02*
G01*
X76462812Y-115338624D01*
X76626784Y-115406544D01*
X76774354Y-115505147D01*
X76899853Y-115630646D01*
X76998456Y-115778216D01*
X77066376Y-115942188D01*
X77101000Y-116116259D01*
X77101000Y-116293741D01*
X77066376Y-116467812D01*
X76998456Y-116631784D01*
X76899853Y-116779354D01*
X76774354Y-116904853D01*
X76626784Y-117003456D01*
X76462812Y-117071376D01*
X76313512Y-117101073D01*
X76288742Y-117106000D01*
X76111258Y-117106000D01*
X76086488Y-117101073D01*
X75937188Y-117071376D01*
X75773216Y-117003456D01*
X75625646Y-116904853D01*
X75500147Y-116779354D01*
X75401544Y-116631784D01*
X75333624Y-116467812D01*
X75299000Y-116293741D01*
X75299000Y-116116259D01*
X75333624Y-115942188D01*
X75401544Y-115778216D01*
X75500147Y-115630646D01*
X75625646Y-115505147D01*
X75773216Y-115406544D01*
X75937188Y-115338624D01*
X76086488Y-115308927D01*
X76111258Y-115304000D01*
X76288742Y-115304000D01*
X76313512Y-115308927D01*
G37*
G36*
X146821626Y-113287037D02*
G01*
X146991465Y-113338557D01*
X146991467Y-113338558D01*
X147147989Y-113422221D01*
X147285186Y-113534814D01*
X147368448Y-113636271D01*
X147397778Y-113672009D01*
X147481443Y-113828534D01*
X147532963Y-113998373D01*
X147537395Y-114043373D01*
X147544624Y-114116765D01*
X147546000Y-114130742D01*
X147546000Y-114469257D01*
X147532963Y-114601626D01*
X147481443Y-114771466D01*
X147397778Y-114927991D01*
X147368448Y-114963729D01*
X147285186Y-115065186D01*
X147217175Y-115121000D01*
X147147991Y-115177778D01*
X146991466Y-115261443D01*
X146821627Y-115312963D01*
X146645000Y-115330359D01*
X146468374Y-115312963D01*
X146298535Y-115261443D01*
X146142010Y-115177778D01*
X146004815Y-115065185D01*
X145892222Y-114927991D01*
X145808557Y-114771466D01*
X145757037Y-114601627D01*
X145744000Y-114469258D01*
X145744000Y-114130743D01*
X145757037Y-113998374D01*
X145808557Y-113828535D01*
X145808559Y-113828532D01*
X145892221Y-113672011D01*
X146004814Y-113534814D01*
X146106271Y-113451552D01*
X146142009Y-113422222D01*
X146298534Y-113338557D01*
X146468373Y-113287037D01*
X146645000Y-113269641D01*
X146821626Y-113287037D01*
G37*
G36*
X127136626Y-113287037D02*
G01*
X127306465Y-113338557D01*
X127306467Y-113338558D01*
X127462989Y-113422221D01*
X127600186Y-113534814D01*
X127683448Y-113636271D01*
X127712778Y-113672009D01*
X127796443Y-113828534D01*
X127847963Y-113998373D01*
X127852395Y-114043373D01*
X127859624Y-114116765D01*
X127861000Y-114130742D01*
X127861000Y-114469257D01*
X127847963Y-114601626D01*
X127796443Y-114771466D01*
X127712778Y-114927991D01*
X127683448Y-114963729D01*
X127600186Y-115065186D01*
X127532175Y-115121000D01*
X127462991Y-115177778D01*
X127306466Y-115261443D01*
X127136627Y-115312963D01*
X126960000Y-115330359D01*
X126783374Y-115312963D01*
X126613535Y-115261443D01*
X126457010Y-115177778D01*
X126319815Y-115065185D01*
X126207222Y-114927991D01*
X126123557Y-114771466D01*
X126072037Y-114601627D01*
X126059000Y-114469258D01*
X126059000Y-114130743D01*
X126072037Y-113998374D01*
X126123557Y-113828535D01*
X126123559Y-113828532D01*
X126207221Y-113672011D01*
X126319814Y-113534814D01*
X126421271Y-113451552D01*
X126457009Y-113422222D01*
X126613534Y-113338557D01*
X126783373Y-113287037D01*
X126960000Y-113269641D01*
X127136626Y-113287037D01*
G37*
G36*
X129636626Y-113287037D02*
G01*
X129806465Y-113338557D01*
X129806467Y-113338558D01*
X129962989Y-113422221D01*
X130100186Y-113534814D01*
X130183448Y-113636271D01*
X130212778Y-113672009D01*
X130296443Y-113828534D01*
X130347963Y-113998373D01*
X130352395Y-114043373D01*
X130359624Y-114116765D01*
X130361000Y-114130742D01*
X130361000Y-114469257D01*
X130347963Y-114601626D01*
X130296443Y-114771466D01*
X130212778Y-114927991D01*
X130183448Y-114963729D01*
X130100186Y-115065186D01*
X130032175Y-115121000D01*
X129962991Y-115177778D01*
X129806466Y-115261443D01*
X129636627Y-115312963D01*
X129460000Y-115330359D01*
X129283374Y-115312963D01*
X129113535Y-115261443D01*
X128957010Y-115177778D01*
X128819815Y-115065185D01*
X128707222Y-114927991D01*
X128623557Y-114771466D01*
X128572037Y-114601627D01*
X128559000Y-114469258D01*
X128559000Y-114130743D01*
X128572037Y-113998374D01*
X128623557Y-113828535D01*
X128623559Y-113828532D01*
X128707221Y-113672011D01*
X128819814Y-113534814D01*
X128921271Y-113451552D01*
X128957009Y-113422222D01*
X129113534Y-113338557D01*
X129283373Y-113287037D01*
X129460000Y-113269641D01*
X129636626Y-113287037D01*
G37*
G36*
X149321626Y-113287037D02*
G01*
X149491465Y-113338557D01*
X149491467Y-113338558D01*
X149647989Y-113422221D01*
X149785186Y-113534814D01*
X149868448Y-113636271D01*
X149897778Y-113672009D01*
X149981443Y-113828534D01*
X150032963Y-113998373D01*
X150037395Y-114043373D01*
X150044624Y-114116765D01*
X150046000Y-114130742D01*
X150046000Y-114469257D01*
X150032963Y-114601626D01*
X149981443Y-114771466D01*
X149897778Y-114927991D01*
X149868448Y-114963729D01*
X149785186Y-115065186D01*
X149717175Y-115121000D01*
X149647991Y-115177778D01*
X149491466Y-115261443D01*
X149321627Y-115312963D01*
X149145000Y-115330359D01*
X148968374Y-115312963D01*
X148798535Y-115261443D01*
X148642010Y-115177778D01*
X148504815Y-115065185D01*
X148392222Y-114927991D01*
X148308557Y-114771466D01*
X148257037Y-114601627D01*
X148244000Y-114469258D01*
X148244000Y-114130743D01*
X148257037Y-113998374D01*
X148308557Y-113828535D01*
X148308559Y-113828532D01*
X148392221Y-113672011D01*
X148504814Y-113534814D01*
X148606271Y-113451552D01*
X148642009Y-113422222D01*
X148798534Y-113338557D01*
X148968373Y-113287037D01*
X149145000Y-113269641D01*
X149321626Y-113287037D01*
G37*
G36*
X144903600Y-113277989D02*
G01*
X144936652Y-113288015D01*
X144967103Y-113304292D01*
X144993799Y-113326201D01*
X145015708Y-113352897D01*
X145031985Y-113383348D01*
X145042011Y-113416400D01*
X145046000Y-113456903D01*
X145046000Y-115143097D01*
X145042011Y-115183600D01*
X145031985Y-115216652D01*
X145015708Y-115247103D01*
X144993799Y-115273799D01*
X144967103Y-115295708D01*
X144936652Y-115311985D01*
X144903600Y-115322011D01*
X144863097Y-115326000D01*
X143426903Y-115326000D01*
X143386400Y-115322011D01*
X143353348Y-115311985D01*
X143322897Y-115295708D01*
X143296201Y-115273799D01*
X143274292Y-115247103D01*
X143258015Y-115216652D01*
X143247989Y-115183600D01*
X143244000Y-115143097D01*
X143244000Y-113456903D01*
X143247989Y-113416400D01*
X143258015Y-113383348D01*
X143274292Y-113352897D01*
X143296201Y-113326201D01*
X143322897Y-113304292D01*
X143353348Y-113288015D01*
X143386400Y-113277989D01*
X143426903Y-113274000D01*
X144863097Y-113274000D01*
X144903600Y-113277989D01*
G37*
G36*
X125218600Y-113277989D02*
G01*
X125251652Y-113288015D01*
X125282103Y-113304292D01*
X125308799Y-113326201D01*
X125330708Y-113352897D01*
X125346985Y-113383348D01*
X125357011Y-113416400D01*
X125361000Y-113456903D01*
X125361000Y-115143097D01*
X125357011Y-115183600D01*
X125346985Y-115216652D01*
X125330708Y-115247103D01*
X125308799Y-115273799D01*
X125282103Y-115295708D01*
X125251652Y-115311985D01*
X125218600Y-115322011D01*
X125178097Y-115326000D01*
X123741903Y-115326000D01*
X123701400Y-115322011D01*
X123668348Y-115311985D01*
X123637897Y-115295708D01*
X123611201Y-115273799D01*
X123589292Y-115247103D01*
X123573015Y-115216652D01*
X123562989Y-115183600D01*
X123559000Y-115143097D01*
X123559000Y-113456903D01*
X123562989Y-113416400D01*
X123573015Y-113383348D01*
X123589292Y-113352897D01*
X123611201Y-113326201D01*
X123637897Y-113304292D01*
X123668348Y-113288015D01*
X123701400Y-113277989D01*
X123741903Y-113274000D01*
X125178097Y-113274000D01*
X125218600Y-113277989D01*
G37*
G36*
X117075442Y-113325518D02*
G01*
X117141627Y-113332037D01*
X117311466Y-113383557D01*
X117467991Y-113467222D01*
X117492457Y-113487301D01*
X117605186Y-113579814D01*
X117680847Y-113672009D01*
X117717778Y-113717009D01*
X117801443Y-113873534D01*
X117852963Y-114043373D01*
X117870359Y-114220000D01*
X117852963Y-114396627D01*
X117801443Y-114566466D01*
X117717778Y-114722991D01*
X117688448Y-114758729D01*
X117605186Y-114860186D01*
X117522564Y-114927991D01*
X117467991Y-114972778D01*
X117311466Y-115056443D01*
X117141627Y-115107963D01*
X117075442Y-115114482D01*
X117009260Y-115121000D01*
X116670740Y-115121000D01*
X116604558Y-115114482D01*
X116538373Y-115107963D01*
X116368534Y-115056443D01*
X116212009Y-114972778D01*
X116157436Y-114927991D01*
X116074814Y-114860186D01*
X115991552Y-114758729D01*
X115962222Y-114722991D01*
X115878557Y-114566466D01*
X115827037Y-114396627D01*
X115809641Y-114220000D01*
X115827037Y-114043373D01*
X115878557Y-113873534D01*
X115962222Y-113717009D01*
X115999153Y-113672009D01*
X116074814Y-113579814D01*
X116187543Y-113487301D01*
X116212009Y-113467222D01*
X116368534Y-113383557D01*
X116538373Y-113332037D01*
X116604558Y-113325518D01*
X116670740Y-113319000D01*
X117009260Y-113319000D01*
X117075442Y-113325518D01*
G37*
G36*
X90169239Y-108571467D02*
G01*
X90483282Y-108633934D01*
X91074926Y-108879001D01*
X91607392Y-109234784D01*
X92060216Y-109687608D01*
X92415999Y-110220074D01*
X92661066Y-110811718D01*
X92661066Y-110811719D01*
X92786000Y-111439803D01*
X92786000Y-112080197D01*
X92768962Y-112165851D01*
X92661066Y-112708282D01*
X92415999Y-113299926D01*
X92167381Y-113672009D01*
X92096317Y-113778364D01*
X92060216Y-113832392D01*
X91607392Y-114285216D01*
X91074926Y-114640999D01*
X90483282Y-114886066D01*
X90169239Y-114948533D01*
X89855197Y-115011000D01*
X89214803Y-115011000D01*
X88900761Y-114948533D01*
X88586718Y-114886066D01*
X87995074Y-114640999D01*
X87462608Y-114285216D01*
X87009784Y-113832392D01*
X86973684Y-113778364D01*
X86902619Y-113672009D01*
X86654001Y-113299926D01*
X86408934Y-112708282D01*
X86301038Y-112165851D01*
X86284000Y-112080197D01*
X86284000Y-111439803D01*
X86408934Y-110811719D01*
X86408934Y-110811718D01*
X86654001Y-110220074D01*
X87009784Y-109687608D01*
X87462608Y-109234784D01*
X87995074Y-108879001D01*
X88586718Y-108633934D01*
X88900761Y-108571467D01*
X89214803Y-108509000D01*
X89855197Y-108509000D01*
X90169239Y-108571467D01*
G37*
G36*
X137794239Y-108571467D02*
G01*
X138108282Y-108633934D01*
X138699926Y-108879001D01*
X139232392Y-109234784D01*
X139685216Y-109687608D01*
X140040999Y-110220074D01*
X140286066Y-110811718D01*
X140286066Y-110811719D01*
X140411000Y-111439803D01*
X140411000Y-112080197D01*
X140393962Y-112165851D01*
X140286066Y-112708282D01*
X140040999Y-113299926D01*
X139792381Y-113672009D01*
X139721317Y-113778364D01*
X139685216Y-113832392D01*
X139232392Y-114285216D01*
X138699926Y-114640999D01*
X138108282Y-114886066D01*
X137794239Y-114948533D01*
X137480197Y-115011000D01*
X136839803Y-115011000D01*
X136525761Y-114948533D01*
X136211718Y-114886066D01*
X135620074Y-114640999D01*
X135087608Y-114285216D01*
X134634784Y-113832392D01*
X134598684Y-113778364D01*
X134527619Y-113672009D01*
X134279001Y-113299926D01*
X134033934Y-112708282D01*
X133926038Y-112165851D01*
X133909000Y-112080197D01*
X133909000Y-111439803D01*
X134033934Y-110811719D01*
X134033934Y-110811718D01*
X134279001Y-110220074D01*
X134634784Y-109687608D01*
X135087608Y-109234784D01*
X135620074Y-108879001D01*
X136211718Y-108633934D01*
X136525761Y-108571467D01*
X136839803Y-108509000D01*
X137480197Y-108509000D01*
X137794239Y-108571467D01*
G37*
G36*
X81415329Y-112518369D02*
G01*
X81615734Y-112558232D01*
X81825203Y-112644997D01*
X82013720Y-112770960D01*
X82174040Y-112931280D01*
X82300003Y-113119797D01*
X82386768Y-113329266D01*
X82404100Y-113416400D01*
X82431000Y-113551635D01*
X82431000Y-113778365D01*
X82420253Y-113832391D01*
X82386768Y-114000734D01*
X82300003Y-114210203D01*
X82174040Y-114398720D01*
X82013720Y-114559040D01*
X81825203Y-114685003D01*
X81615734Y-114771768D01*
X81504549Y-114793884D01*
X81393365Y-114816000D01*
X81166635Y-114816000D01*
X81055451Y-114793884D01*
X80944266Y-114771768D01*
X80734797Y-114685003D01*
X80546280Y-114559040D01*
X80385960Y-114398720D01*
X80259997Y-114210203D01*
X80173232Y-114000734D01*
X80139747Y-113832391D01*
X80129000Y-113778365D01*
X80129000Y-113551635D01*
X80155900Y-113416400D01*
X80173232Y-113329266D01*
X80259997Y-113119797D01*
X80385960Y-112931280D01*
X80546280Y-112770960D01*
X80734797Y-112644997D01*
X80944266Y-112558232D01*
X81144671Y-112518369D01*
X81166635Y-112514000D01*
X81393365Y-112514000D01*
X81415329Y-112518369D01*
G37*
G36*
X110546032Y-111534207D02*
G01*
X110744146Y-111594305D01*
X110744149Y-111594306D01*
X110840975Y-111646061D01*
X110926729Y-111691897D01*
X111086765Y-111823235D01*
X111218103Y-111983271D01*
X111262571Y-112066466D01*
X111315694Y-112165851D01*
X111315695Y-112165854D01*
X111375793Y-112363969D01*
X111391000Y-112518371D01*
X111391000Y-113421630D01*
X111375793Y-113576032D01*
X111333027Y-113717011D01*
X111315694Y-113774149D01*
X111286625Y-113828533D01*
X111218103Y-113956729D01*
X111086765Y-114116765D01*
X110926729Y-114248103D01*
X110810030Y-114310479D01*
X110744148Y-114345694D01*
X110744145Y-114345695D01*
X110546031Y-114405793D01*
X110340000Y-114426085D01*
X110133968Y-114405793D01*
X109935854Y-114345695D01*
X109935851Y-114345694D01*
X109822705Y-114285216D01*
X109753271Y-114248103D01*
X109593235Y-114116765D01*
X109461897Y-113956729D01*
X109393375Y-113828532D01*
X109364306Y-113774148D01*
X109364305Y-113774145D01*
X109304207Y-113576031D01*
X109289000Y-113421629D01*
X109289000Y-112518370D01*
X109289430Y-112514000D01*
X109304207Y-112363970D01*
X109364305Y-112165853D01*
X109439184Y-112025765D01*
X109461898Y-111983271D01*
X109593236Y-111823235D01*
X109753272Y-111691897D01*
X109839026Y-111646061D01*
X109935852Y-111594306D01*
X109935855Y-111594305D01*
X110133969Y-111534207D01*
X110340000Y-111513915D01*
X110546032Y-111534207D01*
G37*
G36*
X76798254Y-109152818D02*
G01*
X77171511Y-109307426D01*
X77171513Y-109307427D01*
X77507436Y-109531884D01*
X77793116Y-109817564D01*
X77944004Y-110043383D01*
X78017574Y-110153489D01*
X78172182Y-110526746D01*
X78251000Y-110922993D01*
X78251000Y-111327007D01*
X78172182Y-111723254D01*
X78064479Y-111983272D01*
X78017573Y-112096513D01*
X77793116Y-112432436D01*
X77507436Y-112718116D01*
X77171513Y-112942573D01*
X77171512Y-112942574D01*
X77171511Y-112942574D01*
X76798254Y-113097182D01*
X76402007Y-113176000D01*
X75997993Y-113176000D01*
X75601746Y-113097182D01*
X75228489Y-112942574D01*
X75228488Y-112942574D01*
X75228487Y-112942573D01*
X74892564Y-112718116D01*
X74606884Y-112432436D01*
X74382427Y-112096513D01*
X74335521Y-111983272D01*
X74227818Y-111723254D01*
X74149000Y-111327007D01*
X74149000Y-110922993D01*
X74227818Y-110526746D01*
X74382426Y-110153489D01*
X74455997Y-110043383D01*
X74606884Y-109817564D01*
X74892564Y-109531884D01*
X75228487Y-109307427D01*
X75228489Y-109307426D01*
X75601746Y-109152818D01*
X75997993Y-109074000D01*
X76402007Y-109074000D01*
X76798254Y-109152818D01*
G37*
G36*
X117075443Y-110825519D02*
G01*
X117141627Y-110832037D01*
X117311466Y-110883557D01*
X117467991Y-110967222D01*
X117503729Y-110996552D01*
X117605186Y-111079814D01*
X117688448Y-111181271D01*
X117717778Y-111217009D01*
X117801443Y-111373534D01*
X117852963Y-111543373D01*
X117870359Y-111720000D01*
X117852963Y-111896627D01*
X117801443Y-112066466D01*
X117801442Y-112066468D01*
X117785382Y-112096513D01*
X117717778Y-112222991D01*
X117688448Y-112258729D01*
X117605186Y-112360186D01*
X117517148Y-112432436D01*
X117467991Y-112472778D01*
X117311466Y-112556443D01*
X117141627Y-112607963D01*
X117075442Y-112614482D01*
X117009260Y-112621000D01*
X116670740Y-112621000D01*
X116604558Y-112614482D01*
X116538373Y-112607963D01*
X116368534Y-112556443D01*
X116212009Y-112472778D01*
X116162852Y-112432436D01*
X116074814Y-112360186D01*
X115991552Y-112258729D01*
X115962222Y-112222991D01*
X115894618Y-112096513D01*
X115878558Y-112066468D01*
X115878557Y-112066466D01*
X115827037Y-111896627D01*
X115809641Y-111720000D01*
X115827037Y-111543373D01*
X115878557Y-111373534D01*
X115962222Y-111217009D01*
X115991552Y-111181271D01*
X116074814Y-111079814D01*
X116176271Y-110996552D01*
X116212009Y-110967222D01*
X116368534Y-110883557D01*
X116538373Y-110832037D01*
X116604557Y-110825519D01*
X116670740Y-110819000D01*
X117009260Y-110819000D01*
X117075443Y-110825519D01*
G37*
G36*
X117723600Y-108322989D02*
G01*
X117756652Y-108333015D01*
X117787103Y-108349292D01*
X117813799Y-108371201D01*
X117835708Y-108397897D01*
X117851985Y-108428348D01*
X117862011Y-108461400D01*
X117866000Y-108501903D01*
X117866000Y-109938097D01*
X117862011Y-109978600D01*
X117851985Y-110011652D01*
X117835708Y-110042103D01*
X117813799Y-110068799D01*
X117787103Y-110090708D01*
X117756652Y-110106985D01*
X117723600Y-110117011D01*
X117683097Y-110121000D01*
X115996903Y-110121000D01*
X115956400Y-110117011D01*
X115923348Y-110106985D01*
X115892897Y-110090708D01*
X115866201Y-110068799D01*
X115844292Y-110042103D01*
X115828015Y-110011652D01*
X115817989Y-109978600D01*
X115814000Y-109938097D01*
X115814000Y-108501903D01*
X115817989Y-108461400D01*
X115828015Y-108428348D01*
X115844292Y-108397897D01*
X115866201Y-108371201D01*
X115892897Y-108349292D01*
X115923348Y-108333015D01*
X115956400Y-108322989D01*
X115996903Y-108319000D01*
X117683097Y-108319000D01*
X117723600Y-108322989D01*
G37*
G36*
X78964549Y-106186116D02*
G01*
X79075734Y-106208232D01*
X79285203Y-106294997D01*
X79473720Y-106420960D01*
X79634040Y-106581280D01*
X79760003Y-106769797D01*
X79846768Y-106979266D01*
X79891000Y-107201636D01*
X79891000Y-107428364D01*
X79846768Y-107650734D01*
X79760003Y-107860203D01*
X79634040Y-108048720D01*
X79473720Y-108209040D01*
X79285203Y-108335003D01*
X79285202Y-108335004D01*
X79285201Y-108335004D01*
X79223850Y-108360416D01*
X79075734Y-108421768D01*
X79000293Y-108436774D01*
X78853365Y-108466000D01*
X78626635Y-108466000D01*
X78479707Y-108436774D01*
X78404266Y-108421768D01*
X78256150Y-108360416D01*
X78194799Y-108335004D01*
X78194798Y-108335004D01*
X78194797Y-108335003D01*
X78006280Y-108209040D01*
X77845960Y-108048720D01*
X77719997Y-107860203D01*
X77633232Y-107650734D01*
X77589000Y-107428364D01*
X77589000Y-107201636D01*
X77633232Y-106979266D01*
X77719997Y-106769797D01*
X77845960Y-106581280D01*
X78006280Y-106420960D01*
X78194797Y-106294997D01*
X78404266Y-106208232D01*
X78515451Y-106186116D01*
X78626635Y-106164000D01*
X78853365Y-106164000D01*
X78964549Y-106186116D01*
G37*
G36*
X76313512Y-105148927D02*
G01*
X76462812Y-105178624D01*
X76626784Y-105246544D01*
X76774354Y-105345147D01*
X76899853Y-105470646D01*
X76998456Y-105618216D01*
X77066376Y-105782188D01*
X77101000Y-105956259D01*
X77101000Y-106133741D01*
X77066376Y-106307812D01*
X76998456Y-106471784D01*
X76899853Y-106619354D01*
X76774354Y-106744853D01*
X76626784Y-106843456D01*
X76462812Y-106911376D01*
X76313512Y-106941073D01*
X76288742Y-106946000D01*
X76111258Y-106946000D01*
X76086488Y-106941073D01*
X75937188Y-106911376D01*
X75773216Y-106843456D01*
X75625646Y-106744853D01*
X75500147Y-106619354D01*
X75401544Y-106471784D01*
X75333624Y-106307812D01*
X75299000Y-106133741D01*
X75299000Y-105956259D01*
X75333624Y-105782188D01*
X75401544Y-105618216D01*
X75500147Y-105470646D01*
X75625646Y-105345147D01*
X75773216Y-105246544D01*
X75937188Y-105178624D01*
X76086488Y-105148927D01*
X76111258Y-105144000D01*
X76288742Y-105144000D01*
X76313512Y-105148927D01*
G37*
G36*
X146933600Y-103242989D02*
G01*
X146966652Y-103253015D01*
X146997103Y-103269292D01*
X147023799Y-103291201D01*
X147045708Y-103317897D01*
X147061985Y-103348348D01*
X147072011Y-103381400D01*
X147076000Y-103421903D01*
X147076000Y-104858097D01*
X147072011Y-104898600D01*
X147061985Y-104931652D01*
X147045708Y-104962103D01*
X147023799Y-104988799D01*
X146997103Y-105010708D01*
X146966652Y-105026985D01*
X146933600Y-105037011D01*
X146893097Y-105041000D01*
X145206903Y-105041000D01*
X145166400Y-105037011D01*
X145133348Y-105026985D01*
X145102897Y-105010708D01*
X145076201Y-104988799D01*
X145054292Y-104962103D01*
X145038015Y-104931652D01*
X145027989Y-104898600D01*
X145024000Y-104858097D01*
X145024000Y-103421903D01*
X145027989Y-103381400D01*
X145038015Y-103348348D01*
X145054292Y-103317897D01*
X145076201Y-103291201D01*
X145102897Y-103269292D01*
X145133348Y-103253015D01*
X145166400Y-103242989D01*
X145206903Y-103239000D01*
X146893097Y-103239000D01*
X146933600Y-103242989D01*
G37*
G36*
X152756031Y-100204207D02*
G01*
X152954145Y-100264305D01*
X152954148Y-100264306D01*
X153020030Y-100299521D01*
X153136729Y-100361897D01*
X153296765Y-100493235D01*
X153428103Y-100653271D01*
X153428104Y-100653273D01*
X153525694Y-100835851D01*
X153525694Y-100835852D01*
X153525695Y-100835854D01*
X153585793Y-101033968D01*
X153601000Y-101188370D01*
X153601000Y-102091629D01*
X153585793Y-102246031D01*
X153541277Y-102392778D01*
X153525694Y-102444149D01*
X153508433Y-102476442D01*
X153428103Y-102626729D01*
X153296765Y-102786765D01*
X153136729Y-102918103D01*
X153050975Y-102963939D01*
X152954149Y-103015694D01*
X152954146Y-103015695D01*
X152756032Y-103075793D01*
X152550000Y-103096085D01*
X152343969Y-103075793D01*
X152145855Y-103015695D01*
X152145852Y-103015694D01*
X152049026Y-102963939D01*
X151963272Y-102918103D01*
X151803236Y-102786765D01*
X151671898Y-102626729D01*
X151626075Y-102541000D01*
X151574305Y-102444147D01*
X151514207Y-102246030D01*
X151499000Y-102091631D01*
X151499000Y-101188370D01*
X151506401Y-101113226D01*
X151514207Y-101033969D01*
X151574305Y-100835855D01*
X151574306Y-100835852D01*
X151619106Y-100752037D01*
X151671897Y-100653271D01*
X151803235Y-100493235D01*
X151963271Y-100361897D01*
X152049025Y-100316061D01*
X152145851Y-100264306D01*
X152145854Y-100264305D01*
X152343968Y-100204207D01*
X152550000Y-100183915D01*
X152756031Y-100204207D01*
G37*
G36*
X146285442Y-100745518D02*
G01*
X146351627Y-100752037D01*
X146521466Y-100803557D01*
X146677991Y-100887222D01*
X146713729Y-100916552D01*
X146815186Y-100999814D01*
X146898448Y-101101271D01*
X146927778Y-101137009D01*
X147011443Y-101293534D01*
X147062963Y-101463373D01*
X147080359Y-101640000D01*
X147062963Y-101816627D01*
X147011443Y-101986466D01*
X146927778Y-102142991D01*
X146898448Y-102178729D01*
X146815186Y-102280186D01*
X146713729Y-102363448D01*
X146677991Y-102392778D01*
X146521466Y-102476443D01*
X146351627Y-102527963D01*
X146285442Y-102534482D01*
X146219260Y-102541000D01*
X145880740Y-102541000D01*
X145814558Y-102534482D01*
X145748373Y-102527963D01*
X145578534Y-102476443D01*
X145422009Y-102392778D01*
X145386271Y-102363448D01*
X145284814Y-102280186D01*
X145201552Y-102178729D01*
X145172222Y-102142991D01*
X145088557Y-101986466D01*
X145037037Y-101816627D01*
X145019641Y-101640000D01*
X145037037Y-101463373D01*
X145088557Y-101293534D01*
X145172222Y-101137009D01*
X145201552Y-101101271D01*
X145284814Y-100999814D01*
X145386271Y-100916552D01*
X145422009Y-100887222D01*
X145578534Y-100803557D01*
X145748373Y-100752037D01*
X145814558Y-100745518D01*
X145880740Y-100739000D01*
X146219260Y-100739000D01*
X146285442Y-100745518D01*
G37*
G36*
X111124239Y-95871467D02*
G01*
X111438282Y-95933934D01*
X112029926Y-96179001D01*
X112562392Y-96534784D01*
X113015216Y-96987608D01*
X113370999Y-97520074D01*
X113616066Y-98111718D01*
X113660080Y-98332991D01*
X113741000Y-98739803D01*
X113741000Y-99380197D01*
X113728505Y-99443015D01*
X113616066Y-100008282D01*
X113370999Y-100599926D01*
X113126396Y-100966000D01*
X113022393Y-101121652D01*
X113015216Y-101132392D01*
X112562392Y-101585216D01*
X112029926Y-101940999D01*
X111438282Y-102186066D01*
X111136827Y-102246029D01*
X110810197Y-102311000D01*
X110169803Y-102311000D01*
X109843173Y-102246029D01*
X109541718Y-102186066D01*
X108950074Y-101940999D01*
X108417608Y-101585216D01*
X107964784Y-101132392D01*
X107957608Y-101121652D01*
X107853604Y-100966000D01*
X107609001Y-100599926D01*
X107363934Y-100008282D01*
X107251495Y-99443015D01*
X107239000Y-99380197D01*
X107239000Y-98739803D01*
X107319920Y-98332991D01*
X107363934Y-98111718D01*
X107609001Y-97520074D01*
X107964784Y-96987608D01*
X108417608Y-96534784D01*
X108950074Y-96179001D01*
X109541718Y-95933934D01*
X109855761Y-95871467D01*
X110169803Y-95809000D01*
X110810197Y-95809000D01*
X111124239Y-95871467D01*
G37*
G36*
X63499239Y-95871467D02*
G01*
X63813282Y-95933934D01*
X64404926Y-96179001D01*
X64937392Y-96534784D01*
X65390216Y-96987608D01*
X65745999Y-97520074D01*
X65991066Y-98111718D01*
X66035080Y-98332991D01*
X66116000Y-98739803D01*
X66116000Y-99380197D01*
X66103505Y-99443015D01*
X65991066Y-100008282D01*
X65745999Y-100599926D01*
X65501396Y-100966000D01*
X65397393Y-101121652D01*
X65390216Y-101132392D01*
X64937392Y-101585216D01*
X64404926Y-101940999D01*
X63813282Y-102186066D01*
X63511827Y-102246029D01*
X63185197Y-102311000D01*
X62544803Y-102311000D01*
X62218173Y-102246029D01*
X61916718Y-102186066D01*
X61325074Y-101940999D01*
X60792608Y-101585216D01*
X60339784Y-101132392D01*
X60332608Y-101121652D01*
X60228604Y-100966000D01*
X59984001Y-100599926D01*
X59738934Y-100008282D01*
X59626495Y-99443015D01*
X59614000Y-99380197D01*
X59614000Y-98739803D01*
X59694920Y-98332991D01*
X59738934Y-98111718D01*
X59984001Y-97520074D01*
X60339784Y-96987608D01*
X60792608Y-96534784D01*
X61325074Y-96179001D01*
X61916718Y-95933934D01*
X62230761Y-95871467D01*
X62544803Y-95809000D01*
X63185197Y-95809000D01*
X63499239Y-95871467D01*
G37*
G36*
X101213600Y-99432989D02*
G01*
X101246652Y-99443015D01*
X101277103Y-99459292D01*
X101303799Y-99481201D01*
X101325708Y-99507897D01*
X101341985Y-99538348D01*
X101352011Y-99571400D01*
X101356000Y-99611903D01*
X101356000Y-101048097D01*
X101352011Y-101088600D01*
X101341985Y-101121652D01*
X101325708Y-101152103D01*
X101303799Y-101178799D01*
X101277103Y-101200708D01*
X101246652Y-101216985D01*
X101213600Y-101227011D01*
X101173097Y-101231000D01*
X99486903Y-101231000D01*
X99446400Y-101227011D01*
X99413348Y-101216985D01*
X99382897Y-101200708D01*
X99356201Y-101178799D01*
X99334292Y-101152103D01*
X99318015Y-101121652D01*
X99307989Y-101088600D01*
X99304000Y-101048097D01*
X99304000Y-99611903D01*
X99307989Y-99571400D01*
X99318015Y-99538348D01*
X99334292Y-99507897D01*
X99356201Y-99481201D01*
X99382897Y-99459292D01*
X99413348Y-99443015D01*
X99446400Y-99432989D01*
X99486903Y-99429000D01*
X101173097Y-99429000D01*
X101213600Y-99432989D01*
G37*
G36*
X146285443Y-98245519D02*
G01*
X146351627Y-98252037D01*
X146521466Y-98303557D01*
X146677991Y-98387222D01*
X146713729Y-98416552D01*
X146815186Y-98499814D01*
X146898448Y-98601271D01*
X146927778Y-98637009D01*
X146927779Y-98637011D01*
X146982724Y-98739804D01*
X147011443Y-98793534D01*
X147062963Y-98963373D01*
X147080359Y-99140000D01*
X147062963Y-99316627D01*
X147011443Y-99486466D01*
X146927778Y-99642991D01*
X146898448Y-99678729D01*
X146815186Y-99780186D01*
X146713729Y-99863448D01*
X146677991Y-99892778D01*
X146521466Y-99976443D01*
X146351627Y-100027963D01*
X146285443Y-100034481D01*
X146219260Y-100041000D01*
X145880740Y-100041000D01*
X145814557Y-100034481D01*
X145748373Y-100027963D01*
X145578534Y-99976443D01*
X145422009Y-99892778D01*
X145386271Y-99863448D01*
X145284814Y-99780186D01*
X145201552Y-99678729D01*
X145172222Y-99642991D01*
X145088557Y-99486466D01*
X145037037Y-99316627D01*
X145019641Y-99140000D01*
X145037037Y-98963373D01*
X145088557Y-98793534D01*
X145117277Y-98739804D01*
X145172221Y-98637011D01*
X145172222Y-98637009D01*
X145201552Y-98601271D01*
X145284814Y-98499814D01*
X145386271Y-98416552D01*
X145422009Y-98387222D01*
X145578534Y-98303557D01*
X145748373Y-98252037D01*
X145814558Y-98245518D01*
X145880740Y-98239000D01*
X146219260Y-98239000D01*
X146285443Y-98245519D01*
G37*
G36*
X126611000Y-99771000D02*
G01*
X125509000Y-99771000D01*
X125509000Y-98169000D01*
X126611000Y-98169000D01*
X126611000Y-99771000D01*
G37*
G36*
X123411000Y-99771000D02*
G01*
X122309000Y-99771000D01*
X122309000Y-98169000D01*
X123411000Y-98169000D01*
X123411000Y-99771000D01*
G37*
G36*
X94036031Y-96394207D02*
G01*
X94234145Y-96454305D01*
X94234148Y-96454306D01*
X94300030Y-96489521D01*
X94416729Y-96551897D01*
X94576765Y-96683235D01*
X94708103Y-96843271D01*
X94708104Y-96843273D01*
X94805694Y-97025851D01*
X94805694Y-97025852D01*
X94805695Y-97025854D01*
X94865793Y-97223968D01*
X94881000Y-97378370D01*
X94881000Y-98281629D01*
X94865793Y-98436031D01*
X94855432Y-98470185D01*
X94805694Y-98634149D01*
X94804165Y-98637009D01*
X94708103Y-98816729D01*
X94576765Y-98976765D01*
X94416729Y-99108103D01*
X94330975Y-99153939D01*
X94234149Y-99205694D01*
X94234146Y-99205695D01*
X94036032Y-99265793D01*
X93830000Y-99286085D01*
X93623969Y-99265793D01*
X93425855Y-99205695D01*
X93425852Y-99205694D01*
X93329026Y-99153939D01*
X93243272Y-99108103D01*
X93083236Y-98976765D01*
X92951898Y-98816729D01*
X92906075Y-98731000D01*
X92854305Y-98634147D01*
X92794207Y-98436030D01*
X92779000Y-98281631D01*
X92779000Y-97378370D01*
X92794207Y-97223971D01*
X92794207Y-97223969D01*
X92854305Y-97025855D01*
X92854306Y-97025852D01*
X92899106Y-96942037D01*
X92951897Y-96843271D01*
X93083235Y-96683235D01*
X93243271Y-96551897D01*
X93329025Y-96506061D01*
X93425851Y-96454306D01*
X93425854Y-96454305D01*
X93623968Y-96394207D01*
X93830000Y-96373915D01*
X94036031Y-96394207D01*
G37*
G36*
X100565442Y-96935518D02*
G01*
X100631627Y-96942037D01*
X100801466Y-96993557D01*
X100957991Y-97077222D01*
X100993729Y-97106552D01*
X101095186Y-97189814D01*
X101178448Y-97291271D01*
X101207778Y-97327009D01*
X101291443Y-97483534D01*
X101342963Y-97653373D01*
X101360359Y-97830000D01*
X101342963Y-98006627D01*
X101291443Y-98176466D01*
X101207778Y-98332991D01*
X101178448Y-98368729D01*
X101095186Y-98470186D01*
X100993729Y-98553448D01*
X100957991Y-98582778D01*
X100801466Y-98666443D01*
X100631627Y-98717963D01*
X100565443Y-98724481D01*
X100499260Y-98731000D01*
X100160740Y-98731000D01*
X100094557Y-98724481D01*
X100028373Y-98717963D01*
X99858534Y-98666443D01*
X99702009Y-98582778D01*
X99666271Y-98553448D01*
X99564814Y-98470186D01*
X99481552Y-98368729D01*
X99452222Y-98332991D01*
X99368557Y-98176466D01*
X99317037Y-98006627D01*
X99299641Y-97830000D01*
X99317037Y-97653373D01*
X99368557Y-97483534D01*
X99452222Y-97327009D01*
X99481552Y-97291271D01*
X99564814Y-97189814D01*
X99666271Y-97106552D01*
X99702009Y-97077222D01*
X99858534Y-96993557D01*
X100028373Y-96942037D01*
X100094558Y-96935518D01*
X100160740Y-96929000D01*
X100499260Y-96929000D01*
X100565442Y-96935518D01*
G37*
G36*
X100565442Y-94435518D02*
G01*
X100631627Y-94442037D01*
X100801466Y-94493557D01*
X100957991Y-94577222D01*
X100993729Y-94606552D01*
X101095186Y-94689814D01*
X101178448Y-94791271D01*
X101207778Y-94827009D01*
X101291443Y-94983534D01*
X101342963Y-95153373D01*
X101360359Y-95330000D01*
X101342963Y-95506627D01*
X101291443Y-95676466D01*
X101207778Y-95832991D01*
X101178448Y-95868729D01*
X101095186Y-95970186D01*
X100993729Y-96053448D01*
X100957991Y-96082778D01*
X100801466Y-96166443D01*
X100631627Y-96217963D01*
X100565442Y-96224482D01*
X100499260Y-96231000D01*
X100160740Y-96231000D01*
X100094558Y-96224482D01*
X100028373Y-96217963D01*
X99858534Y-96166443D01*
X99702009Y-96082778D01*
X99666271Y-96053448D01*
X99564814Y-95970186D01*
X99481552Y-95868729D01*
X99452222Y-95832991D01*
X99368557Y-95676466D01*
X99317037Y-95506627D01*
X99299641Y-95330000D01*
X99317037Y-95153373D01*
X99368557Y-94983534D01*
X99452222Y-94827009D01*
X99481552Y-94791271D01*
X99564814Y-94689814D01*
X99666271Y-94606552D01*
X99702009Y-94577222D01*
X99858534Y-94493557D01*
X100028373Y-94442037D01*
X100094558Y-94435518D01*
X100160740Y-94429000D01*
X100499260Y-94429000D01*
X100565442Y-94435518D01*
G37*
G36*
X123411000Y-94871000D02*
G01*
X122309000Y-94871000D01*
X122309000Y-93269000D01*
X123411000Y-93269000D01*
X123411000Y-94871000D01*
G37*
G36*
X126611000Y-94871000D02*
G01*
X125509000Y-94871000D01*
X125509000Y-93269000D01*
X126611000Y-93269000D01*
X126611000Y-94871000D01*
G37*
G36*
X76313512Y-91178927D02*
G01*
X76462812Y-91208624D01*
X76626784Y-91276544D01*
X76774354Y-91375147D01*
X76899853Y-91500646D01*
X76998456Y-91648216D01*
X77066376Y-91812188D01*
X77101000Y-91986259D01*
X77101000Y-92163741D01*
X77066376Y-92337812D01*
X76998456Y-92501784D01*
X76899853Y-92649354D01*
X76774354Y-92774853D01*
X76626784Y-92873456D01*
X76462812Y-92941376D01*
X76313512Y-92971073D01*
X76288742Y-92976000D01*
X76111258Y-92976000D01*
X76086488Y-92971073D01*
X75937188Y-92941376D01*
X75773216Y-92873456D01*
X75625646Y-92774853D01*
X75500147Y-92649354D01*
X75401544Y-92501784D01*
X75333624Y-92337812D01*
X75299000Y-92163741D01*
X75299000Y-91986259D01*
X75333624Y-91812188D01*
X75401544Y-91648216D01*
X75500147Y-91500646D01*
X75625646Y-91375147D01*
X75773216Y-91276544D01*
X75937188Y-91208624D01*
X76086488Y-91178927D01*
X76111258Y-91174000D01*
X76288742Y-91174000D01*
X76313512Y-91178927D01*
G37*
G36*
X146933600Y-90542989D02*
G01*
X146966652Y-90553015D01*
X146997103Y-90569292D01*
X147023799Y-90591201D01*
X147045708Y-90617897D01*
X147061985Y-90648348D01*
X147072011Y-90681400D01*
X147076000Y-90721903D01*
X147076000Y-92158097D01*
X147072011Y-92198600D01*
X147061985Y-92231652D01*
X147045708Y-92262103D01*
X147023799Y-92288799D01*
X146997103Y-92310708D01*
X146966652Y-92326985D01*
X146933600Y-92337011D01*
X146893097Y-92341000D01*
X145206903Y-92341000D01*
X145166400Y-92337011D01*
X145133348Y-92326985D01*
X145102897Y-92310708D01*
X145076201Y-92288799D01*
X145054292Y-92262103D01*
X145038015Y-92231652D01*
X145027989Y-92198600D01*
X145024000Y-92158097D01*
X145024000Y-90721903D01*
X145027989Y-90681400D01*
X145038015Y-90648348D01*
X145054292Y-90617897D01*
X145076201Y-90591201D01*
X145102897Y-90569292D01*
X145133348Y-90553015D01*
X145166400Y-90542989D01*
X145206903Y-90539000D01*
X146893097Y-90539000D01*
X146933600Y-90542989D01*
G37*
G36*
X81504549Y-88406116D02*
G01*
X81615734Y-88428232D01*
X81825203Y-88514997D01*
X82013720Y-88640960D01*
X82174040Y-88801280D01*
X82300003Y-88989797D01*
X82386768Y-89199266D01*
X82408884Y-89310451D01*
X82425032Y-89391630D01*
X82431000Y-89421636D01*
X82431000Y-89648364D01*
X82386768Y-89870734D01*
X82300003Y-90080203D01*
X82174040Y-90268720D01*
X82013720Y-90429040D01*
X81825203Y-90555003D01*
X81825202Y-90555004D01*
X81825201Y-90555004D01*
X81763850Y-90580416D01*
X81615734Y-90641768D01*
X81540293Y-90656774D01*
X81393365Y-90686000D01*
X81166635Y-90686000D01*
X81019707Y-90656774D01*
X80944266Y-90641768D01*
X80796150Y-90580416D01*
X80734799Y-90555004D01*
X80734798Y-90555004D01*
X80734797Y-90555003D01*
X80546280Y-90429040D01*
X80385960Y-90268720D01*
X80259997Y-90080203D01*
X80173232Y-89870734D01*
X80129000Y-89648364D01*
X80129000Y-89421636D01*
X80134969Y-89391630D01*
X80151116Y-89310451D01*
X80173232Y-89199266D01*
X80259997Y-88989797D01*
X80385960Y-88801280D01*
X80546280Y-88640960D01*
X80734797Y-88514997D01*
X80944266Y-88428232D01*
X81055451Y-88406116D01*
X81166635Y-88384000D01*
X81393365Y-88384000D01*
X81504549Y-88406116D01*
G37*
G36*
X152756031Y-87504207D02*
G01*
X152954145Y-87564305D01*
X152954148Y-87564306D01*
X153008307Y-87593255D01*
X153136729Y-87661897D01*
X153296765Y-87793235D01*
X153428103Y-87953271D01*
X153473926Y-88039000D01*
X153525694Y-88135851D01*
X153525694Y-88135852D01*
X153525695Y-88135854D01*
X153585793Y-88333968D01*
X153601000Y-88488370D01*
X153601000Y-89391629D01*
X153585793Y-89546031D01*
X153575432Y-89580185D01*
X153525694Y-89744149D01*
X153508433Y-89776442D01*
X153428103Y-89926729D01*
X153296765Y-90086765D01*
X153136729Y-90218103D01*
X153050975Y-90263939D01*
X152954149Y-90315694D01*
X152954146Y-90315695D01*
X152756032Y-90375793D01*
X152550000Y-90396085D01*
X152343969Y-90375793D01*
X152145855Y-90315695D01*
X152145852Y-90315694D01*
X152049026Y-90263939D01*
X151963272Y-90218103D01*
X151803236Y-90086765D01*
X151671898Y-89926729D01*
X151626075Y-89841000D01*
X151574305Y-89744147D01*
X151514207Y-89546030D01*
X151499000Y-89391631D01*
X151499000Y-88488370D01*
X151504923Y-88428232D01*
X151514207Y-88333969D01*
X151574305Y-88135855D01*
X151574306Y-88135852D01*
X151619106Y-88052037D01*
X151671897Y-87953271D01*
X151803235Y-87793235D01*
X151963271Y-87661897D01*
X152091692Y-87593255D01*
X152145851Y-87564306D01*
X152145854Y-87564305D01*
X152343968Y-87504207D01*
X152550000Y-87483915D01*
X152756031Y-87504207D01*
G37*
G36*
X146285443Y-88045519D02*
G01*
X146351627Y-88052037D01*
X146521466Y-88103557D01*
X146677991Y-88187222D01*
X146713729Y-88216552D01*
X146815186Y-88299814D01*
X146898448Y-88401271D01*
X146927778Y-88437009D01*
X147011443Y-88593534D01*
X147062963Y-88763373D01*
X147080359Y-88940000D01*
X147062963Y-89116627D01*
X147011443Y-89286466D01*
X146927778Y-89442991D01*
X146898448Y-89478729D01*
X146815186Y-89580186D01*
X146732108Y-89648365D01*
X146677991Y-89692778D01*
X146521466Y-89776443D01*
X146351627Y-89827963D01*
X146285443Y-89834481D01*
X146219260Y-89841000D01*
X145880740Y-89841000D01*
X145814557Y-89834481D01*
X145748373Y-89827963D01*
X145578534Y-89776443D01*
X145422009Y-89692778D01*
X145367892Y-89648365D01*
X145284814Y-89580186D01*
X145201552Y-89478729D01*
X145172222Y-89442991D01*
X145088557Y-89286466D01*
X145037037Y-89116627D01*
X145019641Y-88940000D01*
X145037037Y-88763373D01*
X145088557Y-88593534D01*
X145172222Y-88437009D01*
X145201552Y-88401271D01*
X145284814Y-88299814D01*
X145386271Y-88216552D01*
X145422009Y-88187222D01*
X145578534Y-88103557D01*
X145748373Y-88052037D01*
X145814557Y-88045519D01*
X145880740Y-88039000D01*
X146219260Y-88039000D01*
X146285443Y-88045519D01*
G37*
G36*
X76798254Y-85022818D02*
G01*
X77167332Y-85175695D01*
X77171513Y-85177427D01*
X77507436Y-85401884D01*
X77793116Y-85687564D01*
X77969139Y-85951000D01*
X78017574Y-86023489D01*
X78172182Y-86396746D01*
X78251000Y-86792993D01*
X78251000Y-87197007D01*
X78172182Y-87593254D01*
X78143749Y-87661897D01*
X78017573Y-87966513D01*
X77793116Y-88302436D01*
X77507436Y-88588116D01*
X77171513Y-88812573D01*
X77171512Y-88812574D01*
X77171511Y-88812574D01*
X76798254Y-88967182D01*
X76402007Y-89046000D01*
X75997993Y-89046000D01*
X75601746Y-88967182D01*
X75228489Y-88812574D01*
X75228488Y-88812574D01*
X75228487Y-88812573D01*
X74892564Y-88588116D01*
X74606884Y-88302436D01*
X74382427Y-87966513D01*
X74256251Y-87661897D01*
X74227818Y-87593254D01*
X74149000Y-87197007D01*
X74149000Y-86792993D01*
X74227818Y-86396746D01*
X74382426Y-86023489D01*
X74430862Y-85951000D01*
X74606884Y-85687564D01*
X74892564Y-85401884D01*
X75228487Y-85177427D01*
X75232668Y-85175695D01*
X75601746Y-85022818D01*
X75997993Y-84944000D01*
X76402007Y-84944000D01*
X76798254Y-85022818D01*
G37*
G36*
X126611000Y-88976000D02*
G01*
X125509000Y-88976000D01*
X125509000Y-87374000D01*
X126611000Y-87374000D01*
X126611000Y-88976000D01*
G37*
G36*
X123411000Y-88976000D02*
G01*
X122309000Y-88976000D01*
X122309000Y-87374000D01*
X123411000Y-87374000D01*
X123411000Y-88976000D01*
G37*
G36*
X146285443Y-85545519D02*
G01*
X146351627Y-85552037D01*
X146521466Y-85603557D01*
X146677991Y-85687222D01*
X146713729Y-85716552D01*
X146815186Y-85799814D01*
X146898448Y-85901271D01*
X146927778Y-85937009D01*
X147011443Y-86093534D01*
X147062963Y-86263373D01*
X147080359Y-86440000D01*
X147062963Y-86616627D01*
X147011443Y-86786466D01*
X146927778Y-86942991D01*
X146898448Y-86978729D01*
X146815186Y-87080186D01*
X146719812Y-87158456D01*
X146677991Y-87192778D01*
X146521466Y-87276443D01*
X146351627Y-87327963D01*
X146285442Y-87334482D01*
X146219260Y-87341000D01*
X145880740Y-87341000D01*
X145814558Y-87334482D01*
X145748373Y-87327963D01*
X145578534Y-87276443D01*
X145422009Y-87192778D01*
X145380188Y-87158456D01*
X145284814Y-87080186D01*
X145201552Y-86978729D01*
X145172222Y-86942991D01*
X145088557Y-86786466D01*
X145037037Y-86616627D01*
X145019641Y-86440000D01*
X145037037Y-86263373D01*
X145088557Y-86093534D01*
X145172222Y-85937009D01*
X145201552Y-85901271D01*
X145284814Y-85799814D01*
X145386271Y-85716552D01*
X145422009Y-85687222D01*
X145578534Y-85603557D01*
X145748373Y-85552037D01*
X145814557Y-85545519D01*
X145880740Y-85539000D01*
X146219260Y-85539000D01*
X146285443Y-85545519D01*
G37*
G36*
X89013512Y-85463927D02*
G01*
X89162812Y-85493624D01*
X89326784Y-85561544D01*
X89474354Y-85660147D01*
X89599853Y-85785646D01*
X89698456Y-85933216D01*
X89766376Y-86097188D01*
X89796073Y-86246488D01*
X89799432Y-86263373D01*
X89801000Y-86271259D01*
X89801000Y-86448741D01*
X89766376Y-86622812D01*
X89698456Y-86786784D01*
X89599853Y-86934354D01*
X89474354Y-87059853D01*
X89326784Y-87158456D01*
X89162812Y-87226376D01*
X89013512Y-87256073D01*
X88988742Y-87261000D01*
X88811258Y-87261000D01*
X88786488Y-87256073D01*
X88637188Y-87226376D01*
X88473216Y-87158456D01*
X88325646Y-87059853D01*
X88200147Y-86934354D01*
X88101544Y-86786784D01*
X88033624Y-86622812D01*
X87999000Y-86448741D01*
X87999000Y-86271259D01*
X88000569Y-86263373D01*
X88003927Y-86246488D01*
X88033624Y-86097188D01*
X88101544Y-85933216D01*
X88200147Y-85785646D01*
X88325646Y-85660147D01*
X88473216Y-85561544D01*
X88637188Y-85493624D01*
X88786488Y-85463927D01*
X88811258Y-85459000D01*
X88988742Y-85459000D01*
X89013512Y-85463927D01*
G37*
G36*
X63613512Y-85463927D02*
G01*
X63762812Y-85493624D01*
X63926784Y-85561544D01*
X64074354Y-85660147D01*
X64199853Y-85785646D01*
X64298456Y-85933216D01*
X64366376Y-86097188D01*
X64396073Y-86246488D01*
X64399432Y-86263373D01*
X64401000Y-86271259D01*
X64401000Y-86448741D01*
X64366376Y-86622812D01*
X64298456Y-86786784D01*
X64199853Y-86934354D01*
X64074354Y-87059853D01*
X63926784Y-87158456D01*
X63762812Y-87226376D01*
X63613512Y-87256073D01*
X63588742Y-87261000D01*
X63411258Y-87261000D01*
X63386488Y-87256073D01*
X63237188Y-87226376D01*
X63073216Y-87158456D01*
X62925646Y-87059853D01*
X62800147Y-86934354D01*
X62701544Y-86786784D01*
X62633624Y-86622812D01*
X62599000Y-86448741D01*
X62599000Y-86271259D01*
X62600569Y-86263373D01*
X62603927Y-86246488D01*
X62633624Y-86097188D01*
X62701544Y-85933216D01*
X62800147Y-85785646D01*
X62925646Y-85660147D01*
X63073216Y-85561544D01*
X63237188Y-85493624D01*
X63386488Y-85463927D01*
X63411258Y-85459000D01*
X63588742Y-85459000D01*
X63613512Y-85463927D01*
G37*
G36*
X111238512Y-85463927D02*
G01*
X111387812Y-85493624D01*
X111551784Y-85561544D01*
X111699354Y-85660147D01*
X111824853Y-85785646D01*
X111923456Y-85933216D01*
X111991376Y-86097188D01*
X112021073Y-86246488D01*
X112024432Y-86263373D01*
X112026000Y-86271259D01*
X112026000Y-86448741D01*
X111991376Y-86622812D01*
X111923456Y-86786784D01*
X111824853Y-86934354D01*
X111699354Y-87059853D01*
X111551784Y-87158456D01*
X111387812Y-87226376D01*
X111238512Y-87256073D01*
X111213742Y-87261000D01*
X111036258Y-87261000D01*
X111011488Y-87256073D01*
X110862188Y-87226376D01*
X110698216Y-87158456D01*
X110550646Y-87059853D01*
X110425147Y-86934354D01*
X110326544Y-86786784D01*
X110258624Y-86622812D01*
X110224000Y-86448741D01*
X110224000Y-86271259D01*
X110225569Y-86263373D01*
X110228927Y-86246488D01*
X110258624Y-86097188D01*
X110326544Y-85933216D01*
X110425147Y-85785646D01*
X110550646Y-85660147D01*
X110698216Y-85561544D01*
X110862188Y-85493624D01*
X111011488Y-85463927D01*
X111036258Y-85459000D01*
X111213742Y-85459000D01*
X111238512Y-85463927D01*
G37*
G36*
X136638512Y-85463927D02*
G01*
X136787812Y-85493624D01*
X136951784Y-85561544D01*
X137099354Y-85660147D01*
X137224853Y-85785646D01*
X137323456Y-85933216D01*
X137391376Y-86097188D01*
X137421073Y-86246488D01*
X137424432Y-86263373D01*
X137426000Y-86271259D01*
X137426000Y-86448741D01*
X137391376Y-86622812D01*
X137323456Y-86786784D01*
X137224853Y-86934354D01*
X137099354Y-87059853D01*
X136951784Y-87158456D01*
X136787812Y-87226376D01*
X136638512Y-87256073D01*
X136613742Y-87261000D01*
X136436258Y-87261000D01*
X136411488Y-87256073D01*
X136262188Y-87226376D01*
X136098216Y-87158456D01*
X135950646Y-87059853D01*
X135825147Y-86934354D01*
X135726544Y-86786784D01*
X135658624Y-86622812D01*
X135624000Y-86448741D01*
X135624000Y-86271259D01*
X135625569Y-86263373D01*
X135628927Y-86246488D01*
X135658624Y-86097188D01*
X135726544Y-85933216D01*
X135825147Y-85785646D01*
X135950646Y-85660147D01*
X136098216Y-85561544D01*
X136262188Y-85493624D01*
X136411488Y-85463927D01*
X136436258Y-85459000D01*
X136613742Y-85459000D01*
X136638512Y-85463927D01*
G37*
G36*
X95485443Y-84155519D02*
G01*
X95551627Y-84162037D01*
X95721466Y-84213557D01*
X95877991Y-84297222D01*
X95913729Y-84326552D01*
X96015186Y-84409814D01*
X96098448Y-84511271D01*
X96127778Y-84547009D01*
X96211443Y-84703534D01*
X96262963Y-84873373D01*
X96280359Y-85050000D01*
X96262963Y-85226627D01*
X96211443Y-85396466D01*
X96127778Y-85552991D01*
X96098448Y-85588729D01*
X96015186Y-85690186D01*
X95913729Y-85773448D01*
X95877991Y-85802778D01*
X95721466Y-85886443D01*
X95551627Y-85937963D01*
X95485442Y-85944482D01*
X95419260Y-85951000D01*
X95080740Y-85951000D01*
X95014558Y-85944482D01*
X94948373Y-85937963D01*
X94778534Y-85886443D01*
X94622009Y-85802778D01*
X94586271Y-85773448D01*
X94484814Y-85690186D01*
X94401552Y-85588729D01*
X94372222Y-85552991D01*
X94288557Y-85396466D01*
X94237037Y-85226627D01*
X94219641Y-85050000D01*
X94237037Y-84873373D01*
X94288557Y-84703534D01*
X94372222Y-84547009D01*
X94401552Y-84511271D01*
X94484814Y-84409814D01*
X94586271Y-84326552D01*
X94622009Y-84297222D01*
X94778534Y-84213557D01*
X94948373Y-84162037D01*
X95014557Y-84155519D01*
X95080740Y-84149000D01*
X95419260Y-84149000D01*
X95485443Y-84155519D01*
G37*
G36*
X101956032Y-82364207D02*
G01*
X102154146Y-82424305D01*
X102154149Y-82424306D01*
X102204615Y-82451281D01*
X102336729Y-82521897D01*
X102496765Y-82653235D01*
X102628103Y-82813271D01*
X102647343Y-82849267D01*
X102725694Y-82995851D01*
X102725695Y-82995854D01*
X102785793Y-83193969D01*
X102801000Y-83348371D01*
X102801000Y-84251630D01*
X102785793Y-84406032D01*
X102743027Y-84547011D01*
X102725694Y-84604149D01*
X102673939Y-84700975D01*
X102628103Y-84786729D01*
X102496765Y-84946765D01*
X102336729Y-85078103D01*
X102220030Y-85140479D01*
X102154148Y-85175694D01*
X102154145Y-85175695D01*
X101956031Y-85235793D01*
X101750000Y-85256085D01*
X101543968Y-85235793D01*
X101345854Y-85175695D01*
X101345851Y-85175694D01*
X101249025Y-85123939D01*
X101163271Y-85078103D01*
X101003235Y-84946765D01*
X100871897Y-84786729D01*
X100774307Y-84604149D01*
X100774306Y-84604148D01*
X100774305Y-84604145D01*
X100714207Y-84406031D01*
X100699000Y-84251629D01*
X100699000Y-83348370D01*
X100699662Y-83341652D01*
X100714207Y-83193970D01*
X100774305Y-82995853D01*
X100852658Y-82849266D01*
X100871898Y-82813271D01*
X101003236Y-82653235D01*
X101163272Y-82521897D01*
X101295386Y-82451281D01*
X101345852Y-82424306D01*
X101345855Y-82424305D01*
X101543969Y-82364207D01*
X101750000Y-82343915D01*
X101956032Y-82364207D01*
G37*
G36*
X63613512Y-82923927D02*
G01*
X63762812Y-82953624D01*
X63926784Y-83021544D01*
X64074354Y-83120147D01*
X64199853Y-83245646D01*
X64298456Y-83393216D01*
X64366376Y-83557188D01*
X64401000Y-83731259D01*
X64401000Y-83908741D01*
X64366376Y-84082812D01*
X64298456Y-84246784D01*
X64199853Y-84394354D01*
X64074354Y-84519853D01*
X63926784Y-84618456D01*
X63762812Y-84686376D01*
X63613512Y-84716073D01*
X63588742Y-84721000D01*
X63411258Y-84721000D01*
X63386488Y-84716073D01*
X63237188Y-84686376D01*
X63073216Y-84618456D01*
X62925646Y-84519853D01*
X62800147Y-84394354D01*
X62701544Y-84246784D01*
X62633624Y-84082812D01*
X62599000Y-83908741D01*
X62599000Y-83731259D01*
X62633624Y-83557188D01*
X62701544Y-83393216D01*
X62800147Y-83245646D01*
X62925646Y-83120147D01*
X63073216Y-83021544D01*
X63237188Y-82953624D01*
X63386488Y-82923927D01*
X63411258Y-82919000D01*
X63588742Y-82919000D01*
X63613512Y-82923927D01*
G37*
G36*
X136638512Y-82923927D02*
G01*
X136787812Y-82953624D01*
X136951784Y-83021544D01*
X137099354Y-83120147D01*
X137224853Y-83245646D01*
X137323456Y-83393216D01*
X137391376Y-83557188D01*
X137426000Y-83731259D01*
X137426000Y-83908741D01*
X137391376Y-84082812D01*
X137323456Y-84246784D01*
X137224853Y-84394354D01*
X137099354Y-84519853D01*
X136951784Y-84618456D01*
X136787812Y-84686376D01*
X136638512Y-84716073D01*
X136613742Y-84721000D01*
X136436258Y-84721000D01*
X136411488Y-84716073D01*
X136262188Y-84686376D01*
X136098216Y-84618456D01*
X135950646Y-84519853D01*
X135825147Y-84394354D01*
X135726544Y-84246784D01*
X135658624Y-84082812D01*
X135624000Y-83908741D01*
X135624000Y-83731259D01*
X135658624Y-83557188D01*
X135726544Y-83393216D01*
X135825147Y-83245646D01*
X135950646Y-83120147D01*
X136098216Y-83021544D01*
X136262188Y-82953624D01*
X136411488Y-82923927D01*
X136436258Y-82919000D01*
X136613742Y-82919000D01*
X136638512Y-82923927D01*
G37*
G36*
X89013512Y-82923927D02*
G01*
X89162812Y-82953624D01*
X89326784Y-83021544D01*
X89474354Y-83120147D01*
X89599853Y-83245646D01*
X89698456Y-83393216D01*
X89766376Y-83557188D01*
X89801000Y-83731259D01*
X89801000Y-83908741D01*
X89766376Y-84082812D01*
X89698456Y-84246784D01*
X89599853Y-84394354D01*
X89474354Y-84519853D01*
X89326784Y-84618456D01*
X89162812Y-84686376D01*
X89013512Y-84716073D01*
X88988742Y-84721000D01*
X88811258Y-84721000D01*
X88786488Y-84716073D01*
X88637188Y-84686376D01*
X88473216Y-84618456D01*
X88325646Y-84519853D01*
X88200147Y-84394354D01*
X88101544Y-84246784D01*
X88033624Y-84082812D01*
X87999000Y-83908741D01*
X87999000Y-83731259D01*
X88033624Y-83557188D01*
X88101544Y-83393216D01*
X88200147Y-83245646D01*
X88325646Y-83120147D01*
X88473216Y-83021544D01*
X88637188Y-82953624D01*
X88786488Y-82923927D01*
X88811258Y-82919000D01*
X88988742Y-82919000D01*
X89013512Y-82923927D01*
G37*
G36*
X111238512Y-82923927D02*
G01*
X111387812Y-82953624D01*
X111551784Y-83021544D01*
X111699354Y-83120147D01*
X111824853Y-83245646D01*
X111923456Y-83393216D01*
X111991376Y-83557188D01*
X112026000Y-83731259D01*
X112026000Y-83908741D01*
X111991376Y-84082812D01*
X111923456Y-84246784D01*
X111824853Y-84394354D01*
X111699354Y-84519853D01*
X111551784Y-84618456D01*
X111387812Y-84686376D01*
X111238512Y-84716073D01*
X111213742Y-84721000D01*
X111036258Y-84721000D01*
X111011488Y-84716073D01*
X110862188Y-84686376D01*
X110698216Y-84618456D01*
X110550646Y-84519853D01*
X110425147Y-84394354D01*
X110326544Y-84246784D01*
X110258624Y-84082812D01*
X110224000Y-83908741D01*
X110224000Y-83731259D01*
X110258624Y-83557188D01*
X110326544Y-83393216D01*
X110425147Y-83245646D01*
X110550646Y-83120147D01*
X110698216Y-83021544D01*
X110862188Y-82953624D01*
X111011488Y-82923927D01*
X111036258Y-82919000D01*
X111213742Y-82919000D01*
X111238512Y-82923927D01*
G37*
G36*
X78964549Y-82056116D02*
G01*
X79075734Y-82078232D01*
X79285203Y-82164997D01*
X79473720Y-82290960D01*
X79634040Y-82451280D01*
X79760003Y-82639797D01*
X79832989Y-82816000D01*
X79846768Y-82849267D01*
X79891000Y-83071635D01*
X79891000Y-83298365D01*
X79876078Y-83373383D01*
X79846768Y-83520734D01*
X79760003Y-83730203D01*
X79634040Y-83918720D01*
X79473720Y-84079040D01*
X79285203Y-84205003D01*
X79285202Y-84205004D01*
X79285201Y-84205004D01*
X79223850Y-84230416D01*
X79075734Y-84291768D01*
X78964549Y-84313884D01*
X78853365Y-84336000D01*
X78626635Y-84336000D01*
X78515451Y-84313884D01*
X78404266Y-84291768D01*
X78256150Y-84230416D01*
X78194799Y-84205004D01*
X78194798Y-84205004D01*
X78194797Y-84205003D01*
X78006280Y-84079040D01*
X77845960Y-83918720D01*
X77719997Y-83730203D01*
X77633232Y-83520734D01*
X77603922Y-83373383D01*
X77589000Y-83298365D01*
X77589000Y-83071635D01*
X77633232Y-82849267D01*
X77647012Y-82816000D01*
X77719997Y-82639797D01*
X77845960Y-82451280D01*
X78006280Y-82290960D01*
X78194797Y-82164997D01*
X78404266Y-82078232D01*
X78515451Y-82056116D01*
X78626635Y-82034000D01*
X78853365Y-82034000D01*
X78964549Y-82056116D01*
G37*
G36*
X123411000Y-84076000D02*
G01*
X122309000Y-84076000D01*
X122309000Y-82474000D01*
X123411000Y-82474000D01*
X123411000Y-84076000D01*
G37*
G36*
X126611000Y-84076000D02*
G01*
X125509000Y-84076000D01*
X125509000Y-82474000D01*
X126611000Y-82474000D01*
X126611000Y-84076000D01*
G37*
G36*
X96133600Y-81652989D02*
G01*
X96166652Y-81663015D01*
X96197103Y-81679292D01*
X96223799Y-81701201D01*
X96245708Y-81727897D01*
X96261985Y-81758348D01*
X96272011Y-81791400D01*
X96276000Y-81831903D01*
X96276000Y-83268097D01*
X96272011Y-83308600D01*
X96261985Y-83341652D01*
X96245708Y-83372103D01*
X96223799Y-83398799D01*
X96197103Y-83420708D01*
X96166652Y-83436985D01*
X96133600Y-83447011D01*
X96093097Y-83451000D01*
X94406903Y-83451000D01*
X94366400Y-83447011D01*
X94333348Y-83436985D01*
X94302897Y-83420708D01*
X94276201Y-83398799D01*
X94254292Y-83372103D01*
X94238015Y-83341652D01*
X94227989Y-83308600D01*
X94224000Y-83268097D01*
X94224000Y-81831903D01*
X94227989Y-81791400D01*
X94238015Y-81758348D01*
X94254292Y-81727897D01*
X94276201Y-81701201D01*
X94302897Y-81679292D01*
X94333348Y-81663015D01*
X94366400Y-81652989D01*
X94406903Y-81649000D01*
X96093097Y-81649000D01*
X96133600Y-81652989D01*
G37*
G36*
X76304769Y-81017188D02*
G01*
X76462812Y-81048624D01*
X76626784Y-81116544D01*
X76774354Y-81215147D01*
X76899853Y-81340646D01*
X76998456Y-81488216D01*
X77066376Y-81652188D01*
X77101000Y-81826259D01*
X77101000Y-82003741D01*
X77066376Y-82177812D01*
X76998456Y-82341784D01*
X76899853Y-82489354D01*
X76774354Y-82614853D01*
X76626784Y-82713456D01*
X76462812Y-82781376D01*
X76313512Y-82811073D01*
X76288742Y-82816000D01*
X76111258Y-82816000D01*
X76086488Y-82811073D01*
X75937188Y-82781376D01*
X75773216Y-82713456D01*
X75625646Y-82614853D01*
X75500147Y-82489354D01*
X75401544Y-82341784D01*
X75333624Y-82177812D01*
X75299000Y-82003741D01*
X75299000Y-81826259D01*
X75333624Y-81652188D01*
X75401544Y-81488216D01*
X75500147Y-81340646D01*
X75625646Y-81215147D01*
X75773216Y-81116544D01*
X75937188Y-81048624D01*
X76095231Y-81017188D01*
X76111258Y-81014000D01*
X76288742Y-81014000D01*
X76304769Y-81017188D01*
G37*
G36*
X136638512Y-80383927D02*
G01*
X136787812Y-80413624D01*
X136951784Y-80481544D01*
X137099354Y-80580147D01*
X137224853Y-80705646D01*
X137323456Y-80853216D01*
X137391376Y-81017188D01*
X137426000Y-81191259D01*
X137426000Y-81368741D01*
X137391376Y-81542812D01*
X137323456Y-81706784D01*
X137224853Y-81854354D01*
X137099354Y-81979853D01*
X136951784Y-82078456D01*
X136787812Y-82146376D01*
X136638512Y-82176073D01*
X136613742Y-82181000D01*
X136436258Y-82181000D01*
X136411488Y-82176073D01*
X136262188Y-82146376D01*
X136098216Y-82078456D01*
X135950646Y-81979853D01*
X135825147Y-81854354D01*
X135726544Y-81706784D01*
X135658624Y-81542812D01*
X135624000Y-81368741D01*
X135624000Y-81191259D01*
X135658624Y-81017188D01*
X135726544Y-80853216D01*
X135825147Y-80705646D01*
X135950646Y-80580147D01*
X136098216Y-80481544D01*
X136262188Y-80413624D01*
X136411488Y-80383927D01*
X136436258Y-80379000D01*
X136613742Y-80379000D01*
X136638512Y-80383927D01*
G37*
G36*
X63613512Y-80383927D02*
G01*
X63762812Y-80413624D01*
X63926784Y-80481544D01*
X64074354Y-80580147D01*
X64199853Y-80705646D01*
X64298456Y-80853216D01*
X64366376Y-81017188D01*
X64401000Y-81191259D01*
X64401000Y-81368741D01*
X64366376Y-81542812D01*
X64298456Y-81706784D01*
X64199853Y-81854354D01*
X64074354Y-81979853D01*
X63926784Y-82078456D01*
X63762812Y-82146376D01*
X63613512Y-82176073D01*
X63588742Y-82181000D01*
X63411258Y-82181000D01*
X63386488Y-82176073D01*
X63237188Y-82146376D01*
X63073216Y-82078456D01*
X62925646Y-81979853D01*
X62800147Y-81854354D01*
X62701544Y-81706784D01*
X62633624Y-81542812D01*
X62599000Y-81368741D01*
X62599000Y-81191259D01*
X62633624Y-81017188D01*
X62701544Y-80853216D01*
X62800147Y-80705646D01*
X62925646Y-80580147D01*
X63073216Y-80481544D01*
X63237188Y-80413624D01*
X63386488Y-80383927D01*
X63411258Y-80379000D01*
X63588742Y-80379000D01*
X63613512Y-80383927D01*
G37*
G36*
X89013512Y-80383927D02*
G01*
X89162812Y-80413624D01*
X89326784Y-80481544D01*
X89474354Y-80580147D01*
X89599853Y-80705646D01*
X89698456Y-80853216D01*
X89766376Y-81017188D01*
X89801000Y-81191259D01*
X89801000Y-81368741D01*
X89766376Y-81542812D01*
X89698456Y-81706784D01*
X89599853Y-81854354D01*
X89474354Y-81979853D01*
X89326784Y-82078456D01*
X89162812Y-82146376D01*
X89013512Y-82176073D01*
X88988742Y-82181000D01*
X88811258Y-82181000D01*
X88786488Y-82176073D01*
X88637188Y-82146376D01*
X88473216Y-82078456D01*
X88325646Y-81979853D01*
X88200147Y-81854354D01*
X88101544Y-81706784D01*
X88033624Y-81542812D01*
X87999000Y-81368741D01*
X87999000Y-81191259D01*
X88033624Y-81017188D01*
X88101544Y-80853216D01*
X88200147Y-80705646D01*
X88325646Y-80580147D01*
X88473216Y-80481544D01*
X88637188Y-80413624D01*
X88786488Y-80383927D01*
X88811258Y-80379000D01*
X88988742Y-80379000D01*
X89013512Y-80383927D01*
G37*
G36*
X111238512Y-80383927D02*
G01*
X111387812Y-80413624D01*
X111551784Y-80481544D01*
X111699354Y-80580147D01*
X111824853Y-80705646D01*
X111923456Y-80853216D01*
X111991376Y-81017188D01*
X112026000Y-81191259D01*
X112026000Y-81368741D01*
X111991376Y-81542812D01*
X111923456Y-81706784D01*
X111824853Y-81854354D01*
X111699354Y-81979853D01*
X111551784Y-82078456D01*
X111387812Y-82146376D01*
X111238512Y-82176073D01*
X111213742Y-82181000D01*
X111036258Y-82181000D01*
X111011488Y-82176073D01*
X110862188Y-82146376D01*
X110698216Y-82078456D01*
X110550646Y-81979853D01*
X110425147Y-81854354D01*
X110326544Y-81706784D01*
X110258624Y-81542812D01*
X110224000Y-81368741D01*
X110224000Y-81191259D01*
X110258624Y-81017188D01*
X110326544Y-80853216D01*
X110425147Y-80705646D01*
X110550646Y-80580147D01*
X110698216Y-80481544D01*
X110862188Y-80413624D01*
X111011488Y-80383927D01*
X111036258Y-80379000D01*
X111213742Y-80379000D01*
X111238512Y-80383927D01*
G37*
G36*
X136638512Y-77843927D02*
G01*
X136787812Y-77873624D01*
X136951784Y-77941544D01*
X137099354Y-78040147D01*
X137224853Y-78165646D01*
X137323456Y-78313216D01*
X137391376Y-78477188D01*
X137426000Y-78651259D01*
X137426000Y-78828741D01*
X137391376Y-79002812D01*
X137323456Y-79166784D01*
X137224853Y-79314354D01*
X137099354Y-79439853D01*
X136951784Y-79538456D01*
X136787812Y-79606376D01*
X136638512Y-79636073D01*
X136613742Y-79641000D01*
X136436258Y-79641000D01*
X136411488Y-79636073D01*
X136262188Y-79606376D01*
X136098216Y-79538456D01*
X135950646Y-79439853D01*
X135825147Y-79314354D01*
X135726544Y-79166784D01*
X135658624Y-79002812D01*
X135624000Y-78828741D01*
X135624000Y-78651259D01*
X135658624Y-78477188D01*
X135726544Y-78313216D01*
X135825147Y-78165646D01*
X135950646Y-78040147D01*
X136098216Y-77941544D01*
X136262188Y-77873624D01*
X136411488Y-77843927D01*
X136436258Y-77839000D01*
X136613742Y-77839000D01*
X136638512Y-77843927D01*
G37*
G36*
X111238512Y-77843927D02*
G01*
X111387812Y-77873624D01*
X111551784Y-77941544D01*
X111699354Y-78040147D01*
X111824853Y-78165646D01*
X111923456Y-78313216D01*
X111991376Y-78477188D01*
X112026000Y-78651259D01*
X112026000Y-78828741D01*
X111991376Y-79002812D01*
X111923456Y-79166784D01*
X111824853Y-79314354D01*
X111699354Y-79439853D01*
X111551784Y-79538456D01*
X111387812Y-79606376D01*
X111238512Y-79636073D01*
X111213742Y-79641000D01*
X111036258Y-79641000D01*
X111011488Y-79636073D01*
X110862188Y-79606376D01*
X110698216Y-79538456D01*
X110550646Y-79439853D01*
X110425147Y-79314354D01*
X110326544Y-79166784D01*
X110258624Y-79002812D01*
X110224000Y-78828741D01*
X110224000Y-78651259D01*
X110258624Y-78477188D01*
X110326544Y-78313216D01*
X110425147Y-78165646D01*
X110550646Y-78040147D01*
X110698216Y-77941544D01*
X110862188Y-77873624D01*
X111011488Y-77843927D01*
X111036258Y-77839000D01*
X111213742Y-77839000D01*
X111238512Y-77843927D01*
G37*
G36*
X89013512Y-77843927D02*
G01*
X89162812Y-77873624D01*
X89326784Y-77941544D01*
X89474354Y-78040147D01*
X89599853Y-78165646D01*
X89698456Y-78313216D01*
X89766376Y-78477188D01*
X89801000Y-78651259D01*
X89801000Y-78828741D01*
X89766376Y-79002812D01*
X89698456Y-79166784D01*
X89599853Y-79314354D01*
X89474354Y-79439853D01*
X89326784Y-79538456D01*
X89162812Y-79606376D01*
X89013512Y-79636073D01*
X88988742Y-79641000D01*
X88811258Y-79641000D01*
X88786488Y-79636073D01*
X88637188Y-79606376D01*
X88473216Y-79538456D01*
X88325646Y-79439853D01*
X88200147Y-79314354D01*
X88101544Y-79166784D01*
X88033624Y-79002812D01*
X87999000Y-78828741D01*
X87999000Y-78651259D01*
X88033624Y-78477188D01*
X88101544Y-78313216D01*
X88200147Y-78165646D01*
X88325646Y-78040147D01*
X88473216Y-77941544D01*
X88637188Y-77873624D01*
X88786488Y-77843927D01*
X88811258Y-77839000D01*
X88988742Y-77839000D01*
X89013512Y-77843927D01*
G37*
G36*
X63613512Y-77843927D02*
G01*
X63762812Y-77873624D01*
X63926784Y-77941544D01*
X64074354Y-78040147D01*
X64199853Y-78165646D01*
X64298456Y-78313216D01*
X64366376Y-78477188D01*
X64401000Y-78651259D01*
X64401000Y-78828741D01*
X64366376Y-79002812D01*
X64298456Y-79166784D01*
X64199853Y-79314354D01*
X64074354Y-79439853D01*
X63926784Y-79538456D01*
X63762812Y-79606376D01*
X63613512Y-79636073D01*
X63588742Y-79641000D01*
X63411258Y-79641000D01*
X63386488Y-79636073D01*
X63237188Y-79606376D01*
X63073216Y-79538456D01*
X62925646Y-79439853D01*
X62800147Y-79314354D01*
X62701544Y-79166784D01*
X62633624Y-79002812D01*
X62599000Y-78828741D01*
X62599000Y-78651259D01*
X62633624Y-78477188D01*
X62701544Y-78313216D01*
X62800147Y-78165646D01*
X62925646Y-78040147D01*
X63073216Y-77941544D01*
X63237188Y-77873624D01*
X63386488Y-77843927D01*
X63411258Y-77839000D01*
X63588742Y-77839000D01*
X63613512Y-77843927D01*
G37*
G36*
X123411000Y-78041000D02*
G01*
X122309000Y-78041000D01*
X122309000Y-76439000D01*
X123411000Y-76439000D01*
X123411000Y-78041000D01*
G37*
G36*
X126611000Y-78041000D02*
G01*
X125509000Y-78041000D01*
X125509000Y-76439000D01*
X126611000Y-76439000D01*
X126611000Y-78041000D01*
G37*
G36*
X136638512Y-75303927D02*
G01*
X136787812Y-75333624D01*
X136951784Y-75401544D01*
X137099354Y-75500147D01*
X137224853Y-75625646D01*
X137323456Y-75773216D01*
X137391376Y-75937188D01*
X137426000Y-76111259D01*
X137426000Y-76288741D01*
X137391376Y-76462812D01*
X137323456Y-76626784D01*
X137224853Y-76774354D01*
X137099354Y-76899853D01*
X136951784Y-76998456D01*
X136787812Y-77066376D01*
X136638512Y-77096073D01*
X136613742Y-77101000D01*
X136436258Y-77101000D01*
X136411488Y-77096073D01*
X136262188Y-77066376D01*
X136098216Y-76998456D01*
X135950646Y-76899853D01*
X135825147Y-76774354D01*
X135726544Y-76626784D01*
X135658624Y-76462812D01*
X135624000Y-76288741D01*
X135624000Y-76111259D01*
X135658624Y-75937188D01*
X135726544Y-75773216D01*
X135825147Y-75625646D01*
X135950646Y-75500147D01*
X136098216Y-75401544D01*
X136262188Y-75333624D01*
X136411488Y-75303927D01*
X136436258Y-75299000D01*
X136613742Y-75299000D01*
X136638512Y-75303927D01*
G37*
G36*
X63613512Y-75303927D02*
G01*
X63762812Y-75333624D01*
X63926784Y-75401544D01*
X64074354Y-75500147D01*
X64199853Y-75625646D01*
X64298456Y-75773216D01*
X64366376Y-75937188D01*
X64401000Y-76111259D01*
X64401000Y-76288741D01*
X64366376Y-76462812D01*
X64298456Y-76626784D01*
X64199853Y-76774354D01*
X64074354Y-76899853D01*
X63926784Y-76998456D01*
X63762812Y-77066376D01*
X63613512Y-77096073D01*
X63588742Y-77101000D01*
X63411258Y-77101000D01*
X63386488Y-77096073D01*
X63237188Y-77066376D01*
X63073216Y-76998456D01*
X62925646Y-76899853D01*
X62800147Y-76774354D01*
X62701544Y-76626784D01*
X62633624Y-76462812D01*
X62599000Y-76288741D01*
X62599000Y-76111259D01*
X62633624Y-75937188D01*
X62701544Y-75773216D01*
X62800147Y-75625646D01*
X62925646Y-75500147D01*
X63073216Y-75401544D01*
X63237188Y-75333624D01*
X63386488Y-75303927D01*
X63411258Y-75299000D01*
X63588742Y-75299000D01*
X63613512Y-75303927D01*
G37*
G36*
X89013512Y-75303927D02*
G01*
X89162812Y-75333624D01*
X89326784Y-75401544D01*
X89474354Y-75500147D01*
X89599853Y-75625646D01*
X89698456Y-75773216D01*
X89766376Y-75937188D01*
X89801000Y-76111259D01*
X89801000Y-76288741D01*
X89766376Y-76462812D01*
X89698456Y-76626784D01*
X89599853Y-76774354D01*
X89474354Y-76899853D01*
X89326784Y-76998456D01*
X89162812Y-77066376D01*
X89013512Y-77096073D01*
X88988742Y-77101000D01*
X88811258Y-77101000D01*
X88786488Y-77096073D01*
X88637188Y-77066376D01*
X88473216Y-76998456D01*
X88325646Y-76899853D01*
X88200147Y-76774354D01*
X88101544Y-76626784D01*
X88033624Y-76462812D01*
X87999000Y-76288741D01*
X87999000Y-76111259D01*
X88033624Y-75937188D01*
X88101544Y-75773216D01*
X88200147Y-75625646D01*
X88325646Y-75500147D01*
X88473216Y-75401544D01*
X88637188Y-75333624D01*
X88786488Y-75303927D01*
X88811258Y-75299000D01*
X88988742Y-75299000D01*
X89013512Y-75303927D01*
G37*
G36*
X111238512Y-75303927D02*
G01*
X111387812Y-75333624D01*
X111551784Y-75401544D01*
X111699354Y-75500147D01*
X111824853Y-75625646D01*
X111923456Y-75773216D01*
X111991376Y-75937188D01*
X112026000Y-76111259D01*
X112026000Y-76288741D01*
X111991376Y-76462812D01*
X111923456Y-76626784D01*
X111824853Y-76774354D01*
X111699354Y-76899853D01*
X111551784Y-76998456D01*
X111387812Y-77066376D01*
X111238512Y-77096073D01*
X111213742Y-77101000D01*
X111036258Y-77101000D01*
X111011488Y-77096073D01*
X110862188Y-77066376D01*
X110698216Y-76998456D01*
X110550646Y-76899853D01*
X110425147Y-76774354D01*
X110326544Y-76626784D01*
X110258624Y-76462812D01*
X110224000Y-76288741D01*
X110224000Y-76111259D01*
X110258624Y-75937188D01*
X110326544Y-75773216D01*
X110425147Y-75625646D01*
X110550646Y-75500147D01*
X110698216Y-75401544D01*
X110862188Y-75333624D01*
X111011488Y-75303927D01*
X111036258Y-75299000D01*
X111213742Y-75299000D01*
X111238512Y-75303927D01*
G37*
G36*
X95485443Y-73875519D02*
G01*
X95551627Y-73882037D01*
X95721466Y-73933557D01*
X95877991Y-74017222D01*
X95913729Y-74046552D01*
X96015186Y-74129814D01*
X96098448Y-74231271D01*
X96127778Y-74267009D01*
X96211443Y-74423534D01*
X96262963Y-74593373D01*
X96280359Y-74770000D01*
X96262963Y-74946627D01*
X96211443Y-75116466D01*
X96127778Y-75272991D01*
X96106433Y-75299000D01*
X96015186Y-75410186D01*
X95913729Y-75493448D01*
X95877991Y-75522778D01*
X95721466Y-75606443D01*
X95551627Y-75657963D01*
X95485442Y-75664482D01*
X95419260Y-75671000D01*
X95080740Y-75671000D01*
X95014558Y-75664482D01*
X94948373Y-75657963D01*
X94778534Y-75606443D01*
X94622009Y-75522778D01*
X94586271Y-75493448D01*
X94484814Y-75410186D01*
X94393567Y-75299000D01*
X94372222Y-75272991D01*
X94288557Y-75116466D01*
X94237037Y-74946627D01*
X94219641Y-74770000D01*
X94237037Y-74593373D01*
X94288557Y-74423534D01*
X94372222Y-74267009D01*
X94401552Y-74231271D01*
X94484814Y-74129814D01*
X94586271Y-74046552D01*
X94622009Y-74017222D01*
X94778534Y-73933557D01*
X94948373Y-73882037D01*
X95014557Y-73875519D01*
X95080740Y-73869000D01*
X95419260Y-73869000D01*
X95485443Y-73875519D01*
G37*
G36*
X89013512Y-72763927D02*
G01*
X89162812Y-72793624D01*
X89326784Y-72861544D01*
X89474354Y-72960147D01*
X89599853Y-73085646D01*
X89698456Y-73233216D01*
X89766376Y-73397188D01*
X89801000Y-73571259D01*
X89801000Y-73748741D01*
X89766376Y-73922812D01*
X89698456Y-74086784D01*
X89599853Y-74234354D01*
X89474354Y-74359853D01*
X89326784Y-74458456D01*
X89162812Y-74526376D01*
X89013512Y-74556073D01*
X88988742Y-74561000D01*
X88811258Y-74561000D01*
X88786488Y-74556073D01*
X88637188Y-74526376D01*
X88473216Y-74458456D01*
X88325646Y-74359853D01*
X88200147Y-74234354D01*
X88101544Y-74086784D01*
X88033624Y-73922812D01*
X87999000Y-73748741D01*
X87999000Y-73571259D01*
X88033624Y-73397188D01*
X88101544Y-73233216D01*
X88200147Y-73085646D01*
X88325646Y-72960147D01*
X88473216Y-72861544D01*
X88637188Y-72793624D01*
X88786488Y-72763927D01*
X88811258Y-72759000D01*
X88988742Y-72759000D01*
X89013512Y-72763927D01*
G37*
G36*
X63613512Y-72763927D02*
G01*
X63762812Y-72793624D01*
X63926784Y-72861544D01*
X64074354Y-72960147D01*
X64199853Y-73085646D01*
X64298456Y-73233216D01*
X64366376Y-73397188D01*
X64401000Y-73571259D01*
X64401000Y-73748741D01*
X64366376Y-73922812D01*
X64298456Y-74086784D01*
X64199853Y-74234354D01*
X64074354Y-74359853D01*
X63926784Y-74458456D01*
X63762812Y-74526376D01*
X63613512Y-74556073D01*
X63588742Y-74561000D01*
X63411258Y-74561000D01*
X63386488Y-74556073D01*
X63237188Y-74526376D01*
X63073216Y-74458456D01*
X62925646Y-74359853D01*
X62800147Y-74234354D01*
X62701544Y-74086784D01*
X62633624Y-73922812D01*
X62599000Y-73748741D01*
X62599000Y-73571259D01*
X62633624Y-73397188D01*
X62701544Y-73233216D01*
X62800147Y-73085646D01*
X62925646Y-72960147D01*
X63073216Y-72861544D01*
X63237188Y-72793624D01*
X63386488Y-72763927D01*
X63411258Y-72759000D01*
X63588742Y-72759000D01*
X63613512Y-72763927D01*
G37*
G36*
X136638512Y-72763927D02*
G01*
X136787812Y-72793624D01*
X136951784Y-72861544D01*
X137099354Y-72960147D01*
X137224853Y-73085646D01*
X137323456Y-73233216D01*
X137391376Y-73397188D01*
X137426000Y-73571259D01*
X137426000Y-73748741D01*
X137391376Y-73922812D01*
X137323456Y-74086784D01*
X137224853Y-74234354D01*
X137099354Y-74359853D01*
X136951784Y-74458456D01*
X136787812Y-74526376D01*
X136638512Y-74556073D01*
X136613742Y-74561000D01*
X136436258Y-74561000D01*
X136411488Y-74556073D01*
X136262188Y-74526376D01*
X136098216Y-74458456D01*
X135950646Y-74359853D01*
X135825147Y-74234354D01*
X135726544Y-74086784D01*
X135658624Y-73922812D01*
X135624000Y-73748741D01*
X135624000Y-73571259D01*
X135658624Y-73397188D01*
X135726544Y-73233216D01*
X135825147Y-73085646D01*
X135950646Y-72960147D01*
X136098216Y-72861544D01*
X136262188Y-72793624D01*
X136411488Y-72763927D01*
X136436258Y-72759000D01*
X136613742Y-72759000D01*
X136638512Y-72763927D01*
G37*
G36*
X111238512Y-72763927D02*
G01*
X111387812Y-72793624D01*
X111551784Y-72861544D01*
X111699354Y-72960147D01*
X111824853Y-73085646D01*
X111923456Y-73233216D01*
X111991376Y-73397188D01*
X112026000Y-73571259D01*
X112026000Y-73748741D01*
X111991376Y-73922812D01*
X111923456Y-74086784D01*
X111824853Y-74234354D01*
X111699354Y-74359853D01*
X111551784Y-74458456D01*
X111387812Y-74526376D01*
X111238512Y-74556073D01*
X111213742Y-74561000D01*
X111036258Y-74561000D01*
X111011488Y-74556073D01*
X110862188Y-74526376D01*
X110698216Y-74458456D01*
X110550646Y-74359853D01*
X110425147Y-74234354D01*
X110326544Y-74086784D01*
X110258624Y-73922812D01*
X110224000Y-73748741D01*
X110224000Y-73571259D01*
X110258624Y-73397188D01*
X110326544Y-73233216D01*
X110425147Y-73085646D01*
X110550646Y-72960147D01*
X110698216Y-72861544D01*
X110862188Y-72793624D01*
X111011488Y-72763927D01*
X111036258Y-72759000D01*
X111213742Y-72759000D01*
X111238512Y-72763927D01*
G37*
G36*
X95485443Y-71375519D02*
G01*
X95551627Y-71382037D01*
X95721466Y-71433557D01*
X95877991Y-71517222D01*
X95904527Y-71539000D01*
X96015186Y-71629814D01*
X96098448Y-71731271D01*
X96127778Y-71767009D01*
X96211443Y-71923534D01*
X96262963Y-72093373D01*
X96280359Y-72270000D01*
X96262963Y-72446627D01*
X96211443Y-72616466D01*
X96127778Y-72772991D01*
X96110845Y-72793624D01*
X96015186Y-72910186D01*
X95913729Y-72993448D01*
X95877991Y-73022778D01*
X95721466Y-73106443D01*
X95551627Y-73157963D01*
X95485443Y-73164481D01*
X95419260Y-73171000D01*
X95080740Y-73171000D01*
X95014557Y-73164481D01*
X94948373Y-73157963D01*
X94778534Y-73106443D01*
X94622009Y-73022778D01*
X94586271Y-72993448D01*
X94484814Y-72910186D01*
X94389155Y-72793624D01*
X94372222Y-72772991D01*
X94288557Y-72616466D01*
X94237037Y-72446627D01*
X94219641Y-72270000D01*
X94237037Y-72093373D01*
X94288557Y-71923534D01*
X94372222Y-71767009D01*
X94401552Y-71731271D01*
X94484814Y-71629814D01*
X94595473Y-71539000D01*
X94622009Y-71517222D01*
X94778534Y-71433557D01*
X94948373Y-71382037D01*
X95014557Y-71375519D01*
X95080740Y-71369000D01*
X95419260Y-71369000D01*
X95485443Y-71375519D01*
G37*
G36*
X123411000Y-73141000D02*
G01*
X122309000Y-73141000D01*
X122309000Y-71539000D01*
X123411000Y-71539000D01*
X123411000Y-73141000D01*
G37*
G36*
X126611000Y-73141000D02*
G01*
X125509000Y-73141000D01*
X125509000Y-71539000D01*
X126611000Y-71539000D01*
X126611000Y-73141000D01*
G37*
G36*
X111238512Y-70223927D02*
G01*
X111387812Y-70253624D01*
X111551784Y-70321544D01*
X111699354Y-70420147D01*
X111824853Y-70545646D01*
X111923456Y-70693216D01*
X111991376Y-70857188D01*
X112026000Y-71031259D01*
X112026000Y-71208741D01*
X111991376Y-71382812D01*
X111923456Y-71546784D01*
X111824853Y-71694354D01*
X111699354Y-71819853D01*
X111551784Y-71918456D01*
X111387812Y-71986376D01*
X111238512Y-72016073D01*
X111213742Y-72021000D01*
X111036258Y-72021000D01*
X111011488Y-72016073D01*
X110862188Y-71986376D01*
X110698216Y-71918456D01*
X110550646Y-71819853D01*
X110425147Y-71694354D01*
X110326544Y-71546784D01*
X110258624Y-71382812D01*
X110224000Y-71208741D01*
X110224000Y-71031259D01*
X110258624Y-70857188D01*
X110326544Y-70693216D01*
X110425147Y-70545646D01*
X110550646Y-70420147D01*
X110698216Y-70321544D01*
X110862188Y-70253624D01*
X111011488Y-70223927D01*
X111036258Y-70219000D01*
X111213742Y-70219000D01*
X111238512Y-70223927D01*
G37*
G36*
X136638512Y-70223927D02*
G01*
X136787812Y-70253624D01*
X136951784Y-70321544D01*
X137099354Y-70420147D01*
X137224853Y-70545646D01*
X137323456Y-70693216D01*
X137391376Y-70857188D01*
X137426000Y-71031259D01*
X137426000Y-71208741D01*
X137391376Y-71382812D01*
X137323456Y-71546784D01*
X137224853Y-71694354D01*
X137099354Y-71819853D01*
X136951784Y-71918456D01*
X136787812Y-71986376D01*
X136638512Y-72016073D01*
X136613742Y-72021000D01*
X136436258Y-72021000D01*
X136411488Y-72016073D01*
X136262188Y-71986376D01*
X136098216Y-71918456D01*
X135950646Y-71819853D01*
X135825147Y-71694354D01*
X135726544Y-71546784D01*
X135658624Y-71382812D01*
X135624000Y-71208741D01*
X135624000Y-71031259D01*
X135658624Y-70857188D01*
X135726544Y-70693216D01*
X135825147Y-70545646D01*
X135950646Y-70420147D01*
X136098216Y-70321544D01*
X136262188Y-70253624D01*
X136411488Y-70223927D01*
X136436258Y-70219000D01*
X136613742Y-70219000D01*
X136638512Y-70223927D01*
G37*
G36*
X89013512Y-70223927D02*
G01*
X89162812Y-70253624D01*
X89326784Y-70321544D01*
X89474354Y-70420147D01*
X89599853Y-70545646D01*
X89698456Y-70693216D01*
X89766376Y-70857188D01*
X89801000Y-71031259D01*
X89801000Y-71208741D01*
X89766376Y-71382812D01*
X89698456Y-71546784D01*
X89599853Y-71694354D01*
X89474354Y-71819853D01*
X89326784Y-71918456D01*
X89162812Y-71986376D01*
X89013512Y-72016073D01*
X88988742Y-72021000D01*
X88811258Y-72021000D01*
X88786488Y-72016073D01*
X88637188Y-71986376D01*
X88473216Y-71918456D01*
X88325646Y-71819853D01*
X88200147Y-71694354D01*
X88101544Y-71546784D01*
X88033624Y-71382812D01*
X87999000Y-71208741D01*
X87999000Y-71031259D01*
X88033624Y-70857188D01*
X88101544Y-70693216D01*
X88200147Y-70545646D01*
X88325646Y-70420147D01*
X88473216Y-70321544D01*
X88637188Y-70253624D01*
X88786488Y-70223927D01*
X88811258Y-70219000D01*
X88988742Y-70219000D01*
X89013512Y-70223927D01*
G37*
G36*
X63613512Y-70223927D02*
G01*
X63762812Y-70253624D01*
X63926784Y-70321544D01*
X64074354Y-70420147D01*
X64199853Y-70545646D01*
X64298456Y-70693216D01*
X64366376Y-70857188D01*
X64401000Y-71031259D01*
X64401000Y-71208741D01*
X64366376Y-71382812D01*
X64298456Y-71546784D01*
X64199853Y-71694354D01*
X64074354Y-71819853D01*
X63926784Y-71918456D01*
X63762812Y-71986376D01*
X63613512Y-72016073D01*
X63588742Y-72021000D01*
X63411258Y-72021000D01*
X63386488Y-72016073D01*
X63237188Y-71986376D01*
X63073216Y-71918456D01*
X62925646Y-71819853D01*
X62800147Y-71694354D01*
X62701544Y-71546784D01*
X62633624Y-71382812D01*
X62599000Y-71208741D01*
X62599000Y-71031259D01*
X62633624Y-70857188D01*
X62701544Y-70693216D01*
X62800147Y-70545646D01*
X62925646Y-70420147D01*
X63073216Y-70321544D01*
X63237188Y-70253624D01*
X63386488Y-70223927D01*
X63411258Y-70219000D01*
X63588742Y-70219000D01*
X63613512Y-70223927D01*
G37*
G36*
X101956032Y-68334207D02*
G01*
X102154146Y-68394305D01*
X102154149Y-68394306D01*
X102250975Y-68446061D01*
X102336729Y-68491897D01*
X102496765Y-68623235D01*
X102628103Y-68783271D01*
X102659928Y-68842812D01*
X102725694Y-68965851D01*
X102725695Y-68965854D01*
X102785793Y-69163969D01*
X102801000Y-69318371D01*
X102801000Y-70221630D01*
X102785793Y-70376032D01*
X102741277Y-70522779D01*
X102725694Y-70574149D01*
X102708433Y-70606442D01*
X102628103Y-70756729D01*
X102496765Y-70916765D01*
X102336729Y-71048103D01*
X102220030Y-71110479D01*
X102154148Y-71145694D01*
X102154145Y-71145695D01*
X101956031Y-71205793D01*
X101750000Y-71226085D01*
X101543968Y-71205793D01*
X101345854Y-71145695D01*
X101345851Y-71145694D01*
X101249025Y-71093939D01*
X101163271Y-71048103D01*
X101003235Y-70916765D01*
X100871897Y-70756729D01*
X100774307Y-70574149D01*
X100774306Y-70574148D01*
X100724568Y-70410185D01*
X100714207Y-70376031D01*
X100699000Y-70221629D01*
X100699000Y-69318370D01*
X100702794Y-69279852D01*
X100714207Y-69163970D01*
X100774305Y-68965853D01*
X100856876Y-68811375D01*
X100871898Y-68783271D01*
X101003236Y-68623235D01*
X101163272Y-68491897D01*
X101249026Y-68446061D01*
X101345852Y-68394306D01*
X101345855Y-68394305D01*
X101543969Y-68334207D01*
X101750000Y-68313915D01*
X101956032Y-68334207D01*
G37*
G36*
X95485443Y-68875519D02*
G01*
X95551627Y-68882037D01*
X95721466Y-68933557D01*
X95877991Y-69017222D01*
X95913729Y-69046552D01*
X96015186Y-69129814D01*
X96098448Y-69231271D01*
X96127778Y-69267009D01*
X96211443Y-69423534D01*
X96262963Y-69593373D01*
X96280359Y-69770000D01*
X96262963Y-69946627D01*
X96211443Y-70116466D01*
X96127778Y-70272991D01*
X96098448Y-70308729D01*
X96015186Y-70410186D01*
X95913729Y-70493448D01*
X95877991Y-70522778D01*
X95721466Y-70606443D01*
X95551627Y-70657963D01*
X95485442Y-70664482D01*
X95419260Y-70671000D01*
X95080740Y-70671000D01*
X95014558Y-70664482D01*
X94948373Y-70657963D01*
X94778534Y-70606443D01*
X94622009Y-70522778D01*
X94586271Y-70493448D01*
X94484814Y-70410186D01*
X94401552Y-70308729D01*
X94372222Y-70272991D01*
X94288557Y-70116466D01*
X94237037Y-69946627D01*
X94219641Y-69770000D01*
X94237037Y-69593373D01*
X94288557Y-69423534D01*
X94372222Y-69267009D01*
X94401552Y-69231271D01*
X94484814Y-69129814D01*
X94586271Y-69046552D01*
X94622009Y-69017222D01*
X94778534Y-68933557D01*
X94948373Y-68882037D01*
X95014557Y-68875519D01*
X95080740Y-68869000D01*
X95419260Y-68869000D01*
X95485443Y-68875519D01*
G37*
G36*
X136629769Y-67682188D02*
G01*
X136787812Y-67713624D01*
X136951784Y-67781544D01*
X137099354Y-67880147D01*
X137224853Y-68005646D01*
X137323456Y-68153216D01*
X137391376Y-68317188D01*
X137426000Y-68491259D01*
X137426000Y-68668741D01*
X137391376Y-68842812D01*
X137323456Y-69006784D01*
X137224853Y-69154354D01*
X137099354Y-69279853D01*
X136951784Y-69378456D01*
X136787812Y-69446376D01*
X136638512Y-69476073D01*
X136613742Y-69481000D01*
X136436258Y-69481000D01*
X136411488Y-69476073D01*
X136262188Y-69446376D01*
X136098216Y-69378456D01*
X135950646Y-69279853D01*
X135825147Y-69154354D01*
X135726544Y-69006784D01*
X135658624Y-68842812D01*
X135624000Y-68668741D01*
X135624000Y-68491259D01*
X135658624Y-68317188D01*
X135726544Y-68153216D01*
X135825147Y-68005646D01*
X135950646Y-67880147D01*
X136098216Y-67781544D01*
X136262188Y-67713624D01*
X136420231Y-67682188D01*
X136436258Y-67679000D01*
X136613742Y-67679000D01*
X136629769Y-67682188D01*
G37*
G36*
X89004769Y-67682188D02*
G01*
X89162812Y-67713624D01*
X89326784Y-67781544D01*
X89474354Y-67880147D01*
X89599853Y-68005646D01*
X89698456Y-68153216D01*
X89766376Y-68317188D01*
X89801000Y-68491259D01*
X89801000Y-68668741D01*
X89766376Y-68842812D01*
X89698456Y-69006784D01*
X89599853Y-69154354D01*
X89474354Y-69279853D01*
X89326784Y-69378456D01*
X89162812Y-69446376D01*
X89013512Y-69476073D01*
X88988742Y-69481000D01*
X88811258Y-69481000D01*
X88786488Y-69476073D01*
X88637188Y-69446376D01*
X88473216Y-69378456D01*
X88325646Y-69279853D01*
X88200147Y-69154354D01*
X88101544Y-69006784D01*
X88033624Y-68842812D01*
X87999000Y-68668741D01*
X87999000Y-68491259D01*
X88033624Y-68317188D01*
X88101544Y-68153216D01*
X88200147Y-68005646D01*
X88325646Y-67880147D01*
X88473216Y-67781544D01*
X88637188Y-67713624D01*
X88795231Y-67682188D01*
X88811258Y-67679000D01*
X88988742Y-67679000D01*
X89004769Y-67682188D01*
G37*
G36*
X111229769Y-67682188D02*
G01*
X111387812Y-67713624D01*
X111551784Y-67781544D01*
X111699354Y-67880147D01*
X111824853Y-68005646D01*
X111923456Y-68153216D01*
X111991376Y-68317188D01*
X112026000Y-68491259D01*
X112026000Y-68668741D01*
X111991376Y-68842812D01*
X111923456Y-69006784D01*
X111824853Y-69154354D01*
X111699354Y-69279853D01*
X111551784Y-69378456D01*
X111387812Y-69446376D01*
X111238512Y-69476073D01*
X111213742Y-69481000D01*
X111036258Y-69481000D01*
X111011488Y-69476073D01*
X110862188Y-69446376D01*
X110698216Y-69378456D01*
X110550646Y-69279853D01*
X110425147Y-69154354D01*
X110326544Y-69006784D01*
X110258624Y-68842812D01*
X110224000Y-68668741D01*
X110224000Y-68491259D01*
X110258624Y-68317188D01*
X110326544Y-68153216D01*
X110425147Y-68005646D01*
X110550646Y-67880147D01*
X110698216Y-67781544D01*
X110862188Y-67713624D01*
X111020231Y-67682188D01*
X111036258Y-67679000D01*
X111213742Y-67679000D01*
X111229769Y-67682188D01*
G37*
G36*
X63604769Y-67682188D02*
G01*
X63762812Y-67713624D01*
X63926784Y-67781544D01*
X64074354Y-67880147D01*
X64199853Y-68005646D01*
X64298456Y-68153216D01*
X64366376Y-68317188D01*
X64401000Y-68491259D01*
X64401000Y-68668741D01*
X64366376Y-68842812D01*
X64298456Y-69006784D01*
X64199853Y-69154354D01*
X64074354Y-69279853D01*
X63926784Y-69378456D01*
X63762812Y-69446376D01*
X63613512Y-69476073D01*
X63588742Y-69481000D01*
X63411258Y-69481000D01*
X63386488Y-69476073D01*
X63237188Y-69446376D01*
X63073216Y-69378456D01*
X62925646Y-69279853D01*
X62800147Y-69154354D01*
X62701544Y-69006784D01*
X62633624Y-68842812D01*
X62599000Y-68668741D01*
X62599000Y-68491259D01*
X62633624Y-68317188D01*
X62701544Y-68153216D01*
X62800147Y-68005646D01*
X62925646Y-67880147D01*
X63073216Y-67781544D01*
X63237188Y-67713624D01*
X63395231Y-67682188D01*
X63411258Y-67679000D01*
X63588742Y-67679000D01*
X63604769Y-67682188D01*
G37*
G36*
X76313512Y-67048927D02*
G01*
X76462812Y-67078624D01*
X76626784Y-67146544D01*
X76774354Y-67245147D01*
X76899853Y-67370646D01*
X76998456Y-67518216D01*
X77066376Y-67682188D01*
X77101000Y-67856259D01*
X77101000Y-68033741D01*
X77066376Y-68207812D01*
X76998456Y-68371784D01*
X76899853Y-68519354D01*
X76774354Y-68644853D01*
X76626784Y-68743456D01*
X76462812Y-68811376D01*
X76313512Y-68841073D01*
X76288742Y-68846000D01*
X76111258Y-68846000D01*
X76086488Y-68841073D01*
X75937188Y-68811376D01*
X75773216Y-68743456D01*
X75625646Y-68644853D01*
X75500147Y-68519354D01*
X75401544Y-68371784D01*
X75333624Y-68207812D01*
X75299000Y-68033741D01*
X75299000Y-67856259D01*
X75333624Y-67682188D01*
X75401544Y-67518216D01*
X75500147Y-67370646D01*
X75625646Y-67245147D01*
X75773216Y-67146544D01*
X75937188Y-67078624D01*
X76086488Y-67048927D01*
X76111258Y-67044000D01*
X76288742Y-67044000D01*
X76313512Y-67048927D01*
G37*
G36*
X95485443Y-66375519D02*
G01*
X95551627Y-66382037D01*
X95721466Y-66433557D01*
X95877991Y-66517222D01*
X95913729Y-66546552D01*
X96015186Y-66629814D01*
X96098448Y-66731271D01*
X96127778Y-66767009D01*
X96211443Y-66923534D01*
X96262963Y-67093373D01*
X96280359Y-67270000D01*
X96262963Y-67446627D01*
X96211443Y-67616466D01*
X96127778Y-67772991D01*
X96098448Y-67808729D01*
X96015186Y-67910186D01*
X95913729Y-67993448D01*
X95877991Y-68022778D01*
X95721466Y-68106443D01*
X95551627Y-68157963D01*
X95485443Y-68164481D01*
X95419260Y-68171000D01*
X95080740Y-68171000D01*
X95014557Y-68164481D01*
X94948373Y-68157963D01*
X94778534Y-68106443D01*
X94622009Y-68022778D01*
X94586271Y-67993448D01*
X94484814Y-67910186D01*
X94401552Y-67808729D01*
X94372222Y-67772991D01*
X94288557Y-67616466D01*
X94237037Y-67446627D01*
X94219641Y-67270000D01*
X94237037Y-67093373D01*
X94288557Y-66923534D01*
X94372222Y-66767009D01*
X94401552Y-66731271D01*
X94484814Y-66629814D01*
X94586271Y-66546552D01*
X94622009Y-66517222D01*
X94778534Y-66433557D01*
X94948373Y-66382037D01*
X95014557Y-66375519D01*
X95080740Y-66369000D01*
X95419260Y-66369000D01*
X95485443Y-66375519D01*
G37*
G36*
X126611000Y-67386000D02*
G01*
X125509000Y-67386000D01*
X125509000Y-65784000D01*
X126611000Y-65784000D01*
X126611000Y-67386000D01*
G37*
G36*
X123411000Y-67386000D02*
G01*
X122309000Y-67386000D01*
X122309000Y-65784000D01*
X123411000Y-65784000D01*
X123411000Y-67386000D01*
G37*
G36*
X111238512Y-65143927D02*
G01*
X111387812Y-65173624D01*
X111551784Y-65241544D01*
X111699354Y-65340147D01*
X111824853Y-65465646D01*
X111923456Y-65613216D01*
X111991376Y-65777188D01*
X112026000Y-65951259D01*
X112026000Y-66128741D01*
X111991376Y-66302812D01*
X111923456Y-66466784D01*
X111824853Y-66614354D01*
X111699354Y-66739853D01*
X111551784Y-66838456D01*
X111387812Y-66906376D01*
X111238512Y-66936073D01*
X111213742Y-66941000D01*
X111036258Y-66941000D01*
X111011488Y-66936073D01*
X110862188Y-66906376D01*
X110698216Y-66838456D01*
X110550646Y-66739853D01*
X110425147Y-66614354D01*
X110326544Y-66466784D01*
X110258624Y-66302812D01*
X110224000Y-66128741D01*
X110224000Y-65951259D01*
X110258624Y-65777188D01*
X110326544Y-65613216D01*
X110425147Y-65465646D01*
X110550646Y-65340147D01*
X110698216Y-65241544D01*
X110862188Y-65173624D01*
X111011488Y-65143927D01*
X111036258Y-65139000D01*
X111213742Y-65139000D01*
X111238512Y-65143927D01*
G37*
G36*
X63613512Y-65143927D02*
G01*
X63762812Y-65173624D01*
X63926784Y-65241544D01*
X64074354Y-65340147D01*
X64199853Y-65465646D01*
X64298456Y-65613216D01*
X64366376Y-65777188D01*
X64401000Y-65951259D01*
X64401000Y-66128741D01*
X64366376Y-66302812D01*
X64298456Y-66466784D01*
X64199853Y-66614354D01*
X64074354Y-66739853D01*
X63926784Y-66838456D01*
X63762812Y-66906376D01*
X63613512Y-66936073D01*
X63588742Y-66941000D01*
X63411258Y-66941000D01*
X63386488Y-66936073D01*
X63237188Y-66906376D01*
X63073216Y-66838456D01*
X62925646Y-66739853D01*
X62800147Y-66614354D01*
X62701544Y-66466784D01*
X62633624Y-66302812D01*
X62599000Y-66128741D01*
X62599000Y-65951259D01*
X62633624Y-65777188D01*
X62701544Y-65613216D01*
X62800147Y-65465646D01*
X62925646Y-65340147D01*
X63073216Y-65241544D01*
X63237188Y-65173624D01*
X63386488Y-65143927D01*
X63411258Y-65139000D01*
X63588742Y-65139000D01*
X63613512Y-65143927D01*
G37*
G36*
X89013512Y-65143927D02*
G01*
X89162812Y-65173624D01*
X89326784Y-65241544D01*
X89474354Y-65340147D01*
X89599853Y-65465646D01*
X89698456Y-65613216D01*
X89766376Y-65777188D01*
X89801000Y-65951259D01*
X89801000Y-66128741D01*
X89766376Y-66302812D01*
X89698456Y-66466784D01*
X89599853Y-66614354D01*
X89474354Y-66739853D01*
X89326784Y-66838456D01*
X89162812Y-66906376D01*
X89013512Y-66936073D01*
X88988742Y-66941000D01*
X88811258Y-66941000D01*
X88786488Y-66936073D01*
X88637188Y-66906376D01*
X88473216Y-66838456D01*
X88325646Y-66739853D01*
X88200147Y-66614354D01*
X88101544Y-66466784D01*
X88033624Y-66302812D01*
X87999000Y-66128741D01*
X87999000Y-65951259D01*
X88033624Y-65777188D01*
X88101544Y-65613216D01*
X88200147Y-65465646D01*
X88325646Y-65340147D01*
X88473216Y-65241544D01*
X88637188Y-65173624D01*
X88786488Y-65143927D01*
X88811258Y-65139000D01*
X88988742Y-65139000D01*
X89013512Y-65143927D01*
G37*
G36*
X136638512Y-65143927D02*
G01*
X136787812Y-65173624D01*
X136951784Y-65241544D01*
X137099354Y-65340147D01*
X137224853Y-65465646D01*
X137323456Y-65613216D01*
X137391376Y-65777188D01*
X137426000Y-65951259D01*
X137426000Y-66128741D01*
X137391376Y-66302812D01*
X137323456Y-66466784D01*
X137224853Y-66614354D01*
X137099354Y-66739853D01*
X136951784Y-66838456D01*
X136787812Y-66906376D01*
X136638512Y-66936073D01*
X136613742Y-66941000D01*
X136436258Y-66941000D01*
X136411488Y-66936073D01*
X136262188Y-66906376D01*
X136098216Y-66838456D01*
X135950646Y-66739853D01*
X135825147Y-66614354D01*
X135726544Y-66466784D01*
X135658624Y-66302812D01*
X135624000Y-66128741D01*
X135624000Y-65951259D01*
X135658624Y-65777188D01*
X135726544Y-65613216D01*
X135825147Y-65465646D01*
X135950646Y-65340147D01*
X136098216Y-65241544D01*
X136262188Y-65173624D01*
X136411488Y-65143927D01*
X136436258Y-65139000D01*
X136613742Y-65139000D01*
X136638512Y-65143927D01*
G37*
G36*
X81504549Y-64276116D02*
G01*
X81615734Y-64298232D01*
X81763850Y-64359584D01*
X81815139Y-64380828D01*
X81825203Y-64384997D01*
X82013720Y-64510960D01*
X82174040Y-64671280D01*
X82181586Y-64682574D01*
X82300004Y-64859799D01*
X82386768Y-65069267D01*
X82431000Y-65291635D01*
X82431000Y-65518365D01*
X82416078Y-65593383D01*
X82386768Y-65740734D01*
X82300003Y-65950203D01*
X82174040Y-66138720D01*
X82013720Y-66299040D01*
X81825203Y-66425003D01*
X81825202Y-66425004D01*
X81825201Y-66425004D01*
X81763850Y-66450416D01*
X81615734Y-66511768D01*
X81504549Y-66533884D01*
X81393365Y-66556000D01*
X81166635Y-66556000D01*
X81055451Y-66533884D01*
X80944266Y-66511768D01*
X80796150Y-66450416D01*
X80734799Y-66425004D01*
X80734798Y-66425004D01*
X80734797Y-66425003D01*
X80546280Y-66299040D01*
X80385960Y-66138720D01*
X80259997Y-65950203D01*
X80173232Y-65740734D01*
X80143922Y-65593383D01*
X80129000Y-65518365D01*
X80129000Y-65291635D01*
X80173232Y-65069267D01*
X80259996Y-64859799D01*
X80378414Y-64682574D01*
X80385960Y-64671280D01*
X80546280Y-64510960D01*
X80734797Y-64384997D01*
X80744862Y-64380828D01*
X80796150Y-64359584D01*
X80944266Y-64298232D01*
X81055451Y-64276116D01*
X81166635Y-64254000D01*
X81393365Y-64254000D01*
X81504549Y-64276116D01*
G37*
G36*
X96133600Y-63872989D02*
G01*
X96166652Y-63883015D01*
X96197103Y-63899292D01*
X96223799Y-63921201D01*
X96245708Y-63947897D01*
X96261985Y-63978348D01*
X96272011Y-64011400D01*
X96276000Y-64051903D01*
X96276000Y-65488097D01*
X96272011Y-65528600D01*
X96261985Y-65561652D01*
X96245708Y-65592103D01*
X96223799Y-65618799D01*
X96197103Y-65640708D01*
X96166652Y-65656985D01*
X96133600Y-65667011D01*
X96093097Y-65671000D01*
X94406903Y-65671000D01*
X94366400Y-65667011D01*
X94333348Y-65656985D01*
X94302897Y-65640708D01*
X94276201Y-65618799D01*
X94254292Y-65592103D01*
X94238015Y-65561652D01*
X94227989Y-65528600D01*
X94224000Y-65488097D01*
X94224000Y-64051903D01*
X94227989Y-64011400D01*
X94238015Y-63978348D01*
X94254292Y-63947897D01*
X94276201Y-63921201D01*
X94302897Y-63899292D01*
X94333348Y-63883015D01*
X94366400Y-63872989D01*
X94406903Y-63869000D01*
X96093097Y-63869000D01*
X96133600Y-63872989D01*
G37*
G36*
X76798254Y-60892818D02*
G01*
X77057014Y-61000000D01*
X77171513Y-61047427D01*
X77507436Y-61271884D01*
X77793116Y-61557564D01*
X77979457Y-61836442D01*
X78017574Y-61893489D01*
X78172182Y-62266746D01*
X78251000Y-62662993D01*
X78251000Y-63067007D01*
X78172182Y-63463254D01*
X78017574Y-63836511D01*
X78017573Y-63836513D01*
X77793116Y-64172436D01*
X77507436Y-64458116D01*
X77171513Y-64682573D01*
X77171512Y-64682574D01*
X77171511Y-64682574D01*
X76798254Y-64837182D01*
X76402007Y-64916000D01*
X75997993Y-64916000D01*
X75601746Y-64837182D01*
X75228489Y-64682574D01*
X75228488Y-64682574D01*
X75228487Y-64682573D01*
X74892564Y-64458116D01*
X74606884Y-64172436D01*
X74382427Y-63836513D01*
X74382426Y-63836511D01*
X74227818Y-63463254D01*
X74149000Y-63067007D01*
X74149000Y-62662993D01*
X74227818Y-62266746D01*
X74382426Y-61893489D01*
X74420544Y-61836442D01*
X74606884Y-61557564D01*
X74892564Y-61271884D01*
X75228487Y-61047427D01*
X75342986Y-61000000D01*
X75601746Y-60892818D01*
X75997993Y-60814000D01*
X76402007Y-60814000D01*
X76798254Y-60892818D01*
G37*
G36*
X137426000Y-64401000D02*
G01*
X135624000Y-64401000D01*
X135624000Y-62599000D01*
X137426000Y-62599000D01*
X137426000Y-64401000D01*
G37*
G36*
X146933600Y-62602989D02*
G01*
X146966652Y-62613015D01*
X146997103Y-62629292D01*
X147023799Y-62651201D01*
X147045708Y-62677897D01*
X147061985Y-62708348D01*
X147072011Y-62741400D01*
X147076000Y-62781903D01*
X147076000Y-64218097D01*
X147072011Y-64258600D01*
X147061985Y-64291652D01*
X147045708Y-64322103D01*
X147023799Y-64348799D01*
X146997103Y-64370708D01*
X146966652Y-64386985D01*
X146933600Y-64397011D01*
X146893097Y-64401000D01*
X145206903Y-64401000D01*
X145166400Y-64397011D01*
X145133348Y-64386985D01*
X145102897Y-64370708D01*
X145076201Y-64348799D01*
X145054292Y-64322103D01*
X145038015Y-64291652D01*
X145027989Y-64258600D01*
X145024000Y-64218097D01*
X145024000Y-62781903D01*
X145027989Y-62741400D01*
X145038015Y-62708348D01*
X145054292Y-62677897D01*
X145076201Y-62651201D01*
X145102897Y-62629292D01*
X145133348Y-62613015D01*
X145166400Y-62602989D01*
X145206903Y-62599000D01*
X146893097Y-62599000D01*
X146933600Y-62602989D01*
G37*
G36*
X64401000Y-64401000D02*
G01*
X62599000Y-64401000D01*
X62599000Y-62599000D01*
X64401000Y-62599000D01*
X64401000Y-64401000D01*
G37*
G36*
X112026000Y-64401000D02*
G01*
X110224000Y-64401000D01*
X110224000Y-62599000D01*
X112026000Y-62599000D01*
X112026000Y-64401000D01*
G37*
G36*
X89801000Y-64401000D02*
G01*
X87999000Y-64401000D01*
X87999000Y-62599000D01*
X89801000Y-62599000D01*
X89801000Y-64401000D01*
G37*
G36*
X126611000Y-62486000D02*
G01*
X125509000Y-62486000D01*
X125509000Y-60884000D01*
X126611000Y-60884000D01*
X126611000Y-62486000D01*
G37*
G36*
X123411000Y-62486000D02*
G01*
X122309000Y-62486000D01*
X122309000Y-60884000D01*
X123411000Y-60884000D01*
X123411000Y-62486000D01*
G37*
G36*
X152756031Y-59564207D02*
G01*
X152954145Y-59624305D01*
X152954148Y-59624306D01*
X153020030Y-59659521D01*
X153136729Y-59721897D01*
X153296765Y-59853235D01*
X153428103Y-60013271D01*
X153428104Y-60013273D01*
X153525694Y-60195851D01*
X153525694Y-60195852D01*
X153525695Y-60195854D01*
X153585793Y-60393968D01*
X153601000Y-60548370D01*
X153601000Y-61451629D01*
X153585793Y-61606031D01*
X153575432Y-61640185D01*
X153525694Y-61804149D01*
X153473939Y-61900975D01*
X153428103Y-61986729D01*
X153296765Y-62146765D01*
X153136729Y-62278103D01*
X153050975Y-62323939D01*
X152954149Y-62375694D01*
X152954146Y-62375695D01*
X152756032Y-62435793D01*
X152550000Y-62456085D01*
X152343969Y-62435793D01*
X152145855Y-62375695D01*
X152145852Y-62375694D01*
X152049026Y-62323939D01*
X151963272Y-62278103D01*
X151803236Y-62146765D01*
X151671898Y-61986729D01*
X151626075Y-61901000D01*
X151574305Y-61804147D01*
X151514207Y-61606030D01*
X151499000Y-61451631D01*
X151499000Y-60548370D01*
X151514207Y-60393971D01*
X151514207Y-60393969D01*
X151574305Y-60195855D01*
X151574306Y-60195852D01*
X151619106Y-60112037D01*
X151671897Y-60013271D01*
X151803235Y-59853235D01*
X151963271Y-59721897D01*
X152049025Y-59676061D01*
X152145851Y-59624306D01*
X152145854Y-59624305D01*
X152343968Y-59564207D01*
X152550000Y-59543915D01*
X152756031Y-59564207D01*
G37*
G36*
X146285442Y-60105518D02*
G01*
X146351627Y-60112037D01*
X146521466Y-60163557D01*
X146677991Y-60247222D01*
X146713729Y-60276552D01*
X146815186Y-60359814D01*
X146898448Y-60461271D01*
X146927778Y-60497009D01*
X147011443Y-60653534D01*
X147062963Y-60823373D01*
X147080359Y-61000000D01*
X147062963Y-61176627D01*
X147011443Y-61346466D01*
X146927778Y-61502991D01*
X146898448Y-61538729D01*
X146815186Y-61640186D01*
X146713729Y-61723448D01*
X146677991Y-61752778D01*
X146521466Y-61836443D01*
X146351627Y-61887963D01*
X146285443Y-61894481D01*
X146219260Y-61901000D01*
X145880740Y-61901000D01*
X145814557Y-61894481D01*
X145748373Y-61887963D01*
X145578534Y-61836443D01*
X145422009Y-61752778D01*
X145386271Y-61723448D01*
X145284814Y-61640186D01*
X145201552Y-61538729D01*
X145172222Y-61502991D01*
X145088557Y-61346466D01*
X145037037Y-61176627D01*
X145019641Y-61000000D01*
X145037037Y-60823373D01*
X145088557Y-60653534D01*
X145172222Y-60497009D01*
X145201552Y-60461271D01*
X145284814Y-60359814D01*
X145386271Y-60276552D01*
X145422009Y-60247222D01*
X145578534Y-60163557D01*
X145748373Y-60112037D01*
X145814558Y-60105518D01*
X145880740Y-60099000D01*
X146219260Y-60099000D01*
X146285442Y-60105518D01*
G37*
G36*
X78964549Y-57926116D02*
G01*
X79075734Y-57948232D01*
X79223850Y-58009584D01*
X79275139Y-58030828D01*
X79285203Y-58034997D01*
X79473720Y-58160960D01*
X79634040Y-58321280D01*
X79760003Y-58509797D01*
X79846768Y-58719266D01*
X79891000Y-58941636D01*
X79891000Y-59168364D01*
X79846768Y-59390734D01*
X79760003Y-59600203D01*
X79634040Y-59788720D01*
X79473720Y-59949040D01*
X79285203Y-60075003D01*
X79075734Y-60161768D01*
X78964549Y-60183884D01*
X78853365Y-60206000D01*
X78626635Y-60206000D01*
X78515451Y-60183884D01*
X78404266Y-60161768D01*
X78194797Y-60075003D01*
X78006280Y-59949040D01*
X77845960Y-59788720D01*
X77719997Y-59600203D01*
X77633232Y-59390734D01*
X77589000Y-59168364D01*
X77589000Y-58941636D01*
X77633232Y-58719266D01*
X77719997Y-58509797D01*
X77845960Y-58321280D01*
X78006280Y-58160960D01*
X78194797Y-58034997D01*
X78204862Y-58030828D01*
X78256150Y-58009584D01*
X78404266Y-57948232D01*
X78515451Y-57926116D01*
X78626635Y-57904000D01*
X78853365Y-57904000D01*
X78964549Y-57926116D01*
G37*
G36*
X146285442Y-57605518D02*
G01*
X146351627Y-57612037D01*
X146521466Y-57663557D01*
X146677991Y-57747222D01*
X146713729Y-57776552D01*
X146815186Y-57859814D01*
X146898448Y-57961271D01*
X146927778Y-57997009D01*
X147011443Y-58153534D01*
X147062963Y-58323373D01*
X147080359Y-58500000D01*
X147062963Y-58676627D01*
X147011443Y-58846466D01*
X146927778Y-59002991D01*
X146898448Y-59038729D01*
X146815186Y-59140186D01*
X146713729Y-59223448D01*
X146677991Y-59252778D01*
X146521466Y-59336443D01*
X146351627Y-59387963D01*
X146285443Y-59394481D01*
X146219260Y-59401000D01*
X145880740Y-59401000D01*
X145814557Y-59394481D01*
X145748373Y-59387963D01*
X145578534Y-59336443D01*
X145422009Y-59252778D01*
X145386271Y-59223448D01*
X145284814Y-59140186D01*
X145201552Y-59038729D01*
X145172222Y-59002991D01*
X145088557Y-58846466D01*
X145037037Y-58676627D01*
X145019641Y-58500000D01*
X145037037Y-58323373D01*
X145088557Y-58153534D01*
X145172222Y-57997009D01*
X145201552Y-57961271D01*
X145284814Y-57859814D01*
X145386271Y-57776552D01*
X145422009Y-57747222D01*
X145578534Y-57663557D01*
X145748373Y-57612037D01*
X145814558Y-57605518D01*
X145880740Y-57599000D01*
X146219260Y-57599000D01*
X146285442Y-57605518D01*
G37*
G36*
X76313512Y-56888927D02*
G01*
X76462812Y-56918624D01*
X76626784Y-56986544D01*
X76774354Y-57085147D01*
X76899853Y-57210646D01*
X76998456Y-57358216D01*
X77066376Y-57522188D01*
X77101000Y-57696259D01*
X77101000Y-57873741D01*
X77066376Y-58047812D01*
X76998456Y-58211784D01*
X76899853Y-58359354D01*
X76774354Y-58484853D01*
X76626784Y-58583456D01*
X76462812Y-58651376D01*
X76335873Y-58676625D01*
X76288742Y-58686000D01*
X76111258Y-58686000D01*
X76064127Y-58676625D01*
X75937188Y-58651376D01*
X75773216Y-58583456D01*
X75625646Y-58484853D01*
X75500147Y-58359354D01*
X75401544Y-58211784D01*
X75333624Y-58047812D01*
X75299000Y-57873741D01*
X75299000Y-57696259D01*
X75333624Y-57522188D01*
X75401544Y-57358216D01*
X75500147Y-57210646D01*
X75625646Y-57085147D01*
X75773216Y-56986544D01*
X75937188Y-56918624D01*
X76086488Y-56888927D01*
X76111258Y-56884000D01*
X76288742Y-56884000D01*
X76313512Y-56888927D01*
G37*
G36*
X101213600Y-56252989D02*
G01*
X101246652Y-56263015D01*
X101277103Y-56279292D01*
X101303799Y-56301201D01*
X101325708Y-56327897D01*
X101341985Y-56358348D01*
X101352011Y-56391400D01*
X101356000Y-56431903D01*
X101356000Y-57868097D01*
X101352011Y-57908600D01*
X101341985Y-57941652D01*
X101325708Y-57972103D01*
X101303799Y-57998799D01*
X101277103Y-58020708D01*
X101246652Y-58036985D01*
X101213600Y-58047011D01*
X101173097Y-58051000D01*
X99486903Y-58051000D01*
X99446400Y-58047011D01*
X99413348Y-58036985D01*
X99382897Y-58020708D01*
X99356201Y-57998799D01*
X99334292Y-57972103D01*
X99318015Y-57941652D01*
X99307989Y-57908600D01*
X99304000Y-57868097D01*
X99304000Y-56431903D01*
X99307989Y-56391400D01*
X99318015Y-56358348D01*
X99334292Y-56327897D01*
X99356201Y-56301201D01*
X99382897Y-56279292D01*
X99413348Y-56263015D01*
X99446400Y-56252989D01*
X99486903Y-56249000D01*
X101173097Y-56249000D01*
X101213600Y-56252989D01*
G37*
G36*
X123411000Y-56591000D02*
G01*
X122309000Y-56591000D01*
X122309000Y-54989000D01*
X123411000Y-54989000D01*
X123411000Y-56591000D01*
G37*
G36*
X126611000Y-56591000D02*
G01*
X125509000Y-56591000D01*
X125509000Y-54989000D01*
X126611000Y-54989000D01*
X126611000Y-56591000D01*
G37*
G36*
X100565442Y-53755518D02*
G01*
X100631627Y-53762037D01*
X100801466Y-53813557D01*
X100957991Y-53897222D01*
X100993137Y-53926066D01*
X101095186Y-54009814D01*
X101178448Y-54111271D01*
X101207778Y-54147009D01*
X101291443Y-54303534D01*
X101342963Y-54473373D01*
X101360359Y-54650000D01*
X101342963Y-54826627D01*
X101291443Y-54996466D01*
X101207778Y-55152991D01*
X101178448Y-55188729D01*
X101095186Y-55290186D01*
X100993729Y-55373448D01*
X100957991Y-55402778D01*
X100801466Y-55486443D01*
X100631627Y-55537963D01*
X100565443Y-55544481D01*
X100499260Y-55551000D01*
X100160740Y-55551000D01*
X100094557Y-55544481D01*
X100028373Y-55537963D01*
X99858534Y-55486443D01*
X99702009Y-55402778D01*
X99666271Y-55373448D01*
X99564814Y-55290186D01*
X99481552Y-55188729D01*
X99452222Y-55152991D01*
X99368557Y-54996466D01*
X99317037Y-54826627D01*
X99299641Y-54650000D01*
X99317037Y-54473373D01*
X99368557Y-54303534D01*
X99452222Y-54147009D01*
X99481552Y-54111271D01*
X99564814Y-54009814D01*
X99666863Y-53926066D01*
X99702009Y-53897222D01*
X99858534Y-53813557D01*
X100028373Y-53762037D01*
X100094558Y-53755518D01*
X100160740Y-53749000D01*
X100499260Y-53749000D01*
X100565442Y-53755518D01*
G37*
G36*
X63499239Y-47611467D02*
G01*
X63813282Y-47673934D01*
X64404926Y-47919001D01*
X64831477Y-48204014D01*
X64937391Y-48274783D01*
X65390217Y-48727609D01*
X65406267Y-48751630D01*
X65745999Y-49260074D01*
X65991066Y-49851718D01*
X66022222Y-50008348D01*
X66116000Y-50479803D01*
X66116000Y-51120197D01*
X66071114Y-51345852D01*
X65991066Y-51748282D01*
X65745999Y-52339926D01*
X65390216Y-52872392D01*
X64937392Y-53325216D01*
X64404926Y-53680999D01*
X63813282Y-53926066D01*
X63499239Y-53988533D01*
X63185197Y-54051000D01*
X62544803Y-54051000D01*
X62230761Y-53988533D01*
X61916718Y-53926066D01*
X61325074Y-53680999D01*
X60792608Y-53325216D01*
X60339784Y-52872392D01*
X59984001Y-52339926D01*
X59738934Y-51748282D01*
X59658886Y-51345852D01*
X59614000Y-51120197D01*
X59614000Y-50479803D01*
X59707778Y-50008348D01*
X59738934Y-49851718D01*
X59984001Y-49260074D01*
X60323733Y-48751630D01*
X60339783Y-48727609D01*
X60792609Y-48274783D01*
X60898523Y-48204014D01*
X61325074Y-47919001D01*
X61916718Y-47673934D01*
X62230761Y-47611467D01*
X62544803Y-47549000D01*
X63185197Y-47549000D01*
X63499239Y-47611467D01*
G37*
G36*
X111124239Y-47611467D02*
G01*
X111438282Y-47673934D01*
X112029926Y-47919001D01*
X112456477Y-48204014D01*
X112562391Y-48274783D01*
X113015217Y-48727609D01*
X113031267Y-48751630D01*
X113370999Y-49260074D01*
X113616066Y-49851718D01*
X113647222Y-50008348D01*
X113741000Y-50479803D01*
X113741000Y-51120197D01*
X113696114Y-51345852D01*
X113616066Y-51748282D01*
X113370999Y-52339926D01*
X113015216Y-52872392D01*
X112562392Y-53325216D01*
X112029926Y-53680999D01*
X111438282Y-53926066D01*
X111124239Y-53988533D01*
X110810197Y-54051000D01*
X110169803Y-54051000D01*
X109855761Y-53988533D01*
X109541718Y-53926066D01*
X108950074Y-53680999D01*
X108417608Y-53325216D01*
X107964784Y-52872392D01*
X107609001Y-52339926D01*
X107363934Y-51748282D01*
X107283886Y-51345852D01*
X107239000Y-51120197D01*
X107239000Y-50479803D01*
X107332778Y-50008348D01*
X107363934Y-49851718D01*
X107609001Y-49260074D01*
X107948733Y-48751630D01*
X107964783Y-48727609D01*
X108417609Y-48274783D01*
X108523523Y-48204014D01*
X108950074Y-47919001D01*
X109541718Y-47673934D01*
X109855761Y-47611467D01*
X110169803Y-47549000D01*
X110810197Y-47549000D01*
X111124239Y-47611467D01*
G37*
G36*
X94036031Y-50714207D02*
G01*
X94234145Y-50774305D01*
X94234148Y-50774306D01*
X94300030Y-50809521D01*
X94416729Y-50871897D01*
X94576765Y-51003235D01*
X94708103Y-51163271D01*
X94708104Y-51163273D01*
X94805694Y-51345851D01*
X94805694Y-51345852D01*
X94805695Y-51345854D01*
X94865793Y-51543968D01*
X94881000Y-51698370D01*
X94881000Y-52601629D01*
X94865793Y-52756031D01*
X94855432Y-52790185D01*
X94805694Y-52954149D01*
X94788433Y-52986442D01*
X94708103Y-53136729D01*
X94576765Y-53296765D01*
X94416729Y-53428103D01*
X94330975Y-53473939D01*
X94234149Y-53525694D01*
X94234146Y-53525695D01*
X94036032Y-53585793D01*
X93830000Y-53606085D01*
X93623969Y-53585793D01*
X93425855Y-53525695D01*
X93425852Y-53525694D01*
X93329026Y-53473939D01*
X93243272Y-53428103D01*
X93083236Y-53296765D01*
X92951898Y-53136729D01*
X92906075Y-53051000D01*
X92854305Y-52954147D01*
X92794207Y-52756030D01*
X92779000Y-52601631D01*
X92779000Y-51698370D01*
X92794207Y-51543971D01*
X92794207Y-51543969D01*
X92854305Y-51345855D01*
X92854306Y-51345852D01*
X92899106Y-51262037D01*
X92951897Y-51163271D01*
X93083235Y-51003235D01*
X93243271Y-50871897D01*
X93329025Y-50826061D01*
X93425851Y-50774306D01*
X93425854Y-50774305D01*
X93623968Y-50714207D01*
X93830000Y-50693915D01*
X94036031Y-50714207D01*
G37*
G36*
X100565443Y-51255519D02*
G01*
X100631627Y-51262037D01*
X100801466Y-51313557D01*
X100957991Y-51397222D01*
X100993729Y-51426552D01*
X101095186Y-51509814D01*
X101178448Y-51611271D01*
X101207778Y-51647009D01*
X101291443Y-51803534D01*
X101342963Y-51973373D01*
X101360359Y-52150000D01*
X101342963Y-52326627D01*
X101291443Y-52496466D01*
X101207778Y-52652991D01*
X101178448Y-52688729D01*
X101095186Y-52790186D01*
X100995017Y-52872391D01*
X100957991Y-52902778D01*
X100801466Y-52986443D01*
X100631627Y-53037963D01*
X100565442Y-53044482D01*
X100499260Y-53051000D01*
X100160740Y-53051000D01*
X100094558Y-53044482D01*
X100028373Y-53037963D01*
X99858534Y-52986443D01*
X99702009Y-52902778D01*
X99664983Y-52872391D01*
X99564814Y-52790186D01*
X99481552Y-52688729D01*
X99452222Y-52652991D01*
X99368557Y-52496466D01*
X99317037Y-52326627D01*
X99299641Y-52150000D01*
X99317037Y-51973373D01*
X99368557Y-51803534D01*
X99452222Y-51647009D01*
X99481552Y-51611271D01*
X99564814Y-51509814D01*
X99666271Y-51426552D01*
X99702009Y-51397222D01*
X99858534Y-51313557D01*
X100028373Y-51262037D01*
X100094558Y-51255518D01*
X100160740Y-51249000D01*
X100499260Y-51249000D01*
X100565443Y-51255519D01*
G37*
G36*
X146933600Y-49902989D02*
G01*
X146966652Y-49913015D01*
X146997103Y-49929292D01*
X147023799Y-49951201D01*
X147045708Y-49977897D01*
X147061985Y-50008348D01*
X147072011Y-50041400D01*
X147076000Y-50081903D01*
X147076000Y-51518097D01*
X147072011Y-51558600D01*
X147061985Y-51591652D01*
X147045708Y-51622103D01*
X147023799Y-51648799D01*
X146997103Y-51670708D01*
X146966652Y-51686985D01*
X146933600Y-51697011D01*
X146893097Y-51701000D01*
X145206903Y-51701000D01*
X145166400Y-51697011D01*
X145133348Y-51686985D01*
X145102897Y-51670708D01*
X145076201Y-51648799D01*
X145054292Y-51622103D01*
X145038015Y-51591652D01*
X145027989Y-51558600D01*
X145024000Y-51518097D01*
X145024000Y-50081903D01*
X145027989Y-50041400D01*
X145038015Y-50008348D01*
X145054292Y-49977897D01*
X145076201Y-49951201D01*
X145102897Y-49929292D01*
X145133348Y-49913015D01*
X145166400Y-49902989D01*
X145206903Y-49899000D01*
X146893097Y-49899000D01*
X146933600Y-49902989D01*
G37*
G36*
X123411000Y-51691000D02*
G01*
X122309000Y-51691000D01*
X122309000Y-50089000D01*
X123411000Y-50089000D01*
X123411000Y-51691000D01*
G37*
G36*
X126611000Y-51691000D02*
G01*
X125509000Y-51691000D01*
X125509000Y-50089000D01*
X126611000Y-50089000D01*
X126611000Y-51691000D01*
G37*
G36*
X100565443Y-48755519D02*
G01*
X100631627Y-48762037D01*
X100801466Y-48813557D01*
X100957991Y-48897222D01*
X100993729Y-48926552D01*
X101095186Y-49009814D01*
X101178448Y-49111271D01*
X101207778Y-49147009D01*
X101207779Y-49147011D01*
X101282461Y-49286729D01*
X101291443Y-49303534D01*
X101342963Y-49473373D01*
X101360359Y-49650000D01*
X101342963Y-49826627D01*
X101291443Y-49996466D01*
X101207778Y-50152991D01*
X101198743Y-50164000D01*
X101095186Y-50290186D01*
X100993729Y-50373448D01*
X100957991Y-50402778D01*
X100957989Y-50402779D01*
X100813889Y-50479803D01*
X100801466Y-50486443D01*
X100631627Y-50537963D01*
X100565443Y-50544481D01*
X100499260Y-50551000D01*
X100160740Y-50551000D01*
X100094557Y-50544481D01*
X100028373Y-50537963D01*
X99858534Y-50486443D01*
X99846112Y-50479803D01*
X99702011Y-50402779D01*
X99702009Y-50402778D01*
X99666271Y-50373448D01*
X99564814Y-50290186D01*
X99461257Y-50164000D01*
X99452222Y-50152991D01*
X99368557Y-49996466D01*
X99317037Y-49826627D01*
X99299641Y-49650000D01*
X99317037Y-49473373D01*
X99368557Y-49303534D01*
X99377540Y-49286729D01*
X99452221Y-49147011D01*
X99452222Y-49147009D01*
X99481552Y-49111271D01*
X99564814Y-49009814D01*
X99666271Y-48926552D01*
X99702009Y-48897222D01*
X99858534Y-48813557D01*
X100028373Y-48762037D01*
X100094558Y-48755518D01*
X100160740Y-48749000D01*
X100499260Y-48749000D01*
X100565443Y-48755519D01*
G37*
G36*
X152756031Y-46864207D02*
G01*
X152954145Y-46924305D01*
X152954148Y-46924306D01*
X153020030Y-46959521D01*
X153136729Y-47021897D01*
X153296765Y-47153235D01*
X153428103Y-47313271D01*
X153473926Y-47399000D01*
X153525694Y-47495851D01*
X153525694Y-47495852D01*
X153525695Y-47495854D01*
X153585793Y-47693968D01*
X153601000Y-47848370D01*
X153601000Y-48751629D01*
X153585793Y-48906031D01*
X153554310Y-49009815D01*
X153525694Y-49104149D01*
X153480894Y-49187963D01*
X153428103Y-49286729D01*
X153296765Y-49446765D01*
X153136729Y-49578103D01*
X153050975Y-49623939D01*
X152954149Y-49675694D01*
X152954146Y-49675695D01*
X152756032Y-49735793D01*
X152550000Y-49756085D01*
X152343969Y-49735793D01*
X152145855Y-49675695D01*
X152145852Y-49675694D01*
X152049026Y-49623939D01*
X151963272Y-49578103D01*
X151803236Y-49446765D01*
X151671898Y-49286729D01*
X151626075Y-49201000D01*
X151574305Y-49104147D01*
X151514207Y-48906030D01*
X151499000Y-48751631D01*
X151499000Y-47848370D01*
X151514207Y-47693971D01*
X151514207Y-47693969D01*
X151574305Y-47495855D01*
X151574306Y-47495852D01*
X151619106Y-47412037D01*
X151671897Y-47313271D01*
X151803235Y-47153235D01*
X151963271Y-47021897D01*
X152054054Y-46973373D01*
X152145851Y-46924306D01*
X152145854Y-46924305D01*
X152343968Y-46864207D01*
X152550000Y-46843915D01*
X152756031Y-46864207D01*
G37*
G36*
X146285442Y-47405518D02*
G01*
X146351627Y-47412037D01*
X146521466Y-47463557D01*
X146677991Y-47547222D01*
X146680157Y-47549000D01*
X146815186Y-47659814D01*
X146898448Y-47761271D01*
X146927778Y-47797009D01*
X147011443Y-47953534D01*
X147062963Y-48123373D01*
X147080359Y-48300000D01*
X147062963Y-48476627D01*
X147011443Y-48646466D01*
X146927778Y-48802991D01*
X146898448Y-48838729D01*
X146815186Y-48940186D01*
X146713729Y-49023448D01*
X146677991Y-49052778D01*
X146521466Y-49136443D01*
X146351627Y-49187963D01*
X146285442Y-49194482D01*
X146219260Y-49201000D01*
X145880740Y-49201000D01*
X145814558Y-49194482D01*
X145748373Y-49187963D01*
X145578534Y-49136443D01*
X145422009Y-49052778D01*
X145386271Y-49023448D01*
X145284814Y-48940186D01*
X145201552Y-48838729D01*
X145172222Y-48802991D01*
X145088557Y-48646466D01*
X145037037Y-48476627D01*
X145019641Y-48300000D01*
X145037037Y-48123373D01*
X145088557Y-47953534D01*
X145172222Y-47797009D01*
X145201552Y-47761271D01*
X145284814Y-47659814D01*
X145419843Y-47549000D01*
X145422009Y-47547222D01*
X145578534Y-47463557D01*
X145748373Y-47412037D01*
X145814557Y-47405519D01*
X145880740Y-47399000D01*
X146219260Y-47399000D01*
X146285442Y-47405518D01*
G37*
G36*
X100565442Y-46255518D02*
G01*
X100631627Y-46262037D01*
X100801466Y-46313557D01*
X100957991Y-46397222D01*
X100993729Y-46426552D01*
X101095186Y-46509814D01*
X101178448Y-46611271D01*
X101207778Y-46647009D01*
X101291443Y-46803534D01*
X101342963Y-46973373D01*
X101360359Y-47150000D01*
X101342963Y-47326627D01*
X101291443Y-47496466D01*
X101207778Y-47652991D01*
X101190590Y-47673934D01*
X101095186Y-47790186D01*
X101024286Y-47848371D01*
X100957991Y-47902778D01*
X100801466Y-47986443D01*
X100631627Y-48037963D01*
X100565443Y-48044481D01*
X100499260Y-48051000D01*
X100160740Y-48051000D01*
X100094557Y-48044481D01*
X100028373Y-48037963D01*
X99858534Y-47986443D01*
X99702009Y-47902778D01*
X99635714Y-47848371D01*
X99564814Y-47790186D01*
X99469410Y-47673934D01*
X99452222Y-47652991D01*
X99368557Y-47496466D01*
X99317037Y-47326627D01*
X99299641Y-47150000D01*
X99317037Y-46973373D01*
X99368557Y-46803534D01*
X99452222Y-46647009D01*
X99481552Y-46611271D01*
X99564814Y-46509814D01*
X99666271Y-46426552D01*
X99702009Y-46397222D01*
X99858534Y-46313557D01*
X100028373Y-46262037D01*
X100094558Y-46255518D01*
X100160740Y-46249000D01*
X100499260Y-46249000D01*
X100565442Y-46255518D01*
G37*
G36*
X146285442Y-44905518D02*
G01*
X146351627Y-44912037D01*
X146521466Y-44963557D01*
X146677991Y-45047222D01*
X146713729Y-45076552D01*
X146815186Y-45159814D01*
X146898448Y-45261271D01*
X146927778Y-45297009D01*
X147011443Y-45453534D01*
X147062963Y-45623373D01*
X147080359Y-45800000D01*
X147062963Y-45976627D01*
X147011443Y-46146466D01*
X146927778Y-46302991D01*
X146898448Y-46338729D01*
X146815186Y-46440186D01*
X146713729Y-46523448D01*
X146677991Y-46552778D01*
X146521466Y-46636443D01*
X146351627Y-46687963D01*
X146285443Y-46694481D01*
X146219260Y-46701000D01*
X145880740Y-46701000D01*
X145814557Y-46694481D01*
X145748373Y-46687963D01*
X145578534Y-46636443D01*
X145422009Y-46552778D01*
X145386271Y-46523448D01*
X145284814Y-46440186D01*
X145201552Y-46338729D01*
X145172222Y-46302991D01*
X145088557Y-46146466D01*
X145037037Y-45976627D01*
X145019641Y-45800000D01*
X145037037Y-45623373D01*
X145088557Y-45453534D01*
X145172222Y-45297009D01*
X145201552Y-45261271D01*
X145284814Y-45159814D01*
X145386271Y-45076552D01*
X145422009Y-45047222D01*
X145578534Y-44963557D01*
X145748373Y-44912037D01*
X145814558Y-44905518D01*
X145880740Y-44899000D01*
X146219260Y-44899000D01*
X146285442Y-44905518D01*
G37*
G36*
X76313512Y-42918927D02*
G01*
X76462812Y-42948624D01*
X76626784Y-43016544D01*
X76774354Y-43115147D01*
X76899853Y-43240646D01*
X76998456Y-43388216D01*
X77066376Y-43552188D01*
X77101000Y-43726259D01*
X77101000Y-43903741D01*
X77066376Y-44077812D01*
X76998456Y-44241784D01*
X76899853Y-44389354D01*
X76774354Y-44514853D01*
X76626784Y-44613456D01*
X76462812Y-44681376D01*
X76313512Y-44711073D01*
X76288742Y-44716000D01*
X76111258Y-44716000D01*
X76086488Y-44711073D01*
X75937188Y-44681376D01*
X75773216Y-44613456D01*
X75625646Y-44514853D01*
X75500147Y-44389354D01*
X75401544Y-44241784D01*
X75333624Y-44077812D01*
X75299000Y-43903741D01*
X75299000Y-43726259D01*
X75333624Y-43552188D01*
X75401544Y-43388216D01*
X75500147Y-43240646D01*
X75625646Y-43115147D01*
X75773216Y-43016544D01*
X75937188Y-42948624D01*
X76086488Y-42918927D01*
X76111258Y-42914000D01*
X76288742Y-42914000D01*
X76313512Y-42918927D01*
G37*
G36*
X81504549Y-40146116D02*
G01*
X81615734Y-40168232D01*
X81825203Y-40254997D01*
X82013720Y-40380960D01*
X82174040Y-40541280D01*
X82284891Y-40707181D01*
X82300004Y-40729799D01*
X82386768Y-40939267D01*
X82430712Y-41160185D01*
X82431000Y-41161636D01*
X82431000Y-41388364D01*
X82386768Y-41610734D01*
X82300003Y-41820203D01*
X82174040Y-42008720D01*
X82013720Y-42169040D01*
X81825203Y-42295003D01*
X81615734Y-42381768D01*
X81504549Y-42403884D01*
X81393365Y-42426000D01*
X81166635Y-42426000D01*
X81055451Y-42403884D01*
X80944266Y-42381768D01*
X80734797Y-42295003D01*
X80546280Y-42169040D01*
X80385960Y-42008720D01*
X80259997Y-41820203D01*
X80173232Y-41610734D01*
X80129000Y-41388364D01*
X80129000Y-41161636D01*
X80129289Y-41160185D01*
X80173232Y-40939267D01*
X80259996Y-40729799D01*
X80275109Y-40707181D01*
X80385960Y-40541280D01*
X80546280Y-40380960D01*
X80734797Y-40254997D01*
X80944266Y-40168232D01*
X81055451Y-40146116D01*
X81166635Y-40124000D01*
X81393365Y-40124000D01*
X81504549Y-40146116D01*
G37*
G36*
X117075442Y-39625518D02*
G01*
X117141627Y-39632037D01*
X117311466Y-39683557D01*
X117467991Y-39767222D01*
X117503729Y-39796552D01*
X117605186Y-39879814D01*
X117688448Y-39981271D01*
X117717778Y-40017009D01*
X117801443Y-40173534D01*
X117852963Y-40343373D01*
X117870359Y-40520000D01*
X117852963Y-40696627D01*
X117801443Y-40866466D01*
X117717778Y-41022991D01*
X117688448Y-41058729D01*
X117605186Y-41160186D01*
X117503729Y-41243448D01*
X117467991Y-41272778D01*
X117311466Y-41356443D01*
X117141627Y-41407963D01*
X117075442Y-41414482D01*
X117009260Y-41421000D01*
X116670740Y-41421000D01*
X116604558Y-41414482D01*
X116538373Y-41407963D01*
X116368534Y-41356443D01*
X116212009Y-41272778D01*
X116176271Y-41243448D01*
X116074814Y-41160186D01*
X115991552Y-41058729D01*
X115962222Y-41022991D01*
X115878557Y-40866466D01*
X115827037Y-40696627D01*
X115809641Y-40520000D01*
X115827037Y-40343373D01*
X115878557Y-40173534D01*
X115962222Y-40017009D01*
X115991552Y-39981271D01*
X116074814Y-39879814D01*
X116176271Y-39796552D01*
X116212009Y-39767222D01*
X116368534Y-39683557D01*
X116538373Y-39632037D01*
X116604558Y-39625518D01*
X116670740Y-39619000D01*
X117009260Y-39619000D01*
X117075442Y-39625518D01*
G37*
G36*
X90010109Y-34879814D02*
G01*
X90483282Y-34973934D01*
X91074926Y-35219001D01*
X91607392Y-35574784D01*
X92060216Y-36027608D01*
X92415999Y-36560074D01*
X92661066Y-37151718D01*
X92684041Y-37267221D01*
X92782755Y-37763487D01*
X92786000Y-37779804D01*
X92786000Y-38420196D01*
X92661066Y-39048282D01*
X92415999Y-39639926D01*
X92060216Y-40172392D01*
X91607392Y-40625216D01*
X91074926Y-40980999D01*
X90483282Y-41226066D01*
X90248445Y-41272778D01*
X89855197Y-41351000D01*
X89214803Y-41351000D01*
X88821555Y-41272778D01*
X88586718Y-41226066D01*
X87995074Y-40980999D01*
X87462608Y-40625216D01*
X87009784Y-40172392D01*
X86654001Y-39639926D01*
X86408934Y-39048282D01*
X86284000Y-38420196D01*
X86284000Y-37779804D01*
X86287246Y-37763487D01*
X86385959Y-37267221D01*
X86408934Y-37151718D01*
X86654001Y-36560074D01*
X87009784Y-36027608D01*
X87462608Y-35574784D01*
X87995074Y-35219001D01*
X88586718Y-34973934D01*
X89059891Y-34879814D01*
X89214803Y-34849000D01*
X89855197Y-34849000D01*
X90010109Y-34879814D01*
G37*
G36*
X137635109Y-34879814D02*
G01*
X138108282Y-34973934D01*
X138699926Y-35219001D01*
X139232392Y-35574784D01*
X139685216Y-36027608D01*
X140040999Y-36560074D01*
X140286066Y-37151718D01*
X140309041Y-37267221D01*
X140407755Y-37763487D01*
X140411000Y-37779804D01*
X140411000Y-38420196D01*
X140286066Y-39048282D01*
X140040999Y-39639926D01*
X139685216Y-40172392D01*
X139232392Y-40625216D01*
X138699926Y-40980999D01*
X138108282Y-41226066D01*
X137873445Y-41272778D01*
X137480197Y-41351000D01*
X136839803Y-41351000D01*
X136446555Y-41272778D01*
X136211718Y-41226066D01*
X135620074Y-40980999D01*
X135087608Y-40625216D01*
X134634784Y-40172392D01*
X134279001Y-39639926D01*
X134033934Y-39048282D01*
X133909000Y-38420196D01*
X133909000Y-37779804D01*
X133912246Y-37763487D01*
X134010959Y-37267221D01*
X134033934Y-37151718D01*
X134279001Y-36560074D01*
X134634784Y-36027608D01*
X135087608Y-35574784D01*
X135620074Y-35219001D01*
X136211718Y-34973934D01*
X136684891Y-34879814D01*
X136839803Y-34849000D01*
X137480197Y-34849000D01*
X137635109Y-34879814D01*
G37*
G36*
X76798254Y-36762818D02*
G01*
X77171511Y-36917426D01*
X77171513Y-36917427D01*
X77507436Y-37141884D01*
X77793116Y-37427564D01*
X78013057Y-37756728D01*
X78017574Y-37763489D01*
X78172182Y-38136746D01*
X78251000Y-38532993D01*
X78251000Y-38937007D01*
X78172182Y-39333254D01*
X78053822Y-39619000D01*
X78017573Y-39706513D01*
X77793116Y-40042436D01*
X77507436Y-40328116D01*
X77171513Y-40552573D01*
X77171512Y-40552574D01*
X77171511Y-40552574D01*
X76798254Y-40707182D01*
X76402007Y-40786000D01*
X75997993Y-40786000D01*
X75601746Y-40707182D01*
X75228489Y-40552574D01*
X75228488Y-40552574D01*
X75228487Y-40552573D01*
X74892564Y-40328116D01*
X74606884Y-40042436D01*
X74382427Y-39706513D01*
X74346178Y-39619000D01*
X74227818Y-39333254D01*
X74149000Y-38937007D01*
X74149000Y-38532993D01*
X74227818Y-38136746D01*
X74382426Y-37763489D01*
X74386944Y-37756728D01*
X74606884Y-37427564D01*
X74892564Y-37141884D01*
X75228487Y-36917427D01*
X75228489Y-36917426D01*
X75601746Y-36762818D01*
X75997993Y-36684000D01*
X76402007Y-36684000D01*
X76798254Y-36762818D01*
G37*
G36*
X117075442Y-37125518D02*
G01*
X117141627Y-37132037D01*
X117311466Y-37183557D01*
X117467991Y-37267222D01*
X117503729Y-37296552D01*
X117605186Y-37379814D01*
X117688448Y-37481271D01*
X117717778Y-37517009D01*
X117801443Y-37673534D01*
X117852963Y-37843373D01*
X117870359Y-38020000D01*
X117852963Y-38196627D01*
X117801443Y-38366466D01*
X117801442Y-38366468D01*
X117772723Y-38420197D01*
X117717778Y-38522991D01*
X117688448Y-38558729D01*
X117605186Y-38660186D01*
X117503729Y-38743448D01*
X117467991Y-38772778D01*
X117311466Y-38856443D01*
X117141627Y-38907963D01*
X117075442Y-38914482D01*
X117009260Y-38921000D01*
X116670740Y-38921000D01*
X116604558Y-38914482D01*
X116538373Y-38907963D01*
X116368534Y-38856443D01*
X116212009Y-38772778D01*
X116176271Y-38743448D01*
X116074814Y-38660186D01*
X115991552Y-38558729D01*
X115962222Y-38522991D01*
X115907277Y-38420197D01*
X115878558Y-38366468D01*
X115878557Y-38366466D01*
X115827037Y-38196627D01*
X115809641Y-38020000D01*
X115827037Y-37843373D01*
X115878557Y-37673534D01*
X115962222Y-37517009D01*
X115991552Y-37481271D01*
X116074814Y-37379814D01*
X116176271Y-37296552D01*
X116212009Y-37267222D01*
X116368534Y-37183557D01*
X116538373Y-37132037D01*
X116604558Y-37125518D01*
X116670740Y-37119000D01*
X117009260Y-37119000D01*
X117075442Y-37125518D01*
G37*
G36*
X110546032Y-35334207D02*
G01*
X110744146Y-35394305D01*
X110744149Y-35394306D01*
X110840975Y-35446061D01*
X110926729Y-35491897D01*
X111086765Y-35623235D01*
X111218103Y-35783271D01*
X111259983Y-35861624D01*
X111315694Y-35965851D01*
X111315695Y-35965854D01*
X111375793Y-36163969D01*
X111391000Y-36318371D01*
X111391000Y-37221630D01*
X111375793Y-37376032D01*
X111333027Y-37517011D01*
X111315694Y-37574149D01*
X111263939Y-37670975D01*
X111218103Y-37756729D01*
X111086765Y-37916765D01*
X110926729Y-38048103D01*
X110810030Y-38110479D01*
X110744148Y-38145694D01*
X110744145Y-38145695D01*
X110546031Y-38205793D01*
X110340000Y-38226085D01*
X110133968Y-38205793D01*
X109935854Y-38145695D01*
X109935851Y-38145694D01*
X109839025Y-38093939D01*
X109753271Y-38048103D01*
X109593235Y-37916765D01*
X109461897Y-37756729D01*
X109364307Y-37574149D01*
X109364306Y-37574148D01*
X109364305Y-37574145D01*
X109304207Y-37376031D01*
X109289000Y-37221629D01*
X109289000Y-36318369D01*
X109304207Y-36163970D01*
X109364305Y-35965853D01*
X109442779Y-35819040D01*
X109461898Y-35783271D01*
X109593236Y-35623235D01*
X109753272Y-35491897D01*
X109839026Y-35446061D01*
X109935852Y-35394306D01*
X109935855Y-35394305D01*
X110133969Y-35334207D01*
X110340000Y-35313915D01*
X110546032Y-35334207D01*
G37*
G36*
X127216627Y-34547037D02*
G01*
X127386466Y-34598557D01*
X127542991Y-34682222D01*
X127578729Y-34711552D01*
X127680186Y-34794814D01*
X127749943Y-34879815D01*
X127792778Y-34932009D01*
X127876443Y-35088534D01*
X127927963Y-35258374D01*
X127941000Y-35390743D01*
X127941000Y-35729258D01*
X127927963Y-35861627D01*
X127876443Y-36031466D01*
X127792778Y-36187991D01*
X127763448Y-36223729D01*
X127680186Y-36325186D01*
X127542989Y-36437779D01*
X127386467Y-36521442D01*
X127386465Y-36521443D01*
X127216626Y-36572963D01*
X127040000Y-36590359D01*
X126863373Y-36572963D01*
X126693534Y-36521443D01*
X126537009Y-36437778D01*
X126494750Y-36403097D01*
X126399814Y-36325186D01*
X126287221Y-36187989D01*
X126203558Y-36031467D01*
X126203557Y-36031465D01*
X126152037Y-35861626D01*
X126139000Y-35729257D01*
X126139000Y-35390742D01*
X126152037Y-35258373D01*
X126203557Y-35088534D01*
X126287222Y-34932009D01*
X126399815Y-34794815D01*
X126537010Y-34682222D01*
X126693535Y-34598557D01*
X126863374Y-34547037D01*
X127040000Y-34529641D01*
X127216627Y-34547037D01*
G37*
G36*
X124716627Y-34547037D02*
G01*
X124886466Y-34598557D01*
X125042991Y-34682222D01*
X125078729Y-34711552D01*
X125180186Y-34794814D01*
X125249943Y-34879815D01*
X125292778Y-34932009D01*
X125376443Y-35088534D01*
X125427963Y-35258374D01*
X125441000Y-35390743D01*
X125441000Y-35729258D01*
X125427963Y-35861627D01*
X125376443Y-36031466D01*
X125292778Y-36187991D01*
X125263448Y-36223729D01*
X125180186Y-36325186D01*
X125042989Y-36437779D01*
X124886467Y-36521442D01*
X124886465Y-36521443D01*
X124716626Y-36572963D01*
X124540000Y-36590359D01*
X124363373Y-36572963D01*
X124193534Y-36521443D01*
X124037009Y-36437778D01*
X123994750Y-36403097D01*
X123899814Y-36325186D01*
X123787221Y-36187989D01*
X123703558Y-36031467D01*
X123703557Y-36031465D01*
X123652037Y-35861626D01*
X123639000Y-35729257D01*
X123639000Y-35390742D01*
X123652037Y-35258373D01*
X123703557Y-35088534D01*
X123787222Y-34932009D01*
X123899815Y-34794815D01*
X124037010Y-34682222D01*
X124193535Y-34598557D01*
X124363374Y-34547037D01*
X124540000Y-34529641D01*
X124716627Y-34547037D01*
G37*
G36*
X144401627Y-34547037D02*
G01*
X144571466Y-34598557D01*
X144727991Y-34682222D01*
X144763729Y-34711552D01*
X144865186Y-34794814D01*
X144934943Y-34879815D01*
X144977778Y-34932009D01*
X145061443Y-35088534D01*
X145112963Y-35258374D01*
X145126000Y-35390743D01*
X145126000Y-35729258D01*
X145112963Y-35861627D01*
X145061443Y-36031466D01*
X144977778Y-36187991D01*
X144948448Y-36223729D01*
X144865186Y-36325186D01*
X144727989Y-36437779D01*
X144571467Y-36521442D01*
X144571465Y-36521443D01*
X144401626Y-36572963D01*
X144225000Y-36590359D01*
X144048373Y-36572963D01*
X143878534Y-36521443D01*
X143722009Y-36437778D01*
X143679750Y-36403097D01*
X143584814Y-36325186D01*
X143472221Y-36187989D01*
X143388558Y-36031467D01*
X143388557Y-36031465D01*
X143337037Y-35861626D01*
X143324000Y-35729257D01*
X143324000Y-35390742D01*
X143337037Y-35258373D01*
X143388557Y-35088534D01*
X143472222Y-34932009D01*
X143584815Y-34794815D01*
X143722010Y-34682222D01*
X143878535Y-34598557D01*
X144048374Y-34547037D01*
X144225000Y-34529641D01*
X144401627Y-34547037D01*
G37*
G36*
X146901627Y-34547037D02*
G01*
X147071466Y-34598557D01*
X147227991Y-34682222D01*
X147263729Y-34711552D01*
X147365186Y-34794814D01*
X147434943Y-34879815D01*
X147477778Y-34932009D01*
X147561443Y-35088534D01*
X147612963Y-35258374D01*
X147626000Y-35390743D01*
X147626000Y-35729258D01*
X147612963Y-35861627D01*
X147561443Y-36031466D01*
X147477778Y-36187991D01*
X147448448Y-36223729D01*
X147365186Y-36325186D01*
X147227989Y-36437779D01*
X147071467Y-36521442D01*
X147071465Y-36521443D01*
X146901626Y-36572963D01*
X146725000Y-36590359D01*
X146548373Y-36572963D01*
X146378534Y-36521443D01*
X146222009Y-36437778D01*
X146179750Y-36403097D01*
X146084814Y-36325186D01*
X145972221Y-36187989D01*
X145888558Y-36031467D01*
X145888557Y-36031465D01*
X145837037Y-35861626D01*
X145824000Y-35729257D01*
X145824000Y-35390742D01*
X145837037Y-35258373D01*
X145888557Y-35088534D01*
X145972222Y-34932009D01*
X146084815Y-34794815D01*
X146222010Y-34682222D01*
X146378535Y-34598557D01*
X146548374Y-34547037D01*
X146725000Y-34529641D01*
X146901627Y-34547037D01*
G37*
G36*
X130298600Y-34537989D02*
G01*
X130331652Y-34548015D01*
X130362103Y-34564292D01*
X130388799Y-34586201D01*
X130410708Y-34612897D01*
X130426985Y-34643348D01*
X130437011Y-34676400D01*
X130441000Y-34716903D01*
X130441000Y-36403097D01*
X130437011Y-36443600D01*
X130426985Y-36476652D01*
X130410708Y-36507103D01*
X130388799Y-36533799D01*
X130362103Y-36555708D01*
X130331652Y-36571985D01*
X130298600Y-36582011D01*
X130258097Y-36586000D01*
X128821903Y-36586000D01*
X128781400Y-36582011D01*
X128748348Y-36571985D01*
X128717897Y-36555708D01*
X128691201Y-36533799D01*
X128669292Y-36507103D01*
X128653015Y-36476652D01*
X128642989Y-36443600D01*
X128639000Y-36403097D01*
X128639000Y-34716903D01*
X128642989Y-34676400D01*
X128653015Y-34643348D01*
X128669292Y-34612897D01*
X128691201Y-34586201D01*
X128717897Y-34564292D01*
X128748348Y-34548015D01*
X128781400Y-34537989D01*
X128821903Y-34534000D01*
X130258097Y-34534000D01*
X130298600Y-34537989D01*
G37*
G36*
X149983600Y-34537989D02*
G01*
X150016652Y-34548015D01*
X150047103Y-34564292D01*
X150073799Y-34586201D01*
X150095708Y-34612897D01*
X150111985Y-34643348D01*
X150122011Y-34676400D01*
X150126000Y-34716903D01*
X150126000Y-36403097D01*
X150122011Y-36443600D01*
X150111985Y-36476652D01*
X150095708Y-36507103D01*
X150073799Y-36533799D01*
X150047103Y-36555708D01*
X150016652Y-36571985D01*
X149983600Y-36582011D01*
X149943097Y-36586000D01*
X148506903Y-36586000D01*
X148466400Y-36582011D01*
X148433348Y-36571985D01*
X148402897Y-36555708D01*
X148376201Y-36533799D01*
X148354292Y-36507103D01*
X148338015Y-36476652D01*
X148327989Y-36443600D01*
X148324000Y-36403097D01*
X148324000Y-34716903D01*
X148327989Y-34676400D01*
X148338015Y-34643348D01*
X148354292Y-34612897D01*
X148376201Y-34586201D01*
X148402897Y-34564292D01*
X148433348Y-34548015D01*
X148466400Y-34537989D01*
X148506903Y-34534000D01*
X149943097Y-34534000D01*
X149983600Y-34537989D01*
G37*
G36*
X117075442Y-34625518D02*
G01*
X117141627Y-34632037D01*
X117311466Y-34683557D01*
X117311468Y-34683558D01*
X117389729Y-34725390D01*
X117467991Y-34767222D01*
X117501612Y-34794814D01*
X117605186Y-34879814D01*
X117682427Y-34973934D01*
X117717778Y-35017009D01*
X117801443Y-35173534D01*
X117852963Y-35343373D01*
X117870359Y-35520000D01*
X117852963Y-35696627D01*
X117801443Y-35866466D01*
X117717778Y-36022991D01*
X117688448Y-36058729D01*
X117605186Y-36160186D01*
X117503729Y-36243448D01*
X117467991Y-36272778D01*
X117311466Y-36356443D01*
X117141627Y-36407963D01*
X117075442Y-36414482D01*
X117009260Y-36421000D01*
X116670740Y-36421000D01*
X116604558Y-36414482D01*
X116538373Y-36407963D01*
X116368534Y-36356443D01*
X116212009Y-36272778D01*
X116176271Y-36243448D01*
X116074814Y-36160186D01*
X115991552Y-36058729D01*
X115962222Y-36022991D01*
X115878557Y-35866466D01*
X115827037Y-35696627D01*
X115809641Y-35520000D01*
X115827037Y-35343373D01*
X115878557Y-35173534D01*
X115962222Y-35017009D01*
X115997573Y-34973934D01*
X116074814Y-34879814D01*
X116178388Y-34794814D01*
X116212009Y-34767222D01*
X116290272Y-34725389D01*
X116368532Y-34683558D01*
X116368534Y-34683557D01*
X116538373Y-34632037D01*
X116604558Y-34625518D01*
X116670740Y-34619000D01*
X117009260Y-34619000D01*
X117075442Y-34625518D01*
G37*
G36*
X78964549Y-33796116D02*
G01*
X79075734Y-33818232D01*
X79223850Y-33879584D01*
X79275139Y-33900828D01*
X79285203Y-33904997D01*
X79473720Y-34030960D01*
X79634040Y-34191280D01*
X79760003Y-34379797D01*
X79846768Y-34589266D01*
X79864100Y-34676400D01*
X79872157Y-34716903D01*
X79891000Y-34811636D01*
X79891000Y-35038364D01*
X79846768Y-35260734D01*
X79760003Y-35470203D01*
X79634040Y-35658720D01*
X79473720Y-35819040D01*
X79285203Y-35945003D01*
X79075734Y-36031768D01*
X78964549Y-36053884D01*
X78853365Y-36076000D01*
X78626635Y-36076000D01*
X78515451Y-36053884D01*
X78404266Y-36031768D01*
X78194797Y-35945003D01*
X78006280Y-35819040D01*
X77845960Y-35658720D01*
X77719997Y-35470203D01*
X77633232Y-35260734D01*
X77589000Y-35038364D01*
X77589000Y-34811636D01*
X77607844Y-34716903D01*
X77615900Y-34676400D01*
X77633232Y-34589266D01*
X77719997Y-34379797D01*
X77845960Y-34191280D01*
X78006280Y-34030960D01*
X78194797Y-33904997D01*
X78204862Y-33900828D01*
X78256150Y-33879584D01*
X78404266Y-33818232D01*
X78515451Y-33796116D01*
X78626635Y-33774000D01*
X78853365Y-33774000D01*
X78964549Y-33796116D01*
G37*
G36*
X76313512Y-32758927D02*
G01*
X76462812Y-32788624D01*
X76626784Y-32856544D01*
X76774354Y-32955147D01*
X76899853Y-33080646D01*
X76998456Y-33228216D01*
X77066376Y-33392188D01*
X77101000Y-33566259D01*
X77101000Y-33743741D01*
X77066376Y-33917812D01*
X76998456Y-34081784D01*
X76899853Y-34229354D01*
X76774354Y-34354853D01*
X76626784Y-34453456D01*
X76462812Y-34521376D01*
X76328885Y-34548015D01*
X76288742Y-34556000D01*
X76111258Y-34556000D01*
X76071115Y-34548015D01*
X75937188Y-34521376D01*
X75773216Y-34453456D01*
X75625646Y-34354853D01*
X75500147Y-34229354D01*
X75401544Y-34081784D01*
X75333624Y-33917812D01*
X75299000Y-33743741D01*
X75299000Y-33566259D01*
X75333624Y-33392188D01*
X75401544Y-33228216D01*
X75500147Y-33080646D01*
X75625646Y-32955147D01*
X75773216Y-32856544D01*
X75937188Y-32788624D01*
X76086488Y-32758927D01*
X76111258Y-32754000D01*
X76288742Y-32754000D01*
X76313512Y-32758927D01*
G37*
G36*
X117723600Y-32122989D02*
G01*
X117756652Y-32133015D01*
X117787103Y-32149292D01*
X117813799Y-32171201D01*
X117835708Y-32197897D01*
X117851985Y-32228348D01*
X117862011Y-32261400D01*
X117866000Y-32301903D01*
X117866000Y-33738097D01*
X117862011Y-33778600D01*
X117851985Y-33811652D01*
X117835708Y-33842103D01*
X117813799Y-33868799D01*
X117787103Y-33890708D01*
X117756652Y-33906985D01*
X117723600Y-33917011D01*
X117683097Y-33921000D01*
X115996903Y-33921000D01*
X115956400Y-33917011D01*
X115923348Y-33906985D01*
X115892897Y-33890708D01*
X115866201Y-33868799D01*
X115844292Y-33842103D01*
X115828015Y-33811652D01*
X115817989Y-33778600D01*
X115814000Y-33738097D01*
X115814000Y-32301903D01*
X115817989Y-32261400D01*
X115828015Y-32228348D01*
X115844292Y-32197897D01*
X115866201Y-32171201D01*
X115892897Y-32149292D01*
X115923348Y-32133015D01*
X115956400Y-32122989D01*
X115996903Y-32119000D01*
X117683097Y-32119000D01*
X117723600Y-32122989D01*
G37*
G36*
X127543097Y-28014069D02*
G01*
X127646032Y-28024207D01*
X127844146Y-28084305D01*
X127844149Y-28084306D01*
X127940975Y-28136061D01*
X128026729Y-28181897D01*
X128186765Y-28313235D01*
X128318103Y-28473271D01*
X128363939Y-28559025D01*
X128415694Y-28655851D01*
X128415695Y-28655854D01*
X128475793Y-28853968D01*
X128496085Y-29060000D01*
X128475793Y-29266032D01*
X128415695Y-29464146D01*
X128415694Y-29464149D01*
X128363939Y-29560975D01*
X128318103Y-29646729D01*
X128186765Y-29806765D01*
X128026729Y-29938103D01*
X127940975Y-29983939D01*
X127844149Y-30035694D01*
X127844146Y-30035695D01*
X127646032Y-30095793D01*
X127543097Y-30105931D01*
X127491631Y-30111000D01*
X126588369Y-30111000D01*
X126536903Y-30105931D01*
X126433968Y-30095793D01*
X126235854Y-30035695D01*
X126235851Y-30035694D01*
X126139025Y-29983939D01*
X126053271Y-29938103D01*
X125893235Y-29806765D01*
X125761897Y-29646729D01*
X125716061Y-29560975D01*
X125664306Y-29464149D01*
X125664305Y-29464146D01*
X125604207Y-29266032D01*
X125583915Y-29060000D01*
X125604207Y-28853968D01*
X125664305Y-28655854D01*
X125664306Y-28655851D01*
X125716061Y-28559025D01*
X125761897Y-28473271D01*
X125893235Y-28313235D01*
X126053271Y-28181897D01*
X126139025Y-28136061D01*
X126235851Y-28084306D01*
X126235854Y-28084305D01*
X126433968Y-28024207D01*
X126536903Y-28014069D01*
X126588369Y-28009000D01*
X127491631Y-28009000D01*
X127543097Y-28014069D01*
G37*
G36*
X147228097Y-28014069D02*
G01*
X147331032Y-28024207D01*
X147529146Y-28084305D01*
X147529149Y-28084306D01*
X147625975Y-28136061D01*
X147711729Y-28181897D01*
X147871765Y-28313235D01*
X148003103Y-28473271D01*
X148048939Y-28559025D01*
X148100694Y-28655851D01*
X148100695Y-28655854D01*
X148160793Y-28853968D01*
X148181085Y-29060000D01*
X148160793Y-29266032D01*
X148100695Y-29464146D01*
X148100694Y-29464149D01*
X148048939Y-29560975D01*
X148003103Y-29646729D01*
X147871765Y-29806765D01*
X147711729Y-29938103D01*
X147625975Y-29983939D01*
X147529149Y-30035694D01*
X147529146Y-30035695D01*
X147331032Y-30095793D01*
X147228097Y-30105931D01*
X147176631Y-30111000D01*
X146273369Y-30111000D01*
X146221903Y-30105931D01*
X146118968Y-30095793D01*
X145920854Y-30035695D01*
X145920851Y-30035694D01*
X145824025Y-29983939D01*
X145738271Y-29938103D01*
X145578235Y-29806765D01*
X145446897Y-29646729D01*
X145401061Y-29560975D01*
X145349306Y-29464149D01*
X145349305Y-29464146D01*
X145289207Y-29266032D01*
X145268915Y-29060000D01*
X145289207Y-28853968D01*
X145349305Y-28655854D01*
X145349306Y-28655851D01*
X145401061Y-28559025D01*
X145446897Y-28473271D01*
X145578235Y-28313235D01*
X145738271Y-28181897D01*
X145824025Y-28136061D01*
X145920851Y-28084306D01*
X145920854Y-28084305D01*
X146118968Y-28024207D01*
X146221903Y-28014069D01*
X146273369Y-28009000D01*
X147176631Y-28009000D01*
X147228097Y-28014069D01*
G37*
M02*
