G04 #@! TF.GenerationSoftware,KiCad,Pcbnew,7.0.7*
G04 #@! TF.CreationDate,2023-10-02T17:26:39+09:00*
G04 #@! TF.ProjectId,control_interface_boad_2021-2,636f6e74-726f-46c5-9f69-6e7465726661,rev?*
G04 #@! TF.SameCoordinates,Original*
G04 #@! TF.FileFunction,Legend,Top*
G04 #@! TF.FilePolarity,Positive*
%FSLAX46Y46*%
G04 Gerber Fmt 4.6, Leading zero omitted, Abs format (unit mm)*
G04 Created by KiCad (PCBNEW 7.0.7) date 2023-10-02 17:26:39*
%MOMM*%
%LPD*%
G01*
G04 APERTURE LIST*
%ADD10C,0.150000*%
%ADD11C,0.200000*%
%ADD12C,0.120000*%
G04 APERTURE END LIST*
D10*
X113657142Y-120839580D02*
X113609523Y-120887200D01*
X113609523Y-120887200D02*
X113466666Y-120934819D01*
X113466666Y-120934819D02*
X113371428Y-120934819D01*
X113371428Y-120934819D02*
X113228571Y-120887200D01*
X113228571Y-120887200D02*
X113133333Y-120791961D01*
X113133333Y-120791961D02*
X113085714Y-120696723D01*
X113085714Y-120696723D02*
X113038095Y-120506247D01*
X113038095Y-120506247D02*
X113038095Y-120363390D01*
X113038095Y-120363390D02*
X113085714Y-120172914D01*
X113085714Y-120172914D02*
X113133333Y-120077676D01*
X113133333Y-120077676D02*
X113228571Y-119982438D01*
X113228571Y-119982438D02*
X113371428Y-119934819D01*
X113371428Y-119934819D02*
X113466666Y-119934819D01*
X113466666Y-119934819D02*
X113609523Y-119982438D01*
X113609523Y-119982438D02*
X113657142Y-120030057D01*
X114038095Y-120649104D02*
X114514285Y-120649104D01*
X113942857Y-120934819D02*
X114276190Y-119934819D01*
X114276190Y-119934819D02*
X114609523Y-120934819D01*
X114942857Y-120934819D02*
X114942857Y-119934819D01*
X114942857Y-119934819D02*
X115514285Y-120934819D01*
X115514285Y-120934819D02*
X115514285Y-119934819D01*
X108704761Y-122544819D02*
X108371428Y-122068628D01*
X108133333Y-122544819D02*
X108133333Y-121544819D01*
X108133333Y-121544819D02*
X108514285Y-121544819D01*
X108514285Y-121544819D02*
X108609523Y-121592438D01*
X108609523Y-121592438D02*
X108657142Y-121640057D01*
X108657142Y-121640057D02*
X108704761Y-121735295D01*
X108704761Y-121735295D02*
X108704761Y-121878152D01*
X108704761Y-121878152D02*
X108657142Y-121973390D01*
X108657142Y-121973390D02*
X108609523Y-122021009D01*
X108609523Y-122021009D02*
X108514285Y-122068628D01*
X108514285Y-122068628D02*
X108133333Y-122068628D01*
X109038095Y-121544819D02*
X109704761Y-122544819D01*
X109704761Y-121544819D02*
X109038095Y-122544819D01*
X110847619Y-122544819D02*
X110847619Y-121544819D01*
X111514285Y-121544819D02*
X111704761Y-121544819D01*
X111704761Y-121544819D02*
X111799999Y-121592438D01*
X111799999Y-121592438D02*
X111895237Y-121687676D01*
X111895237Y-121687676D02*
X111942856Y-121878152D01*
X111942856Y-121878152D02*
X111942856Y-122211485D01*
X111942856Y-122211485D02*
X111895237Y-122401961D01*
X111895237Y-122401961D02*
X111799999Y-122497200D01*
X111799999Y-122497200D02*
X111704761Y-122544819D01*
X111704761Y-122544819D02*
X111514285Y-122544819D01*
X111514285Y-122544819D02*
X111419047Y-122497200D01*
X111419047Y-122497200D02*
X111323809Y-122401961D01*
X111323809Y-122401961D02*
X111276190Y-122211485D01*
X111276190Y-122211485D02*
X111276190Y-121878152D01*
X111276190Y-121878152D02*
X111323809Y-121687676D01*
X111323809Y-121687676D02*
X111419047Y-121592438D01*
X111419047Y-121592438D02*
X111514285Y-121544819D01*
X112323809Y-121640057D02*
X112371428Y-121592438D01*
X112371428Y-121592438D02*
X112466666Y-121544819D01*
X112466666Y-121544819D02*
X112704761Y-121544819D01*
X112704761Y-121544819D02*
X112799999Y-121592438D01*
X112799999Y-121592438D02*
X112847618Y-121640057D01*
X112847618Y-121640057D02*
X112895237Y-121735295D01*
X112895237Y-121735295D02*
X112895237Y-121830533D01*
X112895237Y-121830533D02*
X112847618Y-121973390D01*
X112847618Y-121973390D02*
X112276190Y-122544819D01*
X112276190Y-122544819D02*
X112895237Y-122544819D01*
X113752380Y-121544819D02*
X113561904Y-121544819D01*
X113561904Y-121544819D02*
X113466666Y-121592438D01*
X113466666Y-121592438D02*
X113419047Y-121640057D01*
X113419047Y-121640057D02*
X113323809Y-121782914D01*
X113323809Y-121782914D02*
X113276190Y-121973390D01*
X113276190Y-121973390D02*
X113276190Y-122354342D01*
X113276190Y-122354342D02*
X113323809Y-122449580D01*
X113323809Y-122449580D02*
X113371428Y-122497200D01*
X113371428Y-122497200D02*
X113466666Y-122544819D01*
X113466666Y-122544819D02*
X113657142Y-122544819D01*
X113657142Y-122544819D02*
X113752380Y-122497200D01*
X113752380Y-122497200D02*
X113799999Y-122449580D01*
X113799999Y-122449580D02*
X113847618Y-122354342D01*
X113847618Y-122354342D02*
X113847618Y-122116247D01*
X113847618Y-122116247D02*
X113799999Y-122021009D01*
X113799999Y-122021009D02*
X113752380Y-121973390D01*
X113752380Y-121973390D02*
X113657142Y-121925771D01*
X113657142Y-121925771D02*
X113466666Y-121925771D01*
X113466666Y-121925771D02*
X113371428Y-121973390D01*
X113371428Y-121973390D02*
X113323809Y-122021009D01*
X113323809Y-122021009D02*
X113276190Y-122116247D01*
X114895238Y-121544819D02*
X115466666Y-121544819D01*
X115180952Y-122544819D02*
X115180952Y-121544819D01*
X115704762Y-121544819D02*
X116371428Y-122544819D01*
X116371428Y-121544819D02*
X115704762Y-122544819D01*
X117514286Y-122544819D02*
X117514286Y-121544819D01*
X118180952Y-121544819D02*
X118371428Y-121544819D01*
X118371428Y-121544819D02*
X118466666Y-121592438D01*
X118466666Y-121592438D02*
X118561904Y-121687676D01*
X118561904Y-121687676D02*
X118609523Y-121878152D01*
X118609523Y-121878152D02*
X118609523Y-122211485D01*
X118609523Y-122211485D02*
X118561904Y-122401961D01*
X118561904Y-122401961D02*
X118466666Y-122497200D01*
X118466666Y-122497200D02*
X118371428Y-122544819D01*
X118371428Y-122544819D02*
X118180952Y-122544819D01*
X118180952Y-122544819D02*
X118085714Y-122497200D01*
X118085714Y-122497200D02*
X117990476Y-122401961D01*
X117990476Y-122401961D02*
X117942857Y-122211485D01*
X117942857Y-122211485D02*
X117942857Y-121878152D01*
X117942857Y-121878152D02*
X117990476Y-121687676D01*
X117990476Y-121687676D02*
X118085714Y-121592438D01*
X118085714Y-121592438D02*
X118180952Y-121544819D01*
X118990476Y-121640057D02*
X119038095Y-121592438D01*
X119038095Y-121592438D02*
X119133333Y-121544819D01*
X119133333Y-121544819D02*
X119371428Y-121544819D01*
X119371428Y-121544819D02*
X119466666Y-121592438D01*
X119466666Y-121592438D02*
X119514285Y-121640057D01*
X119514285Y-121640057D02*
X119561904Y-121735295D01*
X119561904Y-121735295D02*
X119561904Y-121830533D01*
X119561904Y-121830533D02*
X119514285Y-121973390D01*
X119514285Y-121973390D02*
X118942857Y-122544819D01*
X118942857Y-122544819D02*
X119561904Y-122544819D01*
X119895238Y-121544819D02*
X120561904Y-121544819D01*
X120561904Y-121544819D02*
X120133333Y-122544819D01*
X135199819Y-123237142D02*
X134199819Y-123237142D01*
X134199819Y-123237142D02*
X135199819Y-122665714D01*
X135199819Y-122665714D02*
X134199819Y-122665714D01*
X135152200Y-121808571D02*
X135199819Y-121903809D01*
X135199819Y-121903809D02*
X135199819Y-122094285D01*
X135199819Y-122094285D02*
X135152200Y-122189523D01*
X135152200Y-122189523D02*
X135056961Y-122237142D01*
X135056961Y-122237142D02*
X134676009Y-122237142D01*
X134676009Y-122237142D02*
X134580771Y-122189523D01*
X134580771Y-122189523D02*
X134533152Y-122094285D01*
X134533152Y-122094285D02*
X134533152Y-121903809D01*
X134533152Y-121903809D02*
X134580771Y-121808571D01*
X134580771Y-121808571D02*
X134676009Y-121760952D01*
X134676009Y-121760952D02*
X134771247Y-121760952D01*
X134771247Y-121760952D02*
X134866485Y-122237142D01*
X135199819Y-121189523D02*
X135152200Y-121284761D01*
X135152200Y-121284761D02*
X135104580Y-121332380D01*
X135104580Y-121332380D02*
X135009342Y-121379999D01*
X135009342Y-121379999D02*
X134723628Y-121379999D01*
X134723628Y-121379999D02*
X134628390Y-121332380D01*
X134628390Y-121332380D02*
X134580771Y-121284761D01*
X134580771Y-121284761D02*
X134533152Y-121189523D01*
X134533152Y-121189523D02*
X134533152Y-121046666D01*
X134533152Y-121046666D02*
X134580771Y-120951428D01*
X134580771Y-120951428D02*
X134628390Y-120903809D01*
X134628390Y-120903809D02*
X134723628Y-120856190D01*
X134723628Y-120856190D02*
X135009342Y-120856190D01*
X135009342Y-120856190D02*
X135104580Y-120903809D01*
X135104580Y-120903809D02*
X135152200Y-120951428D01*
X135152200Y-120951428D02*
X135199819Y-121046666D01*
X135199819Y-121046666D02*
X135199819Y-121189523D01*
X135199819Y-120427618D02*
X134199819Y-120427618D01*
X134199819Y-120427618D02*
X134199819Y-120046666D01*
X134199819Y-120046666D02*
X134247438Y-119951428D01*
X134247438Y-119951428D02*
X134295057Y-119903809D01*
X134295057Y-119903809D02*
X134390295Y-119856190D01*
X134390295Y-119856190D02*
X134533152Y-119856190D01*
X134533152Y-119856190D02*
X134628390Y-119903809D01*
X134628390Y-119903809D02*
X134676009Y-119951428D01*
X134676009Y-119951428D02*
X134723628Y-120046666D01*
X134723628Y-120046666D02*
X134723628Y-120427618D01*
X135199819Y-119427618D02*
X134533152Y-119427618D01*
X134199819Y-119427618D02*
X134247438Y-119475237D01*
X134247438Y-119475237D02*
X134295057Y-119427618D01*
X134295057Y-119427618D02*
X134247438Y-119379999D01*
X134247438Y-119379999D02*
X134199819Y-119427618D01*
X134199819Y-119427618D02*
X134295057Y-119427618D01*
X135199819Y-119046666D02*
X134533152Y-118522857D01*
X134533152Y-119046666D02*
X135199819Y-118522857D01*
X135152200Y-117760952D02*
X135199819Y-117856190D01*
X135199819Y-117856190D02*
X135199819Y-118046666D01*
X135199819Y-118046666D02*
X135152200Y-118141904D01*
X135152200Y-118141904D02*
X135056961Y-118189523D01*
X135056961Y-118189523D02*
X134676009Y-118189523D01*
X134676009Y-118189523D02*
X134580771Y-118141904D01*
X134580771Y-118141904D02*
X134533152Y-118046666D01*
X134533152Y-118046666D02*
X134533152Y-117856190D01*
X134533152Y-117856190D02*
X134580771Y-117760952D01*
X134580771Y-117760952D02*
X134676009Y-117713333D01*
X134676009Y-117713333D02*
X134771247Y-117713333D01*
X134771247Y-117713333D02*
X134866485Y-118189523D01*
X135199819Y-117141904D02*
X135152200Y-117237142D01*
X135152200Y-117237142D02*
X135056961Y-117284761D01*
X135056961Y-117284761D02*
X134199819Y-117284761D01*
X134199819Y-116856189D02*
X134199819Y-116237142D01*
X134199819Y-116237142D02*
X134580771Y-116570475D01*
X134580771Y-116570475D02*
X134580771Y-116427618D01*
X134580771Y-116427618D02*
X134628390Y-116332380D01*
X134628390Y-116332380D02*
X134676009Y-116284761D01*
X134676009Y-116284761D02*
X134771247Y-116237142D01*
X134771247Y-116237142D02*
X135009342Y-116237142D01*
X135009342Y-116237142D02*
X135104580Y-116284761D01*
X135104580Y-116284761D02*
X135152200Y-116332380D01*
X135152200Y-116332380D02*
X135199819Y-116427618D01*
X135199819Y-116427618D02*
X135199819Y-116713332D01*
X135199819Y-116713332D02*
X135152200Y-116808570D01*
X135152200Y-116808570D02*
X135104580Y-116856189D01*
X136809819Y-120856189D02*
X135809819Y-120856189D01*
X135809819Y-120189523D02*
X135809819Y-119999047D01*
X135809819Y-119999047D02*
X135857438Y-119903809D01*
X135857438Y-119903809D02*
X135952676Y-119808571D01*
X135952676Y-119808571D02*
X136143152Y-119760952D01*
X136143152Y-119760952D02*
X136476485Y-119760952D01*
X136476485Y-119760952D02*
X136666961Y-119808571D01*
X136666961Y-119808571D02*
X136762200Y-119903809D01*
X136762200Y-119903809D02*
X136809819Y-119999047D01*
X136809819Y-119999047D02*
X136809819Y-120189523D01*
X136809819Y-120189523D02*
X136762200Y-120284761D01*
X136762200Y-120284761D02*
X136666961Y-120379999D01*
X136666961Y-120379999D02*
X136476485Y-120427618D01*
X136476485Y-120427618D02*
X136143152Y-120427618D01*
X136143152Y-120427618D02*
X135952676Y-120379999D01*
X135952676Y-120379999D02*
X135857438Y-120284761D01*
X135857438Y-120284761D02*
X135809819Y-120189523D01*
X135809819Y-119427618D02*
X135809819Y-118808571D01*
X135809819Y-118808571D02*
X136190771Y-119141904D01*
X136190771Y-119141904D02*
X136190771Y-118999047D01*
X136190771Y-118999047D02*
X136238390Y-118903809D01*
X136238390Y-118903809D02*
X136286009Y-118856190D01*
X136286009Y-118856190D02*
X136381247Y-118808571D01*
X136381247Y-118808571D02*
X136619342Y-118808571D01*
X136619342Y-118808571D02*
X136714580Y-118856190D01*
X136714580Y-118856190D02*
X136762200Y-118903809D01*
X136762200Y-118903809D02*
X136809819Y-118999047D01*
X136809819Y-118999047D02*
X136809819Y-119284761D01*
X136809819Y-119284761D02*
X136762200Y-119379999D01*
X136762200Y-119379999D02*
X136714580Y-119427618D01*
X135809819Y-118475237D02*
X135809819Y-117856190D01*
X135809819Y-117856190D02*
X136190771Y-118189523D01*
X136190771Y-118189523D02*
X136190771Y-118046666D01*
X136190771Y-118046666D02*
X136238390Y-117951428D01*
X136238390Y-117951428D02*
X136286009Y-117903809D01*
X136286009Y-117903809D02*
X136381247Y-117856190D01*
X136381247Y-117856190D02*
X136619342Y-117856190D01*
X136619342Y-117856190D02*
X136714580Y-117903809D01*
X136714580Y-117903809D02*
X136762200Y-117951428D01*
X136762200Y-117951428D02*
X136809819Y-118046666D01*
X136809819Y-118046666D02*
X136809819Y-118332380D01*
X136809819Y-118332380D02*
X136762200Y-118427618D01*
X136762200Y-118427618D02*
X136714580Y-118475237D01*
X138419819Y-120856189D02*
X137419819Y-120856189D01*
X137419819Y-120189523D02*
X137419819Y-119999047D01*
X137419819Y-119999047D02*
X137467438Y-119903809D01*
X137467438Y-119903809D02*
X137562676Y-119808571D01*
X137562676Y-119808571D02*
X137753152Y-119760952D01*
X137753152Y-119760952D02*
X138086485Y-119760952D01*
X138086485Y-119760952D02*
X138276961Y-119808571D01*
X138276961Y-119808571D02*
X138372200Y-119903809D01*
X138372200Y-119903809D02*
X138419819Y-119999047D01*
X138419819Y-119999047D02*
X138419819Y-120189523D01*
X138419819Y-120189523D02*
X138372200Y-120284761D01*
X138372200Y-120284761D02*
X138276961Y-120379999D01*
X138276961Y-120379999D02*
X138086485Y-120427618D01*
X138086485Y-120427618D02*
X137753152Y-120427618D01*
X137753152Y-120427618D02*
X137562676Y-120379999D01*
X137562676Y-120379999D02*
X137467438Y-120284761D01*
X137467438Y-120284761D02*
X137419819Y-120189523D01*
X137419819Y-119427618D02*
X137419819Y-118808571D01*
X137419819Y-118808571D02*
X137800771Y-119141904D01*
X137800771Y-119141904D02*
X137800771Y-118999047D01*
X137800771Y-118999047D02*
X137848390Y-118903809D01*
X137848390Y-118903809D02*
X137896009Y-118856190D01*
X137896009Y-118856190D02*
X137991247Y-118808571D01*
X137991247Y-118808571D02*
X138229342Y-118808571D01*
X138229342Y-118808571D02*
X138324580Y-118856190D01*
X138324580Y-118856190D02*
X138372200Y-118903809D01*
X138372200Y-118903809D02*
X138419819Y-118999047D01*
X138419819Y-118999047D02*
X138419819Y-119284761D01*
X138419819Y-119284761D02*
X138372200Y-119379999D01*
X138372200Y-119379999D02*
X138324580Y-119427618D01*
X137515057Y-118427618D02*
X137467438Y-118379999D01*
X137467438Y-118379999D02*
X137419819Y-118284761D01*
X137419819Y-118284761D02*
X137419819Y-118046666D01*
X137419819Y-118046666D02*
X137467438Y-117951428D01*
X137467438Y-117951428D02*
X137515057Y-117903809D01*
X137515057Y-117903809D02*
X137610295Y-117856190D01*
X137610295Y-117856190D02*
X137705533Y-117856190D01*
X137705533Y-117856190D02*
X137848390Y-117903809D01*
X137848390Y-117903809D02*
X138419819Y-118475237D01*
X138419819Y-118475237D02*
X138419819Y-117856190D01*
X140029819Y-122856190D02*
X139029819Y-122856190D01*
X139029819Y-122856190D02*
X140029819Y-122284762D01*
X140029819Y-122284762D02*
X139029819Y-122284762D01*
X139982200Y-121427619D02*
X140029819Y-121522857D01*
X140029819Y-121522857D02*
X140029819Y-121713333D01*
X140029819Y-121713333D02*
X139982200Y-121808571D01*
X139982200Y-121808571D02*
X139886961Y-121856190D01*
X139886961Y-121856190D02*
X139506009Y-121856190D01*
X139506009Y-121856190D02*
X139410771Y-121808571D01*
X139410771Y-121808571D02*
X139363152Y-121713333D01*
X139363152Y-121713333D02*
X139363152Y-121522857D01*
X139363152Y-121522857D02*
X139410771Y-121427619D01*
X139410771Y-121427619D02*
X139506009Y-121380000D01*
X139506009Y-121380000D02*
X139601247Y-121380000D01*
X139601247Y-121380000D02*
X139696485Y-121856190D01*
X140029819Y-120808571D02*
X139982200Y-120903809D01*
X139982200Y-120903809D02*
X139934580Y-120951428D01*
X139934580Y-120951428D02*
X139839342Y-120999047D01*
X139839342Y-120999047D02*
X139553628Y-120999047D01*
X139553628Y-120999047D02*
X139458390Y-120951428D01*
X139458390Y-120951428D02*
X139410771Y-120903809D01*
X139410771Y-120903809D02*
X139363152Y-120808571D01*
X139363152Y-120808571D02*
X139363152Y-120665714D01*
X139363152Y-120665714D02*
X139410771Y-120570476D01*
X139410771Y-120570476D02*
X139458390Y-120522857D01*
X139458390Y-120522857D02*
X139553628Y-120475238D01*
X139553628Y-120475238D02*
X139839342Y-120475238D01*
X139839342Y-120475238D02*
X139934580Y-120522857D01*
X139934580Y-120522857D02*
X139982200Y-120570476D01*
X139982200Y-120570476D02*
X140029819Y-120665714D01*
X140029819Y-120665714D02*
X140029819Y-120808571D01*
X140029819Y-120046666D02*
X139029819Y-120046666D01*
X139029819Y-120046666D02*
X139029819Y-119665714D01*
X139029819Y-119665714D02*
X139077438Y-119570476D01*
X139077438Y-119570476D02*
X139125057Y-119522857D01*
X139125057Y-119522857D02*
X139220295Y-119475238D01*
X139220295Y-119475238D02*
X139363152Y-119475238D01*
X139363152Y-119475238D02*
X139458390Y-119522857D01*
X139458390Y-119522857D02*
X139506009Y-119570476D01*
X139506009Y-119570476D02*
X139553628Y-119665714D01*
X139553628Y-119665714D02*
X139553628Y-120046666D01*
X140029819Y-119046666D02*
X139363152Y-119046666D01*
X139029819Y-119046666D02*
X139077438Y-119094285D01*
X139077438Y-119094285D02*
X139125057Y-119046666D01*
X139125057Y-119046666D02*
X139077438Y-118999047D01*
X139077438Y-118999047D02*
X139029819Y-119046666D01*
X139029819Y-119046666D02*
X139125057Y-119046666D01*
X140029819Y-118665714D02*
X139363152Y-118141905D01*
X139363152Y-118665714D02*
X140029819Y-118141905D01*
X139982200Y-117380000D02*
X140029819Y-117475238D01*
X140029819Y-117475238D02*
X140029819Y-117665714D01*
X140029819Y-117665714D02*
X139982200Y-117760952D01*
X139982200Y-117760952D02*
X139886961Y-117808571D01*
X139886961Y-117808571D02*
X139506009Y-117808571D01*
X139506009Y-117808571D02*
X139410771Y-117760952D01*
X139410771Y-117760952D02*
X139363152Y-117665714D01*
X139363152Y-117665714D02*
X139363152Y-117475238D01*
X139363152Y-117475238D02*
X139410771Y-117380000D01*
X139410771Y-117380000D02*
X139506009Y-117332381D01*
X139506009Y-117332381D02*
X139601247Y-117332381D01*
X139601247Y-117332381D02*
X139696485Y-117808571D01*
X140029819Y-116760952D02*
X139982200Y-116856190D01*
X139982200Y-116856190D02*
X139886961Y-116903809D01*
X139886961Y-116903809D02*
X139029819Y-116903809D01*
X139125057Y-116427618D02*
X139077438Y-116379999D01*
X139077438Y-116379999D02*
X139029819Y-116284761D01*
X139029819Y-116284761D02*
X139029819Y-116046666D01*
X139029819Y-116046666D02*
X139077438Y-115951428D01*
X139077438Y-115951428D02*
X139125057Y-115903809D01*
X139125057Y-115903809D02*
X139220295Y-115856190D01*
X139220295Y-115856190D02*
X139315533Y-115856190D01*
X139315533Y-115856190D02*
X139458390Y-115903809D01*
X139458390Y-115903809D02*
X140029819Y-116475237D01*
X140029819Y-116475237D02*
X140029819Y-115856190D01*
D11*
X97695671Y-121847141D02*
X97767100Y-121918569D01*
X97767100Y-121918569D02*
X97838528Y-122132855D01*
X97838528Y-122132855D02*
X97838528Y-122275712D01*
X97838528Y-122275712D02*
X97767100Y-122489998D01*
X97767100Y-122489998D02*
X97624242Y-122632855D01*
X97624242Y-122632855D02*
X97481385Y-122704284D01*
X97481385Y-122704284D02*
X97195671Y-122775712D01*
X97195671Y-122775712D02*
X96981385Y-122775712D01*
X96981385Y-122775712D02*
X96695671Y-122704284D01*
X96695671Y-122704284D02*
X96552814Y-122632855D01*
X96552814Y-122632855D02*
X96409957Y-122489998D01*
X96409957Y-122489998D02*
X96338528Y-122275712D01*
X96338528Y-122275712D02*
X96338528Y-122132855D01*
X96338528Y-122132855D02*
X96409957Y-121918569D01*
X96409957Y-121918569D02*
X96481385Y-121847141D01*
X97052814Y-120704284D02*
X97124242Y-120489998D01*
X97124242Y-120489998D02*
X97195671Y-120418569D01*
X97195671Y-120418569D02*
X97338528Y-120347141D01*
X97338528Y-120347141D02*
X97552814Y-120347141D01*
X97552814Y-120347141D02*
X97695671Y-120418569D01*
X97695671Y-120418569D02*
X97767100Y-120489998D01*
X97767100Y-120489998D02*
X97838528Y-120632855D01*
X97838528Y-120632855D02*
X97838528Y-121204284D01*
X97838528Y-121204284D02*
X96338528Y-121204284D01*
X96338528Y-121204284D02*
X96338528Y-120704284D01*
X96338528Y-120704284D02*
X96409957Y-120561427D01*
X96409957Y-120561427D02*
X96481385Y-120489998D01*
X96481385Y-120489998D02*
X96624242Y-120418569D01*
X96624242Y-120418569D02*
X96767100Y-120418569D01*
X96767100Y-120418569D02*
X96909957Y-120489998D01*
X96909957Y-120489998D02*
X96981385Y-120561427D01*
X96981385Y-120561427D02*
X97052814Y-120704284D01*
X97052814Y-120704284D02*
X97052814Y-121204284D01*
X97838528Y-119704284D02*
X96338528Y-119704284D01*
X97052814Y-118489998D02*
X97052814Y-118989998D01*
X97838528Y-118989998D02*
X96338528Y-118989998D01*
X96338528Y-118989998D02*
X96338528Y-118275712D01*
X97267100Y-117704284D02*
X97267100Y-116561427D01*
X96481385Y-115918569D02*
X96409957Y-115847141D01*
X96409957Y-115847141D02*
X96338528Y-115704284D01*
X96338528Y-115704284D02*
X96338528Y-115347141D01*
X96338528Y-115347141D02*
X96409957Y-115204284D01*
X96409957Y-115204284D02*
X96481385Y-115132855D01*
X96481385Y-115132855D02*
X96624242Y-115061426D01*
X96624242Y-115061426D02*
X96767100Y-115061426D01*
X96767100Y-115061426D02*
X96981385Y-115132855D01*
X96981385Y-115132855D02*
X97838528Y-115989998D01*
X97838528Y-115989998D02*
X97838528Y-115061426D01*
X96338528Y-114132855D02*
X96338528Y-113989998D01*
X96338528Y-113989998D02*
X96409957Y-113847141D01*
X96409957Y-113847141D02*
X96481385Y-113775713D01*
X96481385Y-113775713D02*
X96624242Y-113704284D01*
X96624242Y-113704284D02*
X96909957Y-113632855D01*
X96909957Y-113632855D02*
X97267100Y-113632855D01*
X97267100Y-113632855D02*
X97552814Y-113704284D01*
X97552814Y-113704284D02*
X97695671Y-113775713D01*
X97695671Y-113775713D02*
X97767100Y-113847141D01*
X97767100Y-113847141D02*
X97838528Y-113989998D01*
X97838528Y-113989998D02*
X97838528Y-114132855D01*
X97838528Y-114132855D02*
X97767100Y-114275713D01*
X97767100Y-114275713D02*
X97695671Y-114347141D01*
X97695671Y-114347141D02*
X97552814Y-114418570D01*
X97552814Y-114418570D02*
X97267100Y-114489998D01*
X97267100Y-114489998D02*
X96909957Y-114489998D01*
X96909957Y-114489998D02*
X96624242Y-114418570D01*
X96624242Y-114418570D02*
X96481385Y-114347141D01*
X96481385Y-114347141D02*
X96409957Y-114275713D01*
X96409957Y-114275713D02*
X96338528Y-114132855D01*
X96481385Y-113061427D02*
X96409957Y-112989999D01*
X96409957Y-112989999D02*
X96338528Y-112847142D01*
X96338528Y-112847142D02*
X96338528Y-112489999D01*
X96338528Y-112489999D02*
X96409957Y-112347142D01*
X96409957Y-112347142D02*
X96481385Y-112275713D01*
X96481385Y-112275713D02*
X96624242Y-112204284D01*
X96624242Y-112204284D02*
X96767100Y-112204284D01*
X96767100Y-112204284D02*
X96981385Y-112275713D01*
X96981385Y-112275713D02*
X97838528Y-113132856D01*
X97838528Y-113132856D02*
X97838528Y-112204284D01*
X97838528Y-110775713D02*
X97838528Y-111632856D01*
X97838528Y-111204285D02*
X96338528Y-111204285D01*
X96338528Y-111204285D02*
X96552814Y-111347142D01*
X96552814Y-111347142D02*
X96695671Y-111489999D01*
X96695671Y-111489999D02*
X96767100Y-111632856D01*
X97267100Y-110132857D02*
X97267100Y-108990000D01*
X96481385Y-108347142D02*
X96409957Y-108275714D01*
X96409957Y-108275714D02*
X96338528Y-108132857D01*
X96338528Y-108132857D02*
X96338528Y-107775714D01*
X96338528Y-107775714D02*
X96409957Y-107632857D01*
X96409957Y-107632857D02*
X96481385Y-107561428D01*
X96481385Y-107561428D02*
X96624242Y-107489999D01*
X96624242Y-107489999D02*
X96767100Y-107489999D01*
X96767100Y-107489999D02*
X96981385Y-107561428D01*
X96981385Y-107561428D02*
X97838528Y-108418571D01*
X97838528Y-108418571D02*
X97838528Y-107489999D01*
X97981385Y-107204286D02*
X97981385Y-106061428D01*
X96838528Y-105847143D02*
X97838528Y-105490000D01*
X97838528Y-105490000D02*
X96838528Y-105132857D01*
X96481385Y-104632857D02*
X96409957Y-104561429D01*
X96409957Y-104561429D02*
X96338528Y-104418572D01*
X96338528Y-104418572D02*
X96338528Y-104061429D01*
X96338528Y-104061429D02*
X96409957Y-103918572D01*
X96409957Y-103918572D02*
X96481385Y-103847143D01*
X96481385Y-103847143D02*
X96624242Y-103775714D01*
X96624242Y-103775714D02*
X96767100Y-103775714D01*
X96767100Y-103775714D02*
X96981385Y-103847143D01*
X96981385Y-103847143D02*
X97838528Y-104704286D01*
X97838528Y-104704286D02*
X97838528Y-103775714D01*
X96481385Y-102061429D02*
X96409957Y-101990001D01*
X96409957Y-101990001D02*
X96338528Y-101847144D01*
X96338528Y-101847144D02*
X96338528Y-101490001D01*
X96338528Y-101490001D02*
X96409957Y-101347144D01*
X96409957Y-101347144D02*
X96481385Y-101275715D01*
X96481385Y-101275715D02*
X96624242Y-101204286D01*
X96624242Y-101204286D02*
X96767100Y-101204286D01*
X96767100Y-101204286D02*
X96981385Y-101275715D01*
X96981385Y-101275715D02*
X97838528Y-102132858D01*
X97838528Y-102132858D02*
X97838528Y-101204286D01*
X96267100Y-99490001D02*
X98195671Y-100775715D01*
X96481385Y-99061429D02*
X96409957Y-98990001D01*
X96409957Y-98990001D02*
X96338528Y-98847144D01*
X96338528Y-98847144D02*
X96338528Y-98490001D01*
X96338528Y-98490001D02*
X96409957Y-98347144D01*
X96409957Y-98347144D02*
X96481385Y-98275715D01*
X96481385Y-98275715D02*
X96624242Y-98204286D01*
X96624242Y-98204286D02*
X96767100Y-98204286D01*
X96767100Y-98204286D02*
X96981385Y-98275715D01*
X96981385Y-98275715D02*
X97838528Y-99132858D01*
X97838528Y-99132858D02*
X97838528Y-98204286D01*
D10*
X100149819Y-119252143D02*
X99149819Y-119252143D01*
X100102200Y-119252143D02*
X100149819Y-119347381D01*
X100149819Y-119347381D02*
X100149819Y-119537857D01*
X100149819Y-119537857D02*
X100102200Y-119633095D01*
X100102200Y-119633095D02*
X100054580Y-119680714D01*
X100054580Y-119680714D02*
X99959342Y-119728333D01*
X99959342Y-119728333D02*
X99673628Y-119728333D01*
X99673628Y-119728333D02*
X99578390Y-119680714D01*
X99578390Y-119680714D02*
X99530771Y-119633095D01*
X99530771Y-119633095D02*
X99483152Y-119537857D01*
X99483152Y-119537857D02*
X99483152Y-119347381D01*
X99483152Y-119347381D02*
X99530771Y-119252143D01*
X100102200Y-118395000D02*
X100149819Y-118490238D01*
X100149819Y-118490238D02*
X100149819Y-118680714D01*
X100149819Y-118680714D02*
X100102200Y-118775952D01*
X100102200Y-118775952D02*
X100006961Y-118823571D01*
X100006961Y-118823571D02*
X99626009Y-118823571D01*
X99626009Y-118823571D02*
X99530771Y-118775952D01*
X99530771Y-118775952D02*
X99483152Y-118680714D01*
X99483152Y-118680714D02*
X99483152Y-118490238D01*
X99483152Y-118490238D02*
X99530771Y-118395000D01*
X99530771Y-118395000D02*
X99626009Y-118347381D01*
X99626009Y-118347381D02*
X99721247Y-118347381D01*
X99721247Y-118347381D02*
X99816485Y-118823571D01*
X100102200Y-117966428D02*
X100149819Y-117871190D01*
X100149819Y-117871190D02*
X100149819Y-117680714D01*
X100149819Y-117680714D02*
X100102200Y-117585476D01*
X100102200Y-117585476D02*
X100006961Y-117537857D01*
X100006961Y-117537857D02*
X99959342Y-117537857D01*
X99959342Y-117537857D02*
X99864104Y-117585476D01*
X99864104Y-117585476D02*
X99816485Y-117680714D01*
X99816485Y-117680714D02*
X99816485Y-117823571D01*
X99816485Y-117823571D02*
X99768866Y-117918809D01*
X99768866Y-117918809D02*
X99673628Y-117966428D01*
X99673628Y-117966428D02*
X99626009Y-117966428D01*
X99626009Y-117966428D02*
X99530771Y-117918809D01*
X99530771Y-117918809D02*
X99483152Y-117823571D01*
X99483152Y-117823571D02*
X99483152Y-117680714D01*
X99483152Y-117680714D02*
X99530771Y-117585476D01*
X100149819Y-117109285D02*
X99483152Y-117109285D01*
X99149819Y-117109285D02*
X99197438Y-117156904D01*
X99197438Y-117156904D02*
X99245057Y-117109285D01*
X99245057Y-117109285D02*
X99197438Y-117061666D01*
X99197438Y-117061666D02*
X99149819Y-117109285D01*
X99149819Y-117109285D02*
X99245057Y-117109285D01*
X99483152Y-116204524D02*
X100292676Y-116204524D01*
X100292676Y-116204524D02*
X100387914Y-116252143D01*
X100387914Y-116252143D02*
X100435533Y-116299762D01*
X100435533Y-116299762D02*
X100483152Y-116395000D01*
X100483152Y-116395000D02*
X100483152Y-116537857D01*
X100483152Y-116537857D02*
X100435533Y-116633095D01*
X100102200Y-116204524D02*
X100149819Y-116299762D01*
X100149819Y-116299762D02*
X100149819Y-116490238D01*
X100149819Y-116490238D02*
X100102200Y-116585476D01*
X100102200Y-116585476D02*
X100054580Y-116633095D01*
X100054580Y-116633095D02*
X99959342Y-116680714D01*
X99959342Y-116680714D02*
X99673628Y-116680714D01*
X99673628Y-116680714D02*
X99578390Y-116633095D01*
X99578390Y-116633095D02*
X99530771Y-116585476D01*
X99530771Y-116585476D02*
X99483152Y-116490238D01*
X99483152Y-116490238D02*
X99483152Y-116299762D01*
X99483152Y-116299762D02*
X99530771Y-116204524D01*
X99483152Y-115728333D02*
X100149819Y-115728333D01*
X99578390Y-115728333D02*
X99530771Y-115680714D01*
X99530771Y-115680714D02*
X99483152Y-115585476D01*
X99483152Y-115585476D02*
X99483152Y-115442619D01*
X99483152Y-115442619D02*
X99530771Y-115347381D01*
X99530771Y-115347381D02*
X99626009Y-115299762D01*
X99626009Y-115299762D02*
X100149819Y-115299762D01*
X100102200Y-114442619D02*
X100149819Y-114537857D01*
X100149819Y-114537857D02*
X100149819Y-114728333D01*
X100149819Y-114728333D02*
X100102200Y-114823571D01*
X100102200Y-114823571D02*
X100006961Y-114871190D01*
X100006961Y-114871190D02*
X99626009Y-114871190D01*
X99626009Y-114871190D02*
X99530771Y-114823571D01*
X99530771Y-114823571D02*
X99483152Y-114728333D01*
X99483152Y-114728333D02*
X99483152Y-114537857D01*
X99483152Y-114537857D02*
X99530771Y-114442619D01*
X99530771Y-114442619D02*
X99626009Y-114395000D01*
X99626009Y-114395000D02*
X99721247Y-114395000D01*
X99721247Y-114395000D02*
X99816485Y-114871190D01*
X100149819Y-113537857D02*
X99149819Y-113537857D01*
X100102200Y-113537857D02*
X100149819Y-113633095D01*
X100149819Y-113633095D02*
X100149819Y-113823571D01*
X100149819Y-113823571D02*
X100102200Y-113918809D01*
X100102200Y-113918809D02*
X100054580Y-113966428D01*
X100054580Y-113966428D02*
X99959342Y-114014047D01*
X99959342Y-114014047D02*
X99673628Y-114014047D01*
X99673628Y-114014047D02*
X99578390Y-113966428D01*
X99578390Y-113966428D02*
X99530771Y-113918809D01*
X99530771Y-113918809D02*
X99483152Y-113823571D01*
X99483152Y-113823571D02*
X99483152Y-113633095D01*
X99483152Y-113633095D02*
X99530771Y-113537857D01*
X100149819Y-112299761D02*
X99149819Y-112299761D01*
X99530771Y-112299761D02*
X99483152Y-112204523D01*
X99483152Y-112204523D02*
X99483152Y-112014047D01*
X99483152Y-112014047D02*
X99530771Y-111918809D01*
X99530771Y-111918809D02*
X99578390Y-111871190D01*
X99578390Y-111871190D02*
X99673628Y-111823571D01*
X99673628Y-111823571D02*
X99959342Y-111823571D01*
X99959342Y-111823571D02*
X100054580Y-111871190D01*
X100054580Y-111871190D02*
X100102200Y-111918809D01*
X100102200Y-111918809D02*
X100149819Y-112014047D01*
X100149819Y-112014047D02*
X100149819Y-112204523D01*
X100149819Y-112204523D02*
X100102200Y-112299761D01*
X99483152Y-111490237D02*
X100149819Y-111252142D01*
X99483152Y-111014047D02*
X100149819Y-111252142D01*
X100149819Y-111252142D02*
X100387914Y-111347380D01*
X100387914Y-111347380D02*
X100435533Y-111394999D01*
X100435533Y-111394999D02*
X100483152Y-111490237D01*
X99483152Y-109871189D02*
X100483152Y-109871189D01*
X99530771Y-109871189D02*
X99483152Y-109775951D01*
X99483152Y-109775951D02*
X99483152Y-109585475D01*
X99483152Y-109585475D02*
X99530771Y-109490237D01*
X99530771Y-109490237D02*
X99578390Y-109442618D01*
X99578390Y-109442618D02*
X99673628Y-109394999D01*
X99673628Y-109394999D02*
X99959342Y-109394999D01*
X99959342Y-109394999D02*
X100054580Y-109442618D01*
X100054580Y-109442618D02*
X100102200Y-109490237D01*
X100102200Y-109490237D02*
X100149819Y-109585475D01*
X100149819Y-109585475D02*
X100149819Y-109775951D01*
X100149819Y-109775951D02*
X100102200Y-109871189D01*
X100149819Y-108537856D02*
X99626009Y-108537856D01*
X99626009Y-108537856D02*
X99530771Y-108585475D01*
X99530771Y-108585475D02*
X99483152Y-108680713D01*
X99483152Y-108680713D02*
X99483152Y-108871189D01*
X99483152Y-108871189D02*
X99530771Y-108966427D01*
X100102200Y-108537856D02*
X100149819Y-108633094D01*
X100149819Y-108633094D02*
X100149819Y-108871189D01*
X100149819Y-108871189D02*
X100102200Y-108966427D01*
X100102200Y-108966427D02*
X100006961Y-109014046D01*
X100006961Y-109014046D02*
X99911723Y-109014046D01*
X99911723Y-109014046D02*
X99816485Y-108966427D01*
X99816485Y-108966427D02*
X99768866Y-108871189D01*
X99768866Y-108871189D02*
X99768866Y-108633094D01*
X99768866Y-108633094D02*
X99721247Y-108537856D01*
X100149819Y-108061665D02*
X99483152Y-108061665D01*
X99673628Y-108061665D02*
X99578390Y-108014046D01*
X99578390Y-108014046D02*
X99530771Y-107966427D01*
X99530771Y-107966427D02*
X99483152Y-107871189D01*
X99483152Y-107871189D02*
X99483152Y-107775951D01*
X100149819Y-107442617D02*
X99483152Y-107442617D01*
X99149819Y-107442617D02*
X99197438Y-107490236D01*
X99197438Y-107490236D02*
X99245057Y-107442617D01*
X99245057Y-107442617D02*
X99197438Y-107394998D01*
X99197438Y-107394998D02*
X99149819Y-107442617D01*
X99149819Y-107442617D02*
X99245057Y-107442617D01*
X99483152Y-106966427D02*
X100483152Y-106966427D01*
X99530771Y-106966427D02*
X99483152Y-106871189D01*
X99483152Y-106871189D02*
X99483152Y-106680713D01*
X99483152Y-106680713D02*
X99530771Y-106585475D01*
X99530771Y-106585475D02*
X99578390Y-106537856D01*
X99578390Y-106537856D02*
X99673628Y-106490237D01*
X99673628Y-106490237D02*
X99959342Y-106490237D01*
X99959342Y-106490237D02*
X100054580Y-106537856D01*
X100054580Y-106537856D02*
X100102200Y-106585475D01*
X100102200Y-106585475D02*
X100149819Y-106680713D01*
X100149819Y-106680713D02*
X100149819Y-106871189D01*
X100149819Y-106871189D02*
X100102200Y-106966427D01*
X100149819Y-105633094D02*
X99626009Y-105633094D01*
X99626009Y-105633094D02*
X99530771Y-105680713D01*
X99530771Y-105680713D02*
X99483152Y-105775951D01*
X99483152Y-105775951D02*
X99483152Y-105966427D01*
X99483152Y-105966427D02*
X99530771Y-106061665D01*
X100102200Y-105633094D02*
X100149819Y-105728332D01*
X100149819Y-105728332D02*
X100149819Y-105966427D01*
X100149819Y-105966427D02*
X100102200Y-106061665D01*
X100102200Y-106061665D02*
X100006961Y-106109284D01*
X100006961Y-106109284D02*
X99911723Y-106109284D01*
X99911723Y-106109284D02*
X99816485Y-106061665D01*
X99816485Y-106061665D02*
X99768866Y-105966427D01*
X99768866Y-105966427D02*
X99768866Y-105728332D01*
X99768866Y-105728332D02*
X99721247Y-105633094D01*
X100149819Y-105014046D02*
X100102200Y-105109284D01*
X100102200Y-105109284D02*
X100006961Y-105156903D01*
X100006961Y-105156903D02*
X99149819Y-105156903D01*
X135199819Y-33702142D02*
X134199819Y-33702142D01*
X134199819Y-33702142D02*
X135199819Y-33130714D01*
X135199819Y-33130714D02*
X134199819Y-33130714D01*
X135152200Y-32273571D02*
X135199819Y-32368809D01*
X135199819Y-32368809D02*
X135199819Y-32559285D01*
X135199819Y-32559285D02*
X135152200Y-32654523D01*
X135152200Y-32654523D02*
X135056961Y-32702142D01*
X135056961Y-32702142D02*
X134676009Y-32702142D01*
X134676009Y-32702142D02*
X134580771Y-32654523D01*
X134580771Y-32654523D02*
X134533152Y-32559285D01*
X134533152Y-32559285D02*
X134533152Y-32368809D01*
X134533152Y-32368809D02*
X134580771Y-32273571D01*
X134580771Y-32273571D02*
X134676009Y-32225952D01*
X134676009Y-32225952D02*
X134771247Y-32225952D01*
X134771247Y-32225952D02*
X134866485Y-32702142D01*
X135199819Y-31654523D02*
X135152200Y-31749761D01*
X135152200Y-31749761D02*
X135104580Y-31797380D01*
X135104580Y-31797380D02*
X135009342Y-31844999D01*
X135009342Y-31844999D02*
X134723628Y-31844999D01*
X134723628Y-31844999D02*
X134628390Y-31797380D01*
X134628390Y-31797380D02*
X134580771Y-31749761D01*
X134580771Y-31749761D02*
X134533152Y-31654523D01*
X134533152Y-31654523D02*
X134533152Y-31511666D01*
X134533152Y-31511666D02*
X134580771Y-31416428D01*
X134580771Y-31416428D02*
X134628390Y-31368809D01*
X134628390Y-31368809D02*
X134723628Y-31321190D01*
X134723628Y-31321190D02*
X135009342Y-31321190D01*
X135009342Y-31321190D02*
X135104580Y-31368809D01*
X135104580Y-31368809D02*
X135152200Y-31416428D01*
X135152200Y-31416428D02*
X135199819Y-31511666D01*
X135199819Y-31511666D02*
X135199819Y-31654523D01*
X135199819Y-30892618D02*
X134199819Y-30892618D01*
X134199819Y-30892618D02*
X134199819Y-30511666D01*
X134199819Y-30511666D02*
X134247438Y-30416428D01*
X134247438Y-30416428D02*
X134295057Y-30368809D01*
X134295057Y-30368809D02*
X134390295Y-30321190D01*
X134390295Y-30321190D02*
X134533152Y-30321190D01*
X134533152Y-30321190D02*
X134628390Y-30368809D01*
X134628390Y-30368809D02*
X134676009Y-30416428D01*
X134676009Y-30416428D02*
X134723628Y-30511666D01*
X134723628Y-30511666D02*
X134723628Y-30892618D01*
X135199819Y-29892618D02*
X134533152Y-29892618D01*
X134199819Y-29892618D02*
X134247438Y-29940237D01*
X134247438Y-29940237D02*
X134295057Y-29892618D01*
X134295057Y-29892618D02*
X134247438Y-29844999D01*
X134247438Y-29844999D02*
X134199819Y-29892618D01*
X134199819Y-29892618D02*
X134295057Y-29892618D01*
X135199819Y-29511666D02*
X134533152Y-28987857D01*
X134533152Y-29511666D02*
X135199819Y-28987857D01*
X135152200Y-28225952D02*
X135199819Y-28321190D01*
X135199819Y-28321190D02*
X135199819Y-28511666D01*
X135199819Y-28511666D02*
X135152200Y-28606904D01*
X135152200Y-28606904D02*
X135056961Y-28654523D01*
X135056961Y-28654523D02*
X134676009Y-28654523D01*
X134676009Y-28654523D02*
X134580771Y-28606904D01*
X134580771Y-28606904D02*
X134533152Y-28511666D01*
X134533152Y-28511666D02*
X134533152Y-28321190D01*
X134533152Y-28321190D02*
X134580771Y-28225952D01*
X134580771Y-28225952D02*
X134676009Y-28178333D01*
X134676009Y-28178333D02*
X134771247Y-28178333D01*
X134771247Y-28178333D02*
X134866485Y-28654523D01*
X135199819Y-27606904D02*
X135152200Y-27702142D01*
X135152200Y-27702142D02*
X135056961Y-27749761D01*
X135056961Y-27749761D02*
X134199819Y-27749761D01*
X134199819Y-27035475D02*
X134199819Y-26940237D01*
X134199819Y-26940237D02*
X134247438Y-26844999D01*
X134247438Y-26844999D02*
X134295057Y-26797380D01*
X134295057Y-26797380D02*
X134390295Y-26749761D01*
X134390295Y-26749761D02*
X134580771Y-26702142D01*
X134580771Y-26702142D02*
X134818866Y-26702142D01*
X134818866Y-26702142D02*
X135009342Y-26749761D01*
X135009342Y-26749761D02*
X135104580Y-26797380D01*
X135104580Y-26797380D02*
X135152200Y-26844999D01*
X135152200Y-26844999D02*
X135199819Y-26940237D01*
X135199819Y-26940237D02*
X135199819Y-27035475D01*
X135199819Y-27035475D02*
X135152200Y-27130713D01*
X135152200Y-27130713D02*
X135104580Y-27178332D01*
X135104580Y-27178332D02*
X135009342Y-27225951D01*
X135009342Y-27225951D02*
X134818866Y-27273570D01*
X134818866Y-27273570D02*
X134580771Y-27273570D01*
X134580771Y-27273570D02*
X134390295Y-27225951D01*
X134390295Y-27225951D02*
X134295057Y-27178332D01*
X134295057Y-27178332D02*
X134247438Y-27130713D01*
X134247438Y-27130713D02*
X134199819Y-27035475D01*
X136809819Y-31321189D02*
X135809819Y-31321189D01*
X135809819Y-30654523D02*
X135809819Y-30464047D01*
X135809819Y-30464047D02*
X135857438Y-30368809D01*
X135857438Y-30368809D02*
X135952676Y-30273571D01*
X135952676Y-30273571D02*
X136143152Y-30225952D01*
X136143152Y-30225952D02*
X136476485Y-30225952D01*
X136476485Y-30225952D02*
X136666961Y-30273571D01*
X136666961Y-30273571D02*
X136762200Y-30368809D01*
X136762200Y-30368809D02*
X136809819Y-30464047D01*
X136809819Y-30464047D02*
X136809819Y-30654523D01*
X136809819Y-30654523D02*
X136762200Y-30749761D01*
X136762200Y-30749761D02*
X136666961Y-30844999D01*
X136666961Y-30844999D02*
X136476485Y-30892618D01*
X136476485Y-30892618D02*
X136143152Y-30892618D01*
X136143152Y-30892618D02*
X135952676Y-30844999D01*
X135952676Y-30844999D02*
X135857438Y-30749761D01*
X135857438Y-30749761D02*
X135809819Y-30654523D01*
X135905057Y-29844999D02*
X135857438Y-29797380D01*
X135857438Y-29797380D02*
X135809819Y-29702142D01*
X135809819Y-29702142D02*
X135809819Y-29464047D01*
X135809819Y-29464047D02*
X135857438Y-29368809D01*
X135857438Y-29368809D02*
X135905057Y-29321190D01*
X135905057Y-29321190D02*
X136000295Y-29273571D01*
X136000295Y-29273571D02*
X136095533Y-29273571D01*
X136095533Y-29273571D02*
X136238390Y-29321190D01*
X136238390Y-29321190D02*
X136809819Y-29892618D01*
X136809819Y-29892618D02*
X136809819Y-29273571D01*
X136809819Y-28321190D02*
X136809819Y-28892618D01*
X136809819Y-28606904D02*
X135809819Y-28606904D01*
X135809819Y-28606904D02*
X135952676Y-28702142D01*
X135952676Y-28702142D02*
X136047914Y-28797380D01*
X136047914Y-28797380D02*
X136095533Y-28892618D01*
X138419819Y-31321189D02*
X137419819Y-31321189D01*
X137419819Y-30654523D02*
X137419819Y-30464047D01*
X137419819Y-30464047D02*
X137467438Y-30368809D01*
X137467438Y-30368809D02*
X137562676Y-30273571D01*
X137562676Y-30273571D02*
X137753152Y-30225952D01*
X137753152Y-30225952D02*
X138086485Y-30225952D01*
X138086485Y-30225952D02*
X138276961Y-30273571D01*
X138276961Y-30273571D02*
X138372200Y-30368809D01*
X138372200Y-30368809D02*
X138419819Y-30464047D01*
X138419819Y-30464047D02*
X138419819Y-30654523D01*
X138419819Y-30654523D02*
X138372200Y-30749761D01*
X138372200Y-30749761D02*
X138276961Y-30844999D01*
X138276961Y-30844999D02*
X138086485Y-30892618D01*
X138086485Y-30892618D02*
X137753152Y-30892618D01*
X137753152Y-30892618D02*
X137562676Y-30844999D01*
X137562676Y-30844999D02*
X137467438Y-30749761D01*
X137467438Y-30749761D02*
X137419819Y-30654523D01*
X137515057Y-29844999D02*
X137467438Y-29797380D01*
X137467438Y-29797380D02*
X137419819Y-29702142D01*
X137419819Y-29702142D02*
X137419819Y-29464047D01*
X137419819Y-29464047D02*
X137467438Y-29368809D01*
X137467438Y-29368809D02*
X137515057Y-29321190D01*
X137515057Y-29321190D02*
X137610295Y-29273571D01*
X137610295Y-29273571D02*
X137705533Y-29273571D01*
X137705533Y-29273571D02*
X137848390Y-29321190D01*
X137848390Y-29321190D02*
X138419819Y-29892618D01*
X138419819Y-29892618D02*
X138419819Y-29273571D01*
X137515057Y-28892618D02*
X137467438Y-28844999D01*
X137467438Y-28844999D02*
X137419819Y-28749761D01*
X137419819Y-28749761D02*
X137419819Y-28511666D01*
X137419819Y-28511666D02*
X137467438Y-28416428D01*
X137467438Y-28416428D02*
X137515057Y-28368809D01*
X137515057Y-28368809D02*
X137610295Y-28321190D01*
X137610295Y-28321190D02*
X137705533Y-28321190D01*
X137705533Y-28321190D02*
X137848390Y-28368809D01*
X137848390Y-28368809D02*
X138419819Y-28940237D01*
X138419819Y-28940237D02*
X138419819Y-28321190D01*
X140029819Y-33321190D02*
X139029819Y-33321190D01*
X139029819Y-33321190D02*
X140029819Y-32749762D01*
X140029819Y-32749762D02*
X139029819Y-32749762D01*
X139982200Y-31892619D02*
X140029819Y-31987857D01*
X140029819Y-31987857D02*
X140029819Y-32178333D01*
X140029819Y-32178333D02*
X139982200Y-32273571D01*
X139982200Y-32273571D02*
X139886961Y-32321190D01*
X139886961Y-32321190D02*
X139506009Y-32321190D01*
X139506009Y-32321190D02*
X139410771Y-32273571D01*
X139410771Y-32273571D02*
X139363152Y-32178333D01*
X139363152Y-32178333D02*
X139363152Y-31987857D01*
X139363152Y-31987857D02*
X139410771Y-31892619D01*
X139410771Y-31892619D02*
X139506009Y-31845000D01*
X139506009Y-31845000D02*
X139601247Y-31845000D01*
X139601247Y-31845000D02*
X139696485Y-32321190D01*
X140029819Y-31273571D02*
X139982200Y-31368809D01*
X139982200Y-31368809D02*
X139934580Y-31416428D01*
X139934580Y-31416428D02*
X139839342Y-31464047D01*
X139839342Y-31464047D02*
X139553628Y-31464047D01*
X139553628Y-31464047D02*
X139458390Y-31416428D01*
X139458390Y-31416428D02*
X139410771Y-31368809D01*
X139410771Y-31368809D02*
X139363152Y-31273571D01*
X139363152Y-31273571D02*
X139363152Y-31130714D01*
X139363152Y-31130714D02*
X139410771Y-31035476D01*
X139410771Y-31035476D02*
X139458390Y-30987857D01*
X139458390Y-30987857D02*
X139553628Y-30940238D01*
X139553628Y-30940238D02*
X139839342Y-30940238D01*
X139839342Y-30940238D02*
X139934580Y-30987857D01*
X139934580Y-30987857D02*
X139982200Y-31035476D01*
X139982200Y-31035476D02*
X140029819Y-31130714D01*
X140029819Y-31130714D02*
X140029819Y-31273571D01*
X140029819Y-30511666D02*
X139029819Y-30511666D01*
X139029819Y-30511666D02*
X139029819Y-30130714D01*
X139029819Y-30130714D02*
X139077438Y-30035476D01*
X139077438Y-30035476D02*
X139125057Y-29987857D01*
X139125057Y-29987857D02*
X139220295Y-29940238D01*
X139220295Y-29940238D02*
X139363152Y-29940238D01*
X139363152Y-29940238D02*
X139458390Y-29987857D01*
X139458390Y-29987857D02*
X139506009Y-30035476D01*
X139506009Y-30035476D02*
X139553628Y-30130714D01*
X139553628Y-30130714D02*
X139553628Y-30511666D01*
X140029819Y-29511666D02*
X139363152Y-29511666D01*
X139029819Y-29511666D02*
X139077438Y-29559285D01*
X139077438Y-29559285D02*
X139125057Y-29511666D01*
X139125057Y-29511666D02*
X139077438Y-29464047D01*
X139077438Y-29464047D02*
X139029819Y-29511666D01*
X139029819Y-29511666D02*
X139125057Y-29511666D01*
X140029819Y-29130714D02*
X139363152Y-28606905D01*
X139363152Y-29130714D02*
X140029819Y-28606905D01*
X139982200Y-27845000D02*
X140029819Y-27940238D01*
X140029819Y-27940238D02*
X140029819Y-28130714D01*
X140029819Y-28130714D02*
X139982200Y-28225952D01*
X139982200Y-28225952D02*
X139886961Y-28273571D01*
X139886961Y-28273571D02*
X139506009Y-28273571D01*
X139506009Y-28273571D02*
X139410771Y-28225952D01*
X139410771Y-28225952D02*
X139363152Y-28130714D01*
X139363152Y-28130714D02*
X139363152Y-27940238D01*
X139363152Y-27940238D02*
X139410771Y-27845000D01*
X139410771Y-27845000D02*
X139506009Y-27797381D01*
X139506009Y-27797381D02*
X139601247Y-27797381D01*
X139601247Y-27797381D02*
X139696485Y-28273571D01*
X140029819Y-27225952D02*
X139982200Y-27321190D01*
X139982200Y-27321190D02*
X139886961Y-27368809D01*
X139886961Y-27368809D02*
X139029819Y-27368809D01*
X140029819Y-26321190D02*
X140029819Y-26892618D01*
X140029819Y-26606904D02*
X139029819Y-26606904D01*
X139029819Y-26606904D02*
X139172676Y-26702142D01*
X139172676Y-26702142D02*
X139267914Y-26797380D01*
X139267914Y-26797380D02*
X139315533Y-26892618D01*
X119199819Y-80501428D02*
X118199819Y-80501428D01*
X118199819Y-80501428D02*
X119199819Y-79930000D01*
X119199819Y-79930000D02*
X118199819Y-79930000D01*
X119152200Y-79072857D02*
X119199819Y-79168095D01*
X119199819Y-79168095D02*
X119199819Y-79358571D01*
X119199819Y-79358571D02*
X119152200Y-79453809D01*
X119152200Y-79453809D02*
X119056961Y-79501428D01*
X119056961Y-79501428D02*
X118676009Y-79501428D01*
X118676009Y-79501428D02*
X118580771Y-79453809D01*
X118580771Y-79453809D02*
X118533152Y-79358571D01*
X118533152Y-79358571D02*
X118533152Y-79168095D01*
X118533152Y-79168095D02*
X118580771Y-79072857D01*
X118580771Y-79072857D02*
X118676009Y-79025238D01*
X118676009Y-79025238D02*
X118771247Y-79025238D01*
X118771247Y-79025238D02*
X118866485Y-79501428D01*
X119199819Y-78453809D02*
X119152200Y-78549047D01*
X119152200Y-78549047D02*
X119104580Y-78596666D01*
X119104580Y-78596666D02*
X119009342Y-78644285D01*
X119009342Y-78644285D02*
X118723628Y-78644285D01*
X118723628Y-78644285D02*
X118628390Y-78596666D01*
X118628390Y-78596666D02*
X118580771Y-78549047D01*
X118580771Y-78549047D02*
X118533152Y-78453809D01*
X118533152Y-78453809D02*
X118533152Y-78310952D01*
X118533152Y-78310952D02*
X118580771Y-78215714D01*
X118580771Y-78215714D02*
X118628390Y-78168095D01*
X118628390Y-78168095D02*
X118723628Y-78120476D01*
X118723628Y-78120476D02*
X119009342Y-78120476D01*
X119009342Y-78120476D02*
X119104580Y-78168095D01*
X119104580Y-78168095D02*
X119152200Y-78215714D01*
X119152200Y-78215714D02*
X119199819Y-78310952D01*
X119199819Y-78310952D02*
X119199819Y-78453809D01*
X119199819Y-77691904D02*
X118199819Y-77691904D01*
X118199819Y-77691904D02*
X118199819Y-77310952D01*
X118199819Y-77310952D02*
X118247438Y-77215714D01*
X118247438Y-77215714D02*
X118295057Y-77168095D01*
X118295057Y-77168095D02*
X118390295Y-77120476D01*
X118390295Y-77120476D02*
X118533152Y-77120476D01*
X118533152Y-77120476D02*
X118628390Y-77168095D01*
X118628390Y-77168095D02*
X118676009Y-77215714D01*
X118676009Y-77215714D02*
X118723628Y-77310952D01*
X118723628Y-77310952D02*
X118723628Y-77691904D01*
X119199819Y-76691904D02*
X118533152Y-76691904D01*
X118199819Y-76691904D02*
X118247438Y-76739523D01*
X118247438Y-76739523D02*
X118295057Y-76691904D01*
X118295057Y-76691904D02*
X118247438Y-76644285D01*
X118247438Y-76644285D02*
X118199819Y-76691904D01*
X118199819Y-76691904D02*
X118295057Y-76691904D01*
X119199819Y-76310952D02*
X118533152Y-75787143D01*
X118533152Y-76310952D02*
X119199819Y-75787143D01*
X119152200Y-75025238D02*
X119199819Y-75120476D01*
X119199819Y-75120476D02*
X119199819Y-75310952D01*
X119199819Y-75310952D02*
X119152200Y-75406190D01*
X119152200Y-75406190D02*
X119056961Y-75453809D01*
X119056961Y-75453809D02*
X118676009Y-75453809D01*
X118676009Y-75453809D02*
X118580771Y-75406190D01*
X118580771Y-75406190D02*
X118533152Y-75310952D01*
X118533152Y-75310952D02*
X118533152Y-75120476D01*
X118533152Y-75120476D02*
X118580771Y-75025238D01*
X118580771Y-75025238D02*
X118676009Y-74977619D01*
X118676009Y-74977619D02*
X118771247Y-74977619D01*
X118771247Y-74977619D02*
X118866485Y-75453809D01*
X119199819Y-74406190D02*
X119152200Y-74501428D01*
X119152200Y-74501428D02*
X119056961Y-74549047D01*
X119056961Y-74549047D02*
X118199819Y-74549047D01*
X118533152Y-73596666D02*
X119199819Y-73596666D01*
X118152200Y-73834761D02*
X118866485Y-74072856D01*
X118866485Y-74072856D02*
X118866485Y-73453809D01*
X119199819Y-72310951D02*
X118199819Y-72310951D01*
X118199819Y-71644285D02*
X118199819Y-71453809D01*
X118199819Y-71453809D02*
X118247438Y-71358571D01*
X118247438Y-71358571D02*
X118342676Y-71263333D01*
X118342676Y-71263333D02*
X118533152Y-71215714D01*
X118533152Y-71215714D02*
X118866485Y-71215714D01*
X118866485Y-71215714D02*
X119056961Y-71263333D01*
X119056961Y-71263333D02*
X119152200Y-71358571D01*
X119152200Y-71358571D02*
X119199819Y-71453809D01*
X119199819Y-71453809D02*
X119199819Y-71644285D01*
X119199819Y-71644285D02*
X119152200Y-71739523D01*
X119152200Y-71739523D02*
X119056961Y-71834761D01*
X119056961Y-71834761D02*
X118866485Y-71882380D01*
X118866485Y-71882380D02*
X118533152Y-71882380D01*
X118533152Y-71882380D02*
X118342676Y-71834761D01*
X118342676Y-71834761D02*
X118247438Y-71739523D01*
X118247438Y-71739523D02*
X118199819Y-71644285D01*
X118295057Y-70834761D02*
X118247438Y-70787142D01*
X118247438Y-70787142D02*
X118199819Y-70691904D01*
X118199819Y-70691904D02*
X118199819Y-70453809D01*
X118199819Y-70453809D02*
X118247438Y-70358571D01*
X118247438Y-70358571D02*
X118295057Y-70310952D01*
X118295057Y-70310952D02*
X118390295Y-70263333D01*
X118390295Y-70263333D02*
X118485533Y-70263333D01*
X118485533Y-70263333D02*
X118628390Y-70310952D01*
X118628390Y-70310952D02*
X119199819Y-70882380D01*
X119199819Y-70882380D02*
X119199819Y-70263333D01*
X118199819Y-69358571D02*
X118199819Y-69834761D01*
X118199819Y-69834761D02*
X118676009Y-69882380D01*
X118676009Y-69882380D02*
X118628390Y-69834761D01*
X118628390Y-69834761D02*
X118580771Y-69739523D01*
X118580771Y-69739523D02*
X118580771Y-69501428D01*
X118580771Y-69501428D02*
X118628390Y-69406190D01*
X118628390Y-69406190D02*
X118676009Y-69358571D01*
X118676009Y-69358571D02*
X118771247Y-69310952D01*
X118771247Y-69310952D02*
X119009342Y-69310952D01*
X119009342Y-69310952D02*
X119104580Y-69358571D01*
X119104580Y-69358571D02*
X119152200Y-69406190D01*
X119152200Y-69406190D02*
X119199819Y-69501428D01*
X119199819Y-69501428D02*
X119199819Y-69739523D01*
X119199819Y-69739523D02*
X119152200Y-69834761D01*
X119152200Y-69834761D02*
X119104580Y-69882380D01*
X133804819Y-93217143D02*
X132804819Y-93217143D01*
X133757200Y-93217143D02*
X133804819Y-93312381D01*
X133804819Y-93312381D02*
X133804819Y-93502857D01*
X133804819Y-93502857D02*
X133757200Y-93598095D01*
X133757200Y-93598095D02*
X133709580Y-93645714D01*
X133709580Y-93645714D02*
X133614342Y-93693333D01*
X133614342Y-93693333D02*
X133328628Y-93693333D01*
X133328628Y-93693333D02*
X133233390Y-93645714D01*
X133233390Y-93645714D02*
X133185771Y-93598095D01*
X133185771Y-93598095D02*
X133138152Y-93502857D01*
X133138152Y-93502857D02*
X133138152Y-93312381D01*
X133138152Y-93312381D02*
X133185771Y-93217143D01*
X133757200Y-92360000D02*
X133804819Y-92455238D01*
X133804819Y-92455238D02*
X133804819Y-92645714D01*
X133804819Y-92645714D02*
X133757200Y-92740952D01*
X133757200Y-92740952D02*
X133661961Y-92788571D01*
X133661961Y-92788571D02*
X133281009Y-92788571D01*
X133281009Y-92788571D02*
X133185771Y-92740952D01*
X133185771Y-92740952D02*
X133138152Y-92645714D01*
X133138152Y-92645714D02*
X133138152Y-92455238D01*
X133138152Y-92455238D02*
X133185771Y-92360000D01*
X133185771Y-92360000D02*
X133281009Y-92312381D01*
X133281009Y-92312381D02*
X133376247Y-92312381D01*
X133376247Y-92312381D02*
X133471485Y-92788571D01*
X133757200Y-91931428D02*
X133804819Y-91836190D01*
X133804819Y-91836190D02*
X133804819Y-91645714D01*
X133804819Y-91645714D02*
X133757200Y-91550476D01*
X133757200Y-91550476D02*
X133661961Y-91502857D01*
X133661961Y-91502857D02*
X133614342Y-91502857D01*
X133614342Y-91502857D02*
X133519104Y-91550476D01*
X133519104Y-91550476D02*
X133471485Y-91645714D01*
X133471485Y-91645714D02*
X133471485Y-91788571D01*
X133471485Y-91788571D02*
X133423866Y-91883809D01*
X133423866Y-91883809D02*
X133328628Y-91931428D01*
X133328628Y-91931428D02*
X133281009Y-91931428D01*
X133281009Y-91931428D02*
X133185771Y-91883809D01*
X133185771Y-91883809D02*
X133138152Y-91788571D01*
X133138152Y-91788571D02*
X133138152Y-91645714D01*
X133138152Y-91645714D02*
X133185771Y-91550476D01*
X133804819Y-91074285D02*
X133138152Y-91074285D01*
X132804819Y-91074285D02*
X132852438Y-91121904D01*
X132852438Y-91121904D02*
X132900057Y-91074285D01*
X132900057Y-91074285D02*
X132852438Y-91026666D01*
X132852438Y-91026666D02*
X132804819Y-91074285D01*
X132804819Y-91074285D02*
X132900057Y-91074285D01*
X133138152Y-90169524D02*
X133947676Y-90169524D01*
X133947676Y-90169524D02*
X134042914Y-90217143D01*
X134042914Y-90217143D02*
X134090533Y-90264762D01*
X134090533Y-90264762D02*
X134138152Y-90360000D01*
X134138152Y-90360000D02*
X134138152Y-90502857D01*
X134138152Y-90502857D02*
X134090533Y-90598095D01*
X133757200Y-90169524D02*
X133804819Y-90264762D01*
X133804819Y-90264762D02*
X133804819Y-90455238D01*
X133804819Y-90455238D02*
X133757200Y-90550476D01*
X133757200Y-90550476D02*
X133709580Y-90598095D01*
X133709580Y-90598095D02*
X133614342Y-90645714D01*
X133614342Y-90645714D02*
X133328628Y-90645714D01*
X133328628Y-90645714D02*
X133233390Y-90598095D01*
X133233390Y-90598095D02*
X133185771Y-90550476D01*
X133185771Y-90550476D02*
X133138152Y-90455238D01*
X133138152Y-90455238D02*
X133138152Y-90264762D01*
X133138152Y-90264762D02*
X133185771Y-90169524D01*
X133138152Y-89693333D02*
X133804819Y-89693333D01*
X133233390Y-89693333D02*
X133185771Y-89645714D01*
X133185771Y-89645714D02*
X133138152Y-89550476D01*
X133138152Y-89550476D02*
X133138152Y-89407619D01*
X133138152Y-89407619D02*
X133185771Y-89312381D01*
X133185771Y-89312381D02*
X133281009Y-89264762D01*
X133281009Y-89264762D02*
X133804819Y-89264762D01*
X133757200Y-88407619D02*
X133804819Y-88502857D01*
X133804819Y-88502857D02*
X133804819Y-88693333D01*
X133804819Y-88693333D02*
X133757200Y-88788571D01*
X133757200Y-88788571D02*
X133661961Y-88836190D01*
X133661961Y-88836190D02*
X133281009Y-88836190D01*
X133281009Y-88836190D02*
X133185771Y-88788571D01*
X133185771Y-88788571D02*
X133138152Y-88693333D01*
X133138152Y-88693333D02*
X133138152Y-88502857D01*
X133138152Y-88502857D02*
X133185771Y-88407619D01*
X133185771Y-88407619D02*
X133281009Y-88360000D01*
X133281009Y-88360000D02*
X133376247Y-88360000D01*
X133376247Y-88360000D02*
X133471485Y-88836190D01*
X133804819Y-87502857D02*
X132804819Y-87502857D01*
X133757200Y-87502857D02*
X133804819Y-87598095D01*
X133804819Y-87598095D02*
X133804819Y-87788571D01*
X133804819Y-87788571D02*
X133757200Y-87883809D01*
X133757200Y-87883809D02*
X133709580Y-87931428D01*
X133709580Y-87931428D02*
X133614342Y-87979047D01*
X133614342Y-87979047D02*
X133328628Y-87979047D01*
X133328628Y-87979047D02*
X133233390Y-87931428D01*
X133233390Y-87931428D02*
X133185771Y-87883809D01*
X133185771Y-87883809D02*
X133138152Y-87788571D01*
X133138152Y-87788571D02*
X133138152Y-87598095D01*
X133138152Y-87598095D02*
X133185771Y-87502857D01*
X133804819Y-86264761D02*
X132804819Y-86264761D01*
X133185771Y-86264761D02*
X133138152Y-86169523D01*
X133138152Y-86169523D02*
X133138152Y-85979047D01*
X133138152Y-85979047D02*
X133185771Y-85883809D01*
X133185771Y-85883809D02*
X133233390Y-85836190D01*
X133233390Y-85836190D02*
X133328628Y-85788571D01*
X133328628Y-85788571D02*
X133614342Y-85788571D01*
X133614342Y-85788571D02*
X133709580Y-85836190D01*
X133709580Y-85836190D02*
X133757200Y-85883809D01*
X133757200Y-85883809D02*
X133804819Y-85979047D01*
X133804819Y-85979047D02*
X133804819Y-86169523D01*
X133804819Y-86169523D02*
X133757200Y-86264761D01*
X133138152Y-85455237D02*
X133804819Y-85217142D01*
X133138152Y-84979047D02*
X133804819Y-85217142D01*
X133804819Y-85217142D02*
X134042914Y-85312380D01*
X134042914Y-85312380D02*
X134090533Y-85359999D01*
X134090533Y-85359999D02*
X134138152Y-85455237D01*
X133138152Y-83836189D02*
X134138152Y-83836189D01*
X133185771Y-83836189D02*
X133138152Y-83740951D01*
X133138152Y-83740951D02*
X133138152Y-83550475D01*
X133138152Y-83550475D02*
X133185771Y-83455237D01*
X133185771Y-83455237D02*
X133233390Y-83407618D01*
X133233390Y-83407618D02*
X133328628Y-83359999D01*
X133328628Y-83359999D02*
X133614342Y-83359999D01*
X133614342Y-83359999D02*
X133709580Y-83407618D01*
X133709580Y-83407618D02*
X133757200Y-83455237D01*
X133757200Y-83455237D02*
X133804819Y-83550475D01*
X133804819Y-83550475D02*
X133804819Y-83740951D01*
X133804819Y-83740951D02*
X133757200Y-83836189D01*
X133804819Y-82502856D02*
X133281009Y-82502856D01*
X133281009Y-82502856D02*
X133185771Y-82550475D01*
X133185771Y-82550475D02*
X133138152Y-82645713D01*
X133138152Y-82645713D02*
X133138152Y-82836189D01*
X133138152Y-82836189D02*
X133185771Y-82931427D01*
X133757200Y-82502856D02*
X133804819Y-82598094D01*
X133804819Y-82598094D02*
X133804819Y-82836189D01*
X133804819Y-82836189D02*
X133757200Y-82931427D01*
X133757200Y-82931427D02*
X133661961Y-82979046D01*
X133661961Y-82979046D02*
X133566723Y-82979046D01*
X133566723Y-82979046D02*
X133471485Y-82931427D01*
X133471485Y-82931427D02*
X133423866Y-82836189D01*
X133423866Y-82836189D02*
X133423866Y-82598094D01*
X133423866Y-82598094D02*
X133376247Y-82502856D01*
X133804819Y-82026665D02*
X133138152Y-82026665D01*
X133328628Y-82026665D02*
X133233390Y-81979046D01*
X133233390Y-81979046D02*
X133185771Y-81931427D01*
X133185771Y-81931427D02*
X133138152Y-81836189D01*
X133138152Y-81836189D02*
X133138152Y-81740951D01*
X133804819Y-81407617D02*
X133138152Y-81407617D01*
X132804819Y-81407617D02*
X132852438Y-81455236D01*
X132852438Y-81455236D02*
X132900057Y-81407617D01*
X132900057Y-81407617D02*
X132852438Y-81359998D01*
X132852438Y-81359998D02*
X132804819Y-81407617D01*
X132804819Y-81407617D02*
X132900057Y-81407617D01*
X133138152Y-80931427D02*
X134138152Y-80931427D01*
X133185771Y-80931427D02*
X133138152Y-80836189D01*
X133138152Y-80836189D02*
X133138152Y-80645713D01*
X133138152Y-80645713D02*
X133185771Y-80550475D01*
X133185771Y-80550475D02*
X133233390Y-80502856D01*
X133233390Y-80502856D02*
X133328628Y-80455237D01*
X133328628Y-80455237D02*
X133614342Y-80455237D01*
X133614342Y-80455237D02*
X133709580Y-80502856D01*
X133709580Y-80502856D02*
X133757200Y-80550475D01*
X133757200Y-80550475D02*
X133804819Y-80645713D01*
X133804819Y-80645713D02*
X133804819Y-80836189D01*
X133804819Y-80836189D02*
X133757200Y-80931427D01*
X133804819Y-79598094D02*
X133281009Y-79598094D01*
X133281009Y-79598094D02*
X133185771Y-79645713D01*
X133185771Y-79645713D02*
X133138152Y-79740951D01*
X133138152Y-79740951D02*
X133138152Y-79931427D01*
X133138152Y-79931427D02*
X133185771Y-80026665D01*
X133757200Y-79598094D02*
X133804819Y-79693332D01*
X133804819Y-79693332D02*
X133804819Y-79931427D01*
X133804819Y-79931427D02*
X133757200Y-80026665D01*
X133757200Y-80026665D02*
X133661961Y-80074284D01*
X133661961Y-80074284D02*
X133566723Y-80074284D01*
X133566723Y-80074284D02*
X133471485Y-80026665D01*
X133471485Y-80026665D02*
X133423866Y-79931427D01*
X133423866Y-79931427D02*
X133423866Y-79693332D01*
X133423866Y-79693332D02*
X133376247Y-79598094D01*
X133804819Y-78979046D02*
X133757200Y-79074284D01*
X133757200Y-79074284D02*
X133661961Y-79121903D01*
X133661961Y-79121903D02*
X132804819Y-79121903D01*
X68399819Y-112601189D02*
X67399819Y-112601189D01*
X67399819Y-111934523D02*
X67399819Y-111744047D01*
X67399819Y-111744047D02*
X67447438Y-111648809D01*
X67447438Y-111648809D02*
X67542676Y-111553571D01*
X67542676Y-111553571D02*
X67733152Y-111505952D01*
X67733152Y-111505952D02*
X68066485Y-111505952D01*
X68066485Y-111505952D02*
X68256961Y-111553571D01*
X68256961Y-111553571D02*
X68352200Y-111648809D01*
X68352200Y-111648809D02*
X68399819Y-111744047D01*
X68399819Y-111744047D02*
X68399819Y-111934523D01*
X68399819Y-111934523D02*
X68352200Y-112029761D01*
X68352200Y-112029761D02*
X68256961Y-112124999D01*
X68256961Y-112124999D02*
X68066485Y-112172618D01*
X68066485Y-112172618D02*
X67733152Y-112172618D01*
X67733152Y-112172618D02*
X67542676Y-112124999D01*
X67542676Y-112124999D02*
X67447438Y-112029761D01*
X67447438Y-112029761D02*
X67399819Y-111934523D01*
X68399819Y-110553571D02*
X68399819Y-111124999D01*
X68399819Y-110839285D02*
X67399819Y-110839285D01*
X67399819Y-110839285D02*
X67542676Y-110934523D01*
X67542676Y-110934523D02*
X67637914Y-111029761D01*
X67637914Y-111029761D02*
X67685533Y-111124999D01*
X68399819Y-110077380D02*
X68399819Y-109886904D01*
X68399819Y-109886904D02*
X68352200Y-109791666D01*
X68352200Y-109791666D02*
X68304580Y-109744047D01*
X68304580Y-109744047D02*
X68161723Y-109648809D01*
X68161723Y-109648809D02*
X67971247Y-109601190D01*
X67971247Y-109601190D02*
X67590295Y-109601190D01*
X67590295Y-109601190D02*
X67495057Y-109648809D01*
X67495057Y-109648809D02*
X67447438Y-109696428D01*
X67447438Y-109696428D02*
X67399819Y-109791666D01*
X67399819Y-109791666D02*
X67399819Y-109982142D01*
X67399819Y-109982142D02*
X67447438Y-110077380D01*
X67447438Y-110077380D02*
X67495057Y-110124999D01*
X67495057Y-110124999D02*
X67590295Y-110172618D01*
X67590295Y-110172618D02*
X67828390Y-110172618D01*
X67828390Y-110172618D02*
X67923628Y-110124999D01*
X67923628Y-110124999D02*
X67971247Y-110077380D01*
X67971247Y-110077380D02*
X68018866Y-109982142D01*
X68018866Y-109982142D02*
X68018866Y-109791666D01*
X68018866Y-109791666D02*
X67971247Y-109696428D01*
X67971247Y-109696428D02*
X67923628Y-109648809D01*
X67923628Y-109648809D02*
X67828390Y-109601190D01*
X92408571Y-44982200D02*
X92503809Y-45029819D01*
X92503809Y-45029819D02*
X92694285Y-45029819D01*
X92694285Y-45029819D02*
X92789523Y-44982200D01*
X92789523Y-44982200D02*
X92837142Y-44886961D01*
X92837142Y-44886961D02*
X92837142Y-44839342D01*
X92837142Y-44839342D02*
X92789523Y-44744104D01*
X92789523Y-44744104D02*
X92694285Y-44696485D01*
X92694285Y-44696485D02*
X92551428Y-44696485D01*
X92551428Y-44696485D02*
X92456190Y-44648866D01*
X92456190Y-44648866D02*
X92408571Y-44553628D01*
X92408571Y-44553628D02*
X92408571Y-44506009D01*
X92408571Y-44506009D02*
X92456190Y-44410771D01*
X92456190Y-44410771D02*
X92551428Y-44363152D01*
X92551428Y-44363152D02*
X92694285Y-44363152D01*
X92694285Y-44363152D02*
X92789523Y-44410771D01*
X93122857Y-44363152D02*
X93503809Y-44363152D01*
X93265714Y-44029819D02*
X93265714Y-44886961D01*
X93265714Y-44886961D02*
X93313333Y-44982200D01*
X93313333Y-44982200D02*
X93408571Y-45029819D01*
X93408571Y-45029819D02*
X93503809Y-45029819D01*
X93837143Y-45029819D02*
X93837143Y-44363152D01*
X93837143Y-44029819D02*
X93789524Y-44077438D01*
X93789524Y-44077438D02*
X93837143Y-44125057D01*
X93837143Y-44125057D02*
X93884762Y-44077438D01*
X93884762Y-44077438D02*
X93837143Y-44029819D01*
X93837143Y-44029819D02*
X93837143Y-44125057D01*
X94741904Y-44982200D02*
X94646666Y-45029819D01*
X94646666Y-45029819D02*
X94456190Y-45029819D01*
X94456190Y-45029819D02*
X94360952Y-44982200D01*
X94360952Y-44982200D02*
X94313333Y-44934580D01*
X94313333Y-44934580D02*
X94265714Y-44839342D01*
X94265714Y-44839342D02*
X94265714Y-44553628D01*
X94265714Y-44553628D02*
X94313333Y-44458390D01*
X94313333Y-44458390D02*
X94360952Y-44410771D01*
X94360952Y-44410771D02*
X94456190Y-44363152D01*
X94456190Y-44363152D02*
X94646666Y-44363152D01*
X94646666Y-44363152D02*
X94741904Y-44410771D01*
X95170476Y-45029819D02*
X95170476Y-44029819D01*
X95265714Y-44648866D02*
X95551428Y-45029819D01*
X95551428Y-44363152D02*
X95170476Y-44744104D01*
X89741905Y-46592200D02*
X89837143Y-46639819D01*
X89837143Y-46639819D02*
X90027619Y-46639819D01*
X90027619Y-46639819D02*
X90122857Y-46592200D01*
X90122857Y-46592200D02*
X90170476Y-46496961D01*
X90170476Y-46496961D02*
X90170476Y-46449342D01*
X90170476Y-46449342D02*
X90122857Y-46354104D01*
X90122857Y-46354104D02*
X90027619Y-46306485D01*
X90027619Y-46306485D02*
X89884762Y-46306485D01*
X89884762Y-46306485D02*
X89789524Y-46258866D01*
X89789524Y-46258866D02*
X89741905Y-46163628D01*
X89741905Y-46163628D02*
X89741905Y-46116009D01*
X89741905Y-46116009D02*
X89789524Y-46020771D01*
X89789524Y-46020771D02*
X89884762Y-45973152D01*
X89884762Y-45973152D02*
X90027619Y-45973152D01*
X90027619Y-45973152D02*
X90122857Y-46020771D01*
X90503810Y-45973152D02*
X90694286Y-46639819D01*
X90694286Y-46639819D02*
X90884762Y-46163628D01*
X90884762Y-46163628D02*
X91075238Y-46639819D01*
X91075238Y-46639819D02*
X91265714Y-45973152D01*
X91646667Y-46639819D02*
X91646667Y-45973152D01*
X91646667Y-45639819D02*
X91599048Y-45687438D01*
X91599048Y-45687438D02*
X91646667Y-45735057D01*
X91646667Y-45735057D02*
X91694286Y-45687438D01*
X91694286Y-45687438D02*
X91646667Y-45639819D01*
X91646667Y-45639819D02*
X91646667Y-45735057D01*
X91980000Y-45973152D02*
X92360952Y-45973152D01*
X92122857Y-45639819D02*
X92122857Y-46496961D01*
X92122857Y-46496961D02*
X92170476Y-46592200D01*
X92170476Y-46592200D02*
X92265714Y-46639819D01*
X92265714Y-46639819D02*
X92360952Y-46639819D01*
X93122857Y-46592200D02*
X93027619Y-46639819D01*
X93027619Y-46639819D02*
X92837143Y-46639819D01*
X92837143Y-46639819D02*
X92741905Y-46592200D01*
X92741905Y-46592200D02*
X92694286Y-46544580D01*
X92694286Y-46544580D02*
X92646667Y-46449342D01*
X92646667Y-46449342D02*
X92646667Y-46163628D01*
X92646667Y-46163628D02*
X92694286Y-46068390D01*
X92694286Y-46068390D02*
X92741905Y-46020771D01*
X92741905Y-46020771D02*
X92837143Y-45973152D01*
X92837143Y-45973152D02*
X93027619Y-45973152D01*
X93027619Y-45973152D02*
X93122857Y-46020771D01*
X93551429Y-46639819D02*
X93551429Y-45639819D01*
X93980000Y-46639819D02*
X93980000Y-46116009D01*
X93980000Y-46116009D02*
X93932381Y-46020771D01*
X93932381Y-46020771D02*
X93837143Y-45973152D01*
X93837143Y-45973152D02*
X93694286Y-45973152D01*
X93694286Y-45973152D02*
X93599048Y-46020771D01*
X93599048Y-46020771D02*
X93551429Y-46068390D01*
X95218096Y-46639819D02*
X95218096Y-45639819D01*
X95884762Y-45639819D02*
X96075238Y-45639819D01*
X96075238Y-45639819D02*
X96170476Y-45687438D01*
X96170476Y-45687438D02*
X96265714Y-45782676D01*
X96265714Y-45782676D02*
X96313333Y-45973152D01*
X96313333Y-45973152D02*
X96313333Y-46306485D01*
X96313333Y-46306485D02*
X96265714Y-46496961D01*
X96265714Y-46496961D02*
X96170476Y-46592200D01*
X96170476Y-46592200D02*
X96075238Y-46639819D01*
X96075238Y-46639819D02*
X95884762Y-46639819D01*
X95884762Y-46639819D02*
X95789524Y-46592200D01*
X95789524Y-46592200D02*
X95694286Y-46496961D01*
X95694286Y-46496961D02*
X95646667Y-46306485D01*
X95646667Y-46306485D02*
X95646667Y-45973152D01*
X95646667Y-45973152D02*
X95694286Y-45782676D01*
X95694286Y-45782676D02*
X95789524Y-45687438D01*
X95789524Y-45687438D02*
X95884762Y-45639819D01*
X96694286Y-45735057D02*
X96741905Y-45687438D01*
X96741905Y-45687438D02*
X96837143Y-45639819D01*
X96837143Y-45639819D02*
X97075238Y-45639819D01*
X97075238Y-45639819D02*
X97170476Y-45687438D01*
X97170476Y-45687438D02*
X97218095Y-45735057D01*
X97218095Y-45735057D02*
X97265714Y-45830295D01*
X97265714Y-45830295D02*
X97265714Y-45925533D01*
X97265714Y-45925533D02*
X97218095Y-46068390D01*
X97218095Y-46068390D02*
X96646667Y-46639819D01*
X96646667Y-46639819D02*
X97265714Y-46639819D01*
X98218095Y-46639819D02*
X97646667Y-46639819D01*
X97932381Y-46639819D02*
X97932381Y-45639819D01*
X97932381Y-45639819D02*
X97837143Y-45782676D01*
X97837143Y-45782676D02*
X97741905Y-45877914D01*
X97741905Y-45877914D02*
X97646667Y-45925533D01*
X89765714Y-47583152D02*
X90003809Y-48249819D01*
X90241904Y-47583152D02*
X90003809Y-48249819D01*
X90003809Y-48249819D02*
X89908571Y-48487914D01*
X89908571Y-48487914D02*
X89860952Y-48535533D01*
X89860952Y-48535533D02*
X89765714Y-48583152D01*
X90384762Y-48345057D02*
X91146666Y-48345057D01*
X91813333Y-48249819D02*
X91813333Y-47726009D01*
X91813333Y-47726009D02*
X91765714Y-47630771D01*
X91765714Y-47630771D02*
X91670476Y-47583152D01*
X91670476Y-47583152D02*
X91480000Y-47583152D01*
X91480000Y-47583152D02*
X91384762Y-47630771D01*
X91813333Y-48202200D02*
X91718095Y-48249819D01*
X91718095Y-48249819D02*
X91480000Y-48249819D01*
X91480000Y-48249819D02*
X91384762Y-48202200D01*
X91384762Y-48202200D02*
X91337143Y-48106961D01*
X91337143Y-48106961D02*
X91337143Y-48011723D01*
X91337143Y-48011723D02*
X91384762Y-47916485D01*
X91384762Y-47916485D02*
X91480000Y-47868866D01*
X91480000Y-47868866D02*
X91718095Y-47868866D01*
X91718095Y-47868866D02*
X91813333Y-47821247D01*
X92194286Y-48249819D02*
X92718095Y-47583152D01*
X92194286Y-47583152D02*
X92718095Y-48249819D01*
X93099048Y-48249819D02*
X93099048Y-47583152D01*
X93099048Y-47249819D02*
X93051429Y-47297438D01*
X93051429Y-47297438D02*
X93099048Y-47345057D01*
X93099048Y-47345057D02*
X93146667Y-47297438D01*
X93146667Y-47297438D02*
X93099048Y-47249819D01*
X93099048Y-47249819D02*
X93099048Y-47345057D01*
X93527619Y-48202200D02*
X93622857Y-48249819D01*
X93622857Y-48249819D02*
X93813333Y-48249819D01*
X93813333Y-48249819D02*
X93908571Y-48202200D01*
X93908571Y-48202200D02*
X93956190Y-48106961D01*
X93956190Y-48106961D02*
X93956190Y-48059342D01*
X93956190Y-48059342D02*
X93908571Y-47964104D01*
X93908571Y-47964104D02*
X93813333Y-47916485D01*
X93813333Y-47916485D02*
X93670476Y-47916485D01*
X93670476Y-47916485D02*
X93575238Y-47868866D01*
X93575238Y-47868866D02*
X93527619Y-47773628D01*
X93527619Y-47773628D02*
X93527619Y-47726009D01*
X93527619Y-47726009D02*
X93575238Y-47630771D01*
X93575238Y-47630771D02*
X93670476Y-47583152D01*
X93670476Y-47583152D02*
X93813333Y-47583152D01*
X93813333Y-47583152D02*
X93908571Y-47630771D01*
X95146667Y-48249819D02*
X95146667Y-47249819D01*
X95813333Y-47249819D02*
X96003809Y-47249819D01*
X96003809Y-47249819D02*
X96099047Y-47297438D01*
X96099047Y-47297438D02*
X96194285Y-47392676D01*
X96194285Y-47392676D02*
X96241904Y-47583152D01*
X96241904Y-47583152D02*
X96241904Y-47916485D01*
X96241904Y-47916485D02*
X96194285Y-48106961D01*
X96194285Y-48106961D02*
X96099047Y-48202200D01*
X96099047Y-48202200D02*
X96003809Y-48249819D01*
X96003809Y-48249819D02*
X95813333Y-48249819D01*
X95813333Y-48249819D02*
X95718095Y-48202200D01*
X95718095Y-48202200D02*
X95622857Y-48106961D01*
X95622857Y-48106961D02*
X95575238Y-47916485D01*
X95575238Y-47916485D02*
X95575238Y-47583152D01*
X95575238Y-47583152D02*
X95622857Y-47392676D01*
X95622857Y-47392676D02*
X95718095Y-47297438D01*
X95718095Y-47297438D02*
X95813333Y-47249819D01*
X96575238Y-47249819D02*
X97194285Y-47249819D01*
X97194285Y-47249819D02*
X96860952Y-47630771D01*
X96860952Y-47630771D02*
X97003809Y-47630771D01*
X97003809Y-47630771D02*
X97099047Y-47678390D01*
X97099047Y-47678390D02*
X97146666Y-47726009D01*
X97146666Y-47726009D02*
X97194285Y-47821247D01*
X97194285Y-47821247D02*
X97194285Y-48059342D01*
X97194285Y-48059342D02*
X97146666Y-48154580D01*
X97146666Y-48154580D02*
X97099047Y-48202200D01*
X97099047Y-48202200D02*
X97003809Y-48249819D01*
X97003809Y-48249819D02*
X96718095Y-48249819D01*
X96718095Y-48249819D02*
X96622857Y-48202200D01*
X96622857Y-48202200D02*
X96575238Y-48154580D01*
X98051428Y-47249819D02*
X97860952Y-47249819D01*
X97860952Y-47249819D02*
X97765714Y-47297438D01*
X97765714Y-47297438D02*
X97718095Y-47345057D01*
X97718095Y-47345057D02*
X97622857Y-47487914D01*
X97622857Y-47487914D02*
X97575238Y-47678390D01*
X97575238Y-47678390D02*
X97575238Y-48059342D01*
X97575238Y-48059342D02*
X97622857Y-48154580D01*
X97622857Y-48154580D02*
X97670476Y-48202200D01*
X97670476Y-48202200D02*
X97765714Y-48249819D01*
X97765714Y-48249819D02*
X97956190Y-48249819D01*
X97956190Y-48249819D02*
X98051428Y-48202200D01*
X98051428Y-48202200D02*
X98099047Y-48154580D01*
X98099047Y-48154580D02*
X98146666Y-48059342D01*
X98146666Y-48059342D02*
X98146666Y-47821247D01*
X98146666Y-47821247D02*
X98099047Y-47726009D01*
X98099047Y-47726009D02*
X98051428Y-47678390D01*
X98051428Y-47678390D02*
X97956190Y-47630771D01*
X97956190Y-47630771D02*
X97765714Y-47630771D01*
X97765714Y-47630771D02*
X97670476Y-47678390D01*
X97670476Y-47678390D02*
X97622857Y-47726009D01*
X97622857Y-47726009D02*
X97575238Y-47821247D01*
X89741905Y-49859819D02*
X90265714Y-49193152D01*
X89741905Y-49193152D02*
X90265714Y-49859819D01*
X90408572Y-49955057D02*
X91170476Y-49955057D01*
X91837143Y-49859819D02*
X91837143Y-49336009D01*
X91837143Y-49336009D02*
X91789524Y-49240771D01*
X91789524Y-49240771D02*
X91694286Y-49193152D01*
X91694286Y-49193152D02*
X91503810Y-49193152D01*
X91503810Y-49193152D02*
X91408572Y-49240771D01*
X91837143Y-49812200D02*
X91741905Y-49859819D01*
X91741905Y-49859819D02*
X91503810Y-49859819D01*
X91503810Y-49859819D02*
X91408572Y-49812200D01*
X91408572Y-49812200D02*
X91360953Y-49716961D01*
X91360953Y-49716961D02*
X91360953Y-49621723D01*
X91360953Y-49621723D02*
X91408572Y-49526485D01*
X91408572Y-49526485D02*
X91503810Y-49478866D01*
X91503810Y-49478866D02*
X91741905Y-49478866D01*
X91741905Y-49478866D02*
X91837143Y-49431247D01*
X92218096Y-49859819D02*
X92741905Y-49193152D01*
X92218096Y-49193152D02*
X92741905Y-49859819D01*
X93122858Y-49859819D02*
X93122858Y-49193152D01*
X93122858Y-48859819D02*
X93075239Y-48907438D01*
X93075239Y-48907438D02*
X93122858Y-48955057D01*
X93122858Y-48955057D02*
X93170477Y-48907438D01*
X93170477Y-48907438D02*
X93122858Y-48859819D01*
X93122858Y-48859819D02*
X93122858Y-48955057D01*
X93551429Y-49812200D02*
X93646667Y-49859819D01*
X93646667Y-49859819D02*
X93837143Y-49859819D01*
X93837143Y-49859819D02*
X93932381Y-49812200D01*
X93932381Y-49812200D02*
X93980000Y-49716961D01*
X93980000Y-49716961D02*
X93980000Y-49669342D01*
X93980000Y-49669342D02*
X93932381Y-49574104D01*
X93932381Y-49574104D02*
X93837143Y-49526485D01*
X93837143Y-49526485D02*
X93694286Y-49526485D01*
X93694286Y-49526485D02*
X93599048Y-49478866D01*
X93599048Y-49478866D02*
X93551429Y-49383628D01*
X93551429Y-49383628D02*
X93551429Y-49336009D01*
X93551429Y-49336009D02*
X93599048Y-49240771D01*
X93599048Y-49240771D02*
X93694286Y-49193152D01*
X93694286Y-49193152D02*
X93837143Y-49193152D01*
X93837143Y-49193152D02*
X93932381Y-49240771D01*
X95170477Y-49859819D02*
X95170477Y-48859819D01*
X95837143Y-48859819D02*
X96027619Y-48859819D01*
X96027619Y-48859819D02*
X96122857Y-48907438D01*
X96122857Y-48907438D02*
X96218095Y-49002676D01*
X96218095Y-49002676D02*
X96265714Y-49193152D01*
X96265714Y-49193152D02*
X96265714Y-49526485D01*
X96265714Y-49526485D02*
X96218095Y-49716961D01*
X96218095Y-49716961D02*
X96122857Y-49812200D01*
X96122857Y-49812200D02*
X96027619Y-49859819D01*
X96027619Y-49859819D02*
X95837143Y-49859819D01*
X95837143Y-49859819D02*
X95741905Y-49812200D01*
X95741905Y-49812200D02*
X95646667Y-49716961D01*
X95646667Y-49716961D02*
X95599048Y-49526485D01*
X95599048Y-49526485D02*
X95599048Y-49193152D01*
X95599048Y-49193152D02*
X95646667Y-49002676D01*
X95646667Y-49002676D02*
X95741905Y-48907438D01*
X95741905Y-48907438D02*
X95837143Y-48859819D01*
X96646667Y-48955057D02*
X96694286Y-48907438D01*
X96694286Y-48907438D02*
X96789524Y-48859819D01*
X96789524Y-48859819D02*
X97027619Y-48859819D01*
X97027619Y-48859819D02*
X97122857Y-48907438D01*
X97122857Y-48907438D02*
X97170476Y-48955057D01*
X97170476Y-48955057D02*
X97218095Y-49050295D01*
X97218095Y-49050295D02*
X97218095Y-49145533D01*
X97218095Y-49145533D02*
X97170476Y-49288390D01*
X97170476Y-49288390D02*
X96599048Y-49859819D01*
X96599048Y-49859819D02*
X97218095Y-49859819D01*
X98122857Y-48859819D02*
X97646667Y-48859819D01*
X97646667Y-48859819D02*
X97599048Y-49336009D01*
X97599048Y-49336009D02*
X97646667Y-49288390D01*
X97646667Y-49288390D02*
X97741905Y-49240771D01*
X97741905Y-49240771D02*
X97980000Y-49240771D01*
X97980000Y-49240771D02*
X98075238Y-49288390D01*
X98075238Y-49288390D02*
X98122857Y-49336009D01*
X98122857Y-49336009D02*
X98170476Y-49431247D01*
X98170476Y-49431247D02*
X98170476Y-49669342D01*
X98170476Y-49669342D02*
X98122857Y-49764580D01*
X98122857Y-49764580D02*
X98075238Y-49812200D01*
X98075238Y-49812200D02*
X97980000Y-49859819D01*
X97980000Y-49859819D02*
X97741905Y-49859819D01*
X97741905Y-49859819D02*
X97646667Y-49812200D01*
X97646667Y-49812200D02*
X97599048Y-49764580D01*
X68399819Y-88471189D02*
X67399819Y-88471189D01*
X67399819Y-87804523D02*
X67399819Y-87614047D01*
X67399819Y-87614047D02*
X67447438Y-87518809D01*
X67447438Y-87518809D02*
X67542676Y-87423571D01*
X67542676Y-87423571D02*
X67733152Y-87375952D01*
X67733152Y-87375952D02*
X68066485Y-87375952D01*
X68066485Y-87375952D02*
X68256961Y-87423571D01*
X68256961Y-87423571D02*
X68352200Y-87518809D01*
X68352200Y-87518809D02*
X68399819Y-87614047D01*
X68399819Y-87614047D02*
X68399819Y-87804523D01*
X68399819Y-87804523D02*
X68352200Y-87899761D01*
X68352200Y-87899761D02*
X68256961Y-87994999D01*
X68256961Y-87994999D02*
X68066485Y-88042618D01*
X68066485Y-88042618D02*
X67733152Y-88042618D01*
X67733152Y-88042618D02*
X67542676Y-87994999D01*
X67542676Y-87994999D02*
X67447438Y-87899761D01*
X67447438Y-87899761D02*
X67399819Y-87804523D01*
X68399819Y-86423571D02*
X68399819Y-86994999D01*
X68399819Y-86709285D02*
X67399819Y-86709285D01*
X67399819Y-86709285D02*
X67542676Y-86804523D01*
X67542676Y-86804523D02*
X67637914Y-86899761D01*
X67637914Y-86899761D02*
X67685533Y-86994999D01*
X67828390Y-85852142D02*
X67780771Y-85947380D01*
X67780771Y-85947380D02*
X67733152Y-85994999D01*
X67733152Y-85994999D02*
X67637914Y-86042618D01*
X67637914Y-86042618D02*
X67590295Y-86042618D01*
X67590295Y-86042618D02*
X67495057Y-85994999D01*
X67495057Y-85994999D02*
X67447438Y-85947380D01*
X67447438Y-85947380D02*
X67399819Y-85852142D01*
X67399819Y-85852142D02*
X67399819Y-85661666D01*
X67399819Y-85661666D02*
X67447438Y-85566428D01*
X67447438Y-85566428D02*
X67495057Y-85518809D01*
X67495057Y-85518809D02*
X67590295Y-85471190D01*
X67590295Y-85471190D02*
X67637914Y-85471190D01*
X67637914Y-85471190D02*
X67733152Y-85518809D01*
X67733152Y-85518809D02*
X67780771Y-85566428D01*
X67780771Y-85566428D02*
X67828390Y-85661666D01*
X67828390Y-85661666D02*
X67828390Y-85852142D01*
X67828390Y-85852142D02*
X67876009Y-85947380D01*
X67876009Y-85947380D02*
X67923628Y-85994999D01*
X67923628Y-85994999D02*
X68018866Y-86042618D01*
X68018866Y-86042618D02*
X68209342Y-86042618D01*
X68209342Y-86042618D02*
X68304580Y-85994999D01*
X68304580Y-85994999D02*
X68352200Y-85947380D01*
X68352200Y-85947380D02*
X68399819Y-85852142D01*
X68399819Y-85852142D02*
X68399819Y-85661666D01*
X68399819Y-85661666D02*
X68352200Y-85566428D01*
X68352200Y-85566428D02*
X68304580Y-85518809D01*
X68304580Y-85518809D02*
X68209342Y-85471190D01*
X68209342Y-85471190D02*
X68018866Y-85471190D01*
X68018866Y-85471190D02*
X67923628Y-85518809D01*
X67923628Y-85518809D02*
X67876009Y-85566428D01*
X67876009Y-85566428D02*
X67828390Y-85661666D01*
X68399819Y-40211189D02*
X67399819Y-40211189D01*
X67399819Y-39544523D02*
X67399819Y-39354047D01*
X67399819Y-39354047D02*
X67447438Y-39258809D01*
X67447438Y-39258809D02*
X67542676Y-39163571D01*
X67542676Y-39163571D02*
X67733152Y-39115952D01*
X67733152Y-39115952D02*
X68066485Y-39115952D01*
X68066485Y-39115952D02*
X68256961Y-39163571D01*
X68256961Y-39163571D02*
X68352200Y-39258809D01*
X68352200Y-39258809D02*
X68399819Y-39354047D01*
X68399819Y-39354047D02*
X68399819Y-39544523D01*
X68399819Y-39544523D02*
X68352200Y-39639761D01*
X68352200Y-39639761D02*
X68256961Y-39734999D01*
X68256961Y-39734999D02*
X68066485Y-39782618D01*
X68066485Y-39782618D02*
X67733152Y-39782618D01*
X67733152Y-39782618D02*
X67542676Y-39734999D01*
X67542676Y-39734999D02*
X67447438Y-39639761D01*
X67447438Y-39639761D02*
X67399819Y-39544523D01*
X68399819Y-38163571D02*
X68399819Y-38734999D01*
X68399819Y-38449285D02*
X67399819Y-38449285D01*
X67399819Y-38449285D02*
X67542676Y-38544523D01*
X67542676Y-38544523D02*
X67637914Y-38639761D01*
X67637914Y-38639761D02*
X67685533Y-38734999D01*
X67399819Y-37830237D02*
X67399819Y-37211190D01*
X67399819Y-37211190D02*
X67780771Y-37544523D01*
X67780771Y-37544523D02*
X67780771Y-37401666D01*
X67780771Y-37401666D02*
X67828390Y-37306428D01*
X67828390Y-37306428D02*
X67876009Y-37258809D01*
X67876009Y-37258809D02*
X67971247Y-37211190D01*
X67971247Y-37211190D02*
X68209342Y-37211190D01*
X68209342Y-37211190D02*
X68304580Y-37258809D01*
X68304580Y-37258809D02*
X68352200Y-37306428D01*
X68352200Y-37306428D02*
X68399819Y-37401666D01*
X68399819Y-37401666D02*
X68399819Y-37687380D01*
X68399819Y-37687380D02*
X68352200Y-37782618D01*
X68352200Y-37782618D02*
X68304580Y-37830237D01*
X95036190Y-80294819D02*
X94940952Y-80247200D01*
X94940952Y-80247200D02*
X94893333Y-80151961D01*
X94893333Y-80151961D02*
X94893333Y-79294819D01*
X95417143Y-80294819D02*
X95417143Y-79628152D01*
X95417143Y-79294819D02*
X95369524Y-79342438D01*
X95369524Y-79342438D02*
X95417143Y-79390057D01*
X95417143Y-79390057D02*
X95464762Y-79342438D01*
X95464762Y-79342438D02*
X95417143Y-79294819D01*
X95417143Y-79294819D02*
X95417143Y-79390057D01*
X95893333Y-80294819D02*
X95893333Y-79628152D01*
X95893333Y-79723390D02*
X95940952Y-79675771D01*
X95940952Y-79675771D02*
X96036190Y-79628152D01*
X96036190Y-79628152D02*
X96179047Y-79628152D01*
X96179047Y-79628152D02*
X96274285Y-79675771D01*
X96274285Y-79675771D02*
X96321904Y-79771009D01*
X96321904Y-79771009D02*
X96321904Y-80294819D01*
X96321904Y-79771009D02*
X96369523Y-79675771D01*
X96369523Y-79675771D02*
X96464761Y-79628152D01*
X96464761Y-79628152D02*
X96607618Y-79628152D01*
X96607618Y-79628152D02*
X96702857Y-79675771D01*
X96702857Y-79675771D02*
X96750476Y-79771009D01*
X96750476Y-79771009D02*
X96750476Y-80294819D01*
X97226666Y-80294819D02*
X97226666Y-79628152D01*
X97226666Y-79294819D02*
X97179047Y-79342438D01*
X97179047Y-79342438D02*
X97226666Y-79390057D01*
X97226666Y-79390057D02*
X97274285Y-79342438D01*
X97274285Y-79342438D02*
X97226666Y-79294819D01*
X97226666Y-79294819D02*
X97226666Y-79390057D01*
X97559999Y-79628152D02*
X97940951Y-79628152D01*
X97702856Y-79294819D02*
X97702856Y-80151961D01*
X97702856Y-80151961D02*
X97750475Y-80247200D01*
X97750475Y-80247200D02*
X97845713Y-80294819D01*
X97845713Y-80294819D02*
X97940951Y-80294819D01*
X98036190Y-80390057D02*
X98798094Y-80390057D01*
X98988571Y-80247200D02*
X99083809Y-80294819D01*
X99083809Y-80294819D02*
X99274285Y-80294819D01*
X99274285Y-80294819D02*
X99369523Y-80247200D01*
X99369523Y-80247200D02*
X99417142Y-80151961D01*
X99417142Y-80151961D02*
X99417142Y-80104342D01*
X99417142Y-80104342D02*
X99369523Y-80009104D01*
X99369523Y-80009104D02*
X99274285Y-79961485D01*
X99274285Y-79961485D02*
X99131428Y-79961485D01*
X99131428Y-79961485D02*
X99036190Y-79913866D01*
X99036190Y-79913866D02*
X98988571Y-79818628D01*
X98988571Y-79818628D02*
X98988571Y-79771009D01*
X98988571Y-79771009D02*
X99036190Y-79675771D01*
X99036190Y-79675771D02*
X99131428Y-79628152D01*
X99131428Y-79628152D02*
X99274285Y-79628152D01*
X99274285Y-79628152D02*
X99369523Y-79675771D01*
X99750476Y-79628152D02*
X99940952Y-80294819D01*
X99940952Y-80294819D02*
X100131428Y-79818628D01*
X100131428Y-79818628D02*
X100321904Y-80294819D01*
X100321904Y-80294819D02*
X100512380Y-79628152D01*
X100893333Y-80294819D02*
X100893333Y-79628152D01*
X100893333Y-79294819D02*
X100845714Y-79342438D01*
X100845714Y-79342438D02*
X100893333Y-79390057D01*
X100893333Y-79390057D02*
X100940952Y-79342438D01*
X100940952Y-79342438D02*
X100893333Y-79294819D01*
X100893333Y-79294819D02*
X100893333Y-79390057D01*
X101226666Y-79628152D02*
X101607618Y-79628152D01*
X101369523Y-79294819D02*
X101369523Y-80151961D01*
X101369523Y-80151961D02*
X101417142Y-80247200D01*
X101417142Y-80247200D02*
X101512380Y-80294819D01*
X101512380Y-80294819D02*
X101607618Y-80294819D01*
X102369523Y-80247200D02*
X102274285Y-80294819D01*
X102274285Y-80294819D02*
X102083809Y-80294819D01*
X102083809Y-80294819D02*
X101988571Y-80247200D01*
X101988571Y-80247200D02*
X101940952Y-80199580D01*
X101940952Y-80199580D02*
X101893333Y-80104342D01*
X101893333Y-80104342D02*
X101893333Y-79818628D01*
X101893333Y-79818628D02*
X101940952Y-79723390D01*
X101940952Y-79723390D02*
X101988571Y-79675771D01*
X101988571Y-79675771D02*
X102083809Y-79628152D01*
X102083809Y-79628152D02*
X102274285Y-79628152D01*
X102274285Y-79628152D02*
X102369523Y-79675771D01*
X102798095Y-80294819D02*
X102798095Y-79294819D01*
X103226666Y-80294819D02*
X103226666Y-79771009D01*
X103226666Y-79771009D02*
X103179047Y-79675771D01*
X103179047Y-79675771D02*
X103083809Y-79628152D01*
X103083809Y-79628152D02*
X102940952Y-79628152D01*
X102940952Y-79628152D02*
X102845714Y-79675771D01*
X102845714Y-79675771D02*
X102798095Y-79723390D01*
X97583810Y-81904819D02*
X97583810Y-80904819D01*
X98250476Y-80904819D02*
X98440952Y-80904819D01*
X98440952Y-80904819D02*
X98536190Y-80952438D01*
X98536190Y-80952438D02*
X98631428Y-81047676D01*
X98631428Y-81047676D02*
X98679047Y-81238152D01*
X98679047Y-81238152D02*
X98679047Y-81571485D01*
X98679047Y-81571485D02*
X98631428Y-81761961D01*
X98631428Y-81761961D02*
X98536190Y-81857200D01*
X98536190Y-81857200D02*
X98440952Y-81904819D01*
X98440952Y-81904819D02*
X98250476Y-81904819D01*
X98250476Y-81904819D02*
X98155238Y-81857200D01*
X98155238Y-81857200D02*
X98060000Y-81761961D01*
X98060000Y-81761961D02*
X98012381Y-81571485D01*
X98012381Y-81571485D02*
X98012381Y-81238152D01*
X98012381Y-81238152D02*
X98060000Y-81047676D01*
X98060000Y-81047676D02*
X98155238Y-80952438D01*
X98155238Y-80952438D02*
X98250476Y-80904819D01*
X99060000Y-81000057D02*
X99107619Y-80952438D01*
X99107619Y-80952438D02*
X99202857Y-80904819D01*
X99202857Y-80904819D02*
X99440952Y-80904819D01*
X99440952Y-80904819D02*
X99536190Y-80952438D01*
X99536190Y-80952438D02*
X99583809Y-81000057D01*
X99583809Y-81000057D02*
X99631428Y-81095295D01*
X99631428Y-81095295D02*
X99631428Y-81190533D01*
X99631428Y-81190533D02*
X99583809Y-81333390D01*
X99583809Y-81333390D02*
X99012381Y-81904819D01*
X99012381Y-81904819D02*
X99631428Y-81904819D01*
X100012381Y-81000057D02*
X100060000Y-80952438D01*
X100060000Y-80952438D02*
X100155238Y-80904819D01*
X100155238Y-80904819D02*
X100393333Y-80904819D01*
X100393333Y-80904819D02*
X100488571Y-80952438D01*
X100488571Y-80952438D02*
X100536190Y-81000057D01*
X100536190Y-81000057D02*
X100583809Y-81095295D01*
X100583809Y-81095295D02*
X100583809Y-81190533D01*
X100583809Y-81190533D02*
X100536190Y-81333390D01*
X100536190Y-81333390D02*
X99964762Y-81904819D01*
X99964762Y-81904819D02*
X100583809Y-81904819D01*
X94186666Y-59757200D02*
X94091428Y-59804819D01*
X94091428Y-59804819D02*
X93900952Y-59804819D01*
X93900952Y-59804819D02*
X93805714Y-59757200D01*
X93805714Y-59757200D02*
X93758095Y-59661961D01*
X93758095Y-59661961D02*
X93758095Y-59281009D01*
X93758095Y-59281009D02*
X93805714Y-59185771D01*
X93805714Y-59185771D02*
X93900952Y-59138152D01*
X93900952Y-59138152D02*
X94091428Y-59138152D01*
X94091428Y-59138152D02*
X94186666Y-59185771D01*
X94186666Y-59185771D02*
X94234285Y-59281009D01*
X94234285Y-59281009D02*
X94234285Y-59376247D01*
X94234285Y-59376247D02*
X93758095Y-59471485D01*
X94662857Y-59138152D02*
X94662857Y-59804819D01*
X94662857Y-59233390D02*
X94710476Y-59185771D01*
X94710476Y-59185771D02*
X94805714Y-59138152D01*
X94805714Y-59138152D02*
X94948571Y-59138152D01*
X94948571Y-59138152D02*
X95043809Y-59185771D01*
X95043809Y-59185771D02*
X95091428Y-59281009D01*
X95091428Y-59281009D02*
X95091428Y-59804819D01*
X95996190Y-59757200D02*
X95900952Y-59804819D01*
X95900952Y-59804819D02*
X95710476Y-59804819D01*
X95710476Y-59804819D02*
X95615238Y-59757200D01*
X95615238Y-59757200D02*
X95567619Y-59709580D01*
X95567619Y-59709580D02*
X95520000Y-59614342D01*
X95520000Y-59614342D02*
X95520000Y-59328628D01*
X95520000Y-59328628D02*
X95567619Y-59233390D01*
X95567619Y-59233390D02*
X95615238Y-59185771D01*
X95615238Y-59185771D02*
X95710476Y-59138152D01*
X95710476Y-59138152D02*
X95900952Y-59138152D01*
X95900952Y-59138152D02*
X95996190Y-59185771D01*
X96567619Y-59804819D02*
X96472381Y-59757200D01*
X96472381Y-59757200D02*
X96424762Y-59709580D01*
X96424762Y-59709580D02*
X96377143Y-59614342D01*
X96377143Y-59614342D02*
X96377143Y-59328628D01*
X96377143Y-59328628D02*
X96424762Y-59233390D01*
X96424762Y-59233390D02*
X96472381Y-59185771D01*
X96472381Y-59185771D02*
X96567619Y-59138152D01*
X96567619Y-59138152D02*
X96710476Y-59138152D01*
X96710476Y-59138152D02*
X96805714Y-59185771D01*
X96805714Y-59185771D02*
X96853333Y-59233390D01*
X96853333Y-59233390D02*
X96900952Y-59328628D01*
X96900952Y-59328628D02*
X96900952Y-59614342D01*
X96900952Y-59614342D02*
X96853333Y-59709580D01*
X96853333Y-59709580D02*
X96805714Y-59757200D01*
X96805714Y-59757200D02*
X96710476Y-59804819D01*
X96710476Y-59804819D02*
X96567619Y-59804819D01*
X97758095Y-59804819D02*
X97758095Y-58804819D01*
X97758095Y-59757200D02*
X97662857Y-59804819D01*
X97662857Y-59804819D02*
X97472381Y-59804819D01*
X97472381Y-59804819D02*
X97377143Y-59757200D01*
X97377143Y-59757200D02*
X97329524Y-59709580D01*
X97329524Y-59709580D02*
X97281905Y-59614342D01*
X97281905Y-59614342D02*
X97281905Y-59328628D01*
X97281905Y-59328628D02*
X97329524Y-59233390D01*
X97329524Y-59233390D02*
X97377143Y-59185771D01*
X97377143Y-59185771D02*
X97472381Y-59138152D01*
X97472381Y-59138152D02*
X97662857Y-59138152D01*
X97662857Y-59138152D02*
X97758095Y-59185771D01*
X98615238Y-59757200D02*
X98520000Y-59804819D01*
X98520000Y-59804819D02*
X98329524Y-59804819D01*
X98329524Y-59804819D02*
X98234286Y-59757200D01*
X98234286Y-59757200D02*
X98186667Y-59661961D01*
X98186667Y-59661961D02*
X98186667Y-59281009D01*
X98186667Y-59281009D02*
X98234286Y-59185771D01*
X98234286Y-59185771D02*
X98329524Y-59138152D01*
X98329524Y-59138152D02*
X98520000Y-59138152D01*
X98520000Y-59138152D02*
X98615238Y-59185771D01*
X98615238Y-59185771D02*
X98662857Y-59281009D01*
X98662857Y-59281009D02*
X98662857Y-59376247D01*
X98662857Y-59376247D02*
X98186667Y-59471485D01*
X99091429Y-59804819D02*
X99091429Y-59138152D01*
X99091429Y-59328628D02*
X99139048Y-59233390D01*
X99139048Y-59233390D02*
X99186667Y-59185771D01*
X99186667Y-59185771D02*
X99281905Y-59138152D01*
X99281905Y-59138152D02*
X99377143Y-59138152D01*
X91019999Y-61129104D02*
X91496189Y-61129104D01*
X90924761Y-61414819D02*
X91258094Y-60414819D01*
X91258094Y-60414819D02*
X91591427Y-61414819D01*
X91686666Y-61510057D02*
X92448570Y-61510057D01*
X93115237Y-61367200D02*
X93019999Y-61414819D01*
X93019999Y-61414819D02*
X92829523Y-61414819D01*
X92829523Y-61414819D02*
X92734285Y-61367200D01*
X92734285Y-61367200D02*
X92686666Y-61319580D01*
X92686666Y-61319580D02*
X92639047Y-61224342D01*
X92639047Y-61224342D02*
X92639047Y-60938628D01*
X92639047Y-60938628D02*
X92686666Y-60843390D01*
X92686666Y-60843390D02*
X92734285Y-60795771D01*
X92734285Y-60795771D02*
X92829523Y-60748152D01*
X92829523Y-60748152D02*
X93019999Y-60748152D01*
X93019999Y-60748152D02*
X93115237Y-60795771D01*
X93686666Y-61414819D02*
X93591428Y-61367200D01*
X93591428Y-61367200D02*
X93543809Y-61319580D01*
X93543809Y-61319580D02*
X93496190Y-61224342D01*
X93496190Y-61224342D02*
X93496190Y-60938628D01*
X93496190Y-60938628D02*
X93543809Y-60843390D01*
X93543809Y-60843390D02*
X93591428Y-60795771D01*
X93591428Y-60795771D02*
X93686666Y-60748152D01*
X93686666Y-60748152D02*
X93829523Y-60748152D01*
X93829523Y-60748152D02*
X93924761Y-60795771D01*
X93924761Y-60795771D02*
X93972380Y-60843390D01*
X93972380Y-60843390D02*
X94019999Y-60938628D01*
X94019999Y-60938628D02*
X94019999Y-61224342D01*
X94019999Y-61224342D02*
X93972380Y-61319580D01*
X93972380Y-61319580D02*
X93924761Y-61367200D01*
X93924761Y-61367200D02*
X93829523Y-61414819D01*
X93829523Y-61414819D02*
X93686666Y-61414819D01*
X94448571Y-60748152D02*
X94448571Y-61414819D01*
X94448571Y-60843390D02*
X94496190Y-60795771D01*
X94496190Y-60795771D02*
X94591428Y-60748152D01*
X94591428Y-60748152D02*
X94734285Y-60748152D01*
X94734285Y-60748152D02*
X94829523Y-60795771D01*
X94829523Y-60795771D02*
X94877142Y-60891009D01*
X94877142Y-60891009D02*
X94877142Y-61414819D01*
X95210476Y-60748152D02*
X95591428Y-60748152D01*
X95353333Y-60414819D02*
X95353333Y-61271961D01*
X95353333Y-61271961D02*
X95400952Y-61367200D01*
X95400952Y-61367200D02*
X95496190Y-61414819D01*
X95496190Y-61414819D02*
X95591428Y-61414819D01*
X96353333Y-61414819D02*
X96353333Y-60891009D01*
X96353333Y-60891009D02*
X96305714Y-60795771D01*
X96305714Y-60795771D02*
X96210476Y-60748152D01*
X96210476Y-60748152D02*
X96020000Y-60748152D01*
X96020000Y-60748152D02*
X95924762Y-60795771D01*
X96353333Y-61367200D02*
X96258095Y-61414819D01*
X96258095Y-61414819D02*
X96020000Y-61414819D01*
X96020000Y-61414819D02*
X95924762Y-61367200D01*
X95924762Y-61367200D02*
X95877143Y-61271961D01*
X95877143Y-61271961D02*
X95877143Y-61176723D01*
X95877143Y-61176723D02*
X95924762Y-61081485D01*
X95924762Y-61081485D02*
X96020000Y-61033866D01*
X96020000Y-61033866D02*
X96258095Y-61033866D01*
X96258095Y-61033866D02*
X96353333Y-60986247D01*
X97258095Y-61367200D02*
X97162857Y-61414819D01*
X97162857Y-61414819D02*
X96972381Y-61414819D01*
X96972381Y-61414819D02*
X96877143Y-61367200D01*
X96877143Y-61367200D02*
X96829524Y-61319580D01*
X96829524Y-61319580D02*
X96781905Y-61224342D01*
X96781905Y-61224342D02*
X96781905Y-60938628D01*
X96781905Y-60938628D02*
X96829524Y-60843390D01*
X96829524Y-60843390D02*
X96877143Y-60795771D01*
X96877143Y-60795771D02*
X96972381Y-60748152D01*
X96972381Y-60748152D02*
X97162857Y-60748152D01*
X97162857Y-60748152D02*
X97258095Y-60795771D01*
X97543810Y-60748152D02*
X97924762Y-60748152D01*
X97686667Y-60414819D02*
X97686667Y-61271961D01*
X97686667Y-61271961D02*
X97734286Y-61367200D01*
X97734286Y-61367200D02*
X97829524Y-61414819D01*
X97829524Y-61414819D02*
X97924762Y-61414819D01*
X99020001Y-61414819D02*
X99020001Y-60414819D01*
X99686667Y-60414819D02*
X99877143Y-60414819D01*
X99877143Y-60414819D02*
X99972381Y-60462438D01*
X99972381Y-60462438D02*
X100067619Y-60557676D01*
X100067619Y-60557676D02*
X100115238Y-60748152D01*
X100115238Y-60748152D02*
X100115238Y-61081485D01*
X100115238Y-61081485D02*
X100067619Y-61271961D01*
X100067619Y-61271961D02*
X99972381Y-61367200D01*
X99972381Y-61367200D02*
X99877143Y-61414819D01*
X99877143Y-61414819D02*
X99686667Y-61414819D01*
X99686667Y-61414819D02*
X99591429Y-61367200D01*
X99591429Y-61367200D02*
X99496191Y-61271961D01*
X99496191Y-61271961D02*
X99448572Y-61081485D01*
X99448572Y-61081485D02*
X99448572Y-60748152D01*
X99448572Y-60748152D02*
X99496191Y-60557676D01*
X99496191Y-60557676D02*
X99591429Y-60462438D01*
X99591429Y-60462438D02*
X99686667Y-60414819D01*
X100496191Y-60510057D02*
X100543810Y-60462438D01*
X100543810Y-60462438D02*
X100639048Y-60414819D01*
X100639048Y-60414819D02*
X100877143Y-60414819D01*
X100877143Y-60414819D02*
X100972381Y-60462438D01*
X100972381Y-60462438D02*
X101020000Y-60510057D01*
X101020000Y-60510057D02*
X101067619Y-60605295D01*
X101067619Y-60605295D02*
X101067619Y-60700533D01*
X101067619Y-60700533D02*
X101020000Y-60843390D01*
X101020000Y-60843390D02*
X100448572Y-61414819D01*
X100448572Y-61414819D02*
X101067619Y-61414819D01*
X101400953Y-60414819D02*
X102020000Y-60414819D01*
X102020000Y-60414819D02*
X101686667Y-60795771D01*
X101686667Y-60795771D02*
X101829524Y-60795771D01*
X101829524Y-60795771D02*
X101924762Y-60843390D01*
X101924762Y-60843390D02*
X101972381Y-60891009D01*
X101972381Y-60891009D02*
X102020000Y-60986247D01*
X102020000Y-60986247D02*
X102020000Y-61224342D01*
X102020000Y-61224342D02*
X101972381Y-61319580D01*
X101972381Y-61319580D02*
X101924762Y-61367200D01*
X101924762Y-61367200D02*
X101829524Y-61414819D01*
X101829524Y-61414819D02*
X101543810Y-61414819D01*
X101543810Y-61414819D02*
X101448572Y-61367200D01*
X101448572Y-61367200D02*
X101400953Y-61319580D01*
X91329523Y-62501009D02*
X91472380Y-62548628D01*
X91472380Y-62548628D02*
X91519999Y-62596247D01*
X91519999Y-62596247D02*
X91567618Y-62691485D01*
X91567618Y-62691485D02*
X91567618Y-62834342D01*
X91567618Y-62834342D02*
X91519999Y-62929580D01*
X91519999Y-62929580D02*
X91472380Y-62977200D01*
X91472380Y-62977200D02*
X91377142Y-63024819D01*
X91377142Y-63024819D02*
X90996190Y-63024819D01*
X90996190Y-63024819D02*
X90996190Y-62024819D01*
X90996190Y-62024819D02*
X91329523Y-62024819D01*
X91329523Y-62024819D02*
X91424761Y-62072438D01*
X91424761Y-62072438D02*
X91472380Y-62120057D01*
X91472380Y-62120057D02*
X91519999Y-62215295D01*
X91519999Y-62215295D02*
X91519999Y-62310533D01*
X91519999Y-62310533D02*
X91472380Y-62405771D01*
X91472380Y-62405771D02*
X91424761Y-62453390D01*
X91424761Y-62453390D02*
X91329523Y-62501009D01*
X91329523Y-62501009D02*
X90996190Y-62501009D01*
X91758095Y-63120057D02*
X92519999Y-63120057D01*
X93186666Y-62977200D02*
X93091428Y-63024819D01*
X93091428Y-63024819D02*
X92900952Y-63024819D01*
X92900952Y-63024819D02*
X92805714Y-62977200D01*
X92805714Y-62977200D02*
X92758095Y-62929580D01*
X92758095Y-62929580D02*
X92710476Y-62834342D01*
X92710476Y-62834342D02*
X92710476Y-62548628D01*
X92710476Y-62548628D02*
X92758095Y-62453390D01*
X92758095Y-62453390D02*
X92805714Y-62405771D01*
X92805714Y-62405771D02*
X92900952Y-62358152D01*
X92900952Y-62358152D02*
X93091428Y-62358152D01*
X93091428Y-62358152D02*
X93186666Y-62405771D01*
X93758095Y-63024819D02*
X93662857Y-62977200D01*
X93662857Y-62977200D02*
X93615238Y-62929580D01*
X93615238Y-62929580D02*
X93567619Y-62834342D01*
X93567619Y-62834342D02*
X93567619Y-62548628D01*
X93567619Y-62548628D02*
X93615238Y-62453390D01*
X93615238Y-62453390D02*
X93662857Y-62405771D01*
X93662857Y-62405771D02*
X93758095Y-62358152D01*
X93758095Y-62358152D02*
X93900952Y-62358152D01*
X93900952Y-62358152D02*
X93996190Y-62405771D01*
X93996190Y-62405771D02*
X94043809Y-62453390D01*
X94043809Y-62453390D02*
X94091428Y-62548628D01*
X94091428Y-62548628D02*
X94091428Y-62834342D01*
X94091428Y-62834342D02*
X94043809Y-62929580D01*
X94043809Y-62929580D02*
X93996190Y-62977200D01*
X93996190Y-62977200D02*
X93900952Y-63024819D01*
X93900952Y-63024819D02*
X93758095Y-63024819D01*
X94520000Y-62358152D02*
X94520000Y-63024819D01*
X94520000Y-62453390D02*
X94567619Y-62405771D01*
X94567619Y-62405771D02*
X94662857Y-62358152D01*
X94662857Y-62358152D02*
X94805714Y-62358152D01*
X94805714Y-62358152D02*
X94900952Y-62405771D01*
X94900952Y-62405771D02*
X94948571Y-62501009D01*
X94948571Y-62501009D02*
X94948571Y-63024819D01*
X95281905Y-62358152D02*
X95662857Y-62358152D01*
X95424762Y-62024819D02*
X95424762Y-62881961D01*
X95424762Y-62881961D02*
X95472381Y-62977200D01*
X95472381Y-62977200D02*
X95567619Y-63024819D01*
X95567619Y-63024819D02*
X95662857Y-63024819D01*
X96424762Y-63024819D02*
X96424762Y-62501009D01*
X96424762Y-62501009D02*
X96377143Y-62405771D01*
X96377143Y-62405771D02*
X96281905Y-62358152D01*
X96281905Y-62358152D02*
X96091429Y-62358152D01*
X96091429Y-62358152D02*
X95996191Y-62405771D01*
X96424762Y-62977200D02*
X96329524Y-63024819D01*
X96329524Y-63024819D02*
X96091429Y-63024819D01*
X96091429Y-63024819D02*
X95996191Y-62977200D01*
X95996191Y-62977200D02*
X95948572Y-62881961D01*
X95948572Y-62881961D02*
X95948572Y-62786723D01*
X95948572Y-62786723D02*
X95996191Y-62691485D01*
X95996191Y-62691485D02*
X96091429Y-62643866D01*
X96091429Y-62643866D02*
X96329524Y-62643866D01*
X96329524Y-62643866D02*
X96424762Y-62596247D01*
X97329524Y-62977200D02*
X97234286Y-63024819D01*
X97234286Y-63024819D02*
X97043810Y-63024819D01*
X97043810Y-63024819D02*
X96948572Y-62977200D01*
X96948572Y-62977200D02*
X96900953Y-62929580D01*
X96900953Y-62929580D02*
X96853334Y-62834342D01*
X96853334Y-62834342D02*
X96853334Y-62548628D01*
X96853334Y-62548628D02*
X96900953Y-62453390D01*
X96900953Y-62453390D02*
X96948572Y-62405771D01*
X96948572Y-62405771D02*
X97043810Y-62358152D01*
X97043810Y-62358152D02*
X97234286Y-62358152D01*
X97234286Y-62358152D02*
X97329524Y-62405771D01*
X97615239Y-62358152D02*
X97996191Y-62358152D01*
X97758096Y-62024819D02*
X97758096Y-62881961D01*
X97758096Y-62881961D02*
X97805715Y-62977200D01*
X97805715Y-62977200D02*
X97900953Y-63024819D01*
X97900953Y-63024819D02*
X97996191Y-63024819D01*
X99091430Y-63024819D02*
X99091430Y-62024819D01*
X99758096Y-62024819D02*
X99948572Y-62024819D01*
X99948572Y-62024819D02*
X100043810Y-62072438D01*
X100043810Y-62072438D02*
X100139048Y-62167676D01*
X100139048Y-62167676D02*
X100186667Y-62358152D01*
X100186667Y-62358152D02*
X100186667Y-62691485D01*
X100186667Y-62691485D02*
X100139048Y-62881961D01*
X100139048Y-62881961D02*
X100043810Y-62977200D01*
X100043810Y-62977200D02*
X99948572Y-63024819D01*
X99948572Y-63024819D02*
X99758096Y-63024819D01*
X99758096Y-63024819D02*
X99662858Y-62977200D01*
X99662858Y-62977200D02*
X99567620Y-62881961D01*
X99567620Y-62881961D02*
X99520001Y-62691485D01*
X99520001Y-62691485D02*
X99520001Y-62358152D01*
X99520001Y-62358152D02*
X99567620Y-62167676D01*
X99567620Y-62167676D02*
X99662858Y-62072438D01*
X99662858Y-62072438D02*
X99758096Y-62024819D01*
X100520001Y-62024819D02*
X101139048Y-62024819D01*
X101139048Y-62024819D02*
X100805715Y-62405771D01*
X100805715Y-62405771D02*
X100948572Y-62405771D01*
X100948572Y-62405771D02*
X101043810Y-62453390D01*
X101043810Y-62453390D02*
X101091429Y-62501009D01*
X101091429Y-62501009D02*
X101139048Y-62596247D01*
X101139048Y-62596247D02*
X101139048Y-62834342D01*
X101139048Y-62834342D02*
X101091429Y-62929580D01*
X101091429Y-62929580D02*
X101043810Y-62977200D01*
X101043810Y-62977200D02*
X100948572Y-63024819D01*
X100948572Y-63024819D02*
X100662858Y-63024819D01*
X100662858Y-63024819D02*
X100567620Y-62977200D01*
X100567620Y-62977200D02*
X100520001Y-62929580D01*
X101520001Y-62120057D02*
X101567620Y-62072438D01*
X101567620Y-62072438D02*
X101662858Y-62024819D01*
X101662858Y-62024819D02*
X101900953Y-62024819D01*
X101900953Y-62024819D02*
X101996191Y-62072438D01*
X101996191Y-62072438D02*
X102043810Y-62120057D01*
X102043810Y-62120057D02*
X102091429Y-62215295D01*
X102091429Y-62215295D02*
X102091429Y-62310533D01*
X102091429Y-62310533D02*
X102043810Y-62453390D01*
X102043810Y-62453390D02*
X101472382Y-63024819D01*
X101472382Y-63024819D02*
X102091429Y-63024819D01*
X92250000Y-94264819D02*
X92250000Y-93264819D01*
X92250000Y-93264819D02*
X92821428Y-94264819D01*
X92821428Y-94264819D02*
X92821428Y-93264819D01*
X93678571Y-94217200D02*
X93583333Y-94264819D01*
X93583333Y-94264819D02*
X93392857Y-94264819D01*
X93392857Y-94264819D02*
X93297619Y-94217200D01*
X93297619Y-94217200D02*
X93250000Y-94121961D01*
X93250000Y-94121961D02*
X93250000Y-93741009D01*
X93250000Y-93741009D02*
X93297619Y-93645771D01*
X93297619Y-93645771D02*
X93392857Y-93598152D01*
X93392857Y-93598152D02*
X93583333Y-93598152D01*
X93583333Y-93598152D02*
X93678571Y-93645771D01*
X93678571Y-93645771D02*
X93726190Y-93741009D01*
X93726190Y-93741009D02*
X93726190Y-93836247D01*
X93726190Y-93836247D02*
X93250000Y-93931485D01*
X94297619Y-94264819D02*
X94202381Y-94217200D01*
X94202381Y-94217200D02*
X94154762Y-94169580D01*
X94154762Y-94169580D02*
X94107143Y-94074342D01*
X94107143Y-94074342D02*
X94107143Y-93788628D01*
X94107143Y-93788628D02*
X94154762Y-93693390D01*
X94154762Y-93693390D02*
X94202381Y-93645771D01*
X94202381Y-93645771D02*
X94297619Y-93598152D01*
X94297619Y-93598152D02*
X94440476Y-93598152D01*
X94440476Y-93598152D02*
X94535714Y-93645771D01*
X94535714Y-93645771D02*
X94583333Y-93693390D01*
X94583333Y-93693390D02*
X94630952Y-93788628D01*
X94630952Y-93788628D02*
X94630952Y-94074342D01*
X94630952Y-94074342D02*
X94583333Y-94169580D01*
X94583333Y-94169580D02*
X94535714Y-94217200D01*
X94535714Y-94217200D02*
X94440476Y-94264819D01*
X94440476Y-94264819D02*
X94297619Y-94264819D01*
X95059524Y-94264819D02*
X95059524Y-93264819D01*
X95059524Y-93264819D02*
X95440476Y-93264819D01*
X95440476Y-93264819D02*
X95535714Y-93312438D01*
X95535714Y-93312438D02*
X95583333Y-93360057D01*
X95583333Y-93360057D02*
X95630952Y-93455295D01*
X95630952Y-93455295D02*
X95630952Y-93598152D01*
X95630952Y-93598152D02*
X95583333Y-93693390D01*
X95583333Y-93693390D02*
X95535714Y-93741009D01*
X95535714Y-93741009D02*
X95440476Y-93788628D01*
X95440476Y-93788628D02*
X95059524Y-93788628D01*
X96059524Y-94264819D02*
X96059524Y-93598152D01*
X96059524Y-93264819D02*
X96011905Y-93312438D01*
X96011905Y-93312438D02*
X96059524Y-93360057D01*
X96059524Y-93360057D02*
X96107143Y-93312438D01*
X96107143Y-93312438D02*
X96059524Y-93264819D01*
X96059524Y-93264819D02*
X96059524Y-93360057D01*
X96440476Y-94264819D02*
X96964285Y-93598152D01*
X96440476Y-93598152D02*
X96964285Y-94264819D01*
X97726190Y-94217200D02*
X97630952Y-94264819D01*
X97630952Y-94264819D02*
X97440476Y-94264819D01*
X97440476Y-94264819D02*
X97345238Y-94217200D01*
X97345238Y-94217200D02*
X97297619Y-94121961D01*
X97297619Y-94121961D02*
X97297619Y-93741009D01*
X97297619Y-93741009D02*
X97345238Y-93645771D01*
X97345238Y-93645771D02*
X97440476Y-93598152D01*
X97440476Y-93598152D02*
X97630952Y-93598152D01*
X97630952Y-93598152D02*
X97726190Y-93645771D01*
X97726190Y-93645771D02*
X97773809Y-93741009D01*
X97773809Y-93741009D02*
X97773809Y-93836247D01*
X97773809Y-93836247D02*
X97297619Y-93931485D01*
X98345238Y-94264819D02*
X98250000Y-94217200D01*
X98250000Y-94217200D02*
X98202381Y-94121961D01*
X98202381Y-94121961D02*
X98202381Y-93264819D01*
X93773810Y-95874819D02*
X93773810Y-94874819D01*
X94440476Y-94874819D02*
X94630952Y-94874819D01*
X94630952Y-94874819D02*
X94726190Y-94922438D01*
X94726190Y-94922438D02*
X94821428Y-95017676D01*
X94821428Y-95017676D02*
X94869047Y-95208152D01*
X94869047Y-95208152D02*
X94869047Y-95541485D01*
X94869047Y-95541485D02*
X94821428Y-95731961D01*
X94821428Y-95731961D02*
X94726190Y-95827200D01*
X94726190Y-95827200D02*
X94630952Y-95874819D01*
X94630952Y-95874819D02*
X94440476Y-95874819D01*
X94440476Y-95874819D02*
X94345238Y-95827200D01*
X94345238Y-95827200D02*
X94250000Y-95731961D01*
X94250000Y-95731961D02*
X94202381Y-95541485D01*
X94202381Y-95541485D02*
X94202381Y-95208152D01*
X94202381Y-95208152D02*
X94250000Y-95017676D01*
X94250000Y-95017676D02*
X94345238Y-94922438D01*
X94345238Y-94922438D02*
X94440476Y-94874819D01*
X95250000Y-94970057D02*
X95297619Y-94922438D01*
X95297619Y-94922438D02*
X95392857Y-94874819D01*
X95392857Y-94874819D02*
X95630952Y-94874819D01*
X95630952Y-94874819D02*
X95726190Y-94922438D01*
X95726190Y-94922438D02*
X95773809Y-94970057D01*
X95773809Y-94970057D02*
X95821428Y-95065295D01*
X95821428Y-95065295D02*
X95821428Y-95160533D01*
X95821428Y-95160533D02*
X95773809Y-95303390D01*
X95773809Y-95303390D02*
X95202381Y-95874819D01*
X95202381Y-95874819D02*
X95821428Y-95874819D01*
X96678571Y-94874819D02*
X96488095Y-94874819D01*
X96488095Y-94874819D02*
X96392857Y-94922438D01*
X96392857Y-94922438D02*
X96345238Y-94970057D01*
X96345238Y-94970057D02*
X96250000Y-95112914D01*
X96250000Y-95112914D02*
X96202381Y-95303390D01*
X96202381Y-95303390D02*
X96202381Y-95684342D01*
X96202381Y-95684342D02*
X96250000Y-95779580D01*
X96250000Y-95779580D02*
X96297619Y-95827200D01*
X96297619Y-95827200D02*
X96392857Y-95874819D01*
X96392857Y-95874819D02*
X96583333Y-95874819D01*
X96583333Y-95874819D02*
X96678571Y-95827200D01*
X96678571Y-95827200D02*
X96726190Y-95779580D01*
X96726190Y-95779580D02*
X96773809Y-95684342D01*
X96773809Y-95684342D02*
X96773809Y-95446247D01*
X96773809Y-95446247D02*
X96726190Y-95351009D01*
X96726190Y-95351009D02*
X96678571Y-95303390D01*
X96678571Y-95303390D02*
X96583333Y-95255771D01*
X96583333Y-95255771D02*
X96392857Y-95255771D01*
X96392857Y-95255771D02*
X96297619Y-95303390D01*
X96297619Y-95303390D02*
X96250000Y-95351009D01*
X96250000Y-95351009D02*
X96202381Y-95446247D01*
D11*
X131350671Y-97717141D02*
X131422100Y-97788569D01*
X131422100Y-97788569D02*
X131493528Y-98002855D01*
X131493528Y-98002855D02*
X131493528Y-98145712D01*
X131493528Y-98145712D02*
X131422100Y-98359998D01*
X131422100Y-98359998D02*
X131279242Y-98502855D01*
X131279242Y-98502855D02*
X131136385Y-98574284D01*
X131136385Y-98574284D02*
X130850671Y-98645712D01*
X130850671Y-98645712D02*
X130636385Y-98645712D01*
X130636385Y-98645712D02*
X130350671Y-98574284D01*
X130350671Y-98574284D02*
X130207814Y-98502855D01*
X130207814Y-98502855D02*
X130064957Y-98359998D01*
X130064957Y-98359998D02*
X129993528Y-98145712D01*
X129993528Y-98145712D02*
X129993528Y-98002855D01*
X129993528Y-98002855D02*
X130064957Y-97788569D01*
X130064957Y-97788569D02*
X130136385Y-97717141D01*
X130707814Y-96574284D02*
X130779242Y-96359998D01*
X130779242Y-96359998D02*
X130850671Y-96288569D01*
X130850671Y-96288569D02*
X130993528Y-96217141D01*
X130993528Y-96217141D02*
X131207814Y-96217141D01*
X131207814Y-96217141D02*
X131350671Y-96288569D01*
X131350671Y-96288569D02*
X131422100Y-96359998D01*
X131422100Y-96359998D02*
X131493528Y-96502855D01*
X131493528Y-96502855D02*
X131493528Y-97074284D01*
X131493528Y-97074284D02*
X129993528Y-97074284D01*
X129993528Y-97074284D02*
X129993528Y-96574284D01*
X129993528Y-96574284D02*
X130064957Y-96431427D01*
X130064957Y-96431427D02*
X130136385Y-96359998D01*
X130136385Y-96359998D02*
X130279242Y-96288569D01*
X130279242Y-96288569D02*
X130422100Y-96288569D01*
X130422100Y-96288569D02*
X130564957Y-96359998D01*
X130564957Y-96359998D02*
X130636385Y-96431427D01*
X130636385Y-96431427D02*
X130707814Y-96574284D01*
X130707814Y-96574284D02*
X130707814Y-97074284D01*
X131493528Y-95574284D02*
X129993528Y-95574284D01*
X130707814Y-94359998D02*
X130707814Y-94859998D01*
X131493528Y-94859998D02*
X129993528Y-94859998D01*
X129993528Y-94859998D02*
X129993528Y-94145712D01*
X130922100Y-93574284D02*
X130922100Y-92431427D01*
X130136385Y-91788569D02*
X130064957Y-91717141D01*
X130064957Y-91717141D02*
X129993528Y-91574284D01*
X129993528Y-91574284D02*
X129993528Y-91217141D01*
X129993528Y-91217141D02*
X130064957Y-91074284D01*
X130064957Y-91074284D02*
X130136385Y-91002855D01*
X130136385Y-91002855D02*
X130279242Y-90931426D01*
X130279242Y-90931426D02*
X130422100Y-90931426D01*
X130422100Y-90931426D02*
X130636385Y-91002855D01*
X130636385Y-91002855D02*
X131493528Y-91859998D01*
X131493528Y-91859998D02*
X131493528Y-90931426D01*
X129993528Y-90002855D02*
X129993528Y-89859998D01*
X129993528Y-89859998D02*
X130064957Y-89717141D01*
X130064957Y-89717141D02*
X130136385Y-89645713D01*
X130136385Y-89645713D02*
X130279242Y-89574284D01*
X130279242Y-89574284D02*
X130564957Y-89502855D01*
X130564957Y-89502855D02*
X130922100Y-89502855D01*
X130922100Y-89502855D02*
X131207814Y-89574284D01*
X131207814Y-89574284D02*
X131350671Y-89645713D01*
X131350671Y-89645713D02*
X131422100Y-89717141D01*
X131422100Y-89717141D02*
X131493528Y-89859998D01*
X131493528Y-89859998D02*
X131493528Y-90002855D01*
X131493528Y-90002855D02*
X131422100Y-90145713D01*
X131422100Y-90145713D02*
X131350671Y-90217141D01*
X131350671Y-90217141D02*
X131207814Y-90288570D01*
X131207814Y-90288570D02*
X130922100Y-90359998D01*
X130922100Y-90359998D02*
X130564957Y-90359998D01*
X130564957Y-90359998D02*
X130279242Y-90288570D01*
X130279242Y-90288570D02*
X130136385Y-90217141D01*
X130136385Y-90217141D02*
X130064957Y-90145713D01*
X130064957Y-90145713D02*
X129993528Y-90002855D01*
X130136385Y-88931427D02*
X130064957Y-88859999D01*
X130064957Y-88859999D02*
X129993528Y-88717142D01*
X129993528Y-88717142D02*
X129993528Y-88359999D01*
X129993528Y-88359999D02*
X130064957Y-88217142D01*
X130064957Y-88217142D02*
X130136385Y-88145713D01*
X130136385Y-88145713D02*
X130279242Y-88074284D01*
X130279242Y-88074284D02*
X130422100Y-88074284D01*
X130422100Y-88074284D02*
X130636385Y-88145713D01*
X130636385Y-88145713D02*
X131493528Y-89002856D01*
X131493528Y-89002856D02*
X131493528Y-88074284D01*
X131493528Y-86645713D02*
X131493528Y-87502856D01*
X131493528Y-87074285D02*
X129993528Y-87074285D01*
X129993528Y-87074285D02*
X130207814Y-87217142D01*
X130207814Y-87217142D02*
X130350671Y-87359999D01*
X130350671Y-87359999D02*
X130422100Y-87502856D01*
X130922100Y-86002857D02*
X130922100Y-84860000D01*
X130136385Y-84217142D02*
X130064957Y-84145714D01*
X130064957Y-84145714D02*
X129993528Y-84002857D01*
X129993528Y-84002857D02*
X129993528Y-83645714D01*
X129993528Y-83645714D02*
X130064957Y-83502857D01*
X130064957Y-83502857D02*
X130136385Y-83431428D01*
X130136385Y-83431428D02*
X130279242Y-83359999D01*
X130279242Y-83359999D02*
X130422100Y-83359999D01*
X130422100Y-83359999D02*
X130636385Y-83431428D01*
X130636385Y-83431428D02*
X131493528Y-84288571D01*
X131493528Y-84288571D02*
X131493528Y-83359999D01*
X131636385Y-83074286D02*
X131636385Y-81931428D01*
X130493528Y-81717143D02*
X131493528Y-81360000D01*
X131493528Y-81360000D02*
X130493528Y-81002857D01*
X130136385Y-80502857D02*
X130064957Y-80431429D01*
X130064957Y-80431429D02*
X129993528Y-80288572D01*
X129993528Y-80288572D02*
X129993528Y-79931429D01*
X129993528Y-79931429D02*
X130064957Y-79788572D01*
X130064957Y-79788572D02*
X130136385Y-79717143D01*
X130136385Y-79717143D02*
X130279242Y-79645714D01*
X130279242Y-79645714D02*
X130422100Y-79645714D01*
X130422100Y-79645714D02*
X130636385Y-79717143D01*
X130636385Y-79717143D02*
X131493528Y-80574286D01*
X131493528Y-80574286D02*
X131493528Y-79645714D01*
X131493528Y-77074286D02*
X131493528Y-77931429D01*
X131493528Y-77502858D02*
X129993528Y-77502858D01*
X129993528Y-77502858D02*
X130207814Y-77645715D01*
X130207814Y-77645715D02*
X130350671Y-77788572D01*
X130350671Y-77788572D02*
X130422100Y-77931429D01*
X129922100Y-75360001D02*
X131850671Y-76645715D01*
X130136385Y-74931429D02*
X130064957Y-74860001D01*
X130064957Y-74860001D02*
X129993528Y-74717144D01*
X129993528Y-74717144D02*
X129993528Y-74360001D01*
X129993528Y-74360001D02*
X130064957Y-74217144D01*
X130064957Y-74217144D02*
X130136385Y-74145715D01*
X130136385Y-74145715D02*
X130279242Y-74074286D01*
X130279242Y-74074286D02*
X130422100Y-74074286D01*
X130422100Y-74074286D02*
X130636385Y-74145715D01*
X130636385Y-74145715D02*
X131493528Y-75002858D01*
X131493528Y-75002858D02*
X131493528Y-74074286D01*
D10*
X116045952Y-28972800D02*
X115950714Y-28925180D01*
X115950714Y-28925180D02*
X115760238Y-28925180D01*
X115760238Y-28925180D02*
X115665000Y-28972800D01*
X115665000Y-28972800D02*
X115617381Y-29068038D01*
X115617381Y-29068038D02*
X115617381Y-29115657D01*
X115617381Y-29115657D02*
X115665000Y-29210895D01*
X115665000Y-29210895D02*
X115760238Y-29258514D01*
X115760238Y-29258514D02*
X115903095Y-29258514D01*
X115903095Y-29258514D02*
X115998333Y-29306133D01*
X115998333Y-29306133D02*
X116045952Y-29401371D01*
X116045952Y-29401371D02*
X116045952Y-29448990D01*
X116045952Y-29448990D02*
X115998333Y-29544228D01*
X115998333Y-29544228D02*
X115903095Y-29591847D01*
X115903095Y-29591847D02*
X115760238Y-29591847D01*
X115760238Y-29591847D02*
X115665000Y-29544228D01*
X114807857Y-28972800D02*
X114903095Y-28925180D01*
X114903095Y-28925180D02*
X115093571Y-28925180D01*
X115093571Y-28925180D02*
X115188809Y-28972800D01*
X115188809Y-28972800D02*
X115236428Y-29068038D01*
X115236428Y-29068038D02*
X115236428Y-29448990D01*
X115236428Y-29448990D02*
X115188809Y-29544228D01*
X115188809Y-29544228D02*
X115093571Y-29591847D01*
X115093571Y-29591847D02*
X114903095Y-29591847D01*
X114903095Y-29591847D02*
X114807857Y-29544228D01*
X114807857Y-29544228D02*
X114760238Y-29448990D01*
X114760238Y-29448990D02*
X114760238Y-29353752D01*
X114760238Y-29353752D02*
X115236428Y-29258514D01*
X114331666Y-28925180D02*
X114331666Y-29591847D01*
X114331666Y-29401371D02*
X114284047Y-29496609D01*
X114284047Y-29496609D02*
X114236428Y-29544228D01*
X114236428Y-29544228D02*
X114141190Y-29591847D01*
X114141190Y-29591847D02*
X114045952Y-29591847D01*
X113712618Y-28925180D02*
X113712618Y-29591847D01*
X113712618Y-29925180D02*
X113760237Y-29877561D01*
X113760237Y-29877561D02*
X113712618Y-29829942D01*
X113712618Y-29829942D02*
X113664999Y-29877561D01*
X113664999Y-29877561D02*
X113712618Y-29925180D01*
X113712618Y-29925180D02*
X113712618Y-29829942D01*
X112807857Y-28925180D02*
X112807857Y-29448990D01*
X112807857Y-29448990D02*
X112855476Y-29544228D01*
X112855476Y-29544228D02*
X112950714Y-29591847D01*
X112950714Y-29591847D02*
X113141190Y-29591847D01*
X113141190Y-29591847D02*
X113236428Y-29544228D01*
X112807857Y-28972800D02*
X112903095Y-28925180D01*
X112903095Y-28925180D02*
X113141190Y-28925180D01*
X113141190Y-28925180D02*
X113236428Y-28972800D01*
X113236428Y-28972800D02*
X113284047Y-29068038D01*
X113284047Y-29068038D02*
X113284047Y-29163276D01*
X113284047Y-29163276D02*
X113236428Y-29258514D01*
X113236428Y-29258514D02*
X113141190Y-29306133D01*
X113141190Y-29306133D02*
X112903095Y-29306133D01*
X112903095Y-29306133D02*
X112807857Y-29353752D01*
X112188809Y-28925180D02*
X112284047Y-28972800D01*
X112284047Y-28972800D02*
X112331666Y-29068038D01*
X112331666Y-29068038D02*
X112331666Y-29925180D01*
X111617380Y-29925180D02*
X111522142Y-29925180D01*
X111522142Y-29925180D02*
X111426904Y-29877561D01*
X111426904Y-29877561D02*
X111379285Y-29829942D01*
X111379285Y-29829942D02*
X111331666Y-29734704D01*
X111331666Y-29734704D02*
X111284047Y-29544228D01*
X111284047Y-29544228D02*
X111284047Y-29306133D01*
X111284047Y-29306133D02*
X111331666Y-29115657D01*
X111331666Y-29115657D02*
X111379285Y-29020419D01*
X111379285Y-29020419D02*
X111426904Y-28972800D01*
X111426904Y-28972800D02*
X111522142Y-28925180D01*
X111522142Y-28925180D02*
X111617380Y-28925180D01*
X111617380Y-28925180D02*
X111712618Y-28972800D01*
X111712618Y-28972800D02*
X111760237Y-29020419D01*
X111760237Y-29020419D02*
X111807856Y-29115657D01*
X111807856Y-29115657D02*
X111855475Y-29306133D01*
X111855475Y-29306133D02*
X111855475Y-29544228D01*
X111855475Y-29544228D02*
X111807856Y-29734704D01*
X111807856Y-29734704D02*
X111760237Y-29829942D01*
X111760237Y-29829942D02*
X111712618Y-29877561D01*
X111712618Y-29877561D02*
X111617380Y-29925180D01*
X118307857Y-27315180D02*
X118641190Y-27791371D01*
X118879285Y-27315180D02*
X118879285Y-28315180D01*
X118879285Y-28315180D02*
X118498333Y-28315180D01*
X118498333Y-28315180D02*
X118403095Y-28267561D01*
X118403095Y-28267561D02*
X118355476Y-28219942D01*
X118355476Y-28219942D02*
X118307857Y-28124704D01*
X118307857Y-28124704D02*
X118307857Y-27981847D01*
X118307857Y-27981847D02*
X118355476Y-27886609D01*
X118355476Y-27886609D02*
X118403095Y-27838990D01*
X118403095Y-27838990D02*
X118498333Y-27791371D01*
X118498333Y-27791371D02*
X118879285Y-27791371D01*
X117974523Y-28315180D02*
X117307857Y-27315180D01*
X117307857Y-28315180D02*
X117974523Y-27315180D01*
X116164999Y-27315180D02*
X116164999Y-28315180D01*
X115498333Y-28315180D02*
X115307857Y-28315180D01*
X115307857Y-28315180D02*
X115212619Y-28267561D01*
X115212619Y-28267561D02*
X115117381Y-28172323D01*
X115117381Y-28172323D02*
X115069762Y-27981847D01*
X115069762Y-27981847D02*
X115069762Y-27648514D01*
X115069762Y-27648514D02*
X115117381Y-27458038D01*
X115117381Y-27458038D02*
X115212619Y-27362800D01*
X115212619Y-27362800D02*
X115307857Y-27315180D01*
X115307857Y-27315180D02*
X115498333Y-27315180D01*
X115498333Y-27315180D02*
X115593571Y-27362800D01*
X115593571Y-27362800D02*
X115688809Y-27458038D01*
X115688809Y-27458038D02*
X115736428Y-27648514D01*
X115736428Y-27648514D02*
X115736428Y-27981847D01*
X115736428Y-27981847D02*
X115688809Y-28172323D01*
X115688809Y-28172323D02*
X115593571Y-28267561D01*
X115593571Y-28267561D02*
X115498333Y-28315180D01*
X114736428Y-28315180D02*
X114117381Y-28315180D01*
X114117381Y-28315180D02*
X114450714Y-27934228D01*
X114450714Y-27934228D02*
X114307857Y-27934228D01*
X114307857Y-27934228D02*
X114212619Y-27886609D01*
X114212619Y-27886609D02*
X114165000Y-27838990D01*
X114165000Y-27838990D02*
X114117381Y-27743752D01*
X114117381Y-27743752D02*
X114117381Y-27505657D01*
X114117381Y-27505657D02*
X114165000Y-27410419D01*
X114165000Y-27410419D02*
X114212619Y-27362800D01*
X114212619Y-27362800D02*
X114307857Y-27315180D01*
X114307857Y-27315180D02*
X114593571Y-27315180D01*
X114593571Y-27315180D02*
X114688809Y-27362800D01*
X114688809Y-27362800D02*
X114736428Y-27410419D01*
X113069761Y-28315180D02*
X112498333Y-28315180D01*
X112784047Y-27315180D02*
X112784047Y-28315180D01*
X112260237Y-28315180D02*
X111593571Y-27315180D01*
X111593571Y-28315180D02*
X112260237Y-27315180D01*
X110450713Y-27315180D02*
X110450713Y-28315180D01*
X109784047Y-28315180D02*
X109593571Y-28315180D01*
X109593571Y-28315180D02*
X109498333Y-28267561D01*
X109498333Y-28267561D02*
X109403095Y-28172323D01*
X109403095Y-28172323D02*
X109355476Y-27981847D01*
X109355476Y-27981847D02*
X109355476Y-27648514D01*
X109355476Y-27648514D02*
X109403095Y-27458038D01*
X109403095Y-27458038D02*
X109498333Y-27362800D01*
X109498333Y-27362800D02*
X109593571Y-27315180D01*
X109593571Y-27315180D02*
X109784047Y-27315180D01*
X109784047Y-27315180D02*
X109879285Y-27362800D01*
X109879285Y-27362800D02*
X109974523Y-27458038D01*
X109974523Y-27458038D02*
X110022142Y-27648514D01*
X110022142Y-27648514D02*
X110022142Y-27981847D01*
X110022142Y-27981847D02*
X109974523Y-28172323D01*
X109974523Y-28172323D02*
X109879285Y-28267561D01*
X109879285Y-28267561D02*
X109784047Y-28315180D01*
X108403095Y-27315180D02*
X108974523Y-27315180D01*
X108688809Y-27315180D02*
X108688809Y-28315180D01*
X108688809Y-28315180D02*
X108784047Y-28172323D01*
X108784047Y-28172323D02*
X108879285Y-28077085D01*
X108879285Y-28077085D02*
X108974523Y-28029466D01*
X143526428Y-72922200D02*
X143669285Y-72969819D01*
X143669285Y-72969819D02*
X143907380Y-72969819D01*
X143907380Y-72969819D02*
X144002618Y-72922200D01*
X144002618Y-72922200D02*
X144050237Y-72874580D01*
X144050237Y-72874580D02*
X144097856Y-72779342D01*
X144097856Y-72779342D02*
X144097856Y-72684104D01*
X144097856Y-72684104D02*
X144050237Y-72588866D01*
X144050237Y-72588866D02*
X144002618Y-72541247D01*
X144002618Y-72541247D02*
X143907380Y-72493628D01*
X143907380Y-72493628D02*
X143716904Y-72446009D01*
X143716904Y-72446009D02*
X143621666Y-72398390D01*
X143621666Y-72398390D02*
X143574047Y-72350771D01*
X143574047Y-72350771D02*
X143526428Y-72255533D01*
X143526428Y-72255533D02*
X143526428Y-72160295D01*
X143526428Y-72160295D02*
X143574047Y-72065057D01*
X143574047Y-72065057D02*
X143621666Y-72017438D01*
X143621666Y-72017438D02*
X143716904Y-71969819D01*
X143716904Y-71969819D02*
X143954999Y-71969819D01*
X143954999Y-71969819D02*
X144097856Y-72017438D01*
X144907380Y-72922200D02*
X144812142Y-72969819D01*
X144812142Y-72969819D02*
X144621666Y-72969819D01*
X144621666Y-72969819D02*
X144526428Y-72922200D01*
X144526428Y-72922200D02*
X144478809Y-72826961D01*
X144478809Y-72826961D02*
X144478809Y-72446009D01*
X144478809Y-72446009D02*
X144526428Y-72350771D01*
X144526428Y-72350771D02*
X144621666Y-72303152D01*
X144621666Y-72303152D02*
X144812142Y-72303152D01*
X144812142Y-72303152D02*
X144907380Y-72350771D01*
X144907380Y-72350771D02*
X144954999Y-72446009D01*
X144954999Y-72446009D02*
X144954999Y-72541247D01*
X144954999Y-72541247D02*
X144478809Y-72636485D01*
X145383571Y-72969819D02*
X145383571Y-72303152D01*
X145383571Y-72493628D02*
X145431190Y-72398390D01*
X145431190Y-72398390D02*
X145478809Y-72350771D01*
X145478809Y-72350771D02*
X145574047Y-72303152D01*
X145574047Y-72303152D02*
X145669285Y-72303152D01*
X145907381Y-72303152D02*
X146145476Y-72969819D01*
X146145476Y-72969819D02*
X146383571Y-72303152D01*
X146907381Y-72969819D02*
X146812143Y-72922200D01*
X146812143Y-72922200D02*
X146764524Y-72874580D01*
X146764524Y-72874580D02*
X146716905Y-72779342D01*
X146716905Y-72779342D02*
X146716905Y-72493628D01*
X146716905Y-72493628D02*
X146764524Y-72398390D01*
X146764524Y-72398390D02*
X146812143Y-72350771D01*
X146812143Y-72350771D02*
X146907381Y-72303152D01*
X146907381Y-72303152D02*
X147050238Y-72303152D01*
X147050238Y-72303152D02*
X147145476Y-72350771D01*
X147145476Y-72350771D02*
X147193095Y-72398390D01*
X147193095Y-72398390D02*
X147240714Y-72493628D01*
X147240714Y-72493628D02*
X147240714Y-72779342D01*
X147240714Y-72779342D02*
X147193095Y-72874580D01*
X147193095Y-72874580D02*
X147145476Y-72922200D01*
X147145476Y-72922200D02*
X147050238Y-72969819D01*
X147050238Y-72969819D02*
X146907381Y-72969819D01*
X147859762Y-71969819D02*
X147955000Y-71969819D01*
X147955000Y-71969819D02*
X148050238Y-72017438D01*
X148050238Y-72017438D02*
X148097857Y-72065057D01*
X148097857Y-72065057D02*
X148145476Y-72160295D01*
X148145476Y-72160295D02*
X148193095Y-72350771D01*
X148193095Y-72350771D02*
X148193095Y-72588866D01*
X148193095Y-72588866D02*
X148145476Y-72779342D01*
X148145476Y-72779342D02*
X148097857Y-72874580D01*
X148097857Y-72874580D02*
X148050238Y-72922200D01*
X148050238Y-72922200D02*
X147955000Y-72969819D01*
X147955000Y-72969819D02*
X147859762Y-72969819D01*
X147859762Y-72969819D02*
X147764524Y-72922200D01*
X147764524Y-72922200D02*
X147716905Y-72874580D01*
X147716905Y-72874580D02*
X147669286Y-72779342D01*
X147669286Y-72779342D02*
X147621667Y-72588866D01*
X147621667Y-72588866D02*
X147621667Y-72350771D01*
X147621667Y-72350771D02*
X147669286Y-72160295D01*
X147669286Y-72160295D02*
X147716905Y-72065057D01*
X147716905Y-72065057D02*
X147764524Y-72017438D01*
X147764524Y-72017438D02*
X147859762Y-71969819D01*
X149383572Y-72969819D02*
X149383572Y-71969819D01*
X150050238Y-71969819D02*
X150240714Y-71969819D01*
X150240714Y-71969819D02*
X150335952Y-72017438D01*
X150335952Y-72017438D02*
X150431190Y-72112676D01*
X150431190Y-72112676D02*
X150478809Y-72303152D01*
X150478809Y-72303152D02*
X150478809Y-72636485D01*
X150478809Y-72636485D02*
X150431190Y-72826961D01*
X150431190Y-72826961D02*
X150335952Y-72922200D01*
X150335952Y-72922200D02*
X150240714Y-72969819D01*
X150240714Y-72969819D02*
X150050238Y-72969819D01*
X150050238Y-72969819D02*
X149955000Y-72922200D01*
X149955000Y-72922200D02*
X149859762Y-72826961D01*
X149859762Y-72826961D02*
X149812143Y-72636485D01*
X149812143Y-72636485D02*
X149812143Y-72303152D01*
X149812143Y-72303152D02*
X149859762Y-72112676D01*
X149859762Y-72112676D02*
X149955000Y-72017438D01*
X149955000Y-72017438D02*
X150050238Y-71969819D01*
X151431190Y-72969819D02*
X150859762Y-72969819D01*
X151145476Y-72969819D02*
X151145476Y-71969819D01*
X151145476Y-71969819D02*
X151050238Y-72112676D01*
X151050238Y-72112676D02*
X150955000Y-72207914D01*
X150955000Y-72207914D02*
X150859762Y-72255533D01*
X151764524Y-71969819D02*
X152383571Y-71969819D01*
X152383571Y-71969819D02*
X152050238Y-72350771D01*
X152050238Y-72350771D02*
X152193095Y-72350771D01*
X152193095Y-72350771D02*
X152288333Y-72398390D01*
X152288333Y-72398390D02*
X152335952Y-72446009D01*
X152335952Y-72446009D02*
X152383571Y-72541247D01*
X152383571Y-72541247D02*
X152383571Y-72779342D01*
X152383571Y-72779342D02*
X152335952Y-72874580D01*
X152335952Y-72874580D02*
X152288333Y-72922200D01*
X152288333Y-72922200D02*
X152193095Y-72969819D01*
X152193095Y-72969819D02*
X151907381Y-72969819D01*
X151907381Y-72969819D02*
X151812143Y-72922200D01*
X151812143Y-72922200D02*
X151764524Y-72874580D01*
X143526428Y-74532200D02*
X143669285Y-74579819D01*
X143669285Y-74579819D02*
X143907380Y-74579819D01*
X143907380Y-74579819D02*
X144002618Y-74532200D01*
X144002618Y-74532200D02*
X144050237Y-74484580D01*
X144050237Y-74484580D02*
X144097856Y-74389342D01*
X144097856Y-74389342D02*
X144097856Y-74294104D01*
X144097856Y-74294104D02*
X144050237Y-74198866D01*
X144050237Y-74198866D02*
X144002618Y-74151247D01*
X144002618Y-74151247D02*
X143907380Y-74103628D01*
X143907380Y-74103628D02*
X143716904Y-74056009D01*
X143716904Y-74056009D02*
X143621666Y-74008390D01*
X143621666Y-74008390D02*
X143574047Y-73960771D01*
X143574047Y-73960771D02*
X143526428Y-73865533D01*
X143526428Y-73865533D02*
X143526428Y-73770295D01*
X143526428Y-73770295D02*
X143574047Y-73675057D01*
X143574047Y-73675057D02*
X143621666Y-73627438D01*
X143621666Y-73627438D02*
X143716904Y-73579819D01*
X143716904Y-73579819D02*
X143954999Y-73579819D01*
X143954999Y-73579819D02*
X144097856Y-73627438D01*
X144907380Y-74532200D02*
X144812142Y-74579819D01*
X144812142Y-74579819D02*
X144621666Y-74579819D01*
X144621666Y-74579819D02*
X144526428Y-74532200D01*
X144526428Y-74532200D02*
X144478809Y-74436961D01*
X144478809Y-74436961D02*
X144478809Y-74056009D01*
X144478809Y-74056009D02*
X144526428Y-73960771D01*
X144526428Y-73960771D02*
X144621666Y-73913152D01*
X144621666Y-73913152D02*
X144812142Y-73913152D01*
X144812142Y-73913152D02*
X144907380Y-73960771D01*
X144907380Y-73960771D02*
X144954999Y-74056009D01*
X144954999Y-74056009D02*
X144954999Y-74151247D01*
X144954999Y-74151247D02*
X144478809Y-74246485D01*
X145383571Y-74579819D02*
X145383571Y-73913152D01*
X145383571Y-74103628D02*
X145431190Y-74008390D01*
X145431190Y-74008390D02*
X145478809Y-73960771D01*
X145478809Y-73960771D02*
X145574047Y-73913152D01*
X145574047Y-73913152D02*
X145669285Y-73913152D01*
X145907381Y-73913152D02*
X146145476Y-74579819D01*
X146145476Y-74579819D02*
X146383571Y-73913152D01*
X146907381Y-74579819D02*
X146812143Y-74532200D01*
X146812143Y-74532200D02*
X146764524Y-74484580D01*
X146764524Y-74484580D02*
X146716905Y-74389342D01*
X146716905Y-74389342D02*
X146716905Y-74103628D01*
X146716905Y-74103628D02*
X146764524Y-74008390D01*
X146764524Y-74008390D02*
X146812143Y-73960771D01*
X146812143Y-73960771D02*
X146907381Y-73913152D01*
X146907381Y-73913152D02*
X147050238Y-73913152D01*
X147050238Y-73913152D02*
X147145476Y-73960771D01*
X147145476Y-73960771D02*
X147193095Y-74008390D01*
X147193095Y-74008390D02*
X147240714Y-74103628D01*
X147240714Y-74103628D02*
X147240714Y-74389342D01*
X147240714Y-74389342D02*
X147193095Y-74484580D01*
X147193095Y-74484580D02*
X147145476Y-74532200D01*
X147145476Y-74532200D02*
X147050238Y-74579819D01*
X147050238Y-74579819D02*
X146907381Y-74579819D01*
X148193095Y-74579819D02*
X147621667Y-74579819D01*
X147907381Y-74579819D02*
X147907381Y-73579819D01*
X147907381Y-73579819D02*
X147812143Y-73722676D01*
X147812143Y-73722676D02*
X147716905Y-73817914D01*
X147716905Y-73817914D02*
X147621667Y-73865533D01*
X149383572Y-74579819D02*
X149383572Y-73579819D01*
X150050238Y-73579819D02*
X150240714Y-73579819D01*
X150240714Y-73579819D02*
X150335952Y-73627438D01*
X150335952Y-73627438D02*
X150431190Y-73722676D01*
X150431190Y-73722676D02*
X150478809Y-73913152D01*
X150478809Y-73913152D02*
X150478809Y-74246485D01*
X150478809Y-74246485D02*
X150431190Y-74436961D01*
X150431190Y-74436961D02*
X150335952Y-74532200D01*
X150335952Y-74532200D02*
X150240714Y-74579819D01*
X150240714Y-74579819D02*
X150050238Y-74579819D01*
X150050238Y-74579819D02*
X149955000Y-74532200D01*
X149955000Y-74532200D02*
X149859762Y-74436961D01*
X149859762Y-74436961D02*
X149812143Y-74246485D01*
X149812143Y-74246485D02*
X149812143Y-73913152D01*
X149812143Y-73913152D02*
X149859762Y-73722676D01*
X149859762Y-73722676D02*
X149955000Y-73627438D01*
X149955000Y-73627438D02*
X150050238Y-73579819D01*
X151431190Y-74579819D02*
X150859762Y-74579819D01*
X151145476Y-74579819D02*
X151145476Y-73579819D01*
X151145476Y-73579819D02*
X151050238Y-73722676D01*
X151050238Y-73722676D02*
X150955000Y-73817914D01*
X150955000Y-73817914D02*
X150859762Y-73865533D01*
X152288333Y-73913152D02*
X152288333Y-74579819D01*
X152050238Y-73532200D02*
X151812143Y-74246485D01*
X151812143Y-74246485D02*
X152431190Y-74246485D01*
X143526428Y-76142200D02*
X143669285Y-76189819D01*
X143669285Y-76189819D02*
X143907380Y-76189819D01*
X143907380Y-76189819D02*
X144002618Y-76142200D01*
X144002618Y-76142200D02*
X144050237Y-76094580D01*
X144050237Y-76094580D02*
X144097856Y-75999342D01*
X144097856Y-75999342D02*
X144097856Y-75904104D01*
X144097856Y-75904104D02*
X144050237Y-75808866D01*
X144050237Y-75808866D02*
X144002618Y-75761247D01*
X144002618Y-75761247D02*
X143907380Y-75713628D01*
X143907380Y-75713628D02*
X143716904Y-75666009D01*
X143716904Y-75666009D02*
X143621666Y-75618390D01*
X143621666Y-75618390D02*
X143574047Y-75570771D01*
X143574047Y-75570771D02*
X143526428Y-75475533D01*
X143526428Y-75475533D02*
X143526428Y-75380295D01*
X143526428Y-75380295D02*
X143574047Y-75285057D01*
X143574047Y-75285057D02*
X143621666Y-75237438D01*
X143621666Y-75237438D02*
X143716904Y-75189819D01*
X143716904Y-75189819D02*
X143954999Y-75189819D01*
X143954999Y-75189819D02*
X144097856Y-75237438D01*
X144907380Y-76142200D02*
X144812142Y-76189819D01*
X144812142Y-76189819D02*
X144621666Y-76189819D01*
X144621666Y-76189819D02*
X144526428Y-76142200D01*
X144526428Y-76142200D02*
X144478809Y-76046961D01*
X144478809Y-76046961D02*
X144478809Y-75666009D01*
X144478809Y-75666009D02*
X144526428Y-75570771D01*
X144526428Y-75570771D02*
X144621666Y-75523152D01*
X144621666Y-75523152D02*
X144812142Y-75523152D01*
X144812142Y-75523152D02*
X144907380Y-75570771D01*
X144907380Y-75570771D02*
X144954999Y-75666009D01*
X144954999Y-75666009D02*
X144954999Y-75761247D01*
X144954999Y-75761247D02*
X144478809Y-75856485D01*
X145383571Y-76189819D02*
X145383571Y-75523152D01*
X145383571Y-75713628D02*
X145431190Y-75618390D01*
X145431190Y-75618390D02*
X145478809Y-75570771D01*
X145478809Y-75570771D02*
X145574047Y-75523152D01*
X145574047Y-75523152D02*
X145669285Y-75523152D01*
X145907381Y-75523152D02*
X146145476Y-76189819D01*
X146145476Y-76189819D02*
X146383571Y-75523152D01*
X146907381Y-76189819D02*
X146812143Y-76142200D01*
X146812143Y-76142200D02*
X146764524Y-76094580D01*
X146764524Y-76094580D02*
X146716905Y-75999342D01*
X146716905Y-75999342D02*
X146716905Y-75713628D01*
X146716905Y-75713628D02*
X146764524Y-75618390D01*
X146764524Y-75618390D02*
X146812143Y-75570771D01*
X146812143Y-75570771D02*
X146907381Y-75523152D01*
X146907381Y-75523152D02*
X147050238Y-75523152D01*
X147050238Y-75523152D02*
X147145476Y-75570771D01*
X147145476Y-75570771D02*
X147193095Y-75618390D01*
X147193095Y-75618390D02*
X147240714Y-75713628D01*
X147240714Y-75713628D02*
X147240714Y-75999342D01*
X147240714Y-75999342D02*
X147193095Y-76094580D01*
X147193095Y-76094580D02*
X147145476Y-76142200D01*
X147145476Y-76142200D02*
X147050238Y-76189819D01*
X147050238Y-76189819D02*
X146907381Y-76189819D01*
X147621667Y-75285057D02*
X147669286Y-75237438D01*
X147669286Y-75237438D02*
X147764524Y-75189819D01*
X147764524Y-75189819D02*
X148002619Y-75189819D01*
X148002619Y-75189819D02*
X148097857Y-75237438D01*
X148097857Y-75237438D02*
X148145476Y-75285057D01*
X148145476Y-75285057D02*
X148193095Y-75380295D01*
X148193095Y-75380295D02*
X148193095Y-75475533D01*
X148193095Y-75475533D02*
X148145476Y-75618390D01*
X148145476Y-75618390D02*
X147574048Y-76189819D01*
X147574048Y-76189819D02*
X148193095Y-76189819D01*
X149383572Y-76189819D02*
X149383572Y-75189819D01*
X150050238Y-75189819D02*
X150240714Y-75189819D01*
X150240714Y-75189819D02*
X150335952Y-75237438D01*
X150335952Y-75237438D02*
X150431190Y-75332676D01*
X150431190Y-75332676D02*
X150478809Y-75523152D01*
X150478809Y-75523152D02*
X150478809Y-75856485D01*
X150478809Y-75856485D02*
X150431190Y-76046961D01*
X150431190Y-76046961D02*
X150335952Y-76142200D01*
X150335952Y-76142200D02*
X150240714Y-76189819D01*
X150240714Y-76189819D02*
X150050238Y-76189819D01*
X150050238Y-76189819D02*
X149955000Y-76142200D01*
X149955000Y-76142200D02*
X149859762Y-76046961D01*
X149859762Y-76046961D02*
X149812143Y-75856485D01*
X149812143Y-75856485D02*
X149812143Y-75523152D01*
X149812143Y-75523152D02*
X149859762Y-75332676D01*
X149859762Y-75332676D02*
X149955000Y-75237438D01*
X149955000Y-75237438D02*
X150050238Y-75189819D01*
X151431190Y-76189819D02*
X150859762Y-76189819D01*
X151145476Y-76189819D02*
X151145476Y-75189819D01*
X151145476Y-75189819D02*
X151050238Y-75332676D01*
X151050238Y-75332676D02*
X150955000Y-75427914D01*
X150955000Y-75427914D02*
X150859762Y-75475533D01*
X152002619Y-75618390D02*
X151907381Y-75570771D01*
X151907381Y-75570771D02*
X151859762Y-75523152D01*
X151859762Y-75523152D02*
X151812143Y-75427914D01*
X151812143Y-75427914D02*
X151812143Y-75380295D01*
X151812143Y-75380295D02*
X151859762Y-75285057D01*
X151859762Y-75285057D02*
X151907381Y-75237438D01*
X151907381Y-75237438D02*
X152002619Y-75189819D01*
X152002619Y-75189819D02*
X152193095Y-75189819D01*
X152193095Y-75189819D02*
X152288333Y-75237438D01*
X152288333Y-75237438D02*
X152335952Y-75285057D01*
X152335952Y-75285057D02*
X152383571Y-75380295D01*
X152383571Y-75380295D02*
X152383571Y-75427914D01*
X152383571Y-75427914D02*
X152335952Y-75523152D01*
X152335952Y-75523152D02*
X152288333Y-75570771D01*
X152288333Y-75570771D02*
X152193095Y-75618390D01*
X152193095Y-75618390D02*
X152002619Y-75618390D01*
X152002619Y-75618390D02*
X151907381Y-75666009D01*
X151907381Y-75666009D02*
X151859762Y-75713628D01*
X151859762Y-75713628D02*
X151812143Y-75808866D01*
X151812143Y-75808866D02*
X151812143Y-75999342D01*
X151812143Y-75999342D02*
X151859762Y-76094580D01*
X151859762Y-76094580D02*
X151907381Y-76142200D01*
X151907381Y-76142200D02*
X152002619Y-76189819D01*
X152002619Y-76189819D02*
X152193095Y-76189819D01*
X152193095Y-76189819D02*
X152288333Y-76142200D01*
X152288333Y-76142200D02*
X152335952Y-76094580D01*
X152335952Y-76094580D02*
X152383571Y-75999342D01*
X152383571Y-75999342D02*
X152383571Y-75808866D01*
X152383571Y-75808866D02*
X152335952Y-75713628D01*
X152335952Y-75713628D02*
X152288333Y-75666009D01*
X152288333Y-75666009D02*
X152193095Y-75618390D01*
X143526428Y-77752200D02*
X143669285Y-77799819D01*
X143669285Y-77799819D02*
X143907380Y-77799819D01*
X143907380Y-77799819D02*
X144002618Y-77752200D01*
X144002618Y-77752200D02*
X144050237Y-77704580D01*
X144050237Y-77704580D02*
X144097856Y-77609342D01*
X144097856Y-77609342D02*
X144097856Y-77514104D01*
X144097856Y-77514104D02*
X144050237Y-77418866D01*
X144050237Y-77418866D02*
X144002618Y-77371247D01*
X144002618Y-77371247D02*
X143907380Y-77323628D01*
X143907380Y-77323628D02*
X143716904Y-77276009D01*
X143716904Y-77276009D02*
X143621666Y-77228390D01*
X143621666Y-77228390D02*
X143574047Y-77180771D01*
X143574047Y-77180771D02*
X143526428Y-77085533D01*
X143526428Y-77085533D02*
X143526428Y-76990295D01*
X143526428Y-76990295D02*
X143574047Y-76895057D01*
X143574047Y-76895057D02*
X143621666Y-76847438D01*
X143621666Y-76847438D02*
X143716904Y-76799819D01*
X143716904Y-76799819D02*
X143954999Y-76799819D01*
X143954999Y-76799819D02*
X144097856Y-76847438D01*
X144907380Y-77752200D02*
X144812142Y-77799819D01*
X144812142Y-77799819D02*
X144621666Y-77799819D01*
X144621666Y-77799819D02*
X144526428Y-77752200D01*
X144526428Y-77752200D02*
X144478809Y-77656961D01*
X144478809Y-77656961D02*
X144478809Y-77276009D01*
X144478809Y-77276009D02*
X144526428Y-77180771D01*
X144526428Y-77180771D02*
X144621666Y-77133152D01*
X144621666Y-77133152D02*
X144812142Y-77133152D01*
X144812142Y-77133152D02*
X144907380Y-77180771D01*
X144907380Y-77180771D02*
X144954999Y-77276009D01*
X144954999Y-77276009D02*
X144954999Y-77371247D01*
X144954999Y-77371247D02*
X144478809Y-77466485D01*
X145383571Y-77799819D02*
X145383571Y-77133152D01*
X145383571Y-77323628D02*
X145431190Y-77228390D01*
X145431190Y-77228390D02*
X145478809Y-77180771D01*
X145478809Y-77180771D02*
X145574047Y-77133152D01*
X145574047Y-77133152D02*
X145669285Y-77133152D01*
X145907381Y-77133152D02*
X146145476Y-77799819D01*
X146145476Y-77799819D02*
X146383571Y-77133152D01*
X146907381Y-77799819D02*
X146812143Y-77752200D01*
X146812143Y-77752200D02*
X146764524Y-77704580D01*
X146764524Y-77704580D02*
X146716905Y-77609342D01*
X146716905Y-77609342D02*
X146716905Y-77323628D01*
X146716905Y-77323628D02*
X146764524Y-77228390D01*
X146764524Y-77228390D02*
X146812143Y-77180771D01*
X146812143Y-77180771D02*
X146907381Y-77133152D01*
X146907381Y-77133152D02*
X147050238Y-77133152D01*
X147050238Y-77133152D02*
X147145476Y-77180771D01*
X147145476Y-77180771D02*
X147193095Y-77228390D01*
X147193095Y-77228390D02*
X147240714Y-77323628D01*
X147240714Y-77323628D02*
X147240714Y-77609342D01*
X147240714Y-77609342D02*
X147193095Y-77704580D01*
X147193095Y-77704580D02*
X147145476Y-77752200D01*
X147145476Y-77752200D02*
X147050238Y-77799819D01*
X147050238Y-77799819D02*
X146907381Y-77799819D01*
X147574048Y-76799819D02*
X148193095Y-76799819D01*
X148193095Y-76799819D02*
X147859762Y-77180771D01*
X147859762Y-77180771D02*
X148002619Y-77180771D01*
X148002619Y-77180771D02*
X148097857Y-77228390D01*
X148097857Y-77228390D02*
X148145476Y-77276009D01*
X148145476Y-77276009D02*
X148193095Y-77371247D01*
X148193095Y-77371247D02*
X148193095Y-77609342D01*
X148193095Y-77609342D02*
X148145476Y-77704580D01*
X148145476Y-77704580D02*
X148097857Y-77752200D01*
X148097857Y-77752200D02*
X148002619Y-77799819D01*
X148002619Y-77799819D02*
X147716905Y-77799819D01*
X147716905Y-77799819D02*
X147621667Y-77752200D01*
X147621667Y-77752200D02*
X147574048Y-77704580D01*
X149383572Y-77799819D02*
X149383572Y-76799819D01*
X150050238Y-76799819D02*
X150240714Y-76799819D01*
X150240714Y-76799819D02*
X150335952Y-76847438D01*
X150335952Y-76847438D02*
X150431190Y-76942676D01*
X150431190Y-76942676D02*
X150478809Y-77133152D01*
X150478809Y-77133152D02*
X150478809Y-77466485D01*
X150478809Y-77466485D02*
X150431190Y-77656961D01*
X150431190Y-77656961D02*
X150335952Y-77752200D01*
X150335952Y-77752200D02*
X150240714Y-77799819D01*
X150240714Y-77799819D02*
X150050238Y-77799819D01*
X150050238Y-77799819D02*
X149955000Y-77752200D01*
X149955000Y-77752200D02*
X149859762Y-77656961D01*
X149859762Y-77656961D02*
X149812143Y-77466485D01*
X149812143Y-77466485D02*
X149812143Y-77133152D01*
X149812143Y-77133152D02*
X149859762Y-76942676D01*
X149859762Y-76942676D02*
X149955000Y-76847438D01*
X149955000Y-76847438D02*
X150050238Y-76799819D01*
X151431190Y-77799819D02*
X150859762Y-77799819D01*
X151145476Y-77799819D02*
X151145476Y-76799819D01*
X151145476Y-76799819D02*
X151050238Y-76942676D01*
X151050238Y-76942676D02*
X150955000Y-77037914D01*
X150955000Y-77037914D02*
X150859762Y-77085533D01*
X151907381Y-77799819D02*
X152097857Y-77799819D01*
X152097857Y-77799819D02*
X152193095Y-77752200D01*
X152193095Y-77752200D02*
X152240714Y-77704580D01*
X152240714Y-77704580D02*
X152335952Y-77561723D01*
X152335952Y-77561723D02*
X152383571Y-77371247D01*
X152383571Y-77371247D02*
X152383571Y-76990295D01*
X152383571Y-76990295D02*
X152335952Y-76895057D01*
X152335952Y-76895057D02*
X152288333Y-76847438D01*
X152288333Y-76847438D02*
X152193095Y-76799819D01*
X152193095Y-76799819D02*
X152002619Y-76799819D01*
X152002619Y-76799819D02*
X151907381Y-76847438D01*
X151907381Y-76847438D02*
X151859762Y-76895057D01*
X151859762Y-76895057D02*
X151812143Y-76990295D01*
X151812143Y-76990295D02*
X151812143Y-77228390D01*
X151812143Y-77228390D02*
X151859762Y-77323628D01*
X151859762Y-77323628D02*
X151907381Y-77371247D01*
X151907381Y-77371247D02*
X152002619Y-77418866D01*
X152002619Y-77418866D02*
X152193095Y-77418866D01*
X152193095Y-77418866D02*
X152288333Y-77371247D01*
X152288333Y-77371247D02*
X152335952Y-77323628D01*
X152335952Y-77323628D02*
X152383571Y-77228390D01*
X68399819Y-64341189D02*
X67399819Y-64341189D01*
X67399819Y-63674523D02*
X67399819Y-63484047D01*
X67399819Y-63484047D02*
X67447438Y-63388809D01*
X67447438Y-63388809D02*
X67542676Y-63293571D01*
X67542676Y-63293571D02*
X67733152Y-63245952D01*
X67733152Y-63245952D02*
X68066485Y-63245952D01*
X68066485Y-63245952D02*
X68256961Y-63293571D01*
X68256961Y-63293571D02*
X68352200Y-63388809D01*
X68352200Y-63388809D02*
X68399819Y-63484047D01*
X68399819Y-63484047D02*
X68399819Y-63674523D01*
X68399819Y-63674523D02*
X68352200Y-63769761D01*
X68352200Y-63769761D02*
X68256961Y-63864999D01*
X68256961Y-63864999D02*
X68066485Y-63912618D01*
X68066485Y-63912618D02*
X67733152Y-63912618D01*
X67733152Y-63912618D02*
X67542676Y-63864999D01*
X67542676Y-63864999D02*
X67447438Y-63769761D01*
X67447438Y-63769761D02*
X67399819Y-63674523D01*
X68399819Y-62293571D02*
X68399819Y-62864999D01*
X68399819Y-62579285D02*
X67399819Y-62579285D01*
X67399819Y-62579285D02*
X67542676Y-62674523D01*
X67542676Y-62674523D02*
X67637914Y-62769761D01*
X67637914Y-62769761D02*
X67685533Y-62864999D01*
X67733152Y-61436428D02*
X68399819Y-61436428D01*
X67352200Y-61674523D02*
X68066485Y-61912618D01*
X68066485Y-61912618D02*
X68066485Y-61293571D01*
X84481200Y-40068332D02*
X84528819Y-39925475D01*
X84528819Y-39925475D02*
X84528819Y-39687380D01*
X84528819Y-39687380D02*
X84481200Y-39592142D01*
X84481200Y-39592142D02*
X84433580Y-39544523D01*
X84433580Y-39544523D02*
X84338342Y-39496904D01*
X84338342Y-39496904D02*
X84243104Y-39496904D01*
X84243104Y-39496904D02*
X84147866Y-39544523D01*
X84147866Y-39544523D02*
X84100247Y-39592142D01*
X84100247Y-39592142D02*
X84052628Y-39687380D01*
X84052628Y-39687380D02*
X84005009Y-39877856D01*
X84005009Y-39877856D02*
X83957390Y-39973094D01*
X83957390Y-39973094D02*
X83909771Y-40020713D01*
X83909771Y-40020713D02*
X83814533Y-40068332D01*
X83814533Y-40068332D02*
X83719295Y-40068332D01*
X83719295Y-40068332D02*
X83624057Y-40020713D01*
X83624057Y-40020713D02*
X83576438Y-39973094D01*
X83576438Y-39973094D02*
X83528819Y-39877856D01*
X83528819Y-39877856D02*
X83528819Y-39639761D01*
X83528819Y-39639761D02*
X83576438Y-39496904D01*
X83528819Y-39163570D02*
X84528819Y-38925475D01*
X84528819Y-38925475D02*
X83814533Y-38734999D01*
X83814533Y-38734999D02*
X84528819Y-38544523D01*
X84528819Y-38544523D02*
X83528819Y-38306428D01*
X84528819Y-37401666D02*
X84528819Y-37973094D01*
X84528819Y-37687380D02*
X83528819Y-37687380D01*
X83528819Y-37687380D02*
X83671676Y-37782618D01*
X83671676Y-37782618D02*
X83766914Y-37877856D01*
X83766914Y-37877856D02*
X83814533Y-37973094D01*
X84481200Y-64198332D02*
X84528819Y-64055475D01*
X84528819Y-64055475D02*
X84528819Y-63817380D01*
X84528819Y-63817380D02*
X84481200Y-63722142D01*
X84481200Y-63722142D02*
X84433580Y-63674523D01*
X84433580Y-63674523D02*
X84338342Y-63626904D01*
X84338342Y-63626904D02*
X84243104Y-63626904D01*
X84243104Y-63626904D02*
X84147866Y-63674523D01*
X84147866Y-63674523D02*
X84100247Y-63722142D01*
X84100247Y-63722142D02*
X84052628Y-63817380D01*
X84052628Y-63817380D02*
X84005009Y-64007856D01*
X84005009Y-64007856D02*
X83957390Y-64103094D01*
X83957390Y-64103094D02*
X83909771Y-64150713D01*
X83909771Y-64150713D02*
X83814533Y-64198332D01*
X83814533Y-64198332D02*
X83719295Y-64198332D01*
X83719295Y-64198332D02*
X83624057Y-64150713D01*
X83624057Y-64150713D02*
X83576438Y-64103094D01*
X83576438Y-64103094D02*
X83528819Y-64007856D01*
X83528819Y-64007856D02*
X83528819Y-63769761D01*
X83528819Y-63769761D02*
X83576438Y-63626904D01*
X83528819Y-63293570D02*
X84528819Y-63055475D01*
X84528819Y-63055475D02*
X83814533Y-62864999D01*
X83814533Y-62864999D02*
X84528819Y-62674523D01*
X84528819Y-62674523D02*
X83528819Y-62436428D01*
X83624057Y-62103094D02*
X83576438Y-62055475D01*
X83576438Y-62055475D02*
X83528819Y-61960237D01*
X83528819Y-61960237D02*
X83528819Y-61722142D01*
X83528819Y-61722142D02*
X83576438Y-61626904D01*
X83576438Y-61626904D02*
X83624057Y-61579285D01*
X83624057Y-61579285D02*
X83719295Y-61531666D01*
X83719295Y-61531666D02*
X83814533Y-61531666D01*
X83814533Y-61531666D02*
X83957390Y-61579285D01*
X83957390Y-61579285D02*
X84528819Y-62150713D01*
X84528819Y-62150713D02*
X84528819Y-61531666D01*
X84481200Y-88328332D02*
X84528819Y-88185475D01*
X84528819Y-88185475D02*
X84528819Y-87947380D01*
X84528819Y-87947380D02*
X84481200Y-87852142D01*
X84481200Y-87852142D02*
X84433580Y-87804523D01*
X84433580Y-87804523D02*
X84338342Y-87756904D01*
X84338342Y-87756904D02*
X84243104Y-87756904D01*
X84243104Y-87756904D02*
X84147866Y-87804523D01*
X84147866Y-87804523D02*
X84100247Y-87852142D01*
X84100247Y-87852142D02*
X84052628Y-87947380D01*
X84052628Y-87947380D02*
X84005009Y-88137856D01*
X84005009Y-88137856D02*
X83957390Y-88233094D01*
X83957390Y-88233094D02*
X83909771Y-88280713D01*
X83909771Y-88280713D02*
X83814533Y-88328332D01*
X83814533Y-88328332D02*
X83719295Y-88328332D01*
X83719295Y-88328332D02*
X83624057Y-88280713D01*
X83624057Y-88280713D02*
X83576438Y-88233094D01*
X83576438Y-88233094D02*
X83528819Y-88137856D01*
X83528819Y-88137856D02*
X83528819Y-87899761D01*
X83528819Y-87899761D02*
X83576438Y-87756904D01*
X83528819Y-87423570D02*
X84528819Y-87185475D01*
X84528819Y-87185475D02*
X83814533Y-86994999D01*
X83814533Y-86994999D02*
X84528819Y-86804523D01*
X84528819Y-86804523D02*
X83528819Y-86566428D01*
X83528819Y-86280713D02*
X83528819Y-85661666D01*
X83528819Y-85661666D02*
X83909771Y-85994999D01*
X83909771Y-85994999D02*
X83909771Y-85852142D01*
X83909771Y-85852142D02*
X83957390Y-85756904D01*
X83957390Y-85756904D02*
X84005009Y-85709285D01*
X84005009Y-85709285D02*
X84100247Y-85661666D01*
X84100247Y-85661666D02*
X84338342Y-85661666D01*
X84338342Y-85661666D02*
X84433580Y-85709285D01*
X84433580Y-85709285D02*
X84481200Y-85756904D01*
X84481200Y-85756904D02*
X84528819Y-85852142D01*
X84528819Y-85852142D02*
X84528819Y-86137856D01*
X84528819Y-86137856D02*
X84481200Y-86233094D01*
X84481200Y-86233094D02*
X84433580Y-86280713D01*
X84481200Y-112458332D02*
X84528819Y-112315475D01*
X84528819Y-112315475D02*
X84528819Y-112077380D01*
X84528819Y-112077380D02*
X84481200Y-111982142D01*
X84481200Y-111982142D02*
X84433580Y-111934523D01*
X84433580Y-111934523D02*
X84338342Y-111886904D01*
X84338342Y-111886904D02*
X84243104Y-111886904D01*
X84243104Y-111886904D02*
X84147866Y-111934523D01*
X84147866Y-111934523D02*
X84100247Y-111982142D01*
X84100247Y-111982142D02*
X84052628Y-112077380D01*
X84052628Y-112077380D02*
X84005009Y-112267856D01*
X84005009Y-112267856D02*
X83957390Y-112363094D01*
X83957390Y-112363094D02*
X83909771Y-112410713D01*
X83909771Y-112410713D02*
X83814533Y-112458332D01*
X83814533Y-112458332D02*
X83719295Y-112458332D01*
X83719295Y-112458332D02*
X83624057Y-112410713D01*
X83624057Y-112410713D02*
X83576438Y-112363094D01*
X83576438Y-112363094D02*
X83528819Y-112267856D01*
X83528819Y-112267856D02*
X83528819Y-112029761D01*
X83528819Y-112029761D02*
X83576438Y-111886904D01*
X83528819Y-111553570D02*
X84528819Y-111315475D01*
X84528819Y-111315475D02*
X83814533Y-111124999D01*
X83814533Y-111124999D02*
X84528819Y-110934523D01*
X84528819Y-110934523D02*
X83528819Y-110696428D01*
X83862152Y-109886904D02*
X84528819Y-109886904D01*
X83481200Y-110124999D02*
X84195485Y-110363094D01*
X84195485Y-110363094D02*
X84195485Y-109744047D01*
X62103095Y-47054819D02*
X62103095Y-46054819D01*
X62103095Y-46531009D02*
X62674523Y-46531009D01*
X62674523Y-47054819D02*
X62674523Y-46054819D01*
X63674523Y-47054819D02*
X63103095Y-47054819D01*
X63388809Y-47054819D02*
X63388809Y-46054819D01*
X63388809Y-46054819D02*
X63293571Y-46197676D01*
X63293571Y-46197676D02*
X63198333Y-46292914D01*
X63198333Y-46292914D02*
X63103095Y-46340533D01*
X62103095Y-95314819D02*
X62103095Y-94314819D01*
X62103095Y-94791009D02*
X62674523Y-94791009D01*
X62674523Y-95314819D02*
X62674523Y-94314819D01*
X63103095Y-94410057D02*
X63150714Y-94362438D01*
X63150714Y-94362438D02*
X63245952Y-94314819D01*
X63245952Y-94314819D02*
X63484047Y-94314819D01*
X63484047Y-94314819D02*
X63579285Y-94362438D01*
X63579285Y-94362438D02*
X63626904Y-94410057D01*
X63626904Y-94410057D02*
X63674523Y-94505295D01*
X63674523Y-94505295D02*
X63674523Y-94600533D01*
X63674523Y-94600533D02*
X63626904Y-94743390D01*
X63626904Y-94743390D02*
X63055476Y-95314819D01*
X63055476Y-95314819D02*
X63674523Y-95314819D01*
X88773095Y-34354819D02*
X88773095Y-33354819D01*
X88773095Y-33831009D02*
X89344523Y-33831009D01*
X89344523Y-34354819D02*
X89344523Y-33354819D01*
X89725476Y-33354819D02*
X90344523Y-33354819D01*
X90344523Y-33354819D02*
X90011190Y-33735771D01*
X90011190Y-33735771D02*
X90154047Y-33735771D01*
X90154047Y-33735771D02*
X90249285Y-33783390D01*
X90249285Y-33783390D02*
X90296904Y-33831009D01*
X90296904Y-33831009D02*
X90344523Y-33926247D01*
X90344523Y-33926247D02*
X90344523Y-34164342D01*
X90344523Y-34164342D02*
X90296904Y-34259580D01*
X90296904Y-34259580D02*
X90249285Y-34307200D01*
X90249285Y-34307200D02*
X90154047Y-34354819D01*
X90154047Y-34354819D02*
X89868333Y-34354819D01*
X89868333Y-34354819D02*
X89773095Y-34307200D01*
X89773095Y-34307200D02*
X89725476Y-34259580D01*
X88773095Y-108014819D02*
X88773095Y-107014819D01*
X88773095Y-107491009D02*
X89344523Y-107491009D01*
X89344523Y-108014819D02*
X89344523Y-107014819D01*
X90249285Y-107348152D02*
X90249285Y-108014819D01*
X90011190Y-106967200D02*
X89773095Y-107681485D01*
X89773095Y-107681485D02*
X90392142Y-107681485D01*
X128414819Y-54078094D02*
X127414819Y-54078094D01*
X127414819Y-54078094D02*
X127414819Y-53839999D01*
X127414819Y-53839999D02*
X127462438Y-53697142D01*
X127462438Y-53697142D02*
X127557676Y-53601904D01*
X127557676Y-53601904D02*
X127652914Y-53554285D01*
X127652914Y-53554285D02*
X127843390Y-53506666D01*
X127843390Y-53506666D02*
X127986247Y-53506666D01*
X127986247Y-53506666D02*
X128176723Y-53554285D01*
X128176723Y-53554285D02*
X128271961Y-53601904D01*
X128271961Y-53601904D02*
X128367200Y-53697142D01*
X128367200Y-53697142D02*
X128414819Y-53839999D01*
X128414819Y-53839999D02*
X128414819Y-54078094D01*
X128414819Y-52554285D02*
X128414819Y-53125713D01*
X128414819Y-52839999D02*
X127414819Y-52839999D01*
X127414819Y-52839999D02*
X127557676Y-52935237D01*
X127557676Y-52935237D02*
X127652914Y-53030475D01*
X127652914Y-53030475D02*
X127700533Y-53125713D01*
X126514819Y-48904285D02*
X126514819Y-49475713D01*
X126514819Y-49189999D02*
X125514819Y-49189999D01*
X125514819Y-49189999D02*
X125657676Y-49285237D01*
X125657676Y-49285237D02*
X125752914Y-49380475D01*
X125752914Y-49380475D02*
X125800533Y-49475713D01*
X128414819Y-64873094D02*
X127414819Y-64873094D01*
X127414819Y-64873094D02*
X127414819Y-64634999D01*
X127414819Y-64634999D02*
X127462438Y-64492142D01*
X127462438Y-64492142D02*
X127557676Y-64396904D01*
X127557676Y-64396904D02*
X127652914Y-64349285D01*
X127652914Y-64349285D02*
X127843390Y-64301666D01*
X127843390Y-64301666D02*
X127986247Y-64301666D01*
X127986247Y-64301666D02*
X128176723Y-64349285D01*
X128176723Y-64349285D02*
X128271961Y-64396904D01*
X128271961Y-64396904D02*
X128367200Y-64492142D01*
X128367200Y-64492142D02*
X128414819Y-64634999D01*
X128414819Y-64634999D02*
X128414819Y-64873094D01*
X127510057Y-63920713D02*
X127462438Y-63873094D01*
X127462438Y-63873094D02*
X127414819Y-63777856D01*
X127414819Y-63777856D02*
X127414819Y-63539761D01*
X127414819Y-63539761D02*
X127462438Y-63444523D01*
X127462438Y-63444523D02*
X127510057Y-63396904D01*
X127510057Y-63396904D02*
X127605295Y-63349285D01*
X127605295Y-63349285D02*
X127700533Y-63349285D01*
X127700533Y-63349285D02*
X127843390Y-63396904D01*
X127843390Y-63396904D02*
X128414819Y-63968332D01*
X128414819Y-63968332D02*
X128414819Y-63349285D01*
X126514819Y-59699285D02*
X126514819Y-60270713D01*
X126514819Y-59984999D02*
X125514819Y-59984999D01*
X125514819Y-59984999D02*
X125657676Y-60080237D01*
X125657676Y-60080237D02*
X125752914Y-60175475D01*
X125752914Y-60175475D02*
X125800533Y-60270713D01*
X128414819Y-75528094D02*
X127414819Y-75528094D01*
X127414819Y-75528094D02*
X127414819Y-75289999D01*
X127414819Y-75289999D02*
X127462438Y-75147142D01*
X127462438Y-75147142D02*
X127557676Y-75051904D01*
X127557676Y-75051904D02*
X127652914Y-75004285D01*
X127652914Y-75004285D02*
X127843390Y-74956666D01*
X127843390Y-74956666D02*
X127986247Y-74956666D01*
X127986247Y-74956666D02*
X128176723Y-75004285D01*
X128176723Y-75004285D02*
X128271961Y-75051904D01*
X128271961Y-75051904D02*
X128367200Y-75147142D01*
X128367200Y-75147142D02*
X128414819Y-75289999D01*
X128414819Y-75289999D02*
X128414819Y-75528094D01*
X127414819Y-74623332D02*
X127414819Y-74004285D01*
X127414819Y-74004285D02*
X127795771Y-74337618D01*
X127795771Y-74337618D02*
X127795771Y-74194761D01*
X127795771Y-74194761D02*
X127843390Y-74099523D01*
X127843390Y-74099523D02*
X127891009Y-74051904D01*
X127891009Y-74051904D02*
X127986247Y-74004285D01*
X127986247Y-74004285D02*
X128224342Y-74004285D01*
X128224342Y-74004285D02*
X128319580Y-74051904D01*
X128319580Y-74051904D02*
X128367200Y-74099523D01*
X128367200Y-74099523D02*
X128414819Y-74194761D01*
X128414819Y-74194761D02*
X128414819Y-74480475D01*
X128414819Y-74480475D02*
X128367200Y-74575713D01*
X128367200Y-74575713D02*
X128319580Y-74623332D01*
X126514819Y-70354285D02*
X126514819Y-70925713D01*
X126514819Y-70639999D02*
X125514819Y-70639999D01*
X125514819Y-70639999D02*
X125657676Y-70735237D01*
X125657676Y-70735237D02*
X125752914Y-70830475D01*
X125752914Y-70830475D02*
X125800533Y-70925713D01*
X128414819Y-86463094D02*
X127414819Y-86463094D01*
X127414819Y-86463094D02*
X127414819Y-86224999D01*
X127414819Y-86224999D02*
X127462438Y-86082142D01*
X127462438Y-86082142D02*
X127557676Y-85986904D01*
X127557676Y-85986904D02*
X127652914Y-85939285D01*
X127652914Y-85939285D02*
X127843390Y-85891666D01*
X127843390Y-85891666D02*
X127986247Y-85891666D01*
X127986247Y-85891666D02*
X128176723Y-85939285D01*
X128176723Y-85939285D02*
X128271961Y-85986904D01*
X128271961Y-85986904D02*
X128367200Y-86082142D01*
X128367200Y-86082142D02*
X128414819Y-86224999D01*
X128414819Y-86224999D02*
X128414819Y-86463094D01*
X127748152Y-85034523D02*
X128414819Y-85034523D01*
X127367200Y-85272618D02*
X128081485Y-85510713D01*
X128081485Y-85510713D02*
X128081485Y-84891666D01*
X126514819Y-81289285D02*
X126514819Y-81860713D01*
X126514819Y-81574999D02*
X125514819Y-81574999D01*
X125514819Y-81574999D02*
X125657676Y-81670237D01*
X125657676Y-81670237D02*
X125752914Y-81765475D01*
X125752914Y-81765475D02*
X125800533Y-81860713D01*
X128414819Y-97258094D02*
X127414819Y-97258094D01*
X127414819Y-97258094D02*
X127414819Y-97019999D01*
X127414819Y-97019999D02*
X127462438Y-96877142D01*
X127462438Y-96877142D02*
X127557676Y-96781904D01*
X127557676Y-96781904D02*
X127652914Y-96734285D01*
X127652914Y-96734285D02*
X127843390Y-96686666D01*
X127843390Y-96686666D02*
X127986247Y-96686666D01*
X127986247Y-96686666D02*
X128176723Y-96734285D01*
X128176723Y-96734285D02*
X128271961Y-96781904D01*
X128271961Y-96781904D02*
X128367200Y-96877142D01*
X128367200Y-96877142D02*
X128414819Y-97019999D01*
X128414819Y-97019999D02*
X128414819Y-97258094D01*
X127414819Y-95781904D02*
X127414819Y-96258094D01*
X127414819Y-96258094D02*
X127891009Y-96305713D01*
X127891009Y-96305713D02*
X127843390Y-96258094D01*
X127843390Y-96258094D02*
X127795771Y-96162856D01*
X127795771Y-96162856D02*
X127795771Y-95924761D01*
X127795771Y-95924761D02*
X127843390Y-95829523D01*
X127843390Y-95829523D02*
X127891009Y-95781904D01*
X127891009Y-95781904D02*
X127986247Y-95734285D01*
X127986247Y-95734285D02*
X128224342Y-95734285D01*
X128224342Y-95734285D02*
X128319580Y-95781904D01*
X128319580Y-95781904D02*
X128367200Y-95829523D01*
X128367200Y-95829523D02*
X128414819Y-95924761D01*
X128414819Y-95924761D02*
X128414819Y-96162856D01*
X128414819Y-96162856D02*
X128367200Y-96258094D01*
X128367200Y-96258094D02*
X128319580Y-96305713D01*
X126514819Y-92084285D02*
X126514819Y-92655713D01*
X126514819Y-92369999D02*
X125514819Y-92369999D01*
X125514819Y-92369999D02*
X125657676Y-92465237D01*
X125657676Y-92465237D02*
X125752914Y-92560475D01*
X125752914Y-92560475D02*
X125800533Y-92655713D01*
X109728095Y-47054819D02*
X109728095Y-46054819D01*
X109728095Y-46531009D02*
X110299523Y-46531009D01*
X110299523Y-47054819D02*
X110299523Y-46054819D01*
X111251904Y-46054819D02*
X110775714Y-46054819D01*
X110775714Y-46054819D02*
X110728095Y-46531009D01*
X110728095Y-46531009D02*
X110775714Y-46483390D01*
X110775714Y-46483390D02*
X110870952Y-46435771D01*
X110870952Y-46435771D02*
X111109047Y-46435771D01*
X111109047Y-46435771D02*
X111204285Y-46483390D01*
X111204285Y-46483390D02*
X111251904Y-46531009D01*
X111251904Y-46531009D02*
X111299523Y-46626247D01*
X111299523Y-46626247D02*
X111299523Y-46864342D01*
X111299523Y-46864342D02*
X111251904Y-46959580D01*
X111251904Y-46959580D02*
X111204285Y-47007200D01*
X111204285Y-47007200D02*
X111109047Y-47054819D01*
X111109047Y-47054819D02*
X110870952Y-47054819D01*
X110870952Y-47054819D02*
X110775714Y-47007200D01*
X110775714Y-47007200D02*
X110728095Y-46959580D01*
X109728095Y-95314819D02*
X109728095Y-94314819D01*
X109728095Y-94791009D02*
X110299523Y-94791009D01*
X110299523Y-95314819D02*
X110299523Y-94314819D01*
X111204285Y-94314819D02*
X111013809Y-94314819D01*
X111013809Y-94314819D02*
X110918571Y-94362438D01*
X110918571Y-94362438D02*
X110870952Y-94410057D01*
X110870952Y-94410057D02*
X110775714Y-94552914D01*
X110775714Y-94552914D02*
X110728095Y-94743390D01*
X110728095Y-94743390D02*
X110728095Y-95124342D01*
X110728095Y-95124342D02*
X110775714Y-95219580D01*
X110775714Y-95219580D02*
X110823333Y-95267200D01*
X110823333Y-95267200D02*
X110918571Y-95314819D01*
X110918571Y-95314819D02*
X111109047Y-95314819D01*
X111109047Y-95314819D02*
X111204285Y-95267200D01*
X111204285Y-95267200D02*
X111251904Y-95219580D01*
X111251904Y-95219580D02*
X111299523Y-95124342D01*
X111299523Y-95124342D02*
X111299523Y-94886247D01*
X111299523Y-94886247D02*
X111251904Y-94791009D01*
X111251904Y-94791009D02*
X111204285Y-94743390D01*
X111204285Y-94743390D02*
X111109047Y-94695771D01*
X111109047Y-94695771D02*
X110918571Y-94695771D01*
X110918571Y-94695771D02*
X110823333Y-94743390D01*
X110823333Y-94743390D02*
X110775714Y-94791009D01*
X110775714Y-94791009D02*
X110728095Y-94886247D01*
X136398095Y-34354819D02*
X136398095Y-33354819D01*
X136398095Y-33831009D02*
X136969523Y-33831009D01*
X136969523Y-34354819D02*
X136969523Y-33354819D01*
X137350476Y-33354819D02*
X138017142Y-33354819D01*
X138017142Y-33354819D02*
X137588571Y-34354819D01*
X136398095Y-108014819D02*
X136398095Y-107014819D01*
X136398095Y-107491009D02*
X136969523Y-107491009D01*
X136969523Y-108014819D02*
X136969523Y-107014819D01*
X137588571Y-107443390D02*
X137493333Y-107395771D01*
X137493333Y-107395771D02*
X137445714Y-107348152D01*
X137445714Y-107348152D02*
X137398095Y-107252914D01*
X137398095Y-107252914D02*
X137398095Y-107205295D01*
X137398095Y-107205295D02*
X137445714Y-107110057D01*
X137445714Y-107110057D02*
X137493333Y-107062438D01*
X137493333Y-107062438D02*
X137588571Y-107014819D01*
X137588571Y-107014819D02*
X137779047Y-107014819D01*
X137779047Y-107014819D02*
X137874285Y-107062438D01*
X137874285Y-107062438D02*
X137921904Y-107110057D01*
X137921904Y-107110057D02*
X137969523Y-107205295D01*
X137969523Y-107205295D02*
X137969523Y-107252914D01*
X137969523Y-107252914D02*
X137921904Y-107348152D01*
X137921904Y-107348152D02*
X137874285Y-107395771D01*
X137874285Y-107395771D02*
X137779047Y-107443390D01*
X137779047Y-107443390D02*
X137588571Y-107443390D01*
X137588571Y-107443390D02*
X137493333Y-107491009D01*
X137493333Y-107491009D02*
X137445714Y-107538628D01*
X137445714Y-107538628D02*
X137398095Y-107633866D01*
X137398095Y-107633866D02*
X137398095Y-107824342D01*
X137398095Y-107824342D02*
X137445714Y-107919580D01*
X137445714Y-107919580D02*
X137493333Y-107967200D01*
X137493333Y-107967200D02*
X137588571Y-108014819D01*
X137588571Y-108014819D02*
X137779047Y-108014819D01*
X137779047Y-108014819D02*
X137874285Y-107967200D01*
X137874285Y-107967200D02*
X137921904Y-107919580D01*
X137921904Y-107919580D02*
X137969523Y-107824342D01*
X137969523Y-107824342D02*
X137969523Y-107633866D01*
X137969523Y-107633866D02*
X137921904Y-107538628D01*
X137921904Y-107538628D02*
X137874285Y-107491009D01*
X137874285Y-107491009D02*
X137779047Y-107443390D01*
X140904819Y-48633333D02*
X141619104Y-48633333D01*
X141619104Y-48633333D02*
X141761961Y-48680952D01*
X141761961Y-48680952D02*
X141857200Y-48776190D01*
X141857200Y-48776190D02*
X141904819Y-48919047D01*
X141904819Y-48919047D02*
X141904819Y-49014285D01*
X141904819Y-48109523D02*
X141904819Y-47919047D01*
X141904819Y-47919047D02*
X141857200Y-47823809D01*
X141857200Y-47823809D02*
X141809580Y-47776190D01*
X141809580Y-47776190D02*
X141666723Y-47680952D01*
X141666723Y-47680952D02*
X141476247Y-47633333D01*
X141476247Y-47633333D02*
X141095295Y-47633333D01*
X141095295Y-47633333D02*
X141000057Y-47680952D01*
X141000057Y-47680952D02*
X140952438Y-47728571D01*
X140952438Y-47728571D02*
X140904819Y-47823809D01*
X140904819Y-47823809D02*
X140904819Y-48014285D01*
X140904819Y-48014285D02*
X140952438Y-48109523D01*
X140952438Y-48109523D02*
X141000057Y-48157142D01*
X141000057Y-48157142D02*
X141095295Y-48204761D01*
X141095295Y-48204761D02*
X141333390Y-48204761D01*
X141333390Y-48204761D02*
X141428628Y-48157142D01*
X141428628Y-48157142D02*
X141476247Y-48109523D01*
X141476247Y-48109523D02*
X141523866Y-48014285D01*
X141523866Y-48014285D02*
X141523866Y-47823809D01*
X141523866Y-47823809D02*
X141476247Y-47728571D01*
X141476247Y-47728571D02*
X141428628Y-47680952D01*
X141428628Y-47680952D02*
X141333390Y-47633333D01*
X140904819Y-61809523D02*
X141619104Y-61809523D01*
X141619104Y-61809523D02*
X141761961Y-61857142D01*
X141761961Y-61857142D02*
X141857200Y-61952380D01*
X141857200Y-61952380D02*
X141904819Y-62095237D01*
X141904819Y-62095237D02*
X141904819Y-62190475D01*
X141904819Y-60809523D02*
X141904819Y-61380951D01*
X141904819Y-61095237D02*
X140904819Y-61095237D01*
X140904819Y-61095237D02*
X141047676Y-61190475D01*
X141047676Y-61190475D02*
X141142914Y-61285713D01*
X141142914Y-61285713D02*
X141190533Y-61380951D01*
X140904819Y-60190475D02*
X140904819Y-60095237D01*
X140904819Y-60095237D02*
X140952438Y-59999999D01*
X140952438Y-59999999D02*
X141000057Y-59952380D01*
X141000057Y-59952380D02*
X141095295Y-59904761D01*
X141095295Y-59904761D02*
X141285771Y-59857142D01*
X141285771Y-59857142D02*
X141523866Y-59857142D01*
X141523866Y-59857142D02*
X141714342Y-59904761D01*
X141714342Y-59904761D02*
X141809580Y-59952380D01*
X141809580Y-59952380D02*
X141857200Y-59999999D01*
X141857200Y-59999999D02*
X141904819Y-60095237D01*
X141904819Y-60095237D02*
X141904819Y-60190475D01*
X141904819Y-60190475D02*
X141857200Y-60285713D01*
X141857200Y-60285713D02*
X141809580Y-60333332D01*
X141809580Y-60333332D02*
X141714342Y-60380951D01*
X141714342Y-60380951D02*
X141523866Y-60428570D01*
X141523866Y-60428570D02*
X141285771Y-60428570D01*
X141285771Y-60428570D02*
X141095295Y-60380951D01*
X141095295Y-60380951D02*
X141000057Y-60333332D01*
X141000057Y-60333332D02*
X140952438Y-60285713D01*
X140952438Y-60285713D02*
X140904819Y-60190475D01*
X140904819Y-89749523D02*
X141619104Y-89749523D01*
X141619104Y-89749523D02*
X141761961Y-89797142D01*
X141761961Y-89797142D02*
X141857200Y-89892380D01*
X141857200Y-89892380D02*
X141904819Y-90035237D01*
X141904819Y-90035237D02*
X141904819Y-90130475D01*
X141904819Y-88749523D02*
X141904819Y-89320951D01*
X141904819Y-89035237D02*
X140904819Y-89035237D01*
X140904819Y-89035237D02*
X141047676Y-89130475D01*
X141047676Y-89130475D02*
X141142914Y-89225713D01*
X141142914Y-89225713D02*
X141190533Y-89320951D01*
X141904819Y-87797142D02*
X141904819Y-88368570D01*
X141904819Y-88082856D02*
X140904819Y-88082856D01*
X140904819Y-88082856D02*
X141047676Y-88178094D01*
X141047676Y-88178094D02*
X141142914Y-88273332D01*
X141142914Y-88273332D02*
X141190533Y-88368570D01*
X140904819Y-102449523D02*
X141619104Y-102449523D01*
X141619104Y-102449523D02*
X141761961Y-102497142D01*
X141761961Y-102497142D02*
X141857200Y-102592380D01*
X141857200Y-102592380D02*
X141904819Y-102735237D01*
X141904819Y-102735237D02*
X141904819Y-102830475D01*
X141904819Y-101449523D02*
X141904819Y-102020951D01*
X141904819Y-101735237D02*
X140904819Y-101735237D01*
X140904819Y-101735237D02*
X141047676Y-101830475D01*
X141047676Y-101830475D02*
X141142914Y-101925713D01*
X141142914Y-101925713D02*
X141190533Y-102020951D01*
X141000057Y-101068570D02*
X140952438Y-101020951D01*
X140952438Y-101020951D02*
X140904819Y-100925713D01*
X140904819Y-100925713D02*
X140904819Y-100687618D01*
X140904819Y-100687618D02*
X140952438Y-100592380D01*
X140952438Y-100592380D02*
X141000057Y-100544761D01*
X141000057Y-100544761D02*
X141095295Y-100497142D01*
X141095295Y-100497142D02*
X141190533Y-100497142D01*
X141190533Y-100497142D02*
X141333390Y-100544761D01*
X141333390Y-100544761D02*
X141904819Y-101116189D01*
X141904819Y-101116189D02*
X141904819Y-100497142D01*
X120894819Y-37579523D02*
X121609104Y-37579523D01*
X121609104Y-37579523D02*
X121751961Y-37627142D01*
X121751961Y-37627142D02*
X121847200Y-37722380D01*
X121847200Y-37722380D02*
X121894819Y-37865237D01*
X121894819Y-37865237D02*
X121894819Y-37960475D01*
X121894819Y-36579523D02*
X121894819Y-37150951D01*
X121894819Y-36865237D02*
X120894819Y-36865237D01*
X120894819Y-36865237D02*
X121037676Y-36960475D01*
X121037676Y-36960475D02*
X121132914Y-37055713D01*
X121132914Y-37055713D02*
X121180533Y-37150951D01*
X121228152Y-35722380D02*
X121894819Y-35722380D01*
X120847200Y-35960475D02*
X121561485Y-36198570D01*
X121561485Y-36198570D02*
X121561485Y-35579523D01*
X126230476Y-39614819D02*
X126230476Y-40329104D01*
X126230476Y-40329104D02*
X126182857Y-40471961D01*
X126182857Y-40471961D02*
X126087619Y-40567200D01*
X126087619Y-40567200D02*
X125944762Y-40614819D01*
X125944762Y-40614819D02*
X125849524Y-40614819D01*
X127230476Y-40614819D02*
X126659048Y-40614819D01*
X126944762Y-40614819D02*
X126944762Y-39614819D01*
X126944762Y-39614819D02*
X126849524Y-39757676D01*
X126849524Y-39757676D02*
X126754286Y-39852914D01*
X126754286Y-39852914D02*
X126659048Y-39900533D01*
X128135238Y-39614819D02*
X127659048Y-39614819D01*
X127659048Y-39614819D02*
X127611429Y-40091009D01*
X127611429Y-40091009D02*
X127659048Y-40043390D01*
X127659048Y-40043390D02*
X127754286Y-39995771D01*
X127754286Y-39995771D02*
X127992381Y-39995771D01*
X127992381Y-39995771D02*
X128087619Y-40043390D01*
X128087619Y-40043390D02*
X128135238Y-40091009D01*
X128135238Y-40091009D02*
X128182857Y-40186247D01*
X128182857Y-40186247D02*
X128182857Y-40424342D01*
X128182857Y-40424342D02*
X128135238Y-40519580D01*
X128135238Y-40519580D02*
X128087619Y-40567200D01*
X128087619Y-40567200D02*
X127992381Y-40614819D01*
X127992381Y-40614819D02*
X127754286Y-40614819D01*
X127754286Y-40614819D02*
X127659048Y-40567200D01*
X127659048Y-40567200D02*
X127611429Y-40519580D01*
X145915476Y-39614819D02*
X145915476Y-40329104D01*
X145915476Y-40329104D02*
X145867857Y-40471961D01*
X145867857Y-40471961D02*
X145772619Y-40567200D01*
X145772619Y-40567200D02*
X145629762Y-40614819D01*
X145629762Y-40614819D02*
X145534524Y-40614819D01*
X146915476Y-40614819D02*
X146344048Y-40614819D01*
X146629762Y-40614819D02*
X146629762Y-39614819D01*
X146629762Y-39614819D02*
X146534524Y-39757676D01*
X146534524Y-39757676D02*
X146439286Y-39852914D01*
X146439286Y-39852914D02*
X146344048Y-39900533D01*
X147772619Y-39614819D02*
X147582143Y-39614819D01*
X147582143Y-39614819D02*
X147486905Y-39662438D01*
X147486905Y-39662438D02*
X147439286Y-39710057D01*
X147439286Y-39710057D02*
X147344048Y-39852914D01*
X147344048Y-39852914D02*
X147296429Y-40043390D01*
X147296429Y-40043390D02*
X147296429Y-40424342D01*
X147296429Y-40424342D02*
X147344048Y-40519580D01*
X147344048Y-40519580D02*
X147391667Y-40567200D01*
X147391667Y-40567200D02*
X147486905Y-40614819D01*
X147486905Y-40614819D02*
X147677381Y-40614819D01*
X147677381Y-40614819D02*
X147772619Y-40567200D01*
X147772619Y-40567200D02*
X147820238Y-40519580D01*
X147820238Y-40519580D02*
X147867857Y-40424342D01*
X147867857Y-40424342D02*
X147867857Y-40186247D01*
X147867857Y-40186247D02*
X147820238Y-40091009D01*
X147820238Y-40091009D02*
X147772619Y-40043390D01*
X147772619Y-40043390D02*
X147677381Y-39995771D01*
X147677381Y-39995771D02*
X147486905Y-39995771D01*
X147486905Y-39995771D02*
X147391667Y-40043390D01*
X147391667Y-40043390D02*
X147344048Y-40091009D01*
X147344048Y-40091009D02*
X147296429Y-40186247D01*
X145835476Y-109154819D02*
X145835476Y-109869104D01*
X145835476Y-109869104D02*
X145787857Y-110011961D01*
X145787857Y-110011961D02*
X145692619Y-110107200D01*
X145692619Y-110107200D02*
X145549762Y-110154819D01*
X145549762Y-110154819D02*
X145454524Y-110154819D01*
X146835476Y-110154819D02*
X146264048Y-110154819D01*
X146549762Y-110154819D02*
X146549762Y-109154819D01*
X146549762Y-109154819D02*
X146454524Y-109297676D01*
X146454524Y-109297676D02*
X146359286Y-109392914D01*
X146359286Y-109392914D02*
X146264048Y-109440533D01*
X147168810Y-109154819D02*
X147835476Y-109154819D01*
X147835476Y-109154819D02*
X147406905Y-110154819D01*
X126150476Y-109154819D02*
X126150476Y-109869104D01*
X126150476Y-109869104D02*
X126102857Y-110011961D01*
X126102857Y-110011961D02*
X126007619Y-110107200D01*
X126007619Y-110107200D02*
X125864762Y-110154819D01*
X125864762Y-110154819D02*
X125769524Y-110154819D01*
X127150476Y-110154819D02*
X126579048Y-110154819D01*
X126864762Y-110154819D02*
X126864762Y-109154819D01*
X126864762Y-109154819D02*
X126769524Y-109297676D01*
X126769524Y-109297676D02*
X126674286Y-109392914D01*
X126674286Y-109392914D02*
X126579048Y-109440533D01*
X127721905Y-109583390D02*
X127626667Y-109535771D01*
X127626667Y-109535771D02*
X127579048Y-109488152D01*
X127579048Y-109488152D02*
X127531429Y-109392914D01*
X127531429Y-109392914D02*
X127531429Y-109345295D01*
X127531429Y-109345295D02*
X127579048Y-109250057D01*
X127579048Y-109250057D02*
X127626667Y-109202438D01*
X127626667Y-109202438D02*
X127721905Y-109154819D01*
X127721905Y-109154819D02*
X127912381Y-109154819D01*
X127912381Y-109154819D02*
X128007619Y-109202438D01*
X128007619Y-109202438D02*
X128055238Y-109250057D01*
X128055238Y-109250057D02*
X128102857Y-109345295D01*
X128102857Y-109345295D02*
X128102857Y-109392914D01*
X128102857Y-109392914D02*
X128055238Y-109488152D01*
X128055238Y-109488152D02*
X128007619Y-109535771D01*
X128007619Y-109535771D02*
X127912381Y-109583390D01*
X127912381Y-109583390D02*
X127721905Y-109583390D01*
X127721905Y-109583390D02*
X127626667Y-109631009D01*
X127626667Y-109631009D02*
X127579048Y-109678628D01*
X127579048Y-109678628D02*
X127531429Y-109773866D01*
X127531429Y-109773866D02*
X127531429Y-109964342D01*
X127531429Y-109964342D02*
X127579048Y-110059580D01*
X127579048Y-110059580D02*
X127626667Y-110107200D01*
X127626667Y-110107200D02*
X127721905Y-110154819D01*
X127721905Y-110154819D02*
X127912381Y-110154819D01*
X127912381Y-110154819D02*
X128007619Y-110107200D01*
X128007619Y-110107200D02*
X128055238Y-110059580D01*
X128055238Y-110059580D02*
X128102857Y-109964342D01*
X128102857Y-109964342D02*
X128102857Y-109773866D01*
X128102857Y-109773866D02*
X128055238Y-109678628D01*
X128055238Y-109678628D02*
X128007619Y-109631009D01*
X128007619Y-109631009D02*
X127912381Y-109583390D01*
X129373333Y-109834819D02*
X129040000Y-109358628D01*
X128801905Y-109834819D02*
X128801905Y-108834819D01*
X128801905Y-108834819D02*
X129182857Y-108834819D01*
X129182857Y-108834819D02*
X129278095Y-108882438D01*
X129278095Y-108882438D02*
X129325714Y-108930057D01*
X129325714Y-108930057D02*
X129373333Y-109025295D01*
X129373333Y-109025295D02*
X129373333Y-109168152D01*
X129373333Y-109168152D02*
X129325714Y-109263390D01*
X129325714Y-109263390D02*
X129278095Y-109311009D01*
X129278095Y-109311009D02*
X129182857Y-109358628D01*
X129182857Y-109358628D02*
X128801905Y-109358628D01*
X130325714Y-109834819D02*
X129754286Y-109834819D01*
X130040000Y-109834819D02*
X130040000Y-108834819D01*
X130040000Y-108834819D02*
X129944762Y-108977676D01*
X129944762Y-108977676D02*
X129849524Y-109072914D01*
X129849524Y-109072914D02*
X129754286Y-109120533D01*
X121044819Y-113839523D02*
X121759104Y-113839523D01*
X121759104Y-113839523D02*
X121901961Y-113887142D01*
X121901961Y-113887142D02*
X121997200Y-113982380D01*
X121997200Y-113982380D02*
X122044819Y-114125237D01*
X122044819Y-114125237D02*
X122044819Y-114220475D01*
X122044819Y-112839523D02*
X122044819Y-113410951D01*
X122044819Y-113125237D02*
X121044819Y-113125237D01*
X121044819Y-113125237D02*
X121187676Y-113220475D01*
X121187676Y-113220475D02*
X121282914Y-113315713D01*
X121282914Y-113315713D02*
X121330533Y-113410951D01*
X121044819Y-112506189D02*
X121044819Y-111887142D01*
X121044819Y-111887142D02*
X121425771Y-112220475D01*
X121425771Y-112220475D02*
X121425771Y-112077618D01*
X121425771Y-112077618D02*
X121473390Y-111982380D01*
X121473390Y-111982380D02*
X121521009Y-111934761D01*
X121521009Y-111934761D02*
X121616247Y-111887142D01*
X121616247Y-111887142D02*
X121854342Y-111887142D01*
X121854342Y-111887142D02*
X121949580Y-111934761D01*
X121949580Y-111934761D02*
X121997200Y-111982380D01*
X121997200Y-111982380D02*
X122044819Y-112077618D01*
X122044819Y-112077618D02*
X122044819Y-112363332D01*
X122044819Y-112363332D02*
X121997200Y-112458570D01*
X121997200Y-112458570D02*
X121949580Y-112506189D01*
X119894819Y-103679523D02*
X120609104Y-103679523D01*
X120609104Y-103679523D02*
X120751961Y-103727142D01*
X120751961Y-103727142D02*
X120847200Y-103822380D01*
X120847200Y-103822380D02*
X120894819Y-103965237D01*
X120894819Y-103965237D02*
X120894819Y-104060475D01*
X120894819Y-102679523D02*
X120894819Y-103250951D01*
X120894819Y-102965237D02*
X119894819Y-102965237D01*
X119894819Y-102965237D02*
X120037676Y-103060475D01*
X120037676Y-103060475D02*
X120132914Y-103155713D01*
X120132914Y-103155713D02*
X120180533Y-103250951D01*
X120894819Y-102203332D02*
X120894819Y-102012856D01*
X120894819Y-102012856D02*
X120847200Y-101917618D01*
X120847200Y-101917618D02*
X120799580Y-101869999D01*
X120799580Y-101869999D02*
X120656723Y-101774761D01*
X120656723Y-101774761D02*
X120466247Y-101727142D01*
X120466247Y-101727142D02*
X120085295Y-101727142D01*
X120085295Y-101727142D02*
X119990057Y-101774761D01*
X119990057Y-101774761D02*
X119942438Y-101822380D01*
X119942438Y-101822380D02*
X119894819Y-101917618D01*
X119894819Y-101917618D02*
X119894819Y-102108094D01*
X119894819Y-102108094D02*
X119942438Y-102203332D01*
X119942438Y-102203332D02*
X119990057Y-102250951D01*
X119990057Y-102250951D02*
X120085295Y-102298570D01*
X120085295Y-102298570D02*
X120323390Y-102298570D01*
X120323390Y-102298570D02*
X120418628Y-102250951D01*
X120418628Y-102250951D02*
X120466247Y-102203332D01*
X120466247Y-102203332D02*
X120513866Y-102108094D01*
X120513866Y-102108094D02*
X120513866Y-101917618D01*
X120513866Y-101917618D02*
X120466247Y-101822380D01*
X120466247Y-101822380D02*
X120418628Y-101774761D01*
X120418628Y-101774761D02*
X120323390Y-101727142D01*
X141489580Y-103036666D02*
X141537200Y-103084285D01*
X141537200Y-103084285D02*
X141584819Y-103227142D01*
X141584819Y-103227142D02*
X141584819Y-103322380D01*
X141584819Y-103322380D02*
X141537200Y-103465237D01*
X141537200Y-103465237D02*
X141441961Y-103560475D01*
X141441961Y-103560475D02*
X141346723Y-103608094D01*
X141346723Y-103608094D02*
X141156247Y-103655713D01*
X141156247Y-103655713D02*
X141013390Y-103655713D01*
X141013390Y-103655713D02*
X140822914Y-103608094D01*
X140822914Y-103608094D02*
X140727676Y-103560475D01*
X140727676Y-103560475D02*
X140632438Y-103465237D01*
X140632438Y-103465237D02*
X140584819Y-103322380D01*
X140584819Y-103322380D02*
X140584819Y-103227142D01*
X140584819Y-103227142D02*
X140632438Y-103084285D01*
X140632438Y-103084285D02*
X140680057Y-103036666D01*
X141584819Y-102084285D02*
X141584819Y-102655713D01*
X141584819Y-102369999D02*
X140584819Y-102369999D01*
X140584819Y-102369999D02*
X140727676Y-102465237D01*
X140727676Y-102465237D02*
X140822914Y-102560475D01*
X140822914Y-102560475D02*
X140870533Y-102655713D01*
X124293333Y-108564819D02*
X123960000Y-108088628D01*
X123721905Y-108564819D02*
X123721905Y-107564819D01*
X123721905Y-107564819D02*
X124102857Y-107564819D01*
X124102857Y-107564819D02*
X124198095Y-107612438D01*
X124198095Y-107612438D02*
X124245714Y-107660057D01*
X124245714Y-107660057D02*
X124293333Y-107755295D01*
X124293333Y-107755295D02*
X124293333Y-107898152D01*
X124293333Y-107898152D02*
X124245714Y-107993390D01*
X124245714Y-107993390D02*
X124198095Y-108041009D01*
X124198095Y-108041009D02*
X124102857Y-108088628D01*
X124102857Y-108088628D02*
X123721905Y-108088628D01*
X124674286Y-107660057D02*
X124721905Y-107612438D01*
X124721905Y-107612438D02*
X124817143Y-107564819D01*
X124817143Y-107564819D02*
X125055238Y-107564819D01*
X125055238Y-107564819D02*
X125150476Y-107612438D01*
X125150476Y-107612438D02*
X125198095Y-107660057D01*
X125198095Y-107660057D02*
X125245714Y-107755295D01*
X125245714Y-107755295D02*
X125245714Y-107850533D01*
X125245714Y-107850533D02*
X125198095Y-107993390D01*
X125198095Y-107993390D02*
X124626667Y-108564819D01*
X124626667Y-108564819D02*
X125245714Y-108564819D01*
X132588095Y-105724819D02*
X132588095Y-106534342D01*
X132588095Y-106534342D02*
X132635714Y-106629580D01*
X132635714Y-106629580D02*
X132683333Y-106677200D01*
X132683333Y-106677200D02*
X132778571Y-106724819D01*
X132778571Y-106724819D02*
X132969047Y-106724819D01*
X132969047Y-106724819D02*
X133064285Y-106677200D01*
X133064285Y-106677200D02*
X133111904Y-106629580D01*
X133111904Y-106629580D02*
X133159523Y-106534342D01*
X133159523Y-106534342D02*
X133159523Y-105724819D01*
X134159523Y-106724819D02*
X133588095Y-106724819D01*
X133873809Y-106724819D02*
X133873809Y-105724819D01*
X133873809Y-105724819D02*
X133778571Y-105867676D01*
X133778571Y-105867676D02*
X133683333Y-105962914D01*
X133683333Y-105962914D02*
X133588095Y-106010533D01*
D12*
X83185000Y-31750000D02*
X83185000Y-45720000D01*
X69215000Y-31750000D02*
X83185000Y-31750000D01*
X83185000Y-45720000D02*
X69215000Y-45720000D01*
X69215000Y-45720000D02*
X69215000Y-31750000D01*
X83185000Y-55880000D02*
X83185000Y-69850000D01*
X69215000Y-55880000D02*
X83185000Y-55880000D01*
X83185000Y-69850000D02*
X69215000Y-69850000D01*
X69215000Y-69850000D02*
X69215000Y-55880000D01*
X83185000Y-80010000D02*
X83185000Y-93980000D01*
X69215000Y-80010000D02*
X83185000Y-80010000D01*
X83185000Y-93980000D02*
X69215000Y-93980000D01*
X69215000Y-93980000D02*
X69215000Y-80010000D01*
X83185000Y-104140000D02*
X83185000Y-118110000D01*
X69215000Y-104140000D02*
X83185000Y-104140000D01*
X83185000Y-118110000D02*
X69215000Y-118110000D01*
X69215000Y-118110000D02*
X69215000Y-104140000D01*
X127210000Y-49690000D02*
X127210000Y-56990000D01*
X121710000Y-49690000D02*
X121710000Y-56990000D01*
X121710000Y-56990000D02*
X122860000Y-56990000D01*
X127210000Y-60485000D02*
X127210000Y-67785000D01*
X121710000Y-60485000D02*
X121710000Y-67785000D01*
X121710000Y-67785000D02*
X122860000Y-67785000D01*
X127210000Y-71140000D02*
X127210000Y-78440000D01*
X121710000Y-71140000D02*
X121710000Y-78440000D01*
X121710000Y-78440000D02*
X122860000Y-78440000D01*
X127210000Y-82075000D02*
X127210000Y-89375000D01*
X121710000Y-82075000D02*
X121710000Y-89375000D01*
X121710000Y-89375000D02*
X122860000Y-89375000D01*
X127210000Y-92870000D02*
X127210000Y-100170000D01*
X121710000Y-92870000D02*
X121710000Y-100170000D01*
X121710000Y-100170000D02*
X122860000Y-100170000D01*
X142540000Y-53410000D02*
X155360000Y-53410000D01*
X155360000Y-53410000D02*
X155360000Y-43190000D01*
X148050000Y-52300000D02*
X148050000Y-53410000D01*
X151460000Y-52300000D02*
X148050000Y-52300000D01*
X153060000Y-52300000D02*
X153060000Y-49900000D01*
X155360000Y-52300000D02*
X153060000Y-52300000D01*
X142540000Y-52190000D02*
X142540000Y-53410000D01*
X145440000Y-52190000D02*
X142540000Y-52190000D01*
X145440000Y-51910000D02*
X145440000Y-52190000D01*
X144450000Y-51200000D02*
X144450000Y-50400000D01*
X148050000Y-51200000D02*
X151460000Y-51200000D01*
X151460000Y-51200000D02*
X151460000Y-52300000D01*
X144850000Y-50800000D02*
X144450000Y-51200000D01*
X148050000Y-50700000D02*
X148050000Y-51200000D01*
X153060000Y-50700000D02*
X148050000Y-50700000D01*
X144450000Y-50400000D02*
X144850000Y-50800000D01*
X149450000Y-49100000D02*
X149450000Y-47500000D01*
X151250000Y-49100000D02*
X149450000Y-49100000D01*
X149450000Y-47500000D02*
X151250000Y-47500000D01*
X151250000Y-47500000D02*
X151250000Y-49100000D01*
X153060000Y-46700000D02*
X153060000Y-44300000D01*
X148050000Y-45900000D02*
X148050000Y-45400000D01*
X153060000Y-45900000D02*
X148050000Y-45900000D01*
X148050000Y-45400000D02*
X151460000Y-45400000D01*
X151460000Y-45400000D02*
X151460000Y-44300000D01*
X142540000Y-44410000D02*
X145440000Y-44410000D01*
X145440000Y-44410000D02*
X145440000Y-44690000D01*
X148050000Y-44300000D02*
X148050000Y-43190000D01*
X151460000Y-44300000D02*
X148050000Y-44300000D01*
X153060000Y-44300000D02*
X155360000Y-44300000D01*
X142540000Y-43190000D02*
X142540000Y-44410000D01*
X155360000Y-43190000D02*
X142540000Y-43190000D01*
X142540000Y-66110000D02*
X155360000Y-66110000D01*
X155360000Y-66110000D02*
X155360000Y-55890000D01*
X148050000Y-65000000D02*
X148050000Y-66110000D01*
X151460000Y-65000000D02*
X148050000Y-65000000D01*
X153060000Y-65000000D02*
X153060000Y-62600000D01*
X155360000Y-65000000D02*
X153060000Y-65000000D01*
X142540000Y-64890000D02*
X142540000Y-66110000D01*
X145440000Y-64890000D02*
X142540000Y-64890000D01*
X145440000Y-64610000D02*
X145440000Y-64890000D01*
X144450000Y-63900000D02*
X144450000Y-63100000D01*
X148050000Y-63900000D02*
X151460000Y-63900000D01*
X151460000Y-63900000D02*
X151460000Y-65000000D01*
X144850000Y-63500000D02*
X144450000Y-63900000D01*
X148050000Y-63400000D02*
X148050000Y-63900000D01*
X153060000Y-63400000D02*
X148050000Y-63400000D01*
X144450000Y-63100000D02*
X144850000Y-63500000D01*
X149450000Y-61800000D02*
X149450000Y-60200000D01*
X151250000Y-61800000D02*
X149450000Y-61800000D01*
X149450000Y-60200000D02*
X151250000Y-60200000D01*
X151250000Y-60200000D02*
X151250000Y-61800000D01*
X153060000Y-59400000D02*
X153060000Y-57000000D01*
X148050000Y-58600000D02*
X148050000Y-58100000D01*
X153060000Y-58600000D02*
X148050000Y-58600000D01*
X148050000Y-58100000D02*
X151460000Y-58100000D01*
X151460000Y-58100000D02*
X151460000Y-57000000D01*
X142540000Y-57110000D02*
X145440000Y-57110000D01*
X145440000Y-57110000D02*
X145440000Y-57390000D01*
X148050000Y-57000000D02*
X148050000Y-55890000D01*
X151460000Y-57000000D02*
X148050000Y-57000000D01*
X153060000Y-57000000D02*
X155360000Y-57000000D01*
X142540000Y-55890000D02*
X142540000Y-57110000D01*
X155360000Y-55890000D02*
X142540000Y-55890000D01*
X142540000Y-94050000D02*
X155360000Y-94050000D01*
X155360000Y-94050000D02*
X155360000Y-83830000D01*
X148050000Y-92940000D02*
X148050000Y-94050000D01*
X151460000Y-92940000D02*
X148050000Y-92940000D01*
X153060000Y-92940000D02*
X153060000Y-90540000D01*
X155360000Y-92940000D02*
X153060000Y-92940000D01*
X142540000Y-92830000D02*
X142540000Y-94050000D01*
X145440000Y-92830000D02*
X142540000Y-92830000D01*
X145440000Y-92550000D02*
X145440000Y-92830000D01*
X144450000Y-91840000D02*
X144450000Y-91040000D01*
X148050000Y-91840000D02*
X151460000Y-91840000D01*
X151460000Y-91840000D02*
X151460000Y-92940000D01*
X144850000Y-91440000D02*
X144450000Y-91840000D01*
X148050000Y-91340000D02*
X148050000Y-91840000D01*
X153060000Y-91340000D02*
X148050000Y-91340000D01*
X144450000Y-91040000D02*
X144850000Y-91440000D01*
X149450000Y-89740000D02*
X149450000Y-88140000D01*
X151250000Y-89740000D02*
X149450000Y-89740000D01*
X149450000Y-88140000D02*
X151250000Y-88140000D01*
X151250000Y-88140000D02*
X151250000Y-89740000D01*
X153060000Y-87340000D02*
X153060000Y-84940000D01*
X148050000Y-86540000D02*
X148050000Y-86040000D01*
X153060000Y-86540000D02*
X148050000Y-86540000D01*
X148050000Y-86040000D02*
X151460000Y-86040000D01*
X151460000Y-86040000D02*
X151460000Y-84940000D01*
X142540000Y-85050000D02*
X145440000Y-85050000D01*
X145440000Y-85050000D02*
X145440000Y-85330000D01*
X148050000Y-84940000D02*
X148050000Y-83830000D01*
X151460000Y-84940000D02*
X148050000Y-84940000D01*
X153060000Y-84940000D02*
X155360000Y-84940000D01*
X142540000Y-83830000D02*
X142540000Y-85050000D01*
X155360000Y-83830000D02*
X142540000Y-83830000D01*
X142540000Y-106750000D02*
X155360000Y-106750000D01*
X155360000Y-106750000D02*
X155360000Y-96530000D01*
X148050000Y-105640000D02*
X148050000Y-106750000D01*
X151460000Y-105640000D02*
X148050000Y-105640000D01*
X153060000Y-105640000D02*
X153060000Y-103240000D01*
X155360000Y-105640000D02*
X153060000Y-105640000D01*
X142540000Y-105530000D02*
X142540000Y-106750000D01*
X145440000Y-105530000D02*
X142540000Y-105530000D01*
X145440000Y-105250000D02*
X145440000Y-105530000D01*
X144450000Y-104540000D02*
X144450000Y-103740000D01*
X148050000Y-104540000D02*
X151460000Y-104540000D01*
X151460000Y-104540000D02*
X151460000Y-105640000D01*
X144850000Y-104140000D02*
X144450000Y-104540000D01*
X148050000Y-104040000D02*
X148050000Y-104540000D01*
X153060000Y-104040000D02*
X148050000Y-104040000D01*
X144450000Y-103740000D02*
X144850000Y-104140000D01*
X149450000Y-102440000D02*
X149450000Y-100840000D01*
X151250000Y-102440000D02*
X149450000Y-102440000D01*
X149450000Y-100840000D02*
X151250000Y-100840000D01*
X151250000Y-100840000D02*
X151250000Y-102440000D01*
X153060000Y-100040000D02*
X153060000Y-97640000D01*
X148050000Y-99240000D02*
X148050000Y-98740000D01*
X153060000Y-99240000D02*
X148050000Y-99240000D01*
X148050000Y-98740000D02*
X151460000Y-98740000D01*
X151460000Y-98740000D02*
X151460000Y-97640000D01*
X142540000Y-97750000D02*
X145440000Y-97750000D01*
X145440000Y-97750000D02*
X145440000Y-98030000D01*
X148050000Y-97640000D02*
X148050000Y-96530000D01*
X151460000Y-97640000D02*
X148050000Y-97640000D01*
X153060000Y-97640000D02*
X155360000Y-97640000D01*
X142540000Y-96530000D02*
X142540000Y-97750000D01*
X155360000Y-96530000D02*
X142540000Y-96530000D01*
X120350000Y-30410000D02*
X107530000Y-30410000D01*
X107530000Y-30410000D02*
X107530000Y-43130000D01*
X109830000Y-31520000D02*
X109830000Y-35170000D01*
X107530000Y-31520000D02*
X109830000Y-31520000D01*
X120350000Y-31630000D02*
X120350000Y-30410000D01*
X117450000Y-31630000D02*
X120350000Y-31630000D01*
X117450000Y-31910000D02*
X117450000Y-31630000D01*
X114840000Y-32470000D02*
X114840000Y-30410000D01*
X111430000Y-32470000D02*
X114840000Y-32470000D01*
X118440000Y-32620000D02*
X118440000Y-33420000D01*
X118040000Y-33020000D02*
X118440000Y-32620000D01*
X118440000Y-33420000D02*
X118040000Y-33020000D01*
X114840000Y-33570000D02*
X111430000Y-33570000D01*
X111430000Y-33570000D02*
X111430000Y-32470000D01*
X114840000Y-34070000D02*
X114840000Y-33570000D01*
X109830000Y-34070000D02*
X114840000Y-34070000D01*
X113440000Y-35970000D02*
X113440000Y-37570000D01*
X111640000Y-35970000D02*
X113440000Y-35970000D01*
X113440000Y-37570000D02*
X111640000Y-37570000D01*
X111640000Y-37570000D02*
X111640000Y-35970000D01*
X109830000Y-38370000D02*
X109830000Y-42020000D01*
X114840000Y-39470000D02*
X114840000Y-39970000D01*
X109830000Y-39470000D02*
X114840000Y-39470000D01*
X114840000Y-39970000D02*
X111430000Y-39970000D01*
X111430000Y-39970000D02*
X111430000Y-41070000D01*
X114840000Y-41070000D02*
X114840000Y-43130000D01*
X111430000Y-41070000D02*
X114840000Y-41070000D01*
X120350000Y-41910000D02*
X117450000Y-41910000D01*
X117450000Y-41910000D02*
X117450000Y-41630000D01*
X109830000Y-42020000D02*
X107530000Y-42020000D01*
X120350000Y-43130000D02*
X120350000Y-41910000D01*
X107530000Y-43130000D02*
X120350000Y-43130000D01*
X132150000Y-39070000D02*
X132150000Y-26250000D01*
X132150000Y-26250000D02*
X121930000Y-26250000D01*
X131040000Y-33560000D02*
X132150000Y-33560000D01*
X131040000Y-30150000D02*
X131040000Y-33560000D01*
X131040000Y-28550000D02*
X128640000Y-28550000D01*
X131040000Y-26250000D02*
X131040000Y-28550000D01*
X130930000Y-39070000D02*
X132150000Y-39070000D01*
X130930000Y-36170000D02*
X130930000Y-39070000D01*
X130650000Y-36170000D02*
X130930000Y-36170000D01*
X129940000Y-37160000D02*
X129140000Y-37160000D01*
X129940000Y-33560000D02*
X129940000Y-30150000D01*
X129940000Y-30150000D02*
X131040000Y-30150000D01*
X129540000Y-36760000D02*
X129940000Y-37160000D01*
X129440000Y-33560000D02*
X129940000Y-33560000D01*
X129440000Y-28550000D02*
X129440000Y-33560000D01*
X129140000Y-37160000D02*
X129540000Y-36760000D01*
X127840000Y-32160000D02*
X126240000Y-32160000D01*
X127840000Y-30360000D02*
X127840000Y-32160000D01*
X126240000Y-32160000D02*
X126240000Y-30360000D01*
X126240000Y-30360000D02*
X127840000Y-30360000D01*
X125440000Y-28550000D02*
X123040000Y-28550000D01*
X124640000Y-33560000D02*
X124140000Y-33560000D01*
X124640000Y-28550000D02*
X124640000Y-33560000D01*
X124140000Y-33560000D02*
X124140000Y-30150000D01*
X124140000Y-30150000D02*
X123040000Y-30150000D01*
X123150000Y-39070000D02*
X123150000Y-36170000D01*
X123150000Y-36170000D02*
X123430000Y-36170000D01*
X123040000Y-33560000D02*
X121930000Y-33560000D01*
X123040000Y-30150000D02*
X123040000Y-33560000D01*
X123040000Y-28550000D02*
X123040000Y-26250000D01*
X121930000Y-39070000D02*
X123150000Y-39070000D01*
X121930000Y-26250000D02*
X121930000Y-39070000D01*
X151835000Y-39070000D02*
X151835000Y-26250000D01*
X151835000Y-26250000D02*
X141615000Y-26250000D01*
X150725000Y-33560000D02*
X151835000Y-33560000D01*
X150725000Y-30150000D02*
X150725000Y-33560000D01*
X150725000Y-28550000D02*
X148325000Y-28550000D01*
X150725000Y-26250000D02*
X150725000Y-28550000D01*
X150615000Y-39070000D02*
X151835000Y-39070000D01*
X150615000Y-36170000D02*
X150615000Y-39070000D01*
X150335000Y-36170000D02*
X150615000Y-36170000D01*
X149625000Y-37160000D02*
X148825000Y-37160000D01*
X149625000Y-33560000D02*
X149625000Y-30150000D01*
X149625000Y-30150000D02*
X150725000Y-30150000D01*
X149225000Y-36760000D02*
X149625000Y-37160000D01*
X149125000Y-33560000D02*
X149625000Y-33560000D01*
X149125000Y-28550000D02*
X149125000Y-33560000D01*
X148825000Y-37160000D02*
X149225000Y-36760000D01*
X147525000Y-32160000D02*
X145925000Y-32160000D01*
X147525000Y-30360000D02*
X147525000Y-32160000D01*
X145925000Y-32160000D02*
X145925000Y-30360000D01*
X145925000Y-30360000D02*
X147525000Y-30360000D01*
X145125000Y-28550000D02*
X142725000Y-28550000D01*
X144325000Y-33560000D02*
X143825000Y-33560000D01*
X144325000Y-28550000D02*
X144325000Y-33560000D01*
X143825000Y-33560000D02*
X143825000Y-30150000D01*
X143825000Y-30150000D02*
X142725000Y-30150000D01*
X142835000Y-39070000D02*
X142835000Y-36170000D01*
X142835000Y-36170000D02*
X143115000Y-36170000D01*
X142725000Y-33560000D02*
X141615000Y-33560000D01*
X142725000Y-30150000D02*
X142725000Y-33560000D01*
X142725000Y-28550000D02*
X142725000Y-26250000D01*
X141615000Y-39070000D02*
X142835000Y-39070000D01*
X141615000Y-26250000D02*
X141615000Y-39070000D01*
X141535000Y-110790000D02*
X141535000Y-123610000D01*
X141535000Y-123610000D02*
X151755000Y-123610000D01*
X142645000Y-116300000D02*
X141535000Y-116300000D01*
X142645000Y-119710000D02*
X142645000Y-116300000D01*
X142645000Y-121310000D02*
X145045000Y-121310000D01*
X142645000Y-123610000D02*
X142645000Y-121310000D01*
X142755000Y-110790000D02*
X141535000Y-110790000D01*
X142755000Y-113690000D02*
X142755000Y-110790000D01*
X143035000Y-113690000D02*
X142755000Y-113690000D01*
X143745000Y-112700000D02*
X144545000Y-112700000D01*
X143745000Y-116300000D02*
X143745000Y-119710000D01*
X143745000Y-119710000D02*
X142645000Y-119710000D01*
X144145000Y-113100000D02*
X143745000Y-112700000D01*
X144245000Y-116300000D02*
X143745000Y-116300000D01*
X144245000Y-121310000D02*
X144245000Y-116300000D01*
X144545000Y-112700000D02*
X144145000Y-113100000D01*
X145845000Y-117700000D02*
X147445000Y-117700000D01*
X145845000Y-119500000D02*
X145845000Y-117700000D01*
X147445000Y-117700000D02*
X147445000Y-119500000D01*
X147445000Y-119500000D02*
X145845000Y-119500000D01*
X148245000Y-121310000D02*
X150645000Y-121310000D01*
X149045000Y-116300000D02*
X149545000Y-116300000D01*
X149045000Y-121310000D02*
X149045000Y-116300000D01*
X149545000Y-116300000D02*
X149545000Y-119710000D01*
X149545000Y-119710000D02*
X150645000Y-119710000D01*
X150535000Y-110790000D02*
X150535000Y-113690000D01*
X150535000Y-113690000D02*
X150255000Y-113690000D01*
X150645000Y-116300000D02*
X151755000Y-116300000D01*
X150645000Y-119710000D02*
X150645000Y-116300000D01*
X150645000Y-121310000D02*
X150645000Y-123610000D01*
X151755000Y-110790000D02*
X150535000Y-110790000D01*
X151755000Y-123610000D02*
X151755000Y-110790000D01*
X121850000Y-110790000D02*
X121850000Y-123610000D01*
X121850000Y-123610000D02*
X132070000Y-123610000D01*
X122960000Y-116300000D02*
X121850000Y-116300000D01*
X122960000Y-119710000D02*
X122960000Y-116300000D01*
X122960000Y-121310000D02*
X125360000Y-121310000D01*
X122960000Y-123610000D02*
X122960000Y-121310000D01*
X123070000Y-110790000D02*
X121850000Y-110790000D01*
X123070000Y-113690000D02*
X123070000Y-110790000D01*
X123350000Y-113690000D02*
X123070000Y-113690000D01*
X124060000Y-112700000D02*
X124860000Y-112700000D01*
X124060000Y-116300000D02*
X124060000Y-119710000D01*
X124060000Y-119710000D02*
X122960000Y-119710000D01*
X124460000Y-113100000D02*
X124060000Y-112700000D01*
X124560000Y-116300000D02*
X124060000Y-116300000D01*
X124560000Y-121310000D02*
X124560000Y-116300000D01*
X124860000Y-112700000D02*
X124460000Y-113100000D01*
X126160000Y-117700000D02*
X127760000Y-117700000D01*
X126160000Y-119500000D02*
X126160000Y-117700000D01*
X127760000Y-117700000D02*
X127760000Y-119500000D01*
X127760000Y-119500000D02*
X126160000Y-119500000D01*
X128560000Y-121310000D02*
X130960000Y-121310000D01*
X129360000Y-116300000D02*
X129860000Y-116300000D01*
X129360000Y-121310000D02*
X129360000Y-116300000D01*
X129860000Y-116300000D02*
X129860000Y-119710000D01*
X129860000Y-119710000D02*
X130960000Y-119710000D01*
X130850000Y-110790000D02*
X130850000Y-113690000D01*
X130850000Y-113690000D02*
X130570000Y-113690000D01*
X130960000Y-116300000D02*
X132070000Y-116300000D01*
X130960000Y-119710000D02*
X130960000Y-116300000D01*
X130960000Y-121310000D02*
X130960000Y-123610000D01*
X132070000Y-110790000D02*
X130850000Y-110790000D01*
X132070000Y-123610000D02*
X132070000Y-110790000D01*
X129777258Y-108472500D02*
X129302742Y-108472500D01*
X129777258Y-107427500D02*
X129302742Y-107427500D01*
X120500000Y-106670000D02*
X107680000Y-106670000D01*
X107680000Y-106670000D02*
X107680000Y-119390000D01*
X109980000Y-107780000D02*
X109980000Y-111430000D01*
X107680000Y-107780000D02*
X109980000Y-107780000D01*
X120500000Y-107890000D02*
X120500000Y-106670000D01*
X117600000Y-107890000D02*
X120500000Y-107890000D01*
X117600000Y-108170000D02*
X117600000Y-107890000D01*
X114990000Y-108730000D02*
X114990000Y-106670000D01*
X111580000Y-108730000D02*
X114990000Y-108730000D01*
X118590000Y-108880000D02*
X118590000Y-109680000D01*
X118190000Y-109280000D02*
X118590000Y-108880000D01*
X118590000Y-109680000D02*
X118190000Y-109280000D01*
X114990000Y-109830000D02*
X111580000Y-109830000D01*
X111580000Y-109830000D02*
X111580000Y-108730000D01*
X114990000Y-110330000D02*
X114990000Y-109830000D01*
X109980000Y-110330000D02*
X114990000Y-110330000D01*
X113590000Y-112230000D02*
X113590000Y-113830000D01*
X111790000Y-112230000D02*
X113590000Y-112230000D01*
X113590000Y-113830000D02*
X111790000Y-113830000D01*
X111790000Y-113830000D02*
X111790000Y-112230000D01*
X109980000Y-114630000D02*
X109980000Y-118280000D01*
X114990000Y-115730000D02*
X114990000Y-116230000D01*
X109980000Y-115730000D02*
X114990000Y-115730000D01*
X114990000Y-116230000D02*
X111580000Y-116230000D01*
X111580000Y-116230000D02*
X111580000Y-117330000D01*
X114990000Y-117330000D02*
X114990000Y-119390000D01*
X111580000Y-117330000D02*
X114990000Y-117330000D01*
X120500000Y-118170000D02*
X117600000Y-118170000D01*
X117600000Y-118170000D02*
X117600000Y-117890000D01*
X109980000Y-118280000D02*
X107680000Y-118280000D01*
X120500000Y-119390000D02*
X120500000Y-118170000D01*
X107680000Y-119390000D02*
X120500000Y-119390000D01*
X119440000Y-101540000D02*
X119440000Y-102870000D01*
X118110000Y-101540000D02*
X119440000Y-101540000D01*
X116840000Y-101540000D02*
X114240000Y-101540000D01*
X116840000Y-101540000D02*
X116840000Y-104200000D01*
X114240000Y-101540000D02*
X114240000Y-104200000D01*
X116840000Y-104200000D02*
X114240000Y-104200000D01*
X140210000Y-102729420D02*
X140210000Y-103010580D01*
X139190000Y-102729420D02*
X139190000Y-103010580D01*
X124697258Y-107202500D02*
X124222742Y-107202500D01*
X124697258Y-106157500D02*
X124222742Y-106157500D01*
X133350000Y-105430000D02*
X136800000Y-105430000D01*
X133350000Y-105430000D02*
X131400000Y-105430000D01*
X133350000Y-100310000D02*
X135300000Y-100310000D01*
X133350000Y-100310000D02*
X131400000Y-100310000D01*
M02*
