M48
; DRILL file {KiCad (5.1.5)-3} date 2021/11/03 12:59:00
; FORMAT={-:-/ absolute / metric / decimal}
; #@! TF.CreationDate,2021-11-03T12:59:00+09:00
; #@! TF.GenerationSoftware,Kicad,Pcbnew,(5.1.5)-3
; #@! TF.FileFunction,NonPlated,1,2,NPTH
FMAT,2
METRIC
T1C1.700
T2C2.000
T3C4.000
%
G90
G05
T1
X76.2Y-81.915
X76.2Y-33.655
X76.2Y-43.815
X76.2Y-57.785
X76.2Y-67.945
X76.2Y-106.045
X76.2Y-116.205
X76.2Y-92.075
T3
X76.2Y-62.865
X76.2Y-111.125
X76.2Y-86.995
X76.2Y-38.735
T2
G00X101.75Y-69.37
M15
G01X101.75Y-70.17
M16
G05
G00X93.83Y-98.23
M15
G01X93.83Y-97.43
M16
G05
G00X127.44Y-29.06
M15
G01X126.64Y-29.06
M16
G05
G00X152.55Y-89.34
M15
G01X152.55Y-88.54
M16
G05
G00X110.34Y-36.37
M15
G01X110.34Y-37.17
M16
G05
G00X146.245Y-120.8
M15
G01X147.045Y-120.8
M16
G05
G00X126.56Y-120.8
M15
G01X127.36Y-120.8
M16
G05
G00X93.83Y-52.55
M15
G01X93.83Y-51.75
M16
G05
G00X147.125Y-29.06
M15
G01X146.325Y-29.06
M16
G05
G00X101.75Y-83.4
M15
G01X101.75Y-84.2
M16
G05
G00X152.55Y-102.04
M15
G01X152.55Y-101.24
M16
G05
G00X152.55Y-48.7
M15
G01X152.55Y-47.9
M16
G05
G00X110.34Y-112.57
M15
G01X110.34Y-113.37
M16
G05
G00X152.55Y-61.4
M15
G01X152.55Y-60.6
M16
G05
T0
M30
