M48
; DRILL file {KiCad 7.0.7} date Mon Oct  2 17:26:44 2023
; FORMAT={-:-/ absolute / inch / decimal}
; #@! TF.CreationDate,2023-10-02T17:26:44+09:00
; #@! TF.GenerationSoftware,Kicad,Pcbnew,7.0.7
; #@! TF.FileFunction,Plated,1,2,PTH
FMAT,2
INCH
; #@! TA.AperFunction,Plated,PTH,ViaDrill
T1C0.0157
; #@! TA.AperFunction,Plated,PTH,ComponentDrill
T2C0.0374
; #@! TA.AperFunction,Plated,PTH,ComponentDrill
T3C0.0394
; #@! TA.AperFunction,Plated,PTH,ComponentDrill
T4C0.0591
; #@! TA.AperFunction,Plated,PTH,ComponentDrill
T5C0.1260
%
G90
G05
T1
X2.625Y-1.3
X2.625Y-1.45
X2.625Y-1.6
X2.625Y-4.35
X2.625Y-4.65
X2.65Y-2.35
X2.65Y-3.175
X2.65Y-3.6
X2.75Y-2.5
X2.75Y-2.825
X2.825Y-3.525
X2.9Y-1.125
X2.95Y-2.925
X3.05Y-2.825
X3.075Y-3.825
X3.15Y-2.1
X3.225Y-3.0
X3.325Y-4.05
X3.35Y-3.6
X3.375Y-2.85
X3.4Y-1.175
X3.4Y-3.825
X3.45Y-1.825
X3.525Y-2.225
X3.575Y-3.6
X3.6Y-1.95
X3.6Y-2.625
X3.65Y-2.525
X3.75Y-3.6
X3.75Y-4.075
X3.825Y-1.2
X3.825Y-2.3
X4.3Y-3.6
X4.45Y-3.6
X4.45Y-4.275
X4.45Y-4.6
X4.5Y-3.05
X4.525Y-2.425
X4.55Y-1.85
X4.55Y-3.9
X4.6Y-3.4
X4.625Y-3.7
X4.675Y-2.825
X4.7Y-3.025
X4.7Y-4.5
X4.725Y-3.45
X4.75Y-1.175
X4.75Y-1.55
X4.75Y-2.275
X4.75Y-2.625
X4.75Y-3.55
X4.75Y-3.95
X4.75Y-4.175
X4.875Y-1.925
X4.9Y-4.65
X4.925Y-1.725
X4.95Y-4.1
X4.95Y-4.3
X4.95Y-4.4
X4.963Y-3.6543
X5.05Y-2.075
X5.05Y-2.325
X5.05Y-2.625
X5.075Y-1.9
X5.075Y-2.15
X5.075Y-2.925
X5.1Y-1.675
X5.1Y-3.55
X5.1Y-3.85
X5.1Y-4.35
X5.15Y-1.25
X5.175Y-2.8
X5.2Y-3.225
X5.2Y-3.65
X5.25Y-4.2
X5.275Y-2.425
X5.275Y-2.75
X5.3Y-1.875
X5.3Y-4.65
X5.325Y-2.05
X5.325Y-2.225
X5.4Y-3.7
X5.475Y-2.65
X5.55Y-2.1
X5.55Y-3.95
X5.55Y-4.2
X5.575Y-2.5
X5.6Y-2.95
X5.625Y-1.225
X5.65Y-4.65
X5.7Y-2.1
X5.7Y-3.175
X5.7Y-4.35
X5.8Y-1.625
X5.8Y-4.3
X5.9Y-2.825
X5.925Y-2.2
X5.95Y-3.275
X5.95Y-3.725
X5.975Y-1.3
X5.975Y-1.625
X6.025Y-4.225
X6.025Y-4.525
T2
X3.75Y-2.55
X3.75Y-2.6484
X3.75Y-2.7469
X3.75Y-2.8453
X3.75Y-2.9437
X3.75Y-3.25
X3.75Y-3.3484
X3.95Y-1.8563
X3.95Y-1.9547
X3.95Y-2.0531
X3.95Y-2.1516
X3.95Y-2.25
X3.95Y-3.7531
X3.95Y-3.8516
X3.95Y-3.95
X4.6Y-1.3
X4.6Y-1.3984
X4.6Y-1.4969
X4.6Y-1.5953
X4.6059Y-4.3024
X4.6059Y-4.4008
X4.6059Y-4.4992
X4.6059Y-4.5976
X4.9Y-4.5
X4.9031Y-1.4
X4.9984Y-4.5
X5.0016Y-1.4
X5.0969Y-4.5
X5.1Y-1.4
X5.675Y-4.5
X5.6781Y-1.4
X5.75Y-1.8031
X5.75Y-1.9016
X5.75Y-2.0
X5.75Y-2.3031
X5.75Y-2.4016
X5.75Y-2.5
X5.75Y-3.4031
X5.75Y-3.5016
X5.75Y-3.6
X5.75Y-3.9031
X5.75Y-4.0016
X5.75Y-4.1
X5.7734Y-4.5
X5.7766Y-1.4
X5.8719Y-4.5
X5.875Y-1.4
T3
X2.5Y-2.5
X2.5Y-2.6
X2.5Y-2.7
X2.5Y-2.8
X2.5Y-2.9
X2.5Y-3.0
X2.5Y-3.1
X2.5Y-3.2
X2.5Y-3.3
X2.5Y-3.4
X3.5Y-2.5
X3.5Y-2.6
X3.5Y-2.7
X3.5Y-2.8
X3.5Y-2.9
X3.5Y-3.0
X3.5Y-3.1
X3.5Y-3.2
X3.5Y-3.3
X3.5Y-3.4
X4.375Y-2.5
X4.375Y-2.6
X4.375Y-2.7
X4.375Y-2.8
X4.375Y-2.9
X4.375Y-3.0
X4.375Y-3.1
X4.375Y-3.2
X4.375Y-3.3
X4.375Y-3.4
X4.55Y-4.05
X4.65Y-4.05
X5.375Y-2.5
X5.375Y-2.6
X5.375Y-2.7
X5.375Y-2.8
X5.375Y-2.9
X5.375Y-3.0
X5.375Y-3.1
X5.375Y-3.2
X5.375Y-3.3
X5.375Y-3.4
T4
X3.1Y-1.375
X3.1Y-2.325
X3.1Y-3.275
X3.1Y-4.225
X3.2Y-1.625
X3.2Y-2.575
X3.2Y-3.525
X3.2Y-4.475
T5
X2.475Y-2.0
X2.475Y-3.9
X3.525Y-1.5
X3.525Y-4.4
X4.35Y-2.0
X4.35Y-3.9
X5.4Y-1.5
X5.4Y-4.4
T0
M30
