G04 #@! TF.GenerationSoftware,KiCad,Pcbnew,7.0.7*
G04 #@! TF.CreationDate,2023-10-02T17:26:39+09:00*
G04 #@! TF.ProjectId,control_interface_boad_2021-2,636f6e74-726f-46c5-9f69-6e7465726661,rev?*
G04 #@! TF.SameCoordinates,Original*
G04 #@! TF.FileFunction,Profile,NP*
%FSLAX46Y46*%
G04 Gerber Fmt 4.6, Leading zero omitted, Abs format (unit mm)*
G04 Created by KiCad (PCBNEW 7.0.7) date 2023-10-02 17:26:39*
%MOMM*%
%LPD*%
G01*
G04 APERTURE LIST*
G04 #@! TA.AperFunction,Profile*
%ADD10C,0.050000*%
G04 #@! TD*
G04 APERTURE END LIST*
D10*
X104140000Y-120650000D02*
X104140000Y-95250000D01*
X100330000Y-25400000D02*
X62865000Y-25400000D01*
X62865000Y-124460000D02*
X100330000Y-124460000D01*
X110490000Y-25400000D02*
X152400000Y-25400000D01*
X156210000Y-29210000D02*
X156210000Y-120650000D01*
X152400000Y-124460000D02*
X110490000Y-124460000D01*
X106680000Y-54610000D02*
X106680000Y-29210000D01*
X104140000Y-54610000D02*
X104140000Y-29210000D01*
X104140000Y-54610000D02*
G75*
G03*
X106680000Y-54610000I1270000J0D01*
G01*
X156210000Y-29210000D02*
G75*
G03*
X152400000Y-25400000I-3810000J0D01*
G01*
X104140000Y-29210000D02*
G75*
G03*
X100330000Y-25400000I-3810000J0D01*
G01*
X106680000Y-120650000D02*
X106680000Y-95250000D01*
X62865000Y-25400000D02*
G75*
G03*
X59055000Y-29210000I0J-3810000D01*
G01*
X59055000Y-120650000D02*
G75*
G03*
X62865000Y-124460000I3810000J0D01*
G01*
X59055000Y-120650000D02*
X59055000Y-29210000D01*
X110490000Y-25400000D02*
G75*
G03*
X106680000Y-29210000I0J-3810000D01*
G01*
X100330000Y-124460000D02*
G75*
G03*
X104140000Y-120650000I0J3810000D01*
G01*
X152400000Y-124460000D02*
G75*
G03*
X156210000Y-120650000I0J3810000D01*
G01*
X106680000Y-120650000D02*
G75*
G03*
X110490000Y-124460000I3810000J0D01*
G01*
X106680000Y-95250000D02*
G75*
G03*
X104140000Y-95250000I-1270000J0D01*
G01*
M02*
