M48
; DRILL file {KiCad (5.1.5)-3} date 2021/11/03 12:59:00
; FORMAT={-:-/ absolute / metric / decimal}
; #@! TF.CreationDate,2021-11-03T12:59:00+09:00
; #@! TF.GenerationSoftware,Kicad,Pcbnew,(5.1.5)-3
; #@! TF.FileFunction,Plated,1,2,PTH
FMAT,2
METRIC
T1C0.400
T2C0.950
T3C1.000
T4C1.500
T5C3.200
%
G90
G05
T1
X66.675Y-33.02
X66.675Y-36.83
X66.675Y-40.64
X66.675Y-110.49
X66.675Y-118.11
X67.31Y-59.69
X67.31Y-80.645
X67.31Y-91.44
X69.85Y-63.5
X69.85Y-71.755
X71.755Y-89.535
X73.66Y-28.575
X74.93Y-74.295
X77.47Y-71.755
X78.105Y-97.155
X80.01Y-53.34
X81.915Y-76.2
X84.455Y-102.87
X85.09Y-91.44
X85.725Y-72.39
X86.36Y-29.845
X86.36Y-97.155
X87.63Y-46.355
X89.535Y-56.515
X90.805Y-91.44
X91.44Y-49.53
X91.44Y-66.675
X92.71Y-64.135
X95.25Y-91.44
X95.25Y-103.505
X97.155Y-30.48
X97.155Y-58.42
X113.03Y-108.585
X113.03Y-116.84
X114.3Y-77.47
X114.935Y-61.595
X115.57Y-46.99
X116.84Y-86.36
X117.475Y-93.98
X118.745Y-71.755
X119.38Y-76.835
X120.015Y-87.63
X120.65Y-29.845
X120.65Y-39.37
X120.65Y-57.785
X120.65Y-66.675
X120.65Y-106.045
X123.825Y-48.895
X124.46Y-118.11
X125.095Y-43.815
X125.095Y-102.235
X128.27Y-52.705
X128.27Y-59.055
X128.27Y-66.675
X128.905Y-48.26
X128.905Y-54.61
X128.905Y-74.295
X129.54Y-42.545
X129.54Y-90.17
X129.54Y-97.79
X130.175Y-107.315
X130.81Y-31.75
X131.445Y-71.12
X132.08Y-81.915
X133.35Y-93.345
X133.985Y-61.595
X133.985Y-69.85
X134.62Y-47.625
X134.62Y-118.11
X135.255Y-52.07
X135.255Y-56.515
X135.255Y-103.505
X137.16Y-93.98
X139.065Y-67.31
X140.97Y-53.34
X141.605Y-63.5
X142.24Y-74.93
X142.875Y-31.115
X143.51Y-118.11
X144.78Y-53.34
X144.78Y-80.645
X147.32Y-41.275
X149.86Y-71.755
X150.495Y-55.88
X151.13Y-83.185
X151.13Y-94.615
X151.765Y-33.02
X151.765Y-41.275
X153.035Y-107.315
X153.035Y-114.935
T2
X146.05Y-86.44
X146.05Y-88.94
X146.05Y-91.44
X116.84Y-33.02
X116.84Y-35.52
X116.84Y-38.02
X116.84Y-40.52
X144.145Y-114.3
X146.645Y-114.3
X149.145Y-114.3
X124.46Y-114.3
X126.96Y-114.3
X129.46Y-114.3
X100.33Y-47.15
X100.33Y-49.65
X100.33Y-52.15
X100.33Y-54.65
X100.33Y-57.15
X144.225Y-35.56
X146.725Y-35.56
X149.225Y-35.56
X95.25Y-82.55
X95.25Y-85.05
X146.05Y-99.14
X146.05Y-101.64
X146.05Y-104.14
X146.05Y-45.8
X146.05Y-48.3
X146.05Y-50.8
X116.84Y-109.22
X116.84Y-111.72
X116.84Y-114.22
X116.84Y-116.72
X146.05Y-58.5
X146.05Y-61.0
X146.05Y-63.5
X95.25Y-64.77
X95.25Y-67.27
X95.25Y-69.77
X95.25Y-72.27
X95.25Y-74.77
X100.33Y-95.33
X100.33Y-97.83
X100.33Y-100.33
X124.54Y-35.56
X127.04Y-35.56
X129.54Y-35.56
T3
X111.125Y-63.5
X111.125Y-66.04
X111.125Y-68.58
X111.125Y-71.12
X111.125Y-73.66
X111.125Y-76.2
X111.125Y-78.74
X111.125Y-81.28
X111.125Y-83.82
X111.125Y-86.36
X88.9Y-63.5
X88.9Y-66.04
X88.9Y-68.58
X88.9Y-71.12
X88.9Y-73.66
X88.9Y-76.2
X88.9Y-78.74
X88.9Y-81.28
X88.9Y-83.82
X88.9Y-86.36
X63.5Y-63.5
X63.5Y-66.04
X63.5Y-68.58
X63.5Y-71.12
X63.5Y-73.66
X63.5Y-76.2
X63.5Y-78.74
X63.5Y-81.28
X63.5Y-83.82
X63.5Y-86.36
X136.525Y-63.5
X136.525Y-66.04
X136.525Y-68.58
X136.525Y-71.12
X136.525Y-73.66
X136.525Y-76.2
X136.525Y-78.74
X136.525Y-81.28
X136.525Y-83.82
X136.525Y-86.36
T4
X78.74Y-59.055
X81.28Y-65.405
X78.74Y-107.315
X81.28Y-113.665
X78.74Y-83.185
X81.28Y-89.535
X78.74Y-34.925
X81.28Y-41.275
T5
X110.49Y-50.8
X110.49Y-99.06
X137.16Y-38.1
X62.865Y-99.06
X137.16Y-111.76
X89.535Y-38.1
X89.535Y-111.76
X62.865Y-50.8
T0
M30
