M48
; DRILL file {KiCad 7.0.7} date Mon Oct  2 17:26:44 2023
; FORMAT={-:-/ absolute / inch / decimal}
; #@! TF.CreationDate,2023-10-02T17:26:44+09:00
; #@! TF.GenerationSoftware,Kicad,Pcbnew,7.0.7
; #@! TF.FileFunction,NonPlated,1,2,NPTH
FMAT,2
INCH
; #@! TA.AperFunction,NonPlated,NPTH,ComponentDrill
T1C0.0669
; #@! TA.AperFunction,NonPlated,NPTH,ComponentDrill
T2C0.0787
; #@! TA.AperFunction,NonPlated,NPTH,ComponentDrill
T3C0.1575
%
G90
G05
T1
X3.0Y-1.325
X3.0Y-1.725
X3.0Y-2.275
X3.0Y-2.675
X3.0Y-3.225
X3.0Y-3.625
X3.0Y-4.175
X3.0Y-4.575
T3
X3.0Y-1.525
X3.0Y-2.475
X3.0Y-3.425
X3.0Y-4.375
T2
G00X3.6941Y-2.0689
M15
G01X3.6941Y-2.0374
M16
G05
G00X3.6941Y-3.8673
M15
G01X3.6941Y-3.8358
M16
G05
G00X4.0059Y-2.7311
M15
G01X4.0059Y-2.7626
M16
G05
G00X4.0059Y-3.2835
M15
G01X4.0059Y-3.315
M16
G05
G00X4.3441Y-1.4319
M15
G01X4.3441Y-1.4634
M16
G05
G00X4.35Y-4.4343
M15
G01X4.35Y-4.4657
M16
G05
G00X4.9827Y-4.7559
M15
G01X5.0142Y-4.7559
M16
G05
G00X5.0173Y-1.1441
M15
G01X4.9858Y-1.1441
M16
G05
G00X5.7577Y-4.7559
M15
G01X5.7892Y-4.7559
M16
G05
G00X5.7923Y-1.1441
M15
G01X5.7608Y-1.1441
M16
G05
G00X6.0059Y-1.9173
M15
G01X6.0059Y-1.8858
M16
G05
G00X6.0059Y-2.4173
M15
G01X6.0059Y-2.3858
M16
G05
G00X6.0059Y-3.5173
M15
G01X6.0059Y-3.4858
M16
G05
G00X6.0059Y-4.0173
M15
G01X6.0059Y-3.9858
M16
G05
T0
M30
